<svg xmlns="http://www.w3.org/2000/svg" viewBox="-912.625 -3410.625 25.25 25.25" width="25.25" height="25.25"><g fill="none"><path d="M-895.196-3410h-12.953a3.851 3.851 0 0 0-3.851 3.851v12.892a3.851 3.851 0 0 0 3.851 3.851h12.953a3.851 3.851 0 0 0 3.851-3.851v-12.892a3.851 3.851 0 0 0-3.851-3.851Z" fill="#fff"/><path d="M-895.196-3410h-12.953a3.851 3.851 0 0 0-3.851 3.851v12.892a3.851 3.851 0 0 0 3.851 3.851h12.953a3.851 3.851 0 0 0 3.851-3.851v-12.892a3.851 3.851 0 0 0-3.851-3.851Z" stroke="#000" stroke-linecap="round" stroke-linejoin="round" stroke-width=".25"/><path d="M-891.851-3406.594h-12.953a3.851 3.851 0 0 0-3.851 3.851v12.892a3.851 3.851 0 0 0 3.851 3.851h12.953a3.851 3.851 0 0 0 3.851-3.851v-12.892a3.851 3.851 0 0 0-3.851-3.851Z" fill="#fff"/><path d="M-891.851-3406.594h-12.953a3.851 3.851 0 0 0-3.851 3.851v12.892a3.851 3.851 0 0 0 3.851 3.851h12.953a3.851 3.851 0 0 0 3.851-3.851v-12.892a3.851 3.851 0 0 0-3.851-3.851Z" stroke="#000" stroke-linecap="round" stroke-linejoin="round" stroke-width=".25"/><path d="M-902.499-3392.667h-3.476l6.084 6.667 6.084-6.667h-3.564c0-4.763 1.39-8.096 4.433-10.477-4.346.952-8.692 3.81-9.56 10.477Z" fill="#518737"/></g></svg>