<svg xmlns="http://www.w3.org/2000/svg" width="102.706" height="103" viewBox="1046.5 -925.13 102.706 103"><g fill="none"><path fill="#fff" d="M1117.81-923.63H1064c-8.837 0-16 7.164-16 16v53.81c0 8.837 7.163 16 16 16h53.81c8.836 0 16-7.163 16-16v-53.81c0-8.836-7.164-16-16-16Z"/><path stroke="#000" stroke-linecap="round" stroke-linejoin="round" stroke-width="3" d="M1117.81-923.63H1064c-8.837 0-16 7.164-16 16v53.81c0 8.837 7.163 16 16 16h53.81c8.836 0 16-7.163 16-16v-53.81c0-8.836-7.164-16-16-16Z"/><path fill="#fff" d="M1131.706-909.44h-53.81c-8.836 0-16 7.164-16 16v53.81c0 8.837 7.164 16 16 16h53.81c8.837 0 16-7.163 16-16v-53.81c0-8.836-7.163-16-16-16Z"/><path stroke="#000" stroke-linecap="round" stroke-linejoin="round" stroke-width="3" d="M1131.706-909.44h-53.81c-8.836 0-16 7.164-16 16v53.81c0 8.837 7.164 16 16 16h53.81c8.837 0 16-7.163 16-16v-53.81c0-8.836-7.163-16-16-16Z"/><path fill="#518737" d="M1087.472-851.41h-14.444l25.276 27.78 25.276-27.78h-14.805c0-19.843 5.778-33.733 18.416-43.655-18.054 3.969-36.109 15.875-39.72 43.655Z"/></g></svg>