<svg xmlns="http://www.w3.org/2000/svg" viewBox="-992.625 -3410.625 25.25 25.25" width="25.25" height="25.25"><g fill="none"><path d="M-975.196-3410h-12.953a3.851 3.851 0 0 0-3.851 3.851v12.892a3.851 3.851 0 0 0 3.851 3.851h12.953a3.851 3.851 0 0 0 3.851-3.851v-12.892a3.851 3.851 0 0 0-3.851-3.851Z" fill="#fff"/><path d="M-975.196-3410h-12.953a3.851 3.851 0 0 0-3.851 3.851v12.892a3.851 3.851 0 0 0 3.851 3.851h12.953a3.851 3.851 0 0 0 3.851-3.851v-12.892a3.851 3.851 0 0 0-3.851-3.851Z" stroke="#000" stroke-linecap="round" stroke-linejoin="round" stroke-width=".25"/><path d="M-971.851-3406.594h-12.953a3.851 3.851 0 0 0-3.851 3.851v12.892a3.851 3.851 0 0 0 3.851 3.851h12.953a3.851 3.851 0 0 0 3.851-3.851v-12.892a3.851 3.851 0 0 0-3.851-3.851Z" fill="#fff"/><path d="M-971.851-3406.594h-12.953a3.851 3.851 0 0 0-3.851 3.851v12.892a3.851 3.851 0 0 0 3.851 3.851h12.953a3.851 3.851 0 0 0 3.851-3.851v-12.892a3.851 3.851 0 0 0-3.851-3.851Z" stroke="#000" stroke-linecap="round" stroke-linejoin="round" stroke-width=".25"/><path d="m-981.635-3401.237-1.027 1.031 3.4 3.383-11.928.028.003 1.451 11.928-.028-3.384 3.399 1.032 1.027 5.134-5.158Z" fill="#5b76a2"/><path d="m-981.635-3401.237-1.027 1.031 3.4 3.383-11.928.028.003 1.451 11.928-.028-3.384 3.399 1.032 1.027 5.134-5.158Z" stroke="#5c76a2" stroke-linecap="round" stroke-linejoin="round"/></g></svg>