<svg xmlns="http://www.w3.org/2000/svg" viewBox="-792.625 -3410.625 25.25 25.25" width="25.25" height="25.25"><g fill="none"><path d="M-775.196-3410h-12.953a3.851 3.851 0 0 0-3.851 3.851v12.892a3.851 3.851 0 0 0 3.851 3.851h12.953a3.851 3.851 0 0 0 3.851-3.851v-12.892a3.851 3.851 0 0 0-3.851-3.851Z" fill="#fff"/><path d="M-775.196-3410h-12.953a3.851 3.851 0 0 0-3.851 3.851v12.892a3.851 3.851 0 0 0 3.851 3.851h12.953a3.851 3.851 0 0 0 3.851-3.851v-12.892a3.851 3.851 0 0 0-3.851-3.851Z" stroke="#ccc" stroke-linecap="round" stroke-linejoin="round" stroke-width=".25"/><path d="M-771.851-3406.594h-12.953a3.851 3.851 0 0 0-3.851 3.851v12.892a3.851 3.851 0 0 0 3.851 3.851h12.953a3.851 3.851 0 0 0 3.851-3.851v-12.892a3.851 3.851 0 0 0-3.851-3.851Z" fill="#fff"/><path d="M-771.851-3406.594h-12.953a3.851 3.851 0 0 0-3.851 3.851v12.892a3.851 3.851 0 0 0 3.851 3.851h12.953a3.851 3.851 0 0 0 3.851-3.851v-12.892a3.851 3.851 0 0 0-3.851-3.851Z" stroke="#ccc" stroke-linecap="round" stroke-linejoin="round" stroke-width=".25"/><path d="M-781.803-3401.512v11.297a.722.722 0 0 0 1.109.61l8.902-5.649a.722.722 0 0 0 0-1.22l-8.902-5.648a.722.722 0 0 0-1.11.61Z" fill="#ccc"/></g></svg>