<svg xmlns="http://www.w3.org/2000/svg" viewBox="-872.625 -3410.625 25.25 25.25" width="25.25" height="25.25"><g fill="none"><path d="M-855.196-3410h-12.953a3.851 3.851 0 0 0-3.851 3.851v12.892a3.851 3.851 0 0 0 3.851 3.851h12.953a3.851 3.851 0 0 0 3.851-3.851v-12.892a3.851 3.851 0 0 0-3.851-3.851Z" fill="#fff"/><path d="M-855.196-3410h-12.953a3.851 3.851 0 0 0-3.851 3.851v12.892a3.851 3.851 0 0 0 3.851 3.851h12.953a3.851 3.851 0 0 0 3.851-3.851v-12.892a3.851 3.851 0 0 0-3.851-3.851Z" stroke="#ccc" stroke-linecap="round" stroke-linejoin="round" stroke-width=".25"/><path d="M-851.851-3406.594h-12.953a3.851 3.851 0 0 0-3.851 3.851v12.892a3.851 3.851 0 0 0 3.851 3.851h12.953a3.851 3.851 0 0 0 3.851-3.851v-12.892a3.851 3.851 0 0 0-3.851-3.851Z" fill="#fff"/><path d="M-851.851-3406.594h-12.953a3.851 3.851 0 0 0-3.851 3.851v12.892a3.851 3.851 0 0 0 3.851 3.851h12.953a3.851 3.851 0 0 0 3.851-3.851v-12.892a3.851 3.851 0 0 0-3.851-3.851Z" stroke="#ccc" stroke-linecap="round" stroke-linejoin="round" stroke-width=".25"/><path d="M-864.538-3392.083v2.7h2.707l7.986-7.963-2.707-2.7-7.986 7.963Zm12.787-7.35a.715.715 0 0 0 0-1.015l-1.69-1.685a.72.72 0 0 0-1.018 0l-1.32 1.317 2.707 2.7 1.321-1.317Z" fill="#ccc"/></g></svg>