<svg xmlns="http://www.w3.org/2000/svg" width="103.44" height="104.183" viewBox="2117.64 935.111 103.44 104.183"><g fill="none"><path fill="#fff" d="M2219.58 1006.794v15c0 8.836-7.163 16-16 16h-14.27c-8.836 0-16-7.164-16-16v-15c0-8.837 7.164-16 16-16h14.27c8.837 0 16 7.163 16 16Z"/><path stroke="#000" stroke-linecap="round" stroke-linejoin="round" stroke-width="3" d="M2219.58 1006.794v15c0 8.836-7.163 16-16 16h-14.27c-8.836 0-16-7.164-16-16v-15c0-8.837 7.164-16 16-16h14.27c8.837 0 16 7.163 16 16Z"/><path fill="#fff" d="M2165.85 1006.794v15c0 8.836-7.163 16-16 16h-14.27c-8.836 0-16-7.164-16-16v-15c0-8.837 7.164-16 16-16h14.27c8.837 0 16 7.163 16 16Z"/><path stroke="#000" stroke-linecap="round" stroke-linejoin="round" stroke-width="3" d="M2165.85 1006.794v15c0 8.836-7.163 16-16 16h-14.27c-8.836 0-16-7.164-16-16v-15c0-8.837 7.164-16 16-16h14.27c8.837 0 16 7.163 16 16Z"/><path fill="#fff" d="M2219.14 952.61v15c0 8.837-7.163 16-16 16h-14.27c-8.837 0-16-7.163-16-16v-15c0-8.836 7.163-16 16-16h14.27c8.837 0 16 7.164 16 16Z"/><path stroke="#000" stroke-linecap="round" stroke-linejoin="round" stroke-width="3" d="M2219.14 952.61v15c0 8.837-7.163 16-16 16h-14.27c-8.837 0-16-7.163-16-16v-15c0-8.836 7.163-16 16-16h14.27c8.837 0 16 7.164 16 16Z"/><path fill="#fff" d="M2165.41 952.61v15c0 8.837-7.163 16-16 16h-14.27c-8.837 0-16-7.163-16-16v-15c0-8.836 7.163-16 16-16h14.27c8.837 0 16 7.164 16 16Z"/><path stroke="#000" stroke-linecap="round" stroke-linejoin="round" stroke-width="3" d="M2165.41 952.61v15c0 8.837-7.163 16-16 16h-14.27c-8.837 0-16-7.163-16-16v-15c0-8.836 7.163-16 16-16h14.27c8.837 0 16 7.164 16 16Z"/></g></svg>