<svg xmlns="http://www.w3.org/2000/svg" width="103" height="103" viewBox="2125.772 816.896 103 103"><g fill="none"><path fill="#fff" d="M2227.272 834.396v68c0 8.837-7.164 16-16 16h-14.27c-8.837 0-16-7.163-16-16v-68c0-8.836 7.163-16 16-16h14.27c8.836 0 16 7.164 16 16Z"/><path stroke="#000" stroke-linecap="round" stroke-linejoin="round" stroke-width="3" d="M2227.272 834.396v68c0 8.837-7.164 16-16 16h-14.27c-8.837 0-16-7.163-16-16v-68c0-8.836 7.163-16 16-16h14.27c8.836 0 16 7.164 16 16Z"/><path fill="#fff" d="M2173.542 834.396v68c0 8.837-7.164 16-16 16h-14.27c-8.837 0-16-7.163-16-16v-68c0-8.836 7.163-16 16-16h14.27c8.836 0 16 7.164 16 16Z"/><path stroke="#000" stroke-linecap="round" stroke-linejoin="round" stroke-width="3" d="M2173.542 834.396v68c0 8.837-7.164 16-16 16h-14.27c-8.837 0-16-7.163-16-16v-68c0-8.836 7.163-16 16-16h14.27c8.836 0 16 7.164 16 16Z"/></g></svg>