<svg xmlns="http://www.w3.org/2000/svg" width="25.25" height="25.25" viewBox="-992.625 -3730.625 25.25 25.25"><g fill="none"><path fill="#fff" d="M-968-3713.325v3.502a3.823 3.823 0 0 1-3.823 3.823h-3.41a3.823 3.823 0 0 1-3.823-3.823v-3.502a3.823 3.823 0 0 1 3.823-3.823h3.41a3.823 3.823 0 0 1 3.823 3.823Z"/><path stroke="#000" stroke-linecap="round" stroke-linejoin="round" stroke-width=".25" d="M-968-3713.325v3.502a3.823 3.823 0 0 1-3.823 3.823h-3.41a3.823 3.823 0 0 1-3.823-3.823v-3.502a3.823 3.823 0 0 1 3.823-3.823h3.41a3.823 3.823 0 0 1 3.823 3.823Z"/><path fill="#fff" d="M-980.839-3713.325v3.502a3.823 3.823 0 0 1-3.823 3.823h-3.41a3.823 3.823 0 0 1-3.823-3.823v-3.502a3.823 3.823 0 0 1 3.823-3.823h3.41a3.823 3.823 0 0 1 3.823 3.823Z"/><path stroke="#000" stroke-linecap="round" stroke-linejoin="round" stroke-width=".25" d="M-980.839-3713.325v3.502a3.823 3.823 0 0 1-3.823 3.823h-3.41a3.823 3.823 0 0 1-3.823-3.823v-3.502a3.823 3.823 0 0 1 3.823-3.823h3.41a3.823 3.823 0 0 1 3.823 3.823Z"/><path fill="#fff" d="M-968.105-3726.177v3.502a3.823 3.823 0 0 1-3.823 3.823h-3.41a3.823 3.823 0 0 1-3.823-3.823v-3.502a3.823 3.823 0 0 1 3.823-3.823h3.41a3.823 3.823 0 0 1 3.823 3.823Z"/><path stroke="#000" stroke-linecap="round" stroke-linejoin="round" stroke-width=".25" d="M-968.105-3726.177v3.502a3.823 3.823 0 0 1-3.823 3.823h-3.41a3.823 3.823 0 0 1-3.823-3.823v-3.502a3.823 3.823 0 0 1 3.823-3.823h3.41a3.823 3.823 0 0 1 3.823 3.823Z"/><path fill="#fff" d="M-980.944-3726.177v3.502a3.823 3.823 0 0 1-3.823 3.823h-3.41a3.823 3.823 0 0 1-3.823-3.823v-3.502a3.823 3.823 0 0 1 3.823-3.823h3.41a3.823 3.823 0 0 1 3.823 3.823Z"/><path stroke="#000" stroke-linecap="round" stroke-linejoin="round" stroke-width=".25" d="M-980.944-3726.177v3.502a3.823 3.823 0 0 1-3.823 3.823h-3.41a3.823 3.823 0 0 1-3.823-3.823v-3.502a3.823 3.823 0 0 1 3.823-3.823h3.41a3.823 3.823 0 0 1 3.823 3.823Z"/></g></svg>