<svg xmlns="http://www.w3.org/2000/svg" width="25.25" height="25.25" viewBox="-952.625 -3730.536 25.25 25.25"><g fill="none"><path fill="#fff" d="M-928-3726.071v16.32a3.84 3.84 0 0 1-3.84 3.84h-3.425a3.84 3.84 0 0 1-3.84-3.84v-16.32a3.84 3.84 0 0 1 3.84-3.84h3.425a3.84 3.84 0 0 1 3.84 3.84Z"/><path stroke="#000" stroke-linecap="round" stroke-linejoin="round" stroke-width=".25" d="M-928-3726.071v16.32a3.84 3.84 0 0 1-3.84 3.84h-3.425a3.84 3.84 0 0 1-3.84-3.84v-16.32a3.84 3.84 0 0 1 3.84-3.84h3.425a3.84 3.84 0 0 1 3.84 3.84Z"/><path fill="#fff" d="M-940.895-3726.071v16.32a3.84 3.84 0 0 1-3.84 3.84h-3.425a3.84 3.84 0 0 1-3.84-3.84v-16.32a3.84 3.84 0 0 1 3.84-3.84h3.425a3.84 3.84 0 0 1 3.84 3.84Z"/><path stroke="#000" stroke-linecap="round" stroke-linejoin="round" stroke-width=".25" d="M-940.895-3726.071v16.32a3.84 3.84 0 0 1-3.84 3.84h-3.425a3.84 3.84 0 0 1-3.84-3.84v-16.32a3.84 3.84 0 0 1 3.84-3.84h3.425a3.84 3.84 0 0 1 3.84 3.84Z"/></g></svg>