<svg xmlns="http://www.w3.org/2000/svg" width="25.25" height="25.25" viewBox="-832.625 -3730.625 25.25 25.25"><g fill="none"><path fill="#fff" d="M-828.16-3730h16.32a3.84 3.84 0 0 1 3.84 3.84v16.32a3.84 3.84 0 0 1-3.84 3.84h-16.32a3.84 3.84 0 0 1-3.84-3.84v-16.32a3.84 3.84 0 0 1 3.84-3.84Z"/><path stroke="#000" stroke-linecap="round" stroke-linejoin="round" stroke-width=".25" d="M-828.16-3730h16.32a3.84 3.84 0 0 1 3.84 3.84v16.32a3.84 3.84 0 0 1-3.84 3.84h-16.32a3.84 3.84 0 0 1-3.84-3.84v-16.32a3.84 3.84 0 0 1 3.84-3.84Z"/><path fill="#d07738" d="M-810.4-3713.479v1.239a3.84 3.84 0 0 1-3.84 3.84h-1.165a3.84 3.84 0 0 1-3.84-3.84v-1.239a3.84 3.84 0 0 1 3.84-3.84h1.165a3.84 3.84 0 0 1 3.84 3.84Z"/><path stroke="#000" stroke-linecap="round" stroke-linejoin="round" stroke-width=".25" d="M-810.4-3713.479v1.239a3.84 3.84 0 0 1-3.84 3.84h-1.165a3.84 3.84 0 0 1-3.84-3.84v-1.239a3.84 3.84 0 0 1 3.84-3.84h1.165a3.84 3.84 0 0 1 3.84 3.84Z"/><path fill="#9f4c4c" d="M-820.67-3713.479v1.239a3.84 3.84 0 0 1-3.84 3.84h-1.166a3.84 3.84 0 0 1-3.84-3.84v-1.239a3.84 3.84 0 0 1 3.84-3.84h1.165a3.84 3.84 0 0 1 3.84 3.84Z"/><path stroke="#000" stroke-linecap="round" stroke-linejoin="round" stroke-width=".25" d="M-820.67-3713.479v1.239a3.84 3.84 0 0 1-3.84 3.84h-1.166a3.84 3.84 0 0 1-3.84-3.84v-1.239a3.84 3.84 0 0 1 3.84-3.84h1.165a3.84 3.84 0 0 1 3.84 3.84Z"/><path fill="#5c76a2" d="M-810.484-3723.76v1.239a3.84 3.84 0 0 1-3.84 3.84h-1.165a3.84 3.84 0 0 1-3.84-3.84v-1.239a3.84 3.84 0 0 1 3.84-3.84h1.165a3.84 3.84 0 0 1 3.84 3.84Z"/><path stroke="#000" stroke-linecap="round" stroke-linejoin="round" stroke-width=".25" d="M-810.484-3723.76v1.239a3.84 3.84 0 0 1-3.84 3.84h-1.165a3.84 3.84 0 0 1-3.84-3.84v-1.239a3.84 3.84 0 0 1 3.84-3.84h1.165a3.84 3.84 0 0 1 3.84 3.84Z"/><path fill="#518737" d="M-820.755-3723.76v1.239a3.84 3.84 0 0 1-3.84 3.84h-1.165a3.84 3.84 0 0 1-3.84-3.84v-1.239a3.84 3.84 0 0 1 3.84-3.84h1.165a3.84 3.84 0 0 1 3.84 3.84Z"/><path stroke="#000" stroke-linecap="round" stroke-linejoin="round" stroke-width=".25" d="M-820.755-3723.76v1.239a3.84 3.84 0 0 1-3.84 3.84h-1.165a3.84 3.84 0 0 1-3.84-3.84v-1.239a3.84 3.84 0 0 1 3.84-3.84h1.165a3.84 3.84 0 0 1 3.84 3.84Z"/></g></svg>