999
dxfrw 0.5.13
0
SECTION
2
HEADER
9
$ACADVER
1
AC1021
9
$HANDSEED
5
20000
9
$DWGCODEPAGE
3
ANSI_1252
9
$INSBASE
10
0
20
0
30
0
9
$EXTMIN
10
10000000000
20
10000000000
30
0
9
$EXTMAX
10
-10000000000
20
-10000000000
30
0
9
$LIMMIN
10
0
20
0
9
$LIMMAX
10
12
20
9
9
$ORTHOMODE
70
0
9
$LTSCALE
40
1
9
$TEXTSTYLE
7
Standard
9
$CLAYER
8
0
9
$DIMASZ
40
3
9
$DIMLFAC
40
1
9
$DIMSCALE
40
1
9
$DIMEXO
40
0.0625
9
$DIMEXE
40
0.18
9
$DIMTXT
40
10
9
$DIMTSZ
40
0
9
$DIMAUNIT
70
0
9
$DIMADEC
70
0
9
$DIMLUNIT
70
2
9
$DIMSTYLE
2
Standard
9
$DIMGAP
40
1
9
$DIMTIH
70
0
9
$LUNITS
70
2
9
$LUPREC
70
4
9
$AUNITS
70
0
9
$AUPREC
70
0
9
$SPLINESEGS
70
8
9
$GRIDMODE
70
0
9
$SNAPSTYLE
70
0
9
$PINSBASE
10
0
20
0
30
0
9
$PLIMMIN
10
0
20
0
9
$PLIMMAX
10
11.695
20
8.26333333333
9
$INSUNITS
70
1
9
$PSVPSCALE
40
0
0
ENDSEC
0
SECTION
2
CLASSES
0
ENDSEC
0
SECTION
2
TABLES
0
TABLE
2
VPORT
5
8
330
0
100
AcDbSymbolTable
70
1
0
VPORT
5
31
330
2
100
AcDbSymbolTableRecord
100
AcDbViewportTableRecord
2
*ACTIVE
70
0
10
0
20
0
11
1
21
1
12
7588.50891188
22
-1461.18534673
13
0
23
0
14
10
24
10
15
10
25
10
16
0
26
0
36
1
17
0
27
0
37
0
40
1808.52594083
41
0.782552083333
42
50
43
0
44
0
50
0
51
0
71
0
72
100
73
1
74
3
75
0
76
0
77
0
78
0
281
0
65
1
110
0
120
0
130
0
111
1
121
0
131
0
112
0
122
1
132
0
79
0
146
0
348
10020
60
7
61
5
292
1
282
1
141
0
142
0
63
250
421
3358443
0
ENDTAB
0
TABLE
2
LTYPE
5
5
330
0
100
AcDbSymbolTable
70
4
0
LTYPE
5
14
330
5
100
AcDbSymbolTableRecord
100
AcDbLinetypeTableRecord
2
ByBlock
70
0
3

72
65
73
0
40
0
0
LTYPE
5
15
330
5
100
AcDbSymbolTableRecord
100
AcDbLinetypeTableRecord
2
ByLayer
70
0
3

72
65
73
0
40
0
0
LTYPE
5
16
330
5
100
AcDbSymbolTableRecord
100
AcDbLinetypeTableRecord
2
Continuous
70
0
3
Solid line
72
65
73
0
40
0
0
LTYPE
5
32
330
5
100
AcDbSymbolTableRecord
100
AcDbLinetypeTableRecord
2
DOT
70
0
3
Dot . . . . . . . . . . . . . . . . . . . . . .
72
65
73
2
40
6.35
49
0
74
0
49
-6.35
74
0
0
LTYPE
5
33
330
5
100
AcDbSymbolTableRecord
100
AcDbLinetypeTableRecord
2
DOT2
70
0
3
Dot (.5x) .....................................
72
65
73
2
40
3.175
49
0
74
0
49
-3.175
74
0
0
LTYPE
5
34
330
5
100
AcDbSymbolTableRecord
100
AcDbLinetypeTableRecord
2
DOTX2
70
0
3
Dot (2x) .  .  .  .  .  .  .  .  .  .  .  .  .
72
65
73
2
40
12.7
49
0
74
0
49
-12.7
74
0
0
LTYPE
5
35
330
5
100
AcDbSymbolTableRecord
100
AcDbLinetypeTableRecord
2
DASHED
70
0
3
Dot . . . . . . . . . . . . . . . . . . . . . .
72
65
73
2
40
19.05
49
12.7
74
0
49
-6.35
74
0
0
LTYPE
5
36
330
5
100
AcDbSymbolTableRecord
100
AcDbLinetypeTableRecord
2
DASHED2
70
0
3
Dashed (.5x) _ _ _ _ _ _ _ _ _ _ _ _ _ _ _ _ _
72
65
73
2
40
9.525
49
6.35
74
0
49
-3.175
74
0
0
LTYPE
5
37
330
5
100
AcDbSymbolTableRecord
100
AcDbLinetypeTableRecord
2
DASHEDX2
70
0
3
Dashed (2x) ____  ____  ____  ____  ____  ___
72
65
73
2
40
38.1
49
25.4
74
0
49
-12.7
74
0
0
LTYPE
5
38
330
5
100
AcDbSymbolTableRecord
100
AcDbLinetypeTableRecord
2
DASHDOT
70
0
3
Dash dot __ . __ . __ . __ . __ . __ . __ . __
72
65
73
4
40
25.4
49
12.7
74
0
49
-6.35
74
0
49
0
74
0
49
-6.35
74
0
0
LTYPE
5
39
330
5
100
AcDbSymbolTableRecord
100
AcDbLinetypeTableRecord
2
DASHDOT2
70
0
3
Dash dot (.5x) _._._._._._._._._._._._._._._.
72
65
73
4
40
12.7
49
6.35
74
0
49
-3.175
74
0
49
0
74
0
49
-3.175
74
0
0
LTYPE
5
3A
330
5
100
AcDbSymbolTableRecord
100
AcDbLinetypeTableRecord
2
DASHDOTX2
70
0
3
Dash dot (2x) ____  .  ____  .  ____  .  ___
72
65
73
4
40
50.8
49
25.4
74
0
49
-12.7
74
0
49
0
74
0
49
-12.7
74
0
0
LTYPE
5
3B
330
5
100
AcDbSymbolTableRecord
100
AcDbLinetypeTableRecord
2
DIVIDE
70
0
3
Divide ____ . . ____ . . ____ . . ____ . . ____
72
65
73
6
40
31.75
49
12.7
74
0
49
-6.35
74
0
49
0
74
0
49
-6.35
74
0
49
0
74
0
49
-6.35
74
0
0
LTYPE
5
3C
330
5
100
AcDbSymbolTableRecord
100
AcDbLinetypeTableRecord
2
DIVIDE2
70
0
3
Divide (.5x) __..__..__..__..__..__..__..__.._
72
65
73
6
40
15.875
49
6.35
74
0
49
-3.175
74
0
49
0
74
0
49
-3.175
74
0
49
0
74
0
49
-3.175
74
0
0
LTYPE
5
3D
330
5
100
AcDbSymbolTableRecord
100
AcDbLinetypeTableRecord
2
DIVIDEX2
70
0
3
Divide (2x) ________  .  .  ________  .  .  _
72
65
73
6
40
63.5
49
25.4
74
0
49
-12.7
74
0
49
0
74
0
49
-12.7
74
0
49
0
74
0
49
-12.7
74
0
0
LTYPE
5
3E
330
5
100
AcDbSymbolTableRecord
100
AcDbLinetypeTableRecord
2
BORDER
70
0
3
Border __ __ . __ __ . __ __ . __ __ . __ __ .
72
65
73
6
40
44.45
49
12.7
74
0
49
-6.35
74
0
49
12.7
74
0
49
-6.35
74
0
49
0
74
0
49
-6.35
74
0
0
LTYPE
5
3F
330
5
100
AcDbSymbolTableRecord
100
AcDbLinetypeTableRecord
2
BORDER2
70
0
3
Border (.5x) __.__.__.__.__.__.__.__.__.__.__.
72
65
73
6
40
22.225
49
6.35
74
0
49
-3.175
74
0
49
6.35
74
0
49
-3.175
74
0
49
0
74
0
49
-3.175
74
0
0
LTYPE
5
40
330
5
100
AcDbSymbolTableRecord
100
AcDbLinetypeTableRecord
2
BORDERX2
70
0
3
Border (2x) ____  ____  .  ____  ____  .  ___
72
65
73
6
40
88.9
49
25.4
74
0
49
-12.7
74
0
49
25.4
74
0
49
-12.7
74
0
49
0
74
0
49
-12.7
74
0
0
LTYPE
5
41
330
5
100
AcDbSymbolTableRecord
100
AcDbLinetypeTableRecord
2
CENTER
70
0
3
Center ____ _ ____ _ ____ _ ____ _ ____ _ ____
72
65
73
4
40
50.8
49
31.75
74
0
49
-6.35
74
0
49
6.35
74
0
49
-6.35
74
0
0
LTYPE
5
42
330
5
100
AcDbSymbolTableRecord
100
AcDbLinetypeTableRecord
2
CENTER2
70
0
3
Center (.5x) ___ _ ___ _ ___ _ ___ _ ___ _ ___
72
65
73
4
40
28.575
49
19.05
74
0
49
-3.175
74
0
49
3.175
74
0
49
-3.175
74
0
0
LTYPE
5
43
330
5
100
AcDbSymbolTableRecord
100
AcDbLinetypeTableRecord
2
CENTERX2
70
0
3
Center (2x) ________  __  ________  __  _____
72
65
73
4
40
101.6
49
63.5
74
0
49
-12.7
74
0
49
12.7
74
0
49
-12.7
74
0
0
ENDTAB
0
TABLE
2
LAYER
5
2
330
0
100
AcDbSymbolTable
70
1
0
LAYER
5
10
330
2
100
AcDbSymbolTableRecord
100
AcDbLayerTableRecord
2
0
70
0
62
7
6
CONTINUOUS
370
-3
390
F
0
LAYER
5
44
330
2
100
AcDbSymbolTableRecord
100
AcDbLayerTableRecord
2
DYER
70
0
62
255
6
CONTINUOUS
370
9
390
F
0
LAYER
5
45
330
2
100
AcDbSymbolTableRecord
100
AcDbLayerTableRecord
2
MURS
70
0
62
6
6
CONTINUOUS
370
15
390
F
0
LAYER
5
46
330
2
100
AcDbSymbolTableRecord
100
AcDbLayerTableRecord
2
Wall
70
0
62
7
6
CONTINUOUS
370
30
390
F
0
ENDTAB
0
TABLE
2
STYLE
5
3
330
0
100
AcDbSymbolTable
70
3
0
STYLE
5
47
330
2
100
AcDbSymbolTableRecord
100
AcDbTextStyleTableRecord
2
Standard
70
0
40
0
41
1
50
0
71
0
42
1
3
txt
4

0
ENDTAB
0
TABLE
2
VIEW
5
6
330
0
100
AcDbSymbolTable
70
0
0
ENDTAB
0
TABLE
2
UCS
5
7
330
0
100
AcDbSymbolTable
70
0
0
ENDTAB
0
TABLE
2
APPID
5
9
330
0
100
AcDbSymbolTable
70
1
0
APPID
5
12
330
9
100
AcDbSymbolTableRecord
100
AcDbRegAppTableRecord
2
ACAD
70
0
0
APPID
5
48
330
9
100
AcDbSymbolTableRecord
100
AcDbRegAppTableRecord
2
LibreCad
70
0
0
ENDTAB
0
TABLE
2
DIMSTYLE
5
A
330
0
100
AcDbSymbolTable
70
1
100
AcDbDimStyleTable
71
1
0
DIMSTYLE
105
49
330
A
100
AcDbSymbolTableRecord
100
AcDbDimStyleTableRecord
2
Standard
70
0
40
1
41
3
42
0.0625
43
0.38
44
0.18
45
0
46
0
47
0
48
0
140
10
141
0.09
142
0
143
25.4
144
1
145
0
146
1
147
1
148
0
71
0
72
0
73
0
74
1
75
0
76
0
77
0
78
0
79
0
170
0
171
2
172
0
173
0
174
0
175
0
176
0
177
0
178
0
179
0
271
4
272
4
273
2
274
2
275
0
276
0
277
2
278
46
279
0
280
0
281
0
282
0
283
1
284
0
285
0
286
0
288
0
289
3
340
Standard
341

371
-2
372
-2
0
ENDTAB
0
TABLE
2
BLOCK_RECORD
5
1
330
0
100
AcDbSymbolTable
70
2
0
BLOCK_RECORD
5
1F
330
1
100
AcDbSymbolTableRecord
100
AcDbBlockTableRecord
2
*Model_Space
70
0
280
1
281
0
0
BLOCK_RECORD
5
1E
330
1
100
AcDbSymbolTableRecord
100
AcDbBlockTableRecord
2
*Paper_Space
70
0
280
1
281
0
0
BLOCK_RECORD
5
4A
330
1
100
AcDbSymbolTableRecord
100
AcDbBlockTableRecord
2
D100_DJA
70
0
280
1
281
0
0
ENDTAB
0
ENDSEC
0
SECTION
2
BLOCKS
0
BLOCK
5
20
330
1F
100
AcDbEntity
8
0
100
AcDbBlockBegin
2
*Model_Space
70
0
10
0
20
0
30
0
3
*Model_Space
1

0
ENDBLK
5
21
330
1F
100
AcDbEntity
8
0
100
AcDbBlockEnd
0
BLOCK
5
1C
330
1B
100
AcDbEntity
8
0
100
AcDbBlockBegin
2
*Paper_Space
70
0
10
0
20
0
30
0
3
*Paper_Space
1

0
ENDBLK
5
1D
330
1F
100
AcDbEntity
8
0
100
AcDbBlockEnd
0
BLOCK
5
4B
330
4A
100
AcDbEntity
8
0
100
AcDbBlockBegin
2
D100_DJA
70
0
10
0
20
0
3
D100_DJA
1

0
LWPOLYLINE
5
4D
100
AcDbEntity
8
0
6
ByLayer
62
256
370
-1
100
AcDbPolyline
90
4
70
1
43
0
10
-6.5
20
-0.5
10
-2.5
20
-0.5
10
-2.5
20
99.5
10
-6.5
20
99.5
0
LWPOLYLINE
5
4E
100
AcDbEntity
8
0
6
DASHED
62
256
370
-1
100
AcDbPolyline
90
2
70
0
43
0
10
-100
20
4.06677729897e-014
42
-0.385170388215
10
-10
20
99.4987437107
42
-0.385170388215
0
ENDBLK
5
4C
330
4A
100
AcDbEntity
8
0
100
AcDbBlockEnd
0
ENDSEC
0
SECTION
2
ENTITIES
0
LINE
5
4F
100
AcDbEntity
8
Wall
6
ByLayer
62
256
370
-1
100
AcDbLine
10
13853.5
20
-3351
11
13983.5
21
-3351
0
LINE
5
50
100
AcDbEntity
8
Wall
6
ByLayer
62
256
370
-1
100
AcDbLine
10
14203.5
20
-4055
11
14803.5
21
-4055
0
LINE
5
51
100
AcDbEntity
8
Wall
6
ByLayer
62
256
370
-1
100
AcDbLine
10
13853.5
20
-4055
11
13853.5
21
-3351
0
LINE
5
52
100
AcDbEntity
8
Wall
6
ByLayer
62
256
370
-1
100
AcDbLine
10
15057.5
20
-4055
11
15057.5
21
-3636
0
LINE
5
53
100
AcDbEntity
8
Wall
6
ByLayer
62
256
370
-1
100
AcDbLine
10
13883.5
20
-4025
11
14083.5
21
-4025
0
LINE
5
54
100
AcDbEntity
8
Wall
6
ByLayer
62
256
370
-1
100
AcDbLine
10
15027.5
20
-4025
11
15027.5
21
-3636
0
LINE
5
55
100
AcDbEntity
8
Wall
6
ByLayer
62
256
370
-1
100
AcDbLine
10
13883.5
20
-4025
11
13883.5
21
-3835
0
LINE
5
56
100
AcDbEntity
8
Wall
6
ByLayer
62
256
370
-1
100
AcDbLine
10
13883.5
20
-3381
11
13983.5
21
-3381
0
LINE
5
57
100
AcDbEntity
8
Wall
6
ByLayer
62
256
370
-1
100
AcDbLine
10
13853.5
20
-4055
11
14083.5
21
-4055
0
LINE
5
58
100
AcDbEntity
8
Wall
6
ByLayer
62
256
370
-1
100
AcDbLine
10
14083.5
20
-4055
11
14083.5
21
-4025
0
LINE
5
59
100
AcDbEntity
8
Wall
6
ByLayer
62
256
370
-1
100
AcDbLine
10
14203.5
20
-4055
11
14203.5
21
-4025
0
LINE
5
5A
100
AcDbEntity
8
Wall
6
ByLayer
62
256
370
-1
100
AcDbLine
10
14203.5
20
-4025
11
14478.5
21
-4025
0
INSERT
5
5B
100
AcDbEntity
8
DYER
6
ByLayer
62
256
370
-1
100
AcDbBlockReference
2
D100_DJA
10
14082
20
-4014.7
30
0
41
-0.600000000002
42
0.600000000002
43
0
50
0
70
1
71
1
44
0
45
0
0
INSERT
5
5C
100
AcDbEntity
8
DYER
6
ByLayer
62
256
370
-1
100
AcDbBlockReference
2
D100_DJA
10
14205
20
-4014.7
30
0
41
0.600000000002
42
0.600000000002
43
0
50
0
70
1
71
1
44
0
45
0
0
LINE
5
5D
100
AcDbEntity
8
Wall
6
ByLayer
62
256
370
-1
100
AcDbLine
10
14478.5
20
-4055
11
14478.5
21
-4025
0
INSERT
5
5E
100
AcDbEntity
8
DYER
6
ByLayer
62
256
370
-1
100
AcDbBlockReference
2
D100_DJA
10
14476.75
20
-4014.65
30
0
41
-0.700000000003
42
0.700000000003
43
0
50
0
70
1
71
1
44
0
45
0
0
LINE
5
5F
100
AcDbEntity
8
Wall
6
ByLayer
62
256
370
-1
100
AcDbLine
10
14618.5
20
-4055
11
14618.5
21
-4025
0
INSERT
5
60
100
AcDbEntity
8
DYER
6
ByLayer
62
256
370
-1
100
AcDbBlockReference
2
D100_DJA
10
14620.25
20
-4014.65
30
0
41
0.700000000003
42
0.700000000003
43
0
50
0
70
1
71
1
44
0
45
0
0
LINE
5
61
100
AcDbEntity
8
Wall
6
ByLayer
62
256
370
-1
100
AcDbLine
10
14618.5
20
-4025
11
14803.5
21
-4025
0
LINE
5
62
100
AcDbEntity
8
Wall
6
ByLayer
62
256
370
-1
100
AcDbLine
10
14803.5
20
-4055
11
14803.5
21
-4025
0
LINE
5
63
100
AcDbEntity
8
Wall
6
ByLayer
62
256
370
-1
100
AcDbLine
10
14943.5
20
-4055
11
14943.5
21
-4025
0
LINE
5
64
100
AcDbEntity
8
Wall
6
ByLayer
62
256
370
-1
100
AcDbLine
10
14943.5
20
-4025
11
15027.5
21
-4025
0
LINE
5
65
100
AcDbEntity
8
Wall
6
ByLayer
62
256
370
-1
100
AcDbLine
10
14943.5
20
-4055
11
15057.5
21
-4055
0
LINE
5
66
100
AcDbEntity
8
Wall
6
ByLayer
62
256
370
-1
100
AcDbLine
10
14803.5
20
-4055
11
14943.5
21
-4055
0
INSERT
5
67
100
AcDbEntity
8
DYER
6
ByLayer
62
256
370
-1
100
AcDbBlockReference
2
D100_DJA
10
14801.75
20
-4014.65
30
0
41
-0.700000000003
42
0.700000000003
43
0
50
0
70
1
71
1
44
0
45
0
0
INSERT
5
68
100
AcDbEntity
8
DYER
6
ByLayer
62
256
370
-1
100
AcDbBlockReference
2
D100_DJA
10
14945.25
20
-4014.65
30
0
41
0.700000000003
42
0.700000000003
43
0
50
0
70
1
71
1
44
0
45
0
0
LINE
5
69
100
AcDbEntity
8
Wall
6
ByLayer
62
256
370
-1
100
AcDbLine
10
15057.5
20
-3351
11
15057.5
21
-3496
0
LINE
5
6A
100
AcDbEntity
8
Wall
6
ByLayer
62
256
370
-1
100
AcDbLine
10
15057.5
20
-3496
11
15017.5
21
-3496
0
LINE
5
6B
100
AcDbEntity
8
Wall
6
ByLayer
62
256
370
-1
100
AcDbLine
10
15057.5
20
-3636
11
15017.5
21
-3636
0
LINE
5
6C
100
AcDbEntity
8
Wall
6
ByLayer
62
256
370
-1
100
AcDbLine
10
15027.5
20
-3496
11
15027.5
21
-3381
0
LINE
5
6D
100
AcDbEntity
8
Wall
6
ByLayer
62
256
370
-1
100
AcDbLine
10
15057.5
20
-3496
11
15057.5
21
-3351
0
LINE
5
6E
100
AcDbEntity
8
Wall
6
ByLayer
62
256
370
-1
100
AcDbLine
10
15067.5
20
-3636
11
15067.5
21
-3496
0
LINE
5
6F
100
AcDbEntity
8
Wall
6
ByLayer
62
256
370
-1
100
AcDbLine
10
15067.5
20
-3636
11
15067.5
21
-3641
0
LINE
5
70
100
AcDbEntity
8
Wall
6
ByLayer
62
256
370
-1
100
AcDbLine
10
15067.5
20
-3641
11
15057.5
21
-3641
0
LINE
5
71
100
AcDbEntity
8
Wall
6
ByLayer
62
256
370
-1
100
AcDbLine
10
15067.5
20
-3496
11
15067.5
21
-3491
0
LINE
5
72
100
AcDbEntity
8
Wall
6
ByLayer
62
256
370
-1
100
AcDbLine
10
15067.5
20
-3491
11
15057.5
21
-3491
0
LINE
5
73
100
AcDbEntity
8
Wall
6
ByLayer
62
256
370
-1
100
AcDbLine
10
13853.5
20
-3835
11
13883.5
21
-3835
0
LINE
5
74
100
AcDbEntity
8
Wall
6
ByLayer
62
256
370
-1
100
AcDbLine
10
13853.5
20
-3695
11
13883.5
21
-3695
0
LINE
5
75
100
AcDbEntity
8
Wall
6
ByLayer
62
256
370
-1
100
AcDbLine
10
13883.5
20
-3695
11
13883.5
21
-3381
0
INSERT
5
76
100
AcDbEntity
8
DYER
6
ByLayer
62
256
370
-1
100
AcDbBlockReference
2
D100_DJA
10
13893.85
20
-3836.75
30
0
41
0.700000000003
42
0.700000000003
43
0
50
270
70
1
71
1
44
0
45
0
0
INSERT
5
77
100
AcDbEntity
8
DYER
6
ByLayer
62
256
370
-1
100
AcDbBlockReference
2
D100_DJA
10
13893.85
20
-3693.25
30
0
41
-0.700000000003
42
0.700000000003
43
0
50
270
70
1
71
1
44
0
45
0
0
LINE
5
78
100
AcDbEntity
8
Wall
6
ByLayer
62
256
370
-1
100
AcDbLine
10
13983.5
20
-3351
11
13983.5
21
-3391
0
LINE
5
79
100
AcDbEntity
8
Wall
6
ByLayer
62
256
370
-1
100
AcDbLine
10
14123.5
20
-3341
11
13983.5
21
-3341
0
LINE
5
7A
100
AcDbEntity
8
Wall
6
ByLayer
62
256
370
-1
100
AcDbLine
10
14123.5
20
-3351
11
14123.5
21
-3391
0
LINE
5
7B
100
AcDbEntity
8
Wall
6
ByLayer
62
256
370
-1
100
AcDbLine
10
14123.5
20
-3341
11
14128.5
21
-3341
0
LINE
5
7C
100
AcDbEntity
8
Wall
6
ByLayer
62
256
370
-1
100
AcDbLine
10
14128.5
20
-3341
11
14128.5
21
-3351
0
LINE
5
7D
100
AcDbEntity
8
Wall
6
ByLayer
62
256
370
-1
100
AcDbLine
10
13983.5
20
-3341
11
13978.5
21
-3341
0
LINE
5
7E
100
AcDbEntity
8
Wall
6
ByLayer
62
256
370
-1
100
AcDbLine
10
13978.5
20
-3341
11
13978.5
21
-3351
0
LINE
5
7F
100
AcDbEntity
8
Wall
6
ByLayer
62
256
370
-1
100
AcDbLine
10
14123.5
20
-3351
11
14213.5
21
-3351
0
LINE
5
80
100
AcDbEntity
8
Wall
6
ByLayer
62
256
370
-1
100
AcDbLine
10
14213.5
20
-3351
11
14213.5
21
-3391
0
LINE
5
81
100
AcDbEntity
8
Wall
6
ByLayer
62
256
370
-1
100
AcDbLine
10
14213.5
20
-3351
11
14213.5
21
-3391
0
LINE
5
82
100
AcDbEntity
8
Wall
6
ByLayer
62
256
370
-1
100
AcDbLine
10
14353.5
20
-3341
11
14208.5
21
-3341
0
LINE
5
83
100
AcDbEntity
8
Wall
6
ByLayer
62
256
370
-1
100
AcDbLine
10
14213.5
20
-3351
11
14213.5
21
-3391
0
LINE
5
84
100
AcDbEntity
8
Wall
6
ByLayer
62
256
370
-1
100
AcDbLine
10
14353.5
20
-3351
11
14353.5
21
-3391
0
LINE
5
85
100
AcDbEntity
8
Wall
6
ByLayer
62
256
370
-1
100
AcDbLine
10
14353.5
20
-3341
11
14358.5
21
-3341
0
LINE
5
86
100
AcDbEntity
8
Wall
6
ByLayer
62
256
370
-1
100
AcDbLine
10
14358.5
20
-3341
11
14358.5
21
-3351
0
LINE
5
87
100
AcDbEntity
8
Wall
6
ByLayer
62
256
370
-1
100
AcDbLine
10
14208.5
20
-3341
11
14208.5
21
-3351
0
LINE
5
88
100
AcDbEntity
8
Wall
6
ByLayer
62
256
370
-1
100
AcDbLine
10
14353.5
20
-3351
11
14448.5
21
-3351
0
LINE
5
89
100
AcDbEntity
8
Wall
6
ByLayer
62
256
370
-1
100
AcDbLine
10
14448.5
20
-3351
11
14448.5
21
-3391
0
LINE
5
8A
100
AcDbEntity
8
Wall
6
ByLayer
62
256
370
-1
100
AcDbLine
10
14648.5
20
-3351
11
14648.5
21
-3391
0
LINE
5
8B
100
AcDbEntity
8
Wall
6
ByLayer
62
256
370
-1
100
AcDbLine
10
14448.5
20
-3341
11
14593.5
21
-3341
0
LINE
5
8C
100
AcDbEntity
8
Wall
6
ByLayer
62
256
370
-1
100
AcDbLine
10
14448.5
20
-3341
11
14443.5
21
-3341
0
LINE
5
8D
100
AcDbEntity
8
Wall
6
ByLayer
62
256
370
-1
100
AcDbLine
10
14443.5
20
-3341
11
14443.5
21
-3351
0
LINE
5
8E
100
AcDbEntity
8
Wall
6
ByLayer
62
256
370
-1
100
AcDbLine
10
14443.5
20
-3351
11
14448.5
21
-3351
0
LINE
5
8F
100
AcDbEntity
8
Wall
6
ByLayer
62
256
370
-1
100
AcDbLine
10
14648.5
20
-3351
11
14653.5
21
-3351
0
LINE
5
90
100
AcDbEntity
8
Wall
6
ByLayer
62
256
370
-1
100
AcDbLine
10
14653.5
20
-3351
11
14653.5
21
-3341
0
LINE
5
91
100
AcDbEntity
8
Wall
6
ByLayer
62
256
370
-1
100
AcDbLine
10
14653.5
20
-3341
11
14593.5
21
-3341
0
LINE
5
92
100
AcDbEntity
8
Wall
6
ByLayer
62
256
370
-1
100
AcDbLine
10
14648.5
20
-3351
11
15057.5
21
-3351
0
LINE
5
93
100
AcDbEntity
8
Wall
6
ByLayer
62
256
370
-1
100
AcDbLine
10
14498.5
20
-3351
11
14498.5
21
-3391
0
LINE
5
94
100
AcDbEntity
8
Wall
6
ByLayer
62
256
370
-1
100
AcDbLine
10
14518.5
20
-3351
11
14518.5
21
-3391
0
LINE
5
95
100
AcDbEntity
8
Wall
6
ByLayer
62
256
370
-1
100
AcDbLine
10
14498.5
20
-3351
11
14518.5
21
-3351
0
LINE
5
96
100
AcDbEntity
8
Wall
6
ByLayer
62
256
370
-1
100
AcDbLine
10
13883.5
20
-3381
11
13883.5
21
-3521
0
LINE
5
97
100
AcDbEntity
8
Wall
6
ByLayer
62
256
370
-1
100
AcDbLine
10
13893.5
20
-3521
11
14153.5
21
-3521
0
LINE
5
98
100
AcDbEntity
8
Wall
6
ByLayer
62
256
370
-1
100
AcDbLine
10
13893.5
20
-3531
11
14153.5
21
-3531
0
LINE
5
99
100
AcDbEntity
8
Wall
6
ByLayer
62
256
370
-1
100
AcDbLine
10
14153.5
20
-3391
11
14153.5
21
-3441
0
LINE
5
9A
100
AcDbEntity
8
Wall
6
ByLayer
62
256
370
-1
100
AcDbLine
10
14163.5
20
-3391
11
14163.5
21
-3441
0
LINE
5
9B
100
AcDbEntity
8
Wall
6
ByLayer
62
256
370
-1
100
AcDbLine
10
13893.5
20
-3391
11
14153.5
21
-3391
0
LINE
5
9C
100
AcDbEntity
8
Wall
6
ByLayer
62
256
370
-1
100
AcDbLine
10
13893.5
20
-3695
11
13893.5
21
-3531
0
LINE
5
9D
100
AcDbEntity
8
Wall
6
ByLayer
62
256
370
-1
100
AcDbLine
10
14163.5
20
-3391
11
14413.5
21
-3391
0
LINE
5
9E
100
AcDbEntity
8
Wall
6
ByLayer
62
256
370
-1
100
AcDbLine
10
14648.5
20
-3381
11
15027.5
21
-3381
0
LINE
5
9F
100
AcDbEntity
8
Wall
6
ByLayer
62
256
370
-1
100
AcDbLine
10
14123.5
20
-3381
11
14213.5
21
-3381
0
LINE
5
A0
100
AcDbEntity
8
Wall
6
ByLayer
62
256
370
-1
100
AcDbLine
10
14353.5
20
-3381
11
14448.5
21
-3381
0
LINE
5
A1
100
AcDbEntity
8
Wall
6
ByLayer
62
256
370
-1
100
AcDbLine
10
14498.5
20
-3381
11
14518.5
21
-3381
0
LINE
5
A2
100
AcDbEntity
8
Wall
6
ByLayer
62
256
370
-1
100
AcDbLine
10
15017.5
20
-3496
11
15017.5
21
-3391
0
LINE
5
A3
100
AcDbEntity
8
Wall
6
ByLayer
62
256
370
-1
100
AcDbLine
10
15017.5
20
-3636
11
15017.5
21
-3496
0
LINE
5
A4
100
AcDbEntity
8
Wall
6
ByLayer
62
256
370
-1
100
AcDbLine
10
15017.5
20
-4015
11
15017.5
21
-3661
0
LINE
5
A5
100
AcDbEntity
8
Wall
6
ByLayer
62
256
370
-1
100
AcDbLine
10
14943.5
20
-4015
11
15017.5
21
-4015
0
LINE
5
A6
100
AcDbEntity
8
Wall
6
ByLayer
62
256
370
-1
100
AcDbLine
10
14618.5
20
-4015
11
14753.5
21
-4015
0
LINE
5
A7
100
AcDbEntity
8
Wall
6
ByLayer
62
256
370
-1
100
AcDbLine
10
14203.5
20
-4015
11
14413.5
21
-4015
0
LINE
5
A8
100
AcDbEntity
8
Wall
6
ByLayer
62
256
370
-1
100
AcDbLine
10
13893.5
20
-4015
11
14083.5
21
-4015
0
LINE
5
A9
100
AcDbEntity
8
Wall
6
ByLayer
62
256
370
-1
100
AcDbLine
10
13893.5
20
-4015
11
13893.5
21
-3835
0
LINE
5
AA
100
AcDbEntity
8
Wall
6
ByLayer
62
256
370
-1
100
AcDbLine
10
13893.5
20
-3521
11
13893.5
21
-3391
0
LINE
5
AB
100
AcDbEntity
8
Wall
6
ByLayer
62
256
370
-1
100
AcDbLine
10
14153.5
20
-3511
11
14163.5
21
-3511
0
LINE
5
AC
100
AcDbEntity
8
Wall
6
ByLayer
62
256
370
-1
100
AcDbLine
10
14153.5
20
-3441
11
14163.5
21
-3441
0
LINE
5
AD
100
AcDbEntity
8
Wall
6
ByLayer
62
256
370
-1
100
AcDbLine
10
14163.5
20
-3511
11
14163.5
21
-3531
0
LINE
5
AE
100
AcDbEntity
8
Wall
6
ByLayer
62
256
370
-1
100
AcDbLine
10
14153.5
20
-3511
11
14153.5
21
-3521
0
LINE
5
AF
100
AcDbEntity
8
Wall
6
ByLayer
62
256
370
-1
100
AcDbLine
10
13883.5
20
-3695
11
13893.5
21
-3695
0
LINE
5
B0
100
AcDbEntity
8
Wall
6
ByLayer
62
256
370
-1
100
AcDbLine
10
13883.5
20
-3835
11
13893.5
21
-3835
0
LINE
5
B1
100
AcDbEntity
8
Wall
6
ByLayer
62
256
370
-1
100
AcDbLine
10
14083.5
20
-4025
11
14083.5
21
-4015
0
LINE
5
B2
100
AcDbEntity
8
Wall
6
ByLayer
62
256
370
-1
100
AcDbLine
10
14203.5
20
-4025
11
14203.5
21
-4015
0
LINE
5
B3
100
AcDbEntity
8
Wall
6
ByLayer
62
256
370
-1
100
AcDbLine
10
14478.5
20
-4025
11
14478.5
21
-4015
0
LINE
5
B4
100
AcDbEntity
8
Wall
6
ByLayer
62
256
370
-1
100
AcDbLine
10
14618.5
20
-4025
11
14618.5
21
-4015
0
LINE
5
B5
100
AcDbEntity
8
Wall
6
ByLayer
62
256
370
-1
100
AcDbLine
10
14803.5
20
-4025
11
14803.5
21
-4015
0
LINE
5
B6
100
AcDbEntity
8
Wall
6
ByLayer
62
256
370
-1
100
AcDbLine
10
14943.5
20
-4025
11
14943.5
21
-4015
0
INSERT
5
B7
100
AcDbEntity
8
DYER
6
ByLayer
62
256
370
-1
100
AcDbBlockReference
2
D100_DJA
10
14153.15
20
-3512.75
30
0
41
-0.700000000003
42
0.700000000003
43
0
50
90
70
1
71
1
44
0
45
0
0
LINE
5
B8
100
AcDbEntity
8
Wall
6
ByLayer
62
256
370
-1
100
AcDbLine
10
14413.5
20
-3661
11
14153.5
21
-3661
0
LINE
5
B9
100
AcDbEntity
8
Wall
6
ByLayer
62
256
370
-1
100
AcDbLine
10
14163.5
20
-3531
11
14163.5
21
-3651
0
LINE
5
BA
100
AcDbEntity
8
Wall
6
ByLayer
62
256
370
-1
100
AcDbLine
10
14423.5
20
-3651
11
14423.5
21
-3661
0
LINE
5
BB
100
AcDbEntity
8
Wall
6
ByLayer
62
256
370
-1
100
AcDbLine
10
14153.5
20
-3531
11
14153.5
21
-3661
0
LINE
5
BC
100
AcDbEntity
8
Wall
6
ByLayer
62
256
370
-1
100
AcDbLine
10
14413.5
20
-3651
11
14163.5
21
-3651
0
LINE
5
BD
100
AcDbEntity
8
Wall
6
ByLayer
62
256
370
-1
100
AcDbLine
10
14423.5
20
-3641
11
14423.5
21
-3651
0
LINE
5
BE
100
AcDbEntity
8
Wall
6
ByLayer
62
256
370
-1
100
AcDbLine
10
14413.5
20
-3651
11
14413.5
21
-3641
0
LINE
5
BF
100
AcDbEntity
8
Wall
6
ByLayer
62
256
370
-1
100
AcDbLine
10
14423.5
20
-3641
11
14413.5
21
-3641
0
LINE
5
C0
100
AcDbEntity
8
Wall
6
ByLayer
62
256
370
-1
100
AcDbLine
10
14423.5
20
-3661
11
14423.5
21
-3671
0
LINE
5
C1
100
AcDbEntity
8
Wall
6
ByLayer
62
256
370
-1
100
AcDbLine
10
14413.5
20
-3671
11
14413.5
21
-3661
0
LINE
5
C2
100
AcDbEntity
8
Wall
6
ByLayer
62
256
370
-1
100
AcDbLine
10
14423.5
20
-3671
11
14413.5
21
-3671
0
LINE
5
C3
100
AcDbEntity
8
Wall
6
ByLayer
62
256
370
-1
100
AcDbLine
10
14423.5
20
-3571
11
14413.5
21
-3571
0
LINE
5
C4
100
AcDbEntity
8
Wall
6
ByLayer
62
256
370
-1
100
AcDbLine
10
14423.5
20
-3571
11
14423.5
21
-3561
0
LINE
5
C5
100
AcDbEntity
8
Wall
6
ByLayer
62
256
370
-1
100
AcDbLine
10
14413.5
20
-3571
11
14413.5
21
-3391
0
LINE
5
C6
100
AcDbEntity
8
Wall
6
ByLayer
62
256
370
-1
100
AcDbLine
10
14423.5
20
-3391
11
14663.5
21
-3391
0
INSERT
5
C7
100
AcDbEntity
8
DYER
6
ByLayer
62
256
370
-1
100
AcDbBlockReference
2
D100_DJA
10
14413.15
20
-3642.75
30
0
41
-0.700000000003
42
0.700000000003
43
0
50
90
70
1
71
1
44
0
45
0
0
LINE
5
C8
100
AcDbEntity
8
Wall
6
ByLayer
62
256
370
-1
100
AcDbLine
10
14423.5
20
-3741
11
14413.5
21
-3741
0
LINE
5
C9
100
AcDbEntity
8
Wall
6
ByLayer
62
256
370
-1
100
AcDbLine
10
14413.5
20
-3741
11
14413.5
21
-4015
0
LINE
5
CA
100
AcDbEntity
8
Wall
6
ByLayer
62
256
370
-1
100
AcDbLine
10
14423.5
20
-4015
11
14478.5
21
-4015
0
INSERT
5
CB
100
AcDbEntity
8
DYER
6
ByLayer
62
256
370
-1
100
AcDbBlockReference
2
D100_DJA
10
14413.15
20
-3669.25
30
0
41
0.700000000003
42
0.700000000003
43
0
50
90
70
1
71
1
44
0
45
0
0
LINE
5
CC
100
AcDbEntity
8
Wall
6
ByLayer
62
256
370
-1
100
AcDbLine
10
14423.5
20
-3571
11
14423.5
21
-3561
0
LINE
5
CD
100
AcDbEntity
8
Wall
6
ByLayer
62
256
370
-1
100
AcDbLine
10
14423.5
20
-3561
11
14433.5
21
-3561
0
LINE
5
CE
100
AcDbEntity
8
Wall
6
ByLayer
62
256
370
-1
100
AcDbLine
10
14433.5
20
-3561
11
14433.5
21
-3551
0
LINE
5
CF
100
AcDbEntity
8
Wall
6
ByLayer
62
256
370
-1
100
AcDbLine
10
14433.5
20
-3551
11
14423.5
21
-3551
0
LINE
5
D0
100
AcDbEntity
8
Wall
6
ByLayer
62
256
370
-1
100
AcDbLine
10
14423.5
20
-3551
11
14423.5
21
-3391
0
LINE
5
D1
100
AcDbEntity
8
Wall
6
ByLayer
62
256
370
-1
100
AcDbLine
10
14513.5
20
-3651
11
14513.5
21
-3391
0
LINE
5
D2
100
AcDbEntity
8
Wall
6
ByLayer
62
256
370
-1
100
AcDbLine
10
14423.5
20
-3751
11
14673.5
21
-3751
0
LINE
5
D3
100
AcDbEntity
8
Wall
6
ByLayer
62
256
370
-1
100
AcDbLine
10
14423.5
20
-3751
11
14673.5
21
-3751
0
LINE
5
D4
100
AcDbEntity
8
Wall
6
ByLayer
62
256
370
-1
100
AcDbLine
10
14673.5
20
-3751
11
14673.5
21
-3761
0
LINE
5
D5
100
AcDbEntity
8
Wall
6
ByLayer
62
256
370
-1
100
AcDbLine
10
14673.5
20
-3761
11
14423.5
21
-3761
0
LINE
5
D6
100
AcDbEntity
8
Wall
6
ByLayer
62
256
370
-1
100
AcDbLine
10
14423.5
20
-3761
11
14423.5
21
-4015
0
LINE
5
D7
100
AcDbEntity
8
Wall
6
ByLayer
62
256
370
-1
100
AcDbLine
10
14423.5
20
-3741
11
14423.5
21
-3751
0
LINE
5
D8
100
AcDbEntity
8
Wall
6
ByLayer
62
256
370
-1
100
AcDbLine
10
14743.5
20
-3751
11
14743.5
21
-3761
0
LINE
5
D9
100
AcDbEntity
8
Wall
6
ByLayer
62
256
370
-1
100
AcDbLine
10
14753.5
20
-3761
11
14753.5
21
-4015
0
LINE
5
DA
100
AcDbEntity
8
Wall
6
ByLayer
62
256
370
-1
100
AcDbLine
10
14763.5
20
-3751
11
14763.5
21
-4015
0
LINE
5
DB
100
AcDbEntity
8
Wall
6
ByLayer
62
256
370
-1
100
AcDbLine
10
14493.5
20
-3561
11
14493.5
21
-3551
0
LINE
5
DC
100
AcDbEntity
8
Wall
6
ByLayer
62
256
370
-1
100
AcDbLine
10
14503.5
20
-3661
11
14503.5
21
-3561
0
LINE
5
DD
100
AcDbEntity
8
Wall
6
ByLayer
62
256
370
-1
100
AcDbLine
10
14493.5
20
-3551
11
14503.5
21
-3551
0
LINE
5
DE
100
AcDbEntity
8
Wall
6
ByLayer
62
256
370
-1
100
AcDbLine
10
14493.5
20
-3561
11
14503.5
21
-3561
0
LINE
5
DF
100
AcDbEntity
8
Wall
6
ByLayer
62
256
370
-1
100
AcDbLine
10
14513.5
20
-3561
11
14513.5
21
-3551
0
LINE
5
E0
100
AcDbEntity
8
Wall
6
ByLayer
62
256
370
-1
100
AcDbLine
10
14753.5
20
-3751
11
14753.5
21
-3741
0
LINE
5
E1
100
AcDbEntity
8
Wall
6
ByLayer
62
256
370
-1
100
AcDbLine
10
14753.5
20
-3741
11
14763.5
21
-3741
0
LINE
5
E2
100
AcDbEntity
8
Wall
6
ByLayer
62
256
370
-1
100
AcDbLine
10
14763.5
20
-3741
11
14763.5
21
-3751
0
LINE
5
E3
100
AcDbEntity
8
Wall
6
ByLayer
62
256
370
-1
100
AcDbLine
10
14743.5
20
-3751
11
14753.5
21
-3751
0
LINE
5
E4
100
AcDbEntity
8
Wall
6
ByLayer
62
256
370
-1
100
AcDbLine
10
14763.5
20
-4015
11
14803.5
21
-4015
0
LINE
5
E5
100
AcDbEntity
8
Wall
6
ByLayer
62
256
370
-1
100
AcDbLine
10
14743.5
20
-3761
11
14753.5
21
-3761
0
INSERT
5
E6
100
AcDbEntity
8
DYER
6
ByLayer
62
256
370
-1
100
AcDbBlockReference
2
D100_DJA
10
14432
20
-3550.7
30
0
41
-0.600000000002
42
0.600000000002
43
0
50
0
70
1
71
1
44
0
45
0
0
LINE
5
E7
100
AcDbEntity
8
Wall
6
ByLayer
62
256
370
-1
100
AcDbLine
10
14503.5
20
-3551
11
14503.5
21
-3391
0
LINE
5
E8
100
AcDbEntity
8
Wall
6
ByLayer
62
256
370
-1
100
AcDbLine
10
14503.5
20
-3661
11
14583.5
21
-3661
0
LINE
5
E9
100
AcDbEntity
8
Wall
6
ByLayer
62
256
370
-1
100
AcDbLine
10
14583.5
20
-3661
11
14583.5
21
-3651
0
LINE
5
EA
100
AcDbEntity
8
Wall
6
ByLayer
62
256
370
-1
100
AcDbLine
10
14583.5
20
-3651
11
14513.5
21
-3651
0
LINE
5
EB
100
AcDbEntity
8
Wall
6
ByLayer
62
256
370
-1
100
AcDbLine
10
14653.5
20
-3661
11
14653.5
21
-3651
0
LINE
5
EC
100
AcDbEntity
8
Wall
6
ByLayer
62
256
370
-1
100
AcDbLine
10
14653.5
20
-3651
11
14663.5
21
-3651
0
LINE
5
ED
100
AcDbEntity
8
Wall
6
ByLayer
62
256
370
-1
100
AcDbLine
10
14663.5
20
-3651
11
14663.5
21
-3391
0
LINE
5
EE
100
AcDbEntity
8
Wall
6
ByLayer
62
256
370
-1
100
AcDbLine
10
14673.5
20
-3651
11
14673.5
21
-3391
0
LINE
5
EF
100
AcDbEntity
8
Wall
6
ByLayer
62
256
370
-1
100
AcDbLine
10
14673.5
20
-3391
11
15017.5
21
-3391
0
LINE
5
F0
100
AcDbEntity
8
Wall
6
ByLayer
62
256
370
-1
100
AcDbLine
10
14653.5
20
-3661
11
14673.5
21
-3661
0
INSERT
5
F1
100
AcDbEntity
8
DYER
6
ByLayer
62
256
370
-1
100
AcDbBlockReference
2
D100_DJA
10
14655.25
20
-3650.65
30
0
41
0.700000000003
42
0.700000000003
43
0
50
0
70
1
71
1
44
0
45
0
0
LINE
5
F2
100
AcDbEntity
8
Wall
6
ByLayer
62
256
370
-1
100
AcDbLine
10
14683.5
20
-3661
11
14683.5
21
-3651
0
LINE
5
F3
100
AcDbEntity
8
Wall
6
ByLayer
62
256
370
-1
100
AcDbLine
10
14683.5
20
-3651
11
14673.5
21
-3651
0
LINE
5
F4
100
AcDbEntity
8
Wall
6
ByLayer
62
256
370
-1
100
AcDbLine
10
14683.5
20
-3661
11
14673.5
21
-3661
0
LINE
5
F5
100
AcDbEntity
8
Wall
6
ByLayer
62
256
370
-1
100
AcDbLine
10
14753.5
20
-3661
11
14753.5
21
-3651
0
LINE
5
F6
100
AcDbEntity
8
Wall
6
ByLayer
62
256
370
-1
100
AcDbLine
10
14753.5
20
-3651
11
15017.5
21
-3651
0
LINE
5
F7
100
AcDbEntity
8
Wall
6
ByLayer
62
256
370
-1
100
AcDbLine
10
14763.5
20
-3661
11
15017.5
21
-3661
0
LINE
5
F8
100
AcDbEntity
8
Wall
6
ByLayer
62
256
370
-1
100
AcDbLine
10
15017.5
20
-3651
11
15017.5
21
-3636
0
INSERT
5
F9
100
AcDbEntity
8
DYER
6
ByLayer
62
256
370
-1
100
AcDbBlockReference
2
D100_DJA
10
14681.75
20
-3650.65
30
0
41
-0.700000000003
42
0.700000000003
43
0
50
0
70
1
71
1
44
0
45
0
0
LINE
5
FA
100
AcDbEntity
8
Wall
6
ByLayer
62
256
370
-1
100
AcDbLine
10
14753.5
20
-3661
11
14753.5
21
-3671
0
LINE
5
FB
100
AcDbEntity
8
Wall
6
ByLayer
62
256
370
-1
100
AcDbLine
10
14753.5
20
-3671
11
14763.5
21
-3671
0
LINE
5
FC
100
AcDbEntity
8
Wall
6
ByLayer
62
256
370
-1
100
AcDbLine
10
14763.5
20
-3671
11
14763.5
21
-3661
0
INSERT
5
FD
100
AcDbEntity
8
DYER
6
ByLayer
62
256
370
-1
100
AcDbBlockReference
2
D100_DJA
10
14763.85
20
-3669.25
30
0
41
-0.700000000003
42
0.700000000003
43
0
50
270
70
1
71
1
44
0
45
0
0
LWPOLYLINE
5
FE
100
AcDbEntity
8
0
6
ByLayer
62
256
370
-1
100
AcDbPolyline
90
4
70
1
43
0
10
13898.5
20
-3955
10
14076.5
20
-3955
10
14076.5
20
-4012.5
10
13898.5
20
-4012.5
0
LINE
5
FF
100
AcDbEntity
8
0
6
CONTINUOUS
62
256
370
-1
100
AcDbLine
10
14350.4250974
20
-3863
11
14393.5
21
-3863
0
LINE
5
100
100
AcDbEntity
8
0
6
CONTINUOUS
62
256
370
-1
100
AcDbLine
10
14350.4250974
20
-3915.5
11
14393.5
21
-3915.5
0
LINE
5
101
100
AcDbEntity
8
0
6
CONTINUOUS
62
256
370
-1
100
AcDbLine
10
14393.5
20
-3810.5
11
14393.5
21
-3968
0
LINE
5
102
100
AcDbEntity
8
0
6
CONTINUOUS
62
256
370
-1
100
AcDbLine
10
14402.25
20
-3968
11
14350.4250974
21
-3968
0
LINE
5
103
100
AcDbEntity
8
0
6
CONTINUOUS
62
256
370
-1
100
AcDbLine
10
14402.25
20
-3810.5
11
14402.25
21
-3968
0
LINE
5
104
100
AcDbEntity
8
0
6
CONTINUOUS
62
256
370
-1
100
AcDbLine
10
14350.4250974
20
-3810.5
11
14402.25
21
-3810.5
0
LINE
5
105
100
AcDbEntity
8
0
6
CONTINUOUS
62
256
370
-1
100
AcDbLine
10
14350.4250974
20
-3799.25
11
14409.75
21
-3799.25
0
LINE
5
106
100
AcDbEntity
8
0
6
CONTINUOUS
62
256
370
-1
100
AcDbLine
10
14409.75
20
-3799.25
11
14409.75
21
-3979.25
0
LINE
5
107
100
AcDbEntity
8
0
6
CONTINUOUS
62
256
370
-1
100
AcDbLine
10
14409.75
20
-3979.25
11
14350.4250974
21
-3979.25
0
LINE
5
108
100
AcDbEntity
8
0
6
CONTINUOUS
62
256
370
-1
100
AcDbLine
10
14350.4250974
20
-3979.25
11
14350.4250974
21
-3799.25
0
LINE
5
109
100
AcDbEntity
8
0
6
ByLayer
62
256
370
-1
100
AcDbLine
10
14083.5
20
-4055
11
14203.5
21
-4055
0
INSERT
5
10A
100
AcDbEntity
8
DYER
6
ByLayer
62
256
370
-1
100
AcDbBlockReference
2
D100_DJA
10
14745.25
20
-3761.35
30
0
41
-0.700000000003
42
0.700000000003
43
0
50
180
70
1
71
1
44
0
45
0
0
LWPOLYLINE
5
10B
100
AcDbEntity
8
MURS
6
ByLayer
62
256
370
-1
100
AcDbPolyline
90
6
70
1
43
0
10
13983.5
20
-3351
10
13983.5
20
-3381
10
13883.5
20
-3381
10
13883.5
20
-3695
10
13853.5
20
-3695
10
13853.5
20
-3351
0
LWPOLYLINE
5
10C
100
AcDbEntity
8
MURS
6
ByLayer
62
256
370
-1
100
AcDbPolyline
90
4
70
1
43
0
10
14123.5
20
-3381
10
14213.5
20
-3381
10
14213.5
20
-3351
10
14123.5
20
-3351
0
LWPOLYLINE
5
10D
100
AcDbEntity
8
MURS
6
ByLayer
62
256
370
-1
100
AcDbPolyline
90
4
70
1
43
0
10
14353.5
20
-3381
10
14448.5
20
-3381
10
14448.5
20
-3351
10
14353.5
20
-3351
0
LWPOLYLINE
5
10E
100
AcDbEntity
8
MURS
6
ByLayer
62
256
370
-1
100
AcDbPolyline
90
7
70
0
43
0
10
15057.5
20
-3351
10
14648.5
20
-3351
10
14648.5
20
-3381
10
15027.5
20
-3381
10
15027.5
20
-3496
10
15057.5
20
-3496
10
15057.5
20
-3351
0
LWPOLYLINE
5
10F
100
AcDbEntity
8
MURS
6
ByLayer
62
256
370
-1
100
AcDbPolyline
90
7
70
0
43
0
10
15027.5
20
-3636
10
15027.5
20
-4025
10
14943.5
20
-4025
10
14943.5
20
-4055
10
15057.5
20
-4055
10
15057.5
20
-3636
10
15027.5
20
-3636
0
LWPOLYLINE
5
110
100
AcDbEntity
8
MURS
6
ByLayer
62
256
370
-1
100
AcDbPolyline
90
4
70
1
43
0
10
14618.5
20
-4055
10
14803.5
20
-4055
10
14803.5
20
-4025
10
14618.5
20
-4025
0
LWPOLYLINE
5
111
100
AcDbEntity
8
MURS
6
ByLayer
62
256
370
-1
100
AcDbPolyline
90
4
70
1
43
0
10
14203.5
20
-4055
10
14478.5
20
-4055
10
14478.5
20
-4025
10
14203.5
20
-4025
0
LWPOLYLINE
5
112
100
AcDbEntity
8
MURS
6
ByLayer
62
256
370
-1
100
AcDbPolyline
90
7
70
0
43
0
10
13883.5
20
-3835
10
13853.5
20
-3835
10
13853.5
20
-4055
10
14083.5
20
-4055
10
14083.5
20
-4025
10
13883.5
20
-4025
10
13883.5
20
-3835
0
HATCH
5
113
100
AcDbEntity
8
MURS
6
ByLayer
62
256
370
-1
100
AcDbHatch
10
0
20
0
30
0
210
0
220
0
230
1
2
ANSI31
70
0
71
0
91
1
92
0
93
6
72
1
10
13853.5
20
-3695
11
13853.5
21
-3351
72
1
10
13853.5
20
-3351
11
13983.5
21
-3351
72
1
10
13983.5
20
-3351
11
13983.5
21
-3381
72
1
10
13983.5
20
-3381
11
13883.5
21
-3381
72
1
10
13883.5
20
-3381
11
13883.5
21
-3695
72
1
10
13883.5
20
-3695
11
13853.5
21
-3695
97
0
75
0
76
1
52
0
41
20
77
0
78
0
98
0
0
HATCH
5
114
100
AcDbEntity
8
MURS
6
ByLayer
62
256
370
-1
100
AcDbHatch
10
0
20
0
30
0
210
0
220
0
230
1
2
ANSI31
70
0
71
0
91
3
92
0
93
4
72
1
10
14123.5
20
-3381
11
14123.5
21
-3351
72
1
10
14123.5
20
-3351
11
14213.5
21
-3351
72
1
10
14213.5
20
-3351
11
14213.5
21
-3381
72
1
10
14213.5
20
-3381
11
14123.5
21
-3381
97
0
92
0
93
4
72
1
10
14353.5
20
-3381
11
14353.5
21
-3351
72
1
10
14353.5
20
-3351
11
14448.5
21
-3351
72
1
10
14448.5
20
-3351
11
14448.5
21
-3381
72
1
10
14448.5
20
-3381
11
14353.5
21
-3381
97
0
92
0
93
6
72
1
10
14648.5
20
-3351
11
14648.5
21
-3381
72
1
10
14648.5
20
-3381
11
15027.5
21
-3381
72
1
10
15027.5
20
-3381
11
15027.5
21
-3496
72
1
10
15027.5
20
-3496
11
15057.5
21
-3496
72
1
10
15057.5
20
-3496
11
15057.5
21
-3351
72
1
10
15057.5
20
-3351
11
14648.5
21
-3351
97
0
75
0
76
1
52
0
41
20
77
0
78
0
98
0
0
HATCH
5
115
100
AcDbEntity
8
MURS
6
ByLayer
62
256
370
-1
100
AcDbHatch
10
0
20
0
30
0
210
0
220
0
230
1
2
ANSI31
70
0
71
0
91
4
92
0
93
6
72
1
10
13853.5
20
-3835
11
13853.5
21
-4055
72
1
10
13853.5
20
-4055
11
14083.5
21
-4055
72
1
10
14083.5
20
-4055
11
14083.5
21
-4025
72
1
10
14083.5
20
-4025
11
13883.5
21
-4025
72
1
10
13883.5
20
-4025
11
13883.5
21
-3835
72
1
10
13883.5
20
-3835
11
13853.5
21
-3835
97
0
92
0
93
4
72
1
10
14203.5
20
-4055
11
14203.5
21
-4025
72
1
10
14203.5
20
-4025
11
14478.5
21
-4025
72
1
10
14478.5
20
-4025
11
14478.5
21
-4055
72
1
10
14478.5
20
-4055
11
14203.5
21
-4055
97
0
92
0
93
4
72
1
10
14618.5
20
-4055
11
14618.5
21
-4025
72
1
10
14618.5
20
-4025
11
14803.5
21
-4025
72
1
10
14803.5
20
-4025
11
14803.5
21
-4055
72
1
10
14803.5
20
-4055
11
14618.5
21
-4055
97
0
92
0
93
6
72
1
10
14943.5
20
-4025
11
14943.5
21
-4055
72
1
10
14943.5
20
-4055
11
15057.5
21
-4055
72
1
10
15057.5
20
-4055
11
15057.5
21
-3636
72
1
10
15057.5
20
-3636
11
15027.5
21
-3636
72
1
10
15027.5
20
-3636
11
15027.5
21
-4025
72
1
10
15027.5
20
-4025
11
14943.5
21
-4025
97
0
75
0
76
1
52
0
41
20
77
0
78
0
98
0
0
LWPOLYLINE
5
116
100
AcDbEntity
8
MURS
6
ByLayer
62
256
370
-1
100
AcDbPolyline
90
4
70
1
43
0
10
14498.5
20
-3381
10
14518.5
20
-3381
10
14518.5
20
-3351
10
14498.5
20
-3351
0
HATCH
5
117
100
AcDbEntity
8
MURS
6
ByLayer
62
256
370
-1
100
AcDbHatch
10
0
20
0
30
0
210
0
220
0
230
1
2
ANSI31
70
0
71
0
91
1
92
0
93
4
72
1
10
14498.5
20
-3381
11
14498.5
21
-3351
72
1
10
14498.5
20
-3351
11
14518.5
21
-3351
72
1
10
14518.5
20
-3351
11
14518.5
21
-3381
72
1
10
14518.5
20
-3381
11
14498.5
21
-3381
97
0
75
0
76
1
52
0
41
20
77
0
78
0
98
0
0
ENDSEC
0
SECTION
2
OBJECTS
0
DICTIONARY
5
C
330
0
100
AcDbDictionary
281
1
3
ACAD_GROUP
350
D
0
DICTIONARY
5
D
330
C
100
AcDbDictionary
281
1
0
ENDSEC
0
EOF
