<svg xmlns="http://www.w3.org/2000/svg" viewBox="-942.09 -3373.122 25 25" width="25" height="25"><g fill="none"><path d="M-917.59-3368.782v16.32a3.84 3.84 0 0 1-3.84 3.84h-3.425a3.84 3.84 0 0 1-3.84-3.84v-16.32a3.84 3.84 0 0 1 3.84-3.84h3.425a3.84 3.84 0 0 1 3.84 3.84Z" fill="#fff"/><path d="M-917.59-3368.782v16.32a3.84 3.84 0 0 1-3.84 3.84h-3.425a3.84 3.84 0 0 1-3.84-3.84v-16.32a3.84 3.84 0 0 1 3.84-3.84h3.425a3.84 3.84 0 0 1 3.84 3.84Z" stroke="#000" stroke-linecap="round" stroke-linejoin="round" stroke-width=".25"/><path d="M-930.486-3368.782v16.32a3.84 3.84 0 0 1-3.84 3.84h-3.424a3.84 3.84 0 0 1-3.84-3.84v-16.32a3.84 3.84 0 0 1 3.84-3.84h3.424a3.84 3.84 0 0 1 3.84 3.84Z" fill="#fff"/><path d="M-930.486-3368.782v16.32a3.84 3.84 0 0 1-3.84 3.84h-3.424a3.84 3.84 0 0 1-3.84-3.84v-16.32a3.84 3.84 0 0 1 3.84-3.84h3.424a3.84 3.84 0 0 1 3.84 3.84Z" stroke="#000" stroke-linecap="round" stroke-linejoin="round" stroke-width=".25"/></g></svg>