<svg xmlns="http://www.w3.org/2000/svg" viewBox="-982.09 -3373.122 25 25" width="25" height="25"><g fill="none"><path d="M-957.59-3355.947v3.502a3.823 3.823 0 0 1-3.823 3.823h-3.41a3.823 3.823 0 0 1-3.823-3.823v-3.502a3.823 3.823 0 0 1 3.823-3.823h3.41a3.823 3.823 0 0 1 3.823 3.823Z" fill="#fff"/><path d="M-957.59-3355.947v3.502a3.823 3.823 0 0 1-3.823 3.823h-3.41a3.823 3.823 0 0 1-3.823-3.823v-3.502a3.823 3.823 0 0 1 3.823-3.823h3.41a3.823 3.823 0 0 1 3.823 3.823Z" stroke="#000" stroke-linecap="round" stroke-linejoin="round" stroke-width=".25"/><path d="M-970.429-3355.947v3.502a3.823 3.823 0 0 1-3.823 3.823h-3.41a3.823 3.823 0 0 1-3.823-3.823v-3.502a3.823 3.823 0 0 1 3.823-3.823h3.41a3.823 3.823 0 0 1 3.823 3.823Z" fill="#fff"/><path d="M-970.429-3355.947v3.502a3.823 3.823 0 0 1-3.823 3.823h-3.41a3.823 3.823 0 0 1-3.823-3.823v-3.502a3.823 3.823 0 0 1 3.823-3.823h3.41a3.823 3.823 0 0 1 3.823 3.823Z" stroke="#000" stroke-linecap="round" stroke-linejoin="round" stroke-width=".25"/><path d="M-957.696-3368.799v3.502a3.823 3.823 0 0 1-3.823 3.823h-3.41a3.823 3.823 0 0 1-3.823-3.823v-3.502a3.823 3.823 0 0 1 3.823-3.823h3.41a3.823 3.823 0 0 1 3.823 3.823Z" fill="#fff"/><path d="M-957.696-3368.799v3.502a3.823 3.823 0 0 1-3.823 3.823h-3.41a3.823 3.823 0 0 1-3.823-3.823v-3.502a3.823 3.823 0 0 1 3.823-3.823h3.41a3.823 3.823 0 0 1 3.823 3.823Z" stroke="#000" stroke-linecap="round" stroke-linejoin="round" stroke-width=".25"/><path d="M-970.534-3368.799v3.502a3.823 3.823 0 0 1-3.823 3.823h-3.41a3.823 3.823 0 0 1-3.823-3.823v-3.502a3.823 3.823 0 0 1 3.823-3.823h3.41a3.823 3.823 0 0 1 3.823 3.823Z" fill="#fff"/><path d="M-970.534-3368.799v3.502a3.823 3.823 0 0 1-3.823 3.823h-3.41a3.823 3.823 0 0 1-3.823-3.823v-3.502a3.823 3.823 0 0 1 3.823-3.823h3.41a3.823 3.823 0 0 1 3.823 3.823Z" stroke="#000" stroke-linecap="round" stroke-linejoin="round" stroke-width=".25"/></g></svg>