<svg xmlns="http://www.w3.org/2000/svg" viewBox="-862.09 -3373.122 25 25" width="25" height="25"><g fill="none"><path d="M-844.787-3372.622h-12.952a3.851 3.851 0 0 0-3.851 3.852v12.891a3.851 3.851 0 0 0 3.851 3.852h12.952a3.851 3.851 0 0 0 3.852-3.852v-12.891a3.851 3.851 0 0 0-3.852-3.852Z" fill="#fff"/><path d="M-844.787-3372.622h-12.952a3.851 3.851 0 0 0-3.851 3.852v12.891a3.851 3.851 0 0 0 3.851 3.852h12.952a3.851 3.851 0 0 0 3.852-3.852v-12.891a3.851 3.851 0 0 0-3.852-3.852Z" stroke="#000" stroke-linecap="round" stroke-linejoin="round" stroke-width=".25"/><path d="M-841.442-3369.216h-12.952a3.851 3.851 0 0 0-3.851 3.851v12.892a3.851 3.851 0 0 0 3.851 3.851h12.952a3.851 3.851 0 0 0 3.852-3.851v-12.892a3.851 3.851 0 0 0-3.852-3.851Z" fill="#fff"/><path d="M-841.442-3369.216h-12.952a3.851 3.851 0 0 0-3.851 3.851v12.892a3.851 3.851 0 0 0 3.851 3.851h12.952a3.851 3.851 0 0 0 3.852-3.851v-12.892a3.851 3.851 0 0 0-3.852-3.851Z" stroke="#000" stroke-linecap="round" stroke-linejoin="round" stroke-width=".25"/></g></svg>