<svg xmlns="http://www.w3.org/2000/svg" viewBox="-902.09 -3373.122 25 25" width="25" height="25"><g fill="none"><path d="M-897.75-3372.622h16.32a3.84 3.84 0 0 1 3.84 3.84v16.32a3.84 3.84 0 0 1-3.84 3.84h-16.32a3.84 3.84 0 0 1-3.84-3.84v-16.32a3.84 3.84 0 0 1 3.84-3.84Z" fill="#fff"/><path d="M-897.75-3372.622h16.32a3.84 3.84 0 0 1 3.84 3.84v16.32a3.84 3.84 0 0 1-3.84 3.84h-16.32a3.84 3.84 0 0 1-3.84-3.84v-16.32a3.84 3.84 0 0 1 3.84-3.84Z" stroke="#000" stroke-linecap="round" stroke-linejoin="round" stroke-width=".25"/><path d="M-879.99-3356.1v1.238a3.84 3.84 0 0 1-3.84 3.84h-1.165a3.84 3.84 0 0 1-3.84-3.84v-1.238a3.84 3.84 0 0 1 3.84-3.84h1.165a3.84 3.84 0 0 1 3.84 3.84Z" fill="#d07738"/><path d="M-879.99-3356.1v1.238a3.84 3.84 0 0 1-3.84 3.84h-1.165a3.84 3.84 0 0 1-3.84-3.84v-1.238a3.84 3.84 0 0 1 3.84-3.84h1.165a3.84 3.84 0 0 1 3.84 3.84Z" stroke="#000" stroke-linecap="round" stroke-linejoin="round" stroke-width=".25"/><path d="M-890.261-3356.1v1.238a3.84 3.84 0 0 1-3.84 3.84h-1.165a3.84 3.84 0 0 1-3.84-3.84v-1.238a3.84 3.84 0 0 1 3.84-3.84h1.165a3.84 3.84 0 0 1 3.84 3.84Z" fill="#9f4c4c"/><path d="M-890.261-3356.1v1.238a3.84 3.84 0 0 1-3.84 3.84h-1.165a3.84 3.84 0 0 1-3.84-3.84v-1.238a3.84 3.84 0 0 1 3.84-3.84h1.165a3.84 3.84 0 0 1 3.84 3.84Z" stroke="#000" stroke-linecap="round" stroke-linejoin="round" stroke-width=".25"/><path d="M-880.074-3366.382v1.239a3.84 3.84 0 0 1-3.84 3.84h-1.165a3.84 3.84 0 0 1-3.84-3.84v-1.239a3.84 3.84 0 0 1 3.84-3.84h1.164a3.84 3.84 0 0 1 3.84 3.84Z" fill="#5c76a2"/><path d="M-880.074-3366.382v1.239a3.84 3.84 0 0 1-3.84 3.84h-1.165a3.84 3.84 0 0 1-3.84-3.84v-1.239a3.84 3.84 0 0 1 3.84-3.84h1.164a3.84 3.84 0 0 1 3.84 3.84Z" stroke="#000" stroke-linecap="round" stroke-linejoin="round" stroke-width=".25"/><path d="M-890.345-3366.382v1.239a3.84 3.84 0 0 1-3.84 3.84h-1.165a3.84 3.84 0 0 1-3.84-3.84v-1.239a3.84 3.84 0 0 1 3.84-3.84h1.165a3.84 3.84 0 0 1 3.84 3.84Z" fill="#518737"/><path d="M-890.345-3366.382v1.239a3.84 3.84 0 0 1-3.84 3.84h-1.165a3.84 3.84 0 0 1-3.84-3.84v-1.239a3.84 3.84 0 0 1 3.84-3.84h1.165a3.84 3.84 0 0 1 3.84 3.84Z" stroke="#000" stroke-linecap="round" stroke-linejoin="round" stroke-width=".25"/></g></svg>