<svg xmlns="http://www.w3.org/2000/svg" viewBox="420.5 -546.5 103 103" width="103" height="103"><g fill="none"><path d="M506-545h-68c-8.837 0-16 7.163-16 16v68c0 8.837 7.163 16 16 16h68c8.837 0 16-7.163 16-16v-68c0-8.837-7.163-16-16-16Z" fill="#fff"/><path d="M506-545h-68c-8.837 0-16 7.163-16 16v68c0 8.837 7.163 16 16 16h68c8.837 0 16-7.163 16-16v-68c0-8.837-7.163-16-16-16Z" stroke="#000" stroke-linecap="round" stroke-linejoin="round" stroke-width="3"/><path d="m466.978-516.274-4.298 4.298 14.162 14.161H427.03v6.06h49.812l-14.162 14.162 4.298 4.297 21.49-21.489Z" fill="#000"/><path d="m466.978-516.274-4.298 4.298 14.162 14.161H427.03v6.06h49.812l-14.162 14.162 4.298 4.297 21.49-21.489Z" stroke="#5c76a2" stroke-linecap="round" stroke-linejoin="round" stroke-width="9"/></g></svg>