<svg xmlns="http://www.w3.org/2000/svg" viewBox="-662.09 -3373.122 25 25" width="25" height="25"><g fill="none"><path d="M-657.75-3372.622h16.32a3.84 3.84 0 0 1 3.84 3.84v16.32a3.84 3.84 0 0 1-3.84 3.84h-16.32a3.84 3.84 0 0 1-3.84-3.84v-16.32a3.84 3.84 0 0 1 3.84-3.84Z" fill="#fff"/><path d="M-657.75-3372.622h16.32a3.84 3.84 0 0 1 3.84 3.84v16.32a3.84 3.84 0 0 1-3.84 3.84h-16.32a3.84 3.84 0 0 1-3.84-3.84v-16.32a3.84 3.84 0 0 1 3.84-3.84Z" stroke="#000" stroke-linecap="round" stroke-linejoin="round" stroke-width=".25"/><path d="M-648.207-3368.782c-4.513 0-8.172 2.973-8.172 6.64s3.659 6.639 8.172 6.639c.433 0 .859-.027 1.274-.08 1.755 1.755 3.85 2.07 5.876 2.116v-.43c-1.094-.535-2.043-1.512-2.043-2.627 0-.156.012-.309.035-.458 1.848-1.218 3.03-3.077 3.03-5.16 0-3.667-3.659-6.64-8.172-6.64Z" fill="#518737"/><path d="M-652.582-3364.444c3.385 0 6.13 2.23 6.13 4.98 0 2.75-2.745 4.98-6.13 4.98-.325 0-.644-.021-.955-.061-1.316 1.316-2.888 1.552-4.407 1.587v-.322c.82-.402 1.532-1.134 1.532-1.97 0-.117-.01-.232-.026-.344-1.386-.913-2.272-2.307-2.272-3.87 0-2.75 2.744-4.98 6.128-4.98Z" fill="#cf7738"/></g></svg>