<svg xmlns="http://www.w3.org/2000/svg" viewBox="-542.09 -3373.122 25 25" width="25" height="25"><g fill="none"><path d="M-521.43-3372.622h-16.32a3.84 3.84 0 0 0-3.84 3.84v16.32a3.84 3.84 0 0 0 3.84 3.84h16.32a3.84 3.84 0 0 0 3.84-3.84v-16.32a3.84 3.84 0 0 0-3.84-3.84Z" fill="#fff"/><path d="M-521.43-3372.622h-16.32a3.84 3.84 0 0 0-3.84 3.84v16.32a3.84 3.84 0 0 0 3.84 3.84h16.32a3.84 3.84 0 0 0 3.84-3.84v-16.32a3.84 3.84 0 0 0-3.84-3.84Z" stroke="#000" stroke-linecap="round" stroke-linejoin="round" stroke-width=".25"/><path d="m-531.114-3365.727-1.032 1.031 3.4 3.399h-11.956v1.454h11.955l-3.399 3.399 1.032 1.031 5.157-5.157Z" fill="#5b76a2"/><path d="m-531.114-3365.727-1.032 1.031 3.4 3.399h-11.956v1.454h11.955l-3.399 3.399 1.032 1.031 5.157-5.157Z" stroke="#5c76a2" stroke-linecap="round" stroke-linejoin="round"/></g></svg>