<svg xmlns="http://www.w3.org/2000/svg" viewBox="-702.09 -3373.122 25 25" width="25" height="25"><g fill="none"><circle cx="-689.59" cy="-3360.622" r="12" fill="#fff"/><circle cx="-689.59" cy="-3360.622" r="12" stroke="#000" stroke-linecap="round" stroke-linejoin="round" stroke-width=".25"/><path d="M-689.59-3367.584c-4.642 0-8.605 2.887-10.211 6.962 1.606 4.075 5.57 6.962 10.21 6.962 4.642 0 8.606-2.887 10.212-6.962-1.606-4.075-5.57-6.962-10.211-6.962Zm0 11.604a4.643 4.643 0 0 1-4.642-4.642 4.643 4.643 0 0 1 4.642-4.641 4.643 4.643 0 0 1 4.641 4.641 4.643 4.643 0 0 1-4.641 4.642Zm0-7.427a2.781 2.781 0 0 0-2.785 2.785 2.781 2.781 0 0 0 2.785 2.785 2.781 2.781 0 0 0 2.785-2.785 2.781 2.781 0 0 0-2.785-2.785Z" fill="#a7967d"/></g></svg>