<svg xmlns="http://www.w3.org/2000/svg" viewBox="-832.625 -3250.625 25.25 25.25" width="25.25" height="25.25"><g fill="none"><path d="M-811.84-3250h-16.32a3.84 3.84 0 0 0-3.84 3.84v16.32a3.84 3.84 0 0 0 3.84 3.84h16.32a3.84 3.84 0 0 0 3.84-3.84v-16.32a3.84 3.84 0 0 0-3.84-3.84Z" fill="#fff"/><path d="M-811.84-3250h-16.32a3.84 3.84 0 0 0-3.84 3.84v16.32a3.84 3.84 0 0 0 3.84 3.84h16.32a3.84 3.84 0 0 0 3.84-3.84v-16.32a3.84 3.84 0 0 0-3.84-3.84Z" stroke="#000" stroke-linecap="round" stroke-linejoin="round" stroke-width=".25"/><path d="M-813.19-3245.567h-13.62c-.833 0-1.514.681-1.514 1.513v9.08c0 .833.681 1.514 1.514 1.514h5.297v1.514h-1.514v1.513h6.054v-1.513h-1.514v-1.514h5.297c.833 0 1.514-.681 1.514-1.513v-9.08c0-.833-.681-1.514-1.514-1.514Zm0 10.594h-13.62v-9.08h13.62v9.08Z" fill="#5c76a2"/><path d="M-813.19-3245.567h-13.62c-.833 0-1.514.681-1.514 1.513v9.08c0 .833.681 1.514 1.514 1.514h5.297v1.514h-1.514v1.513h6.054v-1.513h-1.514v-1.514h5.297c.833 0 1.514-.681 1.514-1.513v-9.08c0-.833-.681-1.514-1.514-1.514Zm0 10.594h-13.62v-9.08h13.62v9.08Z" stroke="#5c76a2" stroke-linecap="round" stroke-linejoin="round" stroke-width=".25"/></g></svg>