<svg xmlns="http://www.w3.org/2000/svg" width="25.25" height="25.25" viewBox="-712.625 -3250.625 25.25 25.25"><g fill="none"><path fill="#fff" d="M-691.84-3250h-16.32a3.84 3.84 0 0 0-3.84 3.84v16.32a3.84 3.84 0 0 0 3.84 3.84h16.32a3.84 3.84 0 0 0 3.84-3.84v-16.32a3.84 3.84 0 0 0-3.84-3.84Z"/><path stroke="#000" stroke-linecap="round" stroke-linejoin="round" stroke-width=".25" d="M-691.84-3250h-16.32a3.84 3.84 0 0 0-3.84 3.84v16.32a3.84 3.84 0 0 0 3.84 3.84h16.32a3.84 3.84 0 0 0 3.84-3.84v-16.32a3.84 3.84 0 0 0-3.84-3.84Z"/><path fill="#5c76a2" d="M-700-3247.24c-5.1 0-9.24 4.14-9.24 9.24 0 5.1 4.14 9.24 9.24 9.24 5.1 0 9.24-4.14 9.24-9.24 0-5.1-4.14-9.24-9.24-9.24Zm-.924 16.567a7.381 7.381 0 0 1-6.468-7.327 7.5 7.5 0 0 1 .194-1.654l4.426 4.426v.924c0 1.016.832 1.848 1.848 1.848v1.783Zm6.376-2.347a1.833 1.833 0 0 0-1.756-1.284h-.924v-2.772a.927.927 0 0 0-.924-.924h-5.544v-1.848h1.848a.927.927 0 0 0 .924-.924v-1.848h1.848a1.853 1.853 0 0 0 1.848-1.848v-.379c2.707 1.1 4.62 3.752 4.62 6.847 0 1.922-.74 3.668-1.94 4.98Z"/></g></svg>