<svg xmlns="http://www.w3.org/2000/svg" viewBox="-742.09 -3373.122 25 25" width="25" height="25"><g fill="none"><path d="M-721.43-3372.622h-16.32a3.84 3.84 0 0 0-3.84 3.84v16.32a3.84 3.84 0 0 0 3.84 3.84h16.32a3.84 3.84 0 0 0 3.84-3.84v-16.32a3.84 3.84 0 0 0-3.84-3.84Z" fill="#fff"/><path d="M-721.43-3372.622h-16.32a3.84 3.84 0 0 0-3.84 3.84v16.32a3.84 3.84 0 0 0 3.84 3.84h16.32a3.84 3.84 0 0 0 3.84-3.84v-16.32a3.84 3.84 0 0 0-3.84-3.84Z" stroke="#000" stroke-linecap="round" stroke-linejoin="round" stroke-width=".25"/><path d="M-729.59-3368.322c4.607 0 8.341 3.034 8.341 6.777 0 3.743-3.734 6.778-8.341 6.778-.443 0-.877-.029-1.301-.083-1.791 1.792-3.93 2.113-5.998 2.16v-.438c1.117-.547 2.085-1.543 2.085-2.682a3.15 3.15 0 0 0-.035-.468c-1.886-1.242-3.093-3.14-3.093-5.267 0-3.743 3.735-6.777 8.342-6.777Z" fill="#5c76a2"/></g></svg>