<svg xmlns="http://www.w3.org/2000/svg" viewBox="798.5 -1428.5 103 103" width="103" height="103"><g fill="none"><path d="M884-1427h-68c-8.837 0-16 7.163-16 16v68c0 8.837 7.163 16 16 16h68c8.837 0 16-7.163 16-16v-68c0-8.837-7.163-16-16-16Z" fill="#fff"/><path d="M884-1427h-68c-8.837 0-16 7.163-16 16v68c0 8.837 7.163 16 16 16h68c8.837 0 16-7.163 16-16v-68c0-8.837-7.163-16-16-16Z" stroke="#000" stroke-linecap="round" stroke-linejoin="round" stroke-width="3"/><path d="M850-1409.084c19.196 0 34.755 12.642 34.755 28.238 0 15.597-15.56 28.239-34.755 28.239-1.844 0-3.654-.117-5.42-.343-7.463 7.466-16.376 8.804-24.99 9.001v-1.826c4.652-2.28 8.688-6.432 8.688-11.176a13.1 13.1 0 0 0-.148-1.949c-7.859-5.176-12.885-13.083-12.885-21.946 0-15.596 15.56-28.238 34.755-28.238Z" fill="#5c76a2"/></g></svg>