<svg xmlns="http://www.w3.org/2000/svg" viewBox="-992.625 -3250.448 25.25 24.896" width="25.25" height="24.896"><g fill="none"><ellipse cx="-980" cy="-3238" rx="12" ry="11.823" fill="#fff"/><ellipse cx="-980" cy="-3238" rx="12" ry="11.823" stroke="#000" stroke-linecap="round" stroke-linejoin="round" stroke-width=".25"/><path d="M-974.022-3245.143h-11.956c-.822 0-1.495.673-1.495 1.495v11.956c0 .822.673 1.495 1.495 1.495h11.956c.822 0 1.495-.673 1.495-1.495v-11.956c0-.822-.673-1.495-1.495-1.495Zm-8.967 13.451h-2.99v-2.989h2.99v2.989Zm0-4.483h-2.99v-2.99h2.99v2.99Zm0-4.484h-2.99v-2.989h2.99v2.989Zm4.484 8.967h-2.99v-2.989h2.99v2.989Zm0-4.483h-2.99v-2.99h2.99v2.99Zm0-4.484h-2.99v-2.989h2.99v2.989Zm4.483 8.967h-2.989v-2.989h2.99v2.989Zm0-4.483h-2.989v-2.99h2.99v2.99Zm0-4.484h-2.989v-2.989h2.99v2.989Z" fill="#a7967d"/></g></svg>