<svg xmlns="http://www.w3.org/2000/svg" viewBox="-872.625 -3250.625 25.25 25.25" width="25.25" height="25.25"><g fill="none"><path d="M-868.16-3250h16.32a3.84 3.84 0 0 1 3.84 3.84v16.32a3.84 3.84 0 0 1-3.84 3.84h-16.32a3.84 3.84 0 0 1-3.84-3.84v-16.32a3.84 3.84 0 0 1 3.84-3.84Z" fill="#fff"/><path d="M-868.16-3250h16.32a3.84 3.84 0 0 1 3.84 3.84v16.32a3.84 3.84 0 0 1-3.84 3.84h-16.32a3.84 3.84 0 0 1-3.84-3.84v-16.32a3.84 3.84 0 0 1 3.84-3.84Z" stroke="#000" stroke-linecap="round" stroke-linejoin="round" stroke-width=".25"/><path d="M-858.617-3246.16c-4.513 0-8.172 2.972-8.172 6.64 0 3.666 3.659 6.639 8.172 6.639.434 0 .86-.028 1.274-.08 1.755 1.755 3.85 2.069 5.876 2.116v-.43c-1.094-.536-2.043-1.512-2.043-2.628 0-.155.013-.308.035-.458 1.848-1.217 3.03-3.076 3.03-5.16 0-3.667-3.659-6.639-8.172-6.639Z" fill="#518737"/><path d="M-862.991-3241.822c3.385 0 6.128 2.23 6.128 4.98 0 2.75-2.743 4.979-6.128 4.979-.326 0-.645-.02-.956-.06-1.316 1.316-2.888 1.552-4.407 1.587v-.322c.82-.402 1.532-1.134 1.532-1.971 0-.117-.009-.231-.026-.343-1.386-.913-2.272-2.308-2.272-3.87 0-2.75 2.744-4.98 6.129-4.98Z" fill="#cf7738"/></g></svg>