<svg xmlns="http://www.w3.org/2000/svg" viewBox="798.5 -1549.5 103 103" width="103" height="103"><g fill="none"><path d="M884-1548h-68c-8.837 0-16 7.163-16 16v68c0 8.837 7.163 16 16 16h68c8.837 0 16-7.163 16-16v-68c0-8.837-7.163-16-16-16Z" fill="#fff"/><path d="M884-1548h-68c-8.837 0-16 7.163-16 16v68c0 8.837 7.163 16 16 16h68c8.837 0 16-7.163 16-16v-68c0-8.837-7.163-16-16-16Z" stroke="#000" stroke-linecap="round" stroke-linejoin="round" stroke-width="3"/><path d="M850-1536.5c-21.252 0-38.5 17.248-38.5 38.5s17.248 38.5 38.5 38.5 38.5-17.248 38.5-38.5-17.248-38.5-38.5-38.5Zm-3.85 69.03c-15.207-1.886-26.95-14.822-26.95-30.53 0-2.387.308-4.659.809-6.891l18.441 18.441v3.85c0 4.235 3.465 7.7 7.7 7.7v7.43Zm26.565-9.778c-1-3.119-3.85-5.352-7.315-5.352h-3.85v-11.55a3.861 3.861 0 0 0-3.85-3.85h-23.1v-7.7h7.7a3.861 3.861 0 0 0 3.85-3.85v-7.7h7.7c4.235 0 7.7-3.465 7.7-7.7v-1.578c11.28 4.581 19.25 15.63 19.25 28.528 0 8.008-3.08 15.284-8.085 20.752Z" fill="#5c76a2"/></g></svg>