<svg xmlns="http://www.w3.org/2000/svg" viewBox="-752.625 -3250.625 25.25 25.25" width="25.25" height="25.25"><g fill="none"><path d="M-731.84-3250h-16.32a3.84 3.84 0 0 0-3.84 3.84v16.32a3.84 3.84 0 0 0 3.84 3.84h16.32a3.84 3.84 0 0 0 3.84-3.84v-16.32a3.84 3.84 0 0 0-3.84-3.84Z" fill="#fff"/><path d="M-731.84-3250h-16.32a3.84 3.84 0 0 0-3.84 3.84v16.32a3.84 3.84 0 0 0 3.84 3.84h16.32a3.84 3.84 0 0 0 3.84-3.84v-16.32a3.84 3.84 0 0 0-3.84-3.84Z" stroke="#000" stroke-linecap="round" stroke-linejoin="round" stroke-width=".25"/><path d="m-741.524-3243.106-1.031 1.032 3.398 3.399h-11.954v1.454h11.954l-3.398 3.399 1.031 1.031 5.158-5.157Z" fill="#5b76a2"/><path d="m-741.524-3243.106-1.031 1.032 3.398 3.399h-11.954v1.454h11.954l-3.398 3.399 1.031 1.031 5.158-5.157Z" stroke="#5c76a2" stroke-linecap="round" stroke-linejoin="round"/></g></svg>