<svg xmlns="http://www.w3.org/2000/svg" viewBox="-952.625 -3250.625 25.25 25.25" width="25.25" height="25.25"><g fill="none"><path d="M-931.84-3250h-16.32a3.84 3.84 0 0 0-3.84 3.84v16.32a3.84 3.84 0 0 0 3.84 3.84h16.32a3.84 3.84 0 0 0 3.84-3.84v-16.32a3.84 3.84 0 0 0-3.84-3.84Z" fill="#fff"/><path d="M-931.84-3250h-16.32a3.84 3.84 0 0 0-3.84 3.84v16.32a3.84 3.84 0 0 0 3.84 3.84h16.32a3.84 3.84 0 0 0 3.84-3.84v-16.32a3.84 3.84 0 0 0-3.84-3.84Z" stroke="#000" stroke-linecap="round" stroke-linejoin="round" stroke-width=".25"/><path d="M-940-3245.7c4.607 0 8.341 3.034 8.341 6.777 0 3.743-3.734 6.777-8.341 6.777-.443 0-.877-.028-1.3-.082-1.792 1.792-3.931 2.113-5.999 2.16v-.438c1.117-.547 2.086-1.544 2.086-2.682 0-.16-.013-.315-.036-.468-1.886-1.242-3.092-3.14-3.092-5.267 0-3.743 3.734-6.777 8.341-6.777Z" fill="#5c76a2"/></g></svg>