<svg xmlns="http://www.w3.org/2000/svg" viewBox="-502.09 -3373.122 25 25" width="25" height="25"><g fill="none"><path d="M-481.43-3372.622h-16.32a3.84 3.84 0 0 0-3.84 3.84v16.32a3.84 3.84 0 0 0 3.84 3.84h16.32a3.84 3.84 0 0 0 3.84-3.84v-16.32a3.84 3.84 0 0 0-3.84-3.84Z" fill="#fff"/><path d="M-481.43-3372.622h-16.32a3.84 3.84 0 0 0-3.84 3.84v16.32a3.84 3.84 0 0 0 3.84 3.84h16.32a3.84 3.84 0 0 0 3.84-3.84v-16.32a3.84 3.84 0 0 0-3.84-3.84Z" stroke="#000" stroke-linecap="round" stroke-linejoin="round" stroke-width=".25"/><path d="M-489.59-3369.862c-5.1 0-9.24 4.14-9.24 9.24 0 5.1 4.14 9.24 9.24 9.24 5.1 0 9.24-4.14 9.24-9.24 0-5.1-4.14-9.24-9.24-9.24Zm-.924 16.568a7.381 7.381 0 0 1-6.468-7.328c0-.573.074-1.118.194-1.654l4.426 4.426v.924c0 1.017.831 1.848 1.848 1.848v1.784Zm6.375-2.347a1.833 1.833 0 0 0-1.755-1.285h-.924v-2.772a.927.927 0 0 0-.924-.924h-5.544v-1.848h1.848a.927.927 0 0 0 .924-.924v-1.848h1.848a1.853 1.853 0 0 0 1.848-1.848v-.379c2.707 1.1 4.62 3.752 4.62 6.847 0 1.922-.74 3.669-1.94 4.98Z" fill="#5c76a2"/></g></svg>