<svg xmlns="http://www.w3.org/2000/svg" viewBox="-582.09 -3373.122 25 25" width="25" height="25"><g fill="none"><path d="M-561.43-3372.622h-16.32a3.84 3.84 0 0 0-3.84 3.84v16.32a3.84 3.84 0 0 0 3.84 3.84h16.32a3.84 3.84 0 0 0 3.84-3.84v-16.32a3.84 3.84 0 0 0-3.84-3.84Z" fill="#fff"/><path d="M-561.43-3372.622h-16.32a3.84 3.84 0 0 0-3.84 3.84v16.32a3.84 3.84 0 0 0 3.84 3.84h16.32a3.84 3.84 0 0 0 3.84-3.84v-16.32a3.84 3.84 0 0 0-3.84-3.84Z" stroke="#000" stroke-linecap="round" stroke-linejoin="round" stroke-width=".25"/><path d="M-578.234-3355.997v1.85h5.55v-1.85h-5.55Zm0-11.099v1.85h9.249v-1.85h-9.249Zm9.249 14.798v-1.85h7.399v-1.85h-7.399v-1.849h-1.85v5.549h1.85Zm-5.55-11.098v1.85h-3.699v1.849h3.7v1.85h1.85v-5.55h-1.85Zm12.949 3.699v-1.85h-9.249v1.85h9.249Zm-5.55-3.7h1.85v-1.849h3.7v-1.85h-3.7v-1.85h-1.85v5.55Z" fill="#5c76a2"/></g></svg>