<svg xmlns="http://www.w3.org/2000/svg" viewBox="1042.5 -1549.5 103 103" width="103" height="103"><g fill="none"><path d="M1128-1548h-68c-8.837 0-16 7.163-16 16v68c0 8.837 7.163 16 16 16h68c8.837 0 16-7.163 16-16v-68c0-8.837-7.163-16-16-16Z" fill="#fff"/><path d="M1128-1548h-68c-8.837 0-16 7.163-16 16v68c0 8.837 7.163 16 16 16h68c8.837 0 16-7.163 16-16v-68c0-8.837-7.163-16-16-16Z" stroke="#000" stroke-linecap="round" stroke-linejoin="round" stroke-width="3"/><path d="M1121.221-1528.529h-56.752c-3.468 0-6.306 2.838-6.306 6.306v37.835c0 3.468 2.838 6.305 6.306 6.305h22.07v6.306h-6.306v6.306h25.224v-6.306h-6.306v-6.306h22.07c3.468 0 6.306-2.837 6.306-6.305v-37.835c0-3.468-2.838-6.306-6.306-6.306Zm0 44.14h-56.752v-37.834h56.752v37.835Z" fill="#5c76a2"/><path d="M1121.221-1528.529h-56.752c-3.468 0-6.306 2.838-6.306 6.306v37.835c0 3.468 2.838 6.305 6.306 6.305h22.07v6.306h-6.306v6.306h25.224v-6.306h-6.306v-6.306h22.07c3.468 0 6.306-2.837 6.306-6.305v-37.835c0-3.468-2.838-6.306-6.306-6.306Zm0 44.14h-56.752v-37.834h56.752v37.835Z" stroke="#5c76a2" stroke-linecap="round" stroke-linejoin="round" stroke-width="3"/></g></svg>