<svg xmlns="http://www.w3.org/2000/svg" viewBox="-792.625 -3250.625 25.25 25.25" width="25.25" height="25.25"><g fill="none"><path d="M-771.84-3250h-16.32a3.84 3.84 0 0 0-3.84 3.84v16.32a3.84 3.84 0 0 0 3.84 3.84h16.32a3.84 3.84 0 0 0 3.84-3.84v-16.32a3.84 3.84 0 0 0-3.84-3.84Z" fill="#fff"/><path d="M-771.84-3250h-16.32a3.84 3.84 0 0 0-3.84 3.84v16.32a3.84 3.84 0 0 0 3.84 3.84h16.32a3.84 3.84 0 0 0 3.84-3.84v-16.32a3.84 3.84 0 0 0-3.84-3.84Z" stroke="#000" stroke-linecap="round" stroke-linejoin="round" stroke-width=".25"/><path d="M-788.643-3233.376v1.85h5.549v-1.85h-5.55Zm0-11.098v1.85h9.248v-1.85h-9.248Zm9.248 14.798v-1.85h7.4v-1.85h-7.4v-1.85h-1.85v5.55h1.85Zm-5.549-11.099v1.85h-3.7v1.85h3.7v1.85h1.85v-5.55h-1.85Zm12.948 3.7v-1.85h-9.248v1.85h9.248Zm-5.549-3.7h1.85v-1.85h3.7v-1.849h-3.7v-1.85h-1.85v5.55Z" fill="#5c76a2"/></g></svg>