<svg xmlns="http://www.w3.org/2000/svg" viewBox="-782.09 -3373.122 25 25" width="25" height="25"><g fill="none"><circle cx="-769.59" cy="-3360.622" r="12" fill="#fff"/><circle cx="-769.59" cy="-3360.622" r="12" stroke="#000" stroke-linecap="round" stroke-linejoin="round" stroke-width=".25"/><path d="M-763.612-3367.942h-11.957c-.821 0-1.494.673-1.494 1.495v11.956a1.5 1.5 0 0 0 1.495 1.495h11.956c.822 0 1.494-.673 1.494-1.495v-11.956c0-.822-.672-1.495-1.494-1.495Zm-8.967 13.451h-2.99v-2.989h2.99v2.99Zm0-4.483h-2.99v-2.99h2.99v2.99Zm0-4.484h-2.99v-2.989h2.99v2.989Zm4.483 8.967h-2.989v-2.989h2.99v2.99Zm0-4.483h-2.989v-2.99h2.99v2.99Zm0-4.484h-2.989v-2.989h2.99v2.989Zm4.484 8.967h-2.99v-2.989h2.99v2.99Zm0-4.483h-2.99v-2.99h2.99v2.99Zm0-4.484h-2.99v-2.989h2.99v2.989Z" fill="#a7967d"/></g></svg>