<svg xmlns="http://www.w3.org/2000/svg" viewBox="922.5 -1549.5 103 103" width="103" height="103"><g fill="none"><path d="M1008-1548h-68c-8.837 0-16 7.163-16 16v68c0 8.837 7.163 16 16 16h68c8.837 0 16-7.163 16-16v-68c0-8.837-7.163-16-16-16Z" fill="#fff"/><path d="M1008-1548h-68c-8.837 0-16 7.163-16 16v68c0 8.837 7.163 16 16 16h68c8.837 0 16-7.163 16-16v-68c0-8.837-7.163-16-16-16Z" stroke="#000" stroke-linecap="round" stroke-linejoin="round" stroke-width="3"/><path d="M937.987-1478.732v7.707h23.12v-7.707h-23.12Zm0-46.243v7.707h38.535v-7.707h-38.535Zm38.535 61.657v-7.707h30.828v-7.707h-30.828v-7.707h-7.707v23.12h7.707Zm-23.121-46.243v7.707h-15.414v7.707H953.4v7.708h7.707v-23.122H953.4Zm53.95 15.414v-7.707h-38.536v7.707h38.535Zm-23.122-15.414h7.707v-7.707h15.414v-7.707h-15.414v-7.707h-7.707v23.121Z" fill="#5c76a2"/></g></svg>