<svg xmlns="http://www.w3.org/2000/svg" viewBox="1354.5 646.398 103 103" width="103" height="103"><g fill="none"><ellipse cx="1406" cy="697.898" rx="50" ry="49.262" fill="#fff"/><path d="m1406 747.898 4.358-.19 4.324-.57 4.259-.944 4.16-1.311 4.03-1.67L1431 741.2l3.679-2.343 3.46-2.656 3.216-2.947 2.947-3.216 2.656-3.46 2.343-3.679 2.014-3.869 1.67-4.03 1.311-4.16.944-4.259.57-4.324.19-4.358-.19-4.358-.57-4.324-.944-4.259-1.311-4.16-1.67-4.03-2.014-3.869-2.343-3.679-2.656-3.46-2.947-3.216-3.216-2.947-3.46-2.655-3.679-2.344-3.87-2.014-4.029-1.67-4.16-1.311-4.259-.944-4.324-.57-4.358-.19-4.358.19-4.324.57-4.259.944-4.16 1.312-4.03 1.669-3.869 2.014-3.679 2.344-3.46 2.655-3.216 2.947-2.947 3.216-2.656 3.46-2.343 3.68-2.014 3.868-1.67 4.03-1.311 4.16-.944 4.259-.57 4.324-.19 4.358.19 4.358.57 4.325.944 4.258 1.311 4.16 1.67 4.03 2.014 3.87 2.343 3.678 2.656 3.46 2.947 3.216 3.216 2.947 3.46 2.656 3.679 2.343 3.87 2.014 4.029 1.67 4.16 1.311 4.259.945 4.324.569 4.358.19" stroke="#000" stroke-linecap="round" stroke-linejoin="round" stroke-width="3"/><path d="M1430.909 668.137h-49.818c-3.425 0-6.227 2.802-6.227 6.227v49.818c0 3.425 2.802 6.227 6.227 6.227h49.818c3.425 0 6.227-2.802 6.227-6.227v-49.818c0-3.425-2.802-6.227-6.227-6.227Zm-37.364 56.045h-12.454v-12.454h12.455v12.454Zm0-18.682h-12.454v-12.454h12.455V705.5Zm0-18.681h-12.454v-12.455h12.455v12.455Zm18.682 37.363h-12.454v-12.454h12.454v12.454Zm0-18.682h-12.454v-12.454h12.454V705.5Zm0-18.681h-12.454v-12.455h12.454v12.455Zm18.682 37.363h-12.455v-12.454h12.455v12.454Zm0-18.682h-12.455v-12.454h12.455V705.5Zm0-18.681h-12.455v-12.455h12.455v12.455Z" fill="#a7967d"/></g></svg>