<svg xmlns="http://www.w3.org/2000/svg" viewBox="-622.09 -3373.122 25 25" width="25" height="25"><g fill="none"><path d="M-601.43-3372.622h-16.32a3.84 3.84 0 0 0-3.84 3.84v16.32a3.84 3.84 0 0 0 3.84 3.84h16.32a3.84 3.84 0 0 0 3.84-3.84v-16.32a3.84 3.84 0 0 0-3.84-3.84Z" fill="#fff"/><path d="M-601.43-3372.622h-16.32a3.84 3.84 0 0 0-3.84 3.84v16.32a3.84 3.84 0 0 0 3.84 3.84h16.32a3.84 3.84 0 0 0 3.84-3.84v-16.32a3.84 3.84 0 0 0-3.84-3.84Z" stroke="#000" stroke-linecap="round" stroke-linejoin="round" stroke-width=".25"/><path d="M-602.78-3368.189h-13.62c-.833 0-1.514.681-1.514 1.514v9.08c0 .832.681 1.514 1.513 1.514h5.297v1.513h-1.513v1.513h6.053v-1.513h-1.513v-1.513h5.297c.832 0 1.513-.682 1.513-1.514v-9.08c0-.833-.68-1.514-1.513-1.514Zm0 10.594h-13.62v-9.08h13.62v9.08Z" fill="#5c76a2"/><path d="M-602.78-3368.189h-13.62c-.833 0-1.514.681-1.514 1.514v9.08c0 .832.681 1.514 1.513 1.514h5.297v1.513h-1.513v1.513h6.053v-1.513h-1.513v-1.513h5.297c.832 0 1.513-.682 1.513-1.514v-9.08c0-.833-.68-1.514-1.513-1.514Zm0 10.594h-13.62v-9.08h13.62v9.08Z" stroke="#5c76a2" stroke-linecap="round" stroke-linejoin="round" stroke-width=".25"/></g></svg>