<svg xmlns="http://www.w3.org/2000/svg" viewBox="-222.09 -3375.221 25 25" width="25" height="25"><g fill="none"><path d="M-204.787-3374.721h-12.952a3.851 3.851 0 0 0-3.851 3.851v12.892a3.851 3.851 0 0 0 3.851 3.851h12.952a3.851 3.851 0 0 0 3.852-3.851v-12.892a3.851 3.851 0 0 0-3.852-3.851Z" fill="#fff"/><path d="M-204.787-3374.721h-12.952a3.851 3.851 0 0 0-3.851 3.851v12.892a3.851 3.851 0 0 0 3.851 3.851h12.952a3.851 3.851 0 0 0 3.852-3.851v-12.892a3.851 3.851 0 0 0-3.852-3.851Z" stroke="#000" stroke-linecap="round" stroke-linejoin="round" stroke-width=".25"/><path d="M-201.442-3371.315h-12.952a3.851 3.851 0 0 0-3.851 3.851v12.892a3.851 3.851 0 0 0 3.851 3.851h12.952a3.851 3.851 0 0 0 3.852-3.851v-12.892a3.851 3.851 0 0 0-3.852-3.851Z" fill="#fff"/><path d="M-201.442-3371.315h-12.952a3.851 3.851 0 0 0-3.851 3.851v12.892a3.851 3.851 0 0 0 3.851 3.851h12.952a3.851 3.851 0 0 0 3.852-3.851v-12.892a3.851 3.851 0 0 0-3.852-3.851Z" stroke="#000" stroke-linecap="round" stroke-linejoin="round" stroke-width=".25"/><path d="M-211.394-3366.233v11.297a.722.722 0 0 0 1.11.61l8.902-5.649a.722.722 0 0 0 0-1.22l-8.903-5.648a.722.722 0 0 0-1.109.61Z" fill="#a7967d"/></g></svg>