<svg xmlns="http://www.w3.org/2000/svg" viewBox="-422.09 -3375.221 25 25" width="25" height="25"><g fill="none"><path d="M-404.787-3374.721h-12.952a3.851 3.851 0 0 0-3.851 3.851v12.892a3.851 3.851 0 0 0 3.851 3.851h12.952a3.851 3.851 0 0 0 3.852-3.851v-12.892a3.851 3.851 0 0 0-3.852-3.851Z" fill="#fff"/><path d="M-404.787-3374.721h-12.952a3.851 3.851 0 0 0-3.851 3.851v12.892a3.851 3.851 0 0 0 3.851 3.851h12.952a3.851 3.851 0 0 0 3.852-3.851v-12.892a3.851 3.851 0 0 0-3.852-3.851Z" stroke="#000" stroke-linecap="round" stroke-linejoin="round" stroke-width=".25"/><path d="M-401.442-3371.315h-12.952a3.851 3.851 0 0 0-3.851 3.851v12.892a3.851 3.851 0 0 0 3.851 3.851h12.952a3.851 3.851 0 0 0 3.852-3.851v-12.892a3.851 3.851 0 0 0-3.852-3.851Z" fill="#fff"/><path d="M-401.442-3371.315h-12.952a3.851 3.851 0 0 0-3.851 3.851v12.892a3.851 3.851 0 0 0 3.851 3.851h12.952a3.851 3.851 0 0 0 3.852-3.851v-12.892a3.851 3.851 0 0 0-3.852-3.851Z" stroke="#000" stroke-linecap="round" stroke-linejoin="round" stroke-width=".25"/><path d="M-414.128-3356.804v2.7h2.707l7.986-7.963-2.708-2.7-7.985 7.963Zm12.787-7.35a.715.715 0 0 0 0-1.015l-1.69-1.685a.72.72 0 0 0-1.018 0l-1.321 1.317 2.707 2.7 1.322-1.317Z" fill="#a7967d"/></g></svg>