<svg xmlns="http://www.w3.org/2000/svg" viewBox="-382.09 -3375.221 25 25" width="25" height="25"><g fill="none"><path d="M-364.787-3374.721h-12.952a3.851 3.851 0 0 0-3.851 3.851v12.892a3.851 3.851 0 0 0 3.851 3.851h12.952a3.851 3.851 0 0 0 3.852-3.851v-12.892a3.851 3.851 0 0 0-3.852-3.851Z" fill="#fff"/><path d="M-364.787-3374.721h-12.952a3.851 3.851 0 0 0-3.851 3.851v12.892a3.851 3.851 0 0 0 3.851 3.851h12.952a3.851 3.851 0 0 0 3.852-3.851v-12.892a3.851 3.851 0 0 0-3.852-3.851Z" stroke="#000" stroke-linecap="round" stroke-linejoin="round" stroke-width=".25"/><path d="M-361.442-3371.315h-12.952a3.851 3.851 0 0 0-3.851 3.851v12.892a3.851 3.851 0 0 0 3.851 3.851h12.952a3.851 3.851 0 0 0 3.852-3.851v-12.892a3.851 3.851 0 0 0-3.852-3.851Z" fill="#fff"/><path d="M-361.442-3371.315h-12.952a3.851 3.851 0 0 0-3.851 3.851v12.892a3.851 3.851 0 0 0 3.851 3.851h12.952a3.851 3.851 0 0 0 3.852-3.851v-12.892a3.851 3.851 0 0 0-3.852-3.851Z" stroke="#000" stroke-linecap="round" stroke-linejoin="round" stroke-width=".25"/><path d="m-371.225-3365.958-1.027 1.031 3.399 3.383-11.927.028.003 1.451 11.927-.028-3.383 3.4 1.032 1.026 5.133-5.157Z" fill="#5b76a2"/><path d="m-371.225-3365.958-1.027 1.031 3.399 3.383-11.927.028.003 1.451 11.927-.028-3.383 3.4 1.032 1.026 5.133-5.157Z" stroke="#5c76a2" stroke-linecap="round" stroke-linejoin="round"/></g></svg>