<svg xmlns="http://www.w3.org/2000/svg" viewBox="-302.09 -3375.221 25 25" width="25" height="25"><g fill="none"><path d="M-284.787-3374.721h-12.952a3.851 3.851 0 0 0-3.851 3.851v12.892a3.851 3.851 0 0 0 3.851 3.851h12.952a3.851 3.851 0 0 0 3.852-3.851v-12.892a3.851 3.851 0 0 0-3.852-3.851Z" fill="#fff"/><path d="M-284.787-3374.721h-12.952a3.851 3.851 0 0 0-3.851 3.851v12.892a3.851 3.851 0 0 0 3.851 3.851h12.952a3.851 3.851 0 0 0 3.852-3.851v-12.892a3.851 3.851 0 0 0-3.852-3.851Z" stroke="#000" stroke-linecap="round" stroke-linejoin="round" stroke-width=".25"/><path d="M-281.442-3371.315h-12.952a3.851 3.851 0 0 0-3.851 3.851v12.892a3.851 3.851 0 0 0 3.851 3.851h12.952a3.851 3.851 0 0 0 3.852-3.851v-12.892a3.851 3.851 0 0 0-3.852-3.851Z" fill="#fff"/><path d="M-281.442-3371.315h-12.952a3.851 3.851 0 0 0-3.851 3.851v12.892a3.851 3.851 0 0 0 3.851 3.851h12.952a3.851 3.851 0 0 0 3.852-3.851v-12.892a3.851 3.851 0 0 0-3.852-3.851Z" stroke="#000" stroke-linecap="round" stroke-linejoin="round" stroke-width=".25"/><path d="M-292.09-3357.388h-3.476l6.084 6.667 6.084-6.667h-3.563c0-4.763 1.39-8.096 4.433-10.477-4.346.952-8.692 3.81-9.561 10.477Z" fill="#518737"/></g></svg>