<svg xmlns="http://www.w3.org/2000/svg" viewBox="-342.09 -3375.221 25 25" width="25" height="25"><g fill="none"><path d="M-324.787-3374.721h-12.952a3.851 3.851 0 0 0-3.851 3.851v12.892a3.851 3.851 0 0 0 3.851 3.851h12.952a3.851 3.851 0 0 0 3.852-3.851v-12.892a3.851 3.851 0 0 0-3.852-3.851Z" fill="#fff"/><path d="M-324.787-3374.721h-12.952a3.851 3.851 0 0 0-3.851 3.851v12.892a3.851 3.851 0 0 0 3.851 3.851h12.952a3.851 3.851 0 0 0 3.852-3.851v-12.892a3.851 3.851 0 0 0-3.852-3.851Z" stroke="#000" stroke-linecap="round" stroke-linejoin="round" stroke-width=".25"/><path d="M-321.442-3371.315h-12.952a3.851 3.851 0 0 0-3.851 3.851v12.892a3.851 3.851 0 0 0 3.851 3.851h12.952a3.851 3.851 0 0 0 3.852-3.851v-12.892a3.851 3.851 0 0 0-3.852-3.851Z" fill="#fff"/><path d="M-321.442-3371.315h-12.952a3.851 3.851 0 0 0-3.851 3.851v12.892a3.851 3.851 0 0 0 3.851 3.851h12.952a3.851 3.851 0 0 0 3.852-3.851v-12.892a3.851 3.851 0 0 0-3.852-3.851Z" stroke="#000" stroke-linecap="round" stroke-linejoin="round" stroke-width=".25"/><path d="M-329.688-3364.664v-3.467l-6.687 6.066 6.687 6.067v-3.553c4.777 0 8.12 1.386 10.508 4.42-.955-4.334-3.82-8.667-10.508-9.533Z" fill="#9f4c4c"/></g></svg>