<svg xmlns="http://www.w3.org/2000/svg" viewBox="-462.09 -3373.122 25 25" width="25" height="25"><g fill="none"><path d="M-444.787-3372.622h-12.952a3.851 3.851 0 0 0-3.851 3.852v12.891a3.851 3.851 0 0 0 3.851 3.852h12.952a3.851 3.851 0 0 0 3.852-3.852v-12.891a3.851 3.851 0 0 0-3.852-3.852Z" fill="#fff"/><path d="M-444.787-3372.622h-12.952a3.851 3.851 0 0 0-3.851 3.852v12.891a3.851 3.851 0 0 0 3.851 3.852h12.952a3.851 3.851 0 0 0 3.852-3.852v-12.891a3.851 3.851 0 0 0-3.852-3.852Z" stroke="#000" stroke-linecap="round" stroke-linejoin="round" stroke-width=".25"/><path d="M-441.442-3369.216h-12.952a3.851 3.851 0 0 0-3.851 3.851v12.892a3.851 3.851 0 0 0 3.851 3.851h12.952a3.851 3.851 0 0 0 3.852-3.851v-12.892a3.851 3.851 0 0 0-3.852-3.851Z" fill="#fff"/><path d="M-441.442-3369.216h-12.952a3.851 3.851 0 0 0-3.851 3.851v12.892a3.851 3.851 0 0 0 3.851 3.851h12.952a3.851 3.851 0 0 0 3.852-3.851v-12.892a3.851 3.851 0 0 0-3.852-3.851Z" stroke="#000" stroke-linecap="round" stroke-linejoin="round" stroke-width=".25"/><path d="M-442.263-3362.065h-10.962a2.471 2.471 0 0 1 0-4.943h10.962a2.471 2.471 0 0 1 0 4.943Z" fill="#65727e"/><path d="M-442.263-3362.065h-10.962a2.471 2.471 0 0 1-2.471-2.471h0a2.471 2.471 0 0 1 2.471-2.472h10.962a2.471 2.471 0 0 1 2.471 2.472h0a2.471 2.471 0 0 1-2.471 2.471s0 0 0 0Z" stroke="#65727e" stroke-linecap="round" stroke-linejoin="round" stroke-width=".722"/><path fill="#65727e" d="M-455.696-3364.05h15.904v1.985h-15.904z"/><path stroke="#65727e" stroke-linecap="round" stroke-linejoin="round" stroke-width=".722" d="M-455.696-3364.05h15.904v1.985h-15.904z"/><path d="m-449.812-3356.157.413.415 1.368-1.362-.011 4.799.583.001.012-4.798 1.36 1.367.416-.413-2.066-2.075Z" fill="#000"/><path d="m-449.812-3356.157.413.415 1.368-1.362-.011 4.799.583.001.012-4.798 1.36 1.367.416-.413-2.066-2.075Z" stroke="#65727e" stroke-linecap="round" stroke-linejoin="round"/></g></svg>