<svg xmlns="http://www.w3.org/2000/svg" width="25.25" height="25.25" viewBox="-672.625 -3250.625 25.25 25.25"><g fill="none"><path fill="#fff" d="M-655.196-3250h-12.953a3.851 3.851 0 0 0-3.851 3.851v12.892a3.851 3.851 0 0 0 3.851 3.851h12.953a3.851 3.851 0 0 0 3.851-3.851v-12.892a3.851 3.851 0 0 0-3.851-3.851Z"/><path stroke="#000" stroke-linecap="round" stroke-linejoin="round" stroke-width=".25" d="M-655.196-3250h-12.953a3.851 3.851 0 0 0-3.851 3.851v12.892a3.851 3.851 0 0 0 3.851 3.851h12.953a3.851 3.851 0 0 0 3.851-3.851v-12.892a3.851 3.851 0 0 0-3.851-3.851Z"/><path fill="#fff" d="M-651.851-3246.594h-12.953a3.851 3.851 0 0 0-3.851 3.851v12.892a3.851 3.851 0 0 0 3.851 3.851h12.953a3.851 3.851 0 0 0 3.851-3.851v-12.892a3.851 3.851 0 0 0-3.851-3.851Z"/><path stroke="#000" stroke-linecap="round" stroke-linejoin="round" stroke-width=".25" d="M-651.851-3246.594h-12.953a3.851 3.851 0 0 0-3.851 3.851v12.892a3.851 3.851 0 0 0 3.851 3.851h12.953a3.851 3.851 0 0 0 3.851-3.851v-12.892a3.851 3.851 0 0 0-3.851-3.851Z"/><path fill="#65727e" d="M-652.673-3239.443h-10.962a2.471 2.471 0 1 1 0-4.943h10.962a2.471 2.471 0 0 1 0 4.943Z"/><path stroke="#65727e" stroke-linecap="round" stroke-linejoin="round" stroke-width=".722" d="M-652.673-3239.443h-10.962a2.471 2.471 0 0 1-2.47-2.472h0a2.471 2.471 0 0 1 2.47-2.471h10.962a2.471 2.471 0 0 1 2.472 2.471h0a2.471 2.471 0 0 1-2.472 2.472s0 0 0 0Z"/><path fill="#65727e" d="M-666.106-3241.429h15.904v1.985h-15.904z"/><path stroke="#65727e" stroke-linecap="round" stroke-linejoin="round" stroke-width=".722" d="M-666.106-3241.429h15.904v1.985h-15.904z"/><path fill="#000" d="m-660.221-3233.536.413.415 1.367-1.361-.011 4.799.584.001.01-4.799 1.362 1.368.415-.413-2.065-2.075Z"/><path stroke="#65727e" stroke-linecap="round" stroke-linejoin="round" d="m-660.221-3233.536.413.415 1.367-1.361-.011 4.799.584.001.01-4.799 1.362 1.368.415-.413-2.065-2.075Z"/></g></svg>