<svg xmlns="http://www.w3.org/2000/svg" width="102.706" height="103" viewBox="-857.206 -1433.5 102.706 103"><g fill="none"><path fill="#fff" d="M-785.896-1432h-53.81c-8.837 0-16 7.163-16 16v53.81c0 8.836 7.163 16 16 16h53.81c8.836 0 16-7.164 16-16V-1416c0-8.837-7.164-16-16-16Z"/><path stroke="#000" stroke-linecap="round" stroke-linejoin="round" stroke-width="3" d="M-785.896-1432h-53.81c-8.837 0-16 7.163-16 16v53.81c0 8.836 7.163 16 16 16h53.81c8.836 0 16-7.164 16-16V-1416c0-8.837-7.164-16-16-16Z"/><path fill="#fff" d="M-772-1417.81h-53.81c-8.836 0-16 7.164-16 16v53.81c0 8.837 7.164 16 16 16H-772c8.837 0 16-7.163 16-16v-53.81c0-8.836-7.163-16-16-16Z"/><path stroke="#000" stroke-linecap="round" stroke-linejoin="round" stroke-width="3" d="M-772-1417.81h-53.81c-8.836 0-16 7.164-16 16v53.81c0 8.837 7.164 16 16 16H-772c8.837 0 16-7.163 16-16v-53.81c0-8.836-7.163-16-16-16Z"/><path fill="#65727e" d="M-775.443-1388.014h-45.48c-5.686 0-10.296-4.61-10.296-10.297s4.61-10.298 10.297-10.298h45.48c5.686 0 10.296 4.61 10.296 10.298 0 5.687-4.61 10.297-10.297 10.297Z"/><path stroke="#65727e" stroke-linecap="round" stroke-linejoin="round" stroke-width="3" d="M-775.443-1388.014h-45.48c-5.686 0-10.296-4.61-10.296-10.297h0c0-5.687 4.61-10.298 10.297-10.298h45.48c5.686 0 10.296 4.61 10.296 10.298h0c0 5.687-4.61 10.297-10.297 10.297 0 0 0 0 0 0Z"/><path fill="#65727e" d="M-831.219-1396.286h66.074v8.272h-66.074z"/><path stroke="#65727e" stroke-linecap="round" stroke-linejoin="round" stroke-width="3" d="M-831.219-1396.286h66.074v8.272h-66.074z"/><path fill="#000" d="m-806.828-1363.39 1.73 1.73 5.696-5.697v20.04h2.438v-20.04l5.698 5.697 1.729-1.73-8.646-8.645Z"/><path stroke="#65727e" stroke-linecap="round" stroke-linejoin="round" stroke-width="6" d="m-806.828-1363.39 1.73 1.73 5.696-5.697v20.04h2.438v-20.04l5.698 5.697 1.729-1.73-8.646-8.645Z"/></g></svg>