<svg xmlns="http://www.w3.org/2000/svg" width="77.811" height="65.933" viewBox="1440.188 -2802 77.811 65.933"><g fill="none"><path fill="#518737" d="M1483.952-2802c-18.806 0-34.049 12.385-34.049 27.664 0 15.28 15.243 27.665 34.049 27.665 1.806 0 3.579-.115 5.309-.337 7.312 7.314 16.043 8.625 24.483 8.819v-1.79c-4.558-2.232-8.512-6.3-8.512-10.948 0-.65.05-1.286.145-1.91 7.699-5.07 12.623-12.816 12.623-21.499 0-15.279-15.243-27.664-34.048-27.664Z"/><path fill="#cf7738" d="M1465.725-2783.925c14.104 0 25.536 9.289 25.536 20.748 0 11.46-11.432 20.749-25.536 20.749-1.355 0-2.685-.087-3.982-.253-5.484 5.486-12.033 6.469-18.362 6.614v-1.342c3.418-1.674 6.384-4.726 6.384-8.211 0-.487-.039-.965-.109-1.432-5.774-3.803-9.467-9.613-9.467-16.125 0-11.46 11.432-20.748 25.536-20.748Z"/></g></svg>