<svg xmlns="http://www.w3.org/2000/svg" width="68.096" height="46.429" viewBox="1190 -2913.215 68.096 46.429"><g fill="none"><path fill="#5c76a2" d="M1224.048-2913.215c-15.476 0-28.693 9.627-34.048 23.215 5.355 13.588 18.572 23.215 34.048 23.215 15.477 0 28.694-9.627 34.048-23.215-5.354-13.588-18.571-23.215-34.048-23.215Zm0 38.691c-8.543 0-15.476-6.933-15.476-15.476 0-8.543 6.933-15.476 15.476-15.476 8.543 0 15.477 6.933 15.477 15.476 0 8.543-6.934 15.476-15.477 15.476Zm0-24.762a9.274 9.274 0 0 0-9.286 9.286 9.274 9.274 0 0 0 9.286 9.286 9.274 9.274 0 0 0 9.286-9.286 9.274 9.274 0 0 0-9.286-9.286Z"/></g></svg>