<svg xmlns="http://www.w3.org/2000/svg" width="72.364" height="66.058" viewBox="1926.5 -2799.5 72.364 66.058"><g fill="none"><path fill="#5c76a2" d="M1991.058-2798h-56.752c-3.468 0-6.306 2.838-6.306 6.306v37.834c0 3.469 2.838 6.306 6.306 6.306h22.07v6.306h-6.306v6.306h25.223v-6.306h-6.305v-6.306h22.07c3.468 0 6.306-2.837 6.306-6.305v-37.835c0-3.468-2.838-6.306-6.306-6.306Zm0 44.14h-56.752v-37.834h56.752v37.834Z"/><path stroke="#5c76a2" stroke-linecap="round" stroke-linejoin="round" stroke-width="3" d="M1991.058-2798h-56.752c-3.468 0-6.306 2.838-6.306 6.306v37.834c0 3.469 2.838 6.306 6.306 6.306h22.07v6.306h-6.306v6.306h25.223v-6.306h-6.305v-6.306h22.07c3.468 0 6.306-2.837 6.306-6.305v-37.835c0-3.468-2.838-6.306-6.306-6.306Zm0 44.14h-56.752v-37.834h56.752v37.834Z"/></g></svg>