<svg xmlns="http://www.w3.org/2000/svg" width="68.597" height="60.085" viewBox="1316.702 -2802.25 68.597 60.085"><g fill="none"><path fill="#5c76a2" d="M1363.768-2759.44h17.024v12.769h-17.024Zm-42.56 0h17.024v12.769h-17.024Zm42.56-34.048h17.024v12.768h-17.024Zm0 17.024h17.024v12.769h-17.024Zm-42.56 0h17.024v12.769h-17.024Zm17.024-4.256h-17.024v-12.768h17.024Zm21.28 0h-17.024v-12.768h17.024Zm0 34.049h-17.024v-12.768h17.024Zm-17.024-29.793h17.024v12.769h-17.024Zm-25.536 34.049h68.096V-2802h-68.096Z"/><path stroke="#5c76a2" stroke-linecap="round" stroke-linejoin="round" stroke-width=".5" d="M1363.768-2759.44h17.024v12.769h-17.024Zm-42.56 0h17.024v12.769h-17.024Zm42.56-34.048h17.024v12.768h-17.024Zm0 17.024h17.024v12.769h-17.024Zm-42.56 0h17.024v12.769h-17.024Zm17.024-4.256h-17.024v-12.768h17.024Zm21.28 0h-17.024v-12.768h17.024Zm0 34.049h-17.024v-12.768h17.024Zm-17.024-29.793h17.024v12.769h-17.024Zm-25.536 34.049h68.096V-2802h-68.096Z"/></g></svg>