<svg xmlns="http://www.w3.org/2000/svg" width="74.325" height="61.661" viewBox="1060 -2793.831 74.325 61.661"><g fill="none"><circle cx="1085.536" cy="-2762.974" r="22.976" fill="#fff"/><path fill="#5c76a2" d="M1094.048-2793.831h40.277v8.809h-40.277zM1094.048-2740.978h40.277v8.809h-40.277zM1108.789-2767.404h25.536v8.809h-25.536z"/><path fill="#9f4c4c" d="M1081.28-2784.28c-11.768 0-21.28 9.512-21.28 21.28s9.512 21.28 21.28 21.28 21.28-9.512 21.28-21.28-9.512-21.28-21.28-21.28Zm10.64 28.92-3 3-7.64-7.64-7.64 7.64-3-3 7.64-7.64-7.64-7.64 3-3 7.64 7.64 7.64-7.64 3 3-7.64 7.64 7.64 7.64Z"/></g></svg>