<svg xmlns="http://www.w3.org/2000/svg" width="103" height="103" viewBox="794.054 2256.514 103 103"><g fill="none"><ellipse cx="845.554" cy="2308.014" fill="#fff" rx="50" ry="49.262"/><path stroke="#000" stroke-linecap="round" stroke-linejoin="round" stroke-width="3" d="m845.554 2358.014 4.358-.19 4.325-.57 4.258-.944 4.16-1.311 4.03-1.67 3.87-2.014 3.678-2.343 3.46-2.656 3.217-2.947 2.947-3.216 2.655-3.46 2.344-3.679 2.014-3.87 1.67-4.029 1.31-4.16.945-4.259.57-4.324.19-4.358-.19-4.358-.57-4.325-.944-4.258-1.312-4.16-1.67-4.03-2.013-3.869-2.344-3.679-2.655-3.46-2.947-3.216-3.216-2.947-3.46-2.656-3.68-2.343-3.869-2.014-4.03-1.67-4.16-1.311-4.258-.944-4.325-.57-4.358-.19-4.357.19-4.325.57-4.258.944-4.16 1.311-4.03 1.67-3.87 2.014-3.678 2.343-3.46 2.656-3.217 2.947-2.947 3.216-2.655 3.46-2.344 3.679-2.014 3.869-1.67 4.03-1.31 4.16-.945 4.258-.57 4.325-.19 4.358.19 4.358.57 4.324.944 4.259 1.312 4.16 1.67 4.03 2.013 3.869 2.344 3.679 2.655 3.46 2.947 3.216 3.216 2.947 3.46 2.656 3.68 2.343 3.869 2.014 4.03 1.67 4.16 1.311 4.258.944 4.325.57 4.357.19"/><path fill="#9f4c4c" d="M831.604 2290.768v-16.175l-31.111 28.306 31.11 28.307v-16.58c22.223 0 37.779 6.47 48.89 20.623-4.445-20.218-17.778-40.437-48.89-44.481Z"/></g></svg>