<svg xmlns="http://www.w3.org/2000/svg" width="103" height="103" viewBox="1354.5 196.916 103 103"><g fill="none"><ellipse cx="1406" cy="248.416" fill="#fff" rx="50" ry="49.262"/><path stroke="#000" stroke-linecap="round" stroke-linejoin="round" stroke-width="3" d="m1406 298.416 4.358-.19 4.324-.57 4.259-.944 4.16-1.311 4.03-1.67 3.869-2.014 3.679-2.343 3.46-2.656 3.216-2.947 2.947-3.216 2.656-3.46 2.343-3.679 2.014-3.869 1.67-4.03 1.311-4.16.944-4.258.57-4.325.19-4.358-.19-4.358-.57-4.324-.944-4.259-1.311-4.16-1.67-4.03-2.014-3.869-2.343-3.679-2.656-3.46-2.947-3.216-3.216-2.947-3.46-2.655-3.679-2.344-3.869-2.014-4.03-1.67-4.16-1.311-4.259-.944-4.324-.57-4.358-.19-4.358.19-4.324.57-4.259.944-4.16 1.311-4.03 1.67-3.869 2.014-3.679 2.344-3.46 2.655-3.216 2.947-2.947 3.216-2.656 3.46-2.343 3.68-2.014 3.868-1.67 4.03-1.311 4.16-.944 4.259-.57 4.324-.19 4.358.19 4.358.57 4.325.944 4.258 1.311 4.16 1.67 4.03 2.014 3.87 2.343 3.678 2.656 3.46 2.947 3.216 3.216 2.947 3.46 2.656 3.679 2.343 3.87 2.014 4.029 1.67 4.16 1.311 4.259.945 4.324.569 4.358.19"/><path fill="#a7957d" d="M1433.29 251.916c.148-1.142.258-2.285.258-3.5 0-1.214-.11-2.357-.257-3.5l7.748-5.894c.697-.535.88-1.5.44-2.285l-7.344-12.359c-.44-.786-1.432-1.071-2.24-.786l-9.143 3.572a27.018 27.018 0 0 0-6.205-3.5l-1.396-9.465c-.11-.858-.881-1.5-1.799-1.5h-14.688c-.918 0-1.689.642-1.8 1.5l-1.394 9.465c-2.24.893-4.297 2.107-6.206 3.5l-9.143-3.572c-.845-.321-1.8 0-2.24.786l-7.344 12.359c-.477.785-.257 1.75.44 2.285l7.748 5.894c-.146 1.143-.257 2.321-.257 3.5 0 1.179.11 2.358.257 3.5l-7.747 5.894c-.698.536-.882 1.5-.441 2.286l7.344 12.358c.44.786 1.432 1.072 2.24.786l9.143-3.572a27.017 27.017 0 0 0 6.206 3.5l1.395 9.466c.11.857.881 1.5 1.8 1.5h14.687c.918 0 1.69-.643 1.8-1.5l1.395-9.466c2.24-.893 4.296-2.107 6.205-3.5l9.143 3.572c.845.321 1.8 0 2.24-.786l7.344-12.358c.44-.786.257-1.75-.44-2.286l-7.748-5.894Zm-27.282 9.001c-7.087 0-12.852-5.607-12.852-12.5 0-6.894 5.765-12.502 12.852-12.502 7.087 0 12.852 5.608 12.852 12.501 0 6.894-5.765 12.501-12.852 12.501Z"/></g></svg>