<svg xmlns="http://www.w3.org/2000/svg" width="103" height="103" viewBox="709.419 1043.315 103 103"><g fill="none"><ellipse cx="760.919" cy="1094.815" fill="#fff" rx="50" ry="49.262"/><text fill="#65727e" transform="translate(725.919 1045.815)">
            <tspan x="15.452" y="72" font-family="Avenir Next Condensed" font-size="72" font-weight="bold">A</tspan>
          </text><path stroke="#000" stroke-linecap="round" stroke-linejoin="round" stroke-width="3" d="m760.919 1144.815 4.358-.19 4.324-.57 4.259-.944 4.16-1.311 4.03-1.67 3.869-2.014 3.679-2.343 3.46-2.656 3.216-2.947 2.947-3.216 2.655-3.46 2.344-3.679 2.014-3.869 1.67-4.03 1.311-4.16.944-4.259.57-4.324.19-4.358-.19-4.358-.57-4.324-.944-4.259-1.312-4.16-1.669-4.03-2.014-3.869-2.344-3.679-2.655-3.46-2.947-3.216-3.216-2.947-3.46-2.655-3.68-2.344-3.868-2.014-4.03-1.67-4.16-1.311-4.259-.944-4.324-.57-4.358-.19-4.358.19-4.325.57-4.258.944-4.16 1.312-4.03 1.669-3.87 2.014-3.678 2.344-3.46 2.655-3.216 2.947-2.947 3.216-2.656 3.46-2.343 3.68-2.014 3.868-1.67 4.03-1.311 4.16-.945 4.259-.569 4.324-.19 4.358.19 4.358.57 4.324.944 4.259 1.311 4.16 1.67 4.03 2.014 3.87 2.343 3.678 2.656 3.46 2.947 3.216 3.216 2.947 3.46 2.656 3.679 2.343 3.869 2.014 4.03 1.67 4.16 1.311 4.259.944 4.324.57 4.358.19"/><path stroke="#9f4c4c" stroke-linecap="round" stroke-linejoin="round" stroke-width="10" d="m728.845 1067.326 71.435 46.27"/></g></svg>