<svg xmlns="http://www.w3.org/2000/svg" width="103" height="103" viewBox="1363.13 1139.697 103 103"><g fill="none"><path fill="#fff" d="M1380.63 1141.197h68c8.836 0 16 7.163 16 16v68c0 8.836-7.164 16-16 16h-68c-8.837 0-16-7.164-16-16v-68c0-8.837 7.163-16 16-16Z"/><path stroke="#000" stroke-linecap="round" stroke-linejoin="round" stroke-width="3" d="M1380.63 1141.197h68c8.836 0 16 7.163 16 16v68c0 8.836-7.164 16-16 16h-68c-8.837 0-16-7.164-16-16v-68c0-8.837 7.163-16 16-16Z"/><path fill="#67727d" d="M1426.536 1187.228v7.937h-7.938v-7.937Zm-7.938-7.937v7.937h-7.937v-7.937Zm0 15.874v7.938h-7.937v-7.938Zm7.938 7.938v7.937h-7.938v-7.937Zm0-31.75v7.938h-7.938v-7.937Zm23.811 47.624v-55.56c0-4.366-3.571-7.938-7.937-7.938h-55.56c-4.366 0-7.938 3.572-7.938 7.937v55.561c0 4.365 3.572 7.937 7.937 7.937h55.561c4.366 0 7.937-3.572 7.937-7.937Zm-59.529-39.686v-7.937h7.937v7.937h-7.937Zm0 15.874v-7.937h7.937v7.937h-7.937Zm0 15.875v-7.937h7.937v7.937h-7.937Zm27.78 7.937v-7.937h-7.937v7.937h-7.937v-7.937h7.937v-7.937h-7.937v-7.938h7.937v-7.937h-7.937v-7.937h7.937v-7.937h-7.937v-7.938h7.937v7.938h7.937v-7.938h23.812v55.561h-23.812Z"/></g></svg>