<svg xmlns="http://www.w3.org/2000/svg" width="103" height="103" viewBox="1030.349 1139.697 103 103"><g fill="none"><ellipse cx="1081.849" cy="1191.197" fill="#fff" rx="50" ry="49.262"/><path stroke="#000" stroke-linecap="round" stroke-linejoin="round" stroke-width="3" d="m1081.849 1241.197 4.357-.19 4.325-.57 4.259-.944 4.16-1.312 4.03-1.669 3.869-2.014 3.678-2.344 3.461-2.655 3.216-2.947 2.947-3.216 2.655-3.46 2.344-3.68 2.014-3.868 1.67-4.03 1.31-4.16.945-4.259.57-4.324.19-4.358-.19-4.358-.57-4.325-.944-4.258-1.312-4.16-1.669-4.03-2.014-3.87-2.344-3.678-2.655-3.46-2.947-3.217-3.216-2.946-3.46-2.656-3.68-2.344-3.869-2.014-4.03-1.669-4.16-1.312-4.258-.944-4.325-.569-4.357-.19-4.358.19-4.325.57-4.258.943-4.16 1.312-4.03 1.67-3.87 2.013-3.678 2.344-3.46 2.656-3.217 2.946-2.947 3.216-2.655 3.46-2.344 3.68-2.014 3.869-1.669 4.03-1.312 4.16-.944 4.258-.57 4.325-.19 4.358.19 4.358.57 4.324.944 4.259 1.312 4.16 1.67 4.03 2.013 3.869 2.344 3.679 2.655 3.46 2.947 3.216 3.216 2.947 3.46 2.655 3.68 2.344 3.869 2.014 4.03 1.67 4.16 1.311 4.258.944 4.325.57 4.358.19"/><path fill="#5c76a2" d="m1073.067 1163.851-5.357 5.855h-9.28c-3.22 0-5.854 2.634-5.854 5.854v35.128c0 3.22 2.634 5.854 5.854 5.854h46.837c3.22 0 5.854-2.634 5.854-5.854v-35.128c0-3.22-2.634-5.854-5.854-5.854h-9.28l-5.357-5.855h-17.563Zm8.782 43.91c-8.08 0-14.637-6.558-14.637-14.637 0-8.08 6.557-14.636 14.637-14.636 8.079 0 14.636 6.557 14.636 14.636 0 8.08-6.557 14.636-14.636 14.636Z"/></g></svg>