<svg xmlns="http://www.w3.org/2000/svg" width="103" height="103" viewBox="1425.356 1651.095 103 103"><g fill="none"><path fill="#fff" d="M1442.856 1652.595h68c8.837 0 16 7.163 16 16v68c0 8.836-7.163 16-16 16h-68c-8.836 0-16-7.164-16-16v-68c0-8.837 7.164-16 16-16Z"/><path stroke="#000" stroke-linecap="round" stroke-linejoin="round" stroke-width="3" d="M1442.856 1652.595h68c8.837 0 16 7.163 16 16v68c0 8.836-7.163 16-16 16h-68c-8.836 0-16-7.164-16-16v-68c0-8.837 7.164-16 16-16Z"/><path fill="#65727e" d="M1497.481 1690.563h-3.437v-6.875c0-9.487-7.7-17.187-17.188-17.187-9.487 0-17.187 7.7-17.187 17.188v6.874h-3.438c-3.781 0-6.875 3.094-6.875 6.875v34.375c0 3.782 3.094 6.875 6.875 6.875h41.25c3.782 0 6.875-3.093 6.875-6.875v-34.375c0-3.78-3.093-6.875-6.875-6.875Zm-20.625 30.938c-3.781 0-6.875-3.094-6.875-6.875s3.094-6.875 6.875-6.875c3.782 0 6.875 3.094 6.875 6.875s-3.093 6.875-6.875 6.875Zm10.657-30.938H1466.2v-6.875c0-5.878 4.778-10.656 10.656-10.656 5.878 0 10.657 4.778 10.657 10.657v6.874Z"/></g></svg>