<svg xmlns="http://www.w3.org/2000/svg" width="103" height="103" viewBox="2582.5 836.186 103 103"><g fill="none"><ellipse cx="2634" cy="887.686" fill="#fff" rx="50" ry="49.262"/><path stroke="#000" stroke-linecap="round" stroke-linejoin="round" stroke-width="3" d="m2634 937.686 4.358-.19 4.324-.57 4.259-.944 4.16-1.312 4.03-1.669 3.869-2.014 3.679-2.344 3.46-2.655 3.216-2.947 2.947-3.216 2.656-3.46 2.343-3.68 2.014-3.868 1.67-4.03 1.311-4.16.944-4.259.57-4.325.19-4.357-.19-4.358-.57-4.325-.944-4.258-1.311-4.16-1.67-4.03-2.014-3.87-2.343-3.678-2.656-3.46-2.947-3.217-3.216-2.947-3.46-2.655-3.679-2.344-3.869-2.014-4.03-1.669-4.16-1.312-4.259-.944-4.324-.57-4.358-.19-4.358.19-4.324.57-4.259.944-4.16 1.312-4.03 1.67-3.869 2.013-3.679 2.344-3.46 2.655-3.216 2.947-2.947 3.216-2.656 3.46-2.343 3.68-2.014 3.869-1.67 4.03-1.311 4.16-.944 4.258-.57 4.325-.19 4.358.19 4.357.57 4.325.944 4.259 1.311 4.16 1.67 4.03 2.014 3.869 2.343 3.678 2.656 3.461 2.947 3.216 3.216 2.947 3.46 2.655 3.679 2.344 3.869 2.014 4.03 1.67 4.16 1.311 4.259.944 4.324.57 4.358.19"/><path fill="#5c76a2" d="M2606.919 903.16h11.606v11.607h7.737v-19.344h-19.343v7.738Zm11.606-30.95h-11.606v7.738h19.343v-19.343h-7.737v11.606Zm23.213 42.557h7.737V903.16h11.606v-7.738h-19.343v19.344Zm7.737-42.556v-11.606h-7.737v19.343h19.343v-7.737h-11.606Z"/><path stroke="#5c76a2" stroke-linecap="round" stroke-linejoin="round" stroke-width="3" d="M2606.919 903.16h11.606v11.607h7.737v-19.344h-19.343v7.738Zm11.606-30.95h-11.606v7.738h19.343v-19.343h-7.737v11.606Zm23.213 42.557h7.737V903.16h11.606v-7.738h-19.343v19.344Zm7.737-42.556v-11.606h-7.737v19.343h19.343v-7.737h-11.606Z"/></g></svg>