<svg xmlns="http://www.w3.org/2000/svg" width="103" height="103" viewBox="1362.5 1023.489 103 103"><g fill="none"><path fill="#fff" d="M1380 1024.99h68c8.836 0 16 7.163 16 16v68c0 8.836-7.164 16-16 16h-68c-8.837 0-16-7.164-16-16v-68c0-8.837 7.163-16 16-16Z"/><path stroke="#000" stroke-linecap="round" stroke-linejoin="round" stroke-width="3" d="M1380 1024.99h68c8.836 0 16 7.163 16 16v68c0 8.836-7.164 16-16 16h-68c-8.837 0-16-7.164-16-16v-68c0-8.837 7.163-16 16-16Z"/><path stroke="#65727e" stroke-linecap="round" stroke-linejoin="round" stroke-width="16" d="M1414.062 1072.896v30M1414.062 1047.082v3"/></g></svg>