<svg xmlns="http://www.w3.org/2000/svg" width="103" height="103" viewBox="1542.854 1291.34 103 103"><g fill="none"><path fill="#fff" d="M1560.354 1292.84h68c8.837 0 16 7.163 16 16v68c0 8.836-7.163 16-16 16h-68c-8.837 0-16-7.164-16-16v-68c0-8.837 7.163-16 16-16Z"/><path stroke="#000" stroke-linecap="round" stroke-linejoin="round" stroke-width="3" d="M1560.354 1292.84h68c8.837 0 16 7.163 16 16v68c0 8.836-7.163 16-16 16h-68c-8.837 0-16-7.164-16-16v-68c0-8.837 7.163-16 16-16Z"/><path stroke="#65727e" stroke-linecap="round" stroke-linejoin="round" stroke-width="6" d="M1556.086 1367.568a12.059 12.059 0 0 0-.232 2.36c0 6.627 5.373 12 12 12h53c6.628 0 12-5.373 12-12 0-.808-.08-1.597-.232-2.36h.232v-9.64H1555.854v9.64Z"/><path fill="#000" d="m1605 1326.665-1.73-1.729-5.697 5.697v-20.04h-2.438v20.04l-5.697-5.697-1.73 1.73 8.646 8.645Z"/><path stroke="#65727e" stroke-linecap="round" stroke-linejoin="round" stroke-width="6" d="m1605 1326.665-1.73-1.729-5.697 5.697v-20.04h-2.438v20.04l-5.697-5.697-1.73 1.73 8.646 8.645Z"/></g></svg>