<svg xmlns="http://www.w3.org/2000/svg" width="103" height="103" viewBox="1551 140 103 103"><g fill="none"><path fill="#fff" d="M1568.5 141.5h68c8.836 0 16 7.163 16 16v68c0 8.837-7.164 16-16 16h-68c-8.837 0-16-7.163-16-16v-68c0-8.837 7.163-16 16-16Z"/><path stroke="#000" stroke-linecap="round" stroke-linejoin="round" stroke-width="3" d="M1568.5 141.5h68c8.836 0 16 7.163 16 16v68c0 8.837-7.164 16-16 16h-68c-8.837 0-16-7.163-16-16v-68c0-8.837 7.163-16 16-16Z"/><path fill="#5c76a2" d="m1602.46 217.74-29.248-21.464-6.43 4.72 35.718 26.222 35.718-26.222-6.47-4.757-29.288 21.501Zm.04-9.514 29.209-21.465 6.509-4.757-35.718-26.222-35.718 26.222 6.47 4.757 29.248 21.465Z"/></g></svg>