<svg xmlns="http://www.w3.org/2000/svg" viewBox="1057.855 -2172.412 102.145 102.145" width="102.145" height="102.145"><g fill="none"><path d="M1061.855-2172.412H1156a4 4 0 0 1 4 4v94.146a4 4 0 0 1-4 4h-94.145a4 4 0 0 1-4-4v-94.146a4 4 0 0 1 4-4Z" fill="#a7967d"/><path d="M1074.879-2135.005h20.028v-20.667h-20.028v20.667Zm0 24.11h20.028v-20.666h-20.028v20.667Zm24.034 0h20.029v-20.666h-20.029v20.667Zm24.034 0h20.029v-20.666h-20.029v20.667Zm-24.034-24.11h20.029v-20.667h-20.029v20.667Zm24.034-20.667v20.667h20.029v-20.667h-20.029Z" fill="#fff"/><path d="M1074.879-2111.117h20.028v-20.667h-20.028v20.667Zm0 24.111h20.028v-20.667h-20.028v20.667Zm24.034 0h20.029v-20.667h-20.029v20.667Zm24.034 0h20.029v-20.667h-20.029v20.667Zm-24.034-24.111h20.029v-20.667h-20.029v20.667Zm24.034-20.667v20.667h20.029v-20.667h-20.029Z" fill="#fff"/></g></svg>