<svg xmlns="http://www.w3.org/2000/svg" viewBox="1806.997 -2172.412 102.145 102.145" width="102.145" height="102.145"><g fill="none"><path d="M1816.731-2166.678h82.678a4 4 0 0 1 4 4V-2080a4 4 0 0 1-4 4h-82.678a4 4 0 0 1-4-4v-82.678a4 4 0 0 1 4-4Z" fill="#fff"/><path d="M1897.793-2172.412h-79.446c-6.242 0-11.35 5.107-11.35 11.35v79.446c0 6.242 5.108 11.35 11.35 11.35h79.446c6.243 0 11.35-5.108 11.35-11.35v-79.446c0-6.243-5.107-11.35-11.35-11.35Zm0 90.796-39.723-45.398v45.398h-39.723l39.723-45.398v-34.048h39.723v79.446Z" fill="#a7967d"/></g></svg>