<svg xmlns="http://www.w3.org/2000/svg" width="103" height="103" viewBox="885.5 251.5 103 103"><g fill="none"><ellipse cx="937" cy="303" fill="#fff" rx="50" ry="49.262"/><path stroke="#000" stroke-linecap="round" stroke-linejoin="round" stroke-width="3" d="m937 353 4.358-.19 4.324-.57 4.259-.944 4.16-1.311 4.03-1.67 3.869-2.014 3.679-2.343 3.46-2.656 3.216-2.947 2.947-3.216 2.656-3.46L980.3 328l2.014-3.87 1.67-4.029 1.311-4.16.944-4.259.57-4.324L987 303l-.19-4.358-.57-4.324-.944-4.259-1.311-4.16-1.67-4.03-2.014-3.869-2.343-3.679-2.656-3.46-2.947-3.216-3.216-2.947-3.46-2.656L962 259.7l-3.87-2.014-4.029-1.67-4.16-1.311-4.259-.944-4.324-.57L937 253l-4.358.19-4.324.57-4.259.944-4.16 1.311-4.03 1.67-3.869 2.014-3.679 2.343-3.46 2.656-3.216 2.947-2.947 3.216-2.656 3.46L893.7 278l-2.014 3.87-1.67 4.029-1.311 4.16-.944 4.259-.57 4.324L887 303l.19 4.358.57 4.324.944 4.259 1.311 4.16 1.67 4.03 2.014 3.869 2.343 3.679 2.656 3.46 2.947 3.216 3.216 2.947 3.46 2.656L912 346.3l3.87 2.014 4.029 1.67 4.16 1.311 4.259.944 4.324.57L937 353"/><path fill="#a7957d" d="M945.36 328.081h5.574v-5.573h-5.574v5.573Zm11.148-33.441h5.573v-5.574h-5.573v5.574Zm-44.59-11.148v39.016c0 3.065 2.509 5.573 5.574 5.573h11.148v-5.573h-11.148v-39.016h11.148v-5.573h-11.148c-3.065 0-5.573 2.508-5.573 5.573Zm44.59-5.573v5.573h5.573c0-3.065-2.508-5.573-5.573-5.573Zm-22.295 55.736h5.574v-61.31h-5.574v61.31Zm22.295-16.721h5.573v-5.574h-5.573v5.574Zm-11.148-33.442h5.574v-5.573h-5.574v5.573Zm11.148 22.295h5.573v-5.574h-5.573v5.574Zm0 22.294c3.065 0 5.573-2.508 5.573-5.573h-5.573v5.573Z"/></g></svg>