<svg xmlns="http://www.w3.org/2000/svg" viewBox="1931.855 -2172.412 102.145 102.145" width="102.145" height="102.145"><g fill="none"><path d="M1943.588-2164.678h78.678a4 4 0 0 1 4 4V-2082a4 4 0 0 1-4 4h-78.678a4 4 0 0 1-4-4v-78.678a4 4 0 0 1 4-4Z" fill="#fff"/><path d="M1931.855-2161.062v79.446c0 6.242 5.05 11.35 11.35 11.35h79.446c6.242 0 11.349-5.108 11.349-11.35v-79.446c0-6.243-5.107-11.35-11.35-11.35h-79.446c-6.299 0-11.35 5.107-11.35 11.35Zm68.097 22.699c0 9.42-7.605 17.024-17.025 17.024-9.42 0-17.024-7.604-17.024-17.024 0-9.42 7.604-17.024 17.024-17.024 9.42 0 17.025 7.604 17.025 17.024Zm-51.073 45.398c0-11.35 22.699-17.592 34.048-17.592 11.35 0 34.049 6.242 34.049 17.592v5.674h-68.097v-5.674Z" fill="#a7967d"/></g></svg>