<svg xmlns="http://www.w3.org/2000/svg" width="102.706" height="103" viewBox="2124.122 565.727 102.706 103"><g fill="none"><path fill="#fff" d="M2195.432 567.227h-53.81c-8.837 0-16 7.163-16 16v53.81c0 8.836 7.163 16 16 16h53.81c8.836 0 16-7.164 16-16v-53.81c0-8.837-7.164-16-16-16Z"/><path stroke="#000" stroke-linecap="round" stroke-linejoin="round" stroke-width="3" d="M2195.432 567.227h-53.81c-8.837 0-16 7.163-16 16v53.81c0 8.836 7.163 16 16 16h53.81c8.836 0 16-7.164 16-16v-53.81c0-8.837-7.164-16-16-16Z"/><path fill="#fff" d="M2209.328 581.417h-53.81c-8.836 0-16 7.164-16 16v53.81c0 8.837 7.164 16 16 16h53.81c8.836 0 16-7.163 16-16v-53.81c0-8.836-7.164-16-16-16Z"/><path stroke="#000" stroke-linecap="round" stroke-linejoin="round" stroke-width="3" d="M2209.328 581.417h-53.81c-8.836 0-16 7.164-16 16v53.81c0 8.837 7.164 16 16 16h53.81c8.836 0 16-7.163 16-16v-53.81c0-8.836-7.164-16-16-16Z"/></g></svg>