<svg xmlns="http://www.w3.org/2000/svg" width="103" height="103" viewBox="2125.772 693.427 103 103"><g fill="none"><path fill="#fff" d="M2143.272 694.927h68c8.836 0 16 7.163 16 16v14.27c0 8.837-7.164 16-16 16h-68c-8.837 0-16-7.163-16-16v-14.27c0-8.837 7.163-16 16-16Z"/><path stroke="#000" stroke-linecap="round" stroke-linejoin="round" stroke-width="3" d="M2143.272 694.927h68c8.836 0 16 7.163 16 16v14.27c0 8.837-7.164 16-16 16h-68c-8.837 0-16-7.163-16-16v-14.27c0-8.837 7.163-16 16-16Z"/><path fill="#fff" d="M2143.272 748.657h68c8.836 0 16 7.163 16 16v14.27c0 8.837-7.164 16-16 16h-68c-8.837 0-16-7.163-16-16v-14.27c0-8.837 7.163-16 16-16Z"/><path stroke="#000" stroke-linecap="round" stroke-linejoin="round" stroke-width="3" d="M2143.272 748.657h68c8.836 0 16 7.163 16 16v14.27c0 8.837-7.164 16-16 16h-68c-8.837 0-16-7.163-16-16v-14.27c0-8.837 7.163-16 16-16Z"/></g></svg>