<svg xmlns="http://www.w3.org/2000/svg" width="102.457" height="102.729" viewBox="799.772 -424.229 102.457 102.729"><g fill="none"><path fill="#fff" d="M884.728-361.239h-49.905c-8.836 0-16-7.163-16-16v-29.49c0-8.836 7.164-16 16-16h49.905c8.837 0 16 7.164 16 16v29.49c0 8.837-7.163 16-16 16Z"/><path stroke="#000" stroke-linecap="round" stroke-linejoin="round" stroke-width="3" d="M884.728-361.239h-49.905c-8.836 0-16-7.163-16-16 0 0 0 0 0 0v-29.49c0-8.836 7.164-16 16-16h49.905c8.837 0 16 7.164 16 16 0 0 0 0 0 0v29.49c0 8.837-7.163 16-16 16Z"/><path fill="#fff" d="M867.177-341.729h-49.905c-8.837 0-16-7.163-16-16v-29.49c0-8.837 7.163-16 16-16h49.905c8.836 0 16 7.163 16 16v29.49c0 8.837-7.164 16-16 16Z"/><path stroke="#000" stroke-linecap="round" stroke-linejoin="round" stroke-width="3" d="M867.177-341.729h-49.905c-8.837 0-16-7.163-16-16 0 0 0 0 0 0v-29.49c0-8.837 7.163-16 16-16h49.905c8.836 0 16 7.163 16 16 0 0 0 0 0 0v29.49c0 8.837-7.164 16-16 16Z"/><path fill="#fff" d="M886.588-336.729v-16.088h-63.003v16.088h63.003Z"/><path fill="#518737" d="m873.489-347.49-4.298-4.297-14.161 14.161v-49.811h-6.06v49.811l-14.161-14.16-4.298 4.297L852-326Z"/><path stroke="#518737" stroke-linecap="round" stroke-linejoin="round" stroke-width="9" d="m873.489-347.49-4.298-4.297-14.161 14.161v-49.811h-6.06v49.811l-14.161-14.16-4.298 4.297L852-326Z"/></g></svg>