<svg xmlns="http://www.w3.org/2000/svg" viewBox="-713.5 -671.5 103 103" width="103" height="103"><g fill="none"><ellipse cx="-662" cy="-620" rx="50" ry="49.262" fill="#fff"/><path d="m-662-570 4.358-.19 4.324-.57 4.259-.944 4.16-1.311 4.03-1.67 3.869-2.014 3.679-2.343 3.46-2.656 3.216-2.947 2.947-3.216 2.656-3.46L-618.7-595l2.014-3.87 1.67-4.029 1.311-4.16.944-4.259.57-4.324.19-4.358-.19-4.358-.57-4.324-.944-4.259-1.311-4.16-1.67-4.03-2.014-3.869-2.343-3.679-2.656-3.46-2.947-3.216-3.216-2.947-3.46-2.656L-637-663.3l-3.87-2.014-4.029-1.67-4.16-1.311-4.259-.944-4.324-.57L-662-670l-4.358.19-4.324.57-4.259.944-4.16 1.311-4.03 1.67-3.869 2.014-3.679 2.343-3.46 2.656-3.216 2.947-2.947 3.216-2.656 3.46L-705.3-645l-2.014 3.87-1.67 4.029-1.311 4.16-.944 4.259-.57 4.324L-712-620l.19 4.358.57 4.324.944 4.259 1.311 4.16 1.67 4.03 2.014 3.869 2.343 3.679 2.656 3.46 2.947 3.216 3.216 2.947 3.46 2.656L-687-576.7l3.87 2.014 4.029 1.67 4.16 1.311 4.259.944 4.324.57 4.358.19" stroke="#000" stroke-linecap="round" stroke-linejoin="round" stroke-width="3"/><path d="M-662.24-648.936c-19.339 0-35.854 12.029-42.546 29.008 6.692 16.98 23.207 29.01 42.546 29.01 19.34 0 35.855-12.03 42.547-29.01-6.692-16.98-23.207-29.008-42.547-29.008Zm0 48.348c-10.675 0-19.339-8.664-19.339-19.34 0-10.675 8.664-19.339 19.34-19.339 10.675 0 19.339 8.664 19.339 19.34 0 10.675-8.664 19.339-19.34 19.339Zm0-30.943a11.588 11.588 0 0 0-11.603 11.603c0 6.421 5.183 11.604 11.603 11.604 6.421 0 11.604-5.183 11.604-11.604 0-6.42-5.183-11.603-11.604-11.603Z" fill="#a7967d"/></g></svg>