<svg xmlns="http://www.w3.org/2000/svg" viewBox="-341.5 -1043.5 103 103" width="103" height="103"><g fill="none"><path d="M-324-1042h68c8.837 0 16 7.163 16 16v68c0 8.837-7.163 16-16 16h-68c-8.837 0-16-7.163-16-16v-68c0-8.837 7.163-16 16-16Z" fill="#fff"/><path d="M-324-1042h68c8.837 0 16 7.163 16 16v68c0 8.837-7.163 16-16 16h-68c-8.837 0-16-7.163-16-16v-68c0-8.837 7.163-16 16-16Z" stroke="#000" stroke-linecap="round" stroke-linejoin="round" stroke-width="3"/><path d="M-284.237-1026c-18.805 0-34.048 12.385-34.048 27.664 0 15.28 15.243 27.665 34.048 27.665 1.807 0 3.58-.115 5.31-.337 7.311 7.315 16.043 8.625 24.482 8.819v-1.79c-4.558-2.232-8.512-6.3-8.512-10.948 0-.65.051-1.286.145-1.91 7.7-5.07 12.624-12.816 12.624-21.499 0-15.279-15.244-27.664-34.049-27.664Z" fill="#518737"/><path d="M-302.464-1007.925c14.104 0 25.537 9.289 25.537 20.748 0 11.46-11.433 20.749-25.537 20.749-1.355 0-2.684-.087-3.982-.253-5.484 5.486-12.032 6.469-18.362 6.614v-1.342c3.419-1.674 6.384-4.726 6.384-8.212 0-.486-.038-.964-.108-1.431-5.775-3.803-9.468-9.613-9.468-16.125 0-11.46 11.432-20.748 25.536-20.748Z" fill="#cf7738"/></g></svg>