<svg xmlns="http://www.w3.org/2000/svg" viewBox="2916.783 1061.473 103 103" width="103" height="103"><g fill="none"><path d="M3002.283 1062.973h-68c-8.837 0-16 7.163-16 16v68c0 8.836 7.163 16 16 16h68c8.836 0 16-7.164 16-16v-68c0-8.837-7.164-16-16-16Z" fill="#fff"/><path d="M3002.283 1062.973h-68c-8.837 0-16 7.163-16 16v68c0 8.836 7.163 16 16 16h68c8.836 0 16-7.164 16-16v-68c0-8.837-7.164-16-16-16Z" stroke="#000" stroke-linecap="round" stroke-linejoin="round" stroke-width="3"/><path d="M2960.224 1107.137v20.146h8.059v-44.322h8.058v44.322h8.059v-44.322h8.058v-8.058h-32.234c-8.904 0-16.116 7.212-16.116 16.117 0 8.904 7.212 16.117 16.116 16.117Zm-8.058 28.204v-12.088l-16.117 16.117 16.117 16.117v-12.088h48.35v-8.058h-48.35Z" fill="#5c76a2"/></g></svg>