<svg xmlns="http://www.w3.org/2000/svg" width="103" height="103" viewBox="-89.5 -1183.5 103 103"><g fill="none"><ellipse cx="-38" cy="-1132" fill="#fff" rx="50" ry="49.262"/><path stroke="#ccc" stroke-linecap="round" stroke-linejoin="round" stroke-width="3" d="m-38-1082 4.358-.19 4.324-.57 4.259-.944 4.16-1.311 4.03-1.67 3.869-2.014 3.679-2.343 3.46-2.656 3.216-2.947 2.947-3.216 2.656-3.46L5.3-1107l2.014-3.87 1.67-4.029 1.311-4.16.944-4.259.57-4.324L12-1132l-.19-4.358-.57-4.324-.944-4.259-1.311-4.16-1.67-4.03L5.301-1157l-2.343-3.679-2.656-3.46-2.947-3.216-3.216-2.947-3.46-2.656L-13-1175.3l-3.87-2.014-4.029-1.67-4.16-1.311-4.259-.944-4.324-.57L-38-1182l-4.358.19-4.324.57-4.259.944-4.16 1.311-4.03 1.67-3.869 2.014-3.679 2.343-3.46 2.656-3.216 2.947-2.947 3.216-2.656 3.46L-81.3-1157l-2.014 3.87-1.67 4.029-1.311 4.16-.944 4.259-.57 4.324L-88-1132l.19 4.358.57 4.324.944 4.259 1.311 4.16 1.67 4.03 2.014 3.869 2.343 3.679 2.656 3.46 2.947 3.216 3.216 2.947 3.46 2.656L-63-1088.7l3.87 2.014 4.029 1.67 4.16 1.311 4.259.944 4.324.57 4.358.19"/><path fill="#ccc" d="M-59.881-1153.971v43.78a3 3 0 0 0 5.095 2.147l22.436-21.89a3 3 0 0 0 0-4.294l-22.436-21.89a3 3 0 0 0-5.095 2.147Z"/><path stroke="#ccc" stroke-linecap="round" stroke-linejoin="round" d="M-59.881-1153.971v43.78a3 3 0 0 0 5.095 2.147l22.436-21.89a3 3 0 0 0 0-4.294l-22.436-21.89a3 3 0 0 0-5.095 2.147Z"/><path stroke="#ccc" stroke-linecap="round" stroke-linejoin="round" stroke-width="16" d="M-17.007-1149.5v35"/></g></svg>