<svg xmlns="http://www.w3.org/2000/svg" viewBox="2052.5 -1806.5 103 103" width="103" height="103"><g fill="none"><path d="M2070-1805h68c8.836 0 16 7.164 16 16v68c0 8.836-7.164 16-16 16h-68c-8.837 0-16-7.164-16-16v-68c0-8.836 7.163-16 16-16Z" fill="#fff"/><path d="M2070-1805h68c8.836 0 16 7.164 16 16v68c0 8.836-7.164 16-16 16h-68c-8.837 0-16-7.164-16-16v-68c0-8.836 7.163-16 16-16Z" stroke="#000" stroke-linecap="round" stroke-linejoin="round" stroke-width="3"/><path d="M2144-1736.16v5.16c0 8.837-7.164 16-16 16h-4.854c-8.836 0-16-7.163-16-16v-5.16c0-8.837 7.164-16 16-16H2128c8.836 0 16 7.163 16 16Z" fill="#d07738"/><path d="M2144-1736.16v5.16c0 8.837-7.164 16-16 16h-4.854c-8.836 0-16-7.163-16-16v-5.16c0-8.837 7.164-16 16-16H2128c8.836 0 16 7.163 16 16Z" stroke="#000" stroke-linecap="round" stroke-linejoin="round" stroke-width="3"/><path d="M2101.204-1736.16v5.16c0 8.837-7.163 16-16 16h-4.853c-8.837 0-16-7.163-16-16v-5.16c0-8.837 7.163-16 16-16h4.853c8.837 0 16 7.163 16 16Z" fill="#9f4c4c"/><path d="M2101.204-1736.16v5.16c0 8.837-7.163 16-16 16h-4.853c-8.837 0-16-7.163-16-16v-5.16c0-8.837 7.163-16 16-16h4.853c8.837 0 16 7.163 16 16Z" stroke="#000" stroke-linecap="round" stroke-linejoin="round" stroke-width="3"/><path d="M2143.65-1779v5.16c0 8.837-7.164 16-16 16h-4.854c-8.837 0-16-7.163-16-16v-5.16c0-8.837 7.163-16 16-16h4.853c8.837 0 16 7.163 16 16Z" fill="#5c76a2"/><path d="M2143.65-1779v5.16c0 8.837-7.164 16-16 16h-4.854c-8.837 0-16-7.163-16-16v-5.16c0-8.837 7.163-16 16-16h4.853c8.837 0 16 7.163 16 16Z" stroke="#000" stroke-linecap="round" stroke-linejoin="round" stroke-width="3"/><path d="M2100.854-1779v5.16c0 8.837-7.164 16-16 16H2080c-8.837 0-16-7.163-16-16v-5.16c0-8.837 7.163-16 16-16h4.854c8.836 0 16 7.163 16 16Z" fill="#518737"/><path d="M2100.854-1779v5.16c0 8.837-7.164 16-16 16H2080c-8.837 0-16-7.163-16-16v-5.16c0-8.837 7.163-16 16-16h4.854c8.836 0 16 7.163 16 16Z" stroke="#000" stroke-linecap="round" stroke-linejoin="round" stroke-width="3"/></g></svg>