<svg xmlns="http://www.w3.org/2000/svg" viewBox="1272.35 1415.29 103 103" width="103" height="103"><g fill="none"><path d="M1289.85 1416.79h68c8.837 0 16 7.164 16 16v68c0 8.837-7.163 16-16 16h-68c-8.836 0-16-7.163-16-16v-68c0-8.836 7.164-16 16-16Z" fill="#fff"/><path d="M1289.85 1416.79h68c8.837 0 16 7.164 16 16v68c0 8.837-7.163 16-16 16h-68c-8.836 0-16-7.163-16-16v-68c0-8.836 7.164-16 16-16Z" stroke="#000" stroke-linecap="round" stroke-linejoin="round" stroke-width="3"/><path d="M1347.993 1435.749h-14.417c-1.448-4.001-5.242-6.898-9.726-6.898-4.483 0-8.277 2.897-9.726 6.898h-14.417c-3.794 0-6.898 3.104-6.898 6.898v55.184c0 3.794 3.104 6.898 6.898 6.898h48.286c3.794 0 6.899-3.104 6.899-6.898v-55.184c0-3.794-3.105-6.898-6.899-6.898Zm-24.143 0a3.46 3.46 0 0 1 3.45 3.449 3.46 3.46 0 0 1-3.45 3.449 3.46 3.46 0 0 1-3.449-3.45 3.46 3.46 0 0 1 3.45-3.448Zm24.143 62.082h-48.286v-55.184h6.898v10.347h34.49v-10.347h6.898v55.184Z" fill="#a7967d"/></g></svg>