<svg xmlns="http://www.w3.org/2000/svg" width="103" height="102.804" viewBox="925.5 -420.304 103 102.804"><g fill="none"><path fill="#fff" d="M959.625-351.334v9.605h34.75v-9.605h-34.75Z"/><path fill="#fff" d="M1011-343.729h-68c-8.837 0-16-7.163-16-16v-43.075c0-8.836 7.163-16 16-16h68c8.837 0 16 7.164 16 16v43.075c0 8.837-7.163 16-16 16Z"/><path stroke="#000" stroke-linecap="round" stroke-linejoin="round" stroke-width="3" d="M1011-343.729h-68c-8.837 0-16-7.163-16-16v-43.075c0-8.836 7.163-16 16-16h68c8.837 0 16 7.164 16 16v43.075c0 8.837-7.163 16-16 16 0 0 0 0 0 0Z"/><path fill="#518737" d="M958.388-409.713c-3.664 0-6.662 2.998-6.662 6.663 0 3.664 2.998 6.662 6.662 6.662 3.664 0 6.663-2.998 6.663-6.662 0-3.665-2.999-6.663-6.663-6.663Zm39.974 0c-3.664 0-6.663 2.998-6.663 6.663 0 3.664 2.999 6.662 6.663 6.662s6.662-2.998 6.662-6.662c0-3.665-2.998-6.663-6.662-6.663Zm-19.987 0c-3.664 0-6.662 2.998-6.662 6.663 0 3.664 2.998 6.662 6.662 6.662 3.664 0 6.662-2.998 6.662-6.662 0-3.665-2.998-6.663-6.662-6.663Z"/><path stroke="#518737" stroke-linecap="round" stroke-linejoin="round" stroke-width="2" d="M958.388-409.713c-3.664 0-6.662 2.998-6.662 6.663 0 3.664 2.998 6.662 6.662 6.662 3.664 0 6.663-2.998 6.663-6.662 0-3.665-2.999-6.663-6.663-6.663Zm39.974 0c-3.664 0-6.663 2.998-6.663 6.663 0 3.664 2.999 6.662 6.663 6.662s6.662-2.998 6.662-6.662c0-3.665-2.998-6.663-6.662-6.663Zm-19.987 0c-3.664 0-6.662 2.998-6.662 6.663 0 3.664 2.998 6.662 6.662 6.662 3.664 0 6.662-2.998 6.662-6.662 0-3.665-2.998-6.663-6.662-6.663Z"/><path fill="#fff" d="M1008.502-339.729v-9.605h-63.004v9.605h63.004Z"/><path fill="#518737" d="m998.489-343.49-4.298-4.297-14.161 14.161v-49.811h-6.06v49.811l-14.161-14.16-4.298 4.297L977-322Z"/><path stroke="#518737" stroke-linecap="round" stroke-linejoin="round" stroke-width="9" d="m998.489-343.49-4.298-4.297-14.161 14.161v-49.811h-6.06v49.811l-14.161-14.16-4.298 4.297L977-322Z"/></g></svg>