<svg xmlns="http://www.w3.org/2000/svg" width="103" height="103" viewBox="842.54 632.091 103 103"><g fill="none"><ellipse cx="894.04" cy="683.591" fill="#fff" rx="50" ry="49.262"/><path stroke="#000" stroke-linecap="round" stroke-linejoin="round" stroke-width="3" d="m894.04 733.59 4.358-.19 4.325-.569 4.258-.944 4.16-1.312 4.03-1.669 3.87-2.014 3.678-2.344 3.46-2.655 3.217-2.947 2.947-3.216 2.655-3.46 2.344-3.68 2.014-3.869 1.669-4.03 1.312-4.16.944-4.258.569-4.325.19-4.357-.19-4.358-.57-4.325-.943-4.258-1.312-4.16-1.67-4.03-2.013-3.87-2.344-3.678-2.656-3.46-2.946-3.217-3.216-2.947-3.46-2.655-3.68-2.344-3.869-2.014-4.03-1.669-4.16-1.312-4.258-.944-4.325-.57-4.358-.19-4.357.19-4.325.57-4.259.944-4.16 1.312-4.03 1.67-3.869 2.013-3.678 2.344-3.461 2.655-3.216 2.947-2.947 3.216-2.655 3.46-2.344 3.68-2.014 3.869-1.67 4.03-1.311 4.16-.944 4.258-.57 4.325-.19 4.358.19 4.357.57 4.325.944 4.259 1.312 4.16 1.669 4.03 2.014 3.869 2.344 3.678 2.655 3.461 2.947 3.216 3.216 2.947 3.46 2.655 3.68 2.344 3.868 2.014 4.03 1.67 4.16 1.31 4.259.945 4.325.57 4.357.19"/><path fill="#5c76a2" d="M874.537 668.02h27.289v7.785h-27.289v11.679l-15.532-15.572 15.532-15.571v11.678Zm54.539 27.25-15.533 15.57v-11.678h-27.288v-7.786h27.288v-11.678l15.533 15.571Z"/><path stroke="#5c76a2" stroke-linecap="round" stroke-linejoin="round" stroke-width="5" d="M874.537 668.02h27.289v7.785h-27.289v11.679l-15.532-15.572 15.532-15.571v11.678Zm54.539 27.25-15.533 15.57v-11.678h-27.288v-7.786h27.288v-11.678l15.533 15.571Z"/></g></svg>