<svg xmlns="http://www.w3.org/2000/svg" viewBox="1272.35 1529.091 103 103" width="103" height="103"><g fill="none"><path d="M1289.85 1530.59h68c8.837 0 16 7.164 16 16v68c0 8.837-7.163 16-16 16h-68c-8.836 0-16-7.163-16-16v-68c0-8.836 7.164-16 16-16Z" fill="#fff"/><path d="M1289.85 1530.59h68c8.837 0 16 7.164 16 16v68c0 8.837-7.163 16-16 16h-68c-8.836 0-16-7.163-16-16v-68c0-8.836 7.164-16 16-16Z" stroke="#000" stroke-linecap="round" stroke-linejoin="round" stroke-width="3"/><path d="M1316.278 1565.32a12.275 12.275 0 0 0 1.134-5.166c0-6.962-5.639-12.601-12.6-12.601-6.963 0-12.602 5.639-12.602 12.6 0 6.963 5.64 12.601 12.601 12.601 1.859 0 3.591-.41 5.166-1.134l7.435 7.435-7.435 7.434a12.275 12.275 0 0 0-5.166-1.134c-6.962 0-12.6 5.639-12.6 12.6 0 6.963 5.638 12.601 12.6 12.601s12.6-5.638 12.6-12.6c0-1.859-.409-3.591-1.133-5.166l7.434-7.435 22.051 22.051h9.45v-3.15l-38.935-38.936Zm-11.467 1.134a6.299 6.299 0 0 1-6.3-6.3c0-3.497 2.835-6.3 6.3-6.3s6.3 2.803 6.3 6.3c0 3.496-2.835 6.3-6.3 6.3Zm0 37.802a6.299 6.299 0 0 1-6.3-6.3c0-3.497 2.835-6.3 6.3-6.3s6.3 2.803 6.3 6.3-2.835 6.3-6.3 6.3Zm18.901-23.626a1.56 1.56 0 0 1-1.575-1.575 1.56 1.56 0 0 1 1.575-1.575 1.56 1.56 0 0 1 1.575 1.575 1.56 1.56 0 0 1-1.575 1.575Zm22.051-29.927-18.9 18.901 6.3 6.3 22.05-22.05v-3.15Z" fill="#a7967d"/></g></svg>