<svg xmlns="http://www.w3.org/2000/svg" viewBox="802.063 1489.823 103 102.804" width="103" height="102.804"><g fill="none"><path d="M887.563 1566.398h-68c-8.837 0-16-7.164-16-16v-43.075c0-8.837 7.163-16 16-16h68c8.836 0 16 7.163 16 16v43.074c0 8.837-7.164 16-16 16Z" fill="#fff"/><path d="M887.563 1566.398h-68c-8.837 0-16-7.164-16-16v-43.075c0-8.837 7.163-16 16-16h68c8.836 0 16 7.163 16 16v43.074c0 8.837-7.164 16-16 16 0 0 0 0 0 0Z" stroke="#000" stroke-linecap="round" stroke-linejoin="round" stroke-width="3"/><path d="M885.064 1569.928v-9.605h-63.003v9.605h63.003Z" fill="#fff"/><path d="m875.052 1566.637-4.298-4.297-14.162 14.16v-49.81h-6.06v49.81l-14.16-14.16-4.299 4.297 21.49 21.49Z" fill="#5c76a2"/><path d="m875.052 1566.637-4.298-4.297-14.162 14.16v-49.81h-6.06v49.81l-14.16-14.16-4.299 4.297 21.49 21.49Z" stroke="#5c76a2" stroke-linecap="round" stroke-linejoin="round" stroke-width="9"/></g></svg>