<svg xmlns="http://www.w3.org/2000/svg" viewBox="1042.5 -1429.5 103 103" width="103" height="103"><g fill="none"><path d="M1128-1428h-68c-8.837 0-16 7.163-16 16v68c0 8.837 7.163 16 16 16h68c8.837 0 16-7.163 16-16v-68c0-8.837-7.163-16-16-16Z" fill="#fff"/><path d="M1128-1428h-68c-8.837 0-16 7.163-16 16v68c0 8.837 7.163 16 16 16h68c8.837 0 16-7.163 16-16v-68c0-8.837-7.163-16-16-16Z" stroke="#000" stroke-linecap="round" stroke-linejoin="round" stroke-width="3"/><circle cx="1078.86" cy="-1376.814" r="25.967" fill="#fff"/><path fill="#5c76a2" d="M1088.48-1411.687H1134v9.955h-45.52zM1088.48-1351.955H1134v9.955h-45.52zM1105.14-1381.821H1134v9.955h-28.86z"/><path d="M1074.05-1400.894c-13.3 0-24.05 10.75-24.05 24.05s10.75 24.05 24.05 24.05 24.05-10.75 24.05-24.05-10.75-24.05-24.05-24.05Zm12.025 32.685-3.39 3.39-8.635-8.634-8.634 8.635-3.39-3.391 8.633-8.635-8.634-8.634 3.391-3.39 8.634 8.633 8.634-8.634 3.391 3.391-8.634 8.634 8.634 8.635Z" fill="#9f4c4c"/></g></svg>