<svg xmlns="http://www.w3.org/2000/svg" viewBox="1362.5 761.647 103 103" width="103" height="103"><g fill="none"><ellipse cx="1414" cy="813.147" rx="50" ry="49.262" fill="#fff"/><path d="m1414 863.147 4.358-.19 4.324-.57 4.259-.943 4.16-1.312 4.03-1.67 3.869-2.014 3.679-2.343 3.46-2.656 3.216-2.946 2.947-3.216 2.656-3.461 2.343-3.679 2.014-3.869 1.67-4.03 1.311-4.16.944-4.258.57-4.325.19-4.358-.19-4.358-.57-4.324-.944-4.259-1.311-4.16-1.67-4.03-2.014-3.869-2.343-3.679-2.656-3.46-2.947-3.216-3.216-2.947-3.46-2.655-3.679-2.344-3.87-2.014-4.029-1.67-4.16-1.311-4.259-.944-4.324-.57-4.358-.19-4.358.19-4.324.57-4.259.944-4.16 1.312-4.03 1.669-3.869 2.014-3.679 2.344-3.46 2.655-3.216 2.947-2.947 3.216-2.656 3.46-2.343 3.68-2.014 3.868-1.67 4.03-1.311 4.16-.944 4.259-.57 4.324-.19 4.358.19 4.358.57 4.325.944 4.258 1.311 4.16 1.67 4.03 2.014 3.87 2.343 3.678 2.656 3.46 2.947 3.217 3.216 2.946 3.46 2.656 3.679 2.343 3.87 2.015 4.029 1.669 4.16 1.312 4.259.944 4.324.569 4.358.19" stroke="#000" stroke-linecap="round" stroke-linejoin="round" stroke-width="3"/><path d="M1414 800.159c-7.176 0-12.988 5.812-12.988 12.988 0 7.176 5.812 12.988 12.988 12.988 7.176 0 12.988-5.812 12.988-12.988 0-7.176-5.812-12.988-12.988-12.988Zm29.029 9.741c-1.494-13.54-12.242-24.288-25.782-25.781v-6.69h-6.494v6.69c-13.54 1.493-24.288 12.241-25.782 25.781h-6.689v6.494h6.69c1.493 13.54 12.24 24.288 25.781 25.782v6.689h6.494v-6.69c13.54-1.493 24.288-12.24 25.782-25.78h6.689V809.9h-6.69ZM1414 835.877c-12.566 0-22.73-10.164-22.73-22.73s10.164-22.73 22.73-22.73 22.73 10.164 22.73 22.73-10.164 22.73-22.73 22.73Z" fill="#a7967d"/></g></svg>