<svg xmlns="http://www.w3.org/2000/svg" width="103" height="103.586" viewBox="1424.5 -924.672 103 103.586"><g fill="none"><path fill="#fff" d="M1510-822.587h-68c-8.837 0-16-7.163-16-16v-43.075c0-8.836 7.163-16 16-16h68c8.837 0 16 7.164 16 16v43.075c0 8.837-7.163 16-16 16Z"/><path stroke="#000" stroke-linecap="round" stroke-linejoin="round" stroke-width="3" d="M1510-822.587h-68c-8.837 0-16-7.163-16-16v-43.075c0-8.836 7.163-16 16-16h68c8.837 0 16 7.164 16 16v43.075c0 8.837-7.163 16-16 16 0 0 0 0 0 0Z"/><path fill="#fff" d="M1506.168-879.274v-20.894h-81v20.894h81Z"/><path fill="#9f4c4c" d="M1462.386-906.003v-18.67L1426.477-892l35.91 32.671v-19.136c25.648 0 43.602 7.468 56.427 23.803-5.13-23.336-20.52-46.673-56.428-51.34Z"/></g></svg>