<svg xmlns="http://www.w3.org/2000/svg" viewBox="323.933 1452.847 106.243 106.243" width="106.243" height="106.243"><g fill="none"><path d="M416.386 1503.51h-7.375v-19.665c0-5.408-4.425-9.832-9.833-9.832h-19.665v-7.375c0-6.784-5.506-12.29-12.29-12.29-6.785 0-12.292 5.505-12.292 12.29v7.375h-19.665c-5.408 0-9.784 4.424-9.784 9.832v18.682h7.326c7.325 0 13.274 5.95 13.274 13.275s-5.949 13.274-13.274 13.274h-7.375v18.682c0 5.408 4.425 9.833 9.833 9.833h18.682v-7.375c0-7.325 5.949-13.274 13.274-13.274 7.326 0 13.274 5.949 13.274 13.274v7.375h18.683c5.408 0 9.832-4.425 9.832-9.833v-19.666h7.375c6.784 0 12.29-5.506 12.29-12.29 0-6.785-5.506-12.291-12.29-12.291Z" fill="#fff"/><path d="M416.386 1503.51h-7.375v-19.665c0-5.408-4.425-9.832-9.833-9.832h-19.665v-7.375c0-6.784-5.506-12.29-12.29-12.29-6.785 0-12.292 5.505-12.292 12.29v7.375h-19.665c-5.408 0-9.784 4.424-9.784 9.832v18.682h7.326c7.325 0 13.274 5.95 13.274 13.275s-5.949 13.274-13.274 13.274h-7.375v18.682c0 5.408 4.425 9.833 9.833 9.833h18.682v-7.375c0-7.325 5.949-13.274 13.274-13.274 7.326 0 13.274 5.949 13.274 13.274v7.375h18.683c5.408 0 9.832-4.425 9.832-9.833v-19.666h7.375c6.784 0 12.29-5.506 12.29-12.29 0-6.785-5.506-12.291-12.29-12.291Z" stroke="#000" stroke-linecap="round" stroke-linejoin="round" stroke-width="3"/><circle cx="373.722" cy="1506.067" r="22.793" fill="#fff"/><path d="M373.722 1483.275c-12.582 0-22.793 10.21-22.793 22.792s10.211 22.793 22.793 22.793c12.581 0 22.792-10.211 22.792-22.793 0-12.581-10.21-22.792-22.792-22.792Zm2.279 34.189h-4.559v-13.676h4.559v13.676Zm0-18.235h-4.559v-4.558h4.559v4.558Z" fill="#5c76a2"/></g></svg>