<svg xmlns="http://www.w3.org/2000/svg" width="102.706" height="103" viewBox="922.5 -806.13 102.706 103"><g fill="none"><path fill="#fff" d="M993.81-804.63H940c-8.837 0-16 7.164-16 16v53.81c0 8.837 7.163 16 16 16h53.81c8.836 0 16-7.163 16-16v-53.81c0-8.836-7.164-16-16-16Z"/><path stroke="#000" stroke-linecap="round" stroke-linejoin="round" stroke-width="3" d="M993.81-804.63H940c-8.837 0-16 7.164-16 16v53.81c0 8.837 7.163 16 16 16h53.81c8.836 0 16-7.163 16-16v-53.81c0-8.836-7.164-16-16-16Z"/><path fill="#fff" d="M1007.706-790.44h-53.81c-8.836 0-16 7.164-16 16v53.81c0 8.837 7.164 16 16 16h53.81c8.837 0 16-7.163 16-16v-53.81c0-8.836-7.163-16-16-16Z"/><path stroke="#000" stroke-linecap="round" stroke-linejoin="round" stroke-width="3" d="M1007.706-790.44h-53.81c-8.836 0-16 7.164-16 16v53.81c0 8.837 7.164 16 16 16h53.81c8.837 0 16-7.163 16-16v-53.81c0-8.836-7.163-16-16-16Z"/><path fill="#9f4c4c" d="M973.449-762.727v-14.443l-27.78 25.275 27.78 25.276v-14.804c19.843 0 33.733 5.777 43.655 18.415-3.969-18.054-15.875-36.108-43.655-39.72Z"/></g></svg>