<svg xmlns="http://www.w3.org/2000/svg" width="103" height="103" viewBox="162.5 -1307.5 103 103"><g fill="none"><ellipse cx="214" cy="-1256" fill="#fff" rx="50" ry="49.262"/><path stroke="#000" stroke-linecap="round" stroke-linejoin="round" stroke-width="3" d="m214-1206 4.358-.19 4.324-.57 4.259-.944 4.16-1.311 4.03-1.67 3.869-2.014 3.679-2.343 3.46-2.656 3.216-2.947 2.947-3.216 2.656-3.46L257.3-1231l2.014-3.87 1.67-4.029 1.311-4.16.944-4.259.57-4.324.19-4.358-.19-4.358-.57-4.324-.944-4.259-1.311-4.16-1.67-4.03-2.014-3.869-2.343-3.679-2.656-3.46-2.947-3.216-3.216-2.947-3.46-2.656L239-1299.3l-3.87-2.014-4.029-1.67-4.16-1.311-4.259-.944-4.324-.57L214-1306l-4.358.19-4.324.57-4.259.944-4.16 1.311-4.03 1.67-3.869 2.014-3.679 2.343-3.46 2.656-3.216 2.947-2.947 3.216-2.656 3.46L170.7-1281l-2.014 3.87-1.67 4.029-1.311 4.16-.944 4.259-.57 4.324L164-1256l.19 4.358.57 4.324.944 4.259 1.311 4.16 1.67 4.03 2.014 3.869 2.343 3.679 2.656 3.46 2.947 3.216 3.216 2.947 3.46 2.656L189-1212.7l3.87 2.014 4.029 1.67 4.16 1.311 4.259.944 4.324.57 4.358.19"/><path fill="#518737" d="M197.283-1279.544v47.088a3 3 0 0 0 4.611 2.53l36.997-23.543a3 3 0 0 0 0-5.062l-36.997-23.544a3 3 0 0 0-4.61 2.531Z"/></g></svg>