<svg xmlns="http://www.w3.org/2000/svg" width="103" height="103" viewBox="1922.5 -421.5 103 103"><g fill="none"><path fill="#fff" d="M1940-420h68c8.836 0 16 7.163 16 16v68c0 8.837-7.164 16-16 16h-68c-8.837 0-16-7.163-16-16v-68c0-8.837 7.163-16 16-16Z"/><path stroke="#000" stroke-linecap="round" stroke-linejoin="round" stroke-width="3" d="M1940-420h68c8.836 0 16 7.163 16 16v68c0 8.837-7.164 16-16 16h-68c-8.837 0-16-7.163-16-16v-68c0-8.837 7.163-16 16-16Z"/><path fill="#5c76a2" d="M1997.95-383.686h-47.9a10.25 10.25 0 0 0-10.264 10.265v20.528h13.685v13.686h41.058v-13.686h13.685v-20.528a10.25 10.25 0 0 0-10.264-10.265Zm-10.264 37.636h-27.372v-17.107h27.372v17.107ZM1997.95-370a3.432 3.432 0 0 1-3.421-3.421 3.432 3.432 0 0 1 3.421-3.422 3.431 3.431 0 0 1 3.421 3.422 3.431 3.431 0 0 1-3.421 3.421Zm-3.421-30.793h-41.058v13.686h41.058v-13.686Z"/></g></svg>