<svg xmlns="http://www.w3.org/2000/svg" viewBox="296.794 -423.5 102.706 103" width="102.706" height="103"><g fill="none"><path d="M368.104-422h-53.81c-8.837 0-16 7.163-16 16v53.81c0 8.836 7.163 16 16 16h53.81c8.836 0 16-7.164 16-16V-406c0-8.837-7.164-16-16-16Z" fill="#fff"/><path d="M368.104-422h-53.81c-8.837 0-16 7.163-16 16v53.81c0 8.836 7.163 16 16 16h53.81c8.836 0 16-7.164 16-16V-406c0-8.837-7.164-16-16-16Z" stroke="#000" stroke-linecap="round" stroke-linejoin="round" stroke-width="3"/><path d="M382-407.81h-53.81c-8.836 0-16 7.164-16 16V-338c0 8.837 7.164 16 16 16H382c8.837 0 16-7.163 16-16v-53.81c0-8.836-7.163-16-16-16Z" fill="#fff"/><path d="M382-407.81h-53.81c-8.836 0-16 7.164-16 16V-338c0 8.837 7.164 16 16 16H382c8.837 0 16-7.163 16-16v-53.81c0-8.836-7.163-16-16-16Z" stroke="#000" stroke-linecap="round" stroke-linejoin="round" stroke-width="3"/><path d="m342.28-388.865-4.298 4.297 14.162 14.162h-49.812v6.06h49.812l-14.162 14.16 4.298 4.299 21.49-21.49Z" fill="#000"/><path d="m342.28-388.865-4.298 4.297 14.162 14.162h-49.812v6.06h49.812l-14.162 14.16 4.298 4.299 21.49-21.49Z" stroke="#5c76a2" stroke-linecap="round" stroke-linejoin="round" stroke-width="9"/></g></svg>