<svg xmlns="http://www.w3.org/2000/svg" viewBox="1399.171 1357.687 103 103" width="103" height="103"><g fill="none"><path d="M1416.67 1359.187h68c8.837 0 16 7.164 16 16v68c0 8.837-7.163 16-16 16h-68c-8.836 0-16-7.163-16-16v-68c0-8.836 7.164-16 16-16Z" fill="#fff"/><path d="M1416.67 1359.187h68c8.837 0 16 7.164 16 16v68c0 8.837-7.163 16-16 16h-68c-8.836 0-16-7.163-16-16v-68c0-8.836 7.164-16 16-16Z" stroke="#000" stroke-linecap="round" stroke-linejoin="round" stroke-width="3"/><path d="m1479.943 1385.811-5.896-5.896-23.376 23.376-23.377-23.376-5.896 5.896 23.376 23.376-23.376 23.377 5.896 5.896 23.377-23.376 23.376 23.376 5.896-5.896-23.376-23.377Z" fill="#9f4c4c"/><path d="m1479.943 1385.811-5.896-5.896-23.376 23.376-23.377-23.376-5.896 5.896 23.376 23.376-23.376 23.377 5.896 5.896 23.377-23.376 23.376 23.376 5.896-5.896-23.376-23.377Z" stroke="#9f4c4c" stroke-linecap="round" stroke-linejoin="round" stroke-width="8"/></g></svg>