<svg xmlns="http://www.w3.org/2000/svg" viewBox="-209.5 -803.5 103 103" width="103" height="103"><g fill="none"><ellipse cx="-158" cy="-752" rx="50" ry="49.262" fill="#fff"/><clipPath id="a"><ellipse cx="50" cy="49.262" rx="50" ry="49.262" fill="#fff"/></clipPath><text clip-path="url(#a)" transform="translate(-193 -810.5)" fill="#65727e">
            <tspan font-family="Avenir Next" font-weight="bold" font-size="86" x="11.522" y="86">?</tspan>
          </text><path d="m-158-702 4.358-.19 4.324-.57 4.259-.944 4.16-1.311 4.03-1.67 3.869-2.014 3.679-2.343 3.46-2.656 3.216-2.947 2.947-3.216 2.656-3.46L-114.7-727l2.014-3.87 1.67-4.029 1.311-4.16.944-4.259.57-4.324.19-4.358-.19-4.358-.57-4.324-.944-4.259-1.311-4.16-1.67-4.03-2.014-3.869-2.343-3.679-2.656-3.46-2.947-3.216-3.216-2.947-3.46-2.656L-133-795.3l-3.87-2.014-4.029-1.67-4.16-1.311-4.259-.944-4.324-.57L-158-802l-4.358.19-4.324.57-4.259.944-4.16 1.311-4.03 1.67-3.869 2.014-3.679 2.343-3.46 2.656-3.216 2.947-2.947 3.216-2.656 3.46L-201.3-777l-2.014 3.87-1.67 4.029-1.311 4.16-.944 4.259-.57 4.324L-208-752l.19 4.358.57 4.324.944 4.259 1.311 4.16 1.67 4.03 2.014 3.869 2.343 3.679 2.656 3.46 2.947 3.216 3.216 2.947 3.46 2.656L-183-708.7l3.87 2.014 4.029 1.67 4.16 1.311 4.259.944 4.324.57 4.358.19" stroke="#000" stroke-linecap="round" stroke-linejoin="round" stroke-width="3"/></g></svg>