<svg xmlns="http://www.w3.org/2000/svg" width="102.706" height="103" viewBox="916.928 -1819.5 102.706 103"><g fill="none"><path fill="#fff" d="M988.238-1818h-53.81c-8.837 0-16 7.163-16 16v53.81c0 8.836 7.163 16 16 16h53.81c8.836 0 16-7.164 16-16V-1802c0-8.837-7.164-16-16-16Z"/><path stroke="#000" stroke-linecap="round" stroke-linejoin="round" stroke-width="3" d="M988.238-1818h-53.81c-8.837 0-16 7.163-16 16v53.81c0 8.836 7.163 16 16 16h53.81c8.836 0 16-7.164 16-16V-1802c0-8.837-7.164-16-16-16Z"/><path fill="#fff" d="M1002.134-1803.81h-53.81c-8.836 0-16 7.164-16 16v53.81c0 8.837 7.164 16 16 16h53.81c8.837 0 16-7.163 16-16v-53.81c0-8.836-7.163-16-16-16Z"/><path stroke="#000" stroke-linecap="round" stroke-linejoin="round" stroke-width="3" d="M1002.134-1803.81h-53.81c-8.836 0-16 7.164-16 16v53.81c0 8.837 7.164 16 16 16h53.81c8.837 0 16-7.163 16-16v-53.81c0-8.836-7.163-16-16-16Z"/><path fill="#a7967d" d="M949.428-1743.347v11.249h11.249l33.175-33.176-11.249-11.248-33.175 33.175Zm53.123-30.626a2.987 2.987 0 0 0 0-4.229l-7.02-7.019a2.987 2.987 0 0 0-4.229 0l-5.489 5.49 11.248 11.248 5.49-5.49Z"/></g></svg>