<svg xmlns="http://www.w3.org/2000/svg" width="102.706" height="103" viewBox="786.5 -1699.5 102.706 103"><g fill="none"><path fill="#fff" d="M857.81-1698H804c-8.837 0-16 7.163-16 16v53.81c0 8.836 7.163 16 16 16h53.81c8.836 0 16-7.164 16-16V-1682c0-8.837-7.164-16-16-16Z"/><path stroke="#ccc" stroke-linecap="round" stroke-linejoin="round" stroke-width="3" d="M857.81-1698H804c-8.837 0-16 7.163-16 16v53.81c0 8.836 7.163 16 16 16h53.81c8.836 0 16-7.164 16-16V-1682c0-8.837-7.164-16-16-16Z"/><path fill="#fff" d="M871.706-1683.81h-53.81c-8.836 0-16 7.164-16 16v53.81c0 8.837 7.164 16 16 16h53.81c8.837 0 16-7.163 16-16v-53.81c0-8.836-7.163-16-16-16Z"/><path stroke="#ccc" stroke-linecap="round" stroke-linejoin="round" stroke-width="3" d="M871.706-1683.81h-53.81c-8.836 0-16 7.164-16 16v53.81c0 8.837 7.164 16 16 16h53.81c8.837 0 16-7.163 16-16v-53.81c0-8.836-7.163-16-16-16Z"/><path fill="#ccc" d="M830.361-1662.642v47.087a3 3 0 0 0 4.61 2.531l36.998-23.544a3 3 0 0 0 0-5.061l-36.997-23.544a3 3 0 0 0-4.611 2.53Z"/></g></svg>