<svg xmlns="http://www.w3.org/2000/svg" width="102.706" height="103" viewBox="-585.5 -803.5 102.706 103"><g fill="none"><path fill="#fff" d="M-554.104-802h53.81c8.837 0 16 7.163 16 16v53.81c0 8.836-7.163 16-16 16h-53.81c-8.836 0-16-7.164-16-16V-786c0-8.837 7.164-16 16-16Z"/><path stroke="#000" stroke-linecap="round" stroke-linejoin="round" stroke-width="3" d="M-554.104-802h53.81c8.837 0 16 7.163 16 16v53.81c0 8.836-7.163 16-16 16h-53.81c-8.836 0-16-7.164-16-16V-786c0-8.837 7.164-16 16-16Z"/><path fill="#fff" d="M-568-787.81h53.81c8.836 0 16 7.164 16 16V-718c0 8.837-7.164 16-16 16H-568c-8.837 0-16-7.163-16-16v-53.81c0-8.836 7.163-16 16-16Z"/><path stroke="#000" stroke-linecap="round" stroke-linejoin="round" stroke-width="3" d="M-568-787.81h53.81c8.836 0 16 7.164 16 16V-718c0 8.837-7.164 16-16 16H-568c-8.837 0-16-7.163-16-16v-53.81c0-8.836 7.163-16 16-16Z"/><path fill="#65727e" d="M-527.682-747.079c4.905 0 8.834-4.935 8.834-11.048s-3.93-11.048-8.834-11.048-8.863 4.935-8.863 11.048 3.959 11.048 8.863 11.048Zm-23.636 0c4.904 0 8.834-4.935 8.834-11.048s-3.93-11.048-8.834-11.048c-4.905 0-8.864 4.935-8.864 11.048s3.96 11.048 8.864 11.048Zm0 7.365c-6.884 0-20.682 4.309-20.682 12.89v9.206h41.364v-9.206c0-8.581-13.798-12.89-20.682-12.89Zm23.636 0c-.857 0-1.832.074-2.866.184 3.428 3.094 5.82 7.255 5.82 12.706v9.206H-507v-9.206c0-8.581-13.798-12.89-20.682-12.89Z"/></g></svg>