<?xml version="1.0" encoding="UTF-8" standalone="no"?>
<!DOCTYPE svg PUBLIC "-//W3C//DTD SVG 1.1//EN" "http://www.w3.org/Graphics/SVG/1.1/DTD/svg11.dtd">
<svg version="1.1" xmlns="http://www.w3.org/2000/svg" xmlns:xl="http://www.w3.org/1999/xlink" xmlns:dc="http://purl.org/dc/elements/1.1/" viewBox="-426 -3280 24 24" width="24" height="24">
  <defs/>
  <g id="Icons_1" stroke-dasharray="none" fill-opacity="1" stroke="none" stroke-opacity="1" fill="none">
    <title>Icons 1</title>
    <g id="Icons_1_Calque_1">
      <title>Calque 1</title>
      <g id="Graphic_2894">
        <path d="M -414 -3259 C -416.4855 -3259 -418.734 -3260.0073 -420.36375 -3261.6363 L -417 -3265 L -426 -3265 L -426 -3256 L -422.48475 -3259.5153 C -420.3135 -3257.344 -417.3135 -3256 -414 -3256 C -408.85575 -3256 -404.46825 -3259.237 -402.762 -3263.7858 L -405.5715 -3264.8395 C -406.851 -3261.4278 -410.142 -3259 -414 -3259 M -405.51525 -3276.484 C -407.6865 -3278.6568 -410.6865 -3280 -414 -3280 C -419.14425 -3280 -423.53175 -3276.763 -425.238 -3272.2143 L -422.4285 -3271.1605 C -421.149 -3274.5723 -417.858 -3277 -414 -3277 C -411.5145 -3277 -409.266 -3275.992 -407.63625 -3274.3638 L -411 -3271 L -402 -3271 L -402 -3280 Z" fill="white"/>
      </g>
    </g>
  </g>
</svg>
