<svg xmlns="http://www.w3.org/2000/svg" width="16" height="16" viewBox="-194 -3180 16 16"><g fill="none"><circle cx="-186" cy="-3172" r="8" fill="#9da9b5"/><path fill="#fff" d="M-186-3176.082a6.438 6.438 0 0 0-5.988 4.082 6.438 6.438 0 0 0 5.988 4.083 6.438 6.438 0 0 0 5.988-4.083 6.438 6.438 0 0 0-5.988-4.082Zm0 6.804a2.723 2.723 0 0 1 0-5.444 2.723 2.723 0 0 1 0 5.444Zm0-4.355a1.63 1.63 0 0 0-1.633 1.633c0 .904.73 1.633 1.633 1.633a1.63 1.63 0 0 0 1.633-1.633 1.63 1.63 0 0 0-1.633-1.633Z"/></g></svg>