<?xml version="1.0" encoding="UTF-8" standalone="no"?>
<!DOCTYPE svg PUBLIC "-//W3C//DTD SVG 1.1//EN" "http://www.w3.org/Graphics/SVG/1.1/DTD/svg11.dtd">
<svg version="1.1" xmlns="http://www.w3.org/2000/svg" xmlns:xl="http://www.w3.org/1999/xlink" xmlns:dc="http://purl.org/dc/elements/1.1/" viewBox="-426 -3232 24 24" width="24" height="24">
  <defs/>
  <g id="Icons_1" stroke-dasharray="none" fill-opacity="1" stroke="none" stroke-opacity="1" fill="none">
    <title>Icons 1</title>
    <g id="Icons_1_Calque_1">
      <title>Calque 1</title>
      <g id="Graphic_2913">
        <path d="M -414 -3211 C -416.4855 -3211 -418.734 -3212.0073 -420.36375 -3213.6363 L -417 -3217 L -426 -3217 L -426 -3208 L -422.48475 -3211.5153 C -420.3135 -3209.344 -417.3135 -3208 -414 -3208 C -408.85575 -3208 -404.46825 -3211.237 -402.762 -3215.7858 L -405.5715 -3216.8395 C -406.851 -3213.4278 -410.142 -3211 -414 -3211 M -405.51525 -3228.484 C -407.6865 -3230.6568 -410.6865 -3232 -414 -3232 C -419.14425 -3232 -423.53175 -3228.763 -425.238 -3224.2143 L -422.4285 -3223.1605 C -421.149 -3226.5723 -417.858 -3229 -414 -3229 C -411.5145 -3229 -409.266 -3227.992 -407.63625 -3226.3638 L -411 -3223 L -402 -3223 L -402 -3232 Z" fill="#4e8135"/>
      </g>
    </g>
  </g>
</svg>
