<svg xmlns="http://www.w3.org/2000/svg" width="40" height="40" viewBox="469 847 40 40"><g fill="none"><path fill="#fff" d="M476.08 848h25.84a6.08 6.08 0 0 1 6.08 6.08v25.84a6.08 6.08 0 0 1-6.08 6.08h-25.84a6.08 6.08 0 0 1-6.08-6.08v-25.84a6.08 6.08 0 0 1 6.08-6.08Z"/><path stroke="#000" stroke-linecap="round" stroke-linejoin="round" stroke-width="2" d="M476.08 848h25.84a6.08 6.08 0 0 1 6.08 6.08v25.84a6.08 6.08 0 0 1-6.08 6.08h-25.84a6.08 6.08 0 0 1-6.08-6.08v-25.84a6.08 6.08 0 0 1 6.08-6.08Z"/><path fill="#000" d="M476.035 864.307h25.931v5.052h-25.931z"/><path fill="#000" d="M486.396 854h4.898v26h-4.898z"/></g></svg>