<svg xmlns="http://www.w3.org/2000/svg" width="16" height="16" viewBox="-72.097 -3180 16 16"><g fill="none"><circle cx="-64.097" cy="-3172" r="8" fill="#9da9b5"/><path fill="#fff" d="M-60.275-3176.777h-7.644a.958.958 0 0 0-.955.956v7.643c0 .526.43.956.955.956h7.644c.525 0 .955-.43.955-.956v-7.644a.958.958 0 0 0-.955-.955Zm-5.733 8.599h-1.91v-1.911h1.91v1.911Zm0-2.866h-1.91v-1.911h1.91v1.91Zm0-2.867h-1.91v-1.91h1.91v1.91Zm2.867 5.733h-1.911v-1.911h1.91v1.911Zm0-2.866h-1.911v-1.911h1.91v1.91Zm0-2.867h-1.911v-1.91h1.91v1.91Zm2.866 5.733h-1.911v-1.911h1.91v1.911Zm0-2.866h-1.911v-1.911h1.91v1.91Zm0-2.867h-1.911v-1.91h1.91v1.91Z"/></g></svg>