<svg xmlns="http://www.w3.org/2000/svg" width="23.999" height="33.941" viewBox="-426 -3334.971 23.999 33.941"><g fill="none"><path fill="#fff" d="M-420.364-3324.364A8.972 8.972 0 0 1-414-3327v4.757l6.364-6.364-6.364-6.364v4.972c-3.07 0-6.142 1.17-8.485 3.514-3.638 3.637-4.451 9.029-2.441 13.452l2.731-1.242a9.002 9.002 0 0 1 1.831-10.089m6.363 18.363a11.957 11.957 0 0 0 8.486-3.514c3.638-3.637 4.451-9.029 2.441-13.452l-2.731 1.242A9.002 9.002 0 0 1-414-3309v-4.757l-6.364 6.364 6.364 6.364Z"/></g></svg>