<svg xmlns="http://www.w3.org/2000/svg" width="16" height="18.667" viewBox="-549.429 -3288 16 18.667"><g fill="none"><path fill="#fff" d="M-538.762-3288h-5.333v1.778h5.333V-3288Zm-3.555 11.556h1.777v-5.334h-1.777v5.334Zm7.137-5.876 1.263-1.262a9.82 9.82 0 0 0-1.254-1.254l-1.262 1.263a7.966 7.966 0 0 0-4.996-1.76 8 8 0 0 0-8 8c0 4.418 3.574 8 8 8a7.995 7.995 0 0 0 6.25-12.987Zm-6.249 11.209a6.218 6.218 0 0 1-6.222-6.222 6.218 6.218 0 0 1 6.222-6.222 6.218 6.218 0 0 1 6.223 6.222 6.218 6.218 0 0 1-6.223 6.222Z"/></g></svg>