<?xml version="1.0" encoding="UTF-8" standalone="no"?>
<!DOCTYPE svg PUBLIC "-//W3C//DTD SVG 1.1//EN" "http://www.w3.org/Graphics/SVG/1.1/DTD/svg11.dtd">
<svg version="1.1" xmlns="http://www.w3.org/2000/svg" xmlns:xl="http://www.w3.org/1999/xlink" xmlns:dc="http://purl.org/dc/elements/1.1/" viewBox="1656.0881 -2438.0013 143.85896 106.00134" width="143.85896" height="106.00134">
  <defs/>
  <g id="Icons_1" stroke-dasharray="none" fill-opacity="1" stroke="none" stroke-opacity="1" fill="none">
    <title>Icons 1</title>
    <g id="Icons_1_Calque_1">
      <title>Calque 1</title>
      <g id="Group_2624">
        <g id="Graphic_1322">
          <path d="M 1766.8595 -2431.6413 C 1764.1338 -2435.5027 1759.5909 -2438.0013 1754.518 -2438.0013 L 1671.2312 -2437.9256 C 1662.9025 -2437.9256 1656.0881 -2431.187 1656.0881 -2422.8583 L 1656.0881 -2347.143 C 1656.0881 -2338.8144 1662.9025 -2332.0757 1671.2312 -2332.0757 L 1754.518 -2332 C 1759.5909 -2332 1764.1338 -2334.4986 1766.8595 -2338.36 L 1799.9471 -2385.0007 L 1766.8595 -2431.6413 Z" fill="#5c76a2"/>
        </g>
        <g id="Graphic_1319">
          <path d="M 1677.4368 -2385.0006 L 1664.4763 -2385.0006 L 1681.757 -2367.72 L 1699.0377 -2385.0006 L 1686.0771 -2385.0006 C 1686.0771 -2399.3004 1697.6984 -2410.9216 1711.9982 -2410.9216 C 1716.3616 -2410.9216 1720.509 -2409.8416 1724.0947 -2407.8975 L 1730.4021 -2414.205 C 1725.0883 -2417.5747 1718.7809 -2419.562 1711.9982 -2419.562 C 1692.903 -2419.562 1677.4368 -2404.0957 1677.4368 -2385.0006 Z M 1737.9192 -2385.0006 C 1737.9192 -2370.7008 1726.298 -2359.0795 1711.9982 -2359.0795 C 1707.6348 -2359.0795 1703.4874 -2360.1596 1699.9017 -2362.1037 L 1693.5942 -2355.7962 C 1698.908 -2352.4265 1705.2155 -2350.4392 1711.9982 -2350.4392 C 1731.0933 -2350.4392 1746.5596 -2365.9054 1746.5596 -2385.0006 L 1759.52 -2385.0006 L 1742.2394 -2402.2813 L 1724.9587 -2385.0006 L 1737.9192 -2385.0006 Z" fill="white"/>
          <path d="M 1677.4368 -2385.0006 L 1664.4763 -2385.0006 L 1681.757 -2367.72 L 1699.0377 -2385.0006 L 1686.0771 -2385.0006 C 1686.0771 -2399.3004 1697.6984 -2410.9216 1711.9982 -2410.9216 C 1716.3616 -2410.9216 1720.509 -2409.8416 1724.0947 -2407.8975 L 1730.4021 -2414.205 C 1725.0883 -2417.5747 1718.7809 -2419.562 1711.9982 -2419.562 C 1692.903 -2419.562 1677.4368 -2404.0957 1677.4368 -2385.0006 Z M 1737.9192 -2385.0006 C 1737.9192 -2370.7008 1726.298 -2359.0795 1711.9982 -2359.0795 C 1707.6348 -2359.0795 1703.4874 -2360.1596 1699.9017 -2362.1037 L 1693.5942 -2355.7962 C 1698.908 -2352.4265 1705.2155 -2350.4392 1711.9982 -2350.4392 C 1731.0933 -2350.4392 1746.5596 -2365.9054 1746.5596 -2385.0006 L 1759.52 -2385.0006 L 1742.2394 -2402.2813 L 1724.9587 -2385.0006 L 1737.9192 -2385.0006 Z" stroke="white" stroke-linecap="round" stroke-linejoin="round" stroke-width="1"/>
        </g>
      </g>
    </g>
  </g>
</svg>
