<svg xmlns="http://www.w3.org/2000/svg" viewBox="-862.09 -3453.122 25 25" width="25" height="25"><g fill="none"><path d="M-853.19-3452.622h7.2c2.4 0 3.6 0 5.04.48 1.2.48 2.4 1.68 2.88 2.88.48 1.44.48 2.64.48 5.04v7.2c0 2.4 0 3.6-.48 5.04-.48 1.2-1.68 2.4-2.88 2.88-1.44.48-2.64.48-5.04.48h-7.2c-2.4 0-3.6 0-5.04-.48-1.2-.48-2.4-1.68-2.88-2.88-.48-1.44-.48-2.64-.48-5.04v-7.2c0-2.4 0-3.6.48-5.04.48-1.2 1.68-2.4 2.88-2.88 1.44-.48 2.64-.48 5.04-.48m0 0" fill="#a7967d"/><path d="M-853.19-3452.622h7.2c2.4 0 3.6 0 5.04.48 1.2.48 2.4 1.68 2.88 2.88.48 1.44.48 2.64.48 5.04v7.2c0 2.4 0 3.6-.48 5.04-.48 1.2-1.68 2.4-2.88 2.88-1.44.48-2.64.48-5.04.48h-7.2c-2.4 0-3.6 0-5.04-.48-1.2-.48-2.4-1.68-2.88-2.88-.48-1.44-.48-2.64-.48-5.04v-7.2c0-2.4 0-3.6.48-5.04.48-1.2 1.68-2.4 2.88-2.88 1.44-.48 2.64-.48 5.04-.48m0 0" stroke="#a7957d" stroke-linecap="round" stroke-linejoin="round" stroke-width=".25"/><path d="M-843.065-3441.037h-1.224v-3.32c0-.914-.734-1.661-1.631-1.661h-3.263v-1.245c0-1.146-.913-2.076-2.038-2.076-1.126 0-2.04.93-2.04 2.076v1.245h-3.262c-.897 0-1.623.747-1.623 1.66v3.155h1.215c1.216 0 2.202 1.005 2.202 2.242s-.986 2.241-2.202 2.241h-1.223v3.155c0 .913.734 1.66 1.631 1.66h3.1v-1.245c0-1.237.986-2.242 2.202-2.242 1.215 0 2.202 1.005 2.202 2.242v1.245h3.099c.897 0 1.631-.747 1.631-1.66v-3.321h1.224c1.125 0 2.039-.93 2.039-2.075 0-1.146-.914-2.076-2.04-2.076Z" fill="#fff"/></g></svg>