<svg xmlns="http://www.w3.org/2000/svg" viewBox="-902.09 -3453.122 25 25" width="25" height="25"><g fill="none"><path d="M-893.19-3452.622h7.2c2.4 0 3.6 0 5.04.48 1.2.48 2.4 1.68 2.88 2.88.48 1.44.48 2.64.48 5.04v7.2c0 2.4 0 3.6-.48 5.04-.48 1.2-1.68 2.4-2.88 2.88-1.44.48-2.64.48-5.04.48h-7.2c-2.4 0-3.6 0-5.04-.48-1.2-.48-2.4-1.68-2.88-2.88-.48-1.44-.48-2.64-.48-5.04v-7.2c0-2.4 0-3.6.48-5.04.48-1.2 1.68-2.4 2.88-2.88 1.44-.48 2.64-.48 5.04-.48m0 0" fill="#518737"/><path d="M-893.19-3452.622h7.2c2.4 0 3.6 0 5.04.48 1.2.48 2.4 1.68 2.88 2.88.48 1.44.48 2.64.48 5.04v7.2c0 2.4 0 3.6-.48 5.04-.48 1.2-1.68 2.4-2.88 2.88-1.44.48-2.64.48-5.04.48h-7.2c-2.4 0-3.6 0-5.04-.48-1.2-.48-2.4-1.68-2.88-2.88-.48-1.44-.48-2.64-.48-5.04v-7.2c0-2.4 0-3.6.48-5.04.48-1.2 1.68-2.4 2.88-2.88 1.44-.48 2.64-.48 5.04-.48m0 0" stroke="#528637" stroke-linecap="round" stroke-linejoin="round" stroke-width=".25"/><path d="M-897.137-3436.354v1.707h5.031v-1.707h-5.031Zm0-10.242v1.707h8.385v-1.707h-8.385Zm8.385 13.656v-1.707h6.708v-1.707h-6.708v-1.707h-1.677v5.121h1.677Zm-5.031-10.242v1.707h-3.354v1.707h3.354v1.707h1.677v-5.121h-1.677Zm11.74 3.414v-1.707h-8.386v1.707h8.385Zm-5.032-3.414h1.677v-1.707h3.355v-1.707h-3.355v-1.707h-1.677v5.12Z" fill="#fff"/></g></svg>