<?xml version="1.0" encoding="UTF-8" standalone="no"?>
<!DOCTYPE svg PUBLIC "-//W3C//DTD SVG 1.1//EN" "http://www.w3.org/Graphics/SVG/1.1/DTD/svg11.dtd">
<svg version="1.1" xmlns="http://www.w3.org/2000/svg" xmlns:xl="http://www.w3.org/1999/xlink" xmlns:dc="http://purl.org/dc/elements/1.1/" viewBox="1908.1234 -2438.0013 143.85896 106.00134" width="143.85896" height="106.00134">
  <defs/>
  <g id="Icons_1" stroke-dasharray="none" fill-opacity="1" stroke="none" stroke-opacity="1" fill="none">
    <title>Icons 1</title>
    <g id="Icons_1_Calque_1">
      <title>Calque 1</title>
      <g id="Group_2628">
        <g id="Graphic_1250">
          <path d="M 2018.8948 -2431.6413 C 2016.169 -2435.5027 2011.6261 -2438.0013 2006.5532 -2438.0013 L 1923.2665 -2437.9256 C 1914.9378 -2437.9256 1908.1234 -2431.187 1908.1234 -2422.8583 L 1908.1234 -2347.143 C 1908.1234 -2338.8144 1914.9378 -2332.0757 1923.2665 -2332.0757 L 2006.5532 -2332 C 2011.6261 -2332 2016.169 -2334.4986 2018.8948 -2338.36 L 2051.9824 -2385.0007 L 2018.8948 -2431.6413 Z" fill="#da5000"/>
        </g>
        <g id="Graphic_1249">
          <path d="M 1939.5773 -2376.0033 L 1955.2256 -2400.2487 L 1955.2256 -2416.491 L 1964.903 -2416.491 L 1964.903 -2400.2487 L 1980.5514 -2376.0033 Z M 1993.6546 -2364.442 L 1969.7417 -2401.4858 L 1969.7417 -2416.491 L 1972.161 -2416.491 C 1973.4917 -2416.491 1974.5804 -2417.503 1974.5804 -2418.7403 C 1974.5804 -2419.9774 1973.4917 -2420.9896 1972.161 -2420.9896 L 1947.9676 -2420.9896 C 1946.637 -2420.9896 1945.5482 -2419.9774 1945.5482 -2418.7403 C 1945.5482 -2417.503 1946.637 -2416.491 1947.9676 -2416.491 L 1950.387 -2416.491 L 1950.387 -2401.4858 L 1926.474 -2364.442 C 1920.9943 -2355.9552 1925.2233 -2349.0116 1935.8708 -2349.0116 L 1984.2578 -2349.0116 C 1994.903 -2349.0116 1999.132 -2355.9552 1993.6546 -2364.442" fill="white"/>
        </g>
      </g>
    </g>
  </g>
</svg>
