<?xml version="1.0" encoding="UTF-8" standalone="no"?>
<!DOCTYPE svg PUBLIC "-//W3C//DTD SVG 1.1//EN" "http://www.w3.org/Graphics/SVG/1.1/DTD/svg11.dtd">
<svg version="1.1" xmlns="http://www.w3.org/2000/svg" xmlns:xl="http://www.w3.org/1999/xlink" xmlns:dc="http://purl.org/dc/elements/1.1/" viewBox="2032.0705 -2438.0013 143.85896 106.00134" width="143.85896" height="106.00134">
  <defs/>
  <g id="Icons_1" stroke-dasharray="none" fill-opacity="1" stroke="none" stroke-opacity="1" fill="none">
    <title>Icons 1</title>
    <g id="Icons_1_Calque_1">
      <title>Calque 1</title>
      <g id="Group_2622">
        <g id="Graphic_1325">
          <path d="M 2142.842 -2431.6413 C 2140.1162 -2435.5027 2135.5732 -2438.0013 2130.5003 -2438.0013 L 2047.2136 -2437.9256 C 2038.885 -2437.9256 2032.0705 -2431.187 2032.0705 -2422.8583 L 2032.0705 -2347.143 C 2032.0705 -2338.8144 2038.885 -2332.0757 2047.2136 -2332.0757 L 2130.5003 -2332 C 2135.5732 -2332 2140.1162 -2334.4986 2142.842 -2338.36 L 2175.9295 -2385.0007 L 2142.842 -2431.6413 Z" fill="#518737"/>
        </g>
        <g id="Graphic_1315">
          <path d="M 2053.4865 -2366.152 L 2053.4865 -2358.6126 L 2076.1048 -2358.6126 L 2076.1048 -2366.152 L 2053.4865 -2366.152 Z M 2053.4865 -2411.3887 L 2053.4865 -2403.8493 L 2091.1837 -2403.8493 L 2091.1837 -2411.3887 L 2053.4865 -2411.3887 Z M 2091.1837 -2351.0732 L 2091.1837 -2358.6126 L 2121.3414 -2358.6126 L 2121.3414 -2366.152 L 2091.1837 -2366.152 L 2091.1837 -2373.6915 L 2083.6442 -2373.6915 L 2083.6442 -2351.0732 L 2091.1837 -2351.0732 Z M 2068.5653 -2396.3098 L 2068.5653 -2388.7704 L 2053.4865 -2388.7704 L 2053.4865 -2381.231 L 2068.5653 -2381.231 L 2068.5653 -2373.6915 L 2076.1048 -2373.6915 L 2076.1048 -2396.3098 L 2068.5653 -2396.3098 Z M 2121.3414 -2381.231 L 2121.3414 -2388.7704 L 2083.6442 -2388.7704 L 2083.6442 -2381.231 L 2121.3414 -2381.231 Z M 2098.723 -2396.3098 L 2106.2625 -2396.3098 L 2106.2625 -2403.8493 L 2121.3414 -2403.8493 L 2121.3414 -2411.3887 L 2106.2625 -2411.3887 L 2106.2625 -2418.928 L 2098.723 -2418.928 L 2098.723 -2396.3098 Z" fill="white"/>
        </g>
      </g>
    </g>
  </g>
</svg>
