<svg xmlns="http://www.w3.org/2000/svg" viewBox="-872.5 -3370.5 33 25" width="33" height="25"><g fill="none"><path d="M-872-3346h16c8 0 16-3 16-12s-8-12-16-12h-16Z" fill="#a7967d"/><path d="M-851.92-3358.678h-1.223V-3362c0-.913-.734-1.66-1.632-1.66h-3.262v-1.246c0-1.145-.913-2.075-2.04-2.075-1.125 0-2.038.93-2.038 2.075v1.246h-3.263c-.897 0-1.623.747-1.623 1.66v3.155h1.216c1.215 0 2.202 1.004 2.202 2.241s-.987 2.242-2.202 2.242h-1.224v3.154c0 .913.734 1.66 1.631 1.66h3.1v-1.245c0-1.237.987-2.241 2.202-2.241 1.215 0 2.202 1.004 2.202 2.241v1.246h3.1c.897 0 1.63-.748 1.63-1.66v-3.322h1.224c1.126 0 2.04-.93 2.04-2.075 0-1.146-.914-2.075-2.04-2.075Z" fill="#fff"/></g></svg>