<svg xmlns="http://www.w3.org/2000/svg" viewBox="-782.09 -3453.122 25 25" width="25" height="25"><g fill="none"><path d="M-773.19-3452.622h7.2c2.4 0 3.6 0 5.04.48 1.2.48 2.4 1.68 2.88 2.88.48 1.44.48 2.64.48 5.04v7.2c0 2.4 0 3.6-.48 5.04-.48 1.2-1.68 2.4-2.88 2.88-1.44.48-2.64.48-5.04.48h-7.2c-2.4 0-3.6 0-5.04-.48-1.2-.48-2.4-1.68-2.88-2.88-.48-1.44-.48-2.64-.48-5.04v-7.2c0-2.4 0-3.6.48-5.04.48-1.2 1.68-2.4 2.88-2.88 1.44-.48 2.64-.48 5.04-.48m0 0" fill="#5c76a2"/><path d="M-773.19-3452.622h7.2c2.4 0 3.6 0 5.04.48 1.2.48 2.4 1.68 2.88 2.88.48 1.44.48 2.64.48 5.04v7.2c0 2.4 0 3.6-.48 5.04-.48 1.2-1.68 2.4-2.88 2.88-1.44.48-2.64.48-5.04.48h-7.2c-2.4 0-3.6 0-5.04-.48-1.2-.48-2.4-1.68-2.88-2.88-.48-1.44-.48-2.64-.48-5.04v-7.2c0-2.4 0-3.6.48-5.04.48-1.2 1.68-2.4 2.88-2.88 1.44-.48 2.64-.48 5.04-.48m0 0" stroke="#5c76a2" stroke-linecap="round" stroke-linejoin="round" stroke-width=".25"/><path d="M-777.278-3440.622h-2.883l3.844 3.913 3.844-3.913h-2.883c0-3.237 2.585-5.869 5.766-5.869.97 0 1.893.245 2.69.685l1.404-1.428a7.524 7.524 0 0 0-4.094-1.213c-4.248 0-7.688 3.502-7.688 7.825Zm13.454 0c0 3.238-2.585 5.869-5.766 5.869-.97 0-1.893-.244-2.691-.685l-1.403 1.428a7.524 7.524 0 0 0 4.094 1.213c4.247 0 7.688-3.501 7.688-7.825h2.883l-3.844-3.912-3.844 3.912h2.883Z" fill="#fff"/><path d="M-777.278-3440.622h-2.883l3.844 3.913 3.844-3.913h-2.883c0-3.237 2.585-5.869 5.766-5.869.97 0 1.893.245 2.69.685l1.404-1.428a7.524 7.524 0 0 0-4.094-1.213c-4.248 0-7.688 3.502-7.688 7.825Zm13.454 0c0 3.238-2.585 5.869-5.766 5.869-.97 0-1.893-.244-2.691-.685l-1.403 1.428a7.524 7.524 0 0 0 4.094 1.213c4.247 0 7.688-3.501 7.688-7.825h2.883l-3.844-3.912-3.844 3.912h2.883Z" stroke="#fff" stroke-linecap="round" stroke-linejoin="round" stroke-width=".222"/></g></svg>