<svg xmlns="http://www.w3.org/2000/svg" viewBox="-912.5 -3370.5 33 25" width="33" height="25"><g fill="none"><path d="M-912-3346h16c8 0 16-3 16-12s-8-12-16-12h-16Z" fill="#518737"/><path d="M-907.236-3353.732v1.707h5.031v-1.707h-5.031Zm0-10.243v1.707h8.385v-1.707h-8.385Zm8.385 13.657v-1.707h6.708v-1.707h-6.708v-1.707h-1.677v5.12h1.677Zm-5.031-10.242v1.706h-3.354v1.707h3.354v1.707h1.677v-5.12h-1.677Zm11.74 3.414v-1.707h-8.386v1.707h8.385Zm-5.032-3.414h1.677v-1.708h3.354v-1.707h-3.354v-1.707h-1.677v5.121Z" fill="#fff"/></g></svg>