<svg xmlns="http://www.w3.org/2000/svg" viewBox="-942.09 -3453.122 25 25" width="25" height="25"><g fill="none"><path d="M-933.19-3452.622h7.2c2.4 0 3.6 0 5.04.48 1.2.48 2.4 1.68 2.88 2.88.48 1.44.48 2.64.48 5.04v7.2c0 2.4 0 3.6-.48 5.04-.48 1.2-1.68 2.4-2.88 2.88-1.44.48-2.64.48-5.04.48h-7.2c-2.4 0-3.6 0-5.04-.48-1.2-.48-2.4-1.68-2.88-2.88-.48-1.44-.48-2.64-.48-5.04v-7.2c0-2.4 0-3.6.48-5.04.48-1.2 1.68-2.4 2.88-2.88 1.44-.48 2.64-.48 5.04-.48m0 0" fill="#d07738"/><path d="M-933.19-3452.622h7.2c2.4 0 3.6 0 5.04.48 1.2.48 2.4 1.68 2.88 2.88.48 1.44.48 2.64.48 5.04v7.2c0 2.4 0 3.6-.48 5.04-.48 1.2-1.68 2.4-2.88 2.88-1.44.48-2.64.48-5.04.48h-7.2c-2.4 0-3.6 0-5.04-.48-1.2-.48-2.4-1.68-2.88-2.88-.48-1.44-.48-2.64-.48-5.04v-7.2c0-2.4 0-3.6.48-5.04.48-1.2 1.68-2.4 2.88-2.88 1.44-.48 2.64-.48 5.04-.48m0 0" stroke="#cf7737" stroke-linecap="round" stroke-linejoin="round" stroke-width=".25"/><path d="M-927.25-3437.98h-9.36v1.76h9.36v-1.76Zm0-7.044h-9.36v1.761h9.36v-1.761Zm-9.36 5.283h14.04v-1.761h-14.04v1.76Zm0 7.044h14.04v-1.761h-14.04v1.76Zm0-15.849v1.761h14.04v-1.761h-14.04Z" fill="#fff"/></g></svg>