<svg xmlns="http://www.w3.org/2000/svg" viewBox="-992.5 -3370.5 33 25" width="33" height="25"><g fill="none"><path d="M-992-3346h16c8 0 16-3 16-12s-8-12-16-12h-16Z" fill="#65727e"/><path d="M-973.285-3366.148h-12.809c-.88 0-1.6.733-1.6 1.63v13.037c0 .896.72 1.63 1.6 1.63h12.809c.88 0 1.601-.734 1.601-1.63v-13.038c0-.896-.72-1.63-1.601-1.63Zm-9.607 14.667h-3.202v-3.26h3.202v3.26Zm0-4.89h-3.202v-3.259h3.202v3.26Zm0-4.888h-3.202v-3.26h3.202v3.26Zm4.804 9.778h-3.202v-3.26h3.202v3.26Zm0-4.89h-3.202v-3.259h3.202v3.26Zm0-4.888h-3.202v-3.26h3.202v3.26Zm4.803 9.778h-3.202v-3.26h3.202v3.26Zm0-4.89h-3.202v-3.259h3.202v3.26Zm0-4.888h-3.202v-3.26h3.202v3.26Z" fill="#fff"/></g></svg>