<?xml version="1.0" encoding="UTF-8" standalone="no"?>
<!DOCTYPE svg PUBLIC "-//W3C//DTD SVG 1.1//EN" "http://www.w3.org/Graphics/SVG/1.1/DTD/svg11.dtd">
<svg version="1.1" xmlns="http://www.w3.org/2000/svg" xmlns:xl="http://www.w3.org/1999/xlink" xmlns:dc="http://purl.org/dc/elements/1.1/" viewBox="1026 -2438.0013 143.85896 106.00134" width="143.85896" height="106.00134">
  <defs/>
  <g id="Icons_1" stroke-dasharray="none" fill-opacity="1" stroke="none" stroke-opacity="1" fill="none">
    <title>Icons 1</title>
    <g id="Icons_1_Calque_1">
      <title>Calque 1</title>
      <g id="Group_2621">
        <g id="Graphic_1326">
          <path d="M 1136.7714 -2431.6413 C 1134.0457 -2435.5027 1129.5027 -2438.0013 1124.4298 -2438.0013 L 1041.143 -2437.9256 C 1032.8144 -2437.9256 1026 -2431.187 1026 -2422.8583 L 1026 -2347.143 C 1026 -2338.8144 1032.8144 -2332.0757 1041.143 -2332.0757 L 1124.4298 -2332 C 1129.5027 -2332 1134.0457 -2334.4986 1136.7714 -2338.36 L 1169.859 -2385.0007 L 1136.7714 -2431.6413 Z" fill="#65727e"/>
        </g>
        <g id="Graphic_1321">
          <path d="M 1110.1346 -2420.9897 L 1052.5522 -2420.9897 C 1048.5934 -2420.9897 1045.3544 -2417.7506 1045.3544 -2413.7918 L 1045.3544 -2356.2094 C 1045.3544 -2352.2506 1048.5934 -2349.0116 1052.5522 -2349.0116 L 1110.1346 -2349.0116 C 1114.0934 -2349.0116 1117.3325 -2352.2506 1117.3325 -2356.2094 L 1117.3325 -2413.7918 C 1117.3325 -2417.7506 1114.0934 -2420.9897 1110.1346 -2420.9897 Z M 1066.9478 -2356.2094 L 1052.5522 -2356.2094 L 1052.5522 -2370.605 L 1066.9478 -2370.605 L 1066.9478 -2356.2094 Z M 1066.9478 -2377.8028 L 1052.5522 -2377.8028 L 1052.5522 -2392.1984 L 1066.9478 -2392.1984 L 1066.9478 -2377.8028 Z M 1066.9478 -2399.3962 L 1052.5522 -2399.3962 L 1052.5522 -2413.7918 L 1066.9478 -2413.7918 L 1066.9478 -2399.3962 Z M 1088.5412 -2356.2094 L 1074.1456 -2356.2094 L 1074.1456 -2370.605 L 1088.5412 -2370.605 L 1088.5412 -2356.2094 Z M 1088.5412 -2377.8028 L 1074.1456 -2377.8028 L 1074.1456 -2392.1984 L 1088.5412 -2392.1984 L 1088.5412 -2377.8028 Z M 1088.5412 -2399.3962 L 1074.1456 -2399.3962 L 1074.1456 -2413.7918 L 1088.5412 -2413.7918 L 1088.5412 -2399.3962 Z M 1110.1346 -2356.2094 L 1095.739 -2356.2094 L 1095.739 -2370.605 L 1110.1346 -2370.605 L 1110.1346 -2356.2094 Z M 1110.1346 -2377.8028 L 1095.739 -2377.8028 L 1095.739 -2392.1984 L 1110.1346 -2392.1984 L 1110.1346 -2377.8028 Z M 1110.1346 -2399.3962 L 1095.739 -2399.3962 L 1095.739 -2413.7918 L 1110.1346 -2413.7918 L 1110.1346 -2399.3962 Z" fill="white"/>
        </g>
      </g>
    </g>
  </g>
</svg>
