<?xml version="1.0" encoding="UTF-8" standalone="no"?>
<!DOCTYPE svg PUBLIC "-//W3C//DTD SVG 1.1//EN" "http://www.w3.org/Graphics/SVG/1.1/DTD/svg11.dtd">
<svg version="1.1" xmlns="http://www.w3.org/2000/svg" xmlns:xl="http://www.w3.org/1999/xlink" xmlns:dc="http://purl.org/dc/elements/1.1/" viewBox="1278.0353 -2438.0013 143.85896 106.00134" width="143.85896" height="106.00134">
  <defs/>
  <g id="Icons_1" stroke-dasharray="none" fill-opacity="1" stroke="none" stroke-opacity="1" fill="none">
    <title>Icons 1</title>
    <g id="Icons_1_Calque_1">
      <title>Calque 1</title>
      <g id="Group_2626">
        <g id="Graphic_1313">
          <path d="M 1388.8067 -2431.6413 C 1386.0809 -2435.5027 1381.538 -2438.0013 1376.465 -2438.0013 L 1293.1783 -2437.9256 C 1284.8496 -2437.9256 1278.0353 -2431.187 1278.0353 -2422.8583 L 1278.0353 -2347.143 C 1278.0353 -2338.8144 1284.8496 -2332.0757 1293.1783 -2332.0757 L 1376.465 -2332 C 1381.538 -2332 1386.0809 -2334.4986 1388.8067 -2338.36 L 1421.8942 -2385.0007 L 1388.8067 -2431.6413 Z" fill="#a7967d"/>
        </g>
        <g id="Graphic_1312">
          <path d="M 1368.307 -2387.9968 L 1362.807 -2387.9968 L 1362.807 -2402.6635 C 1362.807 -2406.6968 1359.507 -2409.9968 1355.4737 -2409.9968 L 1340.807 -2409.9968 L 1340.807 -2415.4968 C 1340.807 -2420.5568 1336.7003 -2424.6635 1331.6403 -2424.6635 C 1326.5803 -2424.6635 1322.4737 -2420.5568 1322.4737 -2415.4968 L 1322.4737 -2409.9968 L 1307.807 -2409.9968 C 1303.7737 -2409.9968 1300.5103 -2406.6968 1300.5103 -2402.6635 L 1300.5103 -2388.7302 L 1305.9737 -2388.7302 C 1311.437 -2388.7302 1315.8737 -2384.2935 1315.8737 -2378.8302 C 1315.8737 -2373.3668 1311.437 -2368.9302 1305.9737 -2368.9302 L 1300.4737 -2368.9302 L 1300.4737 -2354.9968 C 1300.4737 -2350.9635 1303.7737 -2347.6635 1307.807 -2347.6635 L 1321.7403 -2347.6635 L 1321.7403 -2353.1635 C 1321.7403 -2358.6268 1326.177 -2363.0635 1331.6403 -2363.0635 C 1337.1037 -2363.0635 1341.5403 -2358.6268 1341.5403 -2353.1635 L 1341.5403 -2347.6635 L 1355.4737 -2347.6635 C 1359.507 -2347.6635 1362.807 -2350.9635 1362.807 -2354.9968 L 1362.807 -2369.6635 L 1368.307 -2369.6635 C 1373.367 -2369.6635 1377.4737 -2373.7702 1377.4737 -2378.8302 C 1377.4737 -2383.8902 1373.367 -2387.9968 1368.307 -2387.9968 Z" fill="white"/>
        </g>
      </g>
    </g>
  </g>
</svg>
