<?xml version="1.0" encoding="UTF-8" standalone="no"?>
<!DOCTYPE svg PUBLIC "-//W3C//DTD SVG 1.1//EN" "http://www.w3.org/Graphics/SVG/1.1/DTD/svg11.dtd">
<svg version="1.1" xmlns="http://www.w3.org/2000/svg" xmlns:xl="http://www.w3.org/1999/xlink" xmlns:dc="http://purl.org/dc/elements/1.1/" viewBox="1404.0529 -2438.0013 143.85896 106.00134" width="143.85896" height="106.00134">
  <defs/>
  <g id="Icons_1" stroke-dasharray="none" fill-opacity="1" stroke="none" stroke-opacity="1" fill="none">
    <title>Icons 1</title>
    <g id="Icons_1_Calque_1">
      <title>Calque 1</title>
      <g id="Group_2625">
        <g id="Graphic_1328">
          <path d="M 1514.8243 -2431.6413 C 1512.0985 -2435.5027 1507.5556 -2438.0013 1502.4827 -2438.0013 L 1419.196 -2437.9256 C 1410.8673 -2437.9256 1404.0529 -2431.187 1404.0529 -2422.8583 L 1404.0529 -2347.143 C 1404.0529 -2338.8144 1410.8673 -2332.0757 1419.196 -2332.0757 L 1502.4827 -2332 C 1507.5556 -2332 1512.0985 -2334.4986 1514.8243 -2338.36 L 1547.9119 -2385.0007 L 1514.8243 -2431.6413 Z" fill="#d07738"/>
        </g>
        <g id="Graphic_1327">
          <path d="M 1470.024 -2372.5484 L 1427.9465 -2372.5484 L 1427.9465 -2364.7707 L 1470.024 -2364.7707 L 1470.024 -2372.5484 Z M 1470.024 -2403.6596 L 1427.9465 -2403.6596 L 1427.9465 -2395.8818 L 1470.024 -2395.8818 L 1470.024 -2403.6596 Z M 1427.9465 -2380.3262 L 1491.0628 -2380.3262 L 1491.0628 -2388.104 L 1427.9465 -2388.104 L 1427.9465 -2380.3262 Z M 1427.9465 -2349.215 L 1491.0628 -2349.215 L 1491.0628 -2356.993 L 1427.9465 -2356.993 L 1427.9465 -2349.215 Z M 1427.9465 -2419.215 L 1427.9465 -2411.4373 L 1491.0628 -2411.4373 L 1491.0628 -2419.215 L 1427.9465 -2419.215 Z" fill="white"/>
        </g>
      </g>
    </g>
  </g>
</svg>
