<?xml version="1.0" encoding="UTF-8" standalone="no"?>
<!DOCTYPE svg PUBLIC "-//W3C//DTD SVG 1.1//EN" "http://www.w3.org/Graphics/SVG/1.1/DTD/svg11.dtd">
<svg version="1.1" xmlns="http://www.w3.org/2000/svg" xmlns:xl="http://www.w3.org/1999/xlink" xmlns:dc="http://purl.org/dc/elements/1.1/" viewBox="1782.1058 -2438.0013 143.85896 106.00134" width="143.85896" height="106.00134">
  <defs/>
  <g id="Icons_1" stroke-dasharray="none" fill-opacity="1" stroke="none" stroke-opacity="1" fill="none">
    <title>Icons 1</title>
    <g id="Icons_1_Calque_1">
      <title>Calque 1</title>
      <g id="Group_2623">
        <g id="Graphic_1324">
          <path d="M 1892.8772 -2431.6413 C 1890.1514 -2435.5027 1885.6085 -2438.0013 1880.5356 -2438.0013 L 1797.2488 -2437.9256 C 1788.9201 -2437.9256 1782.1058 -2431.187 1782.1058 -2422.8583 L 1782.1058 -2347.143 C 1782.1058 -2338.8144 1788.9201 -2332.0757 1797.2488 -2332.0757 L 1880.5356 -2332 C 1885.6085 -2332 1890.1514 -2334.4986 1892.8772 -2338.36 L 1925.9647 -2385.0007 L 1892.8772 -2431.6413 Z" fill="#9f4c4c"/>
        </g>
        <g id="Graphic_1323">
          <path d="M 1869.5157 -2420.0007 L 1806.5157 -2420.0007 C 1802.6657 -2420.0007 1799.5157 -2416.8507 1799.5157 -2413.0007 L 1799.5157 -2371.0007 C 1799.5157 -2367.1507 1802.6657 -2364.0007 1806.5157 -2364.0007 L 1831.0157 -2364.0007 L 1824.0157 -2353.5007 L 1824.0157 -2350.0007 L 1852.0157 -2350.0007 L 1852.0157 -2353.5007 L 1845.0157 -2364.0007 L 1869.5157 -2364.0007 C 1873.3657 -2364.0007 1876.5157 -2367.1507 1876.5157 -2371.0007 L 1876.5157 -2413.0007 C 1876.5157 -2416.8507 1873.3657 -2420.0007 1869.5157 -2420.0007 Z M 1869.5157 -2378.0007 L 1806.5157 -2378.0007 L 1806.5157 -2413.0007 L 1869.5157 -2413.0007 L 1869.5157 -2378.0007 Z" fill="white"/>
        </g>
      </g>
    </g>
  </g>
</svg>
