<svg xmlns="http://www.w3.org/2000/svg" viewBox="-742.09 -3453.122 25 25" width="25" height="25"><g fill="none"><path d="M-733.19-3452.622h7.2c2.4 0 3.6 0 5.04.48 1.2.48 2.4 1.68 2.88 2.88.48 1.44.48 2.64.48 5.04v7.2c0 2.4 0 3.6-.48 5.04-.48 1.2-1.68 2.4-2.88 2.88-1.44.48-2.64.48-5.04.48h-7.2c-2.4 0-3.6 0-5.04-.48-1.2-.48-2.4-1.68-2.88-2.88-.48-1.44-.48-2.64-.48-5.04v-7.2c0-2.4 0-3.6.48-5.04.48-1.2 1.68-2.4 2.88-2.88 1.44-.48 2.64-.48 5.04-.48m0 0" fill="#9f4c4c"/><path d="M-733.19-3452.622h7.2c2.4 0 3.6 0 5.04.48 1.2.48 2.4 1.68 2.88 2.88.48 1.44.48 2.64.48 5.04v7.2c0 2.4 0 3.6-.48 5.04-.48 1.2-1.68 2.4-2.88 2.88-1.44.48-2.64.48-5.04.48h-7.2c-2.4 0-3.6 0-5.04-.48-1.2-.48-2.4-1.68-2.88-2.88-.48-1.44-.48-2.64-.48-5.04v-7.2c0-2.4 0-3.6.48-5.04.48-1.2 1.68-2.4 2.88-2.88 1.44-.48 2.64-.48 5.04-.48m0 0" stroke="#9f4c4b" stroke-linecap="round" stroke-linejoin="round" stroke-width=".25"/><path d="M-722.583-3448.546h-14.014c-.857 0-1.557.713-1.557 1.585v9.509c0 .872.7 1.585 1.557 1.585h5.45l-1.557 2.377v.793h6.228v-.793l-1.557-2.377h5.45c.856 0 1.557-.713 1.557-1.585v-9.51c0-.871-.701-1.584-1.557-1.584Zm0 9.509h-14.014v-7.924h14.014v7.924Z" fill="#fff"/></g></svg>