<?xml version="1.0" encoding="UTF-8" standalone="no"?>
<!DOCTYPE svg PUBLIC "-//W3C//DTD SVG 1.1//EN" "http://www.w3.org/Graphics/SVG/1.1/DTD/svg11.dtd">
<svg version="1.1" xmlns="http://www.w3.org/2000/svg" xmlns:xl="http://www.w3.org/1999/xlink" xmlns:dc="http://purl.org/dc/elements/1.1/" viewBox="1152.0176 -2438.0013 143.85896 106.00134" width="143.85896" height="106.00134">
  <defs/>
  <g id="Icons_1" stroke-dasharray="none" fill-opacity="1" stroke="none" stroke-opacity="1" fill="none">
    <title>Icons 1</title>
    <g id="Icons_1_Calque_1">
      <title>Calque 1</title>
      <g id="Group_2620">
        <g id="Graphic_1246">
          <path d="M 1262.789 -2431.6413 C 1260.0633 -2435.5027 1255.5204 -2438.0013 1250.4474 -2438.0013 L 1167.1607 -2437.9256 C 1158.832 -2437.9256 1152.0176 -2431.187 1152.0176 -2422.8583 L 1152.0176 -2347.143 C 1152.0176 -2338.8144 1158.832 -2332.0757 1167.1607 -2332.0757 L 1250.4474 -2332 C 1255.5204 -2332 1260.0633 -2334.4986 1262.789 -2338.36 L 1295.8766 -2385.0007 L 1262.789 -2431.6413 Z" fill="#518737"/>
        </g>
        <g id="Graphic_1245">
          <path d="M 1189.8777 -2414.3723 L 1189.8777 -2355.6292 C 1189.8777 -2353.9724 1191.2208 -2352.6292 1192.8777 -2352.6292 C 1193.4482 -2352.6292 1194.007 -2352.792 1194.4883 -2353.0982 L 1240.6436 -2382.4698 C 1242.0414 -2383.3593 1242.4535 -2385.2136 1241.564 -2386.6114 C 1241.3282 -2386.9818 1241.014 -2387.296 1240.6436 -2387.5317 L 1194.4883 -2416.9033 C 1193.0905 -2417.7928 1191.2362 -2417.3807 1190.3467 -2415.983 C 1190.0404 -2415.5016 1189.8777 -2414.9428 1189.8777 -2414.3723 Z" fill="white"/>
        </g>
      </g>
    </g>
  </g>
</svg>
