<svg xmlns="http://www.w3.org/2000/svg" viewBox="-792.5 -3370.5 33 25" width="33" height="25"><g fill="none"><path d="M-792-3346h16c8 0 16-3 16-12s-8-12-16-12h-16Z" fill="#5c76a2"/><path d="M-787.251-3358h-2.883l3.844 3.913 3.844-3.913h-2.883c0-3.238 2.585-5.869 5.766-5.869.97 0 1.893.245 2.69.685l1.403-1.428a7.525 7.525 0 0 0-4.093-1.213c-4.248 0-7.688 3.502-7.688 7.825Zm13.453 0c0 3.238-2.585 5.869-5.765 5.869-.971 0-1.894-.245-2.691-.685l-1.403 1.428a7.525 7.525 0 0 0 4.094 1.213c4.247 0 7.688-3.502 7.688-7.825h2.882l-3.843-3.912-3.844 3.912h2.882Z" fill="#fff"/><path d="M-787.251-3358h-2.883l3.844 3.913 3.844-3.913h-2.883c0-3.238 2.585-5.869 5.766-5.869.97 0 1.893.245 2.69.685l1.403-1.428a7.525 7.525 0 0 0-4.093-1.213c-4.248 0-7.688 3.502-7.688 7.825Zm13.453 0c0 3.238-2.585 5.869-5.765 5.869-.971 0-1.894-.245-2.691-.685l-1.403 1.428a7.525 7.525 0 0 0 4.094 1.213c4.247 0 7.688-3.502 7.688-7.825h2.882l-3.843-3.912-3.844 3.912h2.882Z" stroke="#fff" stroke-linecap="round" stroke-linejoin="round" stroke-width=".222"/></g></svg>