<svg xmlns="http://www.w3.org/2000/svg" viewBox="-982.09 -3453.122 25 25" width="25" height="25"><g fill="none"><path d="M-973.19-3452.622h7.2c2.4 0 3.6 0 5.04.48 1.2.48 2.4 1.68 2.88 2.88.48 1.44.48 2.64.48 5.04v7.2c0 2.4 0 3.6-.48 5.04-.48 1.2-1.68 2.4-2.88 2.88-1.44.48-2.64.48-5.04.48h-7.2c-2.4 0-3.6 0-5.04-.48-1.2-.48-2.4-1.68-2.88-2.88-.48-1.44-.48-2.64-.48-5.04v-7.2c0-2.4 0-3.6.48-5.04.48-1.2 1.68-2.4 2.88-2.88 1.44-.48 2.64-.48 5.04-.48m0 0" fill="#65727e"/><path d="M-973.19-3452.622h7.2c2.4 0 3.6 0 5.04.48 1.2.48 2.4 1.68 2.88 2.88.48 1.44.48 2.64.48 5.04v7.2c0 2.4 0 3.6-.48 5.04-.48 1.2-1.68 2.4-2.88 2.88-1.44.48-2.64.48-5.04.48h-7.2c-2.4 0-3.6 0-5.04-.48-1.2-.48-2.4-1.68-2.88-2.88-.48-1.44-.48-2.64-.48-5.04v-7.2c0-2.4 0-3.6.48-5.04.48-1.2 1.68-2.4 2.88-2.88 1.44-.48 2.64-.48 5.04-.48m0 0" stroke="#65727e" stroke-linecap="round" stroke-linejoin="round" stroke-width=".25"/><path d="M-963.186-3448.77h-12.809c-.88 0-1.6.733-1.6 1.63v13.037c0 .896.72 1.63 1.6 1.63h12.809c.88 0 1.601-.734 1.601-1.63v-13.037c0-.897-.72-1.63-1.601-1.63Zm-9.606 14.667h-3.203v-3.26h3.202v3.26Zm0-4.889h-3.203v-3.26h3.202v3.26Zm0-4.889h-3.203v-3.26h3.202v3.26Zm4.803 9.778h-3.202v-3.26h3.202v3.26Zm0-4.889h-3.202v-3.26h3.202v3.26Zm0-4.889h-3.202v-3.26h3.202v3.26Zm4.803 9.778h-3.202v-3.26h3.202v3.26Zm0-4.889h-3.202v-3.26h3.202v3.26Zm0-4.889h-3.202v-3.26h3.202v3.26Z" fill="#fff"/></g></svg>