<svg xmlns="http://www.w3.org/2000/svg" xmlns:xl="http://www.w3.org/1999/xlink" width="48" height="48" version="1.1" viewBox="-712 -3145.185 48 48"><g id="ICONES" fill="none" fill-opacity="1" stroke="none" stroke-dasharray="none" stroke-opacity="1"><title>ICONES</title><g id="ICONES_Calque_1"><title>Calque 1</title><g id="Group_4264"><g id="Graphic_3982"><path fill="#fff" d="M -709 -3145.1854 L -667 -3145.1854 C -665.34315 -3145.1854 -664 -3143.8423 -664 -3142.1854 L -664 -3100.1854 C -664 -3098.5286 -665.34315 -3097.1854 -667 -3097.1854 L -709 -3097.1854 C -710.65685 -3097.1854 -712 -3098.5286 -712 -3100.1854 L -712 -3142.1854 C -712 -3143.8423 -710.65685 -3145.1854 -709 -3145.1854 Z"/></g><g id="Group_3975"><g id="Graphic_3981"><path fill="#efb54f" fill-opacity=".252" d="M -710.60404 -3122.734 L -707.57504 -3122.734 C -707.2233 -3127.2347 -705.3262 -3131.6373 -701.8837 -3135.0797 C -694.2153 -3142.7482 -681.78225 -3142.7482 -674.1138 -3135.0797 C -670.6713 -3131.6373 -668.7742 -3127.2347 -668.4225 -3122.734 L -665.3935 -3122.734 C -665.7505 -3128.0092 -667.9452 -3133.1835 -671.97765 -3137.216 C -680.8259 -3146.064 -695.17165 -3146.064 -704.0199 -3137.216 C -708.0523 -3133.1835 -710.247 -3128.0092 -710.60404 -3122.734 Z"/><path stroke="#efb64f" stroke-linecap="round" stroke-linejoin="round" stroke-width="0" d="M -710.60404 -3122.734 L -707.57504 -3122.734 C -707.2233 -3127.2347 -705.3262 -3131.6373 -701.8837 -3135.0797 C -694.2153 -3142.7482 -681.78225 -3142.7482 -674.1138 -3135.0797 C -670.6713 -3131.6373 -668.7742 -3127.2347 -668.4225 -3122.734 L -665.3935 -3122.734 C -665.7505 -3128.0092 -667.9452 -3133.1835 -671.97765 -3137.216 C -680.8259 -3146.064 -695.17165 -3146.064 -704.0199 -3137.216 C -708.0523 -3133.1835 -710.247 -3128.0092 -710.60404 -3122.734 Z"/></g><g id="Graphic_3980"><path fill="#d3673a" fill-opacity=".249" d="M -704.9256 -3122.6968 L -701.8903 -3122.6968 C -701.5613 -3125.7568 -700.22406 -3128.729 -697.8784 -3131.0745 C -692.422 -3136.531 -683.5755 -3136.531 -678.1191 -3131.0745 C -675.7735 -3128.729 -674.4362 -3125.7568 -674.1072 -3122.6968 L -671.0719 -3122.6968 C -671.4102 -3126.5324 -673.0472 -3130.275 -675.9829 -3133.2106 C -682.6191 -3139.8468 -693.3784 -3139.8468 -700.0146 -3133.2106 C -702.9503 -3130.275 -704.5873 -3126.5324 -704.9256 -3122.6968 Z"/><path stroke="#d2673a" stroke-linecap="round" stroke-linejoin="round" stroke-width="0" d="M -704.9256 -3122.6968 L -701.8903 -3122.6968 C -701.5613 -3125.7568 -700.22406 -3128.729 -697.8784 -3131.0745 C -692.422 -3136.531 -683.5755 -3136.531 -678.1191 -3131.0745 C -675.7735 -3128.729 -674.4362 -3125.7568 -674.1072 -3122.6968 L -671.0719 -3122.6968 C -671.4102 -3126.5324 -673.0472 -3130.275 -675.9829 -3133.2106 C -682.6191 -3139.8468 -693.3784 -3139.8468 -700.0146 -3133.2106 C -702.9503 -3130.275 -704.5873 -3126.5324 -704.9256 -3122.6968 Z"/></g><g id="Graphic_3979"><path fill="#3570a0" fill-opacity=".25" d="M -699.223 -3122.734 L -696.1634 -3122.734 C -695.8655 -3124.322 -695.1021 -3125.8403 -693.8732 -3127.0692 C -690.6288 -3130.3136 -685.3687 -3130.3136 -682.12435 -3127.0692 C -680.89544 -3125.8403 -680.132 -3124.322 -679.8341 -3122.734 L -676.7745 -3122.734 C -677.0973 -3125.101 -678.1686 -3127.3857 -679.9882 -3129.2053 C -684.4123 -3133.6295 -691.5852 -3133.6295 -696.0093 -3129.2053 C -697.82896 -3127.3857 -698.9002 -3125.101 -699.223 -3122.734 Z"/><path stroke="#3770a0" stroke-linecap="round" stroke-linejoin="round" stroke-width="0" d="M -699.223 -3122.734 L -696.1634 -3122.734 C -695.8655 -3124.322 -695.1021 -3125.8403 -693.8732 -3127.0692 C -690.6288 -3130.3136 -685.3687 -3130.3136 -682.12435 -3127.0692 C -680.89544 -3125.8403 -680.132 -3124.322 -679.8341 -3122.734 L -676.7745 -3122.734 C -677.0973 -3125.101 -678.1686 -3127.3857 -679.9882 -3129.2053 C -684.4123 -3133.6295 -691.5852 -3133.6295 -696.0093 -3129.2053 C -697.82896 -3127.3857 -698.9002 -3125.101 -699.223 -3122.734 Z"/></g><g id="Graphic_3978"><path fill="#d3673a" d="M -704.94556 -3122.734 L -701.9097 -3122.734 C -701.5758 -3125.7844 -700.2395 -3128.746 -697.90076 -3131.0848 C -695.1525 -3133.833 -691.5442 -3135.197 -687.9422 -3135.177 C -686.0555 -3135.1663 -684.1705 -3134.776 -682.4117 -3134.0057 L -681.23095 -3136.7874 C -683.3678 -3137.718 -685.657 -3138.188 -687.9478 -3138.198 C -692.32104 -3138.2167 -696.7002 -3136.5577 -700.0369 -3133.221 C -702.96576 -3130.292 -704.602 -3126.56 -704.94556 -3122.734 Z"/><path stroke="#d2673a" stroke-linecap="round" stroke-linejoin="round" stroke-width="0" d="M -704.94556 -3122.734 L -701.9097 -3122.734 C -701.5758 -3125.7844 -700.2395 -3128.746 -697.90076 -3131.0848 C -695.1525 -3133.833 -691.5442 -3135.197 -687.9422 -3135.177 C -686.0555 -3135.1663 -684.1705 -3134.776 -682.4117 -3134.0057 L -681.23095 -3136.7874 C -683.3678 -3137.718 -685.657 -3138.188 -687.9478 -3138.198 C -692.32104 -3138.2167 -696.7002 -3136.5577 -700.0369 -3133.221 C -702.96576 -3130.292 -704.602 -3126.56 -704.94556 -3122.734 Z"/></g><g id="Graphic_3977"><path fill="#3570a0" d="M -699.1785 -3122.6968 L -696.1229 -3122.6968 C -695.83565 -3124.3136 -695.0674 -3125.8616 -693.8182 -3127.111 C -692.31135 -3128.6177 -690.3696 -3129.4247 -688.397 -3129.5318 L -688.397 -3132.556 C -691.1434 -3132.4468 -693.8576 -3131.3438 -695.9544 -3129.247 C -697.7942 -3127.407 -698.8689 -3125.092 -699.1785 -3122.6968 Z"/><path stroke="#3770a0" stroke-linecap="round" stroke-linejoin="round" stroke-width="0" d="M -699.1785 -3122.6968 L -696.1229 -3122.6968 C -695.83565 -3124.3136 -695.0674 -3125.8616 -693.8182 -3127.111 C -692.31135 -3128.6177 -690.3696 -3129.4247 -688.397 -3129.5318 L -688.397 -3132.556 C -691.1434 -3132.4468 -693.8576 -3131.3438 -695.9544 -3129.247 C -697.7942 -3127.407 -698.8689 -3125.092 -699.1785 -3122.6968 Z"/></g><g id="Graphic_3976"><path fill="#efb54f" d="M -710.6065 -3122.6968 L -707.5779 -3122.6968 C -707.2337 -3127.2104 -705.3357 -3131.628 -701.8837 -3135.0797 C -694.2153 -3142.7482 -681.78225 -3142.7482 -674.1138 -3135.0797 C -673.2498 -3134.2158 -672.4832 -3133.2913 -671.8139 -3132.32 L -669.18996 -3133.835 C -669.9934 -3135.0277 -670.9226 -3136.161 -671.97765 -3137.216 C -680.8259 -3146.064 -695.17165 -3146.064 -704.0199 -3137.216 C -708.0618 -3133.174 -710.2573 -3127.985 -710.6065 -3122.6968 Z"/><path stroke="#efb64f" stroke-linecap="round" stroke-linejoin="round" stroke-width="0" d="M -710.6065 -3122.6968 L -707.5779 -3122.6968 C -707.2337 -3127.2104 -705.3357 -3131.628 -701.8837 -3135.0797 C -694.2153 -3142.7482 -681.78225 -3142.7482 -674.1138 -3135.0797 C -673.2498 -3134.2158 -672.4832 -3133.2913 -671.8139 -3132.32 L -669.18996 -3133.835 C -669.9934 -3135.0277 -670.9226 -3136.161 -671.97765 -3137.216 C -680.8259 -3146.064 -695.17165 -3146.064 -704.0199 -3137.216 C -708.0618 -3133.174 -710.2573 -3127.985 -710.6065 -3122.6968 Z"/></g></g><g id="Group_4124"><title/><g id="Graphic_4111"><path fill="#3770a1" d="M -691.3525 -3114.5344 L -692.6305 -3114.5344 C -692.6395 -3114.3544 -692.6575 -3114.1744 -692.7295 -3114.0394 C -692.8015 -3113.8864 -692.9275 -3113.7874 -693.1615 -3113.7874 C -693.3955 -3113.7874 -693.5215 -3113.8954 -693.5935 -3114.0394 C -693.7465 -3114.3364 -693.7645 -3115.1374 -693.7645 -3115.9114 C -693.7645 -3116.6854 -693.7465 -3117.4864 -693.5935 -3117.7834 C -693.5215 -3117.9274 -693.3955 -3118.0354 -693.1615 -3118.0354 C -692.9275 -3118.0354 -692.8015 -3117.9454 -692.7295 -3117.7924 C -692.6575 -3117.6574 -692.6395 -3117.4774 -692.6305 -3117.2974 L -691.3525 -3117.2974 C -691.3795 -3117.9094 -691.5955 -3118.4134 -691.9285 -3118.7284 C -692.2525 -3119.0344 -692.6305 -3119.1874 -693.1615 -3119.1874 C -693.8545 -3119.1874 -694.2775 -3118.8994 -694.5655 -3118.5394 C -695.0155 -3117.9904 -695.0425 -3117.1444 -695.0425 -3115.9114 C -695.0425 -3114.6784 -695.0155 -3113.8324 -694.5655 -3113.2834 C -694.2775 -3112.9234 -693.8545 -3112.6354 -693.1615 -3112.6354 C -692.6305 -3112.6354 -692.2525 -3112.7884 -691.9285 -3113.0944 C -691.5955 -3113.4094 -691.3795 -3113.9224 -691.3525 -3114.5344 Z"/></g><g id="Graphic_4112"><path fill="#3770a1" d="M -687.5815 -3115.1284 C -687.5815 -3115.7764 -687.6085 -3116.5864 -687.9145 -3117.0454 C -688.2295 -3117.5134 -688.6795 -3117.6214 -689.1925 -3117.6214 C -689.7055 -3117.6214 -690.1555 -3117.5134 -690.4705 -3117.0454 C -690.7765 -3116.5864 -690.8035 -3115.7764 -690.8035 -3115.1284 C -690.8035 -3114.4804 -690.7765 -3113.6704 -690.4705 -3113.2114 C -690.1555 -3112.7434 -689.7055 -3112.6354 -689.1925 -3112.6354 C -688.6795 -3112.6354 -688.2295 -3112.7434 -687.9145 -3113.2114 C -687.6085 -3113.6704 -687.5815 -3114.4804 -687.5815 -3115.1284 Z M -688.7875 -3115.1284 C -688.7875 -3114.5794 -688.7875 -3114.1024 -688.8775 -3113.9044 C -688.9405 -3113.7694 -689.0755 -3113.7154 -689.1925 -3113.7154 C -689.3095 -3113.7154 -689.4445 -3113.7694 -689.5075 -3113.9044 C -689.5975 -3114.1024 -689.5975 -3114.5794 -689.5975 -3115.1284 C -689.5975 -3115.6774 -689.5975 -3116.1544 -689.5075 -3116.3524 C -689.4445 -3116.4874 -689.3095 -3116.5414 -689.1925 -3116.5414 C -689.0755 -3116.5414 -688.9405 -3116.4874 -688.8775 -3116.3524 C -688.7875 -3116.1544 -688.7875 -3115.6774 -688.7875 -3115.1284 Z"/></g><g id="Graphic_4113"><path fill="#3770a1" d="M -684.4945 -3116.4334 L -684.4945 -3117.6214 C -684.7555 -3117.6214 -684.9985 -3117.5584 -685.2055 -3117.4594 C -685.4215 -3117.3514 -685.6015 -3117.1984 -685.7365 -3117.0274 L -685.7365 -3117.5494 L -686.8885 -3117.5494 L -686.8885 -3112.7074 L -685.6825 -3112.7074 L -685.6825 -3115.6594 C -685.6825 -3116.1454 -685.3405 -3116.4334 -684.9355 -3116.4334 Z"/></g><g id="Graphic_4114"><path fill="#3770a1" d="M -680.9215 -3114.7414 C -680.9215 -3115.8574 -680.9665 -3116.7484 -681.4075 -3117.2074 C -681.7495 -3117.5584 -682.1095 -3117.6214 -682.5325 -3117.6214 C -682.9375 -3117.6214 -683.3245 -3117.5584 -683.6665 -3117.2074 C -684.1075 -3116.7484 -684.1435 -3115.8574 -684.1435 -3115.1284 C -684.1435 -3114.3994 -684.1075 -3113.5084 -683.6665 -3113.0584 C -683.3245 -3112.7074 -682.9915 -3112.6354 -682.5325 -3112.6354 C -682.0285 -3112.6354 -681.6595 -3112.7524 -681.3895 -3113.0494 C -681.0745 -3113.3914 -680.9665 -3113.7964 -680.9485 -3114.2014 L -682.1545 -3114.2014 C -682.1545 -3114.1204 -682.1725 -3113.9764 -682.2175 -3113.8954 C -682.2805 -3113.7784 -682.3795 -3113.7154 -682.5325 -3113.7154 C -682.6855 -3113.7154 -682.7935 -3113.7964 -682.8475 -3113.9044 C -682.9195 -3114.0394 -682.9375 -3114.4174 -682.9375 -3114.7414 Z M -682.1275 -3115.6144 L -682.9375 -3115.6144 C -682.9375 -3116.0284 -682.9015 -3116.2624 -682.8475 -3116.3614 C -682.7845 -3116.4784 -682.6945 -3116.5414 -682.5325 -3116.5414 C -682.3705 -3116.5414 -682.2805 -3116.4784 -682.2175 -3116.3614 C -682.1635 -3116.2624 -682.1275 -3116.0284 -682.1275 -3115.6144 Z"/></g><g id="Graphic_4115"><path fill="#00882b" d="M -698.9125 -3101.4464 L -698.9125 -3102.5984 L -700.5865 -3102.5984 L -700.5865 -3107.8544 L -701.8645 -3107.8544 L -701.8645 -3101.4464 Z"/></g><g id="Graphic_4116"><path fill="#00882b" d="M -697.0765 -3101.4464 L -697.0765 -3106.0994 L -698.2825 -3106.0994 L -698.2825 -3101.4464 Z M -697.0405 -3106.6304 L -697.0405 -3107.9084 L -698.3185 -3107.9084 L -698.3185 -3106.6304 Z"/></g><g id="Graphic_4117"><path fill="#00882b" d="M -695.0965 -3101.4464 L -695.0965 -3101.7974 C -695.0425 -3101.7074 -694.8535 -3101.5544 -694.7455 -3101.4914 C -694.6105 -3101.4194 -694.4395 -3101.3744 -694.2865 -3101.3744 C -693.8905 -3101.3744 -693.6205 -3101.4734 -693.3865 -3101.7704 C -693.0535 -3102.1844 -693.0535 -3102.9044 -693.0535 -3103.8674 C -693.0535 -3104.8304 -693.0535 -3105.5504 -693.3865 -3105.9644 C -693.6205 -3106.2614 -693.8905 -3106.3604 -694.2865 -3106.3604 C -694.4395 -3106.3604 -694.6105 -3106.3154 -694.7455 -3106.2434 C -694.8535 -3106.1804 -694.9525 -3106.0994 -695.0425 -3106.0004 L -695.0425 -3107.8544 L -696.2485 -3107.8544 L -696.2485 -3101.4464 Z M -695.0425 -3104.8394 C -695.0425 -3104.9924 -695.0065 -3105.1004 -694.9345 -3105.1724 C -694.8715 -3105.2444 -694.7815 -3105.2804 -694.6735 -3105.2804 C -694.5475 -3105.2804 -694.4395 -3105.2264 -694.3675 -3105.1094 C -694.2865 -3104.9834 -694.2595 -3104.6954 -694.2595 -3103.8674 C -694.2595 -3103.0394 -694.2865 -3102.7514 -694.3675 -3102.6254 C -694.4395 -3102.5084 -694.5475 -3102.4544 -694.6735 -3102.4544 C -694.7815 -3102.4544 -694.8715 -3102.4904 -694.9345 -3102.5624 C -695.0065 -3102.6344 -695.0425 -3102.7424 -695.0425 -3102.8954 Z"/></g><g id="Graphic_4118"><path fill="#00882b" d="M -689.9665 -3105.1724 L -689.9665 -3106.3604 C -690.2275 -3106.3604 -690.4705 -3106.2974 -690.6775 -3106.1984 C -690.8935 -3106.0904 -691.0735 -3105.9374 -691.2085 -3105.7664 L -691.2085 -3106.2884 L -692.3605 -3106.2884 L -692.3605 -3101.4464 L -691.1545 -3101.4464 L -691.1545 -3104.3984 C -691.1545 -3104.8844 -690.8125 -3105.1724 -690.4075 -3105.1724 Z"/></g><g id="Graphic_4119"><path fill="#00882b" d="M -686.4655 -3101.4464 L -686.4655 -3104.7584 C -686.4655 -3105.3074 -686.6545 -3105.6944 -686.9245 -3105.9644 C -687.2125 -3106.2524 -687.6265 -3106.3604 -688.0405 -3106.3604 C -688.4635 -3106.3604 -688.9225 -3106.1714 -689.1655 -3105.9284 C -689.4805 -3105.6044 -689.6065 -3105.2444 -689.6065 -3104.8484 L -688.4005 -3104.8484 C -688.4005 -3104.9834 -688.3645 -3105.0914 -688.2925 -3105.1814 C -688.2295 -3105.2534 -688.1575 -3105.2984 -688.0315 -3105.2984 C -687.8065 -3105.2984 -687.6715 -3105.1454 -687.6715 -3104.8754 L -687.6715 -3104.3174 L -688.0405 -3104.3174 C -688.6705 -3104.3174 -688.9855 -3104.1824 -689.2285 -3103.9754 C -689.5345 -3103.7144 -689.6965 -3103.3364 -689.6965 -3102.8954 C -689.6965 -3102.4364 -689.6245 -3102.0764 -689.4175 -3101.8244 C -689.1565 -3101.5004 -688.8865 -3101.3744 -688.4365 -3101.3744 C -688.1935 -3101.3744 -688.0495 -3101.4284 -687.9055 -3101.5274 C -687.7795 -3101.6084 -687.6895 -3101.7254 -687.5905 -3101.8424 L -687.5905 -3101.4464 Z M -687.6715 -3102.9494 C -687.6715 -3102.6074 -687.8605 -3102.4274 -688.0765 -3102.4274 C -688.3285 -3102.4274 -688.4905 -3102.5984 -688.4905 -3102.9494 C -688.4905 -3103.0754 -688.4365 -3103.2734 -688.3375 -3103.3634 C -688.2115 -3103.4804 -688.0765 -3103.4804 -687.8785 -3103.4804 L -687.6715 -3103.4804 Z"/></g><g id="Graphic_4120"><path fill="#00882b" d="M -683.2615 -3105.1724 L -683.2615 -3106.3604 C -683.5225 -3106.3604 -683.7655 -3106.2974 -683.9725 -3106.1984 C -684.1885 -3106.0904 -684.3685 -3105.9374 -684.5035 -3105.7664 L -684.5035 -3106.2884 L -685.6555 -3106.2884 L -685.6555 -3101.4464 L -684.4495 -3101.4464 L -684.4495 -3104.3984 C -684.4495 -3104.8844 -684.1075 -3105.1724 -683.7025 -3105.1724 Z"/></g><g id="Graphic_4121"><path fill="#00882b" d="M -681.4795 -3101.4464 L -681.4795 -3106.0994 L -682.6855 -3106.0994 L -682.6855 -3101.4464 Z M -681.4435 -3106.6304 L -681.4435 -3107.9084 L -682.7215 -3107.9084 L -682.7215 -3106.6304 Z"/></g><g id="Graphic_4122"><path fill="#00882b" d="M -677.5645 -3103.4804 C -677.5645 -3104.5964 -677.6095 -3105.4874 -678.0505 -3105.9464 C -678.3925 -3106.2974 -678.7525 -3106.3604 -679.1755 -3106.3604 C -679.5805 -3106.3604 -679.9675 -3106.2974 -680.3095 -3105.9464 C -680.7505 -3105.4874 -680.7865 -3104.5964 -680.7865 -3103.8674 C -680.7865 -3103.1384 -680.7505 -3102.2474 -680.3095 -3101.7974 C -679.9675 -3101.4464 -679.6345 -3101.3744 -679.1755 -3101.3744 C -678.6715 -3101.3744 -678.3025 -3101.4914 -678.0325 -3101.7884 C -677.7175 -3102.1304 -677.6095 -3102.5354 -677.5915 -3102.9404 L -678.7975 -3102.9404 C -678.7975 -3102.8594 -678.8155 -3102.7154 -678.8605 -3102.6344 C -678.9235 -3102.5174 -679.0225 -3102.4544 -679.1755 -3102.4544 C -679.3285 -3102.4544 -679.4365 -3102.5354 -679.4905 -3102.6434 C -679.5625 -3102.7784 -679.5805 -3103.1564 -679.5805 -3103.4804 Z M -678.7705 -3104.3534 L -679.5805 -3104.3534 C -679.5805 -3104.7674 -679.5445 -3105.0014 -679.4905 -3105.1004 C -679.4275 -3105.2174 -679.3375 -3105.2804 -679.1755 -3105.2804 C -679.0135 -3105.2804 -678.9235 -3105.2174 -678.8605 -3105.1004 C -678.8065 -3105.0014 -678.7705 -3104.7674 -678.7705 -3104.3534 Z"/></g><g id="Graphic_4123"><path fill="#00882b" d="M -673.8745 -3102.9314 C -673.8745 -3103.2914 -673.9645 -3103.5524 -674.0905 -3103.7234 C -674.2525 -3103.9484 -674.4775 -3104.1014 -674.8195 -3104.2364 L -675.4855 -3104.4884 C -675.6295 -3104.5424 -675.7375 -3104.6144 -675.7915 -3104.7044 C -675.8365 -3104.7674 -675.8545 -3104.8304 -675.8545 -3104.9204 C -675.8545 -3105.0374 -675.8275 -3105.1274 -675.7555 -3105.1904 C -675.6925 -3105.2534 -675.5935 -3105.2984 -675.4765 -3105.2984 C -675.3775 -3105.2984 -675.2785 -3105.2534 -675.2065 -3105.1814 C -675.1435 -3105.1094 -675.1075 -3105.0014 -675.1075 -3104.8754 L -673.9285 -3104.8754 C -673.9285 -3105.3704 -674.1175 -3105.7124 -674.3785 -3105.9644 C -674.6485 -3106.2164 -675.0535 -3106.3604 -675.4765 -3106.3604 C -675.9085 -3106.3604 -676.3315 -3106.2164 -676.6195 -3105.9194 C -676.8895 -3105.6404 -677.0605 -3105.3254 -677.0605 -3104.8034 C -677.0605 -3104.5244 -677.0065 -3104.3084 -676.8985 -3104.1284 C -676.7455 -3103.8854 -676.4935 -3103.7054 -676.1515 -3103.5704 L -675.4765 -3103.3094 C -675.3415 -3103.2554 -675.2335 -3103.1924 -675.1615 -3103.1024 C -675.0985 -3103.0124 -675.0805 -3102.9314 -675.0805 -3102.8324 C -675.0805 -3102.7334 -675.1165 -3102.6164 -675.1795 -3102.5624 C -675.2695 -3102.4814 -675.3415 -3102.4634 -675.4675 -3102.4634 C -675.5755 -3102.4634 -675.6925 -3102.5084 -675.7645 -3102.5894 C -675.8365 -3102.6614 -675.8815 -3102.7694 -675.8905 -3102.9044 L -677.0785 -3102.9044 C -677.0695 -3102.4184 -676.8985 -3102.0944 -676.6195 -3101.7974 C -676.3495 -3101.5184 -675.8995 -3101.3744 -675.4675 -3101.3744 C -675.0355 -3101.3744 -674.6485 -3101.4644 -674.3335 -3101.7794 C -674.0815 -3102.0404 -673.8745 -3102.4004 -673.8745 -3102.9314 Z"/></g></g></g></g></g></svg>