<?xml version="1.0" encoding="UTF-8" standalone="no"?>
<!DOCTYPE svg PUBLIC "-//W3C//DTD SVG 1.1//EN" "http://www.w3.org/Graphics/SVG/1.1/DTD/svg11.dtd">
<svg xmlns:xl="http://www.w3.org/1999/xlink" version="1.1" xmlns="http://www.w3.org/2000/svg" xmlns:dc="http://purl.org/dc/elements/1.1/" viewBox="-532 -3145.1854 48 48" width="48" height="48">
  <defs/>
  <g id="ICONES" stroke="none" stroke-opacity="1" stroke-dasharray="none" fill="none" fill-opacity="1">
    <title>ICONES</title>
    <g id="ICONES_Calque_1">
      <title>Calque 1</title>
      <g id="Group_4259">
        <g id="Graphic_3955">
          <path d="M -529 -3145.1854 L -487 -3145.1854 C -485.34315 -3145.1854 -484 -3143.8423 -484 -3142.1854 L -484 -3100.1854 C -484 -3098.5286 -485.34315 -3097.1854 -487 -3097.1854 L -529 -3097.1854 C -530.65685 -3097.1854 -532 -3098.5286 -532 -3100.1854 L -532 -3142.1854 C -532 -3143.8423 -530.65685 -3145.1854 -529 -3145.1854 Z" fill="white"/>
        </g>
        <g id="Group_3948">
          <g id="Graphic_3954">
            <path d="M -530.60404 -3122.734 L -527.57504 -3122.734 C -527.2233 -3127.2347 -525.3262 -3131.6373 -521.8837 -3135.0797 C -514.21526 -3142.7482 -501.78225 -3142.7482 -494.1138 -3135.0797 C -490.6713 -3131.6373 -488.7742 -3127.2347 -488.4225 -3122.734 L -485.3935 -3122.734 C -485.7505 -3128.0092 -487.9452 -3133.1835 -491.97765 -3137.216 C -500.82587 -3146.064 -515.17165 -3146.064 -524.01986 -3137.216 C -528.0523 -3133.1835 -530.24704 -3128.0092 -530.60404 -3122.734 Z" fill="#efb54f" fill-opacity=".25239327"/>
            <path d="M -530.60404 -3122.734 L -527.57504 -3122.734 C -527.2233 -3127.2347 -525.3262 -3131.6373 -521.8837 -3135.0797 C -514.21526 -3142.7482 -501.78225 -3142.7482 -494.1138 -3135.0797 C -490.6713 -3131.6373 -488.7742 -3127.2347 -488.4225 -3122.734 L -485.3935 -3122.734 C -485.7505 -3128.0092 -487.9452 -3133.1835 -491.97765 -3137.216 C -500.82587 -3146.064 -515.17165 -3146.064 -524.01986 -3137.216 C -528.0523 -3133.1835 -530.24704 -3128.0092 -530.60404 -3122.734 Z" stroke="#efb64f" stroke-linecap="round" stroke-linejoin="round" stroke-width="0"/>
          </g>
          <g id="Graphic_3953">
            <path d="M -524.9256 -3122.6968 L -521.8903 -3122.6968 C -521.56134 -3125.7568 -520.22406 -3128.729 -517.87844 -3131.0745 C -512.42204 -3136.531 -503.5755 -3136.531 -498.1191 -3131.0745 C -495.77346 -3128.729 -494.4362 -3125.7568 -494.10724 -3122.6968 L -491.0719 -3122.6968 C -491.4102 -3126.5324 -493.04724 -3130.275 -495.98293 -3133.2106 C -502.6191 -3139.8468 -513.3784 -3139.8468 -520.0146 -3133.2106 C -522.9503 -3130.275 -524.5873 -3126.5324 -524.9256 -3122.6968 Z" fill="#d3673a" fill-opacity=".24884463"/>
            <path d="M -524.9256 -3122.6968 L -521.8903 -3122.6968 C -521.56134 -3125.7568 -520.22406 -3128.729 -517.87844 -3131.0745 C -512.42204 -3136.531 -503.5755 -3136.531 -498.1191 -3131.0745 C -495.77346 -3128.729 -494.4362 -3125.7568 -494.10724 -3122.6968 L -491.0719 -3122.6968 C -491.4102 -3126.5324 -493.04724 -3130.275 -495.98293 -3133.2106 C -502.6191 -3139.8468 -513.3784 -3139.8468 -520.0146 -3133.2106 C -522.9503 -3130.275 -524.5873 -3126.5324 -524.9256 -3122.6968 Z" stroke="#d2673a" stroke-linecap="round" stroke-linejoin="round" stroke-width="0"/>
          </g>
          <g id="Graphic_3952">
            <path d="M -519.223 -3122.734 L -516.1634 -3122.734 C -515.8655 -3124.322 -515.1021 -3125.8403 -513.87316 -3127.0692 C -510.6288 -3130.3136 -505.3687 -3130.3136 -502.12435 -3127.0692 C -500.89544 -3125.8403 -500.132 -3124.322 -499.8341 -3122.734 L -496.77453 -3122.734 C -497.09733 -3125.101 -498.16856 -3127.3857 -499.9882 -3129.2053 C -504.4123 -3133.6295 -511.5852 -3133.6295 -516.0093 -3129.2053 C -517.82896 -3127.3857 -518.9002 -3125.101 -519.223 -3122.734 Z" fill="#3570a0" fill-opacity=".2496699"/>
            <path d="M -519.223 -3122.734 L -516.1634 -3122.734 C -515.8655 -3124.322 -515.1021 -3125.8403 -513.87316 -3127.0692 C -510.6288 -3130.3136 -505.3687 -3130.3136 -502.12435 -3127.0692 C -500.89544 -3125.8403 -500.132 -3124.322 -499.8341 -3122.734 L -496.77453 -3122.734 C -497.09733 -3125.101 -498.16856 -3127.3857 -499.9882 -3129.2053 C -504.4123 -3133.6295 -511.5852 -3133.6295 -516.0093 -3129.2053 C -517.82896 -3127.3857 -518.9002 -3125.101 -519.223 -3122.734 Z" stroke="#3770a0" stroke-linecap="round" stroke-linejoin="round" stroke-width="0"/>
          </g>
          <g id="Graphic_3951">
            <path d="M -524.94556 -3122.734 L -521.9097 -3122.734 C -521.57583 -3125.7844 -520.2395 -3128.746 -517.90076 -3131.0848 C -515.1525 -3133.833 -511.5442 -3135.197 -507.94224 -3135.177 C -506.0555 -3135.1663 -504.1705 -3134.776 -502.4117 -3134.0057 L -501.23095 -3136.7874 C -503.36784 -3137.718 -505.657 -3138.188 -507.94776 -3138.198 C -512.32104 -3138.2167 -516.7002 -3136.5577 -520.0369 -3133.221 C -522.96576 -3130.292 -524.602 -3126.56 -524.94556 -3122.734 Z" fill="#d3673a"/>
            <path d="M -524.94556 -3122.734 L -521.9097 -3122.734 C -521.57583 -3125.7844 -520.2395 -3128.746 -517.90076 -3131.0848 C -515.1525 -3133.833 -511.5442 -3135.197 -507.94224 -3135.177 C -506.0555 -3135.1663 -504.1705 -3134.776 -502.4117 -3134.0057 L -501.23095 -3136.7874 C -503.36784 -3137.718 -505.657 -3138.188 -507.94776 -3138.198 C -512.32104 -3138.2167 -516.7002 -3136.5577 -520.0369 -3133.221 C -522.96576 -3130.292 -524.602 -3126.56 -524.94556 -3122.734 Z" stroke="#d2673a" stroke-linecap="round" stroke-linejoin="round" stroke-width="0"/>
          </g>
          <g id="Graphic_3950">
            <path d="M -519.1785 -3122.6968 L -516.1229 -3122.6968 C -515.83565 -3124.3136 -515.06744 -3125.8616 -513.81823 -3127.111 C -512.31135 -3128.6177 -510.3696 -3129.4247 -508.397 -3129.5318 L -508.397 -3132.556 C -511.1434 -3132.4468 -513.8576 -3131.3438 -515.9544 -3129.247 C -517.7942 -3127.407 -518.8689 -3125.092 -519.1785 -3122.6968 Z" fill="#3570a0"/>
            <path d="M -519.1785 -3122.6968 L -516.1229 -3122.6968 C -515.83565 -3124.3136 -515.06744 -3125.8616 -513.81823 -3127.111 C -512.31135 -3128.6177 -510.3696 -3129.4247 -508.397 -3129.5318 L -508.397 -3132.556 C -511.1434 -3132.4468 -513.8576 -3131.3438 -515.9544 -3129.247 C -517.7942 -3127.407 -518.8689 -3125.092 -519.1785 -3122.6968 Z" stroke="#3770a0" stroke-linecap="round" stroke-linejoin="round" stroke-width="0"/>
          </g>
          <g id="Graphic_3949">
            <path d="M -530.6065 -3122.6968 L -527.5779 -3122.6968 C -527.2337 -3127.2104 -525.33566 -3131.628 -521.8837 -3135.0797 C -514.21526 -3142.7482 -501.78225 -3142.7482 -494.1138 -3135.0797 C -493.24983 -3134.2158 -492.4832 -3133.2913 -491.8139 -3132.32 L -489.18996 -3133.835 C -489.9934 -3135.0277 -490.9226 -3136.161 -491.97765 -3137.216 C -500.82587 -3146.064 -515.17165 -3146.064 -524.01986 -3137.216 C -528.06177 -3133.174 -530.2573 -3127.985 -530.6065 -3122.6968 Z" fill="#efb54f"/>
            <path d="M -530.6065 -3122.6968 L -527.5779 -3122.6968 C -527.2337 -3127.2104 -525.33566 -3131.628 -521.8837 -3135.0797 C -514.21526 -3142.7482 -501.78225 -3142.7482 -494.1138 -3135.0797 C -493.24983 -3134.2158 -492.4832 -3133.2913 -491.8139 -3132.32 L -489.18996 -3133.835 C -489.9934 -3135.0277 -490.9226 -3136.161 -491.97765 -3137.216 C -500.82587 -3146.064 -515.17165 -3146.064 -524.01986 -3137.216 C -528.06177 -3133.174 -530.2573 -3127.985 -530.6065 -3122.6968 Z" stroke="#efb64f" stroke-linecap="round" stroke-linejoin="round" stroke-width="0"/>
          </g>
        </g>
        <g id="Group_4088">
          <title/>
          <g id="Graphic_4078">
            <path d="M -517.549 -3112.7074 L -517.549 -3119.1154 L -518.683 -3119.1154 L -519.853 -3115.9744 L -521.023 -3119.1154 L -522.148 -3119.1154 L -522.148 -3112.7074 L -520.87 -3112.7074 L -520.87 -3116.0374 L -520.186 -3113.8504 L -519.529 -3113.8504 L -518.827 -3116.0464 L -518.827 -3112.7074 Z" fill="#3770a1"/>
          </g>
          <g id="Graphic_4079">
            <path d="M -513.553 -3115.1284 C -513.553 -3115.7764 -513.58 -3116.5864 -513.886 -3117.0454 C -514.201 -3117.5134 -514.651 -3117.6214 -515.164 -3117.6214 C -515.677 -3117.6214 -516.127 -3117.5134 -516.442 -3117.0454 C -516.748 -3116.5864 -516.775 -3115.7764 -516.775 -3115.1284 C -516.775 -3114.4804 -516.748 -3113.6704 -516.442 -3113.2114 C -516.127 -3112.7434 -515.677 -3112.6354 -515.164 -3112.6354 C -514.651 -3112.6354 -514.201 -3112.7434 -513.886 -3113.2114 C -513.58 -3113.6704 -513.553 -3114.4804 -513.553 -3115.1284 Z M -514.759 -3115.1284 C -514.759 -3114.5794 -514.759 -3114.1024 -514.849 -3113.9044 C -514.912 -3113.7694 -515.047 -3113.7154 -515.164 -3113.7154 C -515.281 -3113.7154 -515.416 -3113.7694 -515.479 -3113.9044 C -515.569 -3114.1024 -515.569 -3114.5794 -515.569 -3115.1284 C -515.569 -3115.6774 -515.569 -3116.1544 -515.479 -3116.3524 C -515.416 -3116.4874 -515.281 -3116.5414 -515.164 -3116.5414 C -515.047 -3116.5414 -514.912 -3116.4874 -514.849 -3116.3524 C -514.759 -3116.1544 -514.759 -3115.6774 -514.759 -3115.1284 Z" fill="#3770a1"/>
          </g>
          <g id="Graphic_4080">
            <path d="M -509.8 -3112.7074 L -509.8 -3119.1154 L -511.006 -3119.1154 L -511.006 -3117.2614 C -511.096 -3117.3604 -511.195 -3117.4414 -511.303 -3117.5044 C -511.438 -3117.5764 -511.609 -3117.6214 -511.762 -3117.6214 C -512.158 -3117.6214 -512.428 -3117.5224 -512.662 -3117.2254 C -512.995 -3116.8114 -512.995 -3116.0914 -512.995 -3115.1284 C -512.995 -3114.1654 -512.995 -3113.4454 -512.662 -3113.0314 C -512.428 -3112.7344 -512.158 -3112.6354 -511.762 -3112.6354 C -511.609 -3112.6354 -511.438 -3112.6804 -511.303 -3112.7524 C -511.195 -3112.8154 -511.006 -3112.9684 -510.952 -3113.0584 L -510.952 -3112.7074 Z M -511.006 -3114.1564 C -511.006 -3114.0034 -511.042 -3113.8954 -511.114 -3113.8234 C -511.177 -3113.7514 -511.267 -3113.7154 -511.375 -3113.7154 C -511.501 -3113.7154 -511.609 -3113.7694 -511.681 -3113.8864 C -511.762 -3114.0124 -511.789 -3114.3004 -511.789 -3115.1284 C -511.789 -3115.9564 -511.762 -3116.2444 -511.681 -3116.3704 C -511.609 -3116.4874 -511.501 -3116.5414 -511.375 -3116.5414 C -511.267 -3116.5414 -511.177 -3116.5054 -511.114 -3116.4334 C -511.042 -3116.3614 -511.006 -3116.2534 -511.006 -3116.1004 Z" fill="#3770a1"/>
          </g>
          <g id="Graphic_4081">
            <path d="M -505.885 -3114.7414 C -505.885 -3115.8574 -505.93 -3116.7484 -506.371 -3117.2074 C -506.713 -3117.5584 -507.073 -3117.6214 -507.496 -3117.6214 C -507.901 -3117.6214 -508.288 -3117.5584 -508.63 -3117.2074 C -509.071 -3116.7484 -509.107 -3115.8574 -509.107 -3115.1284 C -509.107 -3114.3994 -509.071 -3113.5084 -508.63 -3113.0584 C -508.288 -3112.7074 -507.955 -3112.6354 -507.496 -3112.6354 C -506.992 -3112.6354 -506.623 -3112.7524 -506.353 -3113.0494 C -506.038 -3113.3914 -505.93 -3113.7964 -505.912 -3114.2014 L -507.118 -3114.2014 C -507.118 -3114.1204 -507.136 -3113.9764 -507.181 -3113.8954 C -507.244 -3113.7784 -507.343 -3113.7154 -507.496 -3113.7154 C -507.649 -3113.7154 -507.757 -3113.7964 -507.811 -3113.9044 C -507.883 -3114.0394 -507.901 -3114.4174 -507.901 -3114.7414 Z M -507.091 -3115.6144 L -507.901 -3115.6144 C -507.901 -3116.0284 -507.865 -3116.2624 -507.811 -3116.3614 C -507.748 -3116.4784 -507.658 -3116.5414 -507.496 -3116.5414 C -507.334 -3116.5414 -507.244 -3116.4784 -507.181 -3116.3614 C -507.127 -3116.2624 -507.091 -3116.0284 -507.091 -3115.6144 Z" fill="#3770a1"/>
          </g>
          <g id="Graphic_4082">
            <path d="M -503.419 -3112.7074 L -503.419 -3113.7874 C -503.824 -3113.7874 -504.013 -3113.9674 -504.013 -3114.3454 L -504.013 -3119.1154 L -505.219 -3119.1154 L -505.219 -3114.2644 C -505.219 -3113.6344 -505.003 -3113.2474 -504.661 -3113.0044 C -504.31 -3112.7524 -503.914 -3112.7074 -503.419 -3112.7074 Z" fill="#3770a1"/>
          </g>
          <g id="Graphic_4083">
            <path d="M -501.637 -3112.7074 L -501.637 -3117.3604 L -502.843 -3117.3604 L -502.843 -3112.7074 Z M -501.601 -3117.8914 L -501.601 -3119.1694 L -502.879 -3119.1694 L -502.879 -3117.8914 Z" fill="#3770a1"/>
          </g>
          <g id="Graphic_4084">
            <path d="M -497.641 -3112.7074 L -497.641 -3116.1184 C -497.641 -3116.7214 -497.722 -3116.9824 -497.911 -3117.2164 C -498.145 -3117.4954 -498.406 -3117.6214 -498.847 -3117.6214 C -499 -3117.6214 -499.171 -3117.5764 -499.306 -3117.5044 C -499.441 -3117.4324 -499.558 -3117.3154 -499.657 -3117.1984 L -499.657 -3117.5494 L -500.809 -3117.5494 L -500.809 -3112.7074 L -499.603 -3112.7074 L -499.603 -3116.1004 C -499.603 -3116.3974 -499.441 -3116.5414 -499.225 -3116.5414 C -499.009 -3116.5414 -498.847 -3116.3974 -498.847 -3116.1004 L -498.847 -3112.7074 Z" fill="#3770a1"/>
          </g>
          <g id="Graphic_4085">
            <path d="M -494.977 -3112.5454 C -494.977 -3112.4104 -495.004 -3112.3024 -495.067 -3112.2304 C -495.139 -3112.1494 -495.238 -3112.1044 -495.355 -3112.1044 C -495.49 -3112.1044 -495.58 -3112.1494 -495.643 -3112.2304 C -495.706 -3112.3204 -495.733 -3112.4374 -495.733 -3112.5724 L -496.939 -3112.5724 C -496.939 -3112.1944 -496.822 -3111.7894 -496.498 -3111.4834 C -496.21 -3111.2044 -495.787 -3111.0694 -495.355 -3111.0694 C -494.932 -3111.0694 -494.482 -3111.2224 -494.212 -3111.4834 C -493.951 -3111.7444 -493.771 -3112.1224 -493.771 -3112.6444 L -493.771 -3117.5494 L -494.923 -3117.5494 L -494.923 -3117.2614 C -495.013 -3117.3514 -495.112 -3117.4324 -495.229 -3117.5044 C -495.364 -3117.5854 -495.535 -3117.6214 -495.706 -3117.6214 C -496.102 -3117.6214 -496.345 -3117.5134 -496.57 -3117.2434 C -496.885 -3116.8654 -496.966 -3116.3344 -496.966 -3115.3804 C -496.966 -3114.4264 -496.885 -3113.8954 -496.57 -3113.5174 C -496.345 -3113.2474 -496.075 -3113.1394 -495.706 -3113.1394 C -495.544 -3113.1394 -495.382 -3113.1754 -495.256 -3113.2564 C -495.148 -3113.3284 -495.058 -3113.4094 -494.977 -3113.4994 Z M -494.977 -3114.6244 C -494.977 -3114.4714 -495.013 -3114.3634 -495.085 -3114.2914 C -495.148 -3114.2194 -495.238 -3114.1834 -495.346 -3114.1834 C -495.472 -3114.1834 -495.58 -3114.2464 -495.652 -3114.3544 C -495.733 -3114.4804 -495.76 -3114.6964 -495.76 -3115.3624 C -495.76 -3116.0284 -495.733 -3116.2444 -495.652 -3116.3704 C -495.58 -3116.4784 -495.472 -3116.5414 -495.346 -3116.5414 C -495.238 -3116.5414 -495.148 -3116.5054 -495.085 -3116.4334 C -495.013 -3116.3614 -494.977 -3116.2534 -494.977 -3116.1004 Z" fill="#3770a1"/>
          </g>
          <g id="Graphic_4086">
            <path d="M -507.325 -3103.1654 L -507.325 -3107.8544 L -508.603 -3107.8544 L -508.603 -3103.1024 C -508.603 -3102.6884 -508.846 -3102.5264 -509.134 -3102.5264 C -509.422 -3102.5264 -509.665 -3102.6884 -509.665 -3103.1024 L -509.665 -3107.8544 L -510.943 -3107.8544 L -510.943 -3103.1654 C -510.943 -3102.6524 -510.772 -3102.2204 -510.466 -3101.9054 C -510.124 -3101.5544 -509.674 -3101.3744 -509.134 -3101.3744 C -508.594 -3101.3744 -508.144 -3101.5544 -507.802 -3101.9054 C -507.496 -3102.2204 -507.325 -3102.6524 -507.325 -3103.1654 Z" fill="#c92505"/>
          </g>
          <g id="Graphic_4087">
            <rect x="-506.38" y="-3107.8544" width="1.278" height="6.408" fill="#c92505"/>
          </g>
        </g>
      </g>
    </g>
  </g>
</svg>
