<?xml version="1.0" encoding="UTF-8" standalone="no"?>
<!DOCTYPE svg PUBLIC "-//W3C//DTD SVG 1.1//EN" "http://www.w3.org/Graphics/SVG/1.1/DTD/svg11.dtd">
<svg xmlns:xl="http://www.w3.org/1999/xlink" version="1.1" xmlns="http://www.w3.org/2000/svg" xmlns:dc="http://purl.org/dc/elements/1.1/" viewBox="-832 -3145.1854 48 48" width="48" height="48">
  <defs/>
  <g id="ICONES" stroke="none" stroke-opacity="1" stroke-dasharray="none" fill="none" fill-opacity="1">
    <title>ICONES</title>
    <g id="ICONES_Calque_1">
      <title>Calque 1</title>
      <g id="Group_4263">
        <g id="Graphic_3973">
          <path d="M -829 -3145.1854 L -787 -3145.1854 C -785.3431 -3145.1854 -784 -3143.8423 -784 -3142.1854 L -784 -3100.1854 C -784 -3098.5286 -785.3431 -3097.1854 -787 -3097.1854 L -829 -3097.1854 C -830.6569 -3097.1854 -832 -3098.5286 -832 -3100.1854 L -832 -3142.1854 C -832 -3143.8423 -830.6569 -3145.1854 -829 -3145.1854 Z" fill="white"/>
        </g>
        <g id="Group_3966">
          <g id="Graphic_3972">
            <path d="M -830.604 -3122.734 L -827.575 -3122.734 C -827.2233 -3127.2347 -825.3262 -3131.6373 -821.8837 -3135.0797 C -814.2153 -3142.7482 -801.7823 -3142.7482 -794.1138 -3135.0797 C -790.6713 -3131.6373 -788.7742 -3127.2347 -788.4225 -3122.734 L -785.3935 -3122.734 C -785.7505 -3128.0092 -787.9452 -3133.1835 -791.9777 -3137.216 C -800.8259 -3146.064 -815.17165 -3146.064 -824.0199 -3137.216 C -828.0523 -3133.1835 -830.247 -3128.0092 -830.604 -3122.734 Z" fill="#efb54f" fill-opacity=".25239327"/>
            <path d="M -830.604 -3122.734 L -827.575 -3122.734 C -827.2233 -3127.2347 -825.3262 -3131.6373 -821.8837 -3135.0797 C -814.2153 -3142.7482 -801.7823 -3142.7482 -794.1138 -3135.0797 C -790.6713 -3131.6373 -788.7742 -3127.2347 -788.4225 -3122.734 L -785.3935 -3122.734 C -785.7505 -3128.0092 -787.9452 -3133.1835 -791.9777 -3137.216 C -800.8259 -3146.064 -815.17165 -3146.064 -824.0199 -3137.216 C -828.0523 -3133.1835 -830.247 -3128.0092 -830.604 -3122.734 Z" stroke="#efb64f" stroke-linecap="round" stroke-linejoin="round" stroke-width="0"/>
          </g>
          <g id="Graphic_3971">
            <path d="M -824.9256 -3122.6968 L -821.8903 -3122.6968 C -821.5613 -3125.7568 -820.2241 -3128.729 -817.8784 -3131.0745 C -812.422 -3136.531 -803.5755 -3136.531 -798.1191 -3131.0745 C -795.7735 -3128.729 -794.4362 -3125.7568 -794.1072 -3122.6968 L -791.0719 -3122.6968 C -791.4102 -3126.5324 -793.0472 -3130.275 -795.9829 -3133.2106 C -802.6191 -3139.8468 -813.3784 -3139.8468 -820.0146 -3133.2106 C -822.9503 -3130.275 -824.5873 -3126.5324 -824.9256 -3122.6968 Z" fill="#d3673a" fill-opacity=".24884463"/>
            <path d="M -824.9256 -3122.6968 L -821.8903 -3122.6968 C -821.5613 -3125.7568 -820.2241 -3128.729 -817.8784 -3131.0745 C -812.422 -3136.531 -803.5755 -3136.531 -798.1191 -3131.0745 C -795.7735 -3128.729 -794.4362 -3125.7568 -794.1072 -3122.6968 L -791.0719 -3122.6968 C -791.4102 -3126.5324 -793.0472 -3130.275 -795.9829 -3133.2106 C -802.6191 -3139.8468 -813.3784 -3139.8468 -820.0146 -3133.2106 C -822.9503 -3130.275 -824.5873 -3126.5324 -824.9256 -3122.6968 Z" stroke="#d2673a" stroke-linecap="round" stroke-linejoin="round" stroke-width="0"/>
          </g>
          <g id="Graphic_3970">
            <path d="M -819.223 -3122.734 L -816.1634 -3122.734 C -815.8655 -3124.322 -815.1021 -3125.8403 -813.8732 -3127.0692 C -810.6288 -3130.3136 -805.3687 -3130.3136 -802.1244 -3127.0692 C -800.8954 -3125.8403 -800.132 -3124.322 -799.8341 -3122.734 L -796.7745 -3122.734 C -797.0973 -3125.101 -798.1686 -3127.3857 -799.9882 -3129.2053 C -804.4123 -3133.6295 -811.5852 -3133.6295 -816.0093 -3129.2053 C -817.829 -3127.3857 -818.9002 -3125.101 -819.223 -3122.734 Z" fill="#3570a0" fill-opacity=".2496699"/>
            <path d="M -819.223 -3122.734 L -816.1634 -3122.734 C -815.8655 -3124.322 -815.1021 -3125.8403 -813.8732 -3127.0692 C -810.6288 -3130.3136 -805.3687 -3130.3136 -802.1244 -3127.0692 C -800.8954 -3125.8403 -800.132 -3124.322 -799.8341 -3122.734 L -796.7745 -3122.734 C -797.0973 -3125.101 -798.1686 -3127.3857 -799.9882 -3129.2053 C -804.4123 -3133.6295 -811.5852 -3133.6295 -816.0093 -3129.2053 C -817.829 -3127.3857 -818.9002 -3125.101 -819.223 -3122.734 Z" stroke="#3770a0" stroke-linecap="round" stroke-linejoin="round" stroke-width="0"/>
          </g>
          <g id="Graphic_3969">
            <path d="M -824.9456 -3122.734 L -821.9097 -3122.734 C -821.5758 -3125.7844 -820.2395 -3128.746 -817.9008 -3131.0848 C -815.1525 -3133.833 -811.5442 -3135.197 -807.9422 -3135.177 C -806.0555 -3135.1663 -804.1705 -3134.776 -802.4117 -3134.0057 L -801.2309 -3136.7874 C -803.3678 -3137.718 -805.657 -3138.188 -807.9478 -3138.198 C -812.321 -3138.2167 -816.7002 -3136.5577 -820.0369 -3133.221 C -822.9658 -3130.292 -824.602 -3126.56 -824.9456 -3122.734 Z" fill="#d3673a"/>
            <path d="M -824.9456 -3122.734 L -821.9097 -3122.734 C -821.5758 -3125.7844 -820.2395 -3128.746 -817.9008 -3131.0848 C -815.1525 -3133.833 -811.5442 -3135.197 -807.9422 -3135.177 C -806.0555 -3135.1663 -804.1705 -3134.776 -802.4117 -3134.0057 L -801.2309 -3136.7874 C -803.3678 -3137.718 -805.657 -3138.188 -807.9478 -3138.198 C -812.321 -3138.2167 -816.7002 -3136.5577 -820.0369 -3133.221 C -822.9658 -3130.292 -824.602 -3126.56 -824.9456 -3122.734 Z" stroke="#d2673a" stroke-linecap="round" stroke-linejoin="round" stroke-width="0"/>
          </g>
          <g id="Graphic_3968">
            <path d="M -819.1785 -3122.6968 L -816.1229 -3122.6968 C -815.8357 -3124.3136 -815.0674 -3125.8616 -813.8182 -3127.111 C -812.3114 -3128.6177 -810.3696 -3129.4247 -808.397 -3129.5318 L -808.397 -3132.556 C -811.1434 -3132.4468 -813.8576 -3131.3438 -815.9544 -3129.247 C -817.7942 -3127.407 -818.8689 -3125.092 -819.1785 -3122.6968 Z" fill="#3570a0"/>
            <path d="M -819.1785 -3122.6968 L -816.1229 -3122.6968 C -815.8357 -3124.3136 -815.0674 -3125.8616 -813.8182 -3127.111 C -812.3114 -3128.6177 -810.3696 -3129.4247 -808.397 -3129.5318 L -808.397 -3132.556 C -811.1434 -3132.4468 -813.8576 -3131.3438 -815.9544 -3129.247 C -817.7942 -3127.407 -818.8689 -3125.092 -819.1785 -3122.6968 Z" stroke="#3770a0" stroke-linecap="round" stroke-linejoin="round" stroke-width="0"/>
          </g>
          <g id="Graphic_3967">
            <path d="M -830.6065 -3122.6968 L -827.5779 -3122.6968 C -827.2337 -3127.2104 -825.3357 -3131.628 -821.8837 -3135.0797 C -814.2153 -3142.7482 -801.7823 -3142.7482 -794.1138 -3135.0797 C -793.2498 -3134.2158 -792.4832 -3133.2913 -791.8139 -3132.32 L -789.19 -3133.835 C -789.9934 -3135.0277 -790.9226 -3136.161 -791.9777 -3137.216 C -800.8259 -3146.064 -815.17165 -3146.064 -824.0199 -3137.216 C -828.0618 -3133.174 -830.2573 -3127.985 -830.6065 -3122.6968 Z" fill="#efb54f"/>
            <path d="M -830.6065 -3122.6968 L -827.5779 -3122.6968 C -827.2337 -3127.2104 -825.3357 -3131.628 -821.8837 -3135.0797 C -814.2153 -3142.7482 -801.7823 -3142.7482 -794.1138 -3135.0797 C -793.2498 -3134.2158 -792.4832 -3133.2913 -791.8139 -3132.32 L -789.19 -3133.835 C -789.9934 -3135.0277 -790.9226 -3136.161 -791.9777 -3137.216 C -800.8259 -3146.064 -815.17165 -3146.064 -824.0199 -3137.216 C -828.0618 -3133.174 -830.2573 -3127.985 -830.6065 -3122.6968 Z" stroke="#efb64f" stroke-linecap="round" stroke-linejoin="round" stroke-width="0"/>
          </g>
        </g>
        <g id="Group_4110">
          <title/>
          <g id="Graphic_4096">
            <path d="M -811.3525 -3114.5344 L -812.6305 -3114.5344 C -812.6395 -3114.3544 -812.6575 -3114.1744 -812.7295 -3114.0394 C -812.8015 -3113.8864 -812.9275 -3113.7874 -813.1615 -3113.7874 C -813.3955 -3113.7874 -813.5215 -3113.8954 -813.5935 -3114.0394 C -813.7465 -3114.3364 -813.7645 -3115.1374 -813.7645 -3115.9114 C -813.7645 -3116.6854 -813.7465 -3117.4864 -813.5935 -3117.7834 C -813.5215 -3117.9274 -813.3955 -3118.0354 -813.1615 -3118.0354 C -812.9275 -3118.0354 -812.8015 -3117.9454 -812.7295 -3117.7924 C -812.6575 -3117.6574 -812.6395 -3117.4774 -812.6305 -3117.2974 L -811.3525 -3117.2974 C -811.3795 -3117.9094 -811.5955 -3118.4134 -811.9285 -3118.7284 C -812.2525 -3119.0344 -812.6305 -3119.1874 -813.1615 -3119.1874 C -813.8545 -3119.1874 -814.2775 -3118.8994 -814.5655 -3118.5394 C -815.0155 -3117.9904 -815.0425 -3117.1444 -815.0425 -3115.9114 C -815.0425 -3114.6784 -815.0155 -3113.8324 -814.5655 -3113.2834 C -814.2775 -3112.9234 -813.8545 -3112.6354 -813.1615 -3112.6354 C -812.6305 -3112.6354 -812.2525 -3112.7884 -811.9285 -3113.0944 C -811.5955 -3113.4094 -811.3795 -3113.9224 -811.3525 -3114.5344 Z" fill="#3770a1"/>
          </g>
          <g id="Graphic_4097">
            <path d="M -807.5815 -3115.1284 C -807.5815 -3115.7764 -807.6085 -3116.5864 -807.9145 -3117.0454 C -808.2295 -3117.5134 -808.6795 -3117.6214 -809.1925 -3117.6214 C -809.7055 -3117.6214 -810.1555 -3117.5134 -810.4705 -3117.0454 C -810.7765 -3116.5864 -810.8035 -3115.7764 -810.8035 -3115.1284 C -810.8035 -3114.4804 -810.7765 -3113.6704 -810.4705 -3113.2114 C -810.1555 -3112.7434 -809.7055 -3112.6354 -809.1925 -3112.6354 C -808.6795 -3112.6354 -808.2295 -3112.7434 -807.9145 -3113.2114 C -807.6085 -3113.6704 -807.5815 -3114.4804 -807.5815 -3115.1284 Z M -808.7875 -3115.1284 C -808.7875 -3114.5794 -808.7875 -3114.1024 -808.8775 -3113.9044 C -808.9405 -3113.7694 -809.0755 -3113.7154 -809.1925 -3113.7154 C -809.3095 -3113.7154 -809.4445 -3113.7694 -809.5075 -3113.9044 C -809.5975 -3114.1024 -809.5975 -3114.5794 -809.5975 -3115.1284 C -809.5975 -3115.6774 -809.5975 -3116.1544 -809.5075 -3116.3524 C -809.4445 -3116.4874 -809.3095 -3116.5414 -809.1925 -3116.5414 C -809.0755 -3116.5414 -808.9405 -3116.4874 -808.8775 -3116.3524 C -808.7875 -3116.1544 -808.7875 -3115.6774 -808.7875 -3115.1284 Z" fill="#3770a1"/>
          </g>
          <g id="Graphic_4098">
            <path d="M -804.4945 -3116.4334 L -804.4945 -3117.6214 C -804.7555 -3117.6214 -804.9985 -3117.5584 -805.2055 -3117.4594 C -805.4215 -3117.3514 -805.6015 -3117.1984 -805.7365 -3117.0274 L -805.7365 -3117.5494 L -806.8885 -3117.5494 L -806.8885 -3112.7074 L -805.6825 -3112.7074 L -805.6825 -3115.6594 C -805.6825 -3116.1454 -805.3405 -3116.4334 -804.9355 -3116.4334 Z" fill="#3770a1"/>
          </g>
          <g id="Graphic_4099">
            <path d="M -800.9215 -3114.7414 C -800.9215 -3115.8574 -800.9665 -3116.7484 -801.4075 -3117.2074 C -801.7495 -3117.5584 -802.1095 -3117.6214 -802.5325 -3117.6214 C -802.9375 -3117.6214 -803.3245 -3117.5584 -803.6665 -3117.2074 C -804.1075 -3116.7484 -804.1435 -3115.8574 -804.1435 -3115.1284 C -804.1435 -3114.3994 -804.1075 -3113.5084 -803.6665 -3113.0584 C -803.3245 -3112.7074 -802.9915 -3112.6354 -802.5325 -3112.6354 C -802.0285 -3112.6354 -801.6595 -3112.7524 -801.3895 -3113.0494 C -801.0745 -3113.3914 -800.9665 -3113.7964 -800.9485 -3114.2014 L -802.1545 -3114.2014 C -802.1545 -3114.1204 -802.1725 -3113.9764 -802.2175 -3113.8954 C -802.2805 -3113.7784 -802.3795 -3113.7154 -802.5325 -3113.7154 C -802.6855 -3113.7154 -802.7935 -3113.7964 -802.8475 -3113.9044 C -802.9195 -3114.0394 -802.9375 -3114.4174 -802.9375 -3114.7414 Z M -802.1275 -3115.6144 L -802.9375 -3115.6144 C -802.9375 -3116.0284 -802.9015 -3116.2624 -802.8475 -3116.3614 C -802.7845 -3116.4784 -802.6945 -3116.5414 -802.5325 -3116.5414 C -802.3705 -3116.5414 -802.2805 -3116.4784 -802.2175 -3116.3614 C -802.1635 -3116.2624 -802.1275 -3116.0284 -802.1275 -3115.6144 Z" fill="#3770a1"/>
          </g>
          <g id="Graphic_4100">
            <path d="M -822.0625 -3101.4464 L -822.0625 -3102.5984 L -823.7365 -3102.5984 L -823.7365 -3104.1014 L -822.2965 -3104.1014 L -822.2965 -3105.2534 L -823.7365 -3105.2534 L -823.7365 -3106.7024 L -822.0625 -3106.7024 L -822.0625 -3107.8544 L -825.0145 -3107.8544 L -825.0145 -3101.4464 Z" fill="#d2673a"/>
          </g>
          <g id="Graphic_4101">
            <path d="M -817.9405 -3101.4464 L -819.1375 -3103.9034 L -817.9945 -3106.2884 L -819.3355 -3106.2884 L -819.8395 -3105.0554 L -820.3435 -3106.2884 L -821.6755 -3106.2884 L -820.5595 -3103.9034 L -821.7385 -3101.4464 L -820.3975 -3101.4464 L -819.8395 -3102.6974 L -819.2815 -3101.4464 Z" fill="#d2673a"/>
          </g>
          <g id="Graphic_4102">
            <path d="M -815.4745 -3101.4464 L -815.4745 -3102.5264 C -815.8795 -3102.5264 -816.0685 -3102.7064 -816.0685 -3103.0844 L -816.0685 -3105.1904 L -815.4745 -3105.1904 L -815.4745 -3106.0994 L -816.0685 -3106.0994 L -816.0685 -3107.4224 L -817.2745 -3107.4224 L -817.2745 -3106.0994 L -817.7245 -3106.0994 L -817.7245 -3105.1904 L -817.2745 -3105.1904 L -817.2745 -3103.0034 C -817.2745 -3102.3734 -817.0585 -3101.9864 -816.7165 -3101.7434 C -816.3655 -3101.4914 -815.9695 -3101.4464 -815.4745 -3101.4464 Z" fill="#d2673a"/>
          </g>
          <g id="Graphic_4103">
            <path d="M -811.8385 -3103.4804 C -811.8385 -3104.5964 -811.8835 -3105.4874 -812.3245 -3105.9464 C -812.6665 -3106.2974 -813.0265 -3106.3604 -813.4495 -3106.3604 C -813.8545 -3106.3604 -814.2415 -3106.2974 -814.5835 -3105.9464 C -815.0245 -3105.4874 -815.0605 -3104.5964 -815.0605 -3103.8674 C -815.0605 -3103.1384 -815.0245 -3102.2474 -814.5835 -3101.7974 C -814.2415 -3101.4464 -813.9085 -3101.3744 -813.4495 -3101.3744 C -812.9455 -3101.3744 -812.5765 -3101.4914 -812.3065 -3101.7884 C -811.9915 -3102.1304 -811.8835 -3102.5354 -811.8655 -3102.9404 L -813.0715 -3102.9404 C -813.0715 -3102.8594 -813.0895 -3102.7154 -813.1345 -3102.6344 C -813.1975 -3102.5174 -813.2965 -3102.4544 -813.4495 -3102.4544 C -813.6025 -3102.4544 -813.7105 -3102.5354 -813.7645 -3102.6434 C -813.8365 -3102.7784 -813.8545 -3103.1564 -813.8545 -3103.4804 Z M -813.0445 -3104.3534 L -813.8545 -3104.3534 C -813.8545 -3104.7674 -813.8185 -3105.0014 -813.7645 -3105.1004 C -813.7015 -3105.2174 -813.6115 -3105.2804 -813.4495 -3105.2804 C -813.2875 -3105.2804 -813.1975 -3105.2174 -813.1345 -3105.1004 C -813.0805 -3105.0014 -813.0445 -3104.7674 -813.0445 -3104.3534 Z" fill="#d2673a"/>
          </g>
          <g id="Graphic_4104">
            <path d="M -807.9865 -3101.4464 L -807.9865 -3104.8574 C -807.9865 -3105.4604 -808.0675 -3105.7214 -808.2565 -3105.9554 C -808.4905 -3106.2344 -808.7515 -3106.3604 -809.1925 -3106.3604 C -809.3455 -3106.3604 -809.5165 -3106.3154 -809.6515 -3106.2434 C -809.7865 -3106.1714 -809.9035 -3106.0544 -810.0025 -3105.9374 L -810.0025 -3106.2884 L -811.1545 -3106.2884 L -811.1545 -3101.4464 L -809.9485 -3101.4464 L -809.9485 -3104.8394 C -809.9485 -3105.1364 -809.7865 -3105.2804 -809.5705 -3105.2804 C -809.3545 -3105.2804 -809.1925 -3105.1364 -809.1925 -3104.8394 L -809.1925 -3101.4464 Z" fill="#d2673a"/>
          </g>
          <g id="Graphic_4105">
            <path d="M -804.1705 -3102.9314 C -804.1705 -3103.2914 -804.2605 -3103.5524 -804.3865 -3103.7234 C -804.5485 -3103.9484 -804.7735 -3104.1014 -805.1155 -3104.2364 L -805.7815 -3104.4884 C -805.9255 -3104.5424 -806.0335 -3104.6144 -806.0875 -3104.7044 C -806.1325 -3104.7674 -806.1505 -3104.8304 -806.1505 -3104.9204 C -806.1505 -3105.0374 -806.1235 -3105.1274 -806.0515 -3105.1904 C -805.9885 -3105.2534 -805.8895 -3105.2984 -805.7725 -3105.2984 C -805.6735 -3105.2984 -805.5745 -3105.2534 -805.5025 -3105.1814 C -805.4395 -3105.1094 -805.4035 -3105.0014 -805.4035 -3104.8754 L -804.2245 -3104.8754 C -804.2245 -3105.3704 -804.4135 -3105.7124 -804.6745 -3105.9644 C -804.9445 -3106.2164 -805.3495 -3106.3604 -805.7725 -3106.3604 C -806.2045 -3106.3604 -806.6275 -3106.2164 -806.9155 -3105.9194 C -807.1855 -3105.6404 -807.3565 -3105.3254 -807.3565 -3104.8034 C -807.3565 -3104.5244 -807.3025 -3104.3084 -807.1945 -3104.1284 C -807.0415 -3103.8854 -806.7895 -3103.7054 -806.4475 -3103.5704 L -805.7725 -3103.3094 C -805.6375 -3103.2554 -805.5295 -3103.1924 -805.4575 -3103.1024 C -805.3945 -3103.0124 -805.3765 -3102.9314 -805.3765 -3102.8324 C -805.3765 -3102.7334 -805.4125 -3102.6164 -805.4755 -3102.5624 C -805.5655 -3102.4814 -805.6375 -3102.4634 -805.7635 -3102.4634 C -805.8715 -3102.4634 -805.9885 -3102.5084 -806.0605 -3102.5894 C -806.1325 -3102.6614 -806.1775 -3102.7694 -806.1865 -3102.9044 L -807.3745 -3102.9044 C -807.3655 -3102.4184 -807.1945 -3102.0944 -806.9155 -3101.7974 C -806.6455 -3101.5184 -806.1955 -3101.3744 -805.7635 -3101.3744 C -805.3315 -3101.3744 -804.9445 -3101.4644 -804.6295 -3101.7794 C -804.3775 -3102.0404 -804.1705 -3102.4004 -804.1705 -3102.9314 Z" fill="#d2673a"/>
          </g>
          <g id="Graphic_4106">
            <path d="M -802.3165 -3101.4464 L -802.3165 -3106.0994 L -803.5225 -3106.0994 L -803.5225 -3101.4464 Z M -802.2805 -3106.6304 L -802.2805 -3107.9084 L -803.5585 -3107.9084 L -803.5585 -3106.6304 Z" fill="#d2673a"/>
          </g>
          <g id="Graphic_4107">
            <path d="M -798.4015 -3103.8674 C -798.4015 -3104.5154 -798.4285 -3105.3254 -798.7345 -3105.7844 C -799.0495 -3106.2524 -799.4995 -3106.3604 -800.0125 -3106.3604 C -800.5255 -3106.3604 -800.9755 -3106.2524 -801.2905 -3105.7844 C -801.5965 -3105.3254 -801.6235 -3104.5154 -801.6235 -3103.8674 C -801.6235 -3103.2194 -801.5965 -3102.4094 -801.2905 -3101.9504 C -800.9755 -3101.4824 -800.5255 -3101.3744 -800.0125 -3101.3744 C -799.4995 -3101.3744 -799.0495 -3101.4824 -798.7345 -3101.9504 C -798.4285 -3102.4094 -798.4015 -3103.2194 -798.4015 -3103.8674 Z M -799.6075 -3103.8674 C -799.6075 -3103.3184 -799.6075 -3102.8414 -799.6975 -3102.6434 C -799.7605 -3102.5084 -799.8955 -3102.4544 -800.0125 -3102.4544 C -800.1295 -3102.4544 -800.2645 -3102.5084 -800.3275 -3102.6434 C -800.4175 -3102.8414 -800.4175 -3103.3184 -800.4175 -3103.8674 C -800.4175 -3104.4164 -800.4175 -3104.8934 -800.3275 -3105.0914 C -800.2645 -3105.2264 -800.1295 -3105.2804 -800.0125 -3105.2804 C -799.8955 -3105.2804 -799.7605 -3105.2264 -799.6975 -3105.0914 C -799.6075 -3104.8934 -799.6075 -3104.4164 -799.6075 -3103.8674 Z" fill="#d2673a"/>
          </g>
          <g id="Graphic_4108">
            <path d="M -794.5405 -3101.4464 L -794.5405 -3104.8574 C -794.5405 -3105.4604 -794.6215 -3105.7214 -794.8105 -3105.9554 C -795.0445 -3106.2344 -795.3055 -3106.3604 -795.7465 -3106.3604 C -795.8995 -3106.3604 -796.0705 -3106.3154 -796.2055 -3106.2434 C -796.3405 -3106.1714 -796.4575 -3106.0544 -796.5565 -3105.9374 L -796.5565 -3106.2884 L -797.7085 -3106.2884 L -797.7085 -3101.4464 L -796.5025 -3101.4464 L -796.5025 -3104.8394 C -796.5025 -3105.1364 -796.3405 -3105.2804 -796.1245 -3105.2804 C -795.9085 -3105.2804 -795.7465 -3105.1364 -795.7465 -3104.8394 L -795.7465 -3101.4464 Z" fill="#d2673a"/>
          </g>
          <g id="Graphic_4109">
            <path d="M -790.7245 -3102.9314 C -790.7245 -3103.2914 -790.8145 -3103.5524 -790.9405 -3103.7234 C -791.1025 -3103.9484 -791.3275 -3104.1014 -791.6695 -3104.2364 L -792.3355 -3104.4884 C -792.4795 -3104.5424 -792.5875 -3104.6144 -792.6415 -3104.7044 C -792.6865 -3104.7674 -792.7045 -3104.8304 -792.7045 -3104.9204 C -792.7045 -3105.0374 -792.6775 -3105.1274 -792.6055 -3105.1904 C -792.5425 -3105.2534 -792.4435 -3105.2984 -792.3265 -3105.2984 C -792.2275 -3105.2984 -792.1285 -3105.2534 -792.0565 -3105.1814 C -791.9935 -3105.1094 -791.9575 -3105.0014 -791.9575 -3104.8754 L -790.7785 -3104.8754 C -790.7785 -3105.3704 -790.9675 -3105.7124 -791.2285 -3105.9644 C -791.4985 -3106.2164 -791.9035 -3106.3604 -792.3265 -3106.3604 C -792.7585 -3106.3604 -793.1815 -3106.2164 -793.4695 -3105.9194 C -793.7395 -3105.6404 -793.9105 -3105.3254 -793.9105 -3104.8034 C -793.9105 -3104.5244 -793.8565 -3104.3084 -793.7485 -3104.1284 C -793.5955 -3103.8854 -793.3435 -3103.7054 -793.0015 -3103.5704 L -792.3265 -3103.3094 C -792.1915 -3103.2554 -792.0835 -3103.1924 -792.0115 -3103.1024 C -791.9485 -3103.0124 -791.9305 -3102.9314 -791.9305 -3102.8324 C -791.9305 -3102.7334 -791.9665 -3102.6164 -792.0295 -3102.5624 C -792.1195 -3102.4814 -792.1915 -3102.4634 -792.3175 -3102.4634 C -792.4255 -3102.4634 -792.5425 -3102.5084 -792.6145 -3102.5894 C -792.6865 -3102.6614 -792.7315 -3102.7694 -792.7405 -3102.9044 L -793.9285 -3102.9044 C -793.9195 -3102.4184 -793.7485 -3102.0944 -793.4695 -3101.7974 C -793.1995 -3101.5184 -792.7495 -3101.3744 -792.3175 -3101.3744 C -791.8855 -3101.3744 -791.4985 -3101.4644 -791.1835 -3101.7794 C -790.9315 -3102.0404 -790.7245 -3102.4004 -790.7245 -3102.9314 Z" fill="#d2673a"/>
          </g>
        </g>
      </g>
    </g>
  </g>
</svg>
