<svg xmlns="http://www.w3.org/2000/svg" width="48" height="48" viewBox="-352 -3143.185 48 48"><g fill="none"><path fill="#fff" d="M-349-3143.185h42a3 3 0 0 1 3 3v42a3 3 0 0 1-3 3h-42a3 3 0 0 1-3-3v-42a3 3 0 0 1 3-3Z"/><path fill="#efb54f" fill-opacity=".252" d="M-350.604-3120.734h3.029a19.558 19.558 0 0 1 5.691-12.346c7.669-7.668 20.102-7.668 27.77 0a19.558 19.558 0 0 1 5.692 12.346h3.029a22.57 22.57 0 0 0-6.585-14.482c-8.848-8.848-23.194-8.848-32.042 0a22.57 22.57 0 0 0-6.584 14.482Z"/><path d="M-350.604-3120.734h3.029a19.558 19.558 0 0 1 5.691-12.346c7.669-7.668 20.102-7.668 27.77 0a19.558 19.558 0 0 1 5.692 12.346h3.029a22.57 22.57 0 0 0-6.585-14.482c-8.848-8.848-23.194-8.848-32.042 0a22.57 22.57 0 0 0-6.584 14.482Z"/><path fill="#d3673a" fill-opacity=".249" d="M-344.926-3120.697h3.036a13.913 13.913 0 0 1 4.012-8.378c5.456-5.456 14.303-5.456 19.759 0a13.913 13.913 0 0 1 4.012 8.378h3.035a16.924 16.924 0 0 0-4.91-10.514c-6.637-6.636-17.396-6.636-24.033 0a16.924 16.924 0 0 0-4.91 10.514Z"/><path d="M-344.926-3120.697h3.036a13.913 13.913 0 0 1 4.012-8.378c5.456-5.456 14.303-5.456 19.759 0a13.913 13.913 0 0 1 4.012 8.378h3.035a16.924 16.924 0 0 0-4.91-10.514c-6.637-6.636-17.396-6.636-24.033 0a16.924 16.924 0 0 0-4.91 10.514Z"/><path fill="#3570a0" fill-opacity=".25" d="M-339.223-3120.734h3.06a8.308 8.308 0 0 1 16.33 0h3.058a11.279 11.279 0 0 0-3.213-6.471c-4.424-4.425-11.597-4.425-16.021 0a11.279 11.279 0 0 0-3.214 6.471Z"/><path d="M-339.223-3120.734h3.06a8.308 8.308 0 0 1 16.33 0h3.058a11.279 11.279 0 0 0-3.213-6.471c-4.424-4.425-11.597-4.425-16.021 0a11.279 11.279 0 0 0-3.214 6.471Z"/><path fill="#d3673a" d="M-344.946-3120.734h3.036a13.914 13.914 0 0 1 4.01-8.35 13.93 13.93 0 0 1 9.958-4.093c1.887.01 3.772.401 5.53 1.171l1.181-2.781a17.012 17.012 0 0 0-6.717-1.411 16.94 16.94 0 0 0-12.089 4.977 16.925 16.925 0 0 0-4.909 10.487Z"/><path d="M-344.946-3120.734h3.036a13.914 13.914 0 0 1 4.01-8.35 13.93 13.93 0 0 1 9.958-4.093c1.887.01 3.772.401 5.53 1.171l1.181-2.781a17.012 17.012 0 0 0-6.717-1.411 16.94 16.94 0 0 0-12.089 4.977 16.925 16.925 0 0 0-4.909 10.487Z"/><path fill="#3570a0" d="M-339.178-3120.697h3.055a8.27 8.27 0 0 1 2.305-4.414 8.278 8.278 0 0 1 5.421-2.42v-3.025a11.288 11.288 0 0 0-7.557 3.309 11.28 11.28 0 0 0-3.224 6.55Z"/><path d="M-339.178-3120.697h3.055a8.27 8.27 0 0 1 2.305-4.414 8.278 8.278 0 0 1 5.421-2.42v-3.025a11.288 11.288 0 0 0-7.557 3.309 11.28 11.28 0 0 0-3.224 6.55Z"/><path fill="#efb54f" d="M-350.607-3120.697h3.03a19.559 19.559 0 0 1 5.693-12.383c7.669-7.668 20.102-7.668 27.77 0 .864.864 1.63 1.789 2.3 2.76l2.624-1.515a22.772 22.772 0 0 0-2.788-3.381c-8.848-8.848-23.194-8.848-32.042 0a22.571 22.571 0 0 0-6.587 14.52Z"/><path d="M-350.607-3120.697h3.03a19.559 19.559 0 0 1 5.693-12.383c7.669-7.668 20.102-7.668 27.77 0 .864.864 1.63 1.789 2.3 2.76l2.624-1.515a22.772 22.772 0 0 0-2.788-3.381c-8.848-8.848-23.194-8.848-32.042 0a22.571 22.571 0 0 0-6.587 14.52Z"/><path fill="#3770a1" d="M-344.637-3112.534c0-1.161-.233-1.521-1.043-1.854l-.801-.324c-.37-.153-.442-.27-.442-.675 0-.216.027-.351.108-.46.072-.098.19-.17.37-.17.188 0 .296.063.368.162.108.144.108.35.108.576h1.279c0-.648-.144-1.161-.495-1.485-.28-.261-.693-.405-1.26-.405-.487 0-.873.144-1.18.405-.387.333-.575.828-.575 1.422 0 .999.27 1.34.917 1.61l.81.334c.46.189.559.297.559.909 0 .26-.036.432-.127.54-.08.108-.207.162-.404.162-.199 0-.325-.072-.397-.153-.117-.135-.135-.324-.135-.585h-1.278c0 .657.108 1.107.423 1.422.288.288.757.468 1.387.468.62 0 1.106-.198 1.394-.477.334-.324.414-.774.414-1.422ZM-340.83-3112.741c0-1.116-.045-2.007-.486-2.466-.342-.351-.702-.414-1.125-.414-.405 0-.792.063-1.134.414-.44.459-.476 1.35-.476 2.079 0 .729.036 1.62.476 2.07.342.35.675.423 1.135.423.503 0 .873-.117 1.142-.414.315-.342.423-.747.442-1.152h-1.207a.746.746 0 0 1-.063.306c-.063.117-.162.18-.315.18a.34.34 0 0 1-.315-.19c-.072-.134-.09-.512-.09-.836Zm-1.206-.873h-.81c0-.414.036-.648.09-.747.063-.117.153-.18.315-.18s.252.063.315.18c.054.099.09.333.09.747ZM-337.752-3114.433v-1.188c-.26 0-.503.063-.71.162a1.58 1.58 0 0 0-.531.432v-.522h-1.153v4.842h1.207v-2.952c0-.486.341-.774.747-.774ZM-335.97-3110.707v-4.653h-1.205v4.653Zm.037-5.184v-1.278h-1.279v1.278ZM-332.127-3110.707v-3.312c0-.55-.188-.936-.459-1.206-.287-.288-.702-.396-1.115-.396-.423 0-.882.189-1.125.432a1.481 1.481 0 0 0-.441 1.08h1.205a.51.51 0 0 1 .108-.333.314.314 0 0 1 .262-.117c.225 0 .36.153.36.423v.558h-.37c-.63 0-.945.135-1.188.342-.305.26-.468.639-.468 1.08 0 .459.072.819.28 1.07.26.325.53.45.98.45a.847.847 0 0 0 .531-.152c.127-.081.216-.198.315-.315v.396Zm-1.205-1.503c0 .342-.19.522-.406.522-.252 0-.413-.171-.413-.522 0-.126.053-.324.153-.414.125-.117.26-.117.459-.117h.207ZM-329.534-3110.707v-1.08c-.406 0-.594-.18-.594-.558v-4.77h-1.207v4.85c0 .63.216 1.018.558 1.26.351.253.748.298 1.243.298ZM-327.752-3110.707v-4.653h-1.207v4.653Zm.036-5.184v-1.278h-1.279v1.278ZM-323.918-3112.192c0-.36-.09-.621-.216-.792-.162-.225-.387-.378-.73-.513l-.666-.252c-.144-.054-.252-.126-.306-.216a.341.341 0 0 1-.063-.216c0-.117.027-.207.1-.27a.394.394 0 0 1 .548.009c.063.072.1.18.1.306h1.178a1.44 1.44 0 0 0-.45-1.09c-.27-.251-.675-.395-1.098-.395-.431 0-.854.144-1.142.44-.27.28-.441.595-.441 1.117 0 .279.053.495.161.675.154.243.405.423.748.558l.674.26a.741.741 0 0 1 .316.208c.063.09.08.17.08.27 0 .099-.036.216-.099.27-.09.08-.161.099-.288.099a.408.408 0 0 1-.296-.126.481.481 0 0 1-.127-.315h-1.188c.01.486.18.81.46 1.107.27.279.72.423 1.151.423.433 0 .82-.09 1.135-.405.252-.261.459-.621.459-1.152ZM-320.255-3110.707v-3.312c0-.55-.19-.936-.46-1.206-.288-.288-.702-.396-1.115-.396-.423 0-.882.189-1.125.432a1.481 1.481 0 0 0-.442 1.08h1.207a.51.51 0 0 1 .108-.333.314.314 0 0 1 .26-.117c.226 0 .36.153.36.423v.558h-.368c-.63 0-.946.135-1.189.342-.305.26-.467.639-.467 1.08 0 .459.072.819.279 1.07.26.325.53.45.98.45a.847.847 0 0 0 .531-.152c.127-.081.217-.198.316-.315v.396Zm-1.207-1.503c0 .342-.189.522-.404.522-.252 0-.415-.171-.415-.522 0-.126.055-.324.154-.414.125-.117.26-.117.459-.117h.207ZM-317.43-3110.707v-1.08c-.404 0-.594-.18-.594-.558v-2.106h.594v-.91h-.594v-1.322h-1.205v1.323h-.45v.909h.45v2.187c0 .63.215 1.017.558 1.26.35.252.746.297 1.241.297ZM-315.63-3110.707v-4.653h-1.206v4.653Zm.036-5.184v-1.278h-1.278v1.278ZM-311.714-3113.128c0-.648-.027-1.458-.334-1.917-.315-.468-.764-.576-1.277-.576-.514 0-.964.108-1.279.576-.305.459-.333 1.269-.333 1.917 0 .648.028 1.458.334 1.917.315.468.764.576 1.278.576.512 0 .962-.108 1.277-.576.307-.46.334-1.27.334-1.917Zm-1.207 0c0 .549 0 1.026-.09 1.224a.34.34 0 0 1-.314.189.34.34 0 0 1-.315-.19c-.09-.197-.09-.674-.09-1.223 0-.55 0-1.026.09-1.224a.34.34 0 0 1 .315-.19.34.34 0 0 1 .315.19c.09.198.09.675.09 1.224ZM-307.853-3110.707v-3.411c0-.603-.082-.864-.27-1.098-.235-.28-.495-.405-.937-.405-.152 0-.324.045-.459.117a1.266 1.266 0 0 0-.35.306v-.351h-1.152v4.842h1.206v-3.393c0-.297.161-.441.377-.441s.378.144.378.44v3.394Z"/><path fill="#d2673a" d="M-342.063-3099.446v-1.152h-1.673v-1.503h1.44v-1.152h-1.44v-1.45h1.673v-1.151h-2.952v6.408ZM-337.94-3099.446l-1.197-2.457 1.142-2.385h-1.34l-.505 1.233-.504-1.233h-1.332l1.116 2.385-1.178 2.457h1.34l.559-1.251.558 1.25ZM-335.474-3099.446v-1.08c-.406 0-.594-.18-.594-.558v-2.106h.594v-.91h-.594v-1.322h-1.207v1.323h-.45v.909h.45v2.187c0 .63.216 1.017.558 1.26.351.252.748.297 1.243.297ZM-331.839-3101.48c0-1.116-.045-2.007-.486-2.466-.341-.351-.702-.414-1.125-.414-.404 0-.791.063-1.134.414-.44.459-.476 1.35-.476 2.079 0 .729.036 1.62.476 2.07.343.35.675.423 1.135.423.504 0 .873-.117 1.142-.414.316-.342.423-.747.442-1.152h-1.207a.746.746 0 0 1-.063.306c-.063.117-.161.18-.315.18a.34.34 0 0 1-.315-.19c-.072-.134-.09-.512-.09-.836Zm-1.206-.873h-.81c0-.414.037-.648.09-.747.063-.117.154-.18.315-.18.162 0 .252.063.315.18.055.099.09.333.09.747ZM-327.986-3099.446v-3.411c0-.603-.082-.864-.27-1.098-.235-.28-.496-.405-.937-.405-.153 0-.324.045-.459.117a1.266 1.266 0 0 0-.35.306v-.351h-1.152v4.842h1.205v-3.393c0-.297.163-.441.379-.441s.377.144.377.44v3.394ZM-324.17-3100.931c0-.36-.09-.621-.216-.792-.162-.225-.387-.378-.73-.513l-.666-.252c-.144-.054-.252-.126-.305-.216a.341.341 0 0 1-.064-.216c0-.117.028-.207.1-.27a.394.394 0 0 1 .548.009c.063.072.1.18.1.306h1.179a1.44 1.44 0 0 0-.45-1.09c-.27-.251-.675-.395-1.099-.395-.431 0-.854.144-1.142.44-.27.28-.441.595-.441 1.117 0 .279.053.495.161.675.154.243.406.423.748.558l.675.26a.741.741 0 0 1 .315.208c.063.09.08.17.08.27 0 .099-.036.216-.099.27-.09.08-.161.099-.288.099a.408.408 0 0 1-.296-.126.481.481 0 0 1-.127-.315h-1.188c.01.486.18.81.46 1.107.27.279.72.423 1.151.423.433 0 .82-.09 1.135-.405.252-.261.459-.621.459-1.152ZM-322.317-3099.446v-4.653h-1.205v4.653Zm.036-5.184v-1.278h-1.277v1.278ZM-318.401-3101.867c0-.648-.027-1.458-.334-1.917-.315-.468-.764-.576-1.277-.576-.514 0-.964.108-1.279.576-.305.459-.332 1.269-.332 1.917 0 .648.026 1.458.332 1.917.315.468.765.576 1.279.576.512 0 .962-.108 1.277-.576.307-.46.334-1.27.334-1.917Zm-1.207 0c0 .549 0 1.026-.09 1.224a.34.34 0 0 1-.315.189.34.34 0 0 1-.315-.19c-.09-.197-.09-.674-.09-1.223 0-.55 0-1.026.09-1.224a.34.34 0 0 1 .315-.19.34.34 0 0 1 .315.19c.09.198.09.675.09 1.224ZM-314.54-3099.446v-3.411c0-.603-.082-.864-.27-1.098-.235-.28-.495-.405-.937-.405-.152 0-.323.045-.458.117a1.266 1.266 0 0 0-.352.306v-.351h-1.151v4.842h1.206v-3.393c0-.297.161-.441.377-.441s.378.144.378.44v3.394ZM-310.724-3100.931c0-.36-.09-.621-.216-.792-.163-.225-.387-.378-.73-.513l-.666-.252c-.143-.054-.251-.126-.305-.216a.341.341 0 0 1-.063-.216c0-.117.026-.207.099-.27a.394.394 0 0 1 .548.009c.064.072.1.18.1.306h1.178a1.44 1.44 0 0 0-.45-1.09c-.27-.251-.675-.395-1.098-.395-.432 0-.855.144-1.142.44-.27.28-.442.595-.442 1.117 0 .279.055.495.163.675.152.243.404.423.746.558l.675.26a.741.741 0 0 1 .315.208c.063.09.082.17.082.27 0 .099-.036.216-.1.27-.09.08-.162.099-.288.099a.408.408 0 0 1-.297-.126.481.481 0 0 1-.125-.315h-1.188c.008.486.18.81.459 1.107.27.279.72.423 1.151.423.433 0 .82-.09 1.135-.405.251-.261.459-.621.459-1.152Z"/></g></svg>