<svg xmlns="http://www.w3.org/2000/svg" width="48" height="48" viewBox="-772 -3145.185 48 48"><g fill="none"><path fill="#fff" d="M-769-3145.185h42a3 3 0 0 1 3 3v42a3 3 0 0 1-3 3h-42a3 3 0 0 1-3-3v-42a3 3 0 0 1 3-3Z"/><path fill="#efb54f" fill-opacity=".252" d="M-770.604-3122.734h3.029a19.558 19.558 0 0 1 5.691-12.346c7.669-7.668 20.102-7.668 27.77 0a19.558 19.558 0 0 1 5.692 12.346h3.029a22.57 22.57 0 0 0-6.585-14.482c-8.848-8.848-23.194-8.848-32.042 0a22.57 22.57 0 0 0-6.584 14.482Z"/><path d="M-770.604-3122.734h3.029a19.558 19.558 0 0 1 5.691-12.346c7.669-7.668 20.102-7.668 27.77 0a19.558 19.558 0 0 1 5.692 12.346h3.029a22.57 22.57 0 0 0-6.585-14.482c-8.848-8.848-23.194-8.848-32.042 0a22.57 22.57 0 0 0-6.584 14.482Z"/><path fill="#d3673a" fill-opacity=".249" d="M-764.926-3122.697h3.036a13.913 13.913 0 0 1 4.012-8.378c5.456-5.456 14.303-5.456 19.759 0a13.914 13.914 0 0 1 4.012 8.378h3.035a16.924 16.924 0 0 0-4.91-10.514c-6.637-6.636-17.396-6.636-24.033 0a16.924 16.924 0 0 0-4.91 10.514Z"/><path d="M-764.926-3122.697h3.036a13.913 13.913 0 0 1 4.012-8.378c5.456-5.456 14.303-5.456 19.759 0a13.914 13.914 0 0 1 4.012 8.378h3.035a16.924 16.924 0 0 0-4.91-10.514c-6.637-6.636-17.396-6.636-24.033 0a16.924 16.924 0 0 0-4.91 10.514Z"/><path fill="#3570a0" fill-opacity=".25" d="M-759.223-3122.734h3.06a8.308 8.308 0 0 1 16.33 0h3.059a11.28 11.28 0 0 0-3.214-6.471c-4.424-4.425-11.597-4.425-16.021 0a11.279 11.279 0 0 0-3.214 6.471Z"/><path d="M-759.223-3122.734h3.06a8.308 8.308 0 0 1 16.33 0h3.059a11.28 11.28 0 0 0-3.214-6.471c-4.424-4.425-11.597-4.425-16.021 0a11.279 11.279 0 0 0-3.214 6.471Z"/><path fill="#d3673a" d="M-764.946-3122.734h3.036a13.914 13.914 0 0 1 4.01-8.35 13.93 13.93 0 0 1 9.958-4.093c1.886.01 3.772.401 5.53 1.171l1.181-2.781a17.012 17.012 0 0 0-6.717-1.411 16.94 16.94 0 0 0-12.089 4.977 16.925 16.925 0 0 0-4.909 10.487Z"/><path d="M-764.946-3122.734h3.036a13.914 13.914 0 0 1 4.01-8.35 13.93 13.93 0 0 1 9.958-4.093c1.886.01 3.772.401 5.53 1.171l1.181-2.781a17.012 17.012 0 0 0-6.717-1.411 16.94 16.94 0 0 0-12.089 4.977 16.925 16.925 0 0 0-4.909 10.487Z"/><path fill="#3570a0" d="M-759.178-3122.697h3.055a8.27 8.27 0 0 1 2.305-4.414 8.277 8.277 0 0 1 5.421-2.42v-3.025a11.288 11.288 0 0 0-7.557 3.309 11.28 11.28 0 0 0-3.225 6.55Z"/><path d="M-759.178-3122.697h3.055a8.27 8.27 0 0 1 2.305-4.414 8.277 8.277 0 0 1 5.421-2.42v-3.025a11.288 11.288 0 0 0-7.557 3.309 11.28 11.28 0 0 0-3.225 6.55Z"/><path fill="#efb54f" d="M-770.606-3122.697h3.028a19.559 19.559 0 0 1 5.694-12.383c7.669-7.668 20.102-7.668 27.77 0 .864.864 1.63 1.789 2.3 2.76l2.624-1.515a22.768 22.768 0 0 0-2.788-3.381c-8.848-8.848-23.194-8.848-32.042 0a22.57 22.57 0 0 0-6.587 14.52Z"/><path d="M-770.606-3122.697h3.028a19.559 19.559 0 0 1 5.694-12.383c7.669-7.668 20.102-7.668 27.77 0 .864.864 1.63 1.789 2.3 2.76l2.624-1.515a22.768 22.768 0 0 0-2.788-3.381c-8.848-8.848-23.194-8.848-32.042 0a22.57 22.57 0 0 0-6.587 14.52Z"/><path fill="#3770a1" d="M-751.352-3114.534h-1.279c-.009.18-.027.36-.099.495-.072.153-.197.252-.432.252-.233 0-.36-.108-.431-.252-.154-.297-.172-1.098-.172-1.872s.019-1.575.172-1.872c.072-.144.197-.252.431-.252.235 0 .36.09.433.243.072.135.09.315.099.495h1.278c-.028-.612-.244-1.116-.577-1.431-.324-.306-.702-.46-1.233-.46-.692 0-1.115.289-1.404.649-.45.549-.476 1.395-.476 2.628s.027 2.079.476 2.628c.288.36.712.648 1.404.648.532 0 .91-.153 1.234-.46.332-.314.548-.827.576-1.44ZM-747.582-3115.128c0-.648-.027-1.458-.332-1.917-.316-.468-.765-.576-1.279-.576-.513 0-.962.108-1.278.576-.306.459-.332 1.269-.332 1.917 0 .648.026 1.458.332 1.917.316.468.765.576 1.279.576.513 0 .962-.108 1.278-.576.305-.46.332-1.27.332-1.917Zm-1.206 0c0 .549 0 1.026-.09 1.224a.34.34 0 0 1-.314.189.34.34 0 0 1-.316-.19c-.09-.197-.09-.674-.09-1.223 0-.55 0-1.026.09-1.224a.34.34 0 0 1 .316-.19.34.34 0 0 1 .314.19c.09.198.09.675.09 1.224ZM-744.495-3116.433v-1.188c-.26 0-.504.063-.71.162a1.58 1.58 0 0 0-.531.432v-.522h-1.153v4.842h1.207v-2.952c0-.486.341-.774.746-.774ZM-740.922-3114.741c0-1.116-.044-2.007-.486-2.466-.341-.351-.702-.414-1.125-.414-.404 0-.791.063-1.134.414-.44.459-.476 1.35-.476 2.079 0 .729.036 1.62.476 2.07.343.35.676.423 1.135.423.504 0 .873-.117 1.143-.414.315-.342.423-.747.44-1.152h-1.206a.746.746 0 0 1-.063.306c-.063.117-.162.18-.315.18a.34.34 0 0 1-.314-.19c-.072-.134-.09-.512-.09-.836Zm-1.206-.873h-.81c0-.414.036-.648.09-.747.063-.117.154-.18.315-.18.163 0 .253.063.316.18.053.099.09.333.09.747Z"/><path fill="#c92505" d="M-747.325-3103.165v-4.69h-1.278v4.753c0 .414-.243.576-.531.576-.288 0-.531-.162-.531-.576v-4.752h-1.278v4.689c0 .513.171.945.477 1.26.342.35.792.53 1.332.53s.99-.18 1.332-.53c.306-.315.477-.747.477-1.26ZM-746.38-3107.854h1.278v6.408h-1.278z"/></g></svg>