<?xml version="1.0" encoding="UTF-8" standalone="no"?>
<!DOCTYPE svg PUBLIC "-//W3C//DTD SVG 1.1//EN" "http://www.w3.org/Graphics/SVG/1.1/DTD/svg11.dtd">
<svg xmlns:xl="http://www.w3.org/1999/xlink" version="1.1" xmlns="http://www.w3.org/2000/svg" xmlns:dc="http://purl.org/dc/elements/1.1/" viewBox="-352 -3143.1854 48 48" width="48" height="48">
  <defs/>
  <g id="ICONES" stroke="none" stroke-opacity="1" stroke-dasharray="none" fill="none" fill-opacity="1">
    <title>ICONES</title>
    <g id="ICONES_Calque_1">
      <title>Calque 1</title>
      <g id="Group_4260">
        <g id="Graphic_4045">
          <path d="M -349 -3143.1854 L -307 -3143.1854 C -305.34315 -3143.1854 -304 -3141.8423 -304 -3140.1854 L -304 -3098.1854 C -304 -3096.5286 -305.34315 -3095.1854 -307 -3095.1854 L -349 -3095.1854 C -350.65685 -3095.1854 -352 -3096.5286 -352 -3098.1854 L -352 -3140.1854 C -352 -3141.8423 -350.65685 -3143.1854 -349 -3143.1854 Z" fill="white"/>
        </g>
        <g id="Group_4038">
          <g id="Graphic_4044">
            <path d="M -350.60404 -3120.734 L -347.57504 -3120.734 C -347.2233 -3125.2347 -345.3262 -3129.6373 -341.8837 -3133.0797 C -334.21526 -3140.7482 -321.78225 -3140.7482 -314.1138 -3133.0797 C -310.67132 -3129.6373 -308.7742 -3125.2347 -308.42248 -3120.734 L -305.39348 -3120.734 C -305.7505 -3126.0092 -307.9452 -3131.1835 -311.97765 -3135.216 C -320.82587 -3144.064 -335.17165 -3144.064 -344.01986 -3135.216 C -348.0523 -3131.1835 -350.24704 -3126.0092 -350.60404 -3120.734 Z" fill="#efb54f" fill-opacity=".25239327"/>
            <path d="M -350.60404 -3120.734 L -347.57504 -3120.734 C -347.2233 -3125.2347 -345.3262 -3129.6373 -341.8837 -3133.0797 C -334.21526 -3140.7482 -321.78225 -3140.7482 -314.1138 -3133.0797 C -310.67132 -3129.6373 -308.7742 -3125.2347 -308.42248 -3120.734 L -305.39348 -3120.734 C -305.7505 -3126.0092 -307.9452 -3131.1835 -311.97765 -3135.216 C -320.82587 -3144.064 -335.17165 -3144.064 -344.01986 -3135.216 C -348.0523 -3131.1835 -350.24704 -3126.0092 -350.60404 -3120.734 Z" stroke="#efb64f" stroke-linecap="round" stroke-linejoin="round" stroke-width="0"/>
          </g>
          <g id="Graphic_4043">
            <path d="M -344.92563 -3120.6968 L -341.8903 -3120.6968 C -341.56134 -3123.7568 -340.22406 -3126.729 -337.87844 -3129.0745 C -332.42204 -3134.531 -323.57548 -3134.531 -318.11908 -3129.0745 C -315.77346 -3126.729 -314.43618 -3123.7568 -314.10724 -3120.6968 L -311.0719 -3120.6968 C -311.41022 -3124.5324 -313.04724 -3128.275 -315.98293 -3131.2106 C -322.6191 -3137.8468 -333.37843 -3137.8468 -340.0146 -3131.2106 C -342.9503 -3128.275 -344.5873 -3124.5324 -344.92563 -3120.6968 Z" fill="#d3673a" fill-opacity=".24884463"/>
            <path d="M -344.92563 -3120.6968 L -341.8903 -3120.6968 C -341.56134 -3123.7568 -340.22406 -3126.729 -337.87844 -3129.0745 C -332.42204 -3134.531 -323.57548 -3134.531 -318.11908 -3129.0745 C -315.77346 -3126.729 -314.43618 -3123.7568 -314.10724 -3120.6968 L -311.0719 -3120.6968 C -311.41022 -3124.5324 -313.04724 -3128.275 -315.98293 -3131.2106 C -322.6191 -3137.8468 -333.37843 -3137.8468 -340.0146 -3131.2106 C -342.9503 -3128.275 -344.5873 -3124.5324 -344.92563 -3120.6968 Z" stroke="#d2673a" stroke-linecap="round" stroke-linejoin="round" stroke-width="0"/>
          </g>
          <g id="Graphic_4042">
            <path d="M -339.223 -3120.734 L -336.16342 -3120.734 C -335.8655 -3122.322 -335.10208 -3123.8403 -333.87316 -3125.0692 C -330.6288 -3128.3136 -325.3687 -3128.3136 -322.12435 -3125.0692 C -320.89544 -3123.8403 -320.13202 -3122.322 -319.8341 -3120.734 L -316.77453 -3120.734 C -317.09733 -3123.101 -318.16856 -3125.3857 -319.9882 -3127.2053 C -324.4123 -3131.6295 -331.5852 -3131.6295 -336.0093 -3127.2053 C -337.82896 -3125.3857 -338.9002 -3123.101 -339.223 -3120.734 Z" fill="#3570a0" fill-opacity=".2496699"/>
            <path d="M -339.223 -3120.734 L -336.16342 -3120.734 C -335.8655 -3122.322 -335.10208 -3123.8403 -333.87316 -3125.0692 C -330.6288 -3128.3136 -325.3687 -3128.3136 -322.12435 -3125.0692 C -320.89544 -3123.8403 -320.13202 -3122.322 -319.8341 -3120.734 L -316.77453 -3120.734 C -317.09733 -3123.101 -318.16856 -3125.3857 -319.9882 -3127.2053 C -324.4123 -3131.6295 -331.5852 -3131.6295 -336.0093 -3127.2053 C -337.82896 -3125.3857 -338.9002 -3123.101 -339.223 -3120.734 Z" stroke="#3770a0" stroke-linecap="round" stroke-linejoin="round" stroke-width="0"/>
          </g>
          <g id="Graphic_4041">
            <path d="M -344.94556 -3120.734 L -341.9097 -3120.734 C -341.57583 -3123.7844 -340.23952 -3126.746 -337.90076 -3129.0848 C -335.1525 -3131.833 -331.5442 -3133.197 -327.94224 -3133.177 C -326.0555 -3133.1663 -324.17048 -3132.776 -322.4117 -3132.0057 L -321.23095 -3134.7874 C -323.36784 -3135.718 -325.657 -3136.188 -327.94776 -3136.198 C -332.32104 -3136.2167 -336.70018 -3134.5577 -340.0369 -3131.221 C -342.96576 -3128.292 -344.60197 -3124.56 -344.94556 -3120.734 Z" fill="#d3673a"/>
            <path d="M -344.94556 -3120.734 L -341.9097 -3120.734 C -341.57583 -3123.7844 -340.23952 -3126.746 -337.90076 -3129.0848 C -335.1525 -3131.833 -331.5442 -3133.197 -327.94224 -3133.177 C -326.0555 -3133.1663 -324.17048 -3132.776 -322.4117 -3132.0057 L -321.23095 -3134.7874 C -323.36784 -3135.718 -325.657 -3136.188 -327.94776 -3136.198 C -332.32104 -3136.2167 -336.70018 -3134.5577 -340.0369 -3131.221 C -342.96576 -3128.292 -344.60197 -3124.56 -344.94556 -3120.734 Z" stroke="#d2673a" stroke-linecap="round" stroke-linejoin="round" stroke-width="0"/>
          </g>
          <g id="Graphic_4040">
            <path d="M -339.1785 -3120.6968 L -336.12287 -3120.6968 C -335.83565 -3122.3136 -335.06744 -3123.8616 -333.81823 -3125.111 C -332.31135 -3126.6177 -330.3696 -3127.4247 -328.39698 -3127.5318 L -328.39698 -3130.556 C -331.14338 -3130.4468 -333.8576 -3129.3438 -335.95438 -3127.247 C -337.7942 -3125.407 -338.8689 -3123.092 -339.1785 -3120.6968 Z" fill="#3570a0"/>
            <path d="M -339.1785 -3120.6968 L -336.12287 -3120.6968 C -335.83565 -3122.3136 -335.06744 -3123.8616 -333.81823 -3125.111 C -332.31135 -3126.6177 -330.3696 -3127.4247 -328.39698 -3127.5318 L -328.39698 -3130.556 C -331.14338 -3130.4468 -333.8576 -3129.3438 -335.95438 -3127.247 C -337.7942 -3125.407 -338.8689 -3123.092 -339.1785 -3120.6968 Z" stroke="#3770a0" stroke-linecap="round" stroke-linejoin="round" stroke-width="0"/>
          </g>
          <g id="Graphic_4039">
            <path d="M -350.60652 -3120.6968 L -347.5779 -3120.6968 C -347.23372 -3125.2104 -345.33566 -3129.628 -341.8837 -3133.0797 C -334.21526 -3140.7482 -321.78225 -3140.7482 -314.1138 -3133.0797 C -313.24983 -3132.2158 -312.4832 -3131.2913 -311.8139 -3130.32 L -309.18996 -3131.835 C -309.9934 -3133.0277 -310.92262 -3134.161 -311.97765 -3135.216 C -320.82587 -3144.064 -335.17165 -3144.064 -344.01986 -3135.216 C -348.06177 -3131.174 -350.2573 -3125.985 -350.60652 -3120.6968 Z" fill="#efb54f"/>
            <path d="M -350.60652 -3120.6968 L -347.5779 -3120.6968 C -347.23372 -3125.2104 -345.33566 -3129.628 -341.8837 -3133.0797 C -334.21526 -3140.7482 -321.78225 -3140.7482 -314.1138 -3133.0797 C -313.24983 -3132.2158 -312.4832 -3131.2913 -311.8139 -3130.32 L -309.18996 -3131.835 C -309.9934 -3133.0277 -310.92262 -3134.161 -311.97765 -3135.216 C -320.82587 -3144.064 -335.17165 -3144.064 -344.01986 -3135.216 C -348.06177 -3131.174 -350.2573 -3125.985 -350.60652 -3120.6968 Z" stroke="#efb64f" stroke-linecap="round" stroke-linejoin="round" stroke-width="0"/>
          </g>
        </g>
        <g id="Group_4218">
          <title/>
          <g id="Graphic_4195">
            <path d="M -344.6365 -3112.5344 C -344.6365 -3113.6954 -344.8705 -3114.0554 -345.6805 -3114.3884 L -346.4815 -3114.7124 C -346.8505 -3114.8654 -346.9225 -3114.9824 -346.9225 -3115.3874 C -346.9225 -3115.6034 -346.8955 -3115.7384 -346.8145 -3115.8464 C -346.7425 -3115.9454 -346.6255 -3116.0174 -346.4455 -3116.0174 C -346.2565 -3116.0174 -346.1485 -3115.9544 -346.0765 -3115.8554 C -345.9685 -3115.7114 -345.9685 -3115.5044 -345.9685 -3115.2794 L -344.6905 -3115.2794 C -344.6905 -3115.9274 -344.8345 -3116.4404 -345.1855 -3116.7644 C -345.4645 -3117.0254 -345.8785 -3117.1694 -346.4455 -3117.1694 C -346.9315 -3117.1694 -347.3185 -3117.0254 -347.6245 -3116.7644 C -348.0115 -3116.4314 -348.2005 -3115.9364 -348.2005 -3115.3424 C -348.2005 -3114.3434 -347.9305 -3114.0014 -347.2825 -3113.7314 L -346.4725 -3113.3984 C -346.0135 -3113.2094 -345.9145 -3113.1014 -345.9145 -3112.4894 C -345.9145 -3112.2284 -345.9505 -3112.0574 -346.0405 -3111.9494 C -346.1215 -3111.8414 -346.2475 -3111.7874 -346.4455 -3111.7874 C -346.6435 -3111.7874 -346.7695 -3111.8594 -346.8415 -3111.9404 C -346.9585 -3112.0754 -346.9765 -3112.2644 -346.9765 -3112.5254 L -348.2545 -3112.5254 C -348.2545 -3111.8684 -348.1465 -3111.4184 -347.8315 -3111.1034 C -347.5435 -3110.8154 -347.0755 -3110.6354 -346.4455 -3110.6354 C -345.8245 -3110.6354 -345.3385 -3110.8334 -345.0505 -3111.1124 C -344.7175 -3111.4364 -344.6365 -3111.8864 -344.6365 -3112.5344 Z" fill="#3770a1"/>
          </g>
          <g id="Graphic_4196">
            <path d="M -340.8295 -3112.7414 C -340.8295 -3113.8574 -340.8745 -3114.7484 -341.3155 -3115.2074 C -341.6575 -3115.5584 -342.0175 -3115.6214 -342.4405 -3115.6214 C -342.8455 -3115.6214 -343.2325 -3115.5584 -343.5745 -3115.2074 C -344.0155 -3114.7484 -344.0515 -3113.8574 -344.0515 -3113.1284 C -344.0515 -3112.3994 -344.0155 -3111.5084 -343.5745 -3111.0584 C -343.2325 -3110.7074 -342.8995 -3110.6354 -342.4405 -3110.6354 C -341.9365 -3110.6354 -341.5675 -3110.7524 -341.2975 -3111.0494 C -340.9825 -3111.3914 -340.8745 -3111.7964 -340.8565 -3112.2014 L -342.0625 -3112.2014 C -342.0625 -3112.1204 -342.0805 -3111.9764 -342.1255 -3111.8954 C -342.1885 -3111.7784 -342.2875 -3111.7154 -342.4405 -3111.7154 C -342.5935 -3111.7154 -342.7015 -3111.7964 -342.7555 -3111.9044 C -342.8275 -3112.0394 -342.8455 -3112.4174 -342.8455 -3112.7414 Z M -342.0355 -3113.6144 L -342.8455 -3113.6144 C -342.8455 -3114.0284 -342.8095 -3114.2624 -342.7555 -3114.3614 C -342.6925 -3114.4784 -342.6025 -3114.5414 -342.4405 -3114.5414 C -342.2785 -3114.5414 -342.1885 -3114.4784 -342.1255 -3114.3614 C -342.0715 -3114.2624 -342.0355 -3114.0284 -342.0355 -3113.6144 Z" fill="#3770a1"/>
          </g>
          <g id="Graphic_4197">
            <path d="M -337.7515 -3114.4334 L -337.7515 -3115.6214 C -338.0125 -3115.6214 -338.2555 -3115.5584 -338.4625 -3115.4594 C -338.6785 -3115.3514 -338.8585 -3115.1984 -338.9935 -3115.0274 L -338.9935 -3115.5494 L -340.1455 -3115.5494 L -340.1455 -3110.7074 L -338.9395 -3110.7074 L -338.9395 -3113.6594 C -338.9395 -3114.1454 -338.5975 -3114.4334 -338.1925 -3114.4334 Z" fill="#3770a1"/>
          </g>
          <g id="Graphic_4198">
            <path d="M -335.9695 -3110.7074 L -335.9695 -3115.3604 L -337.1755 -3115.3604 L -337.1755 -3110.7074 Z M -335.9335 -3115.8914 L -335.9335 -3117.1694 L -337.2115 -3117.1694 L -337.2115 -3115.8914 Z" fill="#3770a1"/>
          </g>
          <g id="Graphic_4199">
            <path d="M -332.1265 -3110.7074 L -332.1265 -3114.0194 C -332.1265 -3114.5684 -332.3155 -3114.9554 -332.5855 -3115.2254 C -332.8735 -3115.5134 -333.2875 -3115.6214 -333.7015 -3115.6214 C -334.1245 -3115.6214 -334.5835 -3115.4324 -334.8265 -3115.1894 C -335.1415 -3114.8654 -335.2675 -3114.5054 -335.2675 -3114.1094 L -334.0615 -3114.1094 C -334.0615 -3114.2444 -334.0255 -3114.3524 -333.9535 -3114.4424 C -333.8905 -3114.5144 -333.8185 -3114.5594 -333.6925 -3114.5594 C -333.4675 -3114.5594 -333.3325 -3114.4064 -333.3325 -3114.1364 L -333.3325 -3113.5784 L -333.7015 -3113.5784 C -334.3315 -3113.5784 -334.6465 -3113.4434 -334.8895 -3113.2364 C -335.1955 -3112.9754 -335.3575 -3112.5974 -335.3575 -3112.1564 C -335.3575 -3111.6974 -335.2855 -3111.3374 -335.0785 -3111.0854 C -334.8175 -3110.7614 -334.5475 -3110.6354 -334.0975 -3110.6354 C -333.8545 -3110.6354 -333.7105 -3110.6894 -333.5665 -3110.7884 C -333.4405 -3110.8694 -333.3505 -3110.9864 -333.2515 -3111.1034 L -333.2515 -3110.7074 Z M -333.3325 -3112.2104 C -333.3325 -3111.8684 -333.5215 -3111.6884 -333.7375 -3111.6884 C -333.9895 -3111.6884 -334.1515 -3111.8594 -334.1515 -3112.2104 C -334.1515 -3112.3364 -334.0975 -3112.5344 -333.9985 -3112.6244 C -333.8725 -3112.7414 -333.7375 -3112.7414 -333.5395 -3112.7414 L -333.3325 -3112.7414 Z" fill="#3770a1"/>
          </g>
          <g id="Graphic_4200">
            <path d="M -329.5345 -3110.7074 L -329.5345 -3111.7874 C -329.9395 -3111.7874 -330.1285 -3111.9674 -330.1285 -3112.3454 L -330.1285 -3117.1154 L -331.3345 -3117.1154 L -331.3345 -3112.2644 C -331.3345 -3111.6344 -331.1185 -3111.2474 -330.7765 -3111.0044 C -330.4255 -3110.7524 -330.0295 -3110.7074 -329.5345 -3110.7074 Z" fill="#3770a1"/>
          </g>
          <g id="Graphic_4201">
            <path d="M -327.7525 -3110.7074 L -327.7525 -3115.3604 L -328.9585 -3115.3604 L -328.9585 -3110.7074 Z M -327.7165 -3115.8914 L -327.7165 -3117.1694 L -328.9945 -3117.1694 L -328.9945 -3115.8914 Z" fill="#3770a1"/>
          </g>
          <g id="Graphic_4202">
            <path d="M -323.9185 -3112.1924 C -323.9185 -3112.5524 -324.0085 -3112.8134 -324.1345 -3112.9844 C -324.2965 -3113.2094 -324.5215 -3113.3624 -324.8635 -3113.4974 L -325.5295 -3113.7494 C -325.6735 -3113.8034 -325.7815 -3113.8754 -325.8355 -3113.9654 C -325.8805 -3114.0284 -325.8985 -3114.0914 -325.8985 -3114.1814 C -325.8985 -3114.2984 -325.8715 -3114.3884 -325.7995 -3114.4514 C -325.7365 -3114.5144 -325.6375 -3114.5594 -325.5205 -3114.5594 C -325.4215 -3114.5594 -325.3225 -3114.5144 -325.2505 -3114.4424 C -325.1875 -3114.3704 -325.1515 -3114.2624 -325.1515 -3114.1364 L -323.9725 -3114.1364 C -323.9725 -3114.6314 -324.1615 -3114.9734 -324.4225 -3115.2254 C -324.6925 -3115.4774 -325.0975 -3115.6214 -325.5205 -3115.6214 C -325.9525 -3115.6214 -326.3755 -3115.4774 -326.6635 -3115.1804 C -326.9335 -3114.9014 -327.1045 -3114.5864 -327.1045 -3114.0644 C -327.1045 -3113.7854 -327.0505 -3113.5694 -326.9425 -3113.3894 C -326.7895 -3113.1464 -326.5375 -3112.9664 -326.1955 -3112.8314 L -325.5205 -3112.5704 C -325.3855 -3112.5164 -325.2775 -3112.4534 -325.2055 -3112.3634 C -325.1425 -3112.2734 -325.1245 -3112.1924 -325.1245 -3112.0934 C -325.1245 -3111.9944 -325.1605 -3111.8774 -325.2235 -3111.8234 C -325.3135 -3111.7424 -325.3855 -3111.7244 -325.5115 -3111.7244 C -325.6195 -3111.7244 -325.7365 -3111.7694 -325.8085 -3111.8504 C -325.8805 -3111.9224 -325.9255 -3112.0304 -325.9345 -3112.1654 L -327.1225 -3112.1654 C -327.1135 -3111.6794 -326.9425 -3111.3554 -326.6635 -3111.0584 C -326.3935 -3110.7794 -325.9435 -3110.6354 -325.5115 -3110.6354 C -325.0795 -3110.6354 -324.6925 -3110.7254 -324.3775 -3111.0404 C -324.1255 -3111.3014 -323.9185 -3111.6614 -323.9185 -3112.1924 Z" fill="#3770a1"/>
          </g>
          <g id="Graphic_4203">
            <path d="M -320.2555 -3110.7074 L -320.2555 -3114.0194 C -320.2555 -3114.5684 -320.4445 -3114.9554 -320.7145 -3115.2254 C -321.0025 -3115.5134 -321.4165 -3115.6214 -321.8305 -3115.6214 C -322.2535 -3115.6214 -322.7125 -3115.4324 -322.9555 -3115.1894 C -323.2705 -3114.8654 -323.3965 -3114.5054 -323.3965 -3114.1094 L -322.1905 -3114.1094 C -322.1905 -3114.2444 -322.1545 -3114.3524 -322.0825 -3114.4424 C -322.0195 -3114.5144 -321.9475 -3114.5594 -321.8215 -3114.5594 C -321.5965 -3114.5594 -321.4615 -3114.4064 -321.4615 -3114.1364 L -321.4615 -3113.5784 L -321.8305 -3113.5784 C -322.4605 -3113.5784 -322.7755 -3113.4434 -323.0185 -3113.2364 C -323.3245 -3112.9754 -323.4865 -3112.5974 -323.4865 -3112.1564 C -323.4865 -3111.6974 -323.4145 -3111.3374 -323.2075 -3111.0854 C -322.9465 -3110.7614 -322.6765 -3110.6354 -322.2265 -3110.6354 C -321.9835 -3110.6354 -321.8395 -3110.6894 -321.6955 -3110.7884 C -321.5695 -3110.8694 -321.4795 -3110.9864 -321.3805 -3111.1034 L -321.3805 -3110.7074 Z M -321.4615 -3112.2104 C -321.4615 -3111.8684 -321.6505 -3111.6884 -321.8665 -3111.6884 C -322.1185 -3111.6884 -322.2805 -3111.8594 -322.2805 -3112.2104 C -322.2805 -3112.3364 -322.2265 -3112.5344 -322.1275 -3112.6244 C -322.0015 -3112.7414 -321.8665 -3112.7414 -321.6685 -3112.7414 L -321.4615 -3112.7414 Z" fill="#3770a1"/>
          </g>
          <g id="Graphic_4204">
            <path d="M -317.4295 -3110.7074 L -317.4295 -3111.7874 C -317.8345 -3111.7874 -318.0235 -3111.9674 -318.0235 -3112.3454 L -318.0235 -3114.4514 L -317.4295 -3114.4514 L -317.4295 -3115.3604 L -318.0235 -3115.3604 L -318.0235 -3116.6834 L -319.2295 -3116.6834 L -319.2295 -3115.3604 L -319.6795 -3115.3604 L -319.6795 -3114.4514 L -319.2295 -3114.4514 L -319.2295 -3112.2644 C -319.2295 -3111.6344 -319.0135 -3111.2474 -318.6715 -3111.0044 C -318.3205 -3110.7524 -317.9245 -3110.7074 -317.4295 -3110.7074 Z" fill="#3770a1"/>
          </g>
          <g id="Graphic_4205">
            <path d="M -315.6295 -3110.7074 L -315.6295 -3115.3604 L -316.8355 -3115.3604 L -316.8355 -3110.7074 Z M -315.5935 -3115.8914 L -315.5935 -3117.1694 L -316.8715 -3117.1694 L -316.8715 -3115.8914 Z" fill="#3770a1"/>
          </g>
          <g id="Graphic_4206">
            <path d="M -311.7145 -3113.1284 C -311.7145 -3113.7764 -311.7415 -3114.5864 -312.0475 -3115.0454 C -312.3625 -3115.5134 -312.8125 -3115.6214 -313.3255 -3115.6214 C -313.8385 -3115.6214 -314.2885 -3115.5134 -314.6035 -3115.0454 C -314.9095 -3114.5864 -314.9365 -3113.7764 -314.9365 -3113.1284 C -314.9365 -3112.4804 -314.9095 -3111.6704 -314.6035 -3111.2114 C -314.2885 -3110.7434 -313.8385 -3110.6354 -313.3255 -3110.6354 C -312.8125 -3110.6354 -312.3625 -3110.7434 -312.0475 -3111.2114 C -311.7415 -3111.6704 -311.7145 -3112.4804 -311.7145 -3113.1284 Z M -312.9205 -3113.1284 C -312.9205 -3112.5794 -312.9205 -3112.1024 -313.0105 -3111.9044 C -313.0735 -3111.7694 -313.2085 -3111.7154 -313.3255 -3111.7154 C -313.4425 -3111.7154 -313.5775 -3111.7694 -313.6405 -3111.9044 C -313.7305 -3112.1024 -313.7305 -3112.5794 -313.7305 -3113.1284 C -313.7305 -3113.6774 -313.7305 -3114.1544 -313.6405 -3114.3524 C -313.5775 -3114.4874 -313.4425 -3114.5414 -313.3255 -3114.5414 C -313.2085 -3114.5414 -313.0735 -3114.4874 -313.0105 -3114.3524 C -312.9205 -3114.1544 -312.9205 -3113.6774 -312.9205 -3113.1284 Z" fill="#3770a1"/>
          </g>
          <g id="Graphic_4207">
            <path d="M -307.8535 -3110.7074 L -307.8535 -3114.1184 C -307.8535 -3114.7214 -307.9345 -3114.9824 -308.1235 -3115.2164 C -308.3575 -3115.4954 -308.6185 -3115.6214 -309.0595 -3115.6214 C -309.2125 -3115.6214 -309.3835 -3115.5764 -309.5185 -3115.5044 C -309.6535 -3115.4324 -309.7705 -3115.3154 -309.8695 -3115.1984 L -309.8695 -3115.5494 L -311.0215 -3115.5494 L -311.0215 -3110.7074 L -309.8155 -3110.7074 L -309.8155 -3114.1004 C -309.8155 -3114.3974 -309.6535 -3114.5414 -309.4375 -3114.5414 C -309.2215 -3114.5414 -309.0595 -3114.3974 -309.0595 -3114.1004 L -309.0595 -3110.7074 Z" fill="#3770a1"/>
          </g>
          <g id="Graphic_4208">
            <path d="M -342.0625 -3099.4464 L -342.0625 -3100.5984 L -343.7365 -3100.5984 L -343.7365 -3102.1014 L -342.2965 -3102.1014 L -342.2965 -3103.2534 L -343.7365 -3103.2534 L -343.7365 -3104.7024 L -342.0625 -3104.7024 L -342.0625 -3105.8544 L -345.0145 -3105.8544 L -345.0145 -3099.4464 Z" fill="#d2673a"/>
          </g>
          <g id="Graphic_4209">
            <path d="M -337.9405 -3099.4464 L -339.1375 -3101.9034 L -337.9945 -3104.2884 L -339.3355 -3104.2884 L -339.8395 -3103.0554 L -340.3435 -3104.2884 L -341.6755 -3104.2884 L -340.5595 -3101.9034 L -341.7385 -3099.4464 L -340.3975 -3099.4464 L -339.8395 -3100.6974 L -339.2815 -3099.4464 Z" fill="#d2673a"/>
          </g>
          <g id="Graphic_4210">
            <path d="M -335.4745 -3099.4464 L -335.4745 -3100.5264 C -335.8795 -3100.5264 -336.0685 -3100.7064 -336.0685 -3101.0844 L -336.0685 -3103.1904 L -335.4745 -3103.1904 L -335.4745 -3104.0994 L -336.0685 -3104.0994 L -336.0685 -3105.4224 L -337.2745 -3105.4224 L -337.2745 -3104.0994 L -337.7245 -3104.0994 L -337.7245 -3103.1904 L -337.2745 -3103.1904 L -337.2745 -3101.0034 C -337.2745 -3100.3734 -337.0585 -3099.9864 -336.7165 -3099.7434 C -336.3655 -3099.4914 -335.9695 -3099.4464 -335.4745 -3099.4464 Z" fill="#d2673a"/>
          </g>
          <g id="Graphic_4211">
            <path d="M -331.8385 -3101.4804 C -331.8385 -3102.5964 -331.8835 -3103.4874 -332.3245 -3103.9464 C -332.6665 -3104.2974 -333.0265 -3104.3604 -333.4495 -3104.3604 C -333.8545 -3104.3604 -334.2415 -3104.2974 -334.5835 -3103.9464 C -335.0245 -3103.4874 -335.0605 -3102.5964 -335.0605 -3101.8674 C -335.0605 -3101.1384 -335.0245 -3100.2474 -334.5835 -3099.7974 C -334.2415 -3099.4464 -333.9085 -3099.3744 -333.4495 -3099.3744 C -332.9455 -3099.3744 -332.5765 -3099.4914 -332.3065 -3099.7884 C -331.9915 -3100.1304 -331.8835 -3100.5354 -331.8655 -3100.9404 L -333.0715 -3100.9404 C -333.0715 -3100.8594 -333.0895 -3100.7154 -333.1345 -3100.6344 C -333.1975 -3100.5174 -333.2965 -3100.4544 -333.4495 -3100.4544 C -333.6025 -3100.4544 -333.7105 -3100.5354 -333.7645 -3100.6434 C -333.8365 -3100.7784 -333.8545 -3101.1564 -333.8545 -3101.4804 Z M -333.0445 -3102.3534 L -333.8545 -3102.3534 C -333.8545 -3102.7674 -333.8185 -3103.0014 -333.7645 -3103.1004 C -333.7015 -3103.2174 -333.6115 -3103.2804 -333.4495 -3103.2804 C -333.2875 -3103.2804 -333.1975 -3103.2174 -333.1345 -3103.1004 C -333.0805 -3103.0014 -333.0445 -3102.7674 -333.0445 -3102.3534 Z" fill="#d2673a"/>
          </g>
          <g id="Graphic_4212">
            <path d="M -327.9865 -3099.4464 L -327.9865 -3102.8574 C -327.9865 -3103.4604 -328.0675 -3103.7214 -328.2565 -3103.9554 C -328.4905 -3104.2344 -328.7515 -3104.3604 -329.1925 -3104.3604 C -329.3455 -3104.3604 -329.5165 -3104.3154 -329.6515 -3104.2434 C -329.7865 -3104.1714 -329.9035 -3104.0544 -330.0025 -3103.9374 L -330.0025 -3104.2884 L -331.1545 -3104.2884 L -331.1545 -3099.4464 L -329.9485 -3099.4464 L -329.9485 -3102.8394 C -329.9485 -3103.1364 -329.7865 -3103.2804 -329.5705 -3103.2804 C -329.3545 -3103.2804 -329.1925 -3103.1364 -329.1925 -3102.8394 L -329.1925 -3099.4464 Z" fill="#d2673a"/>
          </g>
          <g id="Graphic_4213">
            <path d="M -324.1705 -3100.9314 C -324.1705 -3101.2914 -324.2605 -3101.5524 -324.3865 -3101.7234 C -324.5485 -3101.9484 -324.7735 -3102.1014 -325.1155 -3102.2364 L -325.7815 -3102.4884 C -325.9255 -3102.5424 -326.0335 -3102.6144 -326.0875 -3102.7044 C -326.1325 -3102.7674 -326.1505 -3102.8304 -326.1505 -3102.9204 C -326.1505 -3103.0374 -326.1235 -3103.1274 -326.0515 -3103.1904 C -325.9885 -3103.2534 -325.8895 -3103.2984 -325.7725 -3103.2984 C -325.6735 -3103.2984 -325.5745 -3103.2534 -325.5025 -3103.1814 C -325.4395 -3103.1094 -325.4035 -3103.0014 -325.4035 -3102.8754 L -324.2245 -3102.8754 C -324.2245 -3103.3704 -324.4135 -3103.7124 -324.6745 -3103.9644 C -324.9445 -3104.2164 -325.3495 -3104.3604 -325.7725 -3104.3604 C -326.2045 -3104.3604 -326.6275 -3104.2164 -326.9155 -3103.9194 C -327.1855 -3103.6404 -327.3565 -3103.3254 -327.3565 -3102.8034 C -327.3565 -3102.5244 -327.3025 -3102.3084 -327.1945 -3102.1284 C -327.0415 -3101.8854 -326.7895 -3101.7054 -326.4475 -3101.5704 L -325.7725 -3101.3094 C -325.6375 -3101.2554 -325.5295 -3101.1924 -325.4575 -3101.1024 C -325.3945 -3101.0124 -325.3765 -3100.9314 -325.3765 -3100.8324 C -325.3765 -3100.7334 -325.4125 -3100.6164 -325.4755 -3100.5624 C -325.5655 -3100.4814 -325.6375 -3100.4634 -325.7635 -3100.4634 C -325.8715 -3100.4634 -325.9885 -3100.5084 -326.0605 -3100.5894 C -326.1325 -3100.6614 -326.1775 -3100.7694 -326.1865 -3100.9044 L -327.3745 -3100.9044 C -327.3655 -3100.4184 -327.1945 -3100.0944 -326.9155 -3099.7974 C -326.6455 -3099.5184 -326.1955 -3099.3744 -325.7635 -3099.3744 C -325.3315 -3099.3744 -324.9445 -3099.4644 -324.6295 -3099.7794 C -324.3775 -3100.0404 -324.1705 -3100.4004 -324.1705 -3100.9314 Z" fill="#d2673a"/>
          </g>
          <g id="Graphic_4214">
            <path d="M -322.3165 -3099.4464 L -322.3165 -3104.0994 L -323.5225 -3104.0994 L -323.5225 -3099.4464 Z M -322.2805 -3104.6304 L -322.2805 -3105.9084 L -323.5585 -3105.9084 L -323.5585 -3104.6304 Z" fill="#d2673a"/>
          </g>
          <g id="Graphic_4215">
            <path d="M -318.4015 -3101.8674 C -318.4015 -3102.5154 -318.4285 -3103.3254 -318.7345 -3103.7844 C -319.0495 -3104.2524 -319.4995 -3104.3604 -320.0125 -3104.3604 C -320.5255 -3104.3604 -320.9755 -3104.2524 -321.2905 -3103.7844 C -321.5965 -3103.3254 -321.6235 -3102.5154 -321.6235 -3101.8674 C -321.6235 -3101.2194 -321.5965 -3100.4094 -321.2905 -3099.9504 C -320.9755 -3099.4824 -320.5255 -3099.3744 -320.0125 -3099.3744 C -319.4995 -3099.3744 -319.0495 -3099.4824 -318.7345 -3099.9504 C -318.4285 -3100.4094 -318.4015 -3101.2194 -318.4015 -3101.8674 Z M -319.6075 -3101.8674 C -319.6075 -3101.3184 -319.6075 -3100.8414 -319.6975 -3100.6434 C -319.7605 -3100.5084 -319.8955 -3100.4544 -320.0125 -3100.4544 C -320.1295 -3100.4544 -320.2645 -3100.5084 -320.3275 -3100.6434 C -320.4175 -3100.8414 -320.4175 -3101.3184 -320.4175 -3101.8674 C -320.4175 -3102.4164 -320.4175 -3102.8934 -320.3275 -3103.0914 C -320.2645 -3103.2264 -320.1295 -3103.2804 -320.0125 -3103.2804 C -319.8955 -3103.2804 -319.7605 -3103.2264 -319.6975 -3103.0914 C -319.6075 -3102.8934 -319.6075 -3102.4164 -319.6075 -3101.8674 Z" fill="#d2673a"/>
          </g>
          <g id="Graphic_4216">
            <path d="M -314.5405 -3099.4464 L -314.5405 -3102.8574 C -314.5405 -3103.4604 -314.6215 -3103.7214 -314.8105 -3103.9554 C -315.0445 -3104.2344 -315.3055 -3104.3604 -315.7465 -3104.3604 C -315.8995 -3104.3604 -316.0705 -3104.3154 -316.2055 -3104.2434 C -316.3405 -3104.1714 -316.4575 -3104.0544 -316.5565 -3103.9374 L -316.5565 -3104.2884 L -317.7085 -3104.2884 L -317.7085 -3099.4464 L -316.5025 -3099.4464 L -316.5025 -3102.8394 C -316.5025 -3103.1364 -316.3405 -3103.2804 -316.1245 -3103.2804 C -315.9085 -3103.2804 -315.7465 -3103.1364 -315.7465 -3102.8394 L -315.7465 -3099.4464 Z" fill="#d2673a"/>
          </g>
          <g id="Graphic_4217">
            <path d="M -310.7245 -3100.9314 C -310.7245 -3101.2914 -310.8145 -3101.5524 -310.9405 -3101.7234 C -311.1025 -3101.9484 -311.3275 -3102.1014 -311.6695 -3102.2364 L -312.3355 -3102.4884 C -312.4795 -3102.5424 -312.5875 -3102.6144 -312.6415 -3102.7044 C -312.6865 -3102.7674 -312.7045 -3102.8304 -312.7045 -3102.9204 C -312.7045 -3103.0374 -312.6775 -3103.1274 -312.6055 -3103.1904 C -312.5425 -3103.2534 -312.4435 -3103.2984 -312.3265 -3103.2984 C -312.2275 -3103.2984 -312.1285 -3103.2534 -312.0565 -3103.1814 C -311.9935 -3103.1094 -311.9575 -3103.0014 -311.9575 -3102.8754 L -310.7785 -3102.8754 C -310.7785 -3103.3704 -310.9675 -3103.7124 -311.2285 -3103.9644 C -311.4985 -3104.2164 -311.9035 -3104.3604 -312.3265 -3104.3604 C -312.7585 -3104.3604 -313.1815 -3104.2164 -313.4695 -3103.9194 C -313.7395 -3103.6404 -313.9105 -3103.3254 -313.9105 -3102.8034 C -313.9105 -3102.5244 -313.8565 -3102.3084 -313.7485 -3102.1284 C -313.5955 -3101.8854 -313.3435 -3101.7054 -313.0015 -3101.5704 L -312.3265 -3101.3094 C -312.1915 -3101.2554 -312.0835 -3101.1924 -312.0115 -3101.1024 C -311.9485 -3101.0124 -311.9305 -3100.9314 -311.9305 -3100.8324 C -311.9305 -3100.7334 -311.9665 -3100.6164 -312.0295 -3100.5624 C -312.1195 -3100.4814 -312.1915 -3100.4634 -312.3175 -3100.4634 C -312.4255 -3100.4634 -312.5425 -3100.5084 -312.6145 -3100.5894 C -312.6865 -3100.6614 -312.7315 -3100.7694 -312.7405 -3100.9044 L -313.9285 -3100.9044 C -313.9195 -3100.4184 -313.7485 -3100.0944 -313.4695 -3099.7974 C -313.1995 -3099.5184 -312.7495 -3099.3744 -312.3175 -3099.3744 C -311.8855 -3099.3744 -311.4985 -3099.4644 -311.1835 -3099.7794 C -310.9315 -3100.0404 -310.7245 -3100.4004 -310.7245 -3100.9314 Z" fill="#d2673a"/>
          </g>
        </g>
      </g>
    </g>
  </g>
</svg>
