<svg xmlns="http://www.w3.org/2000/svg" width="48" height="48" viewBox="-472 -3145.185 48 48"><g fill="none"><path fill="#fff" d="M-469-3145.185h42a3 3 0 0 1 3 3v42a3 3 0 0 1-3 3h-42a3 3 0 0 1-3-3v-42a3 3 0 0 1 3-3Z"/><path fill="#efb54f" fill-opacity=".252" d="M-470.604-3122.734h3.029a19.558 19.558 0 0 1 5.691-12.346c7.669-7.668 20.102-7.668 27.77 0a19.558 19.558 0 0 1 5.691 12.346h3.03a22.57 22.57 0 0 0-6.585-14.482c-8.848-8.848-23.194-8.848-32.042 0a22.57 22.57 0 0 0-6.584 14.482Z"/><path d="M-470.604-3122.734h3.029a19.558 19.558 0 0 1 5.691-12.346c7.669-7.668 20.102-7.668 27.77 0a19.558 19.558 0 0 1 5.691 12.346h3.03a22.57 22.57 0 0 0-6.585-14.482c-8.848-8.848-23.194-8.848-32.042 0a22.57 22.57 0 0 0-6.584 14.482Z"/><path fill="#d3673a" fill-opacity=".249" d="M-464.926-3122.697h3.036a13.913 13.913 0 0 1 4.012-8.378c5.456-5.456 14.303-5.456 19.759 0a13.913 13.913 0 0 1 4.012 8.378h3.035a16.924 16.924 0 0 0-4.91-10.514c-6.637-6.636-17.396-6.636-24.033 0a16.924 16.924 0 0 0-4.91 10.514Z"/><path d="M-464.926-3122.697h3.036a13.913 13.913 0 0 1 4.012-8.378c5.456-5.456 14.303-5.456 19.759 0a13.913 13.913 0 0 1 4.012 8.378h3.035a16.924 16.924 0 0 0-4.91-10.514c-6.637-6.636-17.396-6.636-24.033 0a16.924 16.924 0 0 0-4.91 10.514Z"/><path fill="#3570a0" fill-opacity=".25" d="M-459.223-3122.734h3.06a8.308 8.308 0 0 1 16.33 0h3.058a11.279 11.279 0 0 0-3.213-6.471c-4.424-4.425-11.597-4.425-16.021 0a11.279 11.279 0 0 0-3.214 6.471Z"/><path d="M-459.223-3122.734h3.06a8.308 8.308 0 0 1 16.33 0h3.058a11.279 11.279 0 0 0-3.213-6.471c-4.424-4.425-11.597-4.425-16.021 0a11.279 11.279 0 0 0-3.214 6.471Z"/><path fill="#d3673a" d="M-464.946-3122.734h3.036a13.914 13.914 0 0 1 4.01-8.35 13.93 13.93 0 0 1 9.958-4.093c1.887.01 3.772.401 5.53 1.171l1.181-2.781a17.012 17.012 0 0 0-6.717-1.411 16.94 16.94 0 0 0-12.089 4.977 16.925 16.925 0 0 0-4.909 10.487Z"/><path d="M-464.946-3122.734h3.036a13.914 13.914 0 0 1 4.01-8.35 13.93 13.93 0 0 1 9.958-4.093c1.887.01 3.772.401 5.53 1.171l1.181-2.781a17.012 17.012 0 0 0-6.717-1.411 16.94 16.94 0 0 0-12.089 4.977 16.925 16.925 0 0 0-4.909 10.487Z"/><path fill="#3570a0" d="M-459.178-3122.697h3.055a8.27 8.27 0 0 1 2.305-4.414 8.278 8.278 0 0 1 5.421-2.42v-3.025a11.288 11.288 0 0 0-7.557 3.309 11.28 11.28 0 0 0-3.224 6.55Z"/><path d="M-459.178-3122.697h3.055a8.27 8.27 0 0 1 2.305-4.414 8.278 8.278 0 0 1 5.421-2.42v-3.025a11.288 11.288 0 0 0-7.557 3.309 11.28 11.28 0 0 0-3.224 6.55Z"/><path fill="#efb54f" d="M-470.606-3122.697h3.028a19.559 19.559 0 0 1 5.694-12.383c7.669-7.668 20.102-7.668 27.77 0 .864.864 1.63 1.789 2.3 2.76l2.624-1.515a22.77 22.77 0 0 0-2.788-3.381c-8.848-8.848-23.194-8.848-32.042 0a22.57 22.57 0 0 0-6.587 14.52Z"/><path d="M-470.606-3122.697h3.028a19.559 19.559 0 0 1 5.694-12.383c7.669-7.668 20.102-7.668 27.77 0 .864.864 1.63 1.789 2.3 2.76l2.624-1.515a22.77 22.77 0 0 0-2.788-3.381c-8.848-8.848-23.194-8.848-32.042 0a22.57 22.57 0 0 0-6.587 14.52Z"/><path fill="#3770a1" d="M-454.426-3112.707v-6.408h-1.134l-1.17 3.14-1.17-3.14h-1.125v6.408h1.278v-3.33l.684 2.187h.657l.702-2.196v3.339ZM-450.43-3115.128c0-.648-.027-1.458-.333-1.917-.315-.468-.765-.576-1.278-.576s-.963.108-1.278.576c-.306.459-.333 1.269-.333 1.917 0 .648.027 1.458.333 1.917.315.468.765.576 1.278.576s.963-.108 1.278-.576c.306-.46.333-1.27.333-1.917Zm-1.206 0c0 .549 0 1.026-.09 1.224a.34.34 0 0 1-.315.189.34.34 0 0 1-.315-.19c-.09-.197-.09-.674-.09-1.223 0-.55 0-1.026.09-1.224a.34.34 0 0 1 .315-.19.34.34 0 0 1 .315.19c.09.198.09.675.09 1.224ZM-446.677-3112.707v-6.408h-1.206v1.854a1.257 1.257 0 0 0-.297-.243 1.022 1.022 0 0 0-.459-.117c-.396 0-.666.099-.9.396-.333.414-.333 1.134-.333 2.097 0 .963 0 1.683.333 2.097.234.297.504.396.9.396.153 0 .324-.045.459-.117.108-.063.297-.216.351-.306v.35Zm-1.206-1.45c0 .154-.036.262-.108.334a.333.333 0 0 1-.261.108.343.343 0 0 1-.306-.171c-.081-.126-.108-.414-.108-1.242 0-.828.027-1.116.108-1.242a.343.343 0 0 1 .306-.171c.108 0 .198.036.261.108.072.072.108.18.108.333ZM-442.762-3114.741c0-1.116-.045-2.007-.486-2.466-.342-.351-.702-.414-1.125-.414-.405 0-.792.063-1.134.414-.441.459-.477 1.35-.477 2.079 0 .729.036 1.62.477 2.07.342.35.675.423 1.134.423.504 0 .873-.117 1.143-.414.315-.342.423-.747.441-1.152h-1.206a.746.746 0 0 1-.063.306c-.063.117-.162.18-.315.18a.34.34 0 0 1-.315-.19c-.072-.134-.09-.512-.09-.836Zm-1.206-.873h-.81c0-.414.036-.648.09-.747.063-.117.153-.18.315-.18s.252.063.315.18c.054.099.09.333.09.747ZM-440.296-3112.707v-1.08c-.405 0-.594-.18-.594-.558v-4.77h-1.206v4.85c0 .63.216 1.018.558 1.26.351.253.747.298 1.242.298ZM-436.714-3114.192c0-.36-.09-.621-.216-.792-.162-.225-.387-.378-.729-.513l-.666-.252c-.144-.054-.252-.126-.306-.216a.341.341 0 0 1-.063-.216c0-.117.027-.207.099-.27a.394.394 0 0 1 .549.009c.063.072.099.18.099.306h1.179a1.44 1.44 0 0 0-.45-1.09c-.27-.251-.675-.395-1.098-.395-.432 0-.855.144-1.143.44-.27.28-.441.595-.441 1.117 0 .279.054.495.162.675.153.243.405.423.747.558l.675.26a.741.741 0 0 1 .315.208c.063.09.081.17.081.27 0 .099-.036.216-.099.27-.09.08-.162.099-.288.099a.408.408 0 0 1-.297-.126.481.481 0 0 1-.126-.315h-1.188c.009.486.18.81.459 1.107.27.279.72.423 1.152.423.432 0 .819-.09 1.134-.405.252-.261.459-.621.459-1.152Z"/><path fill="#00882b" d="M-456.113-3101.446v-1.152h-1.675v-5.256h-1.277v6.408ZM-454.277-3101.446v-4.653h-1.207v4.653Zm.036-5.184v-1.278h-1.279v1.278ZM-452.298-3101.446v-.351c.055.09.243.243.351.306.135.072.307.117.46.117.396 0 .666-.1.9-.396.332-.414.332-1.134.332-2.097 0-.963 0-1.683-.332-2.097-.235-.297-.505-.396-.9-.396-.153 0-.325.045-.46.117a1.257 1.257 0 0 0-.296.243v-1.854h-1.207v6.408Zm.055-3.393c0-.153.036-.261.108-.333a.333.333 0 0 1 .26-.108c.127 0 .235.054.307.17.08.127.107.415.107 1.243 0 .828-.026 1.116-.107 1.242a.343.343 0 0 1-.307.17.333.333 0 0 1-.26-.107c-.072-.072-.108-.18-.108-.333ZM-447.168-3105.172v-1.188c-.26 0-.503.063-.71.162a1.58 1.58 0 0 0-.531.432v-.522h-1.153v4.842h1.207v-2.952c0-.486.341-.774.747-.774ZM-443.666-3101.446v-3.312c0-.55-.19-.936-.46-1.206-.288-.288-.702-.396-1.115-.396-.423 0-.882.189-1.125.432a1.481 1.481 0 0 0-.442 1.08h1.207a.51.51 0 0 1 .108-.333.314.314 0 0 1 .26-.117c.226 0 .36.153.36.423v.558h-.368c-.63 0-.946.135-1.189.342-.305.26-.467.639-.467 1.08 0 .459.072.819.279 1.07.26.325.53.45.98.45a.847.847 0 0 0 .531-.152c.127-.081.217-.198.316-.315v.396Zm-1.207-1.503c0 .342-.189.522-.404.522-.252 0-.415-.171-.415-.522 0-.126.055-.324.154-.414.125-.117.26-.117.459-.117h.207ZM-440.462-3105.172v-1.188c-.262 0-.505.063-.712.162a1.58 1.58 0 0 0-.53.432v-.522h-1.152v4.842h1.205v-2.952c0-.486.343-.774.748-.774ZM-436.476-3106.288h-1.332l-.54 2.925-.54-2.925h-1.332l1.234 4.842c-.127.459-.307.495-.865.513v1.053c.964 0 1.747-.036 2.026-1.125Z"/></g></svg>