<?xml version="1.0" encoding="UTF-8" standalone="no"?>
<!DOCTYPE svg PUBLIC "-//W3C//DTD SVG 1.1//EN" "http://www.w3.org/Graphics/SVG/1.1/DTD/svg11.dtd">
<svg xmlns:xl="http://www.w3.org/1999/xlink" version="1.1" xmlns="http://www.w3.org/2000/svg" xmlns:dc="http://purl.org/dc/elements/1.1/" viewBox="-292 -3143.1854 48 48" width="48" height="48">
  <defs/>
  <g id="ICONES" stroke="none" stroke-opacity="1" stroke-dasharray="none" fill="none" fill-opacity="1">
    <title>ICONES</title>
    <g id="ICONES_Calque_1">
      <title>Calque 1</title>
      <g id="Group_4258">
        <g id="Graphic_4036">
          <path d="M -289 -3143.1854 L -247 -3143.1854 C -245.34315 -3143.1854 -244 -3141.8423 -244 -3140.1854 L -244 -3098.1854 C -244 -3096.5286 -245.34315 -3095.1854 -247 -3095.1854 L -289 -3095.1854 C -290.65685 -3095.1854 -292 -3096.5286 -292 -3098.1854 L -292 -3140.1854 C -292 -3141.8423 -290.65685 -3143.1854 -289 -3143.1854 Z" fill="white"/>
        </g>
        <g id="Group_4029">
          <g id="Graphic_4035">
            <path d="M -290.60404 -3120.734 L -287.57504 -3120.734 C -287.2233 -3125.2347 -285.3262 -3129.6373 -281.8837 -3133.0797 C -274.21526 -3140.7482 -261.78225 -3140.7482 -254.1138 -3133.0797 C -250.67132 -3129.6373 -248.7742 -3125.2347 -248.42248 -3120.734 L -245.39348 -3120.734 C -245.75048 -3126.0092 -247.9452 -3131.1835 -251.97765 -3135.216 C -260.82587 -3144.064 -275.17165 -3144.064 -284.01986 -3135.216 C -288.0523 -3131.1835 -290.24704 -3126.0092 -290.60404 -3120.734 Z" fill="#efb54f" fill-opacity=".25239327"/>
            <path d="M -290.60404 -3120.734 L -287.57504 -3120.734 C -287.2233 -3125.2347 -285.3262 -3129.6373 -281.8837 -3133.0797 C -274.21526 -3140.7482 -261.78225 -3140.7482 -254.1138 -3133.0797 C -250.67132 -3129.6373 -248.7742 -3125.2347 -248.42248 -3120.734 L -245.39348 -3120.734 C -245.75048 -3126.0092 -247.9452 -3131.1835 -251.97765 -3135.216 C -260.82587 -3144.064 -275.17165 -3144.064 -284.01986 -3135.216 C -288.0523 -3131.1835 -290.24704 -3126.0092 -290.60404 -3120.734 Z" stroke="#efb64f" stroke-linecap="round" stroke-linejoin="round" stroke-width="0"/>
          </g>
          <g id="Graphic_4034">
            <path d="M -284.92563 -3120.6968 L -281.89028 -3120.6968 C -281.56134 -3123.7568 -280.22406 -3126.729 -277.87844 -3129.0745 C -272.42204 -3134.531 -263.57548 -3134.531 -258.11908 -3129.0745 C -255.77346 -3126.729 -254.43618 -3123.7568 -254.10724 -3120.6968 L -251.0719 -3120.6968 C -251.41022 -3124.5324 -253.04724 -3128.275 -255.98293 -3131.2106 C -262.6191 -3137.8468 -273.37843 -3137.8468 -280.0146 -3131.2106 C -282.95028 -3128.275 -284.5873 -3124.5324 -284.92563 -3120.6968 Z" fill="#d3673a" fill-opacity=".24884463"/>
            <path d="M -284.92563 -3120.6968 L -281.89028 -3120.6968 C -281.56134 -3123.7568 -280.22406 -3126.729 -277.87844 -3129.0745 C -272.42204 -3134.531 -263.57548 -3134.531 -258.11908 -3129.0745 C -255.77346 -3126.729 -254.43618 -3123.7568 -254.10724 -3120.6968 L -251.0719 -3120.6968 C -251.41022 -3124.5324 -253.04724 -3128.275 -255.98293 -3131.2106 C -262.6191 -3137.8468 -273.37843 -3137.8468 -280.0146 -3131.2106 C -282.95028 -3128.275 -284.5873 -3124.5324 -284.92563 -3120.6968 Z" stroke="#d2673a" stroke-linecap="round" stroke-linejoin="round" stroke-width="0"/>
          </g>
          <g id="Graphic_4033">
            <path d="M -279.223 -3120.734 L -276.16342 -3120.734 C -275.8655 -3122.322 -275.10208 -3123.8403 -273.87316 -3125.0692 C -270.62882 -3128.3136 -265.3687 -3128.3136 -262.12435 -3125.0692 C -260.89544 -3123.8403 -260.13202 -3122.322 -259.8341 -3120.734 L -256.77453 -3120.734 C -257.09733 -3123.101 -258.16856 -3125.3857 -259.9882 -3127.2053 C -264.4123 -3131.6295 -271.5852 -3131.6295 -276.0093 -3127.2053 C -277.82896 -3125.3857 -278.9002 -3123.101 -279.223 -3120.734 Z" fill="#3570a0" fill-opacity=".2496699"/>
            <path d="M -279.223 -3120.734 L -276.16342 -3120.734 C -275.8655 -3122.322 -275.10208 -3123.8403 -273.87316 -3125.0692 C -270.62882 -3128.3136 -265.3687 -3128.3136 -262.12435 -3125.0692 C -260.89544 -3123.8403 -260.13202 -3122.322 -259.8341 -3120.734 L -256.77453 -3120.734 C -257.09733 -3123.101 -258.16856 -3125.3857 -259.9882 -3127.2053 C -264.4123 -3131.6295 -271.5852 -3131.6295 -276.0093 -3127.2053 C -277.82896 -3125.3857 -278.9002 -3123.101 -279.223 -3120.734 Z" stroke="#3770a0" stroke-linecap="round" stroke-linejoin="round" stroke-width="0"/>
          </g>
          <g id="Graphic_4032">
            <path d="M -284.94556 -3120.734 L -281.9097 -3120.734 C -281.57583 -3123.7844 -280.23952 -3126.746 -277.90076 -3129.0848 C -275.1525 -3131.833 -271.5442 -3133.197 -267.94224 -3133.177 C -266.0555 -3133.1663 -264.17048 -3132.776 -262.4117 -3132.0057 L -261.23095 -3134.7874 C -263.36784 -3135.718 -265.657 -3136.188 -267.94776 -3136.198 C -272.32104 -3136.2167 -276.70018 -3134.5577 -280.0369 -3131.221 C -282.96576 -3128.292 -284.60197 -3124.56 -284.94556 -3120.734 Z" fill="#d3673a"/>
            <path d="M -284.94556 -3120.734 L -281.9097 -3120.734 C -281.57583 -3123.7844 -280.23952 -3126.746 -277.90076 -3129.0848 C -275.1525 -3131.833 -271.5442 -3133.197 -267.94224 -3133.177 C -266.0555 -3133.1663 -264.17048 -3132.776 -262.4117 -3132.0057 L -261.23095 -3134.7874 C -263.36784 -3135.718 -265.657 -3136.188 -267.94776 -3136.198 C -272.32104 -3136.2167 -276.70018 -3134.5577 -280.0369 -3131.221 C -282.96576 -3128.292 -284.60197 -3124.56 -284.94556 -3120.734 Z" stroke="#d2673a" stroke-linecap="round" stroke-linejoin="round" stroke-width="0"/>
          </g>
          <g id="Graphic_4031">
            <path d="M -279.1785 -3120.6968 L -276.12287 -3120.6968 C -275.83565 -3122.3136 -275.06744 -3123.8616 -273.81823 -3125.111 C -272.31135 -3126.6177 -270.36962 -3127.4247 -268.39698 -3127.5318 L -268.39698 -3130.556 C -271.14338 -3130.4468 -273.8576 -3129.3438 -275.95438 -3127.247 C -277.7942 -3125.407 -278.8689 -3123.092 -279.1785 -3120.6968 Z" fill="#3570a0"/>
            <path d="M -279.1785 -3120.6968 L -276.12287 -3120.6968 C -275.83565 -3122.3136 -275.06744 -3123.8616 -273.81823 -3125.111 C -272.31135 -3126.6177 -270.36962 -3127.4247 -268.39698 -3127.5318 L -268.39698 -3130.556 C -271.14338 -3130.4468 -273.8576 -3129.3438 -275.95438 -3127.247 C -277.7942 -3125.407 -278.8689 -3123.092 -279.1785 -3120.6968 Z" stroke="#3770a0" stroke-linecap="round" stroke-linejoin="round" stroke-width="0"/>
          </g>
          <g id="Graphic_4030">
            <path d="M -290.60652 -3120.6968 L -287.5779 -3120.6968 C -287.23372 -3125.2104 -285.33566 -3129.628 -281.8837 -3133.0797 C -274.21526 -3140.7482 -261.78225 -3140.7482 -254.1138 -3133.0797 C -253.24983 -3132.2158 -252.4832 -3131.2913 -251.8139 -3130.32 L -249.18996 -3131.835 C -249.9934 -3133.0277 -250.92262 -3134.161 -251.97765 -3135.216 C -260.82587 -3144.064 -275.17165 -3144.064 -284.01986 -3135.216 C -288.06177 -3131.174 -290.25732 -3125.985 -290.60652 -3120.6968 Z" fill="#efb54f"/>
            <path d="M -290.60652 -3120.6968 L -287.5779 -3120.6968 C -287.23372 -3125.2104 -285.33566 -3129.628 -281.8837 -3133.0797 C -274.21526 -3140.7482 -261.78225 -3140.7482 -254.1138 -3133.0797 C -253.24983 -3132.2158 -252.4832 -3131.2913 -251.8139 -3130.32 L -249.18996 -3131.835 C -249.9934 -3133.0277 -250.92262 -3134.161 -251.97765 -3135.216 C -260.82587 -3144.064 -275.17165 -3144.064 -284.01986 -3135.216 C -288.06177 -3131.174 -290.25732 -3125.985 -290.60652 -3120.6968 Z" stroke="#efb64f" stroke-linecap="round" stroke-linejoin="round" stroke-width="0"/>
          </g>
        </g>
        <g id="Group_4240">
          <title/>
          <g id="Graphic_4219">
            <path d="M -280.8205 -3112.5344 C -280.8205 -3113.6954 -281.0545 -3114.0554 -281.8645 -3114.3884 L -282.6655 -3114.7124 C -283.0345 -3114.8654 -283.1065 -3114.9824 -283.1065 -3115.3874 C -283.1065 -3115.6034 -283.0795 -3115.7384 -282.9985 -3115.8464 C -282.9265 -3115.9454 -282.8095 -3116.0174 -282.6295 -3116.0174 C -282.4405 -3116.0174 -282.3325 -3115.9544 -282.2605 -3115.8554 C -282.1525 -3115.7114 -282.1525 -3115.5044 -282.1525 -3115.2794 L -280.8745 -3115.2794 C -280.8745 -3115.9274 -281.0185 -3116.4404 -281.3695 -3116.7644 C -281.6485 -3117.0254 -282.0625 -3117.1694 -282.6295 -3117.1694 C -283.1155 -3117.1694 -283.5025 -3117.0254 -283.8085 -3116.7644 C -284.1955 -3116.4314 -284.3845 -3115.9364 -284.3845 -3115.3424 C -284.3845 -3114.3434 -284.1145 -3114.0014 -283.4665 -3113.7314 L -282.6565 -3113.3984 C -282.1975 -3113.2094 -282.0985 -3113.1014 -282.0985 -3112.4894 C -282.0985 -3112.2284 -282.1345 -3112.0574 -282.2245 -3111.9494 C -282.3055 -3111.8414 -282.4315 -3111.7874 -282.6295 -3111.7874 C -282.8275 -3111.7874 -282.9535 -3111.8594 -283.0255 -3111.9404 C -283.1425 -3112.0754 -283.1605 -3112.2644 -283.1605 -3112.5254 L -284.4385 -3112.5254 C -284.4385 -3111.8684 -284.3305 -3111.4184 -284.0155 -3111.1034 C -283.7275 -3110.8154 -283.2595 -3110.6354 -282.6295 -3110.6354 C -282.0085 -3110.6354 -281.5225 -3110.8334 -281.2345 -3111.1124 C -280.9015 -3111.4364 -280.8205 -3111.8864 -280.8205 -3112.5344 Z" fill="#3770a1"/>
          </g>
          <g id="Graphic_4220">
            <path d="M -278.0845 -3110.7074 L -278.0845 -3111.7874 C -278.4895 -3111.7874 -278.6785 -3111.9674 -278.6785 -3112.3454 L -278.6785 -3114.4514 L -278.0845 -3114.4514 L -278.0845 -3115.3604 L -278.6785 -3115.3604 L -278.6785 -3116.6834 L -279.8845 -3116.6834 L -279.8845 -3115.3604 L -280.3345 -3115.3604 L -280.3345 -3114.4514 L -279.8845 -3114.4514 L -279.8845 -3112.2644 C -279.8845 -3111.6344 -279.6685 -3111.2474 -279.3265 -3111.0044 C -278.9755 -3110.7524 -278.5795 -3110.7074 -278.0845 -3110.7074 Z" fill="#3770a1"/>
          </g>
          <g id="Graphic_4221">
            <path d="M -274.4305 -3110.7074 L -274.4305 -3114.0194 C -274.4305 -3114.5684 -274.6195 -3114.9554 -274.8895 -3115.2254 C -275.1775 -3115.5134 -275.5915 -3115.6214 -276.0055 -3115.6214 C -276.4285 -3115.6214 -276.8875 -3115.4324 -277.1305 -3115.1894 C -277.4455 -3114.8654 -277.5715 -3114.5054 -277.5715 -3114.1094 L -276.3655 -3114.1094 C -276.3655 -3114.2444 -276.3295 -3114.3524 -276.2575 -3114.4424 C -276.1945 -3114.5144 -276.1225 -3114.5594 -275.9965 -3114.5594 C -275.7715 -3114.5594 -275.6365 -3114.4064 -275.6365 -3114.1364 L -275.6365 -3113.5784 L -276.0055 -3113.5784 C -276.6355 -3113.5784 -276.9505 -3113.4434 -277.1935 -3113.2364 C -277.4995 -3112.9754 -277.6615 -3112.5974 -277.6615 -3112.1564 C -277.6615 -3111.6974 -277.5895 -3111.3374 -277.3825 -3111.0854 C -277.1215 -3110.7614 -276.8515 -3110.6354 -276.4015 -3110.6354 C -276.1585 -3110.6354 -276.0145 -3110.6894 -275.8705 -3110.7884 C -275.7445 -3110.8694 -275.6545 -3110.9864 -275.5555 -3111.1034 L -275.5555 -3110.7074 Z M -275.6365 -3112.2104 C -275.6365 -3111.8684 -275.8255 -3111.6884 -276.0415 -3111.6884 C -276.2935 -3111.6884 -276.4555 -3111.8594 -276.4555 -3112.2104 C -276.4555 -3112.3364 -276.4015 -3112.5344 -276.3025 -3112.6244 C -276.1765 -3112.7414 -276.0415 -3112.7414 -275.8435 -3112.7414 L -275.6365 -3112.7414 Z" fill="#3770a1"/>
          </g>
          <g id="Graphic_4222">
            <path d="M -271.6045 -3110.7074 L -271.6045 -3111.7874 C -272.0095 -3111.7874 -272.1985 -3111.9674 -272.1985 -3112.3454 L -272.1985 -3114.4514 L -271.6045 -3114.4514 L -271.6045 -3115.3604 L -272.1985 -3115.3604 L -272.1985 -3116.6834 L -273.4045 -3116.6834 L -273.4045 -3115.3604 L -273.8545 -3115.3604 L -273.8545 -3114.4514 L -273.4045 -3114.4514 L -273.4045 -3112.2644 C -273.4045 -3111.6344 -273.1885 -3111.2474 -272.8465 -3111.0044 C -272.4955 -3110.7524 -272.0995 -3110.7074 -271.6045 -3110.7074 Z" fill="#3770a1"/>
          </g>
          <g id="Graphic_4223">
            <path d="M -269.8045 -3110.7074 L -269.8045 -3115.3604 L -271.0105 -3115.3604 L -271.0105 -3110.7074 Z M -269.7685 -3115.8914 L -269.7685 -3117.1694 L -271.0465 -3117.1694 L -271.0465 -3115.8914 Z" fill="#3770a1"/>
          </g>
          <g id="Graphic_4224">
            <path d="M -265.9705 -3112.1924 C -265.9705 -3112.5524 -266.0605 -3112.8134 -266.1865 -3112.9844 C -266.3485 -3113.2094 -266.5735 -3113.3624 -266.9155 -3113.4974 L -267.5815 -3113.7494 C -267.7255 -3113.8034 -267.8335 -3113.8754 -267.8875 -3113.9654 C -267.9325 -3114.0284 -267.9505 -3114.0914 -267.9505 -3114.1814 C -267.9505 -3114.2984 -267.9235 -3114.3884 -267.8515 -3114.4514 C -267.7885 -3114.5144 -267.6895 -3114.5594 -267.5725 -3114.5594 C -267.4735 -3114.5594 -267.3745 -3114.5144 -267.3025 -3114.4424 C -267.2395 -3114.3704 -267.2035 -3114.2624 -267.2035 -3114.1364 L -266.0245 -3114.1364 C -266.0245 -3114.6314 -266.2135 -3114.9734 -266.4745 -3115.2254 C -266.7445 -3115.4774 -267.1495 -3115.6214 -267.5725 -3115.6214 C -268.0045 -3115.6214 -268.4275 -3115.4774 -268.7155 -3115.1804 C -268.9855 -3114.9014 -269.1565 -3114.5864 -269.1565 -3114.0644 C -269.1565 -3113.7854 -269.1025 -3113.5694 -268.9945 -3113.3894 C -268.8415 -3113.1464 -268.5895 -3112.9664 -268.2475 -3112.8314 L -267.5725 -3112.5704 C -267.4375 -3112.5164 -267.3295 -3112.4534 -267.2575 -3112.3634 C -267.1945 -3112.2734 -267.1765 -3112.1924 -267.1765 -3112.0934 C -267.1765 -3111.9944 -267.2125 -3111.8774 -267.2755 -3111.8234 C -267.3655 -3111.7424 -267.4375 -3111.7244 -267.5635 -3111.7244 C -267.6715 -3111.7244 -267.7885 -3111.7694 -267.8605 -3111.8504 C -267.9325 -3111.9224 -267.9775 -3112.0304 -267.9865 -3112.1654 L -269.1745 -3112.1654 C -269.1655 -3111.6794 -268.9945 -3111.3554 -268.7155 -3111.0584 C -268.4455 -3110.7794 -267.9955 -3110.6354 -267.5635 -3110.6354 C -267.1315 -3110.6354 -266.7445 -3110.7254 -266.4295 -3111.0404 C -266.1775 -3111.3014 -265.9705 -3111.6614 -265.9705 -3112.1924 Z" fill="#3770a1"/>
          </g>
          <g id="Graphic_4225">
            <path d="M -263.3515 -3110.7074 L -263.3515 -3111.7874 C -263.7565 -3111.7874 -263.9455 -3111.9674 -263.9455 -3112.3454 L -263.9455 -3114.4514 L -263.3515 -3114.4514 L -263.3515 -3115.3604 L -263.9455 -3115.3604 L -263.9455 -3116.6834 L -265.1515 -3116.6834 L -265.1515 -3115.3604 L -265.6015 -3115.3604 L -265.6015 -3114.4514 L -265.1515 -3114.4514 L -265.1515 -3112.2644 C -265.1515 -3111.6344 -264.9355 -3111.2474 -264.5935 -3111.0044 C -264.2425 -3110.7524 -263.8465 -3110.7074 -263.3515 -3110.7074 Z" fill="#3770a1"/>
          </g>
          <g id="Graphic_4226">
            <path d="M -261.5515 -3110.7074 L -261.5515 -3115.3604 L -262.7575 -3115.3604 L -262.7575 -3110.7074 Z M -261.5155 -3115.8914 L -261.5155 -3117.1694 L -262.7935 -3117.1694 L -262.7935 -3115.8914 Z" fill="#3770a1"/>
          </g>
          <g id="Graphic_4227">
            <path d="M -257.6725 -3112.2014 L -258.8695 -3112.2014 C -258.8785 -3112.0934 -258.8875 -3111.9854 -258.9505 -3111.8774 C -259.0045 -3111.7874 -259.1035 -3111.7154 -259.2475 -3111.7154 C -259.3645 -3111.7154 -259.4995 -3111.7694 -259.5625 -3111.9044 C -259.6525 -3112.1024 -259.6525 -3112.5794 -259.6525 -3113.1284 C -259.6525 -3113.6774 -259.6525 -3114.1544 -259.5625 -3114.3524 C -259.4995 -3114.4874 -259.3645 -3114.5414 -259.2475 -3114.5414 C -259.1035 -3114.5414 -259.0135 -3114.4784 -258.9595 -3114.3884 C -258.8965 -3114.2894 -258.8785 -3114.1634 -258.8695 -3114.0554 L -257.6725 -3114.0554 C -257.6995 -3114.5054 -257.8345 -3114.9464 -258.1495 -3115.2434 C -258.4645 -3115.5404 -258.8155 -3115.6214 -259.2475 -3115.6214 C -259.7605 -3115.6214 -260.2105 -3115.5134 -260.5255 -3115.0454 C -260.8315 -3114.5864 -260.8585 -3113.7764 -260.8585 -3113.1284 C -260.8585 -3112.4804 -260.8315 -3111.6704 -260.5255 -3111.2114 C -260.2105 -3110.7434 -259.7605 -3110.6354 -259.2475 -3110.6354 C -258.7795 -3110.6354 -258.3925 -3110.7524 -258.1315 -3111.0134 C -257.8525 -3111.2924 -257.6995 -3111.7514 -257.6725 -3112.2014 Z" fill="#3770a1"/>
          </g>
          <g id="Graphic_4228">
            <path d="M -254.0275 -3110.7074 L -254.0275 -3114.0194 C -254.0275 -3114.5684 -254.2165 -3114.9554 -254.4865 -3115.2254 C -254.7745 -3115.5134 -255.1885 -3115.6214 -255.6025 -3115.6214 C -256.0255 -3115.6214 -256.4845 -3115.4324 -256.7275 -3115.1894 C -257.0425 -3114.8654 -257.1685 -3114.5054 -257.1685 -3114.1094 L -255.9625 -3114.1094 C -255.9625 -3114.2444 -255.9265 -3114.3524 -255.8545 -3114.4424 C -255.7915 -3114.5144 -255.7195 -3114.5594 -255.5935 -3114.5594 C -255.3685 -3114.5594 -255.2335 -3114.4064 -255.2335 -3114.1364 L -255.2335 -3113.5784 L -255.6025 -3113.5784 C -256.2325 -3113.5784 -256.5475 -3113.4434 -256.7905 -3113.2364 C -257.0965 -3112.9754 -257.2585 -3112.5974 -257.2585 -3112.1564 C -257.2585 -3111.6974 -257.1865 -3111.3374 -256.9795 -3111.0854 C -256.7185 -3110.7614 -256.4485 -3110.6354 -255.9985 -3110.6354 C -255.7555 -3110.6354 -255.6115 -3110.6894 -255.4675 -3110.7884 C -255.3415 -3110.8694 -255.2515 -3110.9864 -255.1525 -3111.1034 L -255.1525 -3110.7074 Z M -255.2335 -3112.2104 C -255.2335 -3111.8684 -255.4225 -3111.6884 -255.6385 -3111.6884 C -255.8905 -3111.6884 -256.0525 -3111.8594 -256.0525 -3112.2104 C -256.0525 -3112.3364 -255.9985 -3112.5344 -255.8995 -3112.6244 C -255.7735 -3112.7414 -255.6385 -3112.7414 -255.4405 -3112.7414 L -255.2335 -3112.7414 Z" fill="#3770a1"/>
          </g>
          <g id="Graphic_4229">
            <path d="M -251.4355 -3110.7074 L -251.4355 -3111.7874 C -251.8405 -3111.7874 -252.0295 -3111.9674 -252.0295 -3112.3454 L -252.0295 -3117.1154 L -253.2355 -3117.1154 L -253.2355 -3112.2644 C -253.2355 -3111.6344 -253.0195 -3111.2474 -252.6775 -3111.0044 C -252.3265 -3110.7524 -251.9305 -3110.7074 -251.4355 -3110.7074 Z" fill="#3770a1"/>
          </g>
          <g id="Graphic_4230">
            <path d="M -282.0625 -3099.4464 L -282.0625 -3100.5984 L -283.7365 -3100.5984 L -283.7365 -3102.1014 L -282.2965 -3102.1014 L -282.2965 -3103.2534 L -283.7365 -3103.2534 L -283.7365 -3104.7024 L -282.0625 -3104.7024 L -282.0625 -3105.8544 L -285.0145 -3105.8544 L -285.0145 -3099.4464 Z" fill="#d2673a"/>
          </g>
          <g id="Graphic_4231">
            <path d="M -277.9405 -3099.4464 L -279.1375 -3101.9034 L -277.9945 -3104.2884 L -279.3355 -3104.2884 L -279.8395 -3103.0554 L -280.3435 -3104.2884 L -281.6755 -3104.2884 L -280.5595 -3101.9034 L -281.7385 -3099.4464 L -280.3975 -3099.4464 L -279.8395 -3100.6974 L -279.2815 -3099.4464 Z" fill="#d2673a"/>
          </g>
          <g id="Graphic_4232">
            <path d="M -275.4745 -3099.4464 L -275.4745 -3100.5264 C -275.8795 -3100.5264 -276.0685 -3100.7064 -276.0685 -3101.0844 L -276.0685 -3103.1904 L -275.4745 -3103.1904 L -275.4745 -3104.0994 L -276.0685 -3104.0994 L -276.0685 -3105.4224 L -277.2745 -3105.4224 L -277.2745 -3104.0994 L -277.7245 -3104.0994 L -277.7245 -3103.1904 L -277.2745 -3103.1904 L -277.2745 -3101.0034 C -277.2745 -3100.3734 -277.0585 -3099.9864 -276.7165 -3099.7434 C -276.3655 -3099.4914 -275.9695 -3099.4464 -275.4745 -3099.4464 Z" fill="#d2673a"/>
          </g>
          <g id="Graphic_4233">
            <path d="M -271.8385 -3101.4804 C -271.8385 -3102.5964 -271.8835 -3103.4874 -272.3245 -3103.9464 C -272.6665 -3104.2974 -273.0265 -3104.3604 -273.4495 -3104.3604 C -273.8545 -3104.3604 -274.2415 -3104.2974 -274.5835 -3103.9464 C -275.0245 -3103.4874 -275.0605 -3102.5964 -275.0605 -3101.8674 C -275.0605 -3101.1384 -275.0245 -3100.2474 -274.5835 -3099.7974 C -274.2415 -3099.4464 -273.9085 -3099.3744 -273.4495 -3099.3744 C -272.9455 -3099.3744 -272.5765 -3099.4914 -272.3065 -3099.7884 C -271.9915 -3100.1304 -271.8835 -3100.5354 -271.8655 -3100.9404 L -273.0715 -3100.9404 C -273.0715 -3100.8594 -273.0895 -3100.7154 -273.1345 -3100.6344 C -273.1975 -3100.5174 -273.2965 -3100.4544 -273.4495 -3100.4544 C -273.6025 -3100.4544 -273.7105 -3100.5354 -273.7645 -3100.6434 C -273.8365 -3100.7784 -273.8545 -3101.1564 -273.8545 -3101.4804 Z M -273.0445 -3102.3534 L -273.8545 -3102.3534 C -273.8545 -3102.7674 -273.8185 -3103.0014 -273.7645 -3103.1004 C -273.7015 -3103.2174 -273.6115 -3103.2804 -273.4495 -3103.2804 C -273.2875 -3103.2804 -273.1975 -3103.2174 -273.1345 -3103.1004 C -273.0805 -3103.0014 -273.0445 -3102.7674 -273.0445 -3102.3534 Z" fill="#d2673a"/>
          </g>
          <g id="Graphic_4234">
            <path d="M -267.9865 -3099.4464 L -267.9865 -3102.8574 C -267.9865 -3103.4604 -268.0675 -3103.7214 -268.2565 -3103.9554 C -268.4905 -3104.2344 -268.7515 -3104.3604 -269.1925 -3104.3604 C -269.3455 -3104.3604 -269.5165 -3104.3154 -269.6515 -3104.2434 C -269.7865 -3104.1714 -269.9035 -3104.0544 -270.0025 -3103.9374 L -270.0025 -3104.2884 L -271.1545 -3104.2884 L -271.1545 -3099.4464 L -269.9485 -3099.4464 L -269.9485 -3102.8394 C -269.9485 -3103.1364 -269.7865 -3103.2804 -269.5705 -3103.2804 C -269.3545 -3103.2804 -269.1925 -3103.1364 -269.1925 -3102.8394 L -269.1925 -3099.4464 Z" fill="#d2673a"/>
          </g>
          <g id="Graphic_4235">
            <path d="M -264.1705 -3100.9314 C -264.1705 -3101.2914 -264.2605 -3101.5524 -264.3865 -3101.7234 C -264.5485 -3101.9484 -264.7735 -3102.1014 -265.1155 -3102.2364 L -265.7815 -3102.4884 C -265.9255 -3102.5424 -266.0335 -3102.6144 -266.0875 -3102.7044 C -266.1325 -3102.7674 -266.1505 -3102.8304 -266.1505 -3102.9204 C -266.1505 -3103.0374 -266.1235 -3103.1274 -266.0515 -3103.1904 C -265.9885 -3103.2534 -265.8895 -3103.2984 -265.7725 -3103.2984 C -265.6735 -3103.2984 -265.5745 -3103.2534 -265.5025 -3103.1814 C -265.4395 -3103.1094 -265.4035 -3103.0014 -265.4035 -3102.8754 L -264.2245 -3102.8754 C -264.2245 -3103.3704 -264.4135 -3103.7124 -264.6745 -3103.9644 C -264.9445 -3104.2164 -265.3495 -3104.3604 -265.7725 -3104.3604 C -266.2045 -3104.3604 -266.6275 -3104.2164 -266.9155 -3103.9194 C -267.1855 -3103.6404 -267.3565 -3103.3254 -267.3565 -3102.8034 C -267.3565 -3102.5244 -267.3025 -3102.3084 -267.1945 -3102.1284 C -267.0415 -3101.8854 -266.7895 -3101.7054 -266.4475 -3101.5704 L -265.7725 -3101.3094 C -265.6375 -3101.2554 -265.5295 -3101.1924 -265.4575 -3101.1024 C -265.3945 -3101.0124 -265.3765 -3100.9314 -265.3765 -3100.8324 C -265.3765 -3100.7334 -265.4125 -3100.6164 -265.4755 -3100.5624 C -265.5655 -3100.4814 -265.6375 -3100.4634 -265.7635 -3100.4634 C -265.8715 -3100.4634 -265.9885 -3100.5084 -266.0605 -3100.5894 C -266.1325 -3100.6614 -266.1775 -3100.7694 -266.1865 -3100.9044 L -267.3745 -3100.9044 C -267.3655 -3100.4184 -267.1945 -3100.0944 -266.9155 -3099.7974 C -266.6455 -3099.5184 -266.1955 -3099.3744 -265.7635 -3099.3744 C -265.3315 -3099.3744 -264.9445 -3099.4644 -264.6295 -3099.7794 C -264.3775 -3100.0404 -264.1705 -3100.4004 -264.1705 -3100.9314 Z" fill="#d2673a"/>
          </g>
          <g id="Graphic_4236">
            <path d="M -262.3165 -3099.4464 L -262.3165 -3104.0994 L -263.5225 -3104.0994 L -263.5225 -3099.4464 Z M -262.2805 -3104.6304 L -262.2805 -3105.9084 L -263.5585 -3105.9084 L -263.5585 -3104.6304 Z" fill="#d2673a"/>
          </g>
          <g id="Graphic_4237">
            <path d="M -258.4015 -3101.8674 C -258.4015 -3102.5154 -258.4285 -3103.3254 -258.7345 -3103.7844 C -259.0495 -3104.2524 -259.4995 -3104.3604 -260.0125 -3104.3604 C -260.5255 -3104.3604 -260.9755 -3104.2524 -261.2905 -3103.7844 C -261.5965 -3103.3254 -261.6235 -3102.5154 -261.6235 -3101.8674 C -261.6235 -3101.2194 -261.5965 -3100.4094 -261.2905 -3099.9504 C -260.9755 -3099.4824 -260.5255 -3099.3744 -260.0125 -3099.3744 C -259.4995 -3099.3744 -259.0495 -3099.4824 -258.7345 -3099.9504 C -258.4285 -3100.4094 -258.4015 -3101.2194 -258.4015 -3101.8674 Z M -259.6075 -3101.8674 C -259.6075 -3101.3184 -259.6075 -3100.8414 -259.6975 -3100.6434 C -259.7605 -3100.5084 -259.8955 -3100.4544 -260.0125 -3100.4544 C -260.1295 -3100.4544 -260.2645 -3100.5084 -260.3275 -3100.6434 C -260.4175 -3100.8414 -260.4175 -3101.3184 -260.4175 -3101.8674 C -260.4175 -3102.4164 -260.4175 -3102.8934 -260.3275 -3103.0914 C -260.2645 -3103.2264 -260.1295 -3103.2804 -260.0125 -3103.2804 C -259.8955 -3103.2804 -259.7605 -3103.2264 -259.6975 -3103.0914 C -259.6075 -3102.8934 -259.6075 -3102.4164 -259.6075 -3101.8674 Z" fill="#d2673a"/>
          </g>
          <g id="Graphic_4238">
            <path d="M -254.5405 -3099.4464 L -254.5405 -3102.8574 C -254.5405 -3103.4604 -254.6215 -3103.7214 -254.8105 -3103.9554 C -255.0445 -3104.2344 -255.3055 -3104.3604 -255.7465 -3104.3604 C -255.8995 -3104.3604 -256.0705 -3104.3154 -256.2055 -3104.2434 C -256.3405 -3104.1714 -256.4575 -3104.0544 -256.5565 -3103.9374 L -256.5565 -3104.2884 L -257.7085 -3104.2884 L -257.7085 -3099.4464 L -256.5025 -3099.4464 L -256.5025 -3102.8394 C -256.5025 -3103.1364 -256.3405 -3103.2804 -256.1245 -3103.2804 C -255.9085 -3103.2804 -255.7465 -3103.1364 -255.7465 -3102.8394 L -255.7465 -3099.4464 Z" fill="#d2673a"/>
          </g>
          <g id="Graphic_4239">
            <path d="M -250.7245 -3100.9314 C -250.7245 -3101.2914 -250.8145 -3101.5524 -250.9405 -3101.7234 C -251.1025 -3101.9484 -251.3275 -3102.1014 -251.6695 -3102.2364 L -252.3355 -3102.4884 C -252.4795 -3102.5424 -252.5875 -3102.6144 -252.6415 -3102.7044 C -252.6865 -3102.7674 -252.7045 -3102.8304 -252.7045 -3102.9204 C -252.7045 -3103.0374 -252.6775 -3103.1274 -252.6055 -3103.1904 C -252.5425 -3103.2534 -252.4435 -3103.2984 -252.3265 -3103.2984 C -252.2275 -3103.2984 -252.1285 -3103.2534 -252.0565 -3103.1814 C -251.9935 -3103.1094 -251.9575 -3103.0014 -251.9575 -3102.8754 L -250.7785 -3102.8754 C -250.7785 -3103.3704 -250.9675 -3103.7124 -251.2285 -3103.9644 C -251.4985 -3104.2164 -251.9035 -3104.3604 -252.3265 -3104.3604 C -252.7585 -3104.3604 -253.1815 -3104.2164 -253.4695 -3103.9194 C -253.7395 -3103.6404 -253.9105 -3103.3254 -253.9105 -3102.8034 C -253.9105 -3102.5244 -253.8565 -3102.3084 -253.7485 -3102.1284 C -253.5955 -3101.8854 -253.3435 -3101.7054 -253.0015 -3101.5704 L -252.3265 -3101.3094 C -252.1915 -3101.2554 -252.0835 -3101.1924 -252.0115 -3101.1024 C -251.9485 -3101.0124 -251.9305 -3100.9314 -251.9305 -3100.8324 C -251.9305 -3100.7334 -251.9665 -3100.6164 -252.0295 -3100.5624 C -252.1195 -3100.4814 -252.1915 -3100.4634 -252.3175 -3100.4634 C -252.4255 -3100.4634 -252.5425 -3100.5084 -252.6145 -3100.5894 C -252.6865 -3100.6614 -252.7315 -3100.7694 -252.7405 -3100.9044 L -253.9285 -3100.9044 C -253.9195 -3100.4184 -253.7485 -3100.0944 -253.4695 -3099.7974 C -253.1995 -3099.5184 -252.7495 -3099.3744 -252.3175 -3099.3744 C -251.8855 -3099.3744 -251.4985 -3099.4644 -251.1835 -3099.7794 C -250.9315 -3100.0404 -250.7245 -3100.4004 -250.7245 -3100.9314 Z" fill="#d2673a"/>
          </g>
        </g>
      </g>
    </g>
  </g>
</svg>
