<svg xmlns="http://www.w3.org/2000/svg" viewBox="-532 -3145.185 48 48" width="48" height="48"><g fill="none"><path d="M-529-3145.185h42a3 3 0 0 1 3 3v42a3 3 0 0 1-3 3h-42a3 3 0 0 1-3-3v-42a3 3 0 0 1 3-3Z" fill="#fff"/><path d="M-530.604-3122.734h3.029a19.558 19.558 0 0 1 5.691-12.346c7.669-7.668 20.102-7.668 27.77 0a19.558 19.558 0 0 1 5.691 12.346h3.03a22.57 22.57 0 0 0-6.585-14.482c-8.848-8.848-23.194-8.848-32.042 0a22.57 22.57 0 0 0-6.584 14.482Z" fill="#efb54f" fill-opacity=".252"/><path d="M-530.604-3122.734h3.029a19.558 19.558 0 0 1 5.691-12.346c7.669-7.668 20.102-7.668 27.77 0a19.558 19.558 0 0 1 5.691 12.346h3.03a22.57 22.57 0 0 0-6.585-14.482c-8.848-8.848-23.194-8.848-32.042 0a22.57 22.57 0 0 0-6.584 14.482Z"/><path d="M-524.926-3122.697h3.036a13.913 13.913 0 0 1 4.012-8.378c5.456-5.456 14.303-5.456 19.759 0a13.913 13.913 0 0 1 4.012 8.378h3.035a16.924 16.924 0 0 0-4.91-10.514c-6.637-6.636-17.396-6.636-24.033 0a16.924 16.924 0 0 0-4.91 10.514Z" fill="#d3673a" fill-opacity=".249"/><path d="M-524.926-3122.697h3.036a13.913 13.913 0 0 1 4.012-8.378c5.456-5.456 14.303-5.456 19.759 0a13.913 13.913 0 0 1 4.012 8.378h3.035a16.924 16.924 0 0 0-4.91-10.514c-6.637-6.636-17.396-6.636-24.033 0a16.924 16.924 0 0 0-4.91 10.514Z"/><path d="M-519.223-3122.734h3.06a8.308 8.308 0 0 1 16.33 0h3.058a11.279 11.279 0 0 0-3.213-6.471c-4.424-4.425-11.597-4.425-16.021 0a11.279 11.279 0 0 0-3.214 6.471Z" fill="#3570a0" fill-opacity=".25"/><path d="M-519.223-3122.734h3.06a8.308 8.308 0 0 1 16.33 0h3.058a11.279 11.279 0 0 0-3.213-6.471c-4.424-4.425-11.597-4.425-16.021 0a11.279 11.279 0 0 0-3.214 6.471Z"/><path d="M-524.946-3122.734h3.036a13.914 13.914 0 0 1 4.01-8.35 13.93 13.93 0 0 1 9.958-4.093c1.887.01 3.772.401 5.53 1.171l1.181-2.781a17.012 17.012 0 0 0-6.717-1.411 16.94 16.94 0 0 0-12.089 4.977 16.925 16.925 0 0 0-4.909 10.487Z" fill="#d3673a"/><path d="M-524.946-3122.734h3.036a13.914 13.914 0 0 1 4.01-8.35 13.93 13.93 0 0 1 9.958-4.093c1.887.01 3.772.401 5.53 1.171l1.181-2.781a17.012 17.012 0 0 0-6.717-1.411 16.94 16.94 0 0 0-12.089 4.977 16.925 16.925 0 0 0-4.909 10.487Z"/><path d="M-519.178-3122.697h3.055a8.27 8.27 0 0 1 2.305-4.414 8.278 8.278 0 0 1 5.421-2.42v-3.025a11.288 11.288 0 0 0-7.557 3.309 11.28 11.28 0 0 0-3.225 6.55Z" fill="#3570a0"/><path d="M-519.178-3122.697h3.055a8.27 8.27 0 0 1 2.305-4.414 8.278 8.278 0 0 1 5.421-2.42v-3.025a11.288 11.288 0 0 0-7.557 3.309 11.28 11.28 0 0 0-3.225 6.55Z"/><path d="M-530.606-3122.697h3.028a19.559 19.559 0 0 1 5.694-12.383c7.669-7.668 20.102-7.668 27.77 0 .864.864 1.63 1.789 2.3 2.76l2.624-1.515a22.77 22.77 0 0 0-2.788-3.381c-8.848-8.848-23.194-8.848-32.042 0a22.57 22.57 0 0 0-6.587 14.52Z" fill="#efb54f"/><path d="M-530.606-3122.697h3.028a19.559 19.559 0 0 1 5.694-12.383c7.669-7.668 20.102-7.668 27.77 0 .864.864 1.63 1.789 2.3 2.76l2.624-1.515a22.77 22.77 0 0 0-2.788-3.381c-8.848-8.848-23.194-8.848-32.042 0a22.57 22.57 0 0 0-6.587 14.52Z"/><path d="M-517.549-3112.707v-6.408h-1.134l-1.17 3.14-1.17-3.14h-1.125v6.408h1.278v-3.33l.684 2.187h.657l.702-2.196v3.339ZM-513.553-3115.128c0-.648-.027-1.458-.333-1.917-.315-.468-.765-.576-1.278-.576s-.963.108-1.278.576c-.306.459-.333 1.269-.333 1.917 0 .648.027 1.458.333 1.917.315.468.765.576 1.278.576s.963-.108 1.278-.576c.306-.46.333-1.27.333-1.917Zm-1.206 0c0 .549 0 1.026-.09 1.224a.34.34 0 0 1-.315.189.34.34 0 0 1-.315-.19c-.09-.197-.09-.674-.09-1.223 0-.55 0-1.026.09-1.224a.34.34 0 0 1 .315-.19.34.34 0 0 1 .315.19c.09.198.09.675.09 1.224ZM-509.8-3112.707v-6.408h-1.206v1.854a1.257 1.257 0 0 0-.297-.243 1.022 1.022 0 0 0-.459-.117c-.396 0-.666.099-.9.396-.333.414-.333 1.134-.333 2.097 0 .963 0 1.683.333 2.097.234.297.504.396.9.396.153 0 .324-.045.459-.117.108-.063.297-.216.351-.306v.35Zm-1.206-1.45c0 .154-.036.262-.108.334a.333.333 0 0 1-.261.108.343.343 0 0 1-.306-.171c-.081-.126-.108-.414-.108-1.242 0-.828.027-1.116.108-1.242a.343.343 0 0 1 .306-.171c.108 0 .198.036.261.108.072.072.108.18.108.333ZM-505.885-3114.741c0-1.116-.045-2.007-.486-2.466-.342-.351-.702-.414-1.125-.414-.405 0-.792.063-1.134.414-.441.459-.477 1.35-.477 2.079 0 .729.036 1.62.477 2.07.342.35.675.423 1.134.423.504 0 .873-.117 1.143-.414.315-.342.423-.747.441-1.152h-1.206a.746.746 0 0 1-.063.306c-.063.117-.162.18-.315.18a.34.34 0 0 1-.315-.19c-.072-.134-.09-.512-.09-.836Zm-1.206-.873h-.81c0-.414.036-.648.09-.747.063-.117.153-.18.315-.18s.252.063.315.18c.054.099.09.333.09.747ZM-503.419-3112.707v-1.08c-.405 0-.594-.18-.594-.558v-4.77h-1.206v4.85c0 .63.216 1.018.558 1.26.351.253.747.298 1.242.298ZM-501.637-3112.707v-4.653h-1.206v4.653Zm.036-5.184v-1.278h-1.278v1.278ZM-497.641-3112.707v-3.411c0-.603-.081-.864-.27-1.098-.234-.28-.495-.405-.936-.405-.153 0-.324.045-.459.117a1.266 1.266 0 0 0-.351.306v-.351h-1.152v4.842h1.206v-3.393c0-.297.162-.441.378-.441s.378.144.378.44v3.394ZM-494.977-3112.545c0 .135-.027.243-.09.315a.374.374 0 0 1-.288.126c-.135 0-.225-.045-.288-.126a.588.588 0 0 1-.09-.342h-1.206c0 .378.117.783.441 1.089.288.279.711.414 1.143.414.423 0 .873-.153 1.143-.414.261-.261.441-.64.441-1.161v-4.905h-1.152v.288a1.653 1.653 0 0 0-.306-.243.937.937 0 0 0-.477-.117c-.396 0-.639.108-.864.378-.315.378-.396.909-.396 1.863s.081 1.485.396 1.863c.225.27.495.378.864.378a.84.84 0 0 0 .45-.117c.108-.072.198-.153.279-.243Zm0-2.08c0 .154-.036.262-.108.334a.333.333 0 0 1-.261.108.362.362 0 0 1-.306-.171c-.081-.126-.108-.342-.108-1.008 0-.666.027-.882.108-1.008a.362.362 0 0 1 .306-.171c.108 0 .198.036.261.108.072.072.108.18.108.333Z" fill="#3770a1"/><path d="M-507.325-3103.165v-4.69h-1.278v4.753c0 .414-.243.576-.531.576-.288 0-.531-.162-.531-.576v-4.752h-1.278v4.689c0 .513.171.945.477 1.26.342.35.792.53 1.332.53s.99-.18 1.332-.53c.306-.315.477-.747.477-1.26ZM-506.38-3107.854h1.278v6.408h-1.278z" fill="#c92505"/></g></svg>