<svg xmlns="http://www.w3.org/2000/svg" viewBox="-952 -3145.185 48 48" width="48" height="48"><g fill="none"><path d="M-949-3145.185h42a3 3 0 0 1 3 3v42a3 3 0 0 1-3 3h-42a3 3 0 0 1-3-3v-42a3 3 0 0 1 3-3Z" fill="#fff"/><path d="M-950.604-3122.734h3.029a19.558 19.558 0 0 1 5.691-12.346c7.669-7.668 20.102-7.668 27.77 0a19.558 19.558 0 0 1 5.692 12.346h3.029a22.57 22.57 0 0 0-6.585-14.482c-8.848-8.848-23.194-8.848-32.042 0a22.57 22.57 0 0 0-6.584 14.482Z" fill="#efb54f" fill-opacity=".252"/><path d="M-950.604-3122.734h3.029a19.558 19.558 0 0 1 5.691-12.346c7.669-7.668 20.102-7.668 27.77 0a19.558 19.558 0 0 1 5.692 12.346h3.029a22.57 22.57 0 0 0-6.585-14.482c-8.848-8.848-23.194-8.848-32.042 0a22.57 22.57 0 0 0-6.584 14.482Z"/><path d="M-944.926-3122.697h3.036a13.913 13.913 0 0 1 4.012-8.378c5.456-5.456 14.303-5.456 19.759 0a13.914 13.914 0 0 1 4.012 8.378h3.035a16.924 16.924 0 0 0-4.91-10.514c-6.637-6.636-17.396-6.636-24.033 0a16.924 16.924 0 0 0-4.91 10.514Z" fill="#d3673a" fill-opacity=".249"/><path d="M-944.926-3122.697h3.036a13.913 13.913 0 0 1 4.012-8.378c5.456-5.456 14.303-5.456 19.759 0a13.914 13.914 0 0 1 4.012 8.378h3.035a16.924 16.924 0 0 0-4.91-10.514c-6.637-6.636-17.396-6.636-24.033 0a16.924 16.924 0 0 0-4.91 10.514Z"/><path d="M-939.223-3122.734h3.06a8.308 8.308 0 0 1 16.33 0h3.059a11.28 11.28 0 0 0-3.214-6.471c-4.424-4.425-11.597-4.425-16.021 0a11.279 11.279 0 0 0-3.214 6.471Z" fill="#3570a0" fill-opacity=".25"/><path d="M-939.223-3122.734h3.06a8.308 8.308 0 0 1 16.33 0h3.059a11.28 11.28 0 0 0-3.214-6.471c-4.424-4.425-11.597-4.425-16.021 0a11.279 11.279 0 0 0-3.214 6.471Z"/><path d="M-944.946-3122.734h3.036a13.914 13.914 0 0 1 4.01-8.35 13.93 13.93 0 0 1 9.958-4.093c1.886.01 3.772.401 5.53 1.171l1.181-2.781a17.011 17.011 0 0 0-6.717-1.411 16.94 16.94 0 0 0-12.089 4.977 16.925 16.925 0 0 0-4.909 10.487Z" fill="#d3673a"/><path d="M-944.946-3122.734h3.036a13.914 13.914 0 0 1 4.01-8.35 13.93 13.93 0 0 1 9.958-4.093c1.886.01 3.772.401 5.53 1.171l1.181-2.781a17.011 17.011 0 0 0-6.717-1.411 16.94 16.94 0 0 0-12.089 4.977 16.925 16.925 0 0 0-4.909 10.487Z"/><path d="M-939.178-3122.697h3.055a8.27 8.27 0 0 1 2.305-4.414 8.277 8.277 0 0 1 5.421-2.42v-3.025a11.288 11.288 0 0 0-7.557 3.309 11.28 11.28 0 0 0-3.225 6.55Z" fill="#3570a0"/><path d="M-939.178-3122.697h3.055a8.27 8.27 0 0 1 2.305-4.414 8.277 8.277 0 0 1 5.421-2.42v-3.025a11.288 11.288 0 0 0-7.557 3.309 11.28 11.28 0 0 0-3.225 6.55Z"/><path d="M-950.606-3122.697h3.028a19.559 19.559 0 0 1 5.694-12.383c7.669-7.668 20.102-7.668 27.77 0 .864.864 1.63 1.789 2.3 2.76l2.624-1.515a22.765 22.765 0 0 0-2.788-3.381c-8.848-8.848-23.194-8.848-32.042 0a22.57 22.57 0 0 0-6.587 14.52Z" fill="#efb54f"/><path d="M-950.606-3122.697h3.028a19.559 19.559 0 0 1 5.694-12.383c7.669-7.668 20.102-7.668 27.77 0 .864.864 1.63 1.789 2.3 2.76l2.624-1.515a22.765 22.765 0 0 0-2.788-3.381c-8.848-8.848-23.194-8.848-32.042 0a22.57 22.57 0 0 0-6.587 14.52Z"/><path d="m-932.54-3112.707-1.648-6.408h-1.26l-1.647 6.408h1.332l.207-1h1.476l.208 1Zm-1.783-2.151h-.99l.495-2.376ZM-928.967-3112.707v-4.842h-1.207v3.393c0 .297-.162.44-.378.44s-.377-.143-.377-.44v-3.393h-1.207v3.41c0 .604.082.865.27 1.099.235.279.495.405.937.405.152 0 .323-.045.458-.117.135-.072.253-.19.351-.306v.35ZM-925.08-3112.707v-6.408h-1.205v1.854a1.257 1.257 0 0 0-.298-.243 1.022 1.022 0 0 0-.459-.117c-.395 0-.665.099-.9.396-.332.414-.332 1.134-.332 2.097 0 .963 0 1.683.332 2.097.235.297.505.396.9.396.154 0 .325-.045.46-.117.107-.063.297-.216.35-.306v.35Zm-1.205-1.45c0 .154-.037.262-.109.334a.333.333 0 0 1-.26.108.343.343 0 0 1-.307-.171c-.08-.126-.107-.414-.107-1.242 0-.828.026-1.116.107-1.242a.343.343 0 0 1 .307-.171c.107 0 .197.036.26.108.072.072.109.18.109.333ZM-923.045-3112.707v-4.653h-1.207v4.653Zm.035-5.184v-1.278h-1.278v1.278ZM-919.13-3115.128c0-.648-.028-1.458-.333-1.917-.316-.468-.766-.576-1.279-.576-.513 0-.963.108-1.278.576-.306.459-.332 1.269-.332 1.917 0 .648.026 1.458.332 1.917.315.468.765.576 1.279.576.512 0 .962-.108 1.278-.576.305-.46.332-1.27.332-1.917Zm-1.207 0c0 .549 0 1.026-.09 1.224a.34.34 0 0 1-.314.189.34.34 0 0 1-.316-.19c-.09-.197-.09-.674-.09-1.223 0-.55 0-1.026.09-1.224a.34.34 0 0 1 .316-.19.34.34 0 0 1 .314.19c.09.198.09.675.09 1.224Z" fill="#3770a1"/><path d="M-942.063-3101.446v-1.152h-1.673v-1.503h1.44v-1.152h-1.44v-1.45h1.673v-1.151h-2.952v6.408ZM-937.94-3101.446l-1.197-2.457 1.142-2.385h-1.34l-.505 1.233-.503-1.233h-1.333l1.117 2.385-1.18 2.457h1.341l.558-1.251.558 1.25ZM-935.475-3101.446v-1.08c-.404 0-.593-.18-.593-.558v-2.106h.593v-.91h-.593v-1.322h-1.207v1.323h-.45v.909h.45v2.187c0 .63.216 1.017.558 1.26.351.252.747.297 1.242.297ZM-931.838-3103.48c0-1.116-.046-2.007-.486-2.466-.343-.351-.703-.414-1.125-.414-.406 0-.793.063-1.135.414-.44.459-.477 1.35-.477 2.079 0 .729.037 1.62.478 2.07.341.35.674.423 1.134.423.503 0 .872-.117 1.142-.414.316-.342.423-.747.442-1.152h-1.207a.746.746 0 0 1-.063.306c-.063.117-.162.18-.314.18a.34.34 0 0 1-.316-.19c-.072-.134-.09-.512-.09-.836Zm-1.207-.873h-.81c0-.414.037-.648.09-.747.063-.117.154-.18.316-.18.161 0 .251.063.314.18.054.099.09.333.09.747ZM-927.986-3101.446v-3.411c0-.603-.082-.864-.27-1.098-.235-.28-.495-.405-.937-.405-.153 0-.323.045-.459.117a1.266 1.266 0 0 0-.35.306v-.351h-1.153v4.842h1.207v-3.393c0-.297.161-.441.377-.441s.379.144.379.44v3.394ZM-924.17-3102.931c0-.36-.09-.621-.216-.792-.163-.225-.388-.378-.73-.513l-.666-.252c-.144-.054-.251-.126-.305-.216a.341.341 0 0 1-.063-.216c0-.117.026-.207.098-.27a.394.394 0 0 1 .55.009c.063.072.098.18.098.306h1.18a1.44 1.44 0 0 0-.45-1.09c-.27-.251-.676-.395-1.099-.395-.432 0-.855.144-1.142.44-.27.28-.442.595-.442 1.117 0 .279.054.495.163.675.152.243.404.423.746.558l.675.26a.741.741 0 0 1 .316.208c.063.09.08.17.08.27 0 .099-.036.216-.099.27-.09.08-.162.099-.288.099a.408.408 0 0 1-.297-.126.481.481 0 0 1-.125-.315h-1.188c.009.486.18.81.459 1.107.27.279.72.423 1.151.423.433 0 .82-.09 1.135-.405.251-.261.459-.621.459-1.152ZM-922.317-3101.446v-4.653h-1.206v4.653Zm.037-5.184v-1.278h-1.279v1.278ZM-918.402-3103.867c0-.648-.026-1.458-.332-1.917-.315-.468-.765-.576-1.279-.576-.512 0-.962.108-1.277.576-.307.459-.334 1.269-.334 1.917 0 .648.028 1.458.334 1.917.314.468.764.576 1.277.576.514 0 .964-.108 1.279-.576.306-.46.332-1.27.332-1.917Zm-1.205 0c0 .549 0 1.026-.09 1.224a.34.34 0 0 1-.316.189.34.34 0 0 1-.314-.19c-.09-.197-.09-.674-.09-1.223 0-.55 0-1.026.09-1.224a.34.34 0 0 1 .314-.19.34.34 0 0 1 .316.19c.09.198.09.675.09 1.224ZM-914.54-3101.446v-3.411c0-.603-.082-.864-.27-1.098-.235-.28-.496-.405-.937-.405-.153 0-.324.045-.459.117a1.266 1.266 0 0 0-.35.306v-.351h-1.152v4.842h1.205v-3.393c0-.297.163-.441.379-.441s.378.144.378.44v3.394ZM-910.725-3102.931c0-.36-.09-.621-.216-.792-.161-.225-.386-.378-.728-.513l-.667-.252c-.144-.054-.251-.126-.305-.216a.341.341 0 0 1-.064-.216c0-.117.028-.207.1-.27a.394.394 0 0 1 .548.009c.063.072.1.18.1.306h1.178a1.44 1.44 0 0 0-.45-1.09c-.27-.251-.674-.395-1.097-.395-.433 0-.856.144-1.144.44-.27.28-.44.595-.44 1.117 0 .279.053.495.161.675.154.243.406.423.748.558l.674.26a.741.741 0 0 1 .316.208c.063.09.08.17.08.27 0 .099-.035.216-.098.27-.09.08-.163.099-.288.099a.408.408 0 0 1-.298-.126.481.481 0 0 1-.125-.315h-1.188c.009.486.18.81.458 1.107.27.279.72.423 1.153.423.432 0 .818-.09 1.134-.405.251-.261.458-.621.458-1.152Z" fill="#d2673a"/></g></svg>