<svg xmlns="http://www.w3.org/2000/svg" xmlns:xl="http://www.w3.org/1999/xlink" width="48" height="48" version="1.1" viewBox="-412 -3143.185 48 48"><g id="ICONES" fill="none" fill-opacity="1" stroke="none" stroke-dasharray="none" stroke-opacity="1"><title>ICONES</title><g id="ICONES_Calque_1"><title>Calque 1</title><g id="Group_4267"><g id="Graphic_4009"><path fill="#fff" d="M -409 -3143.1854 L -367 -3143.1854 C -365.34315 -3143.1854 -364 -3141.8423 -364 -3140.1854 L -364 -3098.1854 C -364 -3096.5286 -365.34315 -3095.1854 -367 -3095.1854 L -409 -3095.1854 C -410.65685 -3095.1854 -412 -3096.5286 -412 -3098.1854 L -412 -3140.1854 C -412 -3141.8423 -410.65685 -3143.1854 -409 -3143.1854 Z"/></g><g id="Group_4002"><g id="Graphic_4008"><path fill="#efb54f" fill-opacity=".252" d="M -410.60404 -3120.734 L -407.57504 -3120.734 C -407.2233 -3125.2347 -405.3262 -3129.6373 -401.8837 -3133.0797 C -394.21526 -3140.7482 -381.78225 -3140.7482 -374.1138 -3133.0797 C -370.6713 -3129.6373 -368.7742 -3125.2347 -368.42248 -3120.734 L -365.39348 -3120.734 C -365.7505 -3126.0092 -367.9452 -3131.1835 -371.97765 -3135.216 C -380.82587 -3144.064 -395.17165 -3144.064 -404.01986 -3135.216 C -408.0523 -3131.1835 -410.24704 -3126.0092 -410.60404 -3120.734 Z"/><path stroke="#efb64f" stroke-linecap="round" stroke-linejoin="round" stroke-width="0" d="M -410.60404 -3120.734 L -407.57504 -3120.734 C -407.2233 -3125.2347 -405.3262 -3129.6373 -401.8837 -3133.0797 C -394.21526 -3140.7482 -381.78225 -3140.7482 -374.1138 -3133.0797 C -370.6713 -3129.6373 -368.7742 -3125.2347 -368.42248 -3120.734 L -365.39348 -3120.734 C -365.7505 -3126.0092 -367.9452 -3131.1835 -371.97765 -3135.216 C -380.82587 -3144.064 -395.17165 -3144.064 -404.01986 -3135.216 C -408.0523 -3131.1835 -410.24704 -3126.0092 -410.60404 -3120.734 Z"/></g><g id="Graphic_4007"><path fill="#d3673a" fill-opacity=".249" d="M -404.92563 -3120.6968 L -401.8903 -3120.6968 C -401.56134 -3123.7568 -400.22406 -3126.729 -397.87844 -3129.0745 C -392.42204 -3134.531 -383.57548 -3134.531 -378.1191 -3129.0745 C -375.77346 -3126.729 -374.4362 -3123.7568 -374.10724 -3120.6968 L -371.0719 -3120.6968 C -371.41022 -3124.5324 -373.04724 -3128.275 -375.98293 -3131.2106 C -382.6191 -3137.8468 -393.37843 -3137.8468 -400.0146 -3131.2106 C -402.9503 -3128.275 -404.5873 -3124.5324 -404.92563 -3120.6968 Z"/><path stroke="#d2673a" stroke-linecap="round" stroke-linejoin="round" stroke-width="0" d="M -404.92563 -3120.6968 L -401.8903 -3120.6968 C -401.56134 -3123.7568 -400.22406 -3126.729 -397.87844 -3129.0745 C -392.42204 -3134.531 -383.57548 -3134.531 -378.1191 -3129.0745 C -375.77346 -3126.729 -374.4362 -3123.7568 -374.10724 -3120.6968 L -371.0719 -3120.6968 C -371.41022 -3124.5324 -373.04724 -3128.275 -375.98293 -3131.2106 C -382.6191 -3137.8468 -393.37843 -3137.8468 -400.0146 -3131.2106 C -402.9503 -3128.275 -404.5873 -3124.5324 -404.92563 -3120.6968 Z"/></g><g id="Graphic_4006"><path fill="#3570a0" fill-opacity=".25" d="M -399.223 -3120.734 L -396.1634 -3120.734 C -395.8655 -3122.322 -395.10208 -3123.8403 -393.87316 -3125.0692 C -390.6288 -3128.3136 -385.3687 -3128.3136 -382.12435 -3125.0692 C -380.89544 -3123.8403 -380.132 -3122.322 -379.8341 -3120.734 L -376.77453 -3120.734 C -377.09733 -3123.101 -378.16856 -3125.3857 -379.9882 -3127.2053 C -384.4123 -3131.6295 -391.5852 -3131.6295 -396.0093 -3127.2053 C -397.82896 -3125.3857 -398.9002 -3123.101 -399.223 -3120.734 Z"/><path stroke="#3770a0" stroke-linecap="round" stroke-linejoin="round" stroke-width="0" d="M -399.223 -3120.734 L -396.1634 -3120.734 C -395.8655 -3122.322 -395.10208 -3123.8403 -393.87316 -3125.0692 C -390.6288 -3128.3136 -385.3687 -3128.3136 -382.12435 -3125.0692 C -380.89544 -3123.8403 -380.132 -3122.322 -379.8341 -3120.734 L -376.77453 -3120.734 C -377.09733 -3123.101 -378.16856 -3125.3857 -379.9882 -3127.2053 C -384.4123 -3131.6295 -391.5852 -3131.6295 -396.0093 -3127.2053 C -397.82896 -3125.3857 -398.9002 -3123.101 -399.223 -3120.734 Z"/></g><g id="Graphic_4005"><path fill="#d3673a" d="M -404.94556 -3120.734 L -401.9097 -3120.734 C -401.57583 -3123.7844 -400.2395 -3126.746 -397.90076 -3129.0848 C -395.1525 -3131.833 -391.5442 -3133.197 -387.94224 -3133.177 C -386.0555 -3133.1663 -384.1705 -3132.776 -382.4117 -3132.0057 L -381.23095 -3134.7874 C -383.36784 -3135.718 -385.657 -3136.188 -387.94776 -3136.198 C -392.32104 -3136.2167 -396.7002 -3134.5577 -400.0369 -3131.221 C -402.96576 -3128.292 -404.60197 -3124.56 -404.94556 -3120.734 Z"/><path stroke="#d2673a" stroke-linecap="round" stroke-linejoin="round" stroke-width="0" d="M -404.94556 -3120.734 L -401.9097 -3120.734 C -401.57583 -3123.7844 -400.2395 -3126.746 -397.90076 -3129.0848 C -395.1525 -3131.833 -391.5442 -3133.197 -387.94224 -3133.177 C -386.0555 -3133.1663 -384.1705 -3132.776 -382.4117 -3132.0057 L -381.23095 -3134.7874 C -383.36784 -3135.718 -385.657 -3136.188 -387.94776 -3136.198 C -392.32104 -3136.2167 -396.7002 -3134.5577 -400.0369 -3131.221 C -402.96576 -3128.292 -404.60197 -3124.56 -404.94556 -3120.734 Z"/></g><g id="Graphic_4004"><path fill="#3570a0" d="M -399.1785 -3120.6968 L -396.12287 -3120.6968 C -395.83565 -3122.3136 -395.06744 -3123.8616 -393.81823 -3125.111 C -392.31135 -3126.6177 -390.3696 -3127.4247 -388.397 -3127.5318 L -388.397 -3130.556 C -391.14338 -3130.4468 -393.8576 -3129.3438 -395.9544 -3127.247 C -397.7942 -3125.407 -398.8689 -3123.092 -399.1785 -3120.6968 Z"/><path stroke="#3770a0" stroke-linecap="round" stroke-linejoin="round" stroke-width="0" d="M -399.1785 -3120.6968 L -396.12287 -3120.6968 C -395.83565 -3122.3136 -395.06744 -3123.8616 -393.81823 -3125.111 C -392.31135 -3126.6177 -390.3696 -3127.4247 -388.397 -3127.5318 L -388.397 -3130.556 C -391.14338 -3130.4468 -393.8576 -3129.3438 -395.9544 -3127.247 C -397.7942 -3125.407 -398.8689 -3123.092 -399.1785 -3120.6968 Z"/></g><g id="Graphic_4003"><path fill="#efb54f" d="M -410.60652 -3120.6968 L -407.5779 -3120.6968 C -407.23372 -3125.2104 -405.33566 -3129.628 -401.8837 -3133.0797 C -394.21526 -3140.7482 -381.78225 -3140.7482 -374.1138 -3133.0797 C -373.24983 -3132.2158 -372.4832 -3131.2913 -371.8139 -3130.32 L -369.18996 -3131.835 C -369.9934 -3133.0277 -370.92262 -3134.161 -371.97765 -3135.216 C -380.82587 -3144.064 -395.17165 -3144.064 -404.01986 -3135.216 C -408.06177 -3131.174 -410.2573 -3125.985 -410.60652 -3120.6968 Z"/><path stroke="#efb64f" stroke-linecap="round" stroke-linejoin="round" stroke-width="0" d="M -410.60652 -3120.6968 L -407.5779 -3120.6968 C -407.23372 -3125.2104 -405.33566 -3129.628 -401.8837 -3133.0797 C -394.21526 -3140.7482 -381.78225 -3140.7482 -374.1138 -3133.0797 C -373.24983 -3132.2158 -372.4832 -3131.2913 -371.8139 -3130.32 L -369.18996 -3131.835 C -369.9934 -3133.0277 -370.92262 -3134.161 -371.97765 -3135.216 C -380.82587 -3144.064 -395.17165 -3144.064 -404.01986 -3135.216 C -408.06177 -3131.174 -410.2573 -3125.985 -410.60652 -3120.6968 Z"/></g></g><g id="Group_4168"><title/><g id="Graphic_4151"><path fill="#3770a1" d="M -397.4725 -3110.7074 L -397.4725 -3117.1154 L -398.7505 -3117.1154 L -398.7505 -3113.9834 L -400.0825 -3117.1154 L -401.1985 -3117.1154 L -401.1985 -3110.7074 L -399.9205 -3110.7074 L -399.9205 -3113.8394 L -398.5615 -3110.7074 Z"/></g><g id="Graphic_4152"><path fill="#3770a1" d="M -393.4765 -3112.7414 C -393.4765 -3113.8574 -393.5215 -3114.7484 -393.9625 -3115.2074 C -394.3045 -3115.5584 -394.6645 -3115.6214 -395.0875 -3115.6214 C -395.4925 -3115.6214 -395.8795 -3115.5584 -396.2215 -3115.2074 C -396.6625 -3114.7484 -396.6985 -3113.8574 -396.6985 -3113.1284 C -396.6985 -3112.3994 -396.6625 -3111.5084 -396.2215 -3111.0584 C -395.8795 -3110.7074 -395.5465 -3110.6354 -395.0875 -3110.6354 C -394.5835 -3110.6354 -394.2145 -3110.7524 -393.9445 -3111.0494 C -393.6295 -3111.3914 -393.5215 -3111.7964 -393.5035 -3112.2014 L -394.7095 -3112.2014 C -394.7095 -3112.1204 -394.7275 -3111.9764 -394.7725 -3111.8954 C -394.8355 -3111.7784 -394.9345 -3111.7154 -395.0875 -3111.7154 C -395.2405 -3111.7154 -395.3485 -3111.7964 -395.4025 -3111.9044 C -395.4745 -3112.0394 -395.4925 -3112.4174 -395.4925 -3112.7414 Z M -394.6825 -3113.6144 L -395.4925 -3113.6144 C -395.4925 -3114.0284 -395.4565 -3114.2624 -395.4025 -3114.3614 C -395.3395 -3114.4784 -395.2495 -3114.5414 -395.0875 -3114.5414 C -394.9255 -3114.5414 -394.8355 -3114.4784 -394.7725 -3114.3614 C -394.7185 -3114.2624 -394.6825 -3114.0284 -394.6825 -3113.6144 Z"/></g><g id="Graphic_4153"><path fill="#3770a1" d="M -390.8215 -3110.7074 L -390.8215 -3111.7874 C -391.2265 -3111.7874 -391.4155 -3111.9674 -391.4155 -3112.3454 L -391.4155 -3114.4514 L -390.8215 -3114.4514 L -390.8215 -3115.3604 L -391.4155 -3115.3604 L -391.4155 -3116.6834 L -392.6215 -3116.6834 L -392.6215 -3115.3604 L -393.0715 -3115.3604 L -393.0715 -3114.4514 L -392.6215 -3114.4514 L -392.6215 -3112.2644 C -392.6215 -3111.6344 -392.4055 -3111.2474 -392.0635 -3111.0044 C -391.7125 -3110.7524 -391.3165 -3110.7074 -390.8215 -3110.7074 Z"/></g><g id="Graphic_4154"><path fill="#3770a1" d="M -384.9625 -3115.5494 L -386.3035 -3115.5494 L -386.7535 -3112.6244 L -387.2935 -3115.5494 L -388.2835 -3115.5494 L -388.8235 -3112.6244 L -389.2735 -3115.5494 L -390.6055 -3115.5494 L -389.4625 -3110.7074 L -388.2925 -3110.7074 L -387.7885 -3113.4164 L -387.2935 -3110.7074 L -386.1235 -3110.7074 Z"/></g><g id="Graphic_4155"><path fill="#3770a1" d="M -381.5155 -3113.1284 C -381.5155 -3113.7764 -381.5425 -3114.5864 -381.8485 -3115.0454 C -382.1635 -3115.5134 -382.6135 -3115.6214 -383.1265 -3115.6214 C -383.6395 -3115.6214 -384.0895 -3115.5134 -384.4045 -3115.0454 C -384.7105 -3114.5864 -384.7375 -3113.7764 -384.7375 -3113.1284 C -384.7375 -3112.4804 -384.7105 -3111.6704 -384.4045 -3111.2114 C -384.0895 -3110.7434 -383.6395 -3110.6354 -383.1265 -3110.6354 C -382.6135 -3110.6354 -382.1635 -3110.7434 -381.8485 -3111.2114 C -381.5425 -3111.6704 -381.5155 -3112.4804 -381.5155 -3113.1284 Z M -382.7215 -3113.1284 C -382.7215 -3112.5794 -382.7215 -3112.1024 -382.8115 -3111.9044 C -382.8745 -3111.7694 -383.0095 -3111.7154 -383.1265 -3111.7154 C -383.2435 -3111.7154 -383.3785 -3111.7694 -383.4415 -3111.9044 C -383.5315 -3112.1024 -383.5315 -3112.5794 -383.5315 -3113.1284 C -383.5315 -3113.6774 -383.5315 -3114.1544 -383.4415 -3114.3524 C -383.3785 -3114.4874 -383.2435 -3114.5414 -383.1265 -3114.5414 C -383.0095 -3114.5414 -382.8745 -3114.4874 -382.8115 -3114.3524 C -382.7215 -3114.1544 -382.7215 -3113.6774 -382.7215 -3113.1284 Z"/></g><g id="Graphic_4156"><path fill="#3770a1" d="M -378.4285 -3114.4334 L -378.4285 -3115.6214 C -378.6895 -3115.6214 -378.9325 -3115.5584 -379.1395 -3115.4594 C -379.3555 -3115.3514 -379.5355 -3115.1984 -379.6705 -3115.0274 L -379.6705 -3115.5494 L -380.8225 -3115.5494 L -380.8225 -3110.7074 L -379.6165 -3110.7074 L -379.6165 -3113.6594 C -379.6165 -3114.1454 -379.2745 -3114.4334 -378.8695 -3114.4334 Z"/></g><g id="Graphic_4157"><path fill="#3770a1" d="M -374.3245 -3110.7074 L -375.5755 -3113.5874 L -374.3335 -3115.5494 L -375.5845 -3115.5494 L -376.6465 -3113.7314 L -376.6465 -3117.1154 L -377.8525 -3117.1154 L -377.8525 -3110.7074 L -376.6465 -3110.7074 L -376.6465 -3112.0214 L -376.3495 -3112.4894 L -375.6565 -3110.7074 Z"/></g><g id="Graphic_4158"><path fill="#d2673a" d="M -402.0625 -3099.4464 L -402.0625 -3100.5984 L -403.7365 -3100.5984 L -403.7365 -3102.1014 L -402.2965 -3102.1014 L -402.2965 -3103.2534 L -403.7365 -3103.2534 L -403.7365 -3104.7024 L -402.0625 -3104.7024 L -402.0625 -3105.8544 L -405.0145 -3105.8544 L -405.0145 -3099.4464 Z"/></g><g id="Graphic_4159"><path fill="#d2673a" d="M -397.9405 -3099.4464 L -399.1375 -3101.9034 L -397.9945 -3104.2884 L -399.3355 -3104.2884 L -399.8395 -3103.0554 L -400.3435 -3104.2884 L -401.6755 -3104.2884 L -400.5595 -3101.9034 L -401.7385 -3099.4464 L -400.3975 -3099.4464 L -399.8395 -3100.6974 L -399.2815 -3099.4464 Z"/></g><g id="Graphic_4160"><path fill="#d2673a" d="M -395.4745 -3099.4464 L -395.4745 -3100.5264 C -395.8795 -3100.5264 -396.0685 -3100.7064 -396.0685 -3101.0844 L -396.0685 -3103.1904 L -395.4745 -3103.1904 L -395.4745 -3104.0994 L -396.0685 -3104.0994 L -396.0685 -3105.4224 L -397.2745 -3105.4224 L -397.2745 -3104.0994 L -397.7245 -3104.0994 L -397.7245 -3103.1904 L -397.2745 -3103.1904 L -397.2745 -3101.0034 C -397.2745 -3100.3734 -397.0585 -3099.9864 -396.7165 -3099.7434 C -396.3655 -3099.4914 -395.9695 -3099.4464 -395.4745 -3099.4464 Z"/></g><g id="Graphic_4161"><path fill="#d2673a" d="M -391.8385 -3101.4804 C -391.8385 -3102.5964 -391.8835 -3103.4874 -392.3245 -3103.9464 C -392.6665 -3104.2974 -393.0265 -3104.3604 -393.4495 -3104.3604 C -393.8545 -3104.3604 -394.2415 -3104.2974 -394.5835 -3103.9464 C -395.0245 -3103.4874 -395.0605 -3102.5964 -395.0605 -3101.8674 C -395.0605 -3101.1384 -395.0245 -3100.2474 -394.5835 -3099.7974 C -394.2415 -3099.4464 -393.9085 -3099.3744 -393.4495 -3099.3744 C -392.9455 -3099.3744 -392.5765 -3099.4914 -392.3065 -3099.7884 C -391.9915 -3100.1304 -391.8835 -3100.5354 -391.8655 -3100.9404 L -393.0715 -3100.9404 C -393.0715 -3100.8594 -393.0895 -3100.7154 -393.1345 -3100.6344 C -393.1975 -3100.5174 -393.2965 -3100.4544 -393.4495 -3100.4544 C -393.6025 -3100.4544 -393.7105 -3100.5354 -393.7645 -3100.6434 C -393.8365 -3100.7784 -393.8545 -3101.1564 -393.8545 -3101.4804 Z M -393.0445 -3102.3534 L -393.8545 -3102.3534 C -393.8545 -3102.7674 -393.8185 -3103.0014 -393.7645 -3103.1004 C -393.7015 -3103.2174 -393.6115 -3103.2804 -393.4495 -3103.2804 C -393.2875 -3103.2804 -393.1975 -3103.2174 -393.1345 -3103.1004 C -393.0805 -3103.0014 -393.0445 -3102.7674 -393.0445 -3102.3534 Z"/></g><g id="Graphic_4162"><path fill="#d2673a" d="M -387.9865 -3099.4464 L -387.9865 -3102.8574 C -387.9865 -3103.4604 -388.0675 -3103.7214 -388.2565 -3103.9554 C -388.4905 -3104.2344 -388.7515 -3104.3604 -389.1925 -3104.3604 C -389.3455 -3104.3604 -389.5165 -3104.3154 -389.6515 -3104.2434 C -389.7865 -3104.1714 -389.9035 -3104.0544 -390.0025 -3103.9374 L -390.0025 -3104.2884 L -391.1545 -3104.2884 L -391.1545 -3099.4464 L -389.9485 -3099.4464 L -389.9485 -3102.8394 C -389.9485 -3103.1364 -389.7865 -3103.2804 -389.5705 -3103.2804 C -389.3545 -3103.2804 -389.1925 -3103.1364 -389.1925 -3102.8394 L -389.1925 -3099.4464 Z"/></g><g id="Graphic_4163"><path fill="#d2673a" d="M -384.1705 -3100.9314 C -384.1705 -3101.2914 -384.2605 -3101.5524 -384.3865 -3101.7234 C -384.5485 -3101.9484 -384.7735 -3102.1014 -385.1155 -3102.2364 L -385.7815 -3102.4884 C -385.9255 -3102.5424 -386.0335 -3102.6144 -386.0875 -3102.7044 C -386.1325 -3102.7674 -386.1505 -3102.8304 -386.1505 -3102.9204 C -386.1505 -3103.0374 -386.1235 -3103.1274 -386.0515 -3103.1904 C -385.9885 -3103.2534 -385.8895 -3103.2984 -385.7725 -3103.2984 C -385.6735 -3103.2984 -385.5745 -3103.2534 -385.5025 -3103.1814 C -385.4395 -3103.1094 -385.4035 -3103.0014 -385.4035 -3102.8754 L -384.2245 -3102.8754 C -384.2245 -3103.3704 -384.4135 -3103.7124 -384.6745 -3103.9644 C -384.9445 -3104.2164 -385.3495 -3104.3604 -385.7725 -3104.3604 C -386.2045 -3104.3604 -386.6275 -3104.2164 -386.9155 -3103.9194 C -387.1855 -3103.6404 -387.3565 -3103.3254 -387.3565 -3102.8034 C -387.3565 -3102.5244 -387.3025 -3102.3084 -387.1945 -3102.1284 C -387.0415 -3101.8854 -386.7895 -3101.7054 -386.4475 -3101.5704 L -385.7725 -3101.3094 C -385.6375 -3101.2554 -385.5295 -3101.1924 -385.4575 -3101.1024 C -385.3945 -3101.0124 -385.3765 -3100.9314 -385.3765 -3100.8324 C -385.3765 -3100.7334 -385.4125 -3100.6164 -385.4755 -3100.5624 C -385.5655 -3100.4814 -385.6375 -3100.4634 -385.7635 -3100.4634 C -385.8715 -3100.4634 -385.9885 -3100.5084 -386.0605 -3100.5894 C -386.1325 -3100.6614 -386.1775 -3100.7694 -386.1865 -3100.9044 L -387.3745 -3100.9044 C -387.3655 -3100.4184 -387.1945 -3100.0944 -386.9155 -3099.7974 C -386.6455 -3099.5184 -386.1955 -3099.3744 -385.7635 -3099.3744 C -385.3315 -3099.3744 -384.9445 -3099.4644 -384.6295 -3099.7794 C -384.3775 -3100.0404 -384.1705 -3100.4004 -384.1705 -3100.9314 Z"/></g><g id="Graphic_4164"><path fill="#d2673a" d="M -382.3165 -3099.4464 L -382.3165 -3104.0994 L -383.5225 -3104.0994 L -383.5225 -3099.4464 Z M -382.2805 -3104.6304 L -382.2805 -3105.9084 L -383.5585 -3105.9084 L -383.5585 -3104.6304 Z"/></g><g id="Graphic_4165"><path fill="#d2673a" d="M -378.4015 -3101.8674 C -378.4015 -3102.5154 -378.4285 -3103.3254 -378.7345 -3103.7844 C -379.0495 -3104.2524 -379.4995 -3104.3604 -380.0125 -3104.3604 C -380.5255 -3104.3604 -380.9755 -3104.2524 -381.2905 -3103.7844 C -381.5965 -3103.3254 -381.6235 -3102.5154 -381.6235 -3101.8674 C -381.6235 -3101.2194 -381.5965 -3100.4094 -381.2905 -3099.9504 C -380.9755 -3099.4824 -380.5255 -3099.3744 -380.0125 -3099.3744 C -379.4995 -3099.3744 -379.0495 -3099.4824 -378.7345 -3099.9504 C -378.4285 -3100.4094 -378.4015 -3101.2194 -378.4015 -3101.8674 Z M -379.6075 -3101.8674 C -379.6075 -3101.3184 -379.6075 -3100.8414 -379.6975 -3100.6434 C -379.7605 -3100.5084 -379.8955 -3100.4544 -380.0125 -3100.4544 C -380.1295 -3100.4544 -380.2645 -3100.5084 -380.3275 -3100.6434 C -380.4175 -3100.8414 -380.4175 -3101.3184 -380.4175 -3101.8674 C -380.4175 -3102.4164 -380.4175 -3102.8934 -380.3275 -3103.0914 C -380.2645 -3103.2264 -380.1295 -3103.2804 -380.0125 -3103.2804 C -379.8955 -3103.2804 -379.7605 -3103.2264 -379.6975 -3103.0914 C -379.6075 -3102.8934 -379.6075 -3102.4164 -379.6075 -3101.8674 Z"/></g><g id="Graphic_4166"><path fill="#d2673a" d="M -374.5405 -3099.4464 L -374.5405 -3102.8574 C -374.5405 -3103.4604 -374.6215 -3103.7214 -374.8105 -3103.9554 C -375.0445 -3104.2344 -375.3055 -3104.3604 -375.7465 -3104.3604 C -375.8995 -3104.3604 -376.0705 -3104.3154 -376.2055 -3104.2434 C -376.3405 -3104.1714 -376.4575 -3104.0544 -376.5565 -3103.9374 L -376.5565 -3104.2884 L -377.7085 -3104.2884 L -377.7085 -3099.4464 L -376.5025 -3099.4464 L -376.5025 -3102.8394 C -376.5025 -3103.1364 -376.3405 -3103.2804 -376.1245 -3103.2804 C -375.9085 -3103.2804 -375.7465 -3103.1364 -375.7465 -3102.8394 L -375.7465 -3099.4464 Z"/></g><g id="Graphic_4167"><path fill="#d2673a" d="M -370.7245 -3100.9314 C -370.7245 -3101.2914 -370.8145 -3101.5524 -370.9405 -3101.7234 C -371.1025 -3101.9484 -371.3275 -3102.1014 -371.6695 -3102.2364 L -372.3355 -3102.4884 C -372.4795 -3102.5424 -372.5875 -3102.6144 -372.6415 -3102.7044 C -372.6865 -3102.7674 -372.7045 -3102.8304 -372.7045 -3102.9204 C -372.7045 -3103.0374 -372.6775 -3103.1274 -372.6055 -3103.1904 C -372.5425 -3103.2534 -372.4435 -3103.2984 -372.3265 -3103.2984 C -372.2275 -3103.2984 -372.1285 -3103.2534 -372.0565 -3103.1814 C -371.9935 -3103.1094 -371.9575 -3103.0014 -371.9575 -3102.8754 L -370.7785 -3102.8754 C -370.7785 -3103.3704 -370.9675 -3103.7124 -371.2285 -3103.9644 C -371.4985 -3104.2164 -371.9035 -3104.3604 -372.3265 -3104.3604 C -372.7585 -3104.3604 -373.1815 -3104.2164 -373.4695 -3103.9194 C -373.7395 -3103.6404 -373.9105 -3103.3254 -373.9105 -3102.8034 C -373.9105 -3102.5244 -373.8565 -3102.3084 -373.7485 -3102.1284 C -373.5955 -3101.8854 -373.3435 -3101.7054 -373.0015 -3101.5704 L -372.3265 -3101.3094 C -372.1915 -3101.2554 -372.0835 -3101.1924 -372.0115 -3101.1024 C -371.9485 -3101.0124 -371.9305 -3100.9314 -371.9305 -3100.8324 C -371.9305 -3100.7334 -371.9665 -3100.6164 -372.0295 -3100.5624 C -372.1195 -3100.4814 -372.1915 -3100.4634 -372.3175 -3100.4634 C -372.4255 -3100.4634 -372.5425 -3100.5084 -372.6145 -3100.5894 C -372.6865 -3100.6614 -372.7315 -3100.7694 -372.7405 -3100.9044 L -373.9285 -3100.9044 C -373.9195 -3100.4184 -373.7485 -3100.0944 -373.4695 -3099.7974 C -373.1995 -3099.5184 -372.7495 -3099.3744 -372.3175 -3099.3744 C -371.8855 -3099.3744 -371.4985 -3099.4644 -371.1835 -3099.7794 C -370.9315 -3100.0404 -370.7245 -3100.4004 -370.7245 -3100.9314 Z"/></g></g></g></g></g></svg>