<svg xmlns="http://www.w3.org/2000/svg" xmlns:xl="http://www.w3.org/1999/xlink" width="48" height="48" version="1.1" viewBox="-892 -3145.185 48 48"><g id="ICONES" fill="none" fill-opacity="1" stroke="none" stroke-dasharray="none" stroke-opacity="1"><title>ICONES</title><g id="ICONES_Calque_1"><title>Calque 1</title><g id="Group_4270"><g id="Graphic_4285"><path fill="#fff" d="M -889 -3145.1854 L -847 -3145.1854 C -845.3431 -3145.1854 -844 -3143.8423 -844 -3142.1854 L -844 -3100.1854 C -844 -3098.5286 -845.3431 -3097.1854 -847 -3097.1854 L -889 -3097.1854 C -890.6569 -3097.1854 -892 -3098.5286 -892 -3100.1854 L -892 -3142.1854 C -892 -3143.8423 -890.6569 -3145.1854 -889 -3145.1854 Z"/></g><g id="Group_4278"><g id="Graphic_4284"><path fill="#efb54f" fill-opacity=".252" d="M -890.604 -3122.734 L -887.575 -3122.734 C -887.2233 -3127.2347 -885.3262 -3131.6373 -881.8837 -3135.0797 C -874.2153 -3142.7482 -861.7823 -3142.7482 -854.1138 -3135.0797 C -850.6713 -3131.6373 -848.7742 -3127.2347 -848.4225 -3122.734 L -845.3935 -3122.734 C -845.7505 -3128.0092 -847.9452 -3133.1835 -851.9777 -3137.216 C -860.8259 -3146.064 -875.1716 -3146.064 -884.0199 -3137.216 C -888.0523 -3133.1835 -890.247 -3128.0092 -890.604 -3122.734 Z"/><path stroke="#efb64f" stroke-linecap="round" stroke-linejoin="round" stroke-width="0" d="M -890.604 -3122.734 L -887.575 -3122.734 C -887.2233 -3127.2347 -885.3262 -3131.6373 -881.8837 -3135.0797 C -874.2153 -3142.7482 -861.7823 -3142.7482 -854.1138 -3135.0797 C -850.6713 -3131.6373 -848.7742 -3127.2347 -848.4225 -3122.734 L -845.3935 -3122.734 C -845.7505 -3128.0092 -847.9452 -3133.1835 -851.9777 -3137.216 C -860.8259 -3146.064 -875.1716 -3146.064 -884.0199 -3137.216 C -888.0523 -3133.1835 -890.247 -3128.0092 -890.604 -3122.734 Z"/></g><g id="Graphic_4283"><path fill="#d3673a" fill-opacity=".249" d="M -884.9256 -3122.6968 L -881.8903 -3122.6968 C -881.5613 -3125.7568 -880.2241 -3128.729 -877.8784 -3131.0745 C -872.422 -3136.531 -863.5755 -3136.531 -858.1191 -3131.0745 C -855.7735 -3128.729 -854.4362 -3125.7568 -854.1072 -3122.6968 L -851.0719 -3122.6968 C -851.4102 -3126.5324 -853.0472 -3130.275 -855.9829 -3133.2106 C -862.6191 -3139.8468 -873.3784 -3139.8468 -880.0146 -3133.2106 C -882.9503 -3130.275 -884.5873 -3126.5324 -884.9256 -3122.6968 Z"/><path stroke="#d2673a" stroke-linecap="round" stroke-linejoin="round" stroke-width="0" d="M -884.9256 -3122.6968 L -881.8903 -3122.6968 C -881.5613 -3125.7568 -880.2241 -3128.729 -877.8784 -3131.0745 C -872.422 -3136.531 -863.5755 -3136.531 -858.1191 -3131.0745 C -855.7735 -3128.729 -854.4362 -3125.7568 -854.1072 -3122.6968 L -851.0719 -3122.6968 C -851.4102 -3126.5324 -853.0472 -3130.275 -855.9829 -3133.2106 C -862.6191 -3139.8468 -873.3784 -3139.8468 -880.0146 -3133.2106 C -882.9503 -3130.275 -884.5873 -3126.5324 -884.9256 -3122.6968 Z"/></g><g id="Graphic_4282"><path fill="#3570a0" fill-opacity=".25" d="M -879.223 -3122.734 L -876.1634 -3122.734 C -875.8655 -3124.322 -875.1021 -3125.8403 -873.8732 -3127.0692 C -870.6288 -3130.3136 -865.3687 -3130.3136 -862.1244 -3127.0692 C -860.8954 -3125.8403 -860.132 -3124.322 -859.8341 -3122.734 L -856.7745 -3122.734 C -857.0973 -3125.101 -858.1686 -3127.3857 -859.9882 -3129.2053 C -864.4123 -3133.6295 -871.5852 -3133.6295 -876.0093 -3129.2053 C -877.829 -3127.3857 -878.9002 -3125.101 -879.223 -3122.734 Z"/><path stroke="#3770a0" stroke-linecap="round" stroke-linejoin="round" stroke-width="0" d="M -879.223 -3122.734 L -876.1634 -3122.734 C -875.8655 -3124.322 -875.1021 -3125.8403 -873.8732 -3127.0692 C -870.6288 -3130.3136 -865.3687 -3130.3136 -862.1244 -3127.0692 C -860.8954 -3125.8403 -860.132 -3124.322 -859.8341 -3122.734 L -856.7745 -3122.734 C -857.0973 -3125.101 -858.1686 -3127.3857 -859.9882 -3129.2053 C -864.4123 -3133.6295 -871.5852 -3133.6295 -876.0093 -3129.2053 C -877.829 -3127.3857 -878.9002 -3125.101 -879.223 -3122.734 Z"/></g><g id="Graphic_4281"><path fill="#d3673a" d="M -884.9456 -3122.734 L -881.9097 -3122.734 C -881.5758 -3125.7844 -880.2395 -3128.746 -877.9008 -3131.0848 C -875.1525 -3133.833 -871.5442 -3135.197 -867.9422 -3135.177 C -866.0555 -3135.1663 -864.1705 -3134.776 -862.4117 -3134.0057 L -861.2309 -3136.7874 C -863.3678 -3137.718 -865.657 -3138.188 -867.9478 -3138.198 C -872.321 -3138.2167 -876.7002 -3136.5577 -880.0369 -3133.221 C -882.9658 -3130.292 -884.602 -3126.56 -884.9456 -3122.734 Z"/><path stroke="#d2673a" stroke-linecap="round" stroke-linejoin="round" stroke-width="0" d="M -884.9456 -3122.734 L -881.9097 -3122.734 C -881.5758 -3125.7844 -880.2395 -3128.746 -877.9008 -3131.0848 C -875.1525 -3133.833 -871.5442 -3135.197 -867.9422 -3135.177 C -866.0555 -3135.1663 -864.1705 -3134.776 -862.4117 -3134.0057 L -861.2309 -3136.7874 C -863.3678 -3137.718 -865.657 -3138.188 -867.9478 -3138.198 C -872.321 -3138.2167 -876.7002 -3136.5577 -880.0369 -3133.221 C -882.9658 -3130.292 -884.602 -3126.56 -884.9456 -3122.734 Z"/></g><g id="Graphic_4280"><path fill="#3570a0" d="M -879.1785 -3122.6968 L -876.1229 -3122.6968 C -875.8357 -3124.3136 -875.0674 -3125.8616 -873.8182 -3127.111 C -872.3114 -3128.6177 -870.3696 -3129.4247 -868.397 -3129.5318 L -868.397 -3132.556 C -871.1434 -3132.4468 -873.8576 -3131.3438 -875.9544 -3129.247 C -877.7942 -3127.407 -878.8689 -3125.092 -879.1785 -3122.6968 Z"/><path stroke="#3770a0" stroke-linecap="round" stroke-linejoin="round" stroke-width="0" d="M -879.1785 -3122.6968 L -876.1229 -3122.6968 C -875.8357 -3124.3136 -875.0674 -3125.8616 -873.8182 -3127.111 C -872.3114 -3128.6177 -870.3696 -3129.4247 -868.397 -3129.5318 L -868.397 -3132.556 C -871.1434 -3132.4468 -873.8576 -3131.3438 -875.9544 -3129.247 C -877.7942 -3127.407 -878.8689 -3125.092 -879.1785 -3122.6968 Z"/></g><g id="Graphic_4279"><path fill="#efb54f" d="M -890.6065 -3122.6968 L -887.5779 -3122.6968 C -887.2337 -3127.2104 -885.3357 -3131.628 -881.8837 -3135.0797 C -874.2153 -3142.7482 -861.7823 -3142.7482 -854.1138 -3135.0797 C -853.2498 -3134.2158 -852.4832 -3133.2913 -851.8139 -3132.32 L -849.19 -3133.835 C -849.9934 -3135.0277 -850.9226 -3136.161 -851.9777 -3137.216 C -860.8259 -3146.064 -875.1716 -3146.064 -884.0199 -3137.216 C -888.0618 -3133.174 -890.2573 -3127.985 -890.6065 -3122.6968 Z"/><path stroke="#efb64f" stroke-linecap="round" stroke-linejoin="round" stroke-width="0" d="M -890.6065 -3122.6968 L -887.5779 -3122.6968 C -887.2337 -3127.2104 -885.3357 -3131.628 -881.8837 -3135.0797 C -874.2153 -3142.7482 -861.7823 -3142.7482 -854.1138 -3135.0797 C -853.2498 -3134.2158 -852.4832 -3133.2913 -851.8139 -3132.32 L -849.19 -3133.835 C -849.9934 -3135.0277 -850.9226 -3136.161 -851.9777 -3137.216 C -860.8259 -3146.064 -875.1716 -3146.064 -884.0199 -3137.216 C -888.0618 -3133.174 -890.2573 -3127.985 -890.6065 -3122.6968 Z"/></g></g><g id="Group_4271"><g id="Graphic_4277"><path fill="#3770a1" d="M -871.31 -3109.6876 L -872.588 -3109.6876 C -872.597 -3109.5076 -872.615 -3109.3276 -872.687 -3109.1926 C -872.759 -3109.0396 -872.885 -3108.9406 -873.119 -3108.9406 C -873.353 -3108.9406 -873.479 -3109.0486 -873.551 -3109.1926 C -873.704 -3109.4896 -873.722 -3110.2906 -873.722 -3111.0646 C -873.722 -3111.8386 -873.704 -3112.6396 -873.551 -3112.9366 C -873.479 -3113.0806 -873.353 -3113.1886 -873.119 -3113.1886 C -872.885 -3113.1886 -872.759 -3113.0986 -872.687 -3112.9456 C -872.615 -3112.8106 -872.597 -3112.6306 -872.588 -3112.4506 L -871.31 -3112.4506 C -871.337 -3113.0626 -871.553 -3113.5666 -871.886 -3113.8816 C -872.21 -3114.1876 -872.588 -3114.3406 -873.119 -3114.3406 C -873.812 -3114.3406 -874.235 -3114.0526 -874.523 -3113.6926 C -874.973 -3113.1436 -875 -3112.2976 -875 -3111.0646 C -875 -3109.8316 -874.973 -3108.9856 -874.523 -3108.4366 C -874.235 -3108.0766 -873.812 -3107.7886 -873.119 -3107.7886 C -872.588 -3107.7886 -872.21 -3107.9416 -871.886 -3108.2476 C -871.553 -3108.5626 -871.337 -3109.0756 -871.31 -3109.6876 Z"/></g><g id="Graphic_4276"><path fill="#3770a1" d="M -867.539 -3110.2816 C -867.539 -3110.9296 -867.566 -3111.7396 -867.872 -3112.1986 C -868.187 -3112.6666 -868.637 -3112.7746 -869.15 -3112.7746 C -869.663 -3112.7746 -870.113 -3112.6666 -870.428 -3112.1986 C -870.734 -3111.7396 -870.761 -3110.9296 -870.761 -3110.2816 C -870.761 -3109.6336 -870.734 -3108.8236 -870.428 -3108.3646 C -870.113 -3107.8966 -869.663 -3107.7886 -869.15 -3107.7886 C -868.637 -3107.7886 -868.187 -3107.8966 -867.872 -3108.3646 C -867.566 -3108.8236 -867.539 -3109.6336 -867.539 -3110.2816 Z M -868.745 -3110.2816 C -868.745 -3109.7326 -868.745 -3109.2556 -868.835 -3109.0576 C -868.898 -3108.9226 -869.033 -3108.8686 -869.15 -3108.8686 C -869.267 -3108.8686 -869.402 -3108.9226 -869.465 -3109.0576 C -869.555 -3109.2556 -869.555 -3109.7326 -869.555 -3110.2816 C -869.555 -3110.8306 -869.555 -3111.3076 -869.465 -3111.5056 C -869.402 -3111.6406 -869.267 -3111.6946 -869.15 -3111.6946 C -869.033 -3111.6946 -868.898 -3111.6406 -868.835 -3111.5056 C -868.745 -3111.3076 -868.745 -3110.8306 -868.745 -3110.2816 Z"/></g><g id="Graphic_4275"><path fill="#3770a1" d="M -864.452 -3111.5866 L -864.452 -3112.7746 C -864.713 -3112.7746 -864.956 -3112.7116 -865.163 -3112.6126 C -865.379 -3112.5046 -865.559 -3112.3516 -865.694 -3112.1806 L -865.694 -3112.7026 L -866.846 -3112.7026 L -866.846 -3107.8606 L -865.64 -3107.8606 L -865.64 -3110.8126 C -865.64 -3111.2986 -865.298 -3111.5866 -864.893 -3111.5866 Z"/></g><g id="Graphic_4274"><path fill="#3770a1" d="M -860.879 -3109.8946 C -860.879 -3111.0106 -860.924 -3111.9016 -861.365 -3112.3606 C -861.707 -3112.7116 -862.067 -3112.7746 -862.49 -3112.7746 C -862.895 -3112.7746 -863.282 -3112.7116 -863.624 -3112.3606 C -864.065 -3111.9016 -864.101 -3111.0106 -864.101 -3110.2816 C -864.101 -3109.5526 -864.065 -3108.6616 -863.624 -3108.2116 C -863.282 -3107.8606 -862.949 -3107.7886 -862.49 -3107.7886 C -861.986 -3107.7886 -861.617 -3107.9056 -861.347 -3108.2026 C -861.032 -3108.5446 -860.924 -3108.9496 -860.906 -3109.3546 L -862.112 -3109.3546 C -862.112 -3109.2736 -862.13 -3109.1296 -862.175 -3109.0486 C -862.238 -3108.9316 -862.337 -3108.8686 -862.49 -3108.8686 C -862.643 -3108.8686 -862.751 -3108.9496 -862.805 -3109.0576 C -862.877 -3109.1926 -862.895 -3109.5706 -862.895 -3109.8946 Z M -862.085 -3110.7676 L -862.895 -3110.7676 C -862.895 -3111.1816 -862.859 -3111.4156 -862.805 -3111.5146 C -862.742 -3111.6316 -862.652 -3111.6946 -862.49 -3111.6946 C -862.328 -3111.6946 -862.238 -3111.6316 -862.175 -3111.5146 C -862.121 -3111.4156 -862.085 -3111.1816 -862.085 -3110.7676 Z"/></g></g></g></g></g></svg>