<svg xmlns="http://www.w3.org/2000/svg" width="48" height="48" viewBox="-592 -3145.185 48 48"><g fill="none"><path fill="#fff" d="M-584.32-3145.185h32.64a7.68 7.68 0 0 1 7.68 7.68v32.64a7.68 7.68 0 0 1-7.68 7.68h-32.64a7.68 7.68 0 0 1-7.68-7.68v-32.64a7.68 7.68 0 0 1 7.68-7.68Z"/><path fill="#efb54f" fill-opacity=".252" d="M-590.604-3122.734h3.029a19.558 19.558 0 0 1 5.691-12.346c7.669-7.668 20.102-7.668 27.77 0a19.558 19.558 0 0 1 5.692 12.346h3.029a22.57 22.57 0 0 0-6.585-14.482c-8.848-8.848-23.194-8.848-32.042 0a22.57 22.57 0 0 0-6.584 14.482Z"/><path d="M-590.604-3122.734h3.029a19.558 19.558 0 0 1 5.691-12.346c7.669-7.668 20.102-7.668 27.77 0a19.558 19.558 0 0 1 5.692 12.346h3.029a22.57 22.57 0 0 0-6.585-14.482c-8.848-8.848-23.194-8.848-32.042 0a22.57 22.57 0 0 0-6.584 14.482Z"/><path fill="#d3673a" fill-opacity=".249" d="M-584.926-3122.697h3.036a13.913 13.913 0 0 1 4.012-8.378c5.456-5.456 14.303-5.456 19.759 0a13.913 13.913 0 0 1 4.012 8.378h3.035a16.924 16.924 0 0 0-4.91-10.514c-6.637-6.636-17.396-6.636-24.033 0a16.924 16.924 0 0 0-4.91 10.514Z"/><path d="M-584.926-3122.697h3.036a13.913 13.913 0 0 1 4.012-8.378c5.456-5.456 14.303-5.456 19.759 0a13.913 13.913 0 0 1 4.012 8.378h3.035a16.924 16.924 0 0 0-4.91-10.514c-6.637-6.636-17.396-6.636-24.033 0a16.924 16.924 0 0 0-4.91 10.514Z"/><path fill="#3570a0" fill-opacity=".25" d="M-579.223-3122.734h3.06a8.308 8.308 0 0 1 16.33 0h3.059a11.28 11.28 0 0 0-3.214-6.471c-4.424-4.425-11.597-4.425-16.021 0a11.279 11.279 0 0 0-3.214 6.471Z"/><path d="M-579.223-3122.734h3.06a8.308 8.308 0 0 1 16.33 0h3.059a11.28 11.28 0 0 0-3.214-6.471c-4.424-4.425-11.597-4.425-16.021 0a11.279 11.279 0 0 0-3.214 6.471Z"/><path fill="#d3673a" d="M-584.946-3122.734h3.036a13.914 13.914 0 0 1 4.01-8.35 13.93 13.93 0 0 1 9.958-4.093c1.886.01 3.772.401 5.53 1.171l1.181-2.781a17.012 17.012 0 0 0-6.717-1.411 16.94 16.94 0 0 0-12.089 4.977 16.925 16.925 0 0 0-4.909 10.487Z"/><path d="M-584.946-3122.734h3.036a13.914 13.914 0 0 1 4.01-8.35 13.93 13.93 0 0 1 9.958-4.093c1.886.01 3.772.401 5.53 1.171l1.181-2.781a17.012 17.012 0 0 0-6.717-1.411 16.94 16.94 0 0 0-12.089 4.977 16.925 16.925 0 0 0-4.909 10.487Z"/><path fill="#3570a0" d="M-579.178-3122.697h3.055a8.27 8.27 0 0 1 2.305-4.414 8.277 8.277 0 0 1 5.421-2.42v-3.025a11.288 11.288 0 0 0-7.557 3.309 11.28 11.28 0 0 0-3.225 6.55Z"/><path d="M-579.178-3122.697h3.055a8.27 8.27 0 0 1 2.305-4.414 8.277 8.277 0 0 1 5.421-2.42v-3.025a11.288 11.288 0 0 0-7.557 3.309 11.28 11.28 0 0 0-3.225 6.55Z"/><path fill="#efb54f" d="M-590.606-3122.697h3.028a19.559 19.559 0 0 1 5.694-12.383c7.669-7.668 20.102-7.668 27.77 0 .864.864 1.63 1.789 2.3 2.76l2.624-1.515a22.77 22.77 0 0 0-2.788-3.381c-8.848-8.848-23.194-8.848-32.042 0a22.57 22.57 0 0 0-6.587 14.52Z"/><path d="M-590.606-3122.697h3.028a19.559 19.559 0 0 1 5.694-12.383c7.669-7.668 20.102-7.668 27.77 0 .864.864 1.63 1.789 2.3 2.76l2.624-1.515a22.77 22.77 0 0 0-2.788-3.381c-8.848-8.848-23.194-8.848-32.042 0a22.57 22.57 0 0 0-6.587 14.52Z"/><path fill="#3770a1" d="M-582.837-3112.707v-1.152h-1.673v-1.503h1.44v-1.152h-1.44v-1.45h1.673v-1.151h-2.952v6.408ZM-578.715-3112.707l-1.197-2.457 1.144-2.385h-1.341l-.505 1.233-.503-1.233h-1.332l1.115 2.385-1.179 2.457h1.341l.558-1.251.558 1.25ZM-578.264-3117.55v6.409h1.206v-1.854c.09.099.188.18.297.243.135.072.305.117.458.117.396 0 .667-.1.9-.396.334-.414.334-1.134.334-2.097 0-.963 0-1.683-.334-2.097-.233-.297-.504-.396-.9-.396-.153 0-.323.045-.458.117-.109.063-.298.216-.351.306v-.351Zm1.206 1.45c0-.153.035-.261.107-.333a.333.333 0 0 1 .262-.108c.125 0 .233.054.305.17.082.127.109.415.109 1.243 0 .828-.028 1.116-.109 1.242a.343.343 0 0 1-.305.17.333.333 0 0 1-.262-.107c-.072-.072-.107-.18-.107-.333ZM-571.29-3114.741c0-1.116-.045-2.007-.486-2.466-.341-.351-.702-.414-1.125-.414-.405 0-.792.063-1.134.414-.44.459-.476 1.35-.476 2.079 0 .729.035 1.62.476 2.07.342.35.675.423 1.135.423.504 0 .872-.117 1.142-.414.316-.342.423-.747.442-1.152h-1.207a.746.746 0 0 1-.063.306c-.063.117-.161.18-.314.18a.34.34 0 0 1-.316-.19c-.072-.134-.09-.512-.09-.836Zm-1.206-.873h-.81c0-.414.037-.648.09-.747.063-.117.154-.18.316-.18.161 0 .251.063.314.18.054.099.09.333.09.747ZM-568.212-3116.433v-1.188c-.26 0-.504.063-.71.162a1.58 1.58 0 0 0-.531.432v-.522h-1.153v4.842h1.207v-2.952c0-.486.341-.774.746-.774ZM-566.43-3112.707v-4.653h-1.206v4.653Zm.036-5.184v-1.278h-1.278v1.278ZM-560.471-3112.707v-3.411c0-.603-.082-.864-.27-1.098-.235-.28-.495-.405-.972-.405-.118 0-.343.045-.478.117-.18.09-.35.234-.486.378a1.157 1.157 0 0 0-.962-.495c-.154 0-.324.045-.46.117a1.266 1.266 0 0 0-.35.306v-.351h-1.153v4.842h1.207v-3.393c0-.297.161-.441.377-.441s.379.144.379.44v3.394h1.206v-3.393c0-.297.162-.441.377-.441.216 0 .379.144.379.44v3.394ZM-556.574-3114.741c0-1.116-.046-2.007-.487-2.466-.341-.351-.702-.414-1.125-.414-.404 0-.791.063-1.133.414-.442.459-.478 1.35-.478 2.079 0 .729.037 1.62.478 2.07.341.35.674.423 1.133.423.505 0 .874-.117 1.144-.414.315-.342.423-.747.44-1.152h-1.206a.746.746 0 0 1-.063.306c-.063.117-.162.18-.315.18a.34.34 0 0 1-.314-.19c-.072-.134-.09-.512-.09-.836Zm-1.207-.873h-.81c0-.414.037-.648.09-.747.063-.117.154-.18.315-.18.163 0 .253.063.316.18.053.099.09.333.09.747ZM-552.722-3112.707v-3.411c0-.603-.082-.864-.27-1.098-.235-.28-.495-.405-.937-.405-.153 0-.324.045-.459.117a1.266 1.266 0 0 0-.35.306v-.351h-1.152v4.842h1.206v-3.393c0-.297.161-.441.377-.441s.379.144.379.44v3.394ZM-549.896-3112.707v-1.08c-.406 0-.595-.18-.595-.558v-2.106h.595v-.91h-.595v-1.322h-1.206v1.323h-.45v.909h.45v2.187c0 .63.216 1.017.558 1.26.351.252.748.297 1.243.297Z"/><path fill="#c92505" d="M-567.325-3103.165v-4.69h-1.278v4.753c0 .414-.243.576-.531.576-.288 0-.531-.162-.531-.576v-4.752h-1.278v4.689c0 .513.171.945.477 1.26.342.35.792.53 1.332.53s.99-.18 1.332-.53c.306-.315.477-.747.477-1.26ZM-566.38-3107.854h1.278v6.408h-1.278z"/></g></svg>