<?xml version="1.0" encoding="UTF-8" standalone="no"?>
<!DOCTYPE svg PUBLIC "-//W3C//DTD SVG 1.1//EN" "http://www.w3.org/Graphics/SVG/1.1/DTD/svg11.dtd">
<svg xmlns:xl="http://www.w3.org/1999/xlink" version="1.1" xmlns="http://www.w3.org/2000/svg" xmlns:dc="http://purl.org/dc/elements/1.1/" viewBox="-952 -3145.1854 48 48" width="48" height="48">
  <defs/>
  <g id="ICONES" stroke="none" stroke-opacity="1" stroke-dasharray="none" fill="none" fill-opacity="1">
    <title>ICONES</title>
    <g id="ICONES_Calque_1">
      <title>Calque 1</title>
      <g id="Group_4262">
        <g id="Graphic_4054">
          <path d="M -949 -3145.1854 L -907 -3145.1854 C -905.3431 -3145.1854 -904 -3143.8423 -904 -3142.1854 L -904 -3100.1854 C -904 -3098.5286 -905.3431 -3097.1854 -907 -3097.1854 L -949 -3097.1854 C -950.6569 -3097.1854 -952 -3098.5286 -952 -3100.1854 L -952 -3142.1854 C -952 -3143.8423 -950.6569 -3145.1854 -949 -3145.1854 Z" fill="white"/>
        </g>
        <g id="Group_4047">
          <g id="Graphic_4053">
            <path d="M -950.604 -3122.734 L -947.575 -3122.734 C -947.2233 -3127.2347 -945.3262 -3131.6373 -941.8837 -3135.0797 C -934.2153 -3142.7482 -921.7823 -3142.7482 -914.1138 -3135.0797 C -910.6713 -3131.6373 -908.7742 -3127.2347 -908.4225 -3122.734 L -905.3935 -3122.734 C -905.7505 -3128.0092 -907.9452 -3133.1835 -911.9777 -3137.216 C -920.8259 -3146.064 -935.1716 -3146.064 -944.0199 -3137.216 C -948.0523 -3133.1835 -950.247 -3128.0092 -950.604 -3122.734 Z" fill="#efb54f" fill-opacity=".25239327"/>
            <path d="M -950.604 -3122.734 L -947.575 -3122.734 C -947.2233 -3127.2347 -945.3262 -3131.6373 -941.8837 -3135.0797 C -934.2153 -3142.7482 -921.7823 -3142.7482 -914.1138 -3135.0797 C -910.6713 -3131.6373 -908.7742 -3127.2347 -908.4225 -3122.734 L -905.3935 -3122.734 C -905.7505 -3128.0092 -907.9452 -3133.1835 -911.9777 -3137.216 C -920.8259 -3146.064 -935.1716 -3146.064 -944.0199 -3137.216 C -948.0523 -3133.1835 -950.247 -3128.0092 -950.604 -3122.734 Z" stroke="#efb64f" stroke-linecap="round" stroke-linejoin="round" stroke-width="0"/>
          </g>
          <g id="Graphic_4052">
            <path d="M -944.9256 -3122.6968 L -941.8903 -3122.6968 C -941.5613 -3125.7568 -940.2241 -3128.729 -937.8784 -3131.0745 C -932.422 -3136.531 -923.5755 -3136.531 -918.1191 -3131.0745 C -915.7735 -3128.729 -914.4362 -3125.7568 -914.1072 -3122.6968 L -911.0719 -3122.6968 C -911.4102 -3126.5324 -913.0472 -3130.275 -915.9829 -3133.2106 C -922.6191 -3139.8468 -933.3784 -3139.8468 -940.0146 -3133.2106 C -942.9503 -3130.275 -944.5873 -3126.5324 -944.9256 -3122.6968 Z" fill="#d3673a" fill-opacity=".24884463"/>
            <path d="M -944.9256 -3122.6968 L -941.8903 -3122.6968 C -941.5613 -3125.7568 -940.2241 -3128.729 -937.8784 -3131.0745 C -932.422 -3136.531 -923.5755 -3136.531 -918.1191 -3131.0745 C -915.7735 -3128.729 -914.4362 -3125.7568 -914.1072 -3122.6968 L -911.0719 -3122.6968 C -911.4102 -3126.5324 -913.0472 -3130.275 -915.9829 -3133.2106 C -922.6191 -3139.8468 -933.3784 -3139.8468 -940.0146 -3133.2106 C -942.9503 -3130.275 -944.5873 -3126.5324 -944.9256 -3122.6968 Z" stroke="#d2673a" stroke-linecap="round" stroke-linejoin="round" stroke-width="0"/>
          </g>
          <g id="Graphic_4051">
            <path d="M -939.223 -3122.734 L -936.1634 -3122.734 C -935.8655 -3124.322 -935.1021 -3125.8403 -933.8732 -3127.0692 C -930.6288 -3130.3136 -925.3687 -3130.3136 -922.1244 -3127.0692 C -920.8954 -3125.8403 -920.132 -3124.322 -919.8341 -3122.734 L -916.7745 -3122.734 C -917.0973 -3125.101 -918.1686 -3127.3857 -919.9882 -3129.2053 C -924.4123 -3133.6295 -931.5852 -3133.6295 -936.0093 -3129.2053 C -937.829 -3127.3857 -938.9002 -3125.101 -939.223 -3122.734 Z" fill="#3570a0" fill-opacity=".2496699"/>
            <path d="M -939.223 -3122.734 L -936.1634 -3122.734 C -935.8655 -3124.322 -935.1021 -3125.8403 -933.8732 -3127.0692 C -930.6288 -3130.3136 -925.3687 -3130.3136 -922.1244 -3127.0692 C -920.8954 -3125.8403 -920.132 -3124.322 -919.8341 -3122.734 L -916.7745 -3122.734 C -917.0973 -3125.101 -918.1686 -3127.3857 -919.9882 -3129.2053 C -924.4123 -3133.6295 -931.5852 -3133.6295 -936.0093 -3129.2053 C -937.829 -3127.3857 -938.9002 -3125.101 -939.223 -3122.734 Z" stroke="#3770a0" stroke-linecap="round" stroke-linejoin="round" stroke-width="0"/>
          </g>
          <g id="Graphic_4050">
            <path d="M -944.9456 -3122.734 L -941.9097 -3122.734 C -941.5758 -3125.7844 -940.2395 -3128.746 -937.9008 -3131.0848 C -935.1525 -3133.833 -931.5442 -3135.197 -927.9422 -3135.177 C -926.0555 -3135.1663 -924.1705 -3134.776 -922.4117 -3134.0057 L -921.231 -3136.7874 C -923.3678 -3137.718 -925.657 -3138.188 -927.9478 -3138.198 C -932.321 -3138.2167 -936.7002 -3136.5577 -940.0369 -3133.221 C -942.9658 -3130.292 -944.602 -3126.56 -944.9456 -3122.734 Z" fill="#d3673a"/>
            <path d="M -944.9456 -3122.734 L -941.9097 -3122.734 C -941.5758 -3125.7844 -940.2395 -3128.746 -937.9008 -3131.0848 C -935.1525 -3133.833 -931.5442 -3135.197 -927.9422 -3135.177 C -926.0555 -3135.1663 -924.1705 -3134.776 -922.4117 -3134.0057 L -921.231 -3136.7874 C -923.3678 -3137.718 -925.657 -3138.188 -927.9478 -3138.198 C -932.321 -3138.2167 -936.7002 -3136.5577 -940.0369 -3133.221 C -942.9658 -3130.292 -944.602 -3126.56 -944.9456 -3122.734 Z" stroke="#d2673a" stroke-linecap="round" stroke-linejoin="round" stroke-width="0"/>
          </g>
          <g id="Graphic_4049">
            <path d="M -939.1785 -3122.6968 L -936.1229 -3122.6968 C -935.8357 -3124.3136 -935.0674 -3125.8616 -933.8182 -3127.111 C -932.3114 -3128.6177 -930.3696 -3129.4247 -928.397 -3129.5318 L -928.397 -3132.556 C -931.1434 -3132.4468 -933.8576 -3131.3438 -935.9544 -3129.247 C -937.7942 -3127.407 -938.8689 -3125.092 -939.1785 -3122.6968 Z" fill="#3570a0"/>
            <path d="M -939.1785 -3122.6968 L -936.1229 -3122.6968 C -935.8357 -3124.3136 -935.0674 -3125.8616 -933.8182 -3127.111 C -932.3114 -3128.6177 -930.3696 -3129.4247 -928.397 -3129.5318 L -928.397 -3132.556 C -931.1434 -3132.4468 -933.8576 -3131.3438 -935.9544 -3129.247 C -937.7942 -3127.407 -938.8689 -3125.092 -939.1785 -3122.6968 Z" stroke="#3770a0" stroke-linecap="round" stroke-linejoin="round" stroke-width="0"/>
          </g>
          <g id="Graphic_4048">
            <path d="M -950.6065 -3122.6968 L -947.5779 -3122.6968 C -947.2337 -3127.2104 -945.3357 -3131.628 -941.8837 -3135.0797 C -934.2153 -3142.7482 -921.7823 -3142.7482 -914.1138 -3135.0797 C -913.2498 -3134.2158 -912.4832 -3133.2913 -911.8139 -3132.32 L -909.19 -3133.835 C -909.9934 -3135.0277 -910.9226 -3136.161 -911.9777 -3137.216 C -920.8259 -3146.064 -935.1716 -3146.064 -944.0199 -3137.216 C -948.0618 -3133.174 -950.2573 -3127.985 -950.6065 -3122.6968 Z" fill="#efb54f"/>
            <path d="M -950.6065 -3122.6968 L -947.5779 -3122.6968 C -947.2337 -3127.2104 -945.3357 -3131.628 -941.8837 -3135.0797 C -934.2153 -3142.7482 -921.7823 -3142.7482 -914.1138 -3135.0797 C -913.2498 -3134.2158 -912.4832 -3133.2913 -911.8139 -3132.32 L -909.19 -3133.835 C -909.9934 -3135.0277 -910.9226 -3136.161 -911.9777 -3137.216 C -920.8259 -3146.064 -935.1716 -3146.064 -944.0199 -3137.216 C -948.0618 -3133.174 -950.2573 -3127.985 -950.6065 -3122.6968 Z" stroke="#efb64f" stroke-linecap="round" stroke-linejoin="round" stroke-width="0"/>
          </g>
        </g>
        <g id="Group_4256">
          <title/>
          <g id="Graphic_4241">
            <path d="M -932.5405 -3112.7074 L -934.1875 -3119.1154 L -935.4475 -3119.1154 L -937.0945 -3112.7074 L -935.7625 -3112.7074 L -935.5555 -3113.7064 L -934.0795 -3113.7064 L -933.8725 -3112.7074 Z M -934.3225 -3114.8584 L -935.3125 -3114.8584 L -934.8175 -3117.2344 Z" fill="#3770a1"/>
          </g>
          <g id="Graphic_4242">
            <path d="M -928.9675 -3112.7074 L -928.9675 -3117.5494 L -930.1735 -3117.5494 L -930.1735 -3114.1564 C -930.1735 -3113.8594 -930.3355 -3113.7154 -930.5515 -3113.7154 C -930.7675 -3113.7154 -930.9295 -3113.8594 -930.9295 -3114.1564 L -930.9295 -3117.5494 L -932.1355 -3117.5494 L -932.1355 -3114.1384 C -932.1355 -3113.5354 -932.0545 -3113.2744 -931.8655 -3113.0404 C -931.6315 -3112.7614 -931.3705 -3112.6354 -930.9295 -3112.6354 C -930.7765 -3112.6354 -930.6055 -3112.6804 -930.4705 -3112.7524 C -930.3355 -3112.8244 -930.2185 -3112.9414 -930.1195 -3113.0584 L -930.1195 -3112.7074 Z" fill="#3770a1"/>
          </g>
          <g id="Graphic_4243">
            <path d="M -925.0795 -3112.7074 L -925.0795 -3119.1154 L -926.2855 -3119.1154 L -926.2855 -3117.2614 C -926.3755 -3117.3604 -926.4745 -3117.4414 -926.5825 -3117.5044 C -926.7175 -3117.5764 -926.8885 -3117.6214 -927.0415 -3117.6214 C -927.4375 -3117.6214 -927.7075 -3117.5224 -927.9415 -3117.2254 C -928.2745 -3116.8114 -928.2745 -3116.0914 -928.2745 -3115.1284 C -928.2745 -3114.1654 -928.2745 -3113.4454 -927.9415 -3113.0314 C -927.7075 -3112.7344 -927.4375 -3112.6354 -927.0415 -3112.6354 C -926.8885 -3112.6354 -926.7175 -3112.6804 -926.5825 -3112.7524 C -926.4745 -3112.8154 -926.2855 -3112.9684 -926.2315 -3113.0584 L -926.2315 -3112.7074 Z M -926.2855 -3114.1564 C -926.2855 -3114.0034 -926.3215 -3113.8954 -926.3935 -3113.8234 C -926.4565 -3113.7514 -926.5465 -3113.7154 -926.6545 -3113.7154 C -926.7805 -3113.7154 -926.8885 -3113.7694 -926.9605 -3113.8864 C -927.0415 -3114.0124 -927.0685 -3114.3004 -927.0685 -3115.1284 C -927.0685 -3115.9564 -927.0415 -3116.2444 -926.9605 -3116.3704 C -926.8885 -3116.4874 -926.7805 -3116.5414 -926.6545 -3116.5414 C -926.5465 -3116.5414 -926.4565 -3116.5054 -926.3935 -3116.4334 C -926.3215 -3116.3614 -926.2855 -3116.2534 -926.2855 -3116.1004 Z" fill="#3770a1"/>
          </g>
          <g id="Graphic_4244">
            <path d="M -923.0455 -3112.7074 L -923.0455 -3117.3604 L -924.2515 -3117.3604 L -924.2515 -3112.7074 Z M -923.0095 -3117.8914 L -923.0095 -3119.1694 L -924.2875 -3119.1694 L -924.2875 -3117.8914 Z" fill="#3770a1"/>
          </g>
          <g id="Graphic_4245">
            <path d="M -919.1305 -3115.1284 C -919.1305 -3115.7764 -919.1575 -3116.5864 -919.4635 -3117.0454 C -919.7785 -3117.5134 -920.2285 -3117.6214 -920.7415 -3117.6214 C -921.2545 -3117.6214 -921.7045 -3117.5134 -922.0195 -3117.0454 C -922.3255 -3116.5864 -922.3525 -3115.7764 -922.3525 -3115.1284 C -922.3525 -3114.4804 -922.3255 -3113.6704 -922.0195 -3113.2114 C -921.7045 -3112.7434 -921.2545 -3112.6354 -920.7415 -3112.6354 C -920.2285 -3112.6354 -919.7785 -3112.7434 -919.4635 -3113.2114 C -919.1575 -3113.6704 -919.1305 -3114.4804 -919.1305 -3115.1284 Z M -920.3365 -3115.1284 C -920.3365 -3114.5794 -920.3365 -3114.1024 -920.4265 -3113.9044 C -920.4895 -3113.7694 -920.6245 -3113.7154 -920.7415 -3113.7154 C -920.8585 -3113.7154 -920.9935 -3113.7694 -921.0565 -3113.9044 C -921.1465 -3114.1024 -921.1465 -3114.5794 -921.1465 -3115.1284 C -921.1465 -3115.6774 -921.1465 -3116.1544 -921.0565 -3116.3524 C -920.9935 -3116.4874 -920.8585 -3116.5414 -920.7415 -3116.5414 C -920.6245 -3116.5414 -920.4895 -3116.4874 -920.4265 -3116.3524 C -920.3365 -3116.1544 -920.3365 -3115.6774 -920.3365 -3115.1284 Z" fill="#3770a1"/>
          </g>
          <g id="Graphic_4246">
            <path d="M -942.0625 -3101.4464 L -942.0625 -3102.5984 L -943.7365 -3102.5984 L -943.7365 -3104.1014 L -942.2965 -3104.1014 L -942.2965 -3105.2534 L -943.7365 -3105.2534 L -943.7365 -3106.7024 L -942.0625 -3106.7024 L -942.0625 -3107.8544 L -945.0145 -3107.8544 L -945.0145 -3101.4464 Z" fill="#d2673a"/>
          </g>
          <g id="Graphic_4247">
            <path d="M -937.9405 -3101.4464 L -939.1375 -3103.9034 L -937.9945 -3106.2884 L -939.3355 -3106.2884 L -939.8395 -3105.0554 L -940.3435 -3106.2884 L -941.6755 -3106.2884 L -940.5595 -3103.9034 L -941.7385 -3101.4464 L -940.3975 -3101.4464 L -939.8395 -3102.6974 L -939.2815 -3101.4464 Z" fill="#d2673a"/>
          </g>
          <g id="Graphic_4248">
            <path d="M -935.4745 -3101.4464 L -935.4745 -3102.5264 C -935.8795 -3102.5264 -936.0685 -3102.7064 -936.0685 -3103.0844 L -936.0685 -3105.1904 L -935.4745 -3105.1904 L -935.4745 -3106.0994 L -936.0685 -3106.0994 L -936.0685 -3107.4224 L -937.2745 -3107.4224 L -937.2745 -3106.0994 L -937.7245 -3106.0994 L -937.7245 -3105.1904 L -937.2745 -3105.1904 L -937.2745 -3103.0034 C -937.2745 -3102.3734 -937.0585 -3101.9864 -936.7165 -3101.7434 C -936.3655 -3101.4914 -935.9695 -3101.4464 -935.4745 -3101.4464 Z" fill="#d2673a"/>
          </g>
          <g id="Graphic_4249">
            <path d="M -931.8385 -3103.4804 C -931.8385 -3104.5964 -931.8835 -3105.4874 -932.3245 -3105.9464 C -932.6665 -3106.2974 -933.0265 -3106.3604 -933.4495 -3106.3604 C -933.8545 -3106.3604 -934.2415 -3106.2974 -934.5835 -3105.9464 C -935.0245 -3105.4874 -935.0605 -3104.5964 -935.0605 -3103.8674 C -935.0605 -3103.1384 -935.0245 -3102.2474 -934.5835 -3101.7974 C -934.2415 -3101.4464 -933.9085 -3101.3744 -933.4495 -3101.3744 C -932.9455 -3101.3744 -932.5765 -3101.4914 -932.3065 -3101.7884 C -931.9915 -3102.1304 -931.8835 -3102.5354 -931.8655 -3102.9404 L -933.0715 -3102.9404 C -933.0715 -3102.8594 -933.0895 -3102.7154 -933.1345 -3102.6344 C -933.1975 -3102.5174 -933.2965 -3102.4544 -933.4495 -3102.4544 C -933.6025 -3102.4544 -933.7105 -3102.5354 -933.7645 -3102.6434 C -933.8365 -3102.7784 -933.8545 -3103.1564 -933.8545 -3103.4804 Z M -933.0445 -3104.3534 L -933.8545 -3104.3534 C -933.8545 -3104.7674 -933.8185 -3105.0014 -933.7645 -3105.1004 C -933.7015 -3105.2174 -933.6115 -3105.2804 -933.4495 -3105.2804 C -933.2875 -3105.2804 -933.1975 -3105.2174 -933.1345 -3105.1004 C -933.0805 -3105.0014 -933.0445 -3104.7674 -933.0445 -3104.3534 Z" fill="#d2673a"/>
          </g>
          <g id="Graphic_4250">
            <path d="M -927.9865 -3101.4464 L -927.9865 -3104.8574 C -927.9865 -3105.4604 -928.0675 -3105.7214 -928.2565 -3105.9554 C -928.4905 -3106.2344 -928.7515 -3106.3604 -929.1925 -3106.3604 C -929.3455 -3106.3604 -929.5165 -3106.3154 -929.6515 -3106.2434 C -929.7865 -3106.1714 -929.9035 -3106.0544 -930.0025 -3105.9374 L -930.0025 -3106.2884 L -931.1545 -3106.2884 L -931.1545 -3101.4464 L -929.9485 -3101.4464 L -929.9485 -3104.8394 C -929.9485 -3105.1364 -929.7865 -3105.2804 -929.5705 -3105.2804 C -929.3545 -3105.2804 -929.1925 -3105.1364 -929.1925 -3104.8394 L -929.1925 -3101.4464 Z" fill="#d2673a"/>
          </g>
          <g id="Graphic_4251">
            <path d="M -924.1705 -3102.9314 C -924.1705 -3103.2914 -924.2605 -3103.5524 -924.3865 -3103.7234 C -924.5485 -3103.9484 -924.7735 -3104.1014 -925.1155 -3104.2364 L -925.7815 -3104.4884 C -925.9255 -3104.5424 -926.0335 -3104.6144 -926.0875 -3104.7044 C -926.1325 -3104.7674 -926.1505 -3104.8304 -926.1505 -3104.9204 C -926.1505 -3105.0374 -926.1235 -3105.1274 -926.0515 -3105.1904 C -925.9885 -3105.2534 -925.8895 -3105.2984 -925.7725 -3105.2984 C -925.6735 -3105.2984 -925.5745 -3105.2534 -925.5025 -3105.1814 C -925.4395 -3105.1094 -925.4035 -3105.0014 -925.4035 -3104.8754 L -924.2245 -3104.8754 C -924.2245 -3105.3704 -924.4135 -3105.7124 -924.6745 -3105.9644 C -924.9445 -3106.2164 -925.3495 -3106.3604 -925.7725 -3106.3604 C -926.2045 -3106.3604 -926.6275 -3106.2164 -926.9155 -3105.9194 C -927.1855 -3105.6404 -927.3565 -3105.3254 -927.3565 -3104.8034 C -927.3565 -3104.5244 -927.3025 -3104.3084 -927.1945 -3104.1284 C -927.0415 -3103.8854 -926.7895 -3103.7054 -926.4475 -3103.5704 L -925.7725 -3103.3094 C -925.6375 -3103.2554 -925.5295 -3103.1924 -925.4575 -3103.1024 C -925.3945 -3103.0124 -925.3765 -3102.9314 -925.3765 -3102.8324 C -925.3765 -3102.7334 -925.4125 -3102.6164 -925.4755 -3102.5624 C -925.5655 -3102.4814 -925.6375 -3102.4634 -925.7635 -3102.4634 C -925.8715 -3102.4634 -925.9885 -3102.5084 -926.0605 -3102.5894 C -926.1325 -3102.6614 -926.1775 -3102.7694 -926.1865 -3102.9044 L -927.3745 -3102.9044 C -927.3655 -3102.4184 -927.1945 -3102.0944 -926.9155 -3101.7974 C -926.6455 -3101.5184 -926.1955 -3101.3744 -925.7635 -3101.3744 C -925.3315 -3101.3744 -924.9445 -3101.4644 -924.6295 -3101.7794 C -924.3775 -3102.0404 -924.1705 -3102.4004 -924.1705 -3102.9314 Z" fill="#d2673a"/>
          </g>
          <g id="Graphic_4252">
            <path d="M -922.3165 -3101.4464 L -922.3165 -3106.0994 L -923.5225 -3106.0994 L -923.5225 -3101.4464 Z M -922.2805 -3106.6304 L -922.2805 -3107.9084 L -923.5585 -3107.9084 L -923.5585 -3106.6304 Z" fill="#d2673a"/>
          </g>
          <g id="Graphic_4253">
            <path d="M -918.4015 -3103.8674 C -918.4015 -3104.5154 -918.4285 -3105.3254 -918.7345 -3105.7844 C -919.0495 -3106.2524 -919.4995 -3106.3604 -920.0125 -3106.3604 C -920.5255 -3106.3604 -920.9755 -3106.2524 -921.2905 -3105.7844 C -921.5965 -3105.3254 -921.6235 -3104.5154 -921.6235 -3103.8674 C -921.6235 -3103.2194 -921.5965 -3102.4094 -921.2905 -3101.9504 C -920.9755 -3101.4824 -920.5255 -3101.3744 -920.0125 -3101.3744 C -919.4995 -3101.3744 -919.0495 -3101.4824 -918.7345 -3101.9504 C -918.4285 -3102.4094 -918.4015 -3103.2194 -918.4015 -3103.8674 Z M -919.6075 -3103.8674 C -919.6075 -3103.3184 -919.6075 -3102.8414 -919.6975 -3102.6434 C -919.7605 -3102.5084 -919.8955 -3102.4544 -920.0125 -3102.4544 C -920.1295 -3102.4544 -920.2645 -3102.5084 -920.3275 -3102.6434 C -920.4175 -3102.8414 -920.4175 -3103.3184 -920.4175 -3103.8674 C -920.4175 -3104.4164 -920.4175 -3104.8934 -920.3275 -3105.0914 C -920.2645 -3105.2264 -920.1295 -3105.2804 -920.0125 -3105.2804 C -919.8955 -3105.2804 -919.7605 -3105.2264 -919.6975 -3105.0914 C -919.6075 -3104.8934 -919.6075 -3104.4164 -919.6075 -3103.8674 Z" fill="#d2673a"/>
          </g>
          <g id="Graphic_4254">
            <path d="M -914.5405 -3101.4464 L -914.5405 -3104.8574 C -914.5405 -3105.4604 -914.6215 -3105.7214 -914.8105 -3105.9554 C -915.0445 -3106.2344 -915.3055 -3106.3604 -915.7465 -3106.3604 C -915.8995 -3106.3604 -916.0705 -3106.3154 -916.2055 -3106.2434 C -916.3405 -3106.1714 -916.4575 -3106.0544 -916.5565 -3105.9374 L -916.5565 -3106.2884 L -917.7085 -3106.2884 L -917.7085 -3101.4464 L -916.5025 -3101.4464 L -916.5025 -3104.8394 C -916.5025 -3105.1364 -916.3405 -3105.2804 -916.1245 -3105.2804 C -915.9085 -3105.2804 -915.7465 -3105.1364 -915.7465 -3104.8394 L -915.7465 -3101.4464 Z" fill="#d2673a"/>
          </g>
          <g id="Graphic_4255">
            <path d="M -910.7245 -3102.9314 C -910.7245 -3103.2914 -910.8145 -3103.5524 -910.9405 -3103.7234 C -911.1025 -3103.9484 -911.3275 -3104.1014 -911.6695 -3104.2364 L -912.3355 -3104.4884 C -912.4795 -3104.5424 -912.5875 -3104.6144 -912.6415 -3104.7044 C -912.6865 -3104.7674 -912.7045 -3104.8304 -912.7045 -3104.9204 C -912.7045 -3105.0374 -912.6775 -3105.1274 -912.6055 -3105.1904 C -912.5425 -3105.2534 -912.4435 -3105.2984 -912.3265 -3105.2984 C -912.2275 -3105.2984 -912.1285 -3105.2534 -912.0565 -3105.1814 C -911.9935 -3105.1094 -911.9575 -3105.0014 -911.9575 -3104.8754 L -910.7785 -3104.8754 C -910.7785 -3105.3704 -910.9675 -3105.7124 -911.2285 -3105.9644 C -911.4985 -3106.2164 -911.9035 -3106.3604 -912.3265 -3106.3604 C -912.7585 -3106.3604 -913.1815 -3106.2164 -913.4695 -3105.9194 C -913.7395 -3105.6404 -913.9105 -3105.3254 -913.9105 -3104.8034 C -913.9105 -3104.5244 -913.8565 -3104.3084 -913.7485 -3104.1284 C -913.5955 -3103.8854 -913.3435 -3103.7054 -913.0015 -3103.5704 L -912.3265 -3103.3094 C -912.1915 -3103.2554 -912.0835 -3103.1924 -912.0115 -3103.1024 C -911.9485 -3103.0124 -911.9305 -3102.9314 -911.9305 -3102.8324 C -911.9305 -3102.7334 -911.9665 -3102.6164 -912.0295 -3102.5624 C -912.1195 -3102.4814 -912.1915 -3102.4634 -912.3175 -3102.4634 C -912.4255 -3102.4634 -912.5425 -3102.5084 -912.6145 -3102.5894 C -912.6865 -3102.6614 -912.7315 -3102.7694 -912.7405 -3102.9044 L -913.9285 -3102.9044 C -913.9195 -3102.4184 -913.7485 -3102.0944 -913.4695 -3101.7974 C -913.1995 -3101.5184 -912.7495 -3101.3744 -912.3175 -3101.3744 C -911.8855 -3101.3744 -911.4985 -3101.4644 -911.1835 -3101.7794 C -910.9315 -3102.0404 -910.7245 -3102.4004 -910.7245 -3102.9314 Z" fill="#d2673a"/>
          </g>
        </g>
      </g>
    </g>
  </g>
</svg>
