<?xml version="1.0" encoding="UTF-8" standalone="no"?>
<!DOCTYPE svg PUBLIC "-//W3C//DTD SVG 1.1//EN" "http://www.w3.org/Graphics/SVG/1.1/DTD/svg11.dtd">
<svg xmlns:xl="http://www.w3.org/1999/xlink" version="1.1" xmlns="http://www.w3.org/2000/svg" xmlns:dc="http://purl.org/dc/elements/1.1/" viewBox="-472 -3145.1854 48 48" width="48" height="48">
  <defs/>
  <g id="ICONES" stroke="none" stroke-opacity="1" stroke-dasharray="none" fill="none" fill-opacity="1">
    <title>ICONES</title>
    <g id="ICONES_Calque_1">
      <title>Calque 1</title>
      <g id="Group_4266">
        <g id="Graphic_4000">
          <path d="M -469 -3145.1854 L -427 -3145.1854 C -425.34315 -3145.1854 -424 -3143.8423 -424 -3142.1854 L -424 -3100.1854 C -424 -3098.5286 -425.34315 -3097.1854 -427 -3097.1854 L -469 -3097.1854 C -470.65685 -3097.1854 -472 -3098.5286 -472 -3100.1854 L -472 -3142.1854 C -472 -3143.8423 -470.65685 -3145.1854 -469 -3145.1854 Z" fill="white"/>
        </g>
        <g id="Group_3993">
          <g id="Graphic_3999">
            <path d="M -470.60404 -3122.734 L -467.57504 -3122.734 C -467.2233 -3127.2347 -465.3262 -3131.6373 -461.8837 -3135.0797 C -454.21526 -3142.7482 -441.78225 -3142.7482 -434.1138 -3135.0797 C -430.6713 -3131.6373 -428.7742 -3127.2347 -428.4225 -3122.734 L -425.3935 -3122.734 C -425.7505 -3128.0092 -427.9452 -3133.1835 -431.97765 -3137.216 C -440.82587 -3146.064 -455.17165 -3146.064 -464.01986 -3137.216 C -468.0523 -3133.1835 -470.24704 -3128.0092 -470.60404 -3122.734 Z" fill="#efb54f" fill-opacity=".25239327"/>
            <path d="M -470.60404 -3122.734 L -467.57504 -3122.734 C -467.2233 -3127.2347 -465.3262 -3131.6373 -461.8837 -3135.0797 C -454.21526 -3142.7482 -441.78225 -3142.7482 -434.1138 -3135.0797 C -430.6713 -3131.6373 -428.7742 -3127.2347 -428.4225 -3122.734 L -425.3935 -3122.734 C -425.7505 -3128.0092 -427.9452 -3133.1835 -431.97765 -3137.216 C -440.82587 -3146.064 -455.17165 -3146.064 -464.01986 -3137.216 C -468.0523 -3133.1835 -470.24704 -3128.0092 -470.60404 -3122.734 Z" stroke="#efb64f" stroke-linecap="round" stroke-linejoin="round" stroke-width="0"/>
          </g>
          <g id="Graphic_3998">
            <path d="M -464.9256 -3122.6968 L -461.8903 -3122.6968 C -461.56134 -3125.7568 -460.22406 -3128.729 -457.87844 -3131.0745 C -452.42204 -3136.531 -443.5755 -3136.531 -438.1191 -3131.0745 C -435.77346 -3128.729 -434.4362 -3125.7568 -434.10724 -3122.6968 L -431.0719 -3122.6968 C -431.4102 -3126.5324 -433.04724 -3130.275 -435.98293 -3133.2106 C -442.6191 -3139.8468 -453.3784 -3139.8468 -460.0146 -3133.2106 C -462.9503 -3130.275 -464.5873 -3126.5324 -464.9256 -3122.6968 Z" fill="#d3673a" fill-opacity=".24884463"/>
            <path d="M -464.9256 -3122.6968 L -461.8903 -3122.6968 C -461.56134 -3125.7568 -460.22406 -3128.729 -457.87844 -3131.0745 C -452.42204 -3136.531 -443.5755 -3136.531 -438.1191 -3131.0745 C -435.77346 -3128.729 -434.4362 -3125.7568 -434.10724 -3122.6968 L -431.0719 -3122.6968 C -431.4102 -3126.5324 -433.04724 -3130.275 -435.98293 -3133.2106 C -442.6191 -3139.8468 -453.3784 -3139.8468 -460.0146 -3133.2106 C -462.9503 -3130.275 -464.5873 -3126.5324 -464.9256 -3122.6968 Z" stroke="#d2673a" stroke-linecap="round" stroke-linejoin="round" stroke-width="0"/>
          </g>
          <g id="Graphic_3997">
            <path d="M -459.223 -3122.734 L -456.1634 -3122.734 C -455.8655 -3124.322 -455.1021 -3125.8403 -453.87316 -3127.0692 C -450.6288 -3130.3136 -445.3687 -3130.3136 -442.12435 -3127.0692 C -440.89544 -3125.8403 -440.132 -3124.322 -439.8341 -3122.734 L -436.77453 -3122.734 C -437.09733 -3125.101 -438.16856 -3127.3857 -439.9882 -3129.2053 C -444.4123 -3133.6295 -451.5852 -3133.6295 -456.0093 -3129.2053 C -457.82896 -3127.3857 -458.9002 -3125.101 -459.223 -3122.734 Z" fill="#3570a0" fill-opacity=".2496699"/>
            <path d="M -459.223 -3122.734 L -456.1634 -3122.734 C -455.8655 -3124.322 -455.1021 -3125.8403 -453.87316 -3127.0692 C -450.6288 -3130.3136 -445.3687 -3130.3136 -442.12435 -3127.0692 C -440.89544 -3125.8403 -440.132 -3124.322 -439.8341 -3122.734 L -436.77453 -3122.734 C -437.09733 -3125.101 -438.16856 -3127.3857 -439.9882 -3129.2053 C -444.4123 -3133.6295 -451.5852 -3133.6295 -456.0093 -3129.2053 C -457.82896 -3127.3857 -458.9002 -3125.101 -459.223 -3122.734 Z" stroke="#3770a0" stroke-linecap="round" stroke-linejoin="round" stroke-width="0"/>
          </g>
          <g id="Graphic_3996">
            <path d="M -464.94556 -3122.734 L -461.9097 -3122.734 C -461.57583 -3125.7844 -460.2395 -3128.746 -457.90076 -3131.0848 C -455.1525 -3133.833 -451.5442 -3135.197 -447.94224 -3135.177 C -446.0555 -3135.1663 -444.1705 -3134.776 -442.4117 -3134.0057 L -441.23095 -3136.7874 C -443.36784 -3137.718 -445.657 -3138.188 -447.94776 -3138.198 C -452.32104 -3138.2167 -456.7002 -3136.5577 -460.0369 -3133.221 C -462.96576 -3130.292 -464.602 -3126.56 -464.94556 -3122.734 Z" fill="#d3673a"/>
            <path d="M -464.94556 -3122.734 L -461.9097 -3122.734 C -461.57583 -3125.7844 -460.2395 -3128.746 -457.90076 -3131.0848 C -455.1525 -3133.833 -451.5442 -3135.197 -447.94224 -3135.177 C -446.0555 -3135.1663 -444.1705 -3134.776 -442.4117 -3134.0057 L -441.23095 -3136.7874 C -443.36784 -3137.718 -445.657 -3138.188 -447.94776 -3138.198 C -452.32104 -3138.2167 -456.7002 -3136.5577 -460.0369 -3133.221 C -462.96576 -3130.292 -464.602 -3126.56 -464.94556 -3122.734 Z" stroke="#d2673a" stroke-linecap="round" stroke-linejoin="round" stroke-width="0"/>
          </g>
          <g id="Graphic_3995">
            <path d="M -459.1785 -3122.6968 L -456.12287 -3122.6968 C -455.83565 -3124.3136 -455.06744 -3125.8616 -453.81823 -3127.111 C -452.31135 -3128.6177 -450.3696 -3129.4247 -448.397 -3129.5318 L -448.397 -3132.556 C -451.1434 -3132.4468 -453.8576 -3131.3438 -455.9544 -3129.247 C -457.7942 -3127.407 -458.8689 -3125.092 -459.1785 -3122.6968 Z" fill="#3570a0"/>
            <path d="M -459.1785 -3122.6968 L -456.12287 -3122.6968 C -455.83565 -3124.3136 -455.06744 -3125.8616 -453.81823 -3127.111 C -452.31135 -3128.6177 -450.3696 -3129.4247 -448.397 -3129.5318 L -448.397 -3132.556 C -451.1434 -3132.4468 -453.8576 -3131.3438 -455.9544 -3129.247 C -457.7942 -3127.407 -458.8689 -3125.092 -459.1785 -3122.6968 Z" stroke="#3770a0" stroke-linecap="round" stroke-linejoin="round" stroke-width="0"/>
          </g>
          <g id="Graphic_3994">
            <path d="M -470.6065 -3122.6968 L -467.5779 -3122.6968 C -467.2337 -3127.2104 -465.33566 -3131.628 -461.8837 -3135.0797 C -454.21526 -3142.7482 -441.78225 -3142.7482 -434.1138 -3135.0797 C -433.24983 -3134.2158 -432.4832 -3133.2913 -431.8139 -3132.32 L -429.18996 -3133.835 C -429.9934 -3135.0277 -430.9226 -3136.161 -431.97765 -3137.216 C -440.82587 -3146.064 -455.17165 -3146.064 -464.01986 -3137.216 C -468.06177 -3133.174 -470.2573 -3127.985 -470.6065 -3122.6968 Z" fill="#efb54f"/>
            <path d="M -470.6065 -3122.6968 L -467.5779 -3122.6968 C -467.2337 -3127.2104 -465.33566 -3131.628 -461.8837 -3135.0797 C -454.21526 -3142.7482 -441.78225 -3142.7482 -434.1138 -3135.0797 C -433.24983 -3134.2158 -432.4832 -3133.2913 -431.8139 -3132.32 L -429.18996 -3133.835 C -429.9934 -3135.0277 -430.9226 -3136.161 -431.97765 -3137.216 C -440.82587 -3146.064 -455.17165 -3146.064 -464.01986 -3137.216 C -468.06177 -3133.174 -470.2573 -3127.985 -470.6065 -3122.6968 Z" stroke="#efb64f" stroke-linecap="round" stroke-linejoin="round" stroke-width="0"/>
          </g>
        </g>
        <g id="Group_4150">
          <title/>
          <g id="Graphic_4137">
            <path d="M -454.426 -3112.7074 L -454.426 -3119.1154 L -455.56 -3119.1154 L -456.73 -3115.9744 L -457.9 -3119.1154 L -459.025 -3119.1154 L -459.025 -3112.7074 L -457.747 -3112.7074 L -457.747 -3116.0374 L -457.063 -3113.8504 L -456.406 -3113.8504 L -455.704 -3116.0464 L -455.704 -3112.7074 Z" fill="#3770a1"/>
          </g>
          <g id="Graphic_4138">
            <path d="M -450.43 -3115.1284 C -450.43 -3115.7764 -450.457 -3116.5864 -450.763 -3117.0454 C -451.078 -3117.5134 -451.528 -3117.6214 -452.041 -3117.6214 C -452.554 -3117.6214 -453.004 -3117.5134 -453.319 -3117.0454 C -453.625 -3116.5864 -453.652 -3115.7764 -453.652 -3115.1284 C -453.652 -3114.4804 -453.625 -3113.6704 -453.319 -3113.2114 C -453.004 -3112.7434 -452.554 -3112.6354 -452.041 -3112.6354 C -451.528 -3112.6354 -451.078 -3112.7434 -450.763 -3113.2114 C -450.457 -3113.6704 -450.43 -3114.4804 -450.43 -3115.1284 Z M -451.636 -3115.1284 C -451.636 -3114.5794 -451.636 -3114.1024 -451.726 -3113.9044 C -451.789 -3113.7694 -451.924 -3113.7154 -452.041 -3113.7154 C -452.158 -3113.7154 -452.293 -3113.7694 -452.356 -3113.9044 C -452.446 -3114.1024 -452.446 -3114.5794 -452.446 -3115.1284 C -452.446 -3115.6774 -452.446 -3116.1544 -452.356 -3116.3524 C -452.293 -3116.4874 -452.158 -3116.5414 -452.041 -3116.5414 C -451.924 -3116.5414 -451.789 -3116.4874 -451.726 -3116.3524 C -451.636 -3116.1544 -451.636 -3115.6774 -451.636 -3115.1284 Z" fill="#3770a1"/>
          </g>
          <g id="Graphic_4139">
            <path d="M -446.677 -3112.7074 L -446.677 -3119.1154 L -447.883 -3119.1154 L -447.883 -3117.2614 C -447.973 -3117.3604 -448.072 -3117.4414 -448.18 -3117.5044 C -448.315 -3117.5764 -448.486 -3117.6214 -448.639 -3117.6214 C -449.035 -3117.6214 -449.305 -3117.5224 -449.539 -3117.2254 C -449.872 -3116.8114 -449.872 -3116.0914 -449.872 -3115.1284 C -449.872 -3114.1654 -449.872 -3113.4454 -449.539 -3113.0314 C -449.305 -3112.7344 -449.035 -3112.6354 -448.639 -3112.6354 C -448.486 -3112.6354 -448.315 -3112.6804 -448.18 -3112.7524 C -448.072 -3112.8154 -447.883 -3112.9684 -447.829 -3113.0584 L -447.829 -3112.7074 Z M -447.883 -3114.1564 C -447.883 -3114.0034 -447.919 -3113.8954 -447.991 -3113.8234 C -448.054 -3113.7514 -448.144 -3113.7154 -448.252 -3113.7154 C -448.378 -3113.7154 -448.486 -3113.7694 -448.558 -3113.8864 C -448.639 -3114.0124 -448.666 -3114.3004 -448.666 -3115.1284 C -448.666 -3115.9564 -448.639 -3116.2444 -448.558 -3116.3704 C -448.486 -3116.4874 -448.378 -3116.5414 -448.252 -3116.5414 C -448.144 -3116.5414 -448.054 -3116.5054 -447.991 -3116.4334 C -447.919 -3116.3614 -447.883 -3116.2534 -447.883 -3116.1004 Z" fill="#3770a1"/>
          </g>
          <g id="Graphic_4140">
            <path d="M -442.762 -3114.7414 C -442.762 -3115.8574 -442.807 -3116.7484 -443.248 -3117.2074 C -443.59 -3117.5584 -443.95 -3117.6214 -444.373 -3117.6214 C -444.778 -3117.6214 -445.165 -3117.5584 -445.507 -3117.2074 C -445.948 -3116.7484 -445.984 -3115.8574 -445.984 -3115.1284 C -445.984 -3114.3994 -445.948 -3113.5084 -445.507 -3113.0584 C -445.165 -3112.7074 -444.832 -3112.6354 -444.373 -3112.6354 C -443.869 -3112.6354 -443.5 -3112.7524 -443.23 -3113.0494 C -442.915 -3113.3914 -442.807 -3113.7964 -442.789 -3114.2014 L -443.995 -3114.2014 C -443.995 -3114.1204 -444.013 -3113.9764 -444.058 -3113.8954 C -444.121 -3113.7784 -444.22 -3113.7154 -444.373 -3113.7154 C -444.526 -3113.7154 -444.634 -3113.7964 -444.688 -3113.9044 C -444.76 -3114.0394 -444.778 -3114.4174 -444.778 -3114.7414 Z M -443.968 -3115.6144 L -444.778 -3115.6144 C -444.778 -3116.0284 -444.742 -3116.2624 -444.688 -3116.3614 C -444.625 -3116.4784 -444.535 -3116.5414 -444.373 -3116.5414 C -444.211 -3116.5414 -444.121 -3116.4784 -444.058 -3116.3614 C -444.004 -3116.2624 -443.968 -3116.0284 -443.968 -3115.6144 Z" fill="#3770a1"/>
          </g>
          <g id="Graphic_4141">
            <path d="M -440.296 -3112.7074 L -440.296 -3113.7874 C -440.701 -3113.7874 -440.89 -3113.9674 -440.89 -3114.3454 L -440.89 -3119.1154 L -442.096 -3119.1154 L -442.096 -3114.2644 C -442.096 -3113.6344 -441.88 -3113.2474 -441.538 -3113.0044 C -441.187 -3112.7524 -440.791 -3112.7074 -440.296 -3112.7074 Z" fill="#3770a1"/>
          </g>
          <g id="Graphic_4142">
            <path d="M -436.714 -3114.1924 C -436.714 -3114.5524 -436.804 -3114.8134 -436.93 -3114.9844 C -437.092 -3115.2094 -437.317 -3115.3624 -437.659 -3115.4974 L -438.325 -3115.7494 C -438.469 -3115.8034 -438.577 -3115.8754 -438.631 -3115.9654 C -438.676 -3116.0284 -438.694 -3116.0914 -438.694 -3116.1814 C -438.694 -3116.2984 -438.667 -3116.3884 -438.595 -3116.4514 C -438.532 -3116.5144 -438.433 -3116.5594 -438.316 -3116.5594 C -438.217 -3116.5594 -438.118 -3116.5144 -438.046 -3116.4424 C -437.983 -3116.3704 -437.947 -3116.2624 -437.947 -3116.1364 L -436.768 -3116.1364 C -436.768 -3116.6314 -436.957 -3116.9734 -437.218 -3117.2254 C -437.488 -3117.4774 -437.893 -3117.6214 -438.316 -3117.6214 C -438.748 -3117.6214 -439.171 -3117.4774 -439.459 -3117.1804 C -439.729 -3116.9014 -439.9 -3116.5864 -439.9 -3116.0644 C -439.9 -3115.7854 -439.846 -3115.5694 -439.738 -3115.3894 C -439.585 -3115.1464 -439.333 -3114.9664 -438.991 -3114.8314 L -438.316 -3114.5704 C -438.181 -3114.5164 -438.073 -3114.4534 -438.001 -3114.3634 C -437.938 -3114.2734 -437.92 -3114.1924 -437.92 -3114.0934 C -437.92 -3113.9944 -437.956 -3113.8774 -438.019 -3113.8234 C -438.109 -3113.7424 -438.181 -3113.7244 -438.307 -3113.7244 C -438.415 -3113.7244 -438.532 -3113.7694 -438.604 -3113.8504 C -438.676 -3113.9224 -438.721 -3114.0304 -438.73 -3114.1654 L -439.918 -3114.1654 C -439.909 -3113.6794 -439.738 -3113.3554 -439.459 -3113.0584 C -439.189 -3112.7794 -438.739 -3112.6354 -438.307 -3112.6354 C -437.875 -3112.6354 -437.488 -3112.7254 -437.173 -3113.0404 C -436.921 -3113.3014 -436.714 -3113.6614 -436.714 -3114.1924 Z" fill="#3770a1"/>
          </g>
          <g id="Graphic_4143">
            <path d="M -456.1135 -3101.4464 L -456.1135 -3102.5984 L -457.7875 -3102.5984 L -457.7875 -3107.8544 L -459.0655 -3107.8544 L -459.0655 -3101.4464 Z" fill="#00882b"/>
          </g>
          <g id="Graphic_4144">
            <path d="M -454.2775 -3101.4464 L -454.2775 -3106.0994 L -455.4835 -3106.0994 L -455.4835 -3101.4464 Z M -454.2415 -3106.6304 L -454.2415 -3107.9084 L -455.5195 -3107.9084 L -455.5195 -3106.6304 Z" fill="#00882b"/>
          </g>
          <g id="Graphic_4145">
            <path d="M -452.2975 -3101.4464 L -452.2975 -3101.7974 C -452.2435 -3101.7074 -452.0545 -3101.5544 -451.9465 -3101.4914 C -451.8115 -3101.4194 -451.6405 -3101.3744 -451.4875 -3101.3744 C -451.0915 -3101.3744 -450.8215 -3101.4734 -450.5875 -3101.7704 C -450.2545 -3102.1844 -450.2545 -3102.9044 -450.2545 -3103.8674 C -450.2545 -3104.8304 -450.2545 -3105.5504 -450.5875 -3105.9644 C -450.8215 -3106.2614 -451.0915 -3106.3604 -451.4875 -3106.3604 C -451.6405 -3106.3604 -451.8115 -3106.3154 -451.9465 -3106.2434 C -452.0545 -3106.1804 -452.1535 -3106.0994 -452.2435 -3106.0004 L -452.2435 -3107.8544 L -453.4495 -3107.8544 L -453.4495 -3101.4464 Z M -452.2435 -3104.8394 C -452.2435 -3104.9924 -452.2075 -3105.1004 -452.1355 -3105.1724 C -452.0725 -3105.2444 -451.9825 -3105.2804 -451.8745 -3105.2804 C -451.7485 -3105.2804 -451.6405 -3105.2264 -451.5685 -3105.1094 C -451.4875 -3104.9834 -451.4605 -3104.6954 -451.4605 -3103.8674 C -451.4605 -3103.0394 -451.4875 -3102.7514 -451.5685 -3102.6254 C -451.6405 -3102.5084 -451.7485 -3102.4544 -451.8745 -3102.4544 C -451.9825 -3102.4544 -452.0725 -3102.4904 -452.1355 -3102.5624 C -452.2075 -3102.6344 -452.2435 -3102.7424 -452.2435 -3102.8954 Z" fill="#00882b"/>
          </g>
          <g id="Graphic_4146">
            <path d="M -447.1675 -3105.1724 L -447.1675 -3106.3604 C -447.4285 -3106.3604 -447.6715 -3106.2974 -447.8785 -3106.1984 C -448.0945 -3106.0904 -448.2745 -3105.9374 -448.4095 -3105.7664 L -448.4095 -3106.2884 L -449.5615 -3106.2884 L -449.5615 -3101.4464 L -448.3555 -3101.4464 L -448.3555 -3104.3984 C -448.3555 -3104.8844 -448.0135 -3105.1724 -447.6085 -3105.1724 Z" fill="#00882b"/>
          </g>
          <g id="Graphic_4147">
            <path d="M -443.6665 -3101.4464 L -443.6665 -3104.7584 C -443.6665 -3105.3074 -443.8555 -3105.6944 -444.1255 -3105.9644 C -444.4135 -3106.2524 -444.8275 -3106.3604 -445.2415 -3106.3604 C -445.6645 -3106.3604 -446.1235 -3106.1714 -446.3665 -3105.9284 C -446.6815 -3105.6044 -446.8075 -3105.2444 -446.8075 -3104.8484 L -445.6015 -3104.8484 C -445.6015 -3104.9834 -445.5655 -3105.0914 -445.4935 -3105.1814 C -445.4305 -3105.2534 -445.3585 -3105.2984 -445.2325 -3105.2984 C -445.0075 -3105.2984 -444.8725 -3105.1454 -444.8725 -3104.8754 L -444.8725 -3104.3174 L -445.2415 -3104.3174 C -445.8715 -3104.3174 -446.1865 -3104.1824 -446.4295 -3103.9754 C -446.7355 -3103.7144 -446.8975 -3103.3364 -446.8975 -3102.8954 C -446.8975 -3102.4364 -446.8255 -3102.0764 -446.6185 -3101.8244 C -446.3575 -3101.5004 -446.0875 -3101.3744 -445.6375 -3101.3744 C -445.3945 -3101.3744 -445.2505 -3101.4284 -445.1065 -3101.5274 C -444.9805 -3101.6084 -444.8905 -3101.7254 -444.7915 -3101.8424 L -444.7915 -3101.4464 Z M -444.8725 -3102.9494 C -444.8725 -3102.6074 -445.0615 -3102.4274 -445.2775 -3102.4274 C -445.5295 -3102.4274 -445.6915 -3102.5984 -445.6915 -3102.9494 C -445.6915 -3103.0754 -445.6375 -3103.2734 -445.5385 -3103.3634 C -445.4125 -3103.4804 -445.2775 -3103.4804 -445.0795 -3103.4804 L -444.8725 -3103.4804 Z" fill="#00882b"/>
          </g>
          <g id="Graphic_4148">
            <path d="M -440.4625 -3105.1724 L -440.4625 -3106.3604 C -440.7235 -3106.3604 -440.9665 -3106.2974 -441.1735 -3106.1984 C -441.3895 -3106.0904 -441.5695 -3105.9374 -441.7045 -3105.7664 L -441.7045 -3106.2884 L -442.8565 -3106.2884 L -442.8565 -3101.4464 L -441.6505 -3101.4464 L -441.6505 -3104.3984 C -441.6505 -3104.8844 -441.3085 -3105.1724 -440.9035 -3105.1724 Z" fill="#00882b"/>
          </g>
          <g id="Graphic_4149">
            <path d="M -436.4755 -3106.2884 L -437.8075 -3106.2884 L -438.3475 -3103.3634 L -438.8875 -3106.2884 L -440.2195 -3106.2884 L -438.9865 -3101.4464 C -439.1125 -3100.9874 -439.2925 -3100.9514 -439.8505 -3100.9334 L -439.8505 -3099.8804 C -438.8875 -3099.8804 -438.1045 -3099.9164 -437.8255 -3101.0054 Z" fill="#00882b"/>
          </g>
        </g>
      </g>
    </g>
  </g>
</svg>
