<svg xmlns="http://www.w3.org/2000/svg" viewBox="-465.5 -417.5 103 103" width="103" height="103"><g fill="none"><ellipse cx="-414" cy="-366" rx="50" ry="49.262" fill="#fff"/><path d="m-414-316 4.358-.19 4.324-.57 4.259-.944 4.16-1.311 4.03-1.67 3.869-2.014 3.679-2.343 3.46-2.656 3.216-2.947 2.947-3.216 2.656-3.46L-370.7-341l2.014-3.87 1.67-4.029 1.311-4.16.944-4.259.57-4.324.19-4.358-.19-4.358-.57-4.324-.944-4.259-1.311-4.16-1.67-4.03-2.014-3.869-2.343-3.679-2.656-3.46-2.947-3.216-3.216-2.947-3.46-2.656L-389-409.3l-3.87-2.014-4.029-1.67-4.16-1.311-4.259-.944-4.324-.57L-414-416l-4.358.19-4.324.57-4.259.944-4.16 1.311-4.03 1.67-3.869 2.014-3.679 2.343-3.46 2.656-3.216 2.947-2.947 3.216-2.656 3.46L-457.3-391l-2.014 3.87-1.67 4.029-1.311 4.16-.944 4.259-.57 4.324L-464-366l.19 4.358.57 4.324.944 4.259 1.311 4.16 1.67 4.03 2.014 3.869 2.343 3.679 2.656 3.46 2.947 3.216 3.216 2.947 3.46 2.656L-439-322.7l3.87 2.014 4.029 1.67 4.16 1.311 4.259.944 4.324.57 4.358.19" stroke="#000" stroke-linecap="round" stroke-linejoin="round" stroke-width="3"/><path d="M-433.503-381.571h27.289v7.785h-27.29v11.679l-15.532-15.572 15.533-15.571v11.679Zm54.539 27.25-15.533 15.571v-11.679h-27.289v-7.785h27.29v-11.679l15.532 15.572Z" fill="#5c76a2"/><path d="M-433.503-381.571h27.289v7.785h-27.29v11.679l-15.532-15.572 15.533-15.571v11.679Zm54.539 27.25-15.533 15.571v-11.679h-27.289v-7.785h27.29v-11.679l15.532 15.572Z" stroke="#5c76a2" stroke-linecap="round" stroke-linejoin="round" stroke-width="5"/></g></svg>