<svg xmlns="http://www.w3.org/2000/svg" viewBox="-954.225 -3610.457 25.25 25.25" width="25.25" height="25.25"><g fill="none"><path fill="#fff" d="M-953.6-3609.832h24v11.105h-24z"/><path stroke="#000" stroke-linecap="round" stroke-linejoin="round" stroke-width=".25" d="M-953.6-3609.832h24v11.105h-24z"/><path d="M-949.76-3596.937h16.32a3.84 3.84 0 0 1 3.84 3.84v3.425a3.84 3.84 0 0 1-3.84 3.84h-16.32a3.84 3.84 0 0 1-3.84-3.84v-3.425a3.84 3.84 0 0 1 3.84-3.84Z" fill="#fff"/><path d="M-949.76-3596.937h16.32a3.84 3.84 0 0 1 3.84 3.84v3.425a3.84 3.84 0 0 1-3.84 3.84h-16.32a3.84 3.84 0 0 1-3.84-3.84v-3.425a3.84 3.84 0 0 1 3.84-3.84Z" stroke="#000" stroke-linecap="round" stroke-linejoin="round" stroke-width=".25"/><path d="M-944.493-3594.767h-3.466l6.066 6.667 6.066-6.667h-3.553c0-4.763 1.386-8.096 4.42-10.477-4.333.952-8.666 3.81-9.533 10.477Z" fill="#5c76a2"/></g></svg>