<svg xmlns="http://www.w3.org/2000/svg" viewBox="1932.5 -1050.5 103 103" width="103" height="103"><g fill="none"><path d="M2018-1049h-68c-8.837 0-16 7.163-16 16v68c0 8.837 7.163 16 16 16h68c8.837 0 16-7.163 16-16v-68c0-8.837-7.163-16-16-16Z" fill="#fff"/><path d="M2018-1049h-68c-8.837 0-16 7.163-16 16v68c0 8.837 7.163 16 16 16h68c8.837 0 16-7.163 16-16v-68c0-8.837-7.163-16-16-16Z" stroke="#000" stroke-linecap="round" stroke-linejoin="round" stroke-width="3"/><path d="M1958.264-1002.456v-10.584h2.269c1.764 0 3.034.399 3.811 1.197.777.798 1.165 2.142 1.165 4.032 0 1.596-.399 2.888-1.197 3.875-.797.987-2.036 1.48-3.716 1.48Zm-11.717-19.026v44.982h11.717v-18.018h3.088c.713 0 1.312.095 1.795.284.483.189.882.524 1.197 1.008.315.482.535 1.144.661 1.984.126.84.19 1.89.19 3.15v3.024c0 .462.01 1.06.031 1.795.021.736.063 1.502.126 2.3.063.798.168 1.596.315 2.394s.368 1.491.662 2.079h12.474v-.63c-.379-.21-.652-.43-.82-.662a21.648 21.648 0 0 1-.504-.724c-.126-.252-.23-.609-.314-1.071a14.78 14.78 0 0 1-.19-1.543 24.344 24.344 0 0 1-.063-1.796v-5.67c0-3.024-.524-5.397-1.574-7.119-1.05-1.722-2.983-2.709-5.796-2.961v-.126c2.688-.42 4.64-1.554 5.859-3.402 1.217-1.848 1.826-4.284 1.826-7.308 0-1.722-.22-3.318-.661-4.788-.441-1.47-1.155-2.74-2.142-3.812-.987-1.07-2.268-1.9-3.843-2.488-1.575-.588-3.476-.882-5.701-.882ZM1998.774-999.306v1.512h-6.237v-1.512c0-1.806.22-3.129.661-3.969.441-.84 1.25-1.26 2.425-1.26 1.218 0 2.048.42 2.489 1.26.441.84.661 2.163.661 3.969Zm-6.237 7.686h16.82v-3.465c0-3.108-.283-5.702-.85-7.78-.567-2.08-1.428-3.76-2.583-5.04-1.155-1.282-2.583-2.195-4.284-2.741-1.701-.546-3.686-.819-5.954-.819-2.562 0-4.756.326-6.583.976-1.827.652-3.329 1.691-4.505 3.119-1.176 1.428-2.036 3.276-2.582 5.544-.547 2.268-.82 5.04-.82 8.316 0 3.234.242 5.985.725 8.253s1.292 4.105 2.426 5.512c1.133 1.408 2.625 2.415 4.473 3.024 1.848.61 4.137.914 6.867.914 4.704 0 8.085-1.06 10.143-3.182 2.058-2.12 3.129-5.281 3.213-9.481h-10.207c0 2.31-.283 3.875-.85 4.693-.567.82-1.355 1.229-2.363 1.229-.798 0-1.512-.304-2.141-.913-.63-.61-.946-1.838-.946-3.686Z" fill="#5c76a2"/><path fill="#000" d="M2015.091-1026.018h4.284v62.937h-4.284z"/></g></svg>