<svg xmlns="http://www.w3.org/2000/svg" viewBox="1432.5 -798.13 103 103" width="103" height="103"><g fill="none"><path d="M1450-796.63h68c8.836 0 16 7.164 16 16v14.27c0 8.837-7.164 16-16 16h-68c-8.837 0-16-7.163-16-16v-14.27c0-8.836 7.163-16 16-16Z" fill="#fff"/><path d="M1450-796.63h68c8.836 0 16 7.164 16 16v14.27c0 8.837-7.164 16-16 16h-68c-8.837 0-16-7.163-16-16v-14.27c0-8.836 7.163-16 16-16Z" stroke="#000" stroke-linecap="round" stroke-linejoin="round" stroke-width="3"/><path d="M1450-742.9h68c8.836 0 16 7.164 16 16v14.27c0 8.837-7.164 16-16 16h-68c-8.837 0-16-7.163-16-16v-14.27c0-8.836 7.163-16 16-16Z" fill="#fff"/><path d="M1450-742.9h68c8.836 0 16 7.164 16 16v14.27c0 8.837-7.164 16-16 16h-68c-8.837 0-16-7.163-16-16v-14.27c0-8.836 7.163-16 16-16Z" stroke="#000" stroke-linecap="round" stroke-linejoin="round" stroke-width="3"/><path d="M1471.946-733.86h-14.443l25.275 27.78 25.276-27.78h-14.804c0-19.843 5.777-33.733 18.415-43.655-18.054 3.969-36.108 15.875-39.72 43.655Z" fill="#5c76a2"/></g></svg>