<svg xmlns="http://www.w3.org/2000/svg" width="25" height="25" viewBox="-822.09 -3653.122 25 25"><g fill="none"><path fill="#fff" d="M-797.59-3628.622v-16.597l-7.134-7.346h-16.866v23.943Z"/><path stroke="#000" stroke-linecap="round" stroke-linejoin="round" stroke-width=".25" d="M-797.59-3628.622v-16.597l-7.134-7.346h-16.866v23.943Z"/><path fill="#fff" d="m-804.79-3652.622 7.135 7.433h-7.135Z"/><path stroke="#000" stroke-linecap="round" stroke-linejoin="round" stroke-width=".25" d="m-804.79-3652.622 7.135 7.433h-7.135Z"/><path fill="#5c76a2" d="M-806.406-3638.711h-.723l-.256-.258a6.319 6.319 0 0 0 1.436-4.03c0-3.422-2.662-6.195-5.946-6.195s-5.946 2.773-5.946 6.195c0 3.42 2.662 6.193 5.946 6.193a5.784 5.784 0 0 0 3.87-1.496l.247.267v.753l4.574 4.755 1.363-1.42-4.565-4.764Zm-5.49 0c-2.277 0-4.116-1.916-4.116-4.289 0-2.372 1.84-4.288 4.117-4.288 2.278 0 4.117 1.916 4.117 4.289 0 2.372-1.84 4.288-4.117 4.288Z"/></g></svg>