<svg xmlns="http://www.w3.org/2000/svg" viewBox="163.5 -2598.439 105 138.774" width="105" height="138.774"><g fill="none"><path d="M236.276-2595.939H166v133.774h100v-104.39Z" fill="#fff"/><path d="M236.276-2595.939H166v133.774h100v-104.39Z" stroke="#9da9b5" stroke-linecap="round" stroke-linejoin="round" stroke-width="5"/><path d="M236.268-2595.939 266-2566.208h-29.732Z" fill="#fff"/><path d="M236.268-2595.939 266-2566.208h-29.732Z" stroke="#9da9b5" stroke-linecap="round" stroke-linejoin="round" stroke-width="5"/><path d="M246.84-2519.725c0 4.48-.773 8.573-2.32 12.28-1.547 3.707-3.693 6.88-6.44 9.52-2.747 2.64-6.013 4.68-9.8 6.12-3.787 1.44-7.893 2.16-12.32 2.16-4.427 0-8.52-.72-12.28-2.16-3.76-1.44-7.013-3.48-9.76-6.12s-4.893-5.813-6.44-9.52c-1.547-3.707-2.32-7.8-2.32-12.28 0-4.534.773-8.627 2.32-12.28 1.547-3.653 3.693-6.76 6.44-9.32 2.747-2.56 6-4.533 9.76-5.92 3.76-1.387 7.853-2.08 12.28-2.08s8.533.693 12.32 2.08c3.787 1.387 7.053 3.36 9.8 5.92 2.747 2.56 4.893 5.666 6.44 9.32 1.547 3.653 2.32 7.747 2.32 12.28Zm-14.64 0c0-2.454-.4-4.747-1.2-6.88-.8-2.133-1.907-3.96-3.32-5.48-1.413-1.52-3.12-2.72-5.12-3.6-2-.88-4.2-1.32-6.6-1.32-2.4 0-4.587.44-6.56 1.32-1.974.88-3.68 2.08-5.12 3.6s-2.547 3.347-3.32 5.48c-.773 2.133-1.16 4.427-1.16 6.88 0 2.56.4 4.92 1.2 7.08.8 2.16 1.907 4.013 3.32 5.56 1.413 1.547 3.107 2.76 5.08 3.64 1.973.88 4.16 1.32 6.56 1.32 2.4 0 4.587-.44 6.56-1.32a15.593 15.593 0 0 0 5.12-3.64c1.44-1.547 2.56-3.4 3.36-5.56.8-2.16 1.2-4.52 1.2-7.08Z" fill="#9f4c4c"/></g></svg>