<svg xmlns="http://www.w3.org/2000/svg" width="25" height="25" viewBox="-902.09 -3653.122 25 25"><g fill="none"><path fill="#fff" d="M-884.787-3652.622h-12.952a3.851 3.851 0 0 0-3.851 3.852v12.891a3.851 3.851 0 0 0 3.851 3.852h12.952a3.851 3.851 0 0 0 3.852-3.852v-12.891a3.851 3.851 0 0 0-3.852-3.852Z"/><path stroke="#000" stroke-linecap="round" stroke-linejoin="round" stroke-width=".25" d="M-884.787-3652.622h-12.952a3.851 3.851 0 0 0-3.851 3.852v12.891a3.851 3.851 0 0 0 3.851 3.852h12.952a3.851 3.851 0 0 0 3.852-3.852v-12.891a3.851 3.851 0 0 0-3.852-3.852Z"/><path fill="#fff" d="M-881.442-3649.216h-12.952a3.851 3.851 0 0 0-3.851 3.851v12.892a3.851 3.851 0 0 0 3.851 3.851h12.952a3.851 3.851 0 0 0 3.852-3.851v-12.892a3.851 3.851 0 0 0-3.852-3.851Z"/><path stroke="#000" stroke-linecap="round" stroke-linejoin="round" stroke-width=".25" d="M-881.442-3649.216h-12.952a3.851 3.851 0 0 0-3.851 3.851v12.892a3.851 3.851 0 0 0 3.851 3.851h12.952a3.851 3.851 0 0 0 3.852-3.851v-12.892a3.851 3.851 0 0 0-3.852-3.851Z"/><path fill="#518737" d="M-887.157-3632.088v3.466l6.688-6.066-6.688-6.066v3.553c-4.776 0-8.12-1.387-10.507-4.42.955 4.333 3.82 8.666 10.507 9.533Z"/><path fill="#d07638" d="M-888.622-3646.148v-3.466l-6.687 6.066 6.687 6.066v-3.553c4.777 0 8.12 1.387 10.508 4.42-.955-4.333-3.82-8.666-10.508-9.533Z"/></g></svg>