<svg xmlns="http://www.w3.org/2000/svg" width="25" height="25" viewBox="-942.09 -3653.122 25 25"><g fill="none"><path fill="#fff" d="M-941.59-3652.622h24v11.105h-24z"/><path stroke="#000" stroke-linecap="round" stroke-linejoin="round" stroke-width=".25" d="M-941.59-3652.622h24v11.105h-24z"/><path fill="#fff" d="M-937.75-3639.727h16.32a3.84 3.84 0 0 1 3.84 3.84v3.425a3.84 3.84 0 0 1-3.84 3.84h-16.32a3.84 3.84 0 0 1-3.84-3.84v-3.425a3.84 3.84 0 0 1 3.84-3.84Z"/><path stroke="#000" stroke-linecap="round" stroke-linejoin="round" stroke-width=".25" d="M-937.75-3639.727h16.32a3.84 3.84 0 0 1 3.84 3.84v3.425a3.84 3.84 0 0 1-3.84 3.84h-16.32a3.84 3.84 0 0 1-3.84-3.84v-3.425a3.84 3.84 0 0 1 3.84-3.84Z"/><path fill="#5c76a2" d="M-932.483-3637.557h-3.467l6.067 6.667 6.066-6.667h-3.553c0-4.762 1.386-8.096 4.42-10.477-4.334.952-8.667 3.81-9.533 10.477Z"/></g></svg>