<svg xmlns="http://www.w3.org/2000/svg" viewBox="-832.625 -3610.625 25.25 25.25" width="25.25" height="25.25"><g fill="none"><path d="M-808-3586v-16.597l-7.134-7.346H-832V-3586Z" fill="#fff"/><path d="M-808-3586v-16.597l-7.134-7.346H-832V-3586Z" stroke="#000" stroke-linecap="round" stroke-linejoin="round" stroke-width=".25"/><path d="m-815.2-3610 7.136 7.433h-7.136Z" fill="#fff"/><path d="m-815.2-3610 7.136 7.433h-7.136Z" stroke="#000" stroke-linecap="round" stroke-linejoin="round" stroke-width=".25"/><path d="M-816.816-3596.09h-.723l-.256-.257a6.32 6.32 0 0 0 1.436-4.031c0-3.421-2.662-6.194-5.946-6.194s-5.946 2.773-5.946 6.194 2.662 6.194 5.946 6.194a5.783 5.783 0 0 0 3.87-1.496l.247.267v.753l4.574 4.755 1.363-1.42-4.565-4.765Zm-5.489 0c-2.278 0-4.116-1.915-4.116-4.288s1.838-4.288 4.116-4.288c2.278 0 4.117 1.915 4.117 4.288s-1.839 4.288-4.117 4.288Z" fill="#5c76a2"/></g></svg>