<svg xmlns="http://www.w3.org/2000/svg" viewBox="-912.625 -3610.289 25.25 25.25" width="25.25" height="25.25"><g fill="none"><path d="M-895.196-3609.664h-12.953a3.851 3.851 0 0 0-3.851 3.851v12.892a3.851 3.851 0 0 0 3.851 3.851h12.953a3.851 3.851 0 0 0 3.851-3.851v-12.892a3.851 3.851 0 0 0-3.851-3.851Z" fill="#fff"/><path d="M-895.196-3609.664h-12.953a3.851 3.851 0 0 0-3.851 3.851v12.892a3.851 3.851 0 0 0 3.851 3.851h12.953a3.851 3.851 0 0 0 3.851-3.851v-12.892a3.851 3.851 0 0 0-3.851-3.851Z" stroke="#000" stroke-linecap="round" stroke-linejoin="round" stroke-width=".25"/><path d="M-891.851-3606.258h-12.953a3.851 3.851 0 0 0-3.851 3.851v12.892a3.851 3.851 0 0 0 3.851 3.851h12.953a3.851 3.851 0 0 0 3.851-3.851v-12.892a3.851 3.851 0 0 0-3.851-3.851Z" fill="#fff"/><path d="M-891.851-3606.258h-12.953a3.851 3.851 0 0 0-3.851 3.851v12.892a3.851 3.851 0 0 0 3.851 3.851h12.953a3.851 3.851 0 0 0 3.851-3.851v-12.892a3.851 3.851 0 0 0-3.851-3.851Z" stroke="#000" stroke-linecap="round" stroke-linejoin="round" stroke-width=".25"/><path d="M-897.566-3589.13v3.466l6.687-6.066-6.687-6.066v3.553c-4.777 0-8.12-1.387-10.508-4.42.955 4.333 3.82 8.666 10.508 9.533Z" fill="#518737"/><path d="M-899.031-3603.19v-3.467l-6.687 6.067 6.687 6.066v-3.553c4.776 0 8.12 1.386 10.508 4.42-.956-4.334-3.821-8.667-10.508-9.533Z" fill="#d07638"/></g></svg>