<svg xmlns="http://www.w3.org/2000/svg" viewBox="-839 -2429 101.799 88" width="101.799" height="88"><g fill="none"><path d="M-759.432-2362.847a29.069 29.069 0 1 0-17.234-55.5c-7.47-9.636-20.815-12.452-31.54-6.654-10.726 5.798-15.68 18.506-11.71 30.033h-1.473c-9.174 0-16.611 7.437-16.611 16.61 0 9.175 7.437 16.611 16.61 16.611h4.153" fill="#fff"/><path d="M-759.432-2362.847a29.069 29.069 0 1 0-17.234-55.5c-7.47-9.636-20.815-12.452-31.54-6.654-10.726 5.798-15.68 18.506-11.71 30.033h-1.473c-9.174 0-16.611 7.437-16.611 16.61 0 9.175 7.437 16.611 16.61 16.611h4.153M-805.304-2358.61l16.61 16.61 16.611-16.61M-788.693-2342v-49.832" stroke="#000" stroke-linejoin="round" stroke-width="2"/></g></svg>