<svg xmlns="http://www.w3.org/2000/svg" viewBox="38.145 -2598.439 105 138.774" width="105" height="138.774"><g fill="none"><path d="M110.922-2595.939H40.645v133.774h100v-104.39Z" fill="#fff"/><path d="M110.922-2595.939H40.645v133.774h100v-104.39Z" stroke="#9da9b5" stroke-linecap="round" stroke-linejoin="round" stroke-width="5"/><path d="m110.914-2595.939 29.731 29.731h-29.731Z" fill="#fff"/><path d="m110.914-2595.939 29.731 29.731h-29.731Z" stroke="#9da9b5" stroke-linecap="round" stroke-linejoin="round" stroke-width="5"/><path d="M118.485-2499.005c-2.506 2.88-5.6 5.16-9.28 6.84-3.68 1.68-7.92 2.52-12.72 2.52-4.373 0-8.413-.72-12.12-2.16-3.706-1.44-6.92-3.48-9.64-6.12-2.72-2.64-4.853-5.8-6.4-9.48-1.546-3.68-2.32-7.733-2.32-12.16 0-4.534.787-8.64 2.36-12.32 1.574-3.68 3.747-6.813 6.52-9.4 2.774-2.587 6.027-4.573 9.76-5.96 3.734-1.387 7.76-2.08 12.08-2.08 4 0 7.934.706 11.8 2.12 3.867 1.413 7 3.48 9.4 6.2l-9.28 9.28c-1.28-1.76-2.96-3.067-5.04-3.92a16.712 16.712 0 0 0-6.4-1.28c-2.4 0-4.6.44-6.6 1.32-2 .88-3.72 2.093-5.16 3.64-1.44 1.547-2.56 3.373-3.36 5.48-.8 2.107-1.2 4.413-1.2 6.92 0 2.56.4 4.907 1.2 7.04.8 2.133 1.907 3.96 3.32 5.48 1.414 1.52 3.107 2.707 5.08 3.56 1.974.853 4.134 1.28 6.48 1.28 2.72 0 5.094-.533 7.12-1.6 2.027-1.067 3.654-2.453 4.88-4.16Z" fill="#a7967d"/></g></svg>