<svg xmlns="http://www.w3.org/2000/svg" viewBox="-463.272 -2598.439 105 138.774" width="105" height="138.774"><g fill="none"><path d="M-390.496-2595.939h-70.276v133.774h100v-104.39Z" fill="#fff"/><path d="M-390.496-2595.939h-70.276v133.774h100v-104.39Z" stroke="#9da9b5" stroke-linecap="round" stroke-linejoin="round" stroke-width="5"/><path d="m-390.504-2595.939 29.731 29.731h-29.731Z" fill="#fff"/><path d="m-390.504-2595.939 29.731 29.731h-29.731Z" stroke="#9da9b5" stroke-linecap="round" stroke-linejoin="round" stroke-width="5"/><path d="M-385.373-2494.605c-2.773 1.44-6.013 2.613-9.72 3.52-3.706.907-7.746 1.36-12.12 1.36-4.533 0-8.706-.72-12.52-2.16-3.813-1.44-7.093-3.467-9.84-6.08-2.746-2.613-4.893-5.747-6.44-9.4-1.546-3.654-2.32-7.72-2.32-12.2 0-4.534.787-8.64 2.36-12.32 1.574-3.68 3.747-6.813 6.52-9.4 2.774-2.587 6.027-4.573 9.76-5.96 3.734-1.387 7.76-2.08 12.08-2.08 4.48 0 8.64.68 12.48 2.04 3.84 1.36 6.96 3.186 9.36 5.48l-8.64 9.84c-1.333-1.547-3.093-2.813-5.28-3.8-2.186-.987-4.666-1.48-7.44-1.48-2.4 0-4.613.44-6.64 1.32a15.963 15.963 0 0 0-5.28 3.68c-1.493 1.573-2.653 3.44-3.48 5.6-.826 2.16-1.24 4.52-1.24 7.08 0 2.613.374 5.013 1.12 7.2.747 2.187 1.854 4.066 3.32 5.64 1.467 1.573 3.28 2.8 5.44 3.68 2.16.88 4.627 1.32 7.4 1.32 1.6 0 3.12-.12 4.56-.36a17.01 17.01 0 0 0 4-1.16v-10.32h-10.8v-11.04h23.36Z" fill="#5c76a2"/></g></svg>