<svg xmlns="http://www.w3.org/2000/svg" viewBox="-872.625 -3610.625 25.25 25.25" width="25.25" height="25.25"><g fill="none"><path d="M-851.84-3610h-16.32a3.84 3.84 0 0 0-3.84 3.84v16.32a3.84 3.84 0 0 0 3.84 3.84h16.32a3.84 3.84 0 0 0 3.84-3.84v-16.32a3.84 3.84 0 0 0-3.84-3.84Z" fill="#fff"/><path d="M-851.84-3610h-16.32a3.84 3.84 0 0 0-3.84 3.84v16.32a3.84 3.84 0 0 0 3.84 3.84h16.32a3.84 3.84 0 0 0 3.84-3.84v-16.32a3.84 3.84 0 0 0-3.84-3.84Z" stroke="#000" stroke-linecap="round" stroke-linejoin="round" stroke-width=".25"/><path d="M-866.177-3598.83v-2.54h.545c.423 0 .728.096.915.288.186.191.28.514.28.967 0 .383-.096.693-.288.93-.192.237-.489.356-.892.356Zm-2.812-4.566v10.796h2.813v-4.324h.74c.172 0 .315.022.431.068a.603.603 0 0 1 .288.242 1.2 1.2 0 0 1 .158.476c.03.202.046.454.046.756v.726a11.118 11.118 0 0 0 .038.983c.015.191.04.383.075.574.035.192.088.358.159.499h2.994v-.151a.601.601 0 0 1-.197-.159 5.043 5.043 0 0 1-.12-.174.981.981 0 0 1-.077-.257 3.535 3.535 0 0 1-.045-.37 5.832 5.832 0 0 1-.015-.431v-1.361c0-.726-.126-1.295-.378-1.709-.252-.413-.716-.65-1.391-.71v-.03c.645-.101 1.114-.373 1.406-.817.292-.444.439-1.028.439-1.754 0-.413-.053-.796-.16-1.149a2.307 2.307 0 0 0-.513-.915 2.34 2.34 0 0 0-.923-.597c-.378-.141-.834-.212-1.368-.212ZM-856.454-3598.073v.362h-1.497v-.362c0-.434.053-.751.159-.953.105-.202.3-.302.582-.302.292 0 .491.1.597.302.106.202.159.519.159.953Zm-1.497 1.844h4.037v-.831c0-.746-.068-1.369-.204-1.868-.136-.499-.343-.902-.62-1.21a2.306 2.306 0 0 0-1.028-.657c-.409-.131-.885-.197-1.43-.197-.614 0-1.14.079-1.58.235a2.425 2.425 0 0 0-1.08.748c-.283.343-.49.786-.62 1.33-.131.545-.197 1.21-.197 1.997 0 .776.058 1.436.174 1.98.116.545.31.986.582 1.323.272.338.63.58 1.074.726.443.146.993.22 1.648.22 1.129 0 1.94-.255 2.434-.764.494-.51.751-1.268.771-2.276h-2.45c0 .555-.067.93-.203 1.127a.652.652 0 0 1-.567.294.72.72 0 0 1-.514-.219c-.152-.146-.227-.44-.227-.884Z" fill="#5c76a2"/><path fill="#000" d="M-852.538-3604.484h1.028v15.105h-1.028z"/></g></svg>