<svg xmlns="http://www.w3.org/2000/svg" viewBox="-713.981 -2614.5 105 154.835" width="105" height="154.835"><g fill="none"><path d="M-641.205-2595.939h-70.276v133.774h100v-104.39Z" fill="#fff"/><path d="M-641.205-2595.939h-70.276v133.774h100v-104.39Z" stroke="#9da9b5" stroke-linecap="round" stroke-linejoin="round" stroke-width="5"/><path d="m-641.213-2595.939 29.731 29.731h-29.731Z" fill="#fff"/><path d="m-641.213-2595.939 29.731 29.731h-29.731Z" stroke="#9da9b5" stroke-linecap="round" stroke-linejoin="round" stroke-width="5"/><path d="M-649.361-2533.085c-1.174-1.494-2.707-2.68-4.6-3.56-1.894-.88-3.72-1.32-5.48-1.32-.907 0-1.827.08-2.76.24a7.123 7.123 0 0 0-2.52.92 6.229 6.229 0 0 0-1.88 1.76c-.507.72-.76 1.64-.76 2.76 0 .96.2 1.76.6 2.4.4.64.986 1.2 1.76 1.68.773.48 1.693.92 2.76 1.32 1.066.4 2.266.813 3.6 1.24 1.92.64 3.92 1.347 6 2.12 2.08.773 3.973 1.8 5.68 3.08a16.165 16.165 0 0 1 4.24 4.76c1.12 1.893 1.68 4.253 1.68 7.08 0 3.253-.6 6.066-1.8 8.44-1.2 2.373-2.814 4.333-4.84 5.88-2.027 1.547-4.347 2.693-6.96 3.44a29.27 29.27 0 0 1-8.08 1.12c-4.054 0-7.974-.707-11.76-2.12-3.787-1.414-6.934-3.427-9.44-6.04l8.96-9.12c1.386 1.707 3.213 3.133 5.48 4.28 2.266 1.147 4.52 1.72 6.76 1.72 1.013 0 2-.107 2.96-.32.96-.213 1.8-.56 2.52-1.04a5.208 5.208 0 0 0 1.72-1.92c.426-.8.64-1.76.64-2.88 0-1.067-.267-1.973-.8-2.72-.534-.747-1.294-1.427-2.28-2.04-.987-.613-2.214-1.173-3.68-1.68a188.362 188.362 0 0 0-5-1.64 47.814 47.814 0 0 1-5.32-2.08 17.81 17.81 0 0 1-4.64-3.08c-1.36-1.253-2.454-2.773-3.28-4.56-.827-1.787-1.24-3.96-1.24-6.52 0-3.147.64-5.84 1.92-8.08 1.28-2.24 2.96-4.08 5.04-5.52 2.08-1.44 4.426-2.493 7.04-3.16 2.613-.667 5.253-1 7.92-1 3.2 0 6.466.586 9.8 1.76 3.333 1.173 6.253 2.907 8.76 5.2Z" fill="#cdcdcd"/><text transform="translate(-707.276 -2614.5)" fill="#d07638">
            <tspan font-family="Avenir Next" font-weight="bold" font-size="86" x=".515" y="86">+</tspan>
          </text></g></svg>