<svg xmlns="http://www.w3.org/2000/svg" width="25" height="25" viewBox="-862.09 -3653.122 25 25"><g fill="none"><path fill="#fff" d="M-841.43-3652.622h-16.32a3.84 3.84 0 0 0-3.84 3.84v16.32a3.84 3.84 0 0 0 3.84 3.84h16.32a3.84 3.84 0 0 0 3.84-3.84v-16.32a3.84 3.84 0 0 0-3.84-3.84Z"/><path stroke="#000" stroke-linecap="round" stroke-linejoin="round" stroke-width=".25" d="M-841.43-3652.622h-16.32a3.84 3.84 0 0 0-3.84 3.84v16.32a3.84 3.84 0 0 0 3.84 3.84h16.32a3.84 3.84 0 0 0 3.84-3.84v-16.32a3.84 3.84 0 0 0-3.84-3.84Z"/><path fill="#5c76a2" d="M-855.767-3641.451v-2.54h.545c.423 0 .728.095.914.287.187.192.28.514.28.968 0 .383-.096.693-.287.93-.192.236-.49.355-.892.355Zm-2.812-4.566v10.795h2.812v-4.324h.741c.171 0 .315.023.431.068a.603.603 0 0 1 .287.242c.076.116.129.275.159.476.03.202.045.454.045.756v.726c0 .111.003.255.008.431s.015.36.03.552c.015.191.04.383.076.574.035.192.088.358.159.5h2.993v-.152a.597.597 0 0 1-.196-.159 4.942 4.942 0 0 1-.121-.174.984.984 0 0 1-.076-.257 3.544 3.544 0 0 1-.045-.37 5.833 5.833 0 0 1-.015-.431v-1.361c0-.726-.126-1.295-.378-1.708-.252-.414-.716-.65-1.391-.711v-.03c.645-.101 1.113-.373 1.406-.817.292-.443.438-1.028.438-1.754a3.98 3.98 0 0 0-.159-1.149 2.307 2.307 0 0 0-.514-.915 2.342 2.342 0 0 0-.922-.597c-.378-.141-.834-.211-1.368-.211ZM-846.045-3640.695v.363h-1.497v-.363c0-.434.053-.751.16-.953.105-.201.3-.302.581-.302.293 0 .492.1.598.302.105.202.158.52.158.953Zm-1.497 1.845h4.038v-.832c0-.746-.068-1.369-.205-1.867-.136-.5-.342-.903-.62-1.21a2.306 2.306 0 0 0-1.028-.658c-.408-.131-.884-.196-1.428-.196-.615 0-1.142.078-1.58.234a2.425 2.425 0 0 0-1.082.748c-.282.343-.489.787-.62 1.331-.13.544-.196 1.21-.196 1.996 0 .776.058 1.436.174 1.98.116.545.31.986.582 1.324.272.337.63.579 1.073.725.444.147.993.22 1.649.22 1.128 0 1.94-.255 2.434-.764.494-.509.75-1.267.77-2.276h-2.448c0 .555-.069.93-.205 1.127a.652.652 0 0 1-.567.295.72.72 0 0 1-.514-.22c-.15-.146-.226-.44-.226-.884Z"/><path fill="#000" d="M-842.129-3647.106h1.028v15.105h-1.028z"/></g></svg>