<svg xmlns="http://www.w3.org/2000/svg" viewBox="-212.564 -2598.439 105 138.774" width="105" height="138.774"><g fill="none"><path d="M-139.787-2595.939h-70.277v133.774h100v-104.39Z" fill="#fff"/><path d="M-139.787-2595.939h-70.277v133.774h100v-104.39Z" stroke="#9da9b5" stroke-linecap="round" stroke-linejoin="round" stroke-width="5"/><path d="m-139.795-2595.939 29.731 29.731h-29.731Z" fill="#fff"/><path d="m-139.795-2595.939 29.731 29.731h-29.731Z" stroke="#9da9b5" stroke-linecap="round" stroke-linejoin="round" stroke-width="5"/><path fill="#999" d="M-188-2540h53.298v3.414H-188z"/><path stroke="#999" stroke-linecap="round" stroke-linejoin="round" stroke-width="4" d="M-188-2540h53.298v3.414H-188z"/><path fill="#999" d="M-188-2524.594h53.298v3.414H-188z"/><path stroke="#999" stroke-linecap="round" stroke-linejoin="round" stroke-width="4" d="M-188-2524.594h53.298v3.414H-188z"/><path fill="#999" d="M-188-2508.771h53.298v3.414H-188z"/><path stroke="#999" stroke-linecap="round" stroke-linejoin="round" stroke-width="4" d="M-188-2508.771h53.298v3.414H-188z"/><path fill="#999" d="M-188-2491.75h39.973v3.414H-188z"/><path stroke="#999" stroke-linecap="round" stroke-linejoin="round" stroke-width="4" d="M-188-2491.75h39.973v3.414H-188z"/></g></svg>