<?xml version="1.0" encoding="UTF-8" standalone="no"?>
<!DOCTYPE svg PUBLIC "-//W3C//DTD SVG 1.1//EN" "http://www.w3.org/Graphics/SVG/1.1/DTD/svg11.dtd">
<svg version="1.1" xmlns="http://www.w3.org/2000/svg" xmlns:xl="http://www.w3.org/1999/xlink" xmlns:dc="http://purl.org/dc/elements/1.1/" viewBox="293.5 -2596.5 102.40817 136.40817" width="102.40817" height="136.40817">
  <defs/>
  <g id="Icons_1" stroke-dasharray="none" fill-opacity="1" stroke="none" stroke-opacity="1" fill="none">
    <title>Icons 1</title>
    <g id="Icons_1_Calque_1">
      <title>Calque 1</title>
      <g id="Group_3068">
        <g id="Group_3063">
          <g id="Graphic_3066">
            <path d="M 354.83754 -2594 L 296 -2594 L 296 -2476 L 379.7232 -2476 L 379.7232 -2568.0808 Z" fill="white"/>
            <path d="M 354.83754 -2594 L 296 -2594 L 296 -2476 L 379.7232 -2476 L 379.7232 -2568.0808 Z" stroke="#9da9b5" stroke-linecap="round" stroke-linejoin="round" stroke-width="5"/>
          </g>
          <g id="Graphic_3065">
            <path d="M 354.831 -2594 L 379.7232 -2567.7743 L 354.831 -2567.7743 Z" fill="white"/>
            <path d="M 354.831 -2594 L 379.7232 -2567.7743 L 354.831 -2567.7743 Z" stroke="#9da9b5" stroke-linecap="round" stroke-linejoin="round" stroke-width="5"/>
          </g>
        </g>
        <g id="Graphic_3067">
          <title>Search</title>
          <path d="M 371.39806 -2491.9697 L 367.5177 -2491.9697 L 366.1424 -2493.296 C 370.956 -2498.8954 373.854 -2506.165 373.854 -2514.073 C 373.854 -2531.7065 359.5605 -2546 341.927 -2546 C 324.29347 -2546 310 -2531.7065 310 -2514.073 C 310 -2496.4395 324.29347 -2482.146 341.927 -2482.146 C 349.83506 -2482.146 357.1046 -2485.044 362.7041 -2489.8576 L 364.0303 -2488.4823 L 364.0303 -2484.602 L 388.5895 -2460.0918 L 395.90817 -2467.4105 L 371.39806 -2491.9697 Z M 341.927 -2491.9697 C 329.6965 -2491.9697 319.8237 -2501.8425 319.8237 -2514.073 C 319.8237 -2526.3035 329.6965 -2536.1763 341.927 -2536.1763 C 354.1575 -2536.1763 364.0303 -2526.3035 364.0303 -2514.073 C 364.0303 -2501.8425 354.1575 -2491.9697 341.927 -2491.9697 Z" fill="#5c76a2"/>
        </g>
      </g>
    </g>
  </g>
</svg>
