<svg xmlns="http://www.w3.org/2000/svg" viewBox="-588.627 -2598.439 105 138.774" width="105" height="138.774"><g fill="none"><path d="M-515.85-2595.939h-70.277v133.774h100v-104.39Z" fill="#fff"/><path d="M-515.85-2595.939h-70.277v133.774h100v-104.39Z" stroke="#9da9b5" stroke-linecap="round" stroke-linejoin="round" stroke-width="5"/><path d="m-515.859-2595.939 29.732 29.731h-29.732Z" fill="#fff"/><path d="m-515.859-2595.939 29.732 29.731h-29.732Z" stroke="#9da9b5" stroke-linecap="round" stroke-linejoin="round" stroke-width="5"/><path d="M-524.007-2533.085c-1.173-1.494-2.707-2.68-4.6-3.56-1.893-.88-3.72-1.32-5.48-1.32-.907 0-1.827.08-2.76.24a7.122 7.122 0 0 0-2.52.92 6.228 6.228 0 0 0-1.88 1.76c-.507.72-.76 1.64-.76 2.76 0 .96.2 1.76.6 2.4.4.64.987 1.2 1.76 1.68s1.693.92 2.76 1.32c1.067.4 2.267.813 3.6 1.24 1.92.64 3.92 1.347 6 2.12 2.08.773 3.973 1.8 5.68 3.08a16.166 16.166 0 0 1 4.24 4.76c1.12 1.893 1.68 4.253 1.68 7.08 0 3.253-.6 6.066-1.8 8.44-1.2 2.373-2.813 4.333-4.84 5.88-2.027 1.547-4.347 2.693-6.96 3.44a29.27 29.27 0 0 1-8.08 1.12c-4.053 0-7.973-.707-11.76-2.12-3.787-1.414-6.933-3.427-9.44-6.04l8.96-9.12c1.387 1.707 3.213 3.133 5.48 4.28 2.267 1.147 4.52 1.72 6.76 1.72 1.013 0 2-.107 2.96-.32.96-.213 1.8-.56 2.52-1.04a5.208 5.208 0 0 0 1.72-1.92c.427-.8.64-1.76.64-2.88 0-1.067-.267-1.973-.8-2.72-.533-.747-1.293-1.427-2.28-2.04-.987-.613-2.213-1.173-3.68-1.68a188.41 188.41 0 0 0-5-1.64 47.805 47.805 0 0 1-5.32-2.08 17.81 17.81 0 0 1-4.64-3.08c-1.36-1.253-2.453-2.773-3.28-4.56-.827-1.787-1.24-3.96-1.24-6.52 0-3.147.64-5.84 1.92-8.08 1.28-2.24 2.96-4.08 5.04-5.52 2.08-1.44 4.427-2.493 7.04-3.16 2.613-.667 5.253-1 7.92-1 3.2 0 6.467.586 9.8 1.76 3.333 1.173 6.253 2.907 8.76 5.2Z" fill="#d07638"/></g></svg>