<svg xmlns="http://www.w3.org/2000/svg" viewBox="-752.006 -3610.5 25 25" width="25" height="25"><g fill="none"><path d="M-741.857-3607.403h-7.052a2.347 2.347 0 0 0-2.339 2.351l-.011 14.104a2.358 2.358 0 0 0 2.35 2.35h18.805a2.357 2.357 0 0 0 2.35-2.35v-11.753a2.358 2.358 0 0 0-2.35-2.351h-9.402l-2.351-2.35Z" fill="#cf7738"/><path d="M-731.521-3596.151c.024-.188.042-.376.042-.576 0-.2-.018-.388-.042-.576l1.274-.97a.291.291 0 0 0 .073-.375l-1.208-2.034a.308.308 0 0 0-.369-.129l-1.504.588a4.437 4.437 0 0 0-1.021-.576l-.23-1.557a.292.292 0 0 0-.296-.247h-2.416a.292.292 0 0 0-.296.247l-.23 1.557a4.665 4.665 0 0 0-1.02.576l-1.505-.588a.299.299 0 0 0-.369.13l-1.208 2.033a.284.284 0 0 0 .072.376l1.275.97a4.527 4.527 0 0 0-.042.575c0 .194.018.388.042.576l-1.275.97a.29.29 0 0 0-.072.376l1.208 2.033c.073.13.236.177.369.13l1.504-.588a4.44 4.44 0 0 0 1.021.576l.23 1.557a.292.292 0 0 0 .296.247h2.416a.292.292 0 0 0 .296-.247l.23-1.557a4.674 4.674 0 0 0 1.02-.576l1.505.588c.14.052.296 0 .369-.13l1.208-2.033a.29.29 0 0 0-.072-.376l-1.275-.97Zm-4.489 1.481c-1.166 0-2.115-.923-2.115-2.057s.949-2.057 2.115-2.057c1.166 0 2.115.923 2.115 2.057s-.949 2.057-2.115 2.057Z" fill="#fff"/></g></svg>