<svg xmlns="http://www.w3.org/2000/svg" viewBox="1050 -2308 102.145 81.716" width="102.145" height="81.716"><g fill="none"><path d="M1090.858-2308h-30.643c-5.618 0-10.164 4.597-10.164 10.215l-.051 61.287c0 5.618 4.597 10.214 10.215 10.214h81.716c5.618 0 10.214-4.596 10.214-10.214v-51.073c0-5.618-4.596-10.215-10.214-10.215h-40.858L1090.858-2308Z" fill="#cf7738"/><path d="M1135.771-2259.106a19.37 19.37 0 0 0 .184-2.503c0-.868-.079-1.685-.184-2.503l5.54-4.213c.499-.383.63-1.073.315-1.634l-5.25-8.836c-.316-.562-1.025-.766-1.602-.562l-6.537 2.554a19.31 19.31 0 0 0-4.437-2.503l-.997-6.767c-.08-.613-.63-1.072-1.287-1.072h-10.5c-.657 0-1.209.46-1.287 1.072l-.998 6.767c-1.601.639-3.071 1.507-4.437 2.503l-6.537-2.554c-.603-.23-1.286 0-1.6.562l-5.251 8.836a1.236 1.236 0 0 0 .315 1.634l5.539 4.213c-.105.818-.184 1.66-.184 2.503 0 .843.079 1.685.184 2.503l-5.54 4.213c-.498.383-.63 1.073-.314 1.634l5.25 8.836c.315.562 1.024.766 1.601.562l6.537-2.554a19.313 19.313 0 0 0 4.437 2.503l.998 6.767c.078.613.63 1.072 1.286 1.072h10.501c.656 0 1.208-.46 1.287-1.072l.997-6.767c1.602-.639 3.072-1.507 4.437-2.503l6.537 2.554c.604.23 1.286 0 1.601-.562l5.25-8.836c.316-.561.185-1.251-.314-1.634l-5.54-4.213Zm-19.505 6.435c-5.067 0-9.189-4.01-9.189-8.938 0-4.928 4.122-8.938 9.189-8.938 5.066 0 9.188 4.01 9.188 8.938 0 4.928-4.122 8.938-9.188 8.938Z" fill="#fff"/></g></svg>