<svg xmlns="http://www.w3.org/2000/svg" viewBox="1292 -2308 102.145 81.716" width="102.145" height="81.716"><g fill="none"><path d="M1332.858-2308h-30.643c-5.618 0-10.164 4.597-10.164 10.215l-.051 61.287c0 5.618 4.597 10.214 10.215 10.214h81.716c5.618 0 10.214-4.596 10.214-10.214v-51.073c0-5.618-4.596-10.215-10.214-10.215h-40.858L1332.858-2308Z" fill="#5c76a2"/><path d="M1338.1-2266.427v17.024h8.064v-17.024h-8.064Zm16.128 0v17.024h8.064v-17.024h-8.064Zm-21.505 29.184h51.073v-7.296h-51.072v7.296Zm37.633-29.184v17.024h8.064v-17.024h-8.064Zm-12.096-21.889-25.536 12.16v4.865h51.072v-4.865l-25.536-12.16Z" fill="#fff"/></g></svg>