<svg xmlns="http://www.w3.org/2000/svg" viewBox="1171 -2308 102.145 81.716" width="102.145" height="81.716"><g fill="none"><path d="M1211.858-2308h-30.643c-5.618 0-10.164 4.597-10.164 10.215l-.051 61.287c0 5.618 4.597 10.214 10.215 10.214h81.716c5.618 0 10.214-4.596 10.214-10.214v-51.073c0-5.618-4.596-10.215-10.214-10.215h-40.858L1211.858-2308Z" fill="#518738"/><path d="M1237.26-2262.247c7.054 0 12.768-5.714 12.768-12.769 0-7.054-5.714-12.768-12.768-12.768s-12.768 5.714-12.768 12.768c0 7.055 5.714 12.769 12.768 12.769Zm0 6.384c-8.523 0-25.536 4.277-25.536 12.768v6.384h51.072v-6.384c0-8.491-17.013-12.768-25.536-12.768Z" fill="#fff"/></g></svg>