<svg xmlns="http://www.w3.org/2000/svg" viewBox="-792.5 -3610.5 25 25" width="25" height="25"><g fill="none"><path d="M-782.4-3607.6h-7.2a2.397 2.397 0 0 0-2.388 2.4l-.012 14.4c0 1.32 1.08 2.4 2.4 2.4h19.2c1.32 0 2.4-1.08 2.4-2.4v-12c0-1.32-1.08-2.4-2.4-2.4h-9.6l-2.4-2.4Z" fill="#5c76a2"/><path d="M-781.168-3597.832v4h1.894v-4h-1.894Zm3.789 0v4h1.895v-4h-1.895Zm-5.053 6.857h12v-1.714h-12v1.714Zm8.842-6.857v4h1.895v-4h-1.894Zm-2.842-5.143-6 2.857v1.143h12v-1.143l-6-2.857Z" fill="#fff"/></g></svg>