<svg xmlns="http://www.w3.org/2000/svg" width="24.75" height="24.75" viewBox="-661.965 -3652.997 24.75 24.75"><g fill="none"><path fill="#518738" d="M-651.94-3650.024h-7.053a2.347 2.347 0 0 0-2.339 2.35l-.011 14.104a2.358 2.358 0 0 0 2.35 2.351h18.805a2.358 2.358 0 0 0 2.35-2.351v-11.753a2.357 2.357 0 0 0-2.35-2.35h-9.402l-2.35-2.351Z"/><path fill="#fff" d="M-646.095-3639.495a2.938 2.938 0 1 0 0-5.877 2.938 2.938 0 1 0 0 5.877Zm0 1.469c-1.962 0-5.877.984-5.877 2.938v1.469h11.753v-1.469c0-1.954-3.915-2.938-5.876-2.938Z"/></g></svg>