<svg xmlns="http://www.w3.org/2000/svg" width="24.75" height="24.75" viewBox="-741.965 -3652.997 24.75 24.75"><g fill="none"><path fill="#cf7738" d="M-731.94-3650.024h-7.053a2.347 2.347 0 0 0-2.339 2.35l-.011 14.104a2.358 2.358 0 0 0 2.35 2.351h18.805a2.358 2.358 0 0 0 2.35-2.351v-11.753a2.357 2.357 0 0 0-2.35-2.35h-9.402l-2.35-2.351Z"/><path fill="#fff" d="M-721.605-3638.773c.024-.188.042-.376.042-.575 0-.2-.018-.388-.042-.576l1.275-.97a.291.291 0 0 0 .072-.376l-1.208-2.033c-.073-.13-.236-.177-.369-.13l-1.504.588a4.45 4.45 0 0 0-1.021-.576l-.23-1.557a.292.292 0 0 0-.296-.247h-2.416a.292.292 0 0 0-.296.247l-.23 1.557a4.688 4.688 0 0 0-1.02.576l-1.505-.588a.299.299 0 0 0-.369.13l-1.208 2.033a.284.284 0 0 0 .072.376l1.275.97a4.549 4.549 0 0 0-.042.575c0 .195.018.388.042.577l-1.274.969a.291.291 0 0 0-.073.376l1.208 2.034c.073.129.236.176.369.129l1.504-.588c.314.235.653.429 1.021.576l.23 1.557a.292.292 0 0 0 .296.247h2.416a.292.292 0 0 0 .296-.247l.23-1.557a4.673 4.673 0 0 0 1.02-.576l1.505.588c.14.053.296 0 .369-.13l1.208-2.033a.291.291 0 0 0-.072-.376l-1.275-.97Zm-4.489 1.481c-1.166 0-2.114-.922-2.114-2.057 0-1.134.948-2.056 2.114-2.056s2.115.922 2.115 2.057c0 1.134-.949 2.056-2.115 2.056Z"/></g></svg>