<svg xmlns="http://www.w3.org/2000/svg" viewBox="-672.006 -3610.5 25 25" width="25" height="25"><g fill="none"><path d="M-661.857-3607.403h-7.052a2.347 2.347 0 0 0-2.339 2.351l-.011 14.104a2.358 2.358 0 0 0 2.35 2.35h18.805a2.358 2.358 0 0 0 2.35-2.35v-11.753a2.358 2.358 0 0 0-2.35-2.351h-9.402l-2.351-2.35Z" fill="#518738"/><path d="M-656.011-3596.874a2.937 2.937 0 1 0 0-5.876 2.937 2.937 0 1 0 0 5.876Zm0 1.47c-1.962 0-5.877.984-5.877 2.938v1.469h11.753v-1.47c0-1.953-3.915-2.938-5.876-2.938Z" fill="#fff"/></g></svg>