<svg xmlns="http://www.w3.org/2000/svg" width="24" height="24" viewBox="-712 -3649.801 24 24"><g fill="none"><path fill="#cf7738" d="M-702.4-3647.401h-7.2a2.397 2.397 0 0 0-2.388 2.4l-.012 14.4c0 1.32 1.08 2.4 2.4 2.4h19.2c1.32 0 2.4-1.08 2.4-2.4v-12c0-1.32-1.08-2.4-2.4-2.4h-9.6l-2.4-2.4Z"/><path fill="#fff" d="M-691.847-3635.913c.024-.192.043-.384.043-.588 0-.204-.019-.396-.043-.588l1.301-.99a.297.297 0 0 0 .074-.384l-1.233-2.076a.315.315 0 0 0-.377-.132l-1.535.6a4.54 4.54 0 0 0-1.043-.588l-.234-1.59a.298.298 0 0 0-.303-.252h-2.467a.298.298 0 0 0-.302.252l-.235 1.59c-.376.15-.721.354-1.042.588l-1.536-.6a.305.305 0 0 0-.376.132l-1.234 2.076a.29.29 0 0 0 .074.384l1.302.99c-.025.192-.043.39-.043.588 0 .198.018.396.043.588l-1.302.99a.297.297 0 0 0-.074.384l1.234 2.076c.074.132.24.18.376.132l1.536-.6c.32.24.666.438 1.042.588l.235 1.59a.298.298 0 0 0 .302.252h2.467a.298.298 0 0 0 .303-.252l.234-1.59c.376-.15.722-.354 1.043-.588l1.535.6c.142.054.303 0 .377-.132l1.233-2.076a.297.297 0 0 0-.074-.384l-1.301-.99Zm-4.583 1.512c-1.19 0-2.16-.942-2.16-2.1 0-1.158.97-2.1 2.16-2.1 1.19 0 2.159.942 2.159 2.1 0 1.158-.969 2.1-2.16 2.1Z"/></g></svg>