<svg xmlns="http://www.w3.org/2000/svg" width="24.75" height="24.75" viewBox="-781.965 -3652.997 24.75 24.75"><g fill="none"><path fill="#5c76a2" d="M-771.99-3650.222h-7.2a2.397 2.397 0 0 0-2.388 2.4l-.012 14.4c0 1.32 1.08 2.4 2.4 2.4h19.2c1.32 0 2.4-1.08 2.4-2.4v-12c0-1.32-1.08-2.4-2.4-2.4h-9.6l-2.4-2.4Z"/><path fill="#fff" d="M-770.759-3640.454v4h1.895v-4h-1.895Zm3.79 0v4h1.894v-4h-1.894Zm-5.053 6.857h12v-1.714h-12v1.714Zm8.842-6.857v4h1.895v-4h-1.895Zm-2.842-5.143-6 2.857v1.143h12v-1.143l-6-2.857Z"/></g></svg>