<svg xmlns="http://www.w3.org/2000/svg" viewBox="668.5 -539.5 103 102.804" width="103" height="102.804"><g fill="none"><path fill="#fff" d="M670-538h100v75.075H670z"/><path stroke="#000" stroke-linecap="round" stroke-linejoin="round" stroke-width="3" d="M670-538h100v75.075H670z"/><path d="M751.502-459.395V-469h-63.004v9.605h63.004Z" fill="#fff"/><path stroke="#000" stroke-linecap="round" stroke-linejoin="round" stroke-width="3" d="M670-522.147h100M670-501.325h100M670-480.679h100"/><path d="M733.373-463.353v-50h-26.721v50h26.721Z" fill="#fff"/><path d="m741.49-462.685-4.299-4.298-14.161 14.161v-49.811h-6.06v49.811l-14.161-14.161-4.298 4.298 21.49 21.489Z" fill="#5c76a2"/><path d="m741.49-462.685-4.299-4.298-14.161 14.161v-49.811h-6.06v49.811l-14.161-14.161-4.298 4.298 21.49 21.489Z" stroke="#5c76a2" stroke-linecap="round" stroke-linejoin="round" stroke-width="9"/></g></svg>