<svg xmlns="http://www.w3.org/2000/svg" viewBox="538.5 -539.5 103 102.804" width="103" height="102.804"><g fill="none"><path d="M624-462.925h-68c-8.837 0-16-7.164-16-16V-522c0-8.837 7.163-16 16-16h68c8.837 0 16 7.163 16 16v43.075c0 8.836-7.163 16-16 16Z" fill="#fff"/><path d="M624-462.925h-68c-8.837 0-16-7.164-16-16V-522c0-8.837 7.163-16 16-16h68c8.837 0 16 7.163 16 16v43.075c0 8.836-7.163 16-16 16 0 0 0 0 0 0Z" stroke="#000" stroke-linecap="round" stroke-linejoin="round" stroke-width="3"/><circle cx="590" cy="-500.463" r="27.372" fill="#fff"/><circle cx="590" cy="-500.463" r="27.372" stroke="#000" stroke-linecap="round" stroke-linejoin="round" stroke-width="3"/><path d="M601.327-469v-9.605h-21.19V-469h21.19Z" fill="#fff"/><path d="m611.49-462.685-4.299-4.298-14.161 14.161v-49.811h-6.06v49.811l-14.161-14.161-4.298 4.298L590-441.196Z" fill="#5c76a2"/><path d="m611.49-462.685-4.299-4.298-14.161 14.161v-49.811h-6.06v49.811l-14.161-14.161-4.298 4.298L590-441.196Z" stroke="#5c76a2" stroke-linecap="round" stroke-linejoin="round" stroke-width="9"/></g></svg>