<svg xmlns="http://www.w3.org/2000/svg" width="25" height="25" viewBox="-593.5 -3650.968 25 25"><g fill="none"><path d="M-593-3650.468h24v24h-24z"/><path fill="#fff" d="M-592.5-3650.093h23v17.817h-23z"/><path stroke="#000" stroke-linecap="round" stroke-linejoin="round" stroke-width=".25" d="M-592.5-3650.093h23v17.817h-23zM-592.5-3646.331h23M-592.5-3641.389h23M-592.5-3636.49h23"/><path fill="#fff" d="M-573.44-3632.003v-2.28h-15.12v2.28h15.12Z"/><path fill="#fff" d="M-577.793-3631.84v-11.867h-6.414v11.866h6.414Z"/><path fill="#5b76a2" d="m-576.011-3631.801-.992-1.017-3.349 3.267.144-11.635-1.415-.018-.144 11.636-3.267-3.35-1.017.992 4.958 5.082Z"/><path stroke="#5c76a2" stroke-linecap="round" stroke-linejoin="round" d="m-576.011-3631.801-.992-1.017-3.349 3.267.144-11.635-1.415-.018-.144 11.636-3.267-3.35-1.017.992 4.958 5.082Z"/></g></svg>