<svg xmlns="http://www.w3.org/2000/svg" width="25" height="25" viewBox="-552.5 -3650.489 25 25"><g fill="none"><path d="M-552-3649.989h24v24h-24z"/><path fill="#fff" d="M-532.34-3631.984h-15.32a3.84 3.84 0 0 1-3.84-3.84v-10.137a3.84 3.84 0 0 1 3.84-3.84h15.32a3.84 3.84 0 0 1 3.84 3.84v10.137a3.84 3.84 0 0 1-3.84 3.84Z"/><path stroke="#000" stroke-linecap="round" stroke-linejoin="round" stroke-width=".25" d="M-532.34-3631.984h-15.32a3.84 3.84 0 0 1-3.84-3.84v-10.137a3.84 3.84 0 0 1 3.84-3.84h15.32a3.84 3.84 0 0 1 3.84 3.84v10.137a3.84 3.84 0 0 1-3.84 3.84s0 0 0 0Z"/><ellipse cx="-540" cy="-3640.893" fill="#fff" rx="6.295" ry="6.496"/><ellipse cx="-540" cy="-3640.893" stroke="#000" stroke-linecap="round" stroke-linejoin="round" stroke-width=".25" rx="6.295" ry="6.496"/><path fill="#fff" d="M-532.755-3631.146v-2.28h-14.49v2.28h14.49Z"/><path fill="#fff" d="M-537.395-3633.426v-2.28h-4.874v2.28h4.874Z"/><path fill="#5b76a2" d="m-535.052-3631.292-.984-1.008-3.321 3.24.143-11.54-1.404-.018-.143 11.541-3.24-3.322-1.009.983 4.917 5.041Z"/><path stroke="#5c76a2" stroke-linecap="round" stroke-linejoin="round" d="m-535.052-3631.292-.984-1.008-3.321 3.24.143-11.54-1.404-.018-.143 11.541-3.24-3.322-1.009.983 4.917 5.041Z"/></g></svg>