<svg xmlns="http://www.w3.org/2000/svg" width="25" height="25.374" viewBox="-622.09 -3653.122 25 25.374"><g fill="none"><path fill="#fff" d="M-621.59-3652.622h24v18.099h-24z"/><path stroke="#000" stroke-linecap="round" stroke-linejoin="round" stroke-width=".25" d="M-621.59-3652.622h24v18.099h-24z"/><path fill="#fff" d="M-602.03-3633.672v-2.316h-15.12v2.316h15.12Z"/><path stroke="#000" stroke-linecap="round" stroke-linejoin="round" stroke-width=".25" d="M-621.59-3648.8h24M-621.59-3643.78h24M-621.59-3638.803h24"/><path fill="#fff" d="M-606.38-3633.937v-12.054h-6.414v12.054h6.413Z"/><path fill="#5b76a2" d="m-604.428-3633.785-1.033-1.032-3.402 3.401.002-11.966h-1.456l-.002 11.966-3.401-3.403-1.033 1.033 5.161 5.163Z"/><path stroke="#5c76a2" stroke-linecap="round" stroke-linejoin="round" d="m-604.428-3633.785-1.033-1.032-3.402 3.401.002-11.966h-1.456l-.002 11.966-3.401-3.403-1.033 1.033 5.161 5.163Z"/></g></svg>