<svg xmlns="http://www.w3.org/2000/svg" width="25" height="25.373" viewBox="-542.09 -3653.122 25 25.373"><g fill="none"><path fill="#fff" d="M-541.59-3652.622h9.072l3.333 3.323h11.595v16.455l-24-.024Z"/><path stroke="#000" stroke-linecap="round" stroke-linejoin="round" stroke-width=".25" d="M-541.59-3652.622h9.072l3.333 3.323h11.595v16.455l-24-.024Z"/><path fill="#fff" d="M-521.712-3632.61v-2.298h-15.472v2.298h15.472Z"/><path fill="#5b76a2" d="m-524.328-3633.742-1.024-1.025-3.375 3.374.002-11.869h-1.444l-.002 11.869-3.374-3.375-1.024 1.023 5.12 5.122Z"/><path stroke="#5c76a2" stroke-linecap="round" stroke-linejoin="round" d="m-524.328-3633.742-1.024-1.025-3.375 3.374.002-11.869h-1.444l-.002 11.869-3.374-3.375-1.024 1.023 5.12 5.122Z"/></g></svg>