<svg xmlns="http://www.w3.org/2000/svg" viewBox="-632.625 -3610.625 25.25 25.624" width="25.25" height="25.624"><g fill="none"><path fill="#fff" d="M-632-3610h24v18.099h-24z"/><path stroke="#000" stroke-linecap="round" stroke-linejoin="round" stroke-width=".25" d="M-632-3610h24v18.099h-24z"/><path d="M-612.44-3591.05v-2.316h-15.12v2.316h15.12Z" fill="#fff"/><path stroke="#000" stroke-linecap="round" stroke-linejoin="round" stroke-width=".25" d="M-632-3606.178h24M-632-3601.158h24M-632-3596.181h24"/><path d="M-616.79-3591.316v-12.053h-6.414v12.053h6.414Z" fill="#fff"/><path d="m-614.838-3591.163-1.032-1.032-3.403 3.401.002-11.966h-1.456l-.002 11.966-3.401-3.403-1.033 1.032L-620-3586Z" fill="#5b76a2"/><path d="m-614.838-3591.163-1.032-1.032-3.403 3.401.002-11.966h-1.456l-.002 11.966-3.401-3.403-1.033 1.032L-620-3586Z" stroke="#5c76a2" stroke-linecap="round" stroke-linejoin="round"/></g></svg>