<svg xmlns="http://www.w3.org/2000/svg" viewBox="-552.625 -3610.625 25.25 25.623" width="25.25" height="25.623"><g fill="none"><path d="M-552-3610h9.072l3.333 3.323H-528v16.454l-24-.023Z" fill="#fff"/><path d="M-552-3610h9.072l3.333 3.323H-528v16.454l-24-.023Z" stroke="#000" stroke-linecap="round" stroke-linejoin="round" stroke-width=".25"/><path d="M-532.122-3589.988v-2.299h-15.472v2.299h15.472Z" fill="#fff"/><path d="m-534.738-3591.12-1.024-1.025-3.375 3.374.003-11.869h-1.444l-.003 11.868-3.373-3.375-1.025 1.024 5.12 5.121Z" fill="#5b76a2"/><path d="m-534.738-3591.12-1.024-1.025-3.375 3.374.003-11.869h-1.444l-.003 11.868-3.373-3.375-1.025 1.024 5.12 5.121Z" stroke="#5c76a2" stroke-linecap="round" stroke-linejoin="round"/></g></svg>