<svg xmlns="http://www.w3.org/2000/svg" width="25" height="25" viewBox="-513 -3650.489 25 25"><g fill="none"><path fill="#fff" d="M-512-3649.801h8.694l3.194 3.271H-489v16.198l-23-.023Z"/><path stroke="#000" stroke-linecap="round" stroke-linejoin="round" stroke-width=".25" d="M-512-3649.801h8.694l3.194 3.271H-489v16.198l-23-.023Z"/><path fill="#fff" d="M-492.764-3630.1v-2.263h-15.472v2.262h15.472Z"/><path fill="#5b76a2" d="m-495.552-3631.419-.984-1.008-3.321 3.24.143-11.54-1.404-.018-.143 11.54-3.24-3.321-1.009.983 4.917 5.04Z"/><path stroke="#5c76a2" stroke-linecap="round" stroke-linejoin="round" d="m-495.552-3631.419-.984-1.008-3.321 3.24.143-11.54-1.404-.018-.143 11.54-3.24-3.321-1.009.983 4.917 5.04Z"/><path d="M-512.5-3649.989h24v24h-24z"/></g></svg>