<svg xmlns="http://www.w3.org/2000/svg" viewBox="-84.534 -417.5 103.069 103" width="103.069" height="103"><g fill="none"><path d="M1.034-416h-53.81c-8.836 0-16 7.163-16 16v53.81c0 8.836 7.164 16 16 16h53.81c8.837 0 16-7.164 16-16V-400c0-8.837-7.163-16-16-16Z" fill="#fff"/><path d="M1.034-416h-53.81c-8.836 0-16 7.163-16 16v53.81c0 8.836 7.164 16 16 16h53.81c8.837 0 16-7.164 16-16V-400c0-8.837-7.163-16-16-16Z" stroke="#000" stroke-linecap="round" stroke-linejoin="round" stroke-width="3"/><path d="M-13.225-401.81h-53.81c-8.836 0-16 7.164-16 16V-332c0 8.837 7.164 16 16 16h53.81c8.837 0 16-7.163 16-16v-53.81c0-8.836-7.163-16-16-16Z" fill="#fff"/><path d="M-13.225-401.81h-53.81c-8.836 0-16 7.164-16 16V-332c0 8.837 7.164 16 16 16h53.81c8.837 0 16-7.163 16-16v-53.81c0-8.836-7.163-16-16-16Z" stroke="#000" stroke-linecap="round" stroke-linejoin="round" stroke-width="3"/><path d="m-8.07-378.026-14.95-12.545-4.192 4.972 14.95 12.545 4.192-4.972Zm-45.89-7.573-4.16-4.972-14.95 12.512 4.193 4.973L-53.96-385.6Zm15.015 14.983h-4.875v19.5l15.438 9.262 2.437-3.997-13-7.703v-17.062Zm-1.625-13c-16.152 0-29.25 13.097-29.25 29.25 0 16.152 13.065 29.25 29.25 29.25 16.153 0 29.25-13.098 29.25-29.25 0-16.153-13.097-29.25-29.25-29.25Zm0 52c-12.577 0-22.75-10.173-22.75-22.75 0-12.578 10.173-22.75 22.75-22.75 12.578 0 22.75 10.172 22.75 22.75 0 12.577-10.172 22.75-22.75 22.75Z" fill="#5c76a2"/><path d="m-8.07-378.026-14.95-12.545-4.192 4.972 14.95 12.545 4.192-4.972Zm-45.89-7.573-4.16-4.972-14.95 12.512 4.193 4.973L-53.96-385.6Zm15.015 14.983h-4.875v19.5l15.438 9.262 2.437-3.997-13-7.703v-17.062Zm-1.625-13c-16.152 0-29.25 13.097-29.25 29.25 0 16.152 13.065 29.25 29.25 29.25 16.153 0 29.25-13.098 29.25-29.25 0-16.153-13.097-29.25-29.25-29.25Zm0 52c-12.577 0-22.75-10.173-22.75-22.75 0-12.578 10.173-22.75 22.75-22.75 12.578 0 22.75 10.172 22.75 22.75 0 12.577-10.172 22.75-22.75 22.75Z" stroke="#5c76a2" stroke-linecap="round" stroke-linejoin="round" stroke-width="2"/></g></svg>