<svg xmlns="http://www.w3.org/2000/svg" width="25" height="25" viewBox="-502.09 -3653.122 25 25"><g fill="none"><path fill="#fff" d="M-481.43-3652.622h-12.9a3.84 3.84 0 0 0-3.84 3.84v12.915a3.84 3.84 0 0 0 3.84 3.84h12.9a3.84 3.84 0 0 0 3.84-3.84v-12.915a3.84 3.84 0 0 0-3.84-3.84Z"/><path stroke="#000" stroke-linecap="round" stroke-linejoin="round" stroke-width=".25" d="M-481.43-3652.622h-12.9a3.84 3.84 0 0 0-3.84 3.84v12.915a3.84 3.84 0 0 0 3.84 3.84h12.9a3.84 3.84 0 0 0 3.84-3.84v-12.915a3.84 3.84 0 0 0-3.84-3.84Z"/><path fill="#fff" d="M-484.85-3649.216h-12.9a3.84 3.84 0 0 0-3.84 3.84v12.914a3.84 3.84 0 0 0 3.84 3.84h12.9a3.84 3.84 0 0 0 3.84-3.84v-12.914a3.84 3.84 0 0 0-3.84-3.84Z"/><path stroke="#000" stroke-linecap="round" stroke-linejoin="round" stroke-width=".25" d="M-484.85-3649.216h-12.9a3.84 3.84 0 0 0-3.84 3.84v12.914a3.84 3.84 0 0 0 3.84 3.84h12.9a3.84 3.84 0 0 0 3.84-3.84v-12.914a3.84 3.84 0 0 0-3.84-3.84Z"/><path fill="#5c76a2" d="m-483.611-3643.508-3.586-3.011-1.005 1.194 3.585 3.01 1.006-1.193Zm-11.006-1.817-.998-1.194-3.585 3.003 1.005 1.194 3.578-3.003Zm3.601 3.595h-1.17v4.68l3.703 2.223.585-.959-3.118-1.849v-4.095Zm-.39-3.12a7.018 7.018 0 0 0-7.015 7.02 7.013 7.013 0 0 0 7.015 7.02 7.018 7.018 0 0 0 7.015-7.02 7.018 7.018 0 0 0-7.015-7.02Zm0 12.48a5.454 5.454 0 0 1-5.456-5.46c0-3.018 2.44-5.46 5.456-5.46a5.454 5.454 0 0 1 5.457 5.46c0 3.019-2.44 5.46-5.457 5.46Z"/><path stroke="#5c76a2" stroke-linecap="round" stroke-linejoin="round" stroke-width=".48" d="m-483.611-3643.508-3.586-3.011-1.005 1.194 3.585 3.01 1.006-1.193Zm-11.006-1.817-.998-1.194-3.585 3.003 1.005 1.194 3.578-3.003Zm3.601 3.595h-1.17v4.68l3.703 2.223.585-.959-3.118-1.849v-4.095Zm-.39-3.12a7.018 7.018 0 0 0-7.015 7.02 7.013 7.013 0 0 0 7.015 7.02 7.018 7.018 0 0 0 7.015-7.02 7.018 7.018 0 0 0-7.015-7.02Zm0 12.48a5.454 5.454 0 0 1-5.456-5.46c0-3.018 2.44-5.46 5.456-5.46a5.454 5.454 0 0 1 5.457 5.46c0 3.019-2.44 5.46-5.457 5.46Z"/></g></svg>