<svg xmlns="http://www.w3.org/2000/svg" viewBox="-512.625 -3610.625 25.25 25.25" width="25.25" height="25.25"><g fill="none"><path d="M-491.84-3610h-12.9a3.84 3.84 0 0 0-3.84 3.84v12.914a3.84 3.84 0 0 0 3.84 3.84h12.9a3.84 3.84 0 0 0 3.84-3.84v-12.914a3.84 3.84 0 0 0-3.84-3.84Z" fill="#fff"/><path d="M-491.84-3610h-12.9a3.84 3.84 0 0 0-3.84 3.84v12.914a3.84 3.84 0 0 0 3.84 3.84h12.9a3.84 3.84 0 0 0 3.84-3.84v-12.914a3.84 3.84 0 0 0-3.84-3.84Z" stroke="#000" stroke-linecap="round" stroke-linejoin="round" stroke-width=".25"/><path d="M-495.26-3606.594h-12.9a3.84 3.84 0 0 0-3.84 3.84v12.914a3.84 3.84 0 0 0 3.84 3.84h12.9a3.84 3.84 0 0 0 3.84-3.84v-12.914a3.84 3.84 0 0 0-3.84-3.84Z" fill="#fff"/><path d="M-495.26-3606.594h-12.9a3.84 3.84 0 0 0-3.84 3.84v12.914a3.84 3.84 0 0 0 3.84 3.84h12.9a3.84 3.84 0 0 0 3.84-3.84v-12.914a3.84 3.84 0 0 0-3.84-3.84Z" stroke="#000" stroke-linecap="round" stroke-linejoin="round" stroke-width=".25"/><path d="m-494.02-3600.886-3.586-3.011-1.006 1.193 3.586 3.011 1.005-1.193Zm-11.007-1.818-.998-1.193-3.585 3.003 1.005 1.193 3.578-3.003Zm3.601 3.596h-1.169v4.68l3.703 2.223.584-.96-3.118-1.848v-4.095Zm-.39-3.12a7.018 7.018 0 0 0-7.015 7.02 7.013 7.013 0 0 0 7.016 7.02 7.018 7.018 0 0 0 7.015-7.02 7.018 7.018 0 0 0-7.015-7.02Zm0 12.48a5.454 5.454 0 0 1-5.456-5.46c0-3.019 2.44-5.46 5.457-5.46a5.454 5.454 0 0 1 5.456 5.46c0 3.019-2.44 5.46-5.457 5.46Z" fill="#5c76a2"/><path d="m-494.02-3600.886-3.586-3.011-1.006 1.193 3.586 3.011 1.005-1.193Zm-11.007-1.818-.998-1.193-3.585 3.003 1.005 1.193 3.578-3.003Zm3.601 3.596h-1.169v4.68l3.703 2.223.584-.96-3.118-1.848v-4.095Zm-.39-3.12a7.018 7.018 0 0 0-7.015 7.02 7.013 7.013 0 0 0 7.016 7.02 7.018 7.018 0 0 0 7.015-7.02 7.018 7.018 0 0 0-7.015-7.02Zm0 12.48a5.454 5.454 0 0 1-5.456-5.46c0-3.019 2.44-5.46 5.457-5.46a5.454 5.454 0 0 1 5.456 5.46c0 3.019-2.44 5.46-5.457 5.46Z" stroke="#5c76a2" stroke-linecap="round" stroke-linejoin="round" stroke-width=".48"/></g></svg>