<svg xmlns="http://www.w3.org/2000/svg" viewBox="-472.625 -3610.625 25.25 25.624" width="25.25" height="25.624"><g fill="none"><path d="M-451.84-3591.901h-16.32a3.84 3.84 0 0 1-3.84-3.84v-10.419a3.84 3.84 0 0 1 3.84-3.84h16.32a3.84 3.84 0 0 1 3.84 3.84v10.419a3.84 3.84 0 0 1-3.84 3.84Z" fill="#fff"/><path d="M-451.84-3591.901h-16.32a3.84 3.84 0 0 1-3.84-3.84v-10.419a3.84 3.84 0 0 1 3.84-3.84h16.32a3.84 3.84 0 0 1 3.84 3.84v10.419a3.84 3.84 0 0 1-3.84 3.84s0 0 0 0Z" stroke="#000" stroke-linecap="round" stroke-linejoin="round" stroke-width=".25"/><path d="M-452.44-3591.05v-2.316h-15.12v2.316h15.12Z" fill="#fff"/><path d="m-454.838-3591.163-1.032-1.032-3.403 3.401.002-11.966h-1.456l-.002 11.966-3.401-3.403-1.033 1.032L-460-3586Z" fill="#5b76a2"/><path d="m-454.838-3591.163-1.032-1.032-3.403 3.401.002-11.966h-1.456l-.002 11.966-3.401-3.403-1.033 1.032L-460-3586Z" stroke="#5c76a2" stroke-linecap="round" stroke-linejoin="round"/></g></svg>