<svg xmlns="http://www.w3.org/2000/svg" width="25" height="25.374" viewBox="-462.09 -3653.122 25 25.374"><g fill="none"><path fill="#fff" d="M-441.43-3634.523h-16.32a3.84 3.84 0 0 1-3.84-3.84v-10.419a3.84 3.84 0 0 1 3.84-3.84h16.32a3.84 3.84 0 0 1 3.84 3.84v10.419a3.84 3.84 0 0 1-3.84 3.84Z"/><path stroke="#000" stroke-linecap="round" stroke-linejoin="round" stroke-width=".25" d="M-441.43-3634.523h-16.32a3.84 3.84 0 0 1-3.84-3.84v-10.419a3.84 3.84 0 0 1 3.84-3.84h16.32a3.84 3.84 0 0 1 3.84 3.84v10.419a3.84 3.84 0 0 1-3.84 3.84s0 0 0 0Z"/><path fill="#fff" d="M-442.03-3633.672v-2.316h-15.12v2.316h15.12Z"/><path fill="#5b76a2" d="m-444.428-3633.785-1.033-1.032-3.402 3.401.002-11.966h-1.456l-.002 11.966-3.401-3.403-1.033 1.033 5.161 5.163Z"/><path stroke="#5c76a2" stroke-linecap="round" stroke-linejoin="round" d="m-444.428-3633.785-1.033-1.032-3.402 3.401.002-11.966h-1.456l-.002 11.966-3.401-3.403-1.033 1.033 5.161 5.163Z"/></g></svg>