<svg xmlns="http://www.w3.org/2000/svg" viewBox="418.5 -421.47 103 99.458" width="103" height="99.458"><g fill="none"><path d="M436-398.587h68c8.837 0 16 7.163 16 16v43.075c0 8.836-7.163 16-16 16h-68c-8.837 0-16-7.164-16-16v-43.075c0-8.837 7.163-16 16-16Z" fill="#fff"/><path d="M436-398.587h68c8.837 0 16 7.163 16 16v43.075c0 8.836-7.163 16-16 16h-68c-8.837 0-16-7.164-16-16v-43.075c0-8.837 7.163-16 16-16Z" stroke="#000" stroke-linecap="round" stroke-linejoin="round" stroke-width="3"/><path d="M487.375-390.742v-9.604h-34.75v9.604h34.75Z" fill="#fff"/><path d="m491.489-377.022-4.298-4.298-14.161 14.162v-49.812h-6.06v49.812l-14.161-14.162-4.298 4.298L470-355.532Z" fill="#000"/><path d="m491.489-377.022-4.298-4.298-14.161 14.162v-49.812h-6.06v49.812l-14.161-14.162-4.298 4.298L470-355.532Z" stroke="#5c76a2" stroke-linecap="round" stroke-linejoin="round" stroke-width="9"/></g></svg>