<svg xmlns="http://www.w3.org/2000/svg" width="25" height="24.644" viewBox="-422.09 -3652.768 25 24.644"><g fill="none"><path fill="#fff" d="M-417.75-3646.799h16.32a3.84 3.84 0 0 1 3.84 3.84v10.495a3.84 3.84 0 0 1-3.84 3.84h-16.32a3.84 3.84 0 0 1-3.84-3.84v-10.495a3.84 3.84 0 0 1 3.84-3.84Z"/><path stroke="#000" stroke-linecap="round" stroke-linejoin="round" stroke-width=".25" d="M-417.75-3646.799h16.32a3.84 3.84 0 0 1 3.84 3.84v10.495a3.84 3.84 0 0 1-3.84 3.84h-16.32a3.84 3.84 0 0 1-3.84-3.84v-10.495a3.84 3.84 0 0 1 3.84-3.84Z"/><path fill="#fff" d="M-405.42-3644.9v-2.325h-8.34v2.325h8.34Z"/><path fill="#5b76a2" d="m-404.424-3642.286-1.033-1.034-3.406 3.405.004-11.978h-1.458l-.003 11.977-3.404-3.406-1.034 1.033 5.165 5.169Z"/><path stroke="#5c76a2" stroke-linecap="round" stroke-linejoin="round" d="m-404.424-3642.286-1.033-1.034-3.406 3.405.004-11.978h-1.458l-.003 11.977-3.404-3.406-1.034 1.033 5.165 5.169Z"/></g></svg>