<svg xmlns="http://www.w3.org/2000/svg" width="25" height="25" viewBox="-432.75 -3650.688 25 25"><g fill="none"><path d="M-432.25-3650.188h24v24h-24z"/><path fill="#fff" d="M-412.09-3632.183h-16.32a3.84 3.84 0 0 1-3.84-3.84v-10.137a3.84 3.84 0 0 1 3.84-3.84h16.32a3.84 3.84 0 0 1 3.84 3.84v10.137a3.84 3.84 0 0 1-3.84 3.84Z"/><path stroke="#000" stroke-linecap="round" stroke-linejoin="round" stroke-width=".25" d="M-412.09-3632.183h-16.32a3.84 3.84 0 0 1-3.84-3.84v-10.137a3.84 3.84 0 0 1 3.84-3.84h16.32a3.84 3.84 0 0 1 3.84 3.84v10.137a3.84 3.84 0 0 1-3.84 3.84s0 0 0 0Z"/><path fill="#fff" d="M-412.69-3631.929v-2.279h-15.12v2.28h15.12Z"/><path fill="#5b76a2" d="m-415.261-3631.66-.992-1.016-3.349 3.267.144-11.635-1.415-.018-.144 11.636-3.267-3.35-1.017.992 4.958 5.082Z"/><path stroke="#5c76a2" stroke-linecap="round" stroke-linejoin="round" d="m-415.261-3631.66-.992-1.016-3.349 3.267.144-11.635-1.415-.018-.144 11.636-3.267-3.35-1.017.992 4.958 5.082Z"/></g></svg>