<svg xmlns="http://www.w3.org/2000/svg" viewBox="-432.625 -3610.259 25.25 24.894" width="25.25" height="24.894"><g fill="none"><path d="M-428.16-3604.165h16.32a3.84 3.84 0 0 1 3.84 3.84v10.495a3.84 3.84 0 0 1-3.84 3.84h-16.32a3.84 3.84 0 0 1-3.84-3.84v-10.495a3.84 3.84 0 0 1 3.84-3.84Z" fill="#fff"/><path d="M-428.16-3604.165h16.32a3.84 3.84 0 0 1 3.84 3.84v10.495a3.84 3.84 0 0 1-3.84 3.84h-16.32a3.84 3.84 0 0 1-3.84-3.84v-10.495a3.84 3.84 0 0 1 3.84-3.84Z" stroke="#000" stroke-linecap="round" stroke-linejoin="round" stroke-width=".25"/><path d="M-415.83-3602.265v-2.325h-8.34v2.325h8.34Z" fill="#fff"/><path d="m-414.834-3599.651-1.033-1.034-3.406 3.404.004-11.977-1.457-.001-.004 11.977-3.404-3.406-1.034 1.033 5.165 5.169Z" fill="#5b76a2"/><path d="m-414.834-3599.651-1.033-1.034-3.406 3.404.004-11.977-1.457-.001-.004 11.977-3.404-3.406-1.034 1.033 5.165 5.169Z" stroke="#5c76a2" stroke-linecap="round" stroke-linejoin="round"/></g></svg>