<svg xmlns="http://www.w3.org/2000/svg" viewBox="-392.625 -3611 25.25 25.625" width="25.25" height="25.625"><g fill="none"><path d="M-388.16-3603.994h16.32a3.84 3.84 0 0 1 3.84 3.84v10.314a3.84 3.84 0 0 1-3.84 3.84h-16.32a3.84 3.84 0 0 1-3.84-3.84v-10.314a3.84 3.84 0 0 1 3.84-3.84Z" fill="#fff"/><path d="M-388.16-3603.994h16.32a3.84 3.84 0 0 1 3.84 3.84v10.314a3.84 3.84 0 0 1-3.84 3.84h-16.32a3.84 3.84 0 0 1-3.84-3.84v-10.314a3.84 3.84 0 0 1 3.84-3.84Z" stroke="#000" stroke-linecap="round" stroke-linejoin="round" stroke-width=".25"/><path d="M-372.603-3600.735v-3.701h-14.794v3.702h14.794Z" fill="#fff"/><path d="M-375.2-3604.521h-3.634a.48.48 0 0 0-.48.48v3.148a.48.48 0 0 1-.48.48h-.412a.48.48 0 0 1-.48-.48v-3.148a.48.48 0 0 0-.48-.48h-3.154a.48.48 0 0 1-.48-.48v-.41a.48.48 0 0 1 .48-.48h3.154a.48.48 0 0 0 .48-.48v-3.149a.48.48 0 0 1 .48-.48h.412a.48.48 0 0 1 .48.48v3.149c0 .265.215.48.48.48h3.154a.48.48 0 0 1 .48.48v.89Z" fill="#5b76a2"/><path d="M-375.2-3604.521h-3.634a.48.48 0 0 0-.48.48v3.148a.48.48 0 0 1-.48.48h-.412a.48.48 0 0 1-.48-.48v-3.148a.48.48 0 0 0-.48-.48h-3.154a.48.48 0 0 1-.48-.48v-.41a.48.48 0 0 1 .48-.48h3.154a.48.48 0 0 0 .48-.48v-3.149a.48.48 0 0 1 .48-.48h.412a.48.48 0 0 1 .48.48v3.149c0 .265.215.48.48.48h3.154a.48.48 0 0 1 .48.48v.89Z" stroke="#5c76a2" stroke-linecap="round" stroke-linejoin="round"/></g></svg>