<svg xmlns="http://www.w3.org/2000/svg" viewBox="292.5 -554 103 99.918" width="103" height="99.918"><g fill="none"><path d="M310-530.657h68c8.837 0 16 7.163 16 16v43.075c0 8.836-7.163 16-16 16h-68c-8.837 0-16-7.164-16-16v-43.075c0-8.837 7.163-16 16-16Z" fill="#fff"/><path d="M310-530.657h68c8.837 0 16 7.163 16 16v43.075c0 8.836-7.163 16-16 16h-68c-8.837 0-16-7.164-16-16v-43.075c0-8.837 7.163-16 16-16Z" stroke="#000" stroke-linecap="round" stroke-linejoin="round" stroke-width="3"/><path d="M374.82-517.057V-532.5h-61.64v15.443h61.64Z" fill="#fff"/><path d="M364-527.143h-15.143a2 2 0 0 0-2 2V-512a2 2 0 0 1-2 2h-1.714a2 2 0 0 1-2-2v-13.143a2 2 0 0 0-2-2H326a2 2 0 0 1-2-2v-1.714a2 2 0 0 1 2-2h13.143a2 2 0 0 0 2-2V-548a2 2 0 0 1 2-2h1.714a2 2 0 0 1 2 2v13.143a2 2 0 0 0 2 2H362a2 2 0 0 1 2 2v3.714Z" fill="#5c76a2"/><path d="M364-527.143h-15.143a2 2 0 0 0-2 2V-512a2 2 0 0 1-2 2h-1.714a2 2 0 0 1-2-2v-13.143a2 2 0 0 0-2-2H326a2 2 0 0 1-2-2v-1.714a2 2 0 0 1 2-2h13.143a2 2 0 0 0 2-2V-548a2 2 0 0 1 2-2h1.714a2 2 0 0 1 2 2v13.143a2 2 0 0 0 2 2H362a2 2 0 0 1 2 2v3.714Z" stroke="#5c76a2" stroke-linecap="round" stroke-linejoin="round" stroke-width="8"/></g></svg>