<svg xmlns="http://www.w3.org/2000/svg" width="25" height="25" viewBox="-352.625 -3650.688 25 25"><g fill="none"><path d="M-352.125-3650.188h24v24h-24z"/><path fill="#fff" d="M-348.285-3644.418h16.32a3.84 3.84 0 0 1 3.84 3.84v10.314a3.84 3.84 0 0 1-3.84 3.84h-16.32a3.84 3.84 0 0 1-3.84-3.84v-10.314a3.84 3.84 0 0 1 3.84-3.84Z"/><path stroke="#000" stroke-linecap="round" stroke-linejoin="round" stroke-width=".25" d="M-348.285-3644.418h16.32a3.84 3.84 0 0 1 3.84 3.84v10.314a3.84 3.84 0 0 1-3.84 3.84h-16.32a3.84 3.84 0 0 1-3.84-3.84v-10.314a3.84 3.84 0 0 1 3.84-3.84Z"/><path fill="#fff" d="M-332.728-3640.735v-3.701h-14.794v3.702h14.794Z"/><path fill="#5b76a2" d="M-335.325-3643.25h-3.634a.48.48 0 0 0-.48.48v3.148a.48.48 0 0 1-.48.48h-.412a.48.48 0 0 1-.48-.48v-3.148a.48.48 0 0 0-.48-.48h-3.154a.48.48 0 0 1-.48-.48v-.41a.48.48 0 0 1 .48-.48h3.154a.48.48 0 0 0 .48-.48v-3.149a.48.48 0 0 1 .48-.48h.412a.48.48 0 0 1 .48.48v3.149c0 .265.215.48.48.48h3.154a.48.48 0 0 1 .48.48v.89Z"/><path stroke="#5c76a2" stroke-linecap="round" stroke-linejoin="round" d="M-335.325-3643.25h-3.634a.48.48 0 0 0-.48.48v3.148a.48.48 0 0 1-.48.48h-.412a.48.48 0 0 1-.48-.48v-3.148a.48.48 0 0 0-.48-.48h-3.154a.48.48 0 0 1-.48-.48v-.41a.48.48 0 0 1 .48-.48h3.154a.48.48 0 0 0 .48-.48v-3.149a.48.48 0 0 1 .48-.48h.412a.48.48 0 0 1 .48.48v3.149c0 .265.215.48.48.48h3.154a.48.48 0 0 1 .48.48v.89Z"/></g></svg>