<svg xmlns="http://www.w3.org/2000/svg" width="25" height="25" viewBox="-312.974 -3651 25 25"><g fill="none"><path d="M-312.474-3650.5h24v24h-24z"/><path fill="#fff" d="M-288.949-3627v-15.943L-295.8-3650H-312v23Z"/><path stroke="#000" stroke-linecap="round" stroke-linejoin="round" stroke-width=".24" d="M-288.949-3627v-15.943L-295.8-3650H-312v23Z"/><path fill="#fff" d="m-295.802-3650 6.853 6.772h-6.853Z"/><path stroke="#000" stroke-linecap="round" stroke-linejoin="round" stroke-width=".24" d="m-295.802-3650 6.853 6.772h-6.853Z"/><path fill="#5b76a2" d="m-301.62-3642.275-1.01 1.01 3.326 3.327h-11.702v1.423h11.702l-3.327 3.327 1.01 1.01 5.048-5.048Z"/><path stroke="#5c76a2" stroke-linecap="round" stroke-linejoin="round" d="m-301.62-3642.275-1.01 1.01 3.326 3.327h-11.702v1.423h11.702l-3.327 3.327 1.01 1.01 5.048-5.048Z"/></g></svg>