<svg xmlns="http://www.w3.org/2000/svg" width="25" height="25.375" viewBox="-382.09 -3653.497 25 25.375"><g fill="none"><path fill="#fff" d="M-377.75-3646.616h16.32a3.84 3.84 0 0 1 3.84 3.84v10.314a3.84 3.84 0 0 1-3.84 3.84h-16.32a3.84 3.84 0 0 1-3.84-3.84v-10.314a3.84 3.84 0 0 1 3.84-3.84Z"/><path stroke="#000" stroke-linecap="round" stroke-linejoin="round" stroke-width=".25" d="M-377.75-3646.616h16.32a3.84 3.84 0 0 1 3.84 3.84v10.314a3.84 3.84 0 0 1-3.84 3.84h-16.32a3.84 3.84 0 0 1-3.84-3.84v-10.314a3.84 3.84 0 0 1 3.84-3.84Z"/><path fill="#fff" d="M-362.193-3643.356v-3.702h-14.794v3.702h14.794Z"/><path fill="#5b76a2" d="M-364.79-3647.143h-3.635a.48.48 0 0 0-.48.48v3.149a.48.48 0 0 1-.48.48h-.411a.48.48 0 0 1-.48-.48v-3.15a.48.48 0 0 0-.48-.48h-3.154a.48.48 0 0 1-.48-.48v-.409a.48.48 0 0 1 .48-.48h3.154a.48.48 0 0 0 .48-.48v-3.149a.48.48 0 0 1 .48-.48h.411a.48.48 0 0 1 .48.48v3.149c0 .265.215.48.48.48h3.155a.48.48 0 0 1 .48.48v.89Z"/><path stroke="#5c76a2" stroke-linecap="round" stroke-linejoin="round" d="M-364.79-3647.143h-3.635a.48.48 0 0 0-.48.48v3.149a.48.48 0 0 1-.48.48h-.411a.48.48 0 0 1-.48-.48v-3.15a.48.48 0 0 0-.48-.48h-3.154a.48.48 0 0 1-.48-.48v-.409a.48.48 0 0 1 .48-.48h3.154a.48.48 0 0 0 .48-.48v-3.149a.48.48 0 0 1 .48-.48h.411a.48.48 0 0 1 .48.48v3.149c0 .265.215.48.48.48h3.155a.48.48 0 0 1 .48.48v.89Z"/></g></svg>