<svg xmlns="http://www.w3.org/2000/svg" viewBox="-575.5 -2186.198 103 85.644" width="103" height="85.644"><g fill="none"><path d="M-574-2184.698h37.801l13.887 13.886H-474v68.758l-100-.098Z" fill="#fff"/><path d="M-574-2184.698h37.801l13.887 13.886H-474v68.758l-100-.098Z" stroke="#000" stroke-linecap="round" stroke-linejoin="round" stroke-width="3"/><path d="M-504-2134.799h-15.143a2 2 0 0 0-2 2v13.143a2 2 0 0 1-2 2h-1.714a2 2 0 0 1-2-2v-13.143a2 2 0 0 0-2-2H-542a2 2 0 0 1-2-2v-1.714a2 2 0 0 1 2-2h13.143a2 2 0 0 0 2-2v-13.143a2 2 0 0 1 2-2h1.714a2 2 0 0 1 2 2v13.143a2 2 0 0 0 2 2H-506a2 2 0 0 1 2 2v3.714Z" fill="#5c76a2"/><path d="M-504-2134.799h-15.143a2 2 0 0 0-2 2v13.143a2 2 0 0 1-2 2h-1.714a2 2 0 0 1-2-2v-13.143a2 2 0 0 0-2-2H-542a2 2 0 0 1-2-2v-1.714a2 2 0 0 1 2-2h13.143a2 2 0 0 0 2-2v-13.143a2 2 0 0 1 2-2h1.714a2 2 0 0 1 2 2v13.143a2 2 0 0 0 2 2H-506a2 2 0 0 1 2 2v3.714Z" stroke="#518737" stroke-linecap="round" stroke-linejoin="round" stroke-width="8"/></g></svg>