<svg xmlns="http://www.w3.org/2000/svg" viewBox="-333.857 -2319.399 103 93" width="103" height="93"><g fill="none"><path d="M-318.902-2317.9h32.715l12.018 12.303h41.812v60.913l-86.545-.087Z" fill="#fff"/><path d="M-318.902-2317.9h32.715l12.018 12.303h41.812v60.913l-86.545-.087Z" stroke="#000" stroke-linecap="round" stroke-linejoin="round" stroke-width="3"/><path d="M-332.357-2301.115h32.715l12.018 12.302h41.812v60.914l-86.545-.088Z" fill="#fff"/><path d="M-332.357-2301.115h32.715l12.018 12.302h41.812v60.914l-86.545-.088Z" stroke="#000" stroke-linecap="round" stroke-linejoin="round" stroke-width="3"/><path d="M-268-2255.143h-15.143a2 2 0 0 0-2 2V-2240a2 2 0 0 1-2 2h-1.714a2 2 0 0 1-2-2v-13.143a2 2 0 0 0-2-2H-306a2 2 0 0 1-2-2v-1.714a2 2 0 0 1 2-2h13.143a2 2 0 0 0 2-2V-2276a2 2 0 0 1 2-2h1.714a2 2 0 0 1 2 2v13.143a2 2 0 0 0 2 2H-270a2 2 0 0 1 2 2v3.714Z" fill="#5c76a2"/><path d="M-268-2255.143h-15.143a2 2 0 0 0-2 2V-2240a2 2 0 0 1-2 2h-1.714a2 2 0 0 1-2-2v-13.143a2 2 0 0 0-2-2H-306a2 2 0 0 1-2-2v-1.714a2 2 0 0 1 2-2h13.143a2 2 0 0 0 2-2V-2276a2 2 0 0 1 2-2h1.714a2 2 0 0 1 2 2v13.143a2 2 0 0 0 2 2H-270a2 2 0 0 1 2 2v3.714Z" stroke="#518737" stroke-linecap="round" stroke-linejoin="round" stroke-width="8"/></g></svg>