<svg xmlns="http://www.w3.org/2000/svg" viewBox="-232.625 -3610.625 25.25 25.25" width="25.25" height="25.25"><g fill="none"><path d="M-228.77-3610h7.85l2.885 2.952H-208v14.62l-20.77-.021Z" fill="#fff"/><path d="M-228.77-3610h7.85l2.885 2.952H-208v14.62l-20.77-.021Z" stroke="#000" stroke-linecap="round" stroke-linejoin="round" stroke-width=".25"/><path d="M-232-3603.572h7.852l2.884 2.953h10.035V-3586l-20.771-.021Z" fill="#fff"/><path d="M-232-3603.572h7.852l2.884 2.953h10.035V-3586l-20.771-.021Z" stroke="#000" stroke-linecap="round" stroke-linejoin="round" stroke-width=".25"/><path d="M-216.554-3592.196h-3.635a.48.48 0 0 0-.48.48v3.155a.48.48 0 0 1-.48.48h-.411a.48.48 0 0 1-.48-.48v-3.155a.48.48 0 0 0-.48-.48h-3.154a.48.48 0 0 1-.48-.48v-.411a.48.48 0 0 1 .48-.48h3.154a.48.48 0 0 0 .48-.48v-3.154a.48.48 0 0 1 .48-.48h.411a.48.48 0 0 1 .48.48v3.154c0 .265.215.48.48.48h3.155a.48.48 0 0 1 .48.48v.891Z" fill="#528737"/><path d="M-216.554-3592.196h-3.635a.48.48 0 0 0-.48.48v3.155a.48.48 0 0 1-.48.48h-.411a.48.48 0 0 1-.48-.48v-3.155a.48.48 0 0 0-.48-.48h-3.154a.48.48 0 0 1-.48-.48v-.411a.48.48 0 0 1 .48-.48h3.154a.48.48 0 0 0 .48-.48v-3.154a.48.48 0 0 1 .48-.48h.411a.48.48 0 0 1 .48.48v3.154c0 .265.215.48.48.48h3.155a.48.48 0 0 1 .48.48v.891Z" stroke="#518737" stroke-linecap="round" stroke-linejoin="round"/></g></svg>