<svg xmlns="http://www.w3.org/2000/svg" width="25" height="25" viewBox="-273 -3649.726 25 25"><g fill="none"><path d="M-272.5-3649.226h24v24h-24z"/><path fill="#fff" d="M-272-3647.144h8.694l3.194 3.333H-249v16.502l-23-.024Z"/><path stroke="#000" stroke-linecap="round" stroke-linejoin="round" stroke-width=".25" d="M-272-3647.144h8.694l3.194 3.333H-249v16.502l-23-.024Z"/><path fill="#528737" d="M-255.7-3635.168h-3.634a.48.48 0 0 0-.48.48v3.155a.48.48 0 0 1-.48.48h-.412a.48.48 0 0 1-.48-.48v-3.155a.48.48 0 0 0-.48-.48h-3.154a.48.48 0 0 1-.48-.48v-.411a.48.48 0 0 1 .48-.48h3.154a.48.48 0 0 0 .48-.48v-3.155a.48.48 0 0 1 .48-.48h.412a.48.48 0 0 1 .48.48v3.155c0 .265.215.48.48.48h3.154a.48.48 0 0 1 .48.48v.891Z"/><path stroke="#518737" stroke-linecap="round" stroke-linejoin="round" d="M-255.7-3635.168h-3.634a.48.48 0 0 0-.48.48v3.155a.48.48 0 0 1-.48.48h-.412a.48.48 0 0 1-.48-.48v-3.155a.48.48 0 0 0-.48-.48h-3.154a.48.48 0 0 1-.48-.48v-.411a.48.48 0 0 1 .48-.48h3.154a.48.48 0 0 0 .48-.48v-3.155a.48.48 0 0 1 .48-.48h.412a.48.48 0 0 1 .48.48v3.155c0 .265.215.48.48.48h3.154a.48.48 0 0 1 .48.48v.891Z"/></g></svg>