<svg xmlns="http://www.w3.org/2000/svg" viewBox="-457.5 -2201.5 103 99" width="103" height="99"><g fill="none"><path d="M-356-2104v-66.39l-29.724-29.384H-456V-2104Z" fill="#fff"/><path d="M-356-2104v-66.39l-29.724-29.384H-456V-2104Z" stroke="#000" stroke-linecap="round" stroke-linejoin="round" stroke-width="3"/><path d="m-386-2200 29.732 29.731H-386Z" fill="#fff"/><path d="m-386-2200 29.732 29.731H-386Z" stroke="#000" stroke-linecap="round" stroke-linejoin="round" stroke-width="3"/><path d="M-390-2147.143h-15.143a2 2 0 0 0-2 2V-2132a2 2 0 0 1-2 2h-1.714a2 2 0 0 1-2-2v-13.143a2 2 0 0 0-2-2H-428a2 2 0 0 1-2-2v-1.714a2 2 0 0 1 2-2h13.143a2 2 0 0 0 2-2V-2168a2 2 0 0 1 2-2h1.714a2 2 0 0 1 2 2v13.143a2 2 0 0 0 2 2H-392a2 2 0 0 1 2 2v3.714Z" fill="#5c76a2"/><path d="M-390-2147.143h-15.143a2 2 0 0 0-2 2V-2132a2 2 0 0 1-2 2h-1.714a2 2 0 0 1-2-2v-13.143a2 2 0 0 0-2-2H-428a2 2 0 0 1-2-2v-1.714a2 2 0 0 1 2-2h13.143a2 2 0 0 0 2-2V-2168a2 2 0 0 1 2-2h1.714a2 2 0 0 1 2 2v13.143a2 2 0 0 0 2 2H-392a2 2 0 0 1 2 2v3.714Z" stroke="#518737" stroke-linecap="round" stroke-linejoin="round" stroke-width="8"/></g></svg>