<svg xmlns="http://www.w3.org/2000/svg" width="25" height="25" viewBox="-222.09 -3653.122 25 25"><g fill="none"><path fill="#fff" d="M-218.361-3652.622h7.852l2.884 2.953h10.035v14.619l-20.771-.021Z"/><path stroke="#000" stroke-linecap="round" stroke-linejoin="round" stroke-width=".25" d="M-218.361-3652.622h7.852l2.884 2.953h10.035v14.619l-20.771-.021Z"/><path fill="#fff" d="M-221.59-3646.193h7.851l2.885 2.952h10.035v14.62l-20.771-.022Z"/><path stroke="#000" stroke-linecap="round" stroke-linejoin="round" stroke-width=".25" d="M-221.59-3646.193h7.851l2.885 2.952h10.035v14.62l-20.771-.022Z"/><path fill="#528737" d="M-206.145-3634.817h-3.634a.48.48 0 0 0-.48.48v3.154a.48.48 0 0 1-.48.48h-.411a.48.48 0 0 1-.48-.48v-3.154a.48.48 0 0 0-.48-.48h-3.155a.48.48 0 0 1-.48-.48v-.412a.48.48 0 0 1 .48-.48h3.155a.48.48 0 0 0 .48-.48v-3.154a.48.48 0 0 1 .48-.48h.411a.48.48 0 0 1 .48.48v3.154c0 .265.215.48.48.48h3.154a.48.48 0 0 1 .48.48v.892Z"/><path stroke="#518737" stroke-linecap="round" stroke-linejoin="round" d="M-206.145-3634.817h-3.634a.48.48 0 0 0-.48.48v3.154a.48.48 0 0 1-.48.48h-.411a.48.48 0 0 1-.48-.48v-3.154a.48.48 0 0 0-.48-.48h-3.155a.48.48 0 0 1-.48-.48v-.412a.48.48 0 0 1 .48-.48h3.155a.48.48 0 0 0 .48-.48v-3.154a.48.48 0 0 1 .48-.48h.411a.48.48 0 0 1 .48.48v3.154c0 .265.215.48.48.48h3.154a.48.48 0 0 1 .48.48v.892Z"/></g></svg>