<svg xmlns="http://www.w3.org/2000/svg" width="25" height="24.75" viewBox="-302.09 -3652.997 25 24.75"><g fill="none"><path fill="#fff" d="M-301.59-3650.882h9.072l3.333 3.333h11.595v16.502l-24-.024Z"/><path stroke="#000" stroke-linecap="round" stroke-linejoin="round" stroke-width=".25" d="M-301.59-3650.882h9.072l3.333 3.333h11.595v16.502l-24-.024Z"/><path fill="#528737" d="M-284.79-3638.906h-3.635a.48.48 0 0 0-.48.48v3.154a.48.48 0 0 1-.48.48h-.411a.48.48 0 0 1-.48-.48v-3.154a.48.48 0 0 0-.48-.48h-3.154a.48.48 0 0 1-.48-.48v-.411a.48.48 0 0 1 .48-.48h3.154a.48.48 0 0 0 .48-.48v-3.155a.48.48 0 0 1 .48-.48h.411a.48.48 0 0 1 .48.48v3.155c0 .265.215.48.48.48h3.155a.48.48 0 0 1 .48.48v.891Z"/><path stroke="#518737" stroke-linecap="round" stroke-linejoin="round" d="M-284.79-3638.906h-3.635a.48.48 0 0 0-.48.48v3.154a.48.48 0 0 1-.48.48h-.411a.48.48 0 0 1-.48-.48v-3.154a.48.48 0 0 0-.48-.48h-3.154a.48.48 0 0 1-.48-.48v-.411a.48.48 0 0 1 .48-.48h3.154a.48.48 0 0 0 .48-.48v-3.155a.48.48 0 0 1 .48-.48h.411a.48.48 0 0 1 .48.48v3.155c0 .265.215.48.48.48h3.155a.48.48 0 0 1 .48.48v.891Z"/></g></svg>