<svg xmlns="http://www.w3.org/2000/svg" width="25" height="25" viewBox="-262.09 -3653.122 25 25"><g fill="none"><path fill="#fff" d="M-237.59-3628.622v-16.599l-7.134-7.347h-16.866v23.946Z"/><path stroke="#000" stroke-linecap="round" stroke-linejoin="round" stroke-width=".25" d="M-237.59-3628.622v-16.599l-7.134-7.347h-16.866v23.946Z"/><path fill="#fff" d="m-244.79-3652.622 7.135 7.12h-7.135Z"/><path stroke="#000" stroke-linecap="round" stroke-linejoin="round" stroke-width=".25" d="m-244.79-3652.622 7.135 7.12h-7.135Z"/><path fill="#528737" d="M-244.79-3639.725h-3.635a.48.48 0 0 0-.48.48v3.145a.48.48 0 0 1-.48.48h-.411a.48.48 0 0 1-.48-.48v-3.145a.48.48 0 0 0-.48-.48h-3.154a.48.48 0 0 1-.48-.48v-.409a.48.48 0 0 1 .48-.48h3.154a.48.48 0 0 0 .48-.48v-3.144a.48.48 0 0 1 .48-.48h.411a.48.48 0 0 1 .48.48v3.144c0 .266.215.48.48.48h3.155a.48.48 0 0 1 .48.48v.889Z"/><path stroke="#518737" stroke-linecap="round" stroke-linejoin="round" d="M-244.79-3639.725h-3.635a.48.48 0 0 0-.48.48v3.145a.48.48 0 0 1-.48.48h-.411a.48.48 0 0 1-.48-.48v-3.145a.48.48 0 0 0-.48-.48h-3.154a.48.48 0 0 1-.48-.48v-.409a.48.48 0 0 1 .48-.48h3.154a.48.48 0 0 0 .48-.48v-3.144a.48.48 0 0 1 .48-.48h.411a.48.48 0 0 1 .48.48v3.144c0 .266.215.48.48.48h3.155a.48.48 0 0 1 .48.48v.889Z"/></g></svg>