<svg xmlns="http://www.w3.org/2000/svg" viewBox="-272.625 -3610.625 25.25 25.25" width="25.25" height="25.25"><g fill="none"><path d="M-248-3586v-16.599l-7.134-7.347H-272V-3586Z" fill="#fff"/><path d="M-248-3586v-16.599l-7.134-7.347H-272V-3586Z" stroke="#000" stroke-linecap="round" stroke-linejoin="round" stroke-width=".25"/><path d="m-255.2-3610 7.136 7.12h-7.136Z" fill="#fff"/><path d="m-255.2-3610 7.136 7.12h-7.136Z" stroke="#000" stroke-linecap="round" stroke-linejoin="round" stroke-width=".25"/><path d="M-255.2-3597.103h-3.634a.48.48 0 0 0-.48.48v3.145a.48.48 0 0 1-.48.48h-.412a.48.48 0 0 1-.48-.48v-3.145a.48.48 0 0 0-.48-.48h-3.154a.48.48 0 0 1-.48-.48v-.409a.48.48 0 0 1 .48-.48h3.154a.48.48 0 0 0 .48-.48v-3.145a.48.48 0 0 1 .48-.48h.412a.48.48 0 0 1 .48.48v3.145c0 .265.215.48.48.48h3.154a.48.48 0 0 1 .48.48v.889Z" fill="#528737"/><path d="M-255.2-3597.103h-3.634a.48.48 0 0 0-.48.48v3.145a.48.48 0 0 1-.48.48h-.412a.48.48 0 0 1-.48-.48v-3.145a.48.48 0 0 0-.48-.48h-3.154a.48.48 0 0 1-.48-.48v-.409a.48.48 0 0 1 .48-.48h3.154a.48.48 0 0 0 .48-.48v-3.145a.48.48 0 0 1 .48-.48h.412a.48.48 0 0 1 .48.48v3.145c0 .265.215.48.48.48h3.154a.48.48 0 0 1 .48.48v.889Z" stroke="#518737" stroke-linecap="round" stroke-linejoin="round"/></g></svg>