<svg xmlns="http://www.w3.org/2000/svg" viewBox="-312.625 -3610.5 25.25 25" width="25.25" height="25"><g fill="none"><path d="M-312-3608.26h9.072l3.333 3.333H-288v16.501l-24-.023Z" fill="#fff"/><path d="M-312-3608.26h9.072l3.333 3.333H-288v16.501l-24-.023Z" stroke="#000" stroke-linecap="round" stroke-linejoin="round" stroke-width=".25"/><path d="M-295.2-3596.284h-3.634a.48.48 0 0 0-.48.48v3.154a.48.48 0 0 1-.48.48h-.412a.48.48 0 0 1-.48-.48v-3.154a.48.48 0 0 0-.48-.48h-3.154a.48.48 0 0 1-.48-.48v-.412a.48.48 0 0 1 .48-.48h3.154a.48.48 0 0 0 .48-.48v-3.154a.48.48 0 0 1 .48-.48h.412a.48.48 0 0 1 .48.48v3.154c0 .265.215.48.48.48h3.154a.48.48 0 0 1 .48.48v.892Z" fill="#528737"/><path d="M-295.2-3596.284h-3.634a.48.48 0 0 0-.48.48v3.154a.48.48 0 0 1-.48.48h-.412a.48.48 0 0 1-.48-.48v-3.154a.48.48 0 0 0-.48-.48h-3.154a.48.48 0 0 1-.48-.48v-.412a.48.48 0 0 1 .48-.48h3.154a.48.48 0 0 0 .48-.48v-3.154a.48.48 0 0 1 .48-.48h.412a.48.48 0 0 1 .48.48v3.154c0 .265.215.48.48.48h3.154a.48.48 0 0 1 .48.48v.892Z" stroke="#518737" stroke-linecap="round" stroke-linejoin="round"/></g></svg>