<svg xmlns="http://www.w3.org/2000/svg" viewBox="320.506 -3313 12.494 10" width="12.494" height="10"><g fill="none"><path d="m323.597-3306.932-.821-.822a.599.599 0 0 0-.846-.001.595.595 0 0 0-.003.84l.001.002 1.499 1.499a2 2 0 0 0 2.828 0l5.324-5.324a.595.595 0 0 0-.841-.841l-4.652 4.647a1.76 1.76 0 0 1-2.489 0Z" fill="#518737"/><path d="m323.597-3306.932-.821-.822a.599.599 0 0 0-.846-.001h0a.595.595 0 0 0-.003.84l.001.002 1.499 1.499a2 2 0 0 0 2.828 0l5.324-5.324a.595.595 0 0 0 0-.841s0 0 0 0h0a.595.595 0 0 0-.84 0l-4.653 4.647a1.76 1.76 0 0 1-2.489 0Z" stroke="#518737" stroke-linecap="round" stroke-linejoin="round" stroke-width="2"/></g></svg>