<svg xmlns="http://www.w3.org/2000/svg" width="25" height="25" viewBox="-152.5 -3650.5 25 25"><g fill="none"><path fill="#fff" d="M-148.958-3650h7.922l2.91 2.965H-128v14.679l-20.958-.021Z"/><path stroke="#000" stroke-linecap="round" stroke-linejoin="round" stroke-width=".25" d="M-148.958-3650h7.922l2.91 2.965H-128v14.679l-20.958-.021Z"/><path fill="#9f4c4c" d="M-143.496-3638.1v-4.4l-8.504 7.7 8.504 7.7v-4.51c6.074 0 10.326 1.76 13.363 5.61-1.215-5.5-4.86-11-13.363-12.1Z"/><path stroke="#000" stroke-linecap="round" stroke-linejoin="round" stroke-width=".25" d="M-143.496-3638.1v-4.4l-8.504 7.7 8.504 7.7v-4.51c6.074 0 10.326 1.76 13.363 5.61-1.215-5.5-4.86-11-13.363-12.1Z"/></g></svg>