<svg xmlns="http://www.w3.org/2000/svg" width="25" height="25" viewBox="-112.5 -3650.5 25 25"><g fill="none"><path fill="#fff" d="M-108.86-3650h7.885l2.897 2.952H-88v14.618l-20.86-.02Z"/><path stroke="#000" stroke-linecap="round" stroke-linejoin="round" stroke-width=".25" d="M-108.86-3650h7.885l2.897 2.952H-88v14.618l-20.86-.02Z"/><path fill="#518737" d="M-98.746-3630.405v4.405l8.434-7.71-8.434-7.709v4.516c-6.025 0-10.242-1.762-13.254-5.617 1.205 5.507 4.82 11.013 13.254 12.115Z"/><path stroke="#000" stroke-linecap="round" stroke-linejoin="round" stroke-width=".25" d="M-98.746-3630.405v4.405l8.434-7.71-8.434-7.709v4.516c-6.025 0-10.242-1.762-13.254-5.617 1.205 5.507 4.82 11.013 13.254 12.115Z"/></g></svg>