<svg xmlns="http://www.w3.org/2000/svg" width="40" height="40" viewBox="475 971 40 40"><g fill="none"><path fill="#fff" d="M482.08 972h25.84a6.08 6.08 0 0 1 6.08 6.08v25.84a6.08 6.08 0 0 1-6.08 6.08h-25.84a6.08 6.08 0 0 1-6.08-6.08v-25.84a6.08 6.08 0 0 1 6.08-6.08Z"/><path stroke="#000" stroke-linecap="round" stroke-linejoin="round" stroke-width="2" d="M482.08 972h25.84a6.08 6.08 0 0 1 6.08 6.08v25.84a6.08 6.08 0 0 1-6.08 6.08h-25.84a6.08 6.08 0 0 1-6.08-6.08v-25.84a6.08 6.08 0 0 1 6.08-6.08Z"/><path fill="#000" d="m495.348 987.568 8.857 8.26-3.446 3.695-8.857-8.26Z"/><path fill="#000" d="M492.396 978h4.898v14.819h-4.898z"/></g></svg>