<svg xmlns="http://www.w3.org/2000/svg" width="40" height="40" viewBox="421 847 40 40"><g fill="none"><path fill="#fff" d="M428.08 848h25.84a6.08 6.08 0 0 1 6.08 6.08v25.84a6.08 6.08 0 0 1-6.08 6.08h-25.84a6.08 6.08 0 0 1-6.08-6.08v-25.84a6.08 6.08 0 0 1 6.08-6.08Z"/><path stroke="#000" stroke-linecap="round" stroke-linejoin="round" stroke-width="2" d="M428.08 848h25.84a6.08 6.08 0 0 1 6.08 6.08v25.84a6.08 6.08 0 0 1-6.08 6.08h-25.84a6.08 6.08 0 0 1-6.08-6.08v-25.84a6.08 6.08 0 0 1 6.08-6.08Z"/><path fill="#000" d="M428.035 864.307h25.931v5.052h-25.931z"/></g></svg>