<?xml version="1.0" encoding="UTF-8" standalone="no"?>
<!-- Created with Inkscape (http://www.inkscape.org/) -->

<svg
   version="1.1"
   id="svg686"
   width="1220.5305"
   height="583.56262"
   viewBox="0 0 1220.5306 583.56262"
   sodipodi:docname="city.svg"
   inkscape:version="1.2.2 (b0a8486, 2022-12-01)"
   xmlns:inkscape="http://www.inkscape.org/namespaces/inkscape"
   xmlns:sodipodi="http://sodipodi.sourceforge.net/DTD/sodipodi-0.dtd"
   xmlns="http://www.w3.org/2000/svg"
   xmlns:svg="http://www.w3.org/2000/svg">
  <sodipodi:namedview
     id="namedview194"
     pagecolor="#ffffff"
     bordercolor="#000000"
     borderopacity="0.25"
     inkscape:showpageshadow="2"
     inkscape:pageopacity="0.0"
     inkscape:pagecheckerboard="0"
     inkscape:deskcolor="#d1d1d1"
     showgrid="false"
     inkscape:zoom="0.3386056"
     inkscape:cx="908.1362"
     inkscape:cy="474.0028"
     inkscape:window-width="1760"
     inkscape:window-height="909"
     inkscape:window-x="0"
     inkscape:window-y="44"
     inkscape:window-maximized="0"
     inkscape:current-layer="g694" />
  <defs
     id="defs690">
    <clipPath
       clipPathUnits="userSpaceOnUse"
       id="clipPath710">
      <path
         d="M 2399.74,3066.24 H 1750.4 V 4405.7 h -18.45 v 38.29 h 40.28 v 49 h 46.36 v 18.42 56.04 48.62 h 55.95 v 86.87 h 6.72 v 0 0 h 6.73 v -86.87 h 30.16 l 18.23,-48.62 h 122.06 v -74.46 h 319.48 v -49 h 40.27 v -38.29 h -18.45 V 3066.24"
         id="path708" />
    </clipPath>
    <linearGradient
       x1="0"
       y1="0"
       x2="1"
       y2="0"
       gradientUnits="userSpaceOnUse"
       gradientTransform="matrix(0,1636.7,1636.7,0,2075.07,3066.24)"
       spreadMethod="pad"
       id="linearGradient718">
      <stop
         style="stop-opacity:1;stop-color:#c5c5c5"
         offset="0"
         id="stop712" />
      <stop
         style="stop-opacity:1;stop-color:#d0d0d0"
         offset="0.28285263"
         id="stop714" />
      <stop
         style="stop-opacity:1;stop-color:#d0d0d0"
         offset="1"
         id="stop716" />
    </linearGradient>
    <clipPath
       clipPathUnits="userSpaceOnUse"
       id="clipPath728">
      <path
         d="m 1881.26,4702.94 v 0 c -6.67,0 -12.08,5.41 -12.08,12.08 0,6.68 5.41,12.09 12.08,12.09 6.68,0 12.09,-5.41 12.09,-12.09 0,-6.67 -5.41,-12.08 -12.09,-12.08 v 0"
         id="path726" />
    </clipPath>
    <linearGradient
       x1="0"
       y1="0"
       x2="1"
       y2="0"
       gradientUnits="userSpaceOnUse"
       gradientTransform="matrix(0,24.17,24.17,0,1881.27,4702.94)"
       spreadMethod="pad"
       id="linearGradient736">
      <stop
         style="stop-opacity:1;stop-color:#c5c5c5"
         offset="0"
         id="stop730" />
      <stop
         style="stop-opacity:1;stop-color:#d0d0d0"
         offset="0.28285263"
         id="stop732" />
      <stop
         style="stop-opacity:1;stop-color:#d0d0d0"
         offset="1"
         id="stop734" />
    </linearGradient>
    <clipPath
       clipPathUnits="userSpaceOnUse"
       id="clipPath746">
      <path
         d="M 9335.48,2785.84 H 842.906 v 201.98 H 2923.54 v 1481.04 h -10.78 v 17.12 h 76.78 v 102.91 h -9.92 v 16.48 h 70.47 v 59.16 h -11 v 12.65 h 35.02 v 55.89 h 33.48 v 111.22 h 4.02 3.99 3.14 v -111.22 h 13.54 v 199.51 h 4.02 3.99 3.14 v -199.51 h 4.5 28.97 v -55.89 h 30.34 v -12.65 h -6.32 v -59.16 h 70.48 v -16.48 h -9.93 v -102.91 h 76.78 v -17.12 h -10.77 V 2987.82 h 623.85 v 1112.59 h 61.42 v 665.79 h 71.65 v 439.89 h 138.72 v 240.63 h 19.52 v -240.63 h 42.98 v 192.23 h 19.52 v -192.23 h 219.42 v -261.56 h 39.82 V 4766.2 h 111.47 v -665.79 h 43.19 V 2987.82 h 2345.97 l -87.6,1966.73 799.49,-165.95 V 2987.82 h 1558.58 v -201.98"
         id="path744" />
    </clipPath>
    <linearGradient
       x1="0"
       y1="0"
       x2="1"
       y2="0"
       gradientUnits="userSpaceOnUse"
       gradientTransform="matrix(0,2660.89,2660.89,0,5089.19,2785.83)"
       spreadMethod="pad"
       id="linearGradient754">
      <stop
         style="stop-opacity:1;stop-color:#c5c5c5"
         offset="0"
         id="stop748" />
      <stop
         style="stop-opacity:1;stop-color:#d0d0d0"
         offset="0.28285263"
         id="stop750" />
      <stop
         style="stop-opacity:1;stop-color:#d0d0d0"
         offset="1"
         id="stop752" />
    </linearGradient>
    <clipPath
       clipPathUnits="userSpaceOnUse"
       id="clipPath764">
      <path
         d="m 6650.46,3463.64 c 16.91,-9.33 34.31,-17.71 52.1,-25.11 l -18.2,-44.34 c -4.14,1.31 -8.54,2.02 -13.1,2.02 -23.89,0 -43.24,-19.35 -43.24,-43.23 0,-23.89 19.35,-43.24 43.24,-43.24 23.88,0 43.23,19.35 43.23,43.24 0,17.62 -10.53,32.75 -25.65,39.5 l 18.16,44.23 c 56.86,-23.04 117.76,-36.14 180.57,-38.42 l -1.48,-45.34 c -23.4,-0.53 -42.23,-19.67 -42.23,-43.21 0,-23.89 19.35,-43.25 43.24,-43.25 23.88,0 43.23,19.36 43.23,43.25 0,22.59 -17.33,41.13 -39.43,43.06 l 1.47,45.34 c 4.96,-0.13 9.93,-0.2 14.91,-0.2 60.48,0 119.42,10.01 174.93,29.25 l 15.53,-44.08 c -14.71,-6.91 -24.91,-21.84 -24.91,-39.17 0,-23.88 19.37,-43.24 43.24,-43.24 23.88,0 43.25,19.36 43.25,43.24 0,23.88 -19.37,43.24 -43.25,43.24 -4.85,0 -9.51,-0.81 -13.86,-2.29 l -15.47,43.88 c 26.67,9.51 52.53,21.17 77.36,34.87 l 203.46,-375 h -920.55 z m -109.73,100.53 c -3.41,3.41 -6.76,6.87 -10.06,10.36 l 109.04,102.17 c 23.69,-24.94 50.82,-46.56 80.61,-64.14 l -71.35,-131.52 c -39.09,22.54 -75.47,50.37 -108.24,83.13 z m -13.35,13.86 c -46.8,50.31 -82.53,108.39 -105.96,171.24 l 140.32,51.66 c 16.98,-45.08 42.55,-85.98 74.7,-120.72 z m -138.47,352.68 c 0,4.83 0.07,9.64 0.2,14.45 l 149.17,-4.86 c -0.08,-3.18 -0.13,-6.38 -0.13,-9.59 0,-43.96 7.75,-86.14 21.91,-125.28 l -140.29,-51.65 c -20.29,55.97 -30.86,115.64 -30.86,176.93 z m 46.48,215.2 135.77,-62.68 c -19.3,-42.39 -30.81,-89.05 -32.69,-138.12 l -149.21,4.85 c 2.49,68.64 18.28,134.95 46.13,195.95 z m 105.34,151.35 c 3.42,3.41 6.88,6.76 10.36,10.06 l 102.18,-109.03 c -33.1,-31.44 -60.38,-68.95 -80.07,-110.71 l -135.79,62.69 c 25.24,53.93 59.96,103.63 103.32,146.99 z m 191.88,121.8 49.7,-141.02 c -46.98,-16.96 -89.57,-43.19 -125.53,-76.48 l -102.19,109.06 c 52.12,48.47 112.57,85.08 178.02,108.44 z m 174.67,30.02 c 4.82,0 9.63,-0.07 14.44,-0.2 l -4.85,-149.17 c -3.19,0.08 -6.38,0.12 -9.59,0.12 -42.15,0 -82.67,-7.12 -120.43,-20.19 l -49.7,141.01 c 53.99,18.7 111.31,28.43 170.13,28.43 z m 19.24,-0.34 c 61.07,-2.22 120.29,-14.96 175.56,-37.35 l -56.81,-138.33 c -38.43,15.54 -80.06,24.79 -123.6,26.47 z m 347.3,-151.48 c 3.42,-3.41 6.77,-6.87 10.07,-10.36 l -109.04,-102.17 c -35.03,36.87 -77.56,66.53 -125.13,86.51 l 56.8,138.33 c 61.79,-25.72 118.55,-63.56 167.3,-112.31 z m 13.37,-13.86 c 46.78,-50.31 82.52,-108.39 105.95,-171.24 l -140.32,-51.66 c -16.98,45.08 -42.55,85.98 -74.69,120.72 z m 138.45,-352.69 c 0,-4.82 -0.06,-9.63 -0.19,-14.44 l -149.17,4.85 c 0.08,3.19 0.12,6.39 0.12,9.59 0,43.97 -7.74,86.15 -21.91,125.29 l 140.31,51.65 c 20.27,-55.97 30.84,-115.64 30.84,-176.94 z m -46.47,-215.19 -135.77,62.68 c 19.31,42.39 30.8,89.04 32.69,138.12 l 149.21,-4.85 c -2.49,-68.65 -18.28,-134.96 -46.13,-195.95 z m -105.35,-151.35 c -3.41,-3.41 -6.87,-6.76 -10.35,-10.06 l -102.18,109.03 c 33.1,31.44 60.38,68.95 80.07,110.71 l 135.79,-62.69 c -25.25,-53.93 -59.96,-103.63 -103.33,-146.99 z m -241.57,19.22 c 18.62,6.72 36.54,14.9 53.65,24.4 l 71.33,-131.48 c -24.17,-13.33 -49.33,-24.68 -75.29,-33.94 z m -134.56,-21.67 c 3.19,-0.08 6.38,-0.13 9.59,-0.13 42.15,0 82.67,7.13 120.43,20.2 l 49.7,-141.01 c -53.99,-18.7 -111.31,-28.44 -170.13,-28.44 -4.83,0 -9.63,0.08 -14.44,0.21 z m -128.4,26.65 c 38.43,-15.54 80.07,-24.79 123.6,-26.47 l -4.85,-149.2 c -61.07,2.2 -120.29,14.96 -175.56,37.35 z m -40.63,19.42 c 11.69,-6.5 23.76,-12.38 36.18,-17.59 l -56.8,-138.33 c -17.32,7.2 -34.24,15.36 -50.71,24.44 z m 145.8,288.88 -150.7,-277.77 c -29.11,17.2 -55.63,38.35 -78.79,62.73 z m 6.46,21.78 c 0.78,-1.67 1.72,-3.25 2.79,-4.74 l -1.98,-3.65 -240.04,-224.92 c -31.49,34.04 -56.54,74.11 -73.19,118.28 z m -2.68,10.8 c 0.11,-2.17 0.46,-4.27 1.03,-6.29 l -312.44,-115.04 c -13.88,38.36 -21.47,79.71 -21.47,122.79 0,3.13 0.04,6.25 0.12,9.36 z m 1.72,11.43 c -0.77,-2.11 -1.29,-4.32 -1.55,-6.62 l -332.75,10.81 c 1.87,48.09 13.13,93.81 32.05,135.34 z m 5.76,9.53 c -1.43,-1.58 -2.68,-3.31 -3.74,-5.18 l -302.23,139.53 c 19.28,40.91 46.01,77.66 78.44,108.47 z m 9.67,7.03 c -2.22,-0.99 -4.29,-2.26 -6.16,-3.75 L 6661.7,4196.3 c 35.25,32.62 76.97,58.32 123.01,74.95 z m 10.43,2.51 c -2.03,-0.1 -4,-0.41 -5.91,-0.91 l -110.67,314.01 c 37.01,12.8 76.73,19.78 118.04,19.78 3.13,0 6.25,-0.04 9.36,-0.12 z m 10.24,-1.32 c -1.74,0.55 -3.57,0.94 -5.43,1.16 l 10.81,332.73 c 42.65,-1.64 83.43,-10.7 121.09,-25.93 z m 10.72,-6.15 c -1.89,1.7 -4,3.15 -6.27,4.32 l 126.47,307.97 c 46.61,-19.58 88.29,-48.64 122.62,-84.77 z m 6.86,-9.3 c -0.97,2.07 -2.18,4.01 -3.58,5.79 l 242.81,227.52 c 31.5,-34.04 56.54,-74.11 73.19,-118.28 z m 2.67,-10.81 c -0.11,2.18 -0.46,4.28 -1.02,6.3 l 312.44,115.04 c 13.88,-38.36 21.46,-79.71 21.46,-122.8 0,-3.12 -0.04,-6.24 -0.12,-9.35 z m -1.71,-11.42 c 0.76,2.1 1.29,4.32 1.55,6.62 l 332.75,-10.81 c -1.87,-48.09 -13.13,-93.81 -32.04,-135.34 z m 2.24,-18.06 -5.99,11.02 c 0.62,0.86 1.2,1.76 1.72,2.68 l 302.24,-139.52 c -19.29,-40.91 -46.01,-77.66 -78.44,-108.47 z m 9.05,-16.68 206.96,-220.88 c -18.92,-17.52 -39.72,-33.04 -62.05,-46.23 z m -26.71,18.18 c 1.59,0.72 3.11,1.57 4.53,2.54 l 158.75,-292.61 c -16.77,-9.32 -34.34,-17.34 -52.61,-23.94 z m -10.44,-2.51 c 2.03,0.1 4,0.41 5.91,0.91 l 110.67,-314.01 c -37.01,-12.8 -76.73,-19.78 -118.04,-19.78 -3.13,0 -6.24,0.04 -9.35,0.12 z m -141.16,-304.82 c -12.18,5.12 -24.02,10.89 -35.48,17.26 l 158.75,292.61 c 1.03,-0.7 2.09,-1.33 3.2,-1.9 z M 6898.5,3903 c 1.74,-0.55 3.56,-0.94 5.44,-1.16 l -10.81,-332.74 c -42.66,1.65 -83.44,10.71 -121.11,25.94 z m 267.1,-421.96 -71.36,131.52 c 22.87,13.49 44.16,29.38 63.54,47.31 l 102.19,-109.05 c -29.06,-27.04 -60.72,-50.37 -94.37,-69.78 z M 9182.78,2806 v 181.82 h -255.6 l -96.74,715.72 h -14.51 v 85.98 h -50.82 v -85.98 h -12.59 v 32.15 h -35.57 v -32.15 h -73.68 v 74.95 h -20.33 v 52.09 h -144.83 v -52.09 h -20.33 v -74.95 h -20.33 v -429.86 h -128.74 v 1090.69 h -42.34 v 239.19 h -13.56 v -239.19 h -32.18 v 331.81 h -13.55 v -331.81 h -27.95 v 179.6 h -13.55 v -179.6 h -249.86 v -774.19 h -277.8 v -501.54 h -259.43 l -206.02,379.72 c 34.73,20 67.38,44.06 97.35,71.94 l 42.25,-45.09 c -9.07,-7.92 -14.8,-19.57 -14.8,-32.56 0,-23.88 19.35,-43.24 43.23,-43.24 23.88,0 43.24,19.36 43.24,43.24 0,23.87 -19.36,43.24 -43.24,43.24 -9.15,0 -17.64,-2.85 -24.63,-7.71 l -42.55,45.41 c 3.6,3.41 7.17,6.87 10.69,10.39 44.58,44.58 80.29,95.68 106.23,151.14 l 47.05,-21.72 c -0.85,-3.39 -1.3,-6.94 -1.3,-10.59 0,-23.88 19.35,-43.24 43.23,-43.24 23.89,0 43.24,19.36 43.24,43.24 0,23.88 -19.35,43.24 -43.24,43.24 -18.53,0 -34.33,-11.66 -40.48,-28.03 l -46.47,21.46 c 28.65,62.73 44.88,130.92 47.44,201.53 l 50.64,-1.65 c 0.63,-23.34 19.73,-42.07 43.21,-42.07 23.88,0 43.25,19.36 43.25,43.24 0,23.88 -19.37,43.24 -43.25,43.24 -22.65,0 -41.23,-17.43 -43.07,-39.61 l -50.64,1.65 c 0.13,4.96 0.21,9.92 0.21,14.9 0,63.03 -10.87,124.38 -31.73,181.92 l 42.31,15.58 c 6.65,-15.33 21.91,-26.07 39.68,-26.07 23.88,0 43.24,19.36 43.24,43.24 0,23.88 -19.36,43.24 -43.24,43.24 -23.87,0 -43.24,-19.36 -43.24,-43.24 0,-4.4 0.66,-8.66 1.89,-12.67 l -42.29,-15.57 c -24.09,64.65 -60.85,124.37 -108.98,176.12 l 33.1,31.02 c 7.76,-7.41 18.27,-11.98 29.85,-11.98 23.88,0 43.25,19.36 43.25,43.24 0,23.88 -19.37,43.24 -43.25,43.24 -23.88,0 -43.24,-19.36 -43.24,-43.24 0,-10.57 3.8,-20.25 10.1,-27.76 l -33.11,-31.02 c -3.4,3.6 -6.87,7.17 -10.39,10.69 -50.11,50.12 -108.47,89.02 -172.01,115.46 l 18.21,44.33 c 4.14,-1.31 8.53,-2.03 13.09,-2.03 23.89,0 43.24,19.37 43.24,43.25 0,23.87 -19.35,43.23 -43.24,43.23 -23.88,0 -43.24,-19.36 -43.24,-43.23 0,-17.62 10.55,-32.77 25.66,-39.5 l -18.16,-44.24 c -56.86,23.04 -117.76,36.15 -180.57,38.42 l 1.97,60.6 1.37,-0.03 c 23.88,0 43.24,19.35 43.24,43.23 0,23.88 -19.36,43.24 -43.24,43.24 -23.87,0 -43.23,-19.36 -43.23,-43.24 0,-21.78 16.1,-39.8 37.07,-42.79 l -1.98,-60.86 c -4.96,0.13 -9.92,0.21 -14.91,0.21 -60.47,0 -119.42,-10.02 -174.93,-29.25 l -17.43,49.46 c 15.72,6.47 26.8,21.93 26.8,40 0,23.87 -19.36,43.23 -43.23,43.23 -23.89,0 -43.25,-19.36 -43.25,-43.23 0,-23.89 19.36,-43.25 43.25,-43.25 4.12,0 8.11,0.59 11.89,1.68 l 17.44,-49.48 C 6660.5,4408.64 6598.33,4371 6544.74,4321.13 l -31.6,33.72 c 7.07,7.7 11.39,17.96 11.39,29.24 0,23.88 -19.36,43.23 -43.24,43.23 -23.88,0 -43.23,-19.35 -43.23,-43.23 0,-23.88 19.35,-43.24 43.23,-43.24 10.88,0 20.81,4.02 28.41,10.65 l 31.54,-33.66 c -3.6,-3.41 -7.17,-6.87 -10.69,-10.39 -44.58,-44.58 -80.29,-95.68 -106.23,-151.14 l -40.16,18.54 c 1.46,4.32 2.26,8.95 2.26,13.77 0,23.88 -19.36,43.24 -43.24,43.24 -23.88,0 -43.24,-19.36 -43.24,-43.24 0,-23.88 19.36,-43.24 43.24,-43.24 17.36,0 32.32,10.24 39.2,25 l 39.91,-18.43 c -28.65,-62.73 -44.89,-130.92 -47.44,-201.53 l -51.54,1.68 c -0.63,23.32 -19.73,42.04 -43.2,42.04 -23.88,0 -43.24,-19.36 -43.24,-43.24 0,-23.88 19.36,-43.24 43.24,-43.24 22.66,0 41.25,17.44 43.07,39.63 l 51.53,-1.67 c -0.14,-4.96 -0.21,-9.93 -0.21,-14.91 0,-63.02 10.87,-124.37 31.73,-181.91 l -42.31,-15.58 c -6.64,15.33 -21.91,26.07 -39.68,26.07 -23.89,0 -43.24,-19.36 -43.24,-43.24 0,-23.88 19.35,-43.24 43.24,-43.24 23.88,0 43.24,19.36 43.24,43.24 0,4.4 -0.66,8.66 -1.89,12.66 l 42.29,15.57 c 24.09,-64.64 60.85,-124.36 108.99,-176.11 l -33.11,-31.02 c -7.76,7.42 -18.27,11.98 -29.85,11.98 -23.88,0 -43.25,-19.36 -43.25,-43.24 0,-23.88 19.37,-43.24 43.25,-43.24 23.87,0 43.24,19.36 43.24,43.24 0,10.57 -3.8,20.25 -10.1,27.76 l 33.11,31.02 c 3.4,-3.6 6.86,-7.17 10.39,-10.69 33.76,-33.76 71.25,-62.42 111.54,-85.62 l -206.02,-379.72 h -166.84 v 257.42 h -68.01 v 488.83 h 26.45 v 10.63 H 5643.2 v -10.63 h 26.45 v -246.52 h -57.3 l -54.66,-280.95 v 921.42 h -23.99 v 333.7 h -120.74 v 127.04 h -64.61 v 106.72 h -22.67 v 182.95 h -5.86 V 4796.3 h -22.66 v -106.72 h -64.6 v -127.04 h -119.84 v -333.7 h -24.9 V 3623 h -185.79 v -534.36 h -616.39 v 1033.22 h 49.55 v 16.26 h -49.55 v 29.11 h -62.79 v 47.81 h -513.54 v -47.81 h -62.79 v -29.11 h -49.55 v -16.26 h 49.55 v -643.19 h -84 v 120.69 h -518.19 v -147.38 h -112.98 v -274.41 h -182.94 v 896.93 h -60.98 v 60.99 h -48.28 v 161.34 h -10.17 v -161.34 h -22.86 v 202 h -10.16 v -202 h -28.11 v -60.99 h -15.09 v -896.93 h -378.59 v 525.97 h 17.78 v 35.57 h -116.88 v 96.55 h -55.9 v -96.55 h -50.82 v 96.55 h -50.81 v -96.55 h -98.86 v 96.55 h -302.6 v -96.55 h -70.66 v -35.57 h 40.17 v -198.19 h -111.8 v -447.21 h -153.46 v 119.43 H 1049.48 V 2917.13 H 842.906 V 2806 H 538.203 V 2487.51 H 9455.02 V 2806 Z"
         id="path762" />
    </clipPath>
    <linearGradient
       x1="0"
       y1="0"
       x2="1"
       y2="0"
       gradientUnits="userSpaceOnUse"
       gradientTransform="matrix(0,2491.74,2491.74,0,4996.61,2487.5)"
       spreadMethod="pad"
       id="linearGradient774">
      <stop
         style="stop-opacity:1;stop-color:#403e40"
         offset="0"
         id="stop766" />
      <stop
         style="stop-opacity:1;stop-color:#403e40"
         offset="0.0814704"
         id="stop768" />
      <stop
         style="stop-opacity:1;stop-color:#403e40"
         offset="0.5256509"
         id="stop770" />
      <stop
         style="stop-opacity:1;stop-color:#555455"
         offset="1"
         id="stop772" />
    </linearGradient>
    <clipPath
       clipPathUnits="userSpaceOnUse"
       id="clipPath784">
      <path
         d="m 8168.44,4136.29 c 0,6.67 -4.54,12.08 -10.14,12.08 -5.6,0 -10.15,-5.41 -10.15,-12.08 0,-6.68 4.55,-12.09 10.15,-12.09 5.6,0 10.14,5.41 10.14,12.09 z"
         id="path782" />
    </clipPath>
    <linearGradient
       x1="0"
       y1="0"
       x2="1"
       y2="0"
       gradientUnits="userSpaceOnUse"
       gradientTransform="matrix(0,-24.17,-24.17,0,8158.3,4148.37)"
       spreadMethod="pad"
       id="linearGradient792">
      <stop
         style="stop-opacity:1;stop-color:#403e40"
         offset="0"
         id="stop786" />
      <stop
         style="stop-opacity:1;stop-color:#403e40"
         offset="0.05639903"
         id="stop788" />
      <stop
         style="stop-opacity:1;stop-color:#161f21"
         offset="1"
         id="stop790" />
    </linearGradient>
    <clipPath
       clipPathUnits="userSpaceOnUse"
       id="clipPath802">
      <path
         d="m 9274.04,2667.59 -62.94,421.05 h -128.75 v 349.39 h 15.92 v 31.61 h -62.5 v 136.09 h -7.62 v -136.09 h -43.19 v 111.49 h -7.63 v -111.49 h -260.38 v -31.61 h 17.79 v -708.92 h -297.29 v 317.55 h -169.31 v 780.31 h 15.49 v 38.28 h -33.81 v 49.01 h -38.91 v 18.42 56.03 48.62 h -46.96 v 86.87 h -5.65 -5.64 v -86.87 h -25.32 l -15.31,-48.62 h -102.45 v -74.45 h -268.17 v -49.01 h -33.8 v -38.28 h 15.49 v -507.7 h -224.39 v -498.83 l -248.97,110.3 v 484.19 h 40.16 v 35.58 h -70.66 v 96.55 h -302.6 v -96.55 h -98.86 v 96.55 h -50.82 v -96.55 h -50.82 v 96.55 h -55.9 v -96.55 h -116.87 v -35.58 h 17.78 v -671.1 h -113.49 v 7.04 h -20.55 v 191.24 h 20.55 v 15.34 h -20.55 v 191.24 h 20.55 v 15.34 h -20.55 v 191.24 h 20.55 v 15.35 h -20.55 v 191.24 h 20.55 v 15.34 h -20.55 v 191.24 h 20.55 v 15.34 h -20.55 v 197.92 h 35.19 v 15.39 h 17.91 v 41.96 h -334.26 v 46.66 h 10.88 v 13.48 h -181.99 v -13.48 h 10.87 v -46.66 h -82.84 v -41.96 h 17.91 v -15.39 h 35.2 v -197.92 h -20.55 v -15.34 h 20.55 V 3577.2 h -20.55 v -15.34 h 20.55 v -191.24 h -20.55 v -15.35 h 20.55 v -191.24 h -20.55 v -15.34 h 20.55 v -191.24 h -20.55 v -15.34 h 20.55 v -191.24 h -20.55 v -15.34 h 20.55 v -156.27 h -114.09 v 603.88 h -459.07 v -439.31 h -74.53 v 1368.54 h -55.14 v -35.23 l -101.75,-24.89 v 22.88 h -55.14 v -36.37 l -101.76,-24.88 v 26.23 h -55.14 v -39.72 L 4837.6,3975.5 v 21.64 h -55.14 v -35.13 l -101.75,-24.89 v 18.65 h -55.14 V 2611.84 h -77.58 v 716.48 h -287.34 v -440.59 h -294.57 v 375.72 h -36.29 v 123.39 h 21.54 v 12.39 h -95.32 v 38.8 h -10.17 v -38.8 h -30.49 v 199.15 h -7.62 v -199.15 h -39.71 v -12.39 h 23.36 v -123.39 h -194.41 v -286.6 h -189.26 l -98.85,-365.01 h -198.33 v 1191.74 h -262.59 v 42.69 h 14.92 v 14.98 h -198.89 v -14.98 h 15.64 v -42.69 -68.66 -816.19 h -123.82 v 308.38 h 44.01 v 27.92 h -311.55 v 186.3 h -59.43 v 38.28 h -132.66 v -38.28 h -107.95 v -665.22 h -354.13 v 493.37 H 1335.89 V 2879.79 H 1077.12 V 2630.47 H 890.535 v 313.44 H 645.168 V 2676.67 H 423.012 v -189.16 h 222.156 75.082 122.656 47.629 186.585 258.77 86.96 46.56 164.67 354.13 107.95 132.66 59.43 232.42 35.12 123.82 207.64 102.29 120.99 486.44 112.34 189.64 67.13 299.6 80.5 279.39 27.56 27.58 101.75 55.14 101.76 46.09 9.05 101.76 55.14 87.47 14.28 27.57 27.57 74.53 379.45 54.2 25.42 114.09 200.85 183.86 86.42 134.04 332.9 352.01 3.68 248.97 139.21 85.18 53.79 416.64 74.61 89.21 80.1 297.29 221.05 45.26 81.3 494.63 v 180.08 z"
         id="path800" />
    </clipPath>
    <linearGradient
       x1="0"
       y1="0"
       x2="1"
       y2="0"
       gradientUnits="userSpaceOnUse"
       gradientTransform="matrix(0,-1636.7,-1636.7,0,5000,4124.2)"
       spreadMethod="pad"
       id="linearGradient810">
      <stop
         style="stop-opacity:1;stop-color:#403e40"
         offset="0"
         id="stop804" />
      <stop
         style="stop-opacity:1;stop-color:#403e40"
         offset="0.05639903"
         id="stop806" />
      <stop
         style="stop-opacity:1;stop-color:#161f21"
         offset="1"
         id="stop808" />
    </linearGradient>
  </defs>
  <g
     id="g694"
     transform="matrix(1.3333333,0,0,-1.3333333,-46.51071,768.26561)">
    <path
       d="m 181.48207,173.67653 c -0.667,0 -1.208,0.268 -1.208,0.6 0,0.331 0.541,0.598 1.208,0.598 v 0 c 0.667,0 1.209,-0.267 1.209,-0.598 0,-0.332 -0.542,-0.6 -1.209,-0.6"
       style="fill:#ebecee;fill-opacity:1;fill-rule:nonzero;stroke:none;stroke-width:0.1"
       id="path700" />
    <path
       d="m 417.61907,138.00953 h -1.952 v 11.927 h -13.871 v 21.803 h -7.165 v 27.318 h -30.344 v 2.369 h -6.28 v 1.443 h -4.954 v 0.806 h 4.954 v 31.88 h -8.399 v -5.983 h -23.505 v -43.095 h 1.078 v -0.849 h -7.678 v -5.1 h 0.992 v -0.818 h -7.047 v -2.932 h 0.632 v -0.626 h -3.034 v -2.771 h -2.897 -0.451 v -9.888 h -0.314 -0.399 -0.401 v 9.888 h -1.355 v -5.513 h -0.314 -0.398 -0.403 v 5.513 h -3.347 v 2.771 h -3.502 v 0.626 h 1.099 v 2.932 h -7.047 v 0.818 h 0.992 v 5.1 h -7.677 v 0.849 h 1.078 v 32.973 h -7.561 v -2.116 h 1.493 v -0.742 h -11.446 v -10.569 h -6.098 v -3.024 h -4.828 v -7.996 h -1.016 v 7.996 h -2.287 v -10.011 h -1.016 v 10.011 h -2.811 v 3.024 h -1.509 v 40.616 h -15.301 v -57.032 h 1.845 v -1.898 h -4.028 v -2.428 h -31.948 v -3.691 h -12.206 l -1.823,-2.41 h -3.015 v -4.306 h -0.673 -0.673 v 4.306 h -5.594 v 2.41 2.777 0.914 h -4.636 v 2.428 h -4.028 v 1.898 h 1.845 v 28.254 h -23.433 v 4.785 h -7.066 v 1.763 h 4.017 v 9.824 h -11.18 v 11.69 h -3.789 v 10.475 h -11.557 v -5.919 H 98.304072 v 9.404 h -20.658 v 2.177 h -19.7738 v 6.835 h -10.6965 v 6.41 h -11.5187 v 9.376 h 11.5187 10.6965 7.5082 12.2656 4.7633 18.658698 25.877 8.696 4.656 16.467 35.412 10.795 13.266 5.944 23.241 3.512 12.383 20.764 10.228 12.1 48.644 11.234 18.964 6.712 29.96 8.051 27.938 2.757 2.757 10.176 5.514 10.175 4.609 0.906 10.175 5.514 8.748 1.427 2.758 2.757 7.453 37.945 5.419 2.542 11.41 20.084 18.386 8.642 13.405 33.29 35.201 0.367 24.898 13.921 8.516 5.381 41.664 7.461 8.921 8.01 29.729 22.105 4.526 8.13 37.267 12.196 v -8.926 h -12.196 v -6.86 h -11.954 v -9.012 h -10.931 l -1.508,-4.997 h -12.874 v -17.317 h 1.592 v -1.567 h -6.25 v -6.745 h -0.763 v 6.745 h -4.319 v -5.526 h -0.762 v 5.526 h -11.528 l -3.161,-11.593 h -1.451 v -4.261 h -5.082 v 4.261 h -1.259 v -1.593 h -3.558 v 1.593 h -7.368 v -3.715 h -2.033 v -2.581 h -14.483 v 2.581 h -2.033 v 3.715 h -2.032 v 21.306 h -12.874 v -54.06 h -4.235 v -11.855 h -1.355 v 11.855 h -3.219 v -16.446 h -1.355 v 16.446 h -2.794 v -8.902 h -1.356 v 8.902 h -24.985 v 22.31 h -13.883 v -43.337 l -79.949,-8.224 2.224,24.734 c -2.385,-0.205 -4.81,-0.334 -7.266,-0.378 l 0.197,-3.004 0.138,0.002 c 2.388,0 4.323,-0.959 4.323,-2.143 0,-1.183 -1.935,-2.143 -4.323,-2.143 -2.388,0 -4.324,0.96 -4.324,2.143 0,1.08 1.611,1.972 3.707,2.121 l -0.198,3.016 c -0.495,-0.007 -0.992,-0.01 -1.49,-0.01 -6.048,0 -11.942,0.496 -17.494,1.45 l -1.742,-2.452 c 1.572,-0.321 2.68,-1.087 2.68,-1.982 0,-1.184 -1.937,-2.143 -4.324,-2.143 -2.388,0 -4.325,0.959 -4.325,2.143 0,1.184 1.937,2.144 4.325,2.144 0.413,0 0.811,-0.03 1.19,-0.083 l 1.743,2.452 c -6.731,1.19 -12.948,3.055 -18.308,5.527 l -3.16,-1.671 c 0.708,-0.382 1.139,-0.89 1.139,-1.449 0,-1.184 -1.935,-2.143 -4.324,-2.143 -2.388,0 -4.323,0.959 -4.323,2.143 0,1.184 1.935,2.144 4.323,2.144 1.088,0 2.081,-0.201 2.841,-0.529 l 3.154,1.668 c -0.359,0.169 -0.717,0.341 -1.068,0.516 -4.459,2.21 -8.029,4.742 -10.624,7.491 l -4.015,-0.919 c 0.146,-0.215 0.225,-0.444 0.225,-0.682 0,-1.184 -1.936,-2.144 -4.324,-2.144 -2.387,0 -4.324,0.96 -4.324,2.144 0,1.183 1.937,2.142 4.324,2.142 1.736,0 3.233,-0.507 3.92,-1.239 l 3.993,0.914 c -1.646,1.784 -2.867,3.661 -3.669,5.596 h -23.966 v -2.313 h 1.087 v -0.668 h -18.198 v 0.668 h 1.087 v 2.313 h -8.284 v 2.08 h 1.79 v 0.762 h 3.521 v 6.75 h -31.279 v 0.527 h 2.645 v 12.218 h -5.729 l -5.466,13.925 v -45.67 h -2.399 v -16.539 h -12.075 v -6.297 h -6.46 v -5.29 h -2.267 v -9.067 h -0.586 v 9.067 h -2.267 v 5.29 h -6.46 v 6.297 h -11.983 v 16.539 h -2.491 v 9.524 l -9.331,1.132 v -1.301 h -5.515 v 1.968 l -10.175,1.235 v -1.073 h -5.514 v 1.741 l -6.343,0.769 v -7.629 h -4.318 v -32.999 h -11.147 v -8.839 h -3.983 v -12.964 h -21.941 v -9.528 h -1.952 v 9.528 h -4.299 v -11.927 m 254.421,57.846 -4.97,-6.99 c 5.399,-0.925 11.132,-1.409 17.014,-1.409 0.482,0 0.963,0.004 1.444,0.01 l -0.486,7.394 c -0.318,-0.004 -0.638,-0.006 -0.958,-0.006 -4.215,0 -8.268,0.352 -12.044,1.001 m 22.035,-0.305 c -2.74,-0.382 -5.597,-0.625 -8.552,-0.681 l 0.484,-7.395 c 2.496,0.045 4.958,0.182 7.378,0.397 l 0.69,7.679 m -35.041,4.175 -10.219,-5.405 c 5.212,-2.403 11.256,-4.217 17.802,-5.375 l 4.969,6.989 c -4.698,0.841 -8.956,2.14 -12.552,3.791 m -8.359,5.649 -13.579,-3.107 c 2.525,-2.673 5.997,-5.136 10.333,-7.285 0.341,-0.169 0.687,-0.335 1.035,-0.499 l 10.218,5.404 c -3.31,1.559 -6.037,3.417 -8.007,5.487 m 32.672,6.381 -11.067,-15.563 c 3.701,-0.635 7.673,-0.981 11.804,-0.981 0.312,0 0.624,0.002 0.935,0.006 l -1.082,16.493 c -0.203,0.005 -0.4,0.021 -0.59,0.045 m 1.615,0.021 c -0.175,-0.028 -0.357,-0.047 -0.544,-0.058 l 1.081,-16.492 c 2.978,0.057 5.857,0.304 8.61,0.698 l 0.389,4.341 -9.536,11.511 m -2.684,0.244 -22.752,-12.034 c 3.524,-1.617 7.697,-2.891 12.301,-3.715 l 11.067,15.563 c -0.222,0.05 -0.428,0.112 -0.616,0.186 m -0.724,0.42 -30.224,-6.916 c 1.929,-2.028 4.602,-3.849 7.844,-5.376 l 22.753,12.035 c -0.142,0.078 -0.267,0.164 -0.373,0.257 m 4.479,-0.36 c -0.188,-0.084 -0.399,-0.156 -0.626,-0.214 l 9.142,-11.036 0.63,7.003 -9.146,4.247 m -52.643,-4.3 c 0.78,-1.831 1.946,-3.606 3.505,-5.296 l 13.577,3.106 c -1.93,2.101 -3.081,4.413 -3.269,6.846 l -11.137,-0.18 v -1.634 h 3.52 v -0.762 h 1.791 v -2.08 h -7.987 m 47.806,5.204 -33.274,-0.537 c 0.186,-2.383 1.313,-4.649 3.204,-6.707 l 30.226,6.915 c -0.077,0.105 -0.129,0.214 -0.156,0.329 m 5.523,-0.443 c -0.096,-0.102 -0.217,-0.199 -0.358,-0.287 l 8.846,-4.108 0.252,2.8 -8.74,1.595 m 8.943,0.676 -8.675,-0.141 c -0.011,-0.107 -0.046,-0.211 -0.102,-0.311 l 8.596,-1.569 0.181,2.021 m -59.596,7.215 v -7.937 l 11.117,0.179 c -0.01,0.157 -0.012,0.316 -0.012,0.475 0,2.179 0.774,4.27 2.191,6.21 l -13.296,2.425 v -0.592 h 2.055 v -0.76 h -2.055 m 13.972,-1.196 c -1.388,-1.902 -2.146,-3.951 -2.146,-6.087 0,-0.155 0,-0.31 0.012,-0.464 l 33.276,0.537 c 0.011,0.107 0.046,0.211 0.102,0.311 l -31.244,5.703 m 45.849,-3.517 -9.072,-2.076 c 0.077,-0.104 0.13,-0.214 0.155,-0.328 l 8.714,0.14 0.203,2.264 m -38.362,9.602 c -3.15,-1.687 -5.654,-3.673 -7.319,-5.863 l 31.242,-5.701 c 0.078,0.083 0.172,0.161 0.278,0.235 l -0.198,0.181 -24.003,11.148 m 38.692,-5.927 -9.178,-4.856 -0.598,-0.546 0.172,-0.132 9.299,2.126 0.305,3.408 m 0.123,10.634 -11.067,-15.564 c 0.159,-0.036 0.311,-0.078 0.453,-0.126 l 10.936,9.989 0.497,5.536 c -0.276,0.052 -0.54,0.115 -0.819,0.165 m -26.226,-0.331 c -1.219,-0.254 -2.403,-0.54 -3.549,-0.856 l 15.876,-14.503 c 0.102,0.034 0.209,0.066 0.32,0.094 l -12.647,15.265 m 12.553,1.375 c -4.265,-0.081 -8.343,-0.531 -12.109,-1.286 l 12.647,-15.263 c 0.174,0.027 0.357,0.047 0.545,0.057 l -1.083,16.492 m 1.417,0.015 c -0.313,0 -0.626,-0.002 -0.936,-0.006 l 1.081,-16.493 c 0.203,-0.005 0.401,-0.02 0.591,-0.045 l 11.067,15.564 c -3.701,0.634 -7.672,0.98 -11.803,0.98 m -18.352,-2.483 c -2.912,-0.853 -5.564,-1.901 -7.88,-3.109 l 22.95,-10.659 -15.07,13.768 m 30.831,-5.364 -8.619,-7.875 8.307,4.394 0.312,3.481 m -50.47,7.39 c -4.323,-2.305 -7.689,-4.939 -10.027,-7.784 v -0.808 l 13.463,-2.457 c 1.699,2.236 4.255,4.262 7.47,5.984 l -10.906,5.065 m -10.027,0.041 v -6.056 c 2.292,2.353 5.299,4.544 8.976,6.503 l -3.31,1.538 c -0.776,-0.368 -1.828,-0.593 -2.985,-0.593 -1.019,0 -1.942,0.181 -2.681,0.472 v -1.104 h 2.055 v -0.76 h -2.055 m 22.187,4.766 c -3.91,-1.117 -7.547,-2.496 -10.824,-4.12 -0.341,-0.169 -0.677,-0.341 -1.007,-0.514 l 10.905,-5.064 c 2.368,1.236 5.081,2.308 8.061,3.179 l -3.555,3.247 h -2.453 v 2.241 l -1.127,1.031 m 4.674,-3.272 3.295,-3.01 c 1.169,0.322 2.376,0.613 3.618,0.872 l -4.87,5.878 v -3.74 h -2.043 m 2.043,4.785 v -0.419 l 5.315,-6.414 c 3.842,0.771 8.005,1.229 12.359,1.312 l -0.362,5.521 h -7.149 v -4.785 h -5.081 v 4.785 h -5.082 m 32.325,-5.582 -0.715,-1.004 c 0.209,-0.037 0.406,-0.084 0.613,-0.123 l 0.102,1.127 m -13.211,0.076 c 4.214,0 8.266,-0.353 12.043,-1 l 1.224,1.721 h -12.332 v 4.785 h -2.256 l 0.362,-5.511 c 0.318,0.004 0.638,0.005 0.959,0.005 m -45.337,4.905 c 2.387,0 4.323,-0.96 4.323,-2.144 0,-0.523 -0.38,-1.004 -1.01,-1.376 l 3.311,-1.538 c 0.341,0.179 0.687,0.356 1.04,0.53 3.376,1.673 7.125,3.094 11.154,4.245 l -0.97,0.884 h -8.903 v 1.763 h 1.779 v 4.746 l -12.508,11.427 h -0.897 v -2.977 h 2.055 v -0.759 h -2.055 v -9.48 h 2.055 v -0.76 h -2.055 v -5.035 c 0.739,0.292 1.662,0.474 2.681,0.474 m 20.633,-0.604 c -0.095,-0.025 -0.195,-0.048 -0.291,-0.074 l 0.291,-0.265 v 0.339 m -1.692,1.205 0.713,-0.651 c 0.322,0.088 0.654,0.166 0.979,0.251 v 0.4 h -1.692 m -19.632,17.936 11.415,-10.428 v 10.428 h -11.415"
       style="fill:#ebecee;fill-opacity:1;fill-rule:nonzero;stroke:none;stroke-width:0.1"
       id="path702" />
    <g
       id="g704"
       transform="matrix(0.1,0,0,0.1,-6.6449281,31.00953)">
      <g
         id="g706"
         clip-path="url(#clipPath710)">
        <path
           d="M 2399.74,3066.24 H 1750.4 V 4405.7 h -18.45 v 38.29 h 40.28 v 49 h 46.36 v 18.42 56.04 48.62 h 55.95 v 86.87 h 6.72 v 0 0 h 6.73 v -86.87 h 30.16 l 18.23,-48.62 h 122.06 v -74.46 h 319.48 v -49 h 40.27 v -38.29 h -18.45 V 3066.24"
           style="fill:url(#linearGradient718);fill-opacity:1;fill-rule:nonzero;stroke:none"
           id="path720" />
      </g>
    </g>
    <g
       id="g722"
       transform="matrix(0.1,0,0,0.1,-6.6449281,31.00953)">
      <g
         id="g724"
         clip-path="url(#clipPath728)">
        <path
           d="m 1881.26,4702.94 v 0 c -6.67,0 -12.08,5.41 -12.08,12.08 0,6.68 5.41,12.09 12.08,12.09 6.68,0 12.09,-5.41 12.09,-12.09 0,-6.67 -5.41,-12.08 -12.09,-12.08 v 0"
           style="fill:url(#linearGradient736);fill-opacity:1;fill-rule:nonzero;stroke:none"
           id="path738" />
      </g>
    </g>
    <g
       id="g740"
       transform="matrix(0.1,0,0,0.1,-6.6449281,31.00953)">
      <g
         id="g742"
         clip-path="url(#clipPath746)">
        <path
           d="M 9335.48,2785.84 H 842.906 v 201.98 H 2923.54 v 1481.04 h -10.78 v 17.12 h 76.78 v 102.91 h -9.92 v 16.48 h 70.47 v 59.16 h -11 v 12.65 h 35.02 v 55.89 h 33.48 v 111.22 h 4.02 3.99 3.14 v -111.22 h 13.54 v 199.51 h 4.02 3.99 3.14 v -199.51 h 4.5 28.97 v -55.89 h 30.34 v -12.65 h -6.32 v -59.16 h 70.48 v -16.48 h -9.93 v -102.91 h 76.78 v -17.12 h -10.77 V 2987.82 h 623.85 v 1112.59 h 61.42 v 665.79 h 71.65 v 439.89 h 138.72 v 240.63 h 19.52 v -240.63 h 42.98 v 192.23 h 19.52 v -192.23 h 219.42 v -261.56 h 39.82 V 4766.2 h 111.47 v -665.79 h 43.19 V 2987.82 h 2345.97 l -87.6,1966.73 799.49,-165.95 V 2987.82 h 1558.58 v -201.98"
           style="fill:url(#linearGradient754);fill-opacity:1;fill-rule:nonzero;stroke:none"
           id="path756" />
      </g>
    </g>
    <g
       id="g758"
       transform="matrix(0.1,0,0,0.1,-6.6449281,31.00953)">
      <g
         id="g760"
         clip-path="url(#clipPath764)">
        <path
           d="m 6650.46,3463.64 c 16.91,-9.33 34.31,-17.71 52.1,-25.11 l -18.2,-44.34 c -4.14,1.31 -8.54,2.02 -13.1,2.02 -23.89,0 -43.24,-19.35 -43.24,-43.23 0,-23.89 19.35,-43.24 43.24,-43.24 23.88,0 43.23,19.35 43.23,43.24 0,17.62 -10.53,32.75 -25.65,39.5 l 18.16,44.23 c 56.86,-23.04 117.76,-36.14 180.57,-38.42 l -1.48,-45.34 c -23.4,-0.53 -42.23,-19.67 -42.23,-43.21 0,-23.89 19.35,-43.25 43.24,-43.25 23.88,0 43.23,19.36 43.23,43.25 0,22.59 -17.33,41.13 -39.43,43.06 l 1.47,45.34 c 4.96,-0.13 9.93,-0.2 14.91,-0.2 60.48,0 119.42,10.01 174.93,29.25 l 15.53,-44.08 c -14.71,-6.91 -24.91,-21.84 -24.91,-39.17 0,-23.88 19.37,-43.24 43.24,-43.24 23.88,0 43.25,19.36 43.25,43.24 0,23.88 -19.37,43.24 -43.25,43.24 -4.85,0 -9.51,-0.81 -13.86,-2.29 l -15.47,43.88 c 26.67,9.51 52.53,21.17 77.36,34.87 l 203.46,-375 h -920.55 z m -109.73,100.53 c -3.41,3.41 -6.76,6.87 -10.06,10.36 l 109.04,102.17 c 23.69,-24.94 50.82,-46.56 80.61,-64.14 l -71.35,-131.52 c -39.09,22.54 -75.47,50.37 -108.24,83.13 z m -13.35,13.86 c -46.8,50.31 -82.53,108.39 -105.96,171.24 l 140.32,51.66 c 16.98,-45.08 42.55,-85.98 74.7,-120.72 z m -138.47,352.68 c 0,4.83 0.07,9.64 0.2,14.45 l 149.17,-4.86 c -0.08,-3.18 -0.13,-6.38 -0.13,-9.59 0,-43.96 7.75,-86.14 21.91,-125.28 l -140.29,-51.65 c -20.29,55.97 -30.86,115.64 -30.86,176.93 z m 46.48,215.2 135.77,-62.68 c -19.3,-42.39 -30.81,-89.05 -32.69,-138.12 l -149.21,4.85 c 2.49,68.64 18.28,134.95 46.13,195.95 z m 105.34,151.35 c 3.42,3.41 6.88,6.76 10.36,10.06 l 102.18,-109.03 c -33.1,-31.44 -60.38,-68.95 -80.07,-110.71 l -135.79,62.69 c 25.24,53.93 59.96,103.63 103.32,146.99 z m 191.88,121.8 49.7,-141.02 c -46.98,-16.96 -89.57,-43.19 -125.53,-76.48 l -102.19,109.06 c 52.12,48.47 112.57,85.08 178.02,108.44 z m 174.67,30.02 c 4.82,0 9.63,-0.07 14.44,-0.2 l -4.85,-149.17 c -3.19,0.08 -6.38,0.12 -9.59,0.12 -42.15,0 -82.67,-7.12 -120.43,-20.19 l -49.7,141.01 c 53.99,18.7 111.31,28.43 170.13,28.43 z m 19.24,-0.34 c 61.07,-2.22 120.29,-14.96 175.56,-37.35 l -56.81,-138.33 c -38.43,15.54 -80.06,24.79 -123.6,26.47 z m 347.3,-151.48 c 3.42,-3.41 6.77,-6.87 10.07,-10.36 l -109.04,-102.17 c -35.03,36.87 -77.56,66.53 -125.13,86.51 l 56.8,138.33 c 61.79,-25.72 118.55,-63.56 167.3,-112.31 z m 13.37,-13.86 c 46.78,-50.31 82.52,-108.39 105.95,-171.24 l -140.32,-51.66 c -16.98,45.08 -42.55,85.98 -74.69,120.72 z m 138.45,-352.69 c 0,-4.82 -0.06,-9.63 -0.19,-14.44 l -149.17,4.85 c 0.08,3.19 0.12,6.39 0.12,9.59 0,43.97 -7.74,86.15 -21.91,125.29 l 140.31,51.65 c 20.27,-55.97 30.84,-115.64 30.84,-176.94 z m -46.47,-215.19 -135.77,62.68 c 19.31,42.39 30.8,89.04 32.69,138.12 l 149.21,-4.85 c -2.49,-68.65 -18.28,-134.96 -46.13,-195.95 z m -105.35,-151.35 c -3.41,-3.41 -6.87,-6.76 -10.35,-10.06 l -102.18,109.03 c 33.1,31.44 60.38,68.95 80.07,110.71 l 135.79,-62.69 c -25.25,-53.93 -59.96,-103.63 -103.33,-146.99 z m -241.57,19.22 c 18.62,6.72 36.54,14.9 53.65,24.4 l 71.33,-131.48 c -24.17,-13.33 -49.33,-24.68 -75.29,-33.94 z m -134.56,-21.67 c 3.19,-0.08 6.38,-0.13 9.59,-0.13 42.15,0 82.67,7.13 120.43,20.2 l 49.7,-141.01 c -53.99,-18.7 -111.31,-28.44 -170.13,-28.44 -4.83,0 -9.63,0.08 -14.44,0.21 z m -128.4,26.65 c 38.43,-15.54 80.07,-24.79 123.6,-26.47 l -4.85,-149.2 c -61.07,2.2 -120.29,14.96 -175.56,37.35 z m -40.63,19.42 c 11.69,-6.5 23.76,-12.38 36.18,-17.59 l -56.8,-138.33 c -17.32,7.2 -34.24,15.36 -50.71,24.44 z m 145.8,288.88 -150.7,-277.77 c -29.11,17.2 -55.63,38.35 -78.79,62.73 z m 6.46,21.78 c 0.78,-1.67 1.72,-3.25 2.79,-4.74 l -1.98,-3.65 -240.04,-224.92 c -31.49,34.04 -56.54,74.11 -73.19,118.28 z m -2.68,10.8 c 0.11,-2.17 0.46,-4.27 1.03,-6.29 l -312.44,-115.04 c -13.88,38.36 -21.47,79.71 -21.47,122.79 0,3.13 0.04,6.25 0.12,9.36 z m 1.72,11.43 c -0.77,-2.11 -1.29,-4.32 -1.55,-6.62 l -332.75,10.81 c 1.87,48.09 13.13,93.81 32.05,135.34 z m 5.76,9.53 c -1.43,-1.58 -2.68,-3.31 -3.74,-5.18 l -302.23,139.53 c 19.28,40.91 46.01,77.66 78.44,108.47 z m 9.67,7.03 c -2.22,-0.99 -4.29,-2.26 -6.16,-3.75 L 6661.7,4196.3 c 35.25,32.62 76.97,58.32 123.01,74.95 z m 10.43,2.51 c -2.03,-0.1 -4,-0.41 -5.91,-0.91 l -110.67,314.01 c 37.01,12.8 76.73,19.78 118.04,19.78 3.13,0 6.25,-0.04 9.36,-0.12 z m 10.24,-1.32 c -1.74,0.55 -3.57,0.94 -5.43,1.16 l 10.81,332.73 c 42.65,-1.64 83.43,-10.7 121.09,-25.93 z m 10.72,-6.15 c -1.89,1.7 -4,3.15 -6.27,4.32 l 126.47,307.97 c 46.61,-19.58 88.29,-48.64 122.62,-84.77 z m 6.86,-9.3 c -0.97,2.07 -2.18,4.01 -3.58,5.79 l 242.81,227.52 c 31.5,-34.04 56.54,-74.11 73.19,-118.28 z m 2.67,-10.81 c -0.11,2.18 -0.46,4.28 -1.02,6.3 l 312.44,115.04 c 13.88,-38.36 21.46,-79.71 21.46,-122.8 0,-3.12 -0.04,-6.24 -0.12,-9.35 z m -1.71,-11.42 c 0.76,2.1 1.29,4.32 1.55,6.62 l 332.75,-10.81 c -1.87,-48.09 -13.13,-93.81 -32.04,-135.34 z m 2.24,-18.06 -5.99,11.02 c 0.62,0.86 1.2,1.76 1.72,2.68 l 302.24,-139.52 c -19.29,-40.91 -46.01,-77.66 -78.44,-108.47 z m 9.05,-16.68 206.96,-220.88 c -18.92,-17.52 -39.72,-33.04 -62.05,-46.23 z m -26.71,18.18 c 1.59,0.72 3.11,1.57 4.53,2.54 l 158.75,-292.61 c -16.77,-9.32 -34.34,-17.34 -52.61,-23.94 z m -10.44,-2.51 c 2.03,0.1 4,0.41 5.91,0.91 l 110.67,-314.01 c -37.01,-12.8 -76.73,-19.78 -118.04,-19.78 -3.13,0 -6.24,0.04 -9.35,0.12 z m -141.16,-304.82 c -12.18,5.12 -24.02,10.89 -35.48,17.26 l 158.75,292.61 c 1.03,-0.7 2.09,-1.33 3.2,-1.9 z M 6898.5,3903 c 1.74,-0.55 3.56,-0.94 5.44,-1.16 l -10.81,-332.74 c -42.66,1.65 -83.44,10.71 -121.11,25.94 z m 267.1,-421.96 -71.36,131.52 c 22.87,13.49 44.16,29.38 63.54,47.31 l 102.19,-109.05 c -29.06,-27.04 -60.72,-50.37 -94.37,-69.78 z M 9182.78,2806 v 181.82 h -255.6 l -96.74,715.72 h -14.51 v 85.98 h -50.82 v -85.98 h -12.59 v 32.15 h -35.57 v -32.15 h -73.68 v 74.95 h -20.33 v 52.09 h -144.83 v -52.09 h -20.33 v -74.95 h -20.33 v -429.86 h -128.74 v 1090.69 h -42.34 v 239.19 h -13.56 v -239.19 h -32.18 v 331.81 h -13.55 v -331.81 h -27.95 v 179.6 h -13.55 v -179.6 h -249.86 v -774.19 h -277.8 v -501.54 h -259.43 l -206.02,379.72 c 34.73,20 67.38,44.06 97.35,71.94 l 42.25,-45.09 c -9.07,-7.92 -14.8,-19.57 -14.8,-32.56 0,-23.88 19.35,-43.24 43.23,-43.24 23.88,0 43.24,19.36 43.24,43.24 0,23.87 -19.36,43.24 -43.24,43.24 -9.15,0 -17.64,-2.85 -24.63,-7.71 l -42.55,45.41 c 3.6,3.41 7.17,6.87 10.69,10.39 44.58,44.58 80.29,95.68 106.23,151.14 l 47.05,-21.72 c -0.85,-3.39 -1.3,-6.94 -1.3,-10.59 0,-23.88 19.35,-43.24 43.23,-43.24 23.89,0 43.24,19.36 43.24,43.24 0,23.88 -19.35,43.24 -43.24,43.24 -18.53,0 -34.33,-11.66 -40.48,-28.03 l -46.47,21.46 c 28.65,62.73 44.88,130.92 47.44,201.53 l 50.64,-1.65 c 0.63,-23.34 19.73,-42.07 43.21,-42.07 23.88,0 43.25,19.36 43.25,43.24 0,23.88 -19.37,43.24 -43.25,43.24 -22.65,0 -41.23,-17.43 -43.07,-39.61 l -50.64,1.65 c 0.13,4.96 0.21,9.92 0.21,14.9 0,63.03 -10.87,124.38 -31.73,181.92 l 42.31,15.58 c 6.65,-15.33 21.91,-26.07 39.68,-26.07 23.88,0 43.24,19.36 43.24,43.24 0,23.88 -19.36,43.24 -43.24,43.24 -23.87,0 -43.24,-19.36 -43.24,-43.24 0,-4.4 0.66,-8.66 1.89,-12.67 l -42.29,-15.57 c -24.09,64.65 -60.85,124.37 -108.98,176.12 l 33.1,31.02 c 7.76,-7.41 18.27,-11.98 29.85,-11.98 23.88,0 43.25,19.36 43.25,43.24 0,23.88 -19.37,43.24 -43.25,43.24 -23.88,0 -43.24,-19.36 -43.24,-43.24 0,-10.57 3.8,-20.25 10.1,-27.76 l -33.11,-31.02 c -3.4,3.6 -6.87,7.17 -10.39,10.69 -50.11,50.12 -108.47,89.02 -172.01,115.46 l 18.21,44.33 c 4.14,-1.31 8.53,-2.03 13.09,-2.03 23.89,0 43.24,19.37 43.24,43.25 0,23.87 -19.35,43.23 -43.24,43.23 -23.88,0 -43.24,-19.36 -43.24,-43.23 0,-17.62 10.55,-32.77 25.66,-39.5 l -18.16,-44.24 c -56.86,23.04 -117.76,36.15 -180.57,38.42 l 1.97,60.6 1.37,-0.03 c 23.88,0 43.24,19.35 43.24,43.23 0,23.88 -19.36,43.24 -43.24,43.24 -23.87,0 -43.23,-19.36 -43.23,-43.24 0,-21.78 16.1,-39.8 37.07,-42.79 l -1.98,-60.86 c -4.96,0.13 -9.92,0.21 -14.91,0.21 -60.47,0 -119.42,-10.02 -174.93,-29.25 l -17.43,49.46 c 15.72,6.47 26.8,21.93 26.8,40 0,23.87 -19.36,43.23 -43.23,43.23 -23.89,0 -43.25,-19.36 -43.25,-43.23 0,-23.89 19.36,-43.25 43.25,-43.25 4.12,0 8.11,0.59 11.89,1.68 l 17.44,-49.48 C 6660.5,4408.64 6598.33,4371 6544.74,4321.13 l -31.6,33.72 c 7.07,7.7 11.39,17.96 11.39,29.24 0,23.88 -19.36,43.23 -43.24,43.23 -23.88,0 -43.23,-19.35 -43.23,-43.23 0,-23.88 19.35,-43.24 43.23,-43.24 10.88,0 20.81,4.02 28.41,10.65 l 31.54,-33.66 c -3.6,-3.41 -7.17,-6.87 -10.69,-10.39 -44.58,-44.58 -80.29,-95.68 -106.23,-151.14 l -40.16,18.54 c 1.46,4.32 2.26,8.95 2.26,13.77 0,23.88 -19.36,43.24 -43.24,43.24 -23.88,0 -43.24,-19.36 -43.24,-43.24 0,-23.88 19.36,-43.24 43.24,-43.24 17.36,0 32.32,10.24 39.2,25 l 39.91,-18.43 c -28.65,-62.73 -44.89,-130.92 -47.44,-201.53 l -51.54,1.68 c -0.63,23.32 -19.73,42.04 -43.2,42.04 -23.88,0 -43.24,-19.36 -43.24,-43.24 0,-23.88 19.36,-43.24 43.24,-43.24 22.66,0 41.25,17.44 43.07,39.63 l 51.53,-1.67 c -0.14,-4.96 -0.21,-9.93 -0.21,-14.91 0,-63.02 10.87,-124.37 31.73,-181.91 l -42.31,-15.58 c -6.64,15.33 -21.91,26.07 -39.68,26.07 -23.89,0 -43.24,-19.36 -43.24,-43.24 0,-23.88 19.35,-43.24 43.24,-43.24 23.88,0 43.24,19.36 43.24,43.24 0,4.4 -0.66,8.66 -1.89,12.66 l 42.29,15.57 c 24.09,-64.64 60.85,-124.36 108.99,-176.11 l -33.11,-31.02 c -7.76,7.42 -18.27,11.98 -29.85,11.98 -23.88,0 -43.25,-19.36 -43.25,-43.24 0,-23.88 19.37,-43.24 43.25,-43.24 23.87,0 43.24,19.36 43.24,43.24 0,10.57 -3.8,20.25 -10.1,27.76 l 33.11,31.02 c 3.4,-3.6 6.86,-7.17 10.39,-10.69 33.76,-33.76 71.25,-62.42 111.54,-85.62 l -206.02,-379.72 h -166.84 v 257.42 h -68.01 v 488.83 h 26.45 v 10.63 H 5643.2 v -10.63 h 26.45 v -246.52 h -57.3 l -54.66,-280.95 v 921.42 h -23.99 v 333.7 h -120.74 v 127.04 h -64.61 v 106.72 h -22.67 v 182.95 h -5.86 V 4796.3 h -22.66 v -106.72 h -64.6 v -127.04 h -119.84 v -333.7 h -24.9 V 3623 h -185.79 v -534.36 h -616.39 v 1033.22 h 49.55 v 16.26 h -49.55 v 29.11 h -62.79 v 47.81 h -513.54 v -47.81 h -62.79 v -29.11 h -49.55 v -16.26 h 49.55 v -643.19 h -84 v 120.69 h -518.19 v -147.38 h -112.98 v -274.41 h -182.94 v 896.93 h -60.98 v 60.99 h -48.28 v 161.34 h -10.17 v -161.34 h -22.86 v 202 h -10.16 v -202 h -28.11 v -60.99 h -15.09 v -896.93 h -378.59 v 525.97 h 17.78 v 35.57 h -116.88 v 96.55 h -55.9 v -96.55 h -50.82 v 96.55 h -50.81 v -96.55 h -98.86 v 96.55 h -302.6 v -96.55 h -70.66 v -35.57 h 40.17 v -198.19 h -111.8 v -447.21 h -153.46 v 119.43 H 1049.48 V 2917.13 H 842.906 V 2806 H 538.203 V 2487.51 H 9455.02 V 2806 h -272.24"
           style="fill:url(#linearGradient774);fill-opacity:1;fill-rule:nonzero;stroke:none"
           id="path776" />
      </g>
    </g>
    <g
       id="g778"
       transform="matrix(0.1,0,0,0.1,-6.6449281,31.00953)">
      <g
         id="g780"
         clip-path="url(#clipPath784)">
        <path
           d="m 8168.44,4136.29 c 0,6.67 -4.54,12.08 -10.14,12.08 -5.6,0 -10.15,-5.41 -10.15,-12.08 0,-6.68 4.55,-12.09 10.15,-12.09 5.6,0 10.14,5.41 10.14,12.09"
           style="fill:url(#linearGradient792);fill-opacity:1;fill-rule:nonzero;stroke:none"
           id="path794" />
      </g>
    </g>
    <g
       id="g796"
       transform="matrix(0.1,0,0,0.1,-6.6449281,31.00953)">
      <g
         id="g798"
         clip-path="url(#clipPath802)">
        <path
           d="m 9274.04,2667.59 -62.94,421.05 h -128.75 v 349.39 h 15.92 v 31.61 h -62.5 v 136.09 h -7.62 v -136.09 h -43.19 v 111.49 h -7.63 v -111.49 h -260.38 v -31.61 h 17.79 v -708.92 h -297.29 v 317.55 h -169.31 v 780.31 h 15.49 v 38.28 h -33.81 v 49.01 h -38.91 v 18.42 56.03 48.62 h -46.96 v 86.87 h -5.65 -5.64 v -86.87 h -25.32 l -15.31,-48.62 h -102.45 v -74.45 h -268.17 v -49.01 h -33.8 v -38.28 h 15.49 v -507.7 h -224.39 v -498.83 l -248.97,110.3 v 484.19 h 40.16 v 35.58 h -70.66 v 96.55 h -302.6 v -96.55 h -98.86 v 96.55 h -50.82 v -96.55 h -50.82 v 96.55 h -55.9 v -96.55 h -116.87 v -35.58 h 17.78 v -671.1 h -113.49 v 7.04 h -20.55 v 191.24 h 20.55 v 15.34 h -20.55 v 191.24 h 20.55 v 15.34 h -20.55 v 191.24 h 20.55 v 15.35 h -20.55 v 191.24 h 20.55 v 15.34 h -20.55 v 191.24 h 20.55 v 15.34 h -20.55 v 197.92 h 35.19 v 15.39 h 17.91 v 41.96 h -334.26 v 46.66 h 10.88 v 13.48 h -181.99 v -13.48 h 10.87 v -46.66 h -82.84 v -41.96 h 17.91 v -15.39 h 35.2 v -197.92 h -20.55 v -15.34 h 20.55 V 3577.2 h -20.55 v -15.34 h 20.55 v -191.24 h -20.55 v -15.35 h 20.55 v -191.24 h -20.55 v -15.34 h 20.55 v -191.24 h -20.55 v -15.34 h 20.55 v -191.24 h -20.55 v -15.34 h 20.55 v -156.27 h -114.09 v 603.88 h -459.07 v -439.31 h -74.53 v 1368.54 h -55.14 v -35.23 l -101.75,-24.89 v 22.88 h -55.14 v -36.37 l -101.76,-24.88 v 26.23 h -55.14 v -39.72 L 4837.6,3975.5 v 21.64 h -55.14 v -35.13 l -101.75,-24.89 v 18.65 h -55.14 V 2611.84 h -77.58 v 716.48 h -287.34 v -440.59 h -294.57 v 375.72 h -36.29 v 123.39 h 21.54 v 12.39 h -95.32 v 38.8 h -10.17 v -38.8 h -30.49 v 199.15 h -7.62 v -199.15 h -39.71 v -12.39 h 23.36 v -123.39 h -194.41 v -286.6 h -189.26 l -98.85,-365.01 h -198.33 v 1191.74 h -262.59 v 42.69 h 14.92 v 14.98 h -198.89 v -14.98 h 15.64 v -42.69 -68.66 -816.19 h -123.82 v 308.38 h 44.01 v 27.92 h -311.55 v 186.3 h -59.43 v 38.28 h -132.66 v -38.28 h -107.95 v -665.22 h -354.13 v 493.37 H 1335.89 V 2879.79 H 1077.12 V 2630.47 H 890.535 v 313.44 H 645.168 V 2676.67 H 423.012 v -189.16 h 222.156 75.082 122.656 47.629 186.585 258.77 86.96 46.56 164.67 354.13 107.95 132.66 59.43 232.42 35.12 123.82 207.64 102.29 120.99 486.44 112.34 189.64 67.13 299.6 80.5 279.39 27.56 27.58 101.75 55.14 101.76 46.09 9.05 101.76 55.14 87.47 14.28 27.57 27.57 74.53 379.45 54.2 25.42 114.09 200.85 183.86 86.42 134.04 332.9 352.01 3.68 248.97 139.21 85.18 53.79 416.64 74.61 89.21 80.1 297.29 221.05 45.26 81.3 494.63 v 180.08 h -302.94"
           style="fill:url(#linearGradient810);fill-opacity:1;fill-rule:nonzero;stroke:none"
           id="path812" />
      </g>
    </g>
  </g>
</svg>
