<?xml version="1.0" encoding="UTF-8" standalone="no"?>
<!-- Created with Inkscape (http://www.inkscape.org/) -->

<svg
   version="1.1"
   id="svg686"
   width="1380.1549"
   height="710.14661"
   viewBox="0 0 1380.1549 710.14661"
   xmlns="http://www.w3.org/2000/svg"
   xmlns:svg="http://www.w3.org/2000/svg">
  <defs
     id="defs690" />
  <g
     id="g694"
     transform="matrix(1.3333333,0,0,-1.3333333,-109.92506,805.15865)">
    <g
       id="g696"
       transform="scale(0.1)">
      <path
         d="m 2189.56,5294.65 c 0,-376.97 -305.59,-682.57 -682.56,-682.57 -376.97,0 -682.562,305.6 -682.562,682.57 0,376.97 305.592,682.56 682.562,682.56 376.97,0 682.56,-305.59 682.56,-682.56"
         style="fill:#d1496b;fill-opacity:1;fill-rule:nonzero;stroke:none"
         id="path700" />
      <path
         d="M 6639.9,4654.75 H 5360.1 v 1279.8 h 1279.8 v -1279.8"
         style="fill:#9fcfc3;fill-opacity:1;fill-rule:nonzero;stroke:none"
         id="path702" />
      <path
         d="M 8953.01,4868.05 H 7539.99 v 853.2 h 1413.02 v -853.2"
         style="fill:#61acc1;fill-opacity:1;fill-rule:nonzero;stroke:none"
         id="path704" />
      <path
         d="M 3753.5,5885.76 3070.94,4703.53 h 1365.12 z"
         style="fill:#ffc847;fill-opacity:1;fill-rule:nonzero;stroke:none"
         id="path706" />
      <path
         d="m 11047.6,5294.65 c 0,-410.92 -248.3,-744.04 -554.6,-744.04 -306.3,0 -554.58,333.12 -554.58,744.04 0,410.92 248.28,744.04 554.58,744.04 306.3,0 554.6,-333.12 554.6,-744.04"
         style="fill:#b84ba9;fill-opacity:1;fill-rule:nonzero;stroke:none"
         id="path708" />
      <path
         d="m 2189.56,3535.29 h -514.31 v 514.31 h -336.5 V 3535.29 H 824.438 V 3198.8 h 514.312 v -514.32 h 336.5 v 514.32 h 514.31 v 336.49"
         style="fill:#9fcfc3;fill-opacity:1;fill-rule:nonzero;stroke:none"
         id="path710" />
      <path
         d="m 3753.5,4016.2 -682.56,-495.91 260.72,-802.4 h 843.69 l 260.71,802.4 -682.56,495.91"
         style="fill:#61acc1;fill-opacity:1;fill-rule:nonzero;stroke:none"
         id="path712" />
      <path
         d="m 6591.11,3025.76 v 682.57 L 6000,4049.6 5408.89,3708.33 v -682.57 l 591.11,-341.28 591.11,341.28"
         style="fill:#b84ba9;fill-opacity:1;fill-rule:nonzero;stroke:none"
         id="path714" />
      <path
         d="m 8716.74,3954.64 h -940.48 l -212.32,-262.21 682.56,-912.99 682.56,912.99 -212.32,262.21"
         style="fill:#d1496b;fill-opacity:1;fill-rule:nonzero;stroke:none"
         id="path716" />
      <path
         d="m 10817.7,4049.6 c 65.9,-110.1 103.7,-238.9 103.7,-376.55 0,-405.62 -328.8,-734.44 -734.4,-734.44 -137.7,0 -266.45,37.88 -376.56,103.76 128.26,-214.36 362.66,-357.89 630.66,-357.89 405.6,0 734.5,328.82 734.5,734.45 0,267.97 -143.6,502.41 -357.9,630.67"
         style="fill:#ffc847;fill-opacity:1;fill-rule:nonzero;stroke:none"
         id="path718" />
      <path
         d="m 1507,2088.59 210.92,-427.37 471.64,-68.53 -341.28,-332.67 80.57,-469.739 -421.85,221.779 -421.84,-221.779 80.56,469.739 -341.282,332.67 471.642,68.53 210.92,427.37"
         style="fill:#b84ba9;fill-opacity:1;fill-rule:nonzero;stroke:none"
         id="path720" />
      <path
         d="m 4265.64,2001.62 c -99.76,51.76 -237.31,56.88 -333.65,-6.16 -49.31,-32.27 -178.49,-172.09 -178.49,-211.19 0,39.1 -129.18,178.92 -178.49,211.19 -96.34,63.04 -233.89,57.92 -333.65,6.16 -152.28,-79.03 -206.48,-390.35 -146.48,-535.58 63.12,-152.79 224.12,-236.39 351.56,-326.3 171.29,-120.85 307.06,-302.451 307.06,-302.451 0,0 135.77,181.601 307.07,302.451 127.43,89.91 288.43,173.51 351.55,326.3 60,145.23 5.8,456.55 -146.48,535.58"
         style="fill:#d1496b;fill-opacity:1;fill-rule:nonzero;stroke:none"
         id="path722" />
      <path
         d="M 6597.24,2036.68 5978,1870.75 l 127.21,-127.2 -702.45,-702.44 198.91,-198.911 702.44,702.441 127.21,-127.2 165.92,619.24"
         style="fill:#ffc847;fill-opacity:1;fill-rule:nonzero;stroke:none"
         id="path724" />
      <path
         d="m 8246.5,2166.3 -616.71,-726.86 616.71,-726.85 616.7,726.85 -616.7,726.86"
         style="fill:#9fcfc3;fill-opacity:1;fill-rule:nonzero;stroke:none"
         id="path726" />
      <path
         d="m 10493,1780.72 c -377,0 -682.56,-305.59 -682.56,-682.56 h 1365.16 c 0,376.97 -305.6,682.56 -682.6,682.56"
         style="fill:#61acc1;fill-opacity:1;fill-rule:nonzero;stroke:none"
         id="path728" />
    </g>
  </g>
</svg>
