<?xml version="1.0" encoding="utf-8"?>
<!-- Generator: Adobe Illustrator 27.0.0, SVG Export Plug-In . SVG Version: 6.00 Build 0)  -->
<svg version="1.1" id="tetes_01_xA0_Image_00000008835260969303433490000006300266387247491475_"
	 xmlns="http://www.w3.org/2000/svg" xmlns:xlink="http://www.w3.org/1999/xlink" x="0px" y="0px" viewBox="0 0 472 524.08"
	 style="enable-background:new 0 0 472 524.08;" xml:space="preserve">
<style type="text/css">
	.st0{fill:#FFFFFF;stroke:#808080;stroke-width:11.9972;stroke-miterlimit:10;}
</style>
<g>
	<g>
		<path class="st0" d="M351.27,264.03c0-7.88-4.2-15.34-11.67-21.97c5.44-11.9,6.31-22.69,1.54-30.96
			c-5.19-8.99-16.3-13.7-31.07-14.4c-1-13.82-5.68-24.22-14.28-29.19c-8.22-4.74-18.94-3.91-30.76,1.45
			c-8.26-13.86-18.44-22.05-29.45-22.05c-10.41,0-20.07,7.31-28.07,19.81c-9.58-3.24-18.23-3.18-25.12,0.79
			c-8.18,4.72-12.81,14.37-14.11,27.2c-15.11,0.58-26.5,5.3-31.77,14.43c-4.59,7.94-3.97,18.23,0.92,29.58
			c-10.03,7.42-15.8,16.07-15.8,25.31c0,11.18,8.44,21.51,22.69,29.83c-5.89,12.33-6.97,23.54-2.05,32.05
			c4.41,7.63,13.09,12.18,24.65,13.8c1.37,12.56,5.98,22.01,14.05,26.66c8.53,4.93,19.77,3.83,32.13-2.09
			c6.76,7.83,14.39,12.25,22.48,12.25c8.93,0,17.32-5.4,24.58-14.83c14.29,8.12,27.4,10.24,37.05,4.67
			c8.5-4.91,13.17-15.13,14.24-28.73c11.2-1.71,19.62-6.22,23.93-13.7c5.02-8.7,3.8-20.2-2.42-32.84
			C344.54,283.31,351.27,274.01,351.27,264.03z"/>
		<path d="M389.2,173.59c-7.87-16.78-29.11-8.27-63.58,15.64c-9.3,6.45-16.85,12.63-22.94,18.24
			c-14.1-17.71-38.42-29.42-66.07-29.42c-27.98,0-52.56,11.99-66.58,30.07c-6.21-5.78-13.99-12.2-23.64-18.89
			c-34.47-23.91-55.71-32.43-63.58-15.64c-6.73,14.36,10.36,40.35,33.54,56.42c10.46,7.25,26.78,8.68,41.55,8.07
			c-0.15,1.65-0.23,3.31-0.23,4.98c0,12.41,4.22,24,11.54,33.86c15.71,21.26,17.95,71.7,39.7,91.62
			c12.8,11.72,35.13,19.64,51.37,3.57c16.64-16.48,29.65-72.92,43.46-94.81l0,0c7.5-9.94,11.83-21.67,11.83-34.23
			c0-1.66-0.08-3.31-0.23-4.94c14.44,0.49,30.16-1.06,40.33-8.12C378.84,213.93,395.94,187.95,389.2,173.59z"/>
	</g>
	<ellipse cx="191.58" cy="266.23" rx="7.11" ry="9.31"/>
	<ellipse cx="282.01" cy="266.23" rx="7.11" ry="9.31"/>
</g>
</svg>
