<svg xmlns="http://www.w3.org/2000/svg" width="103.75" height="103" viewBox="-837.5 -1687.5 103.75 103"><g fill="none"><path fill="#fff" d="M-820-1686h42.036c8.837 0 16 7.164 16 16v68c0 8.837-7.163 16-16 16H-820c-8.837 0-16-7.163-16-16v-68c0-8.836 7.163-16 16-16Z"/><path stroke="#000" stroke-linecap="round" stroke-linejoin="round" stroke-width="3" d="M-820-1686h42.036c8.837 0 16 7.164 16 16v68c0 8.837-7.163 16-16 16H-820c-8.837 0-16-7.163-16-16v-68c0-8.836 7.163-16 16-16Z"/><path fill="#fff" d="M-759.607-1597.805v-32.794h-39.853v32.794h39.853Z"/><path fill="#65727e" d="M-813.56-1622.742h73.81a6 6 0 0 1 6 6v4.088a6 6 0 0 1-6 6h-73.81a6 6 0 0 1-6-6v-4.088a6 6 0 0 1 6-6Z"/><path fill="#9f4c4c" d="m-783.982-1665.012-3.021-3.021-11.979 11.978-11.979-11.978-3.02 3.021 11.978 11.979-11.979 11.978 3.021 3.022 11.98-11.979 11.978 11.979 3.021-3.022-11.979-11.978Z"/><path stroke="#9f4c4c" stroke-linecap="round" stroke-linejoin="round" stroke-width="8" d="m-783.982-1665.012-3.021-3.021-11.979 11.978-11.979-11.978-3.02 3.021 11.978 11.979-11.979 11.978 3.021 3.022 11.98-11.979 11.978 11.979 3.021-3.022-11.979-11.978Z"/></g></svg>