<svg xmlns="http://www.w3.org/2000/svg" width="103.75" height="103" viewBox="-579.75 -1687.5 103.75 103"><g fill="none"><path fill="#fff" d="M-562.25-1686h42.037c8.836 0 16 7.164 16 16v68c0 8.837-7.164 16-16 16h-42.037c-8.836 0-16-7.163-16-16v-68c0-8.836 7.164-16 16-16Z"/><path stroke="#000" stroke-linecap="round" stroke-linejoin="round" stroke-width="3" d="M-562.25-1686h42.037c8.836 0 16 7.164 16 16v68c0 8.837-7.164 16-16 16h-42.037c-8.836 0-16-7.163-16-16v-68c0-8.836 7.164-16 16-16Z"/><path fill="#fff" d="M-502.107-1597.805v-32.794h-39.248v32.794h39.248Z"/><path fill="#65727e" d="M-555.81-1622.742H-482a6 6 0 0 1 6 6v4.088a6 6 0 0 1-6 6h-73.81a6 6 0 0 1-6-6v-4.088a6 6 0 0 1 6-6Z"/><path fill="#5c76a2" d="M-524.261-1649.7h-14.546v14.546h-4.849v-14.546h-14.546v-4.85h14.546v-14.545h4.849v14.546h14.546v4.849Z"/><path stroke="#518737" stroke-linecap="round" stroke-linejoin="round" stroke-width="8" d="M-524.261-1649.7h-14.546v14.546h-4.849v-14.546h-14.546v-4.85h14.546v-14.545h4.849v14.546h14.546v4.849Z"/></g></svg>