<svg xmlns="http://www.w3.org/2000/svg" viewBox="-832.625 -3291.165 25.25 25.25" width="25.25" height="25.25"><g fill="none"><path d="M-828.16-3290.54h16.32a3.84 3.84 0 0 1 3.84 3.84v16.32a3.84 3.84 0 0 1-3.84 3.84h-16.32a3.84 3.84 0 0 1-3.84-3.84v-16.32a3.84 3.84 0 0 1 3.84-3.84Z" fill="#fff"/><path d="M-828.16-3290.54h16.32a3.84 3.84 0 0 1 3.84 3.84v16.32a3.84 3.84 0 0 1-3.84 3.84h-16.32a3.84 3.84 0 0 1-3.84-3.84v-16.32a3.84 3.84 0 0 1 3.84-3.84Z" stroke="#000" stroke-linecap="round" stroke-linejoin="round" stroke-width=".25"/><path d="m-823.653-3269.463 1.692-6.46h4.5l-2.353 6.46Zm1.094-10.919c0-.344.068-.67.206-.98.138-.31.323-.578.557-.805a2.623 2.623 0 0 1 1.837-.733c.33 0 .65.066.96.196.31.131.578.31.805.537.227.227.41.495.547.805.138.31.206.636.206.98 0 .358-.068.688-.206.991a2.55 2.55 0 0 1-.547.784 2.59 2.59 0 0 1-.805.527c-.31.13-.63.196-.96.196a2.69 2.69 0 0 1-1.837-.722 2.466 2.466 0 0 1-.557-.785 2.366 2.366 0 0 1-.206-.99Z" fill="#5c76a2"/></g></svg>