<svg xmlns="http://www.w3.org/2000/svg" width="103" height="103.75" viewBox="-449.5 -1689.75 103 103.75"><g fill="none"><path fill="#fff" d="M-348-1672.25v42.036c0 8.837-7.163 16-16 16h-68c-8.837 0-16-7.163-16-16v-42.036c0-8.836 7.163-16 16-16h68c8.837 0 16 7.164 16 16Z"/><path stroke="#000" stroke-linecap="round" stroke-linejoin="round" stroke-width="3" d="M-348-1672.25v42.036c0 8.837-7.163 16-16 16h-68c-8.837 0-16-7.163-16-16v-42.036c0-8.836 7.163-16 16-16h68c8.837 0 16 7.164 16 16Z"/><path fill="#fff" d="M-392.209-1608.37h32.795v-43.34h-32.795v43.34Z"/><path fill="#65727e" d="M-367.272-1665.81v73.81a6 6 0 0 1-6 6h-4.088a6 6 0 0 1-6-6v-73.81a6 6 0 0 1 6-6h4.088a6 6 0 0 1 6 6Z"/><path fill="#9f4c4c" d="m-400.982-1661.605-2.617-2.617-10.374 10.374-10.373-10.374-2.617 2.617 10.374 10.373-10.374 10.374 2.617 2.617 10.373-10.374 10.374 10.374 2.617-2.617-10.374-10.374Z"/><path stroke="#9f4c4c" stroke-linecap="round" stroke-linejoin="round" stroke-width="8" d="m-400.982-1661.605-2.617-2.617-10.374 10.374-10.373-10.374-2.617 2.617 10.374 10.373-10.374 10.374 2.617 2.617 10.373-10.374 10.374 10.374 2.617-2.617-10.374-10.374Z"/></g></svg>