<svg xmlns="http://www.w3.org/2000/svg" viewBox="-992.625 -3291.165 25.25 25.125" width="25.25" height="25.125"><g fill="none"><path d="M-968-3286.7v9.951a3.84 3.84 0 0 1-3.84 3.84h-16.32a3.84 3.84 0 0 1-3.84-3.84v-9.951a3.84 3.84 0 0 1 3.84-3.84h16.32a3.84 3.84 0 0 1 3.84 3.84Z" fill="#fff"/><path d="M-968-3286.7v9.951a3.84 3.84 0 0 1-3.84 3.84h-16.32a3.84 3.84 0 0 1-3.84-3.84v-9.951a3.84 3.84 0 0 1 3.84-3.84h16.32a3.84 3.84 0 0 1 3.84 3.84Z" stroke="#000" stroke-linecap="round" stroke-linejoin="round" stroke-width=".25"/><path d="M-979.2-3272.737h7.87v-10.32h-7.87v10.32Z" fill="#fff"/><path d="M-972.625-3285.534v17.554a1.44 1.44 0 0 1-1.44 1.44h-.981a1.44 1.44 0 0 1-1.44-1.44v-17.554c0-.796.644-1.44 1.44-1.44h.98c.796 0 1.44.644 1.44 1.44Z" fill="#65727e"/><path d="M-984.566-3277.683v-2.984a.48.48 0 0 0-.48-.48h-2.531a.48.48 0 0 1-.48-.48v-.195a.48.48 0 0 1 .48-.48h2.53a.48.48 0 0 0 .48-.48v-2.504a.48.48 0 0 1 .48-.48h.205a.48.48 0 0 1 .48.48v2.504c0 .265.215.48.48.48h2.53a.48.48 0 0 1 .48.48v.195a.48.48 0 0 1-.48.48h-2.53a.48.48 0 0 0-.48.48v2.504a.48.48 0 0 1-.48.48h-.684Z" fill="#5c76a2"/><path d="M-984.566-3277.683v-2.984a.48.48 0 0 0-.48-.48h-2.531a.48.48 0 0 1-.48-.48v-.195a.48.48 0 0 1 .48-.48h2.53a.48.48 0 0 0 .48-.48s0 0 0 0v-2.504a.48.48 0 0 1 .48-.48s0 0 0 0h.205a.48.48 0 0 1 .48.48v2.504c0 .265.215.48.48.48h2.53a.48.48 0 0 1 .48.48v.195a.48.48 0 0 1-.48.48h-2.53a.48.48 0 0 0-.48.48v2.504a.48.48 0 0 1-.48.48h-.684Z" stroke="#518737" stroke-linecap="round" stroke-linejoin="round" stroke-width="1.92"/></g></svg>