<svg xmlns="http://www.w3.org/2000/svg" viewBox="-792.625 -3291.165 25.25 25.25" width="25.25" height="25.25"><g fill="none"><path d="M-788.16-3290.54h16.32a3.84 3.84 0 0 1 3.84 3.84v16.32a3.84 3.84 0 0 1-3.84 3.84h-16.32a3.84 3.84 0 0 1-3.84-3.84v-16.32a3.84 3.84 0 0 1 3.84-3.84Z" fill="#fff"/><path d="M-788.16-3290.54h16.32a3.84 3.84 0 0 1 3.84 3.84v16.32a3.84 3.84 0 0 1-3.84 3.84h-16.32a3.84 3.84 0 0 1-3.84-3.84v-16.32a3.84 3.84 0 0 1 3.84-3.84Z" stroke="#000" stroke-linecap="round" stroke-linejoin="round" stroke-width=".25"/><path d="M-773.72-3281.843h-12.72a2.88 2.88 0 1 1 0-5.76h12.72a2.88 2.88 0 1 1 0 5.76Z" fill="#65727e"/><path d="M-773.72-3281.843h-12.72a2.88 2.88 0 0 1-2.88-2.88h0a2.88 2.88 0 0 1 2.88-2.88h12.72a2.88 2.88 0 0 1 2.88 2.88h0a2.88 2.88 0 0 1-2.88 2.88s0 0 0 0Z" stroke="#65727e" stroke-linecap="round" stroke-linejoin="round" stroke-width=".72"/><path fill="#65727e" d="M-789.321-3284.156h18.48v2.314h-18.48z"/><path stroke="#65727e" stroke-linecap="round" stroke-linejoin="round" stroke-width=".72" d="M-789.321-3284.156h18.48v2.314h-18.48z"/></g></svg>