<svg xmlns="http://www.w3.org/2000/svg" width="103" height="103.75" viewBox="-713.5 -1689.75 103 103.75"><g fill="none"><path fill="#fff" d="M-612-1672.25v42.036c0 8.837-7.163 16-16 16h-68c-8.837 0-16-7.163-16-16v-42.036c0-8.836 7.163-16 16-16h68c8.837 0 16 7.164 16 16Z"/><path stroke="#000" stroke-linecap="round" stroke-linejoin="round" stroke-width="3" d="M-612-1672.25v42.036c0 8.837-7.163 16-16 16h-68c-8.837 0-16-7.163-16-16v-42.036c0-8.836 7.163-16 16-16h68c8.837 0 16 7.164 16 16Z"/><path fill="#fff" d="M-656.209-1608.37h32.795v-43.34h-32.795v43.34Z"/><path fill="#65727e" d="M-631.272-1665.81v73.81a6 6 0 0 1-6 6h-4.088a6 6 0 0 1-6-6v-73.81a6 6 0 0 1 6-6h4.088a6 6 0 0 1 6 6Z"/><path fill="#5c76a2" d="M-681.025-1634.261v-12.546a2 2 0 0 0-2-2h-10.547a2 2 0 0 1-2-2v-.849a2 2 0 0 1 2-2h10.547a2 2 0 0 0 2-2v-10.546a2 2 0 0 1 2-2h.848a2 2 0 0 1 2 2v10.546a2 2 0 0 0 2 2h10.547a2 2 0 0 1 2 2v.849a2 2 0 0 1-2 2h-10.547a2 2 0 0 0-2 2v10.546a2 2 0 0 1-2 2h-2.848Z"/><path stroke="#518737" stroke-linecap="round" stroke-linejoin="round" stroke-width="8" d="M-681.025-1634.261v-12.546a2 2 0 0 0-2-2h-10.547a2 2 0 0 1-2-2v-.849a2 2 0 0 1 2-2h10.547a2 2 0 0 0 2-2s0 0 0 0v-10.546a2 2 0 0 1 2-2s0 0 0 0h.848a2 2 0 0 1 2 2v10.546a2 2 0 0 0 2 2h10.547a2 2 0 0 1 2 2v.849a2 2 0 0 1-2 2h-10.547a2 2 0 0 0-2 2v10.546a2 2 0 0 1-2 2h-2.848Z"/></g></svg>