<svg xmlns="http://www.w3.org/2000/svg" viewBox="-952.625 -3291.165 25.125 25.25" width="25.125" height="25.25"><g fill="none"><path d="M-948.245-3290.54h9.867a3.756 3.756 0 0 1 3.756 3.756v16.489a3.755 3.755 0 0 1-3.756 3.755h-9.866a3.755 3.755 0 0 1-3.756-3.755v-16.49a3.756 3.756 0 0 1 3.755-3.755Z" fill="#fff"/><path d="M-948.245-3290.54h9.867a3.756 3.756 0 0 1 3.756 3.756v16.489a3.755 3.755 0 0 1-3.756 3.755h-9.866a3.755 3.755 0 0 1-3.756-3.755v-16.49a3.756 3.756 0 0 1 3.755-3.755Z" stroke="#000" stroke-linecap="round" stroke-linejoin="round" stroke-width=".25"/><path d="M-934.413-3269.373v-7.87h-9.212v7.87h9.212Z" fill="#fff"/><path d="M-946.733-3275.358h17.325c.778 0 1.408.63 1.408 1.408v1.045c0 .778-.63 1.408-1.408 1.408h-17.325c-.778 0-1.408-.63-1.408-1.408v-1.045c0-.777.63-1.408 1.408-1.408Z" fill="#65727e"/><path d="M-939.328-3281.828h-3.414v3.491h-1.138v-3.491h-3.414v-1.164h3.414v-3.491h1.138v3.491h3.414v1.164Z" fill="#5c76a2"/><path d="M-939.328-3281.828h-3.414v3.491h-1.138v-3.491h-3.414v-1.164h3.414v-3.491h1.138v3.491h3.414v1.164Z" stroke="#518737" stroke-linecap="round" stroke-linejoin="round" stroke-width="1.878"/></g></svg>