<svg xmlns="http://www.w3.org/2000/svg" viewBox="-912.625 -3291.165 25.25 25.125" width="25.25" height="25.125"><g fill="none"><path d="M-888-3286.7v9.951a3.84 3.84 0 0 1-3.84 3.84h-16.32a3.84 3.84 0 0 1-3.84-3.84v-9.951a3.84 3.84 0 0 1 3.84-3.84h16.32a3.84 3.84 0 0 1 3.84 3.84Z" fill="#fff"/><path d="M-888-3286.7v9.951a3.84 3.84 0 0 1-3.84 3.84h-16.32a3.84 3.84 0 0 1-3.84-3.84v-9.951a3.84 3.84 0 0 1 3.84-3.84h16.32a3.84 3.84 0 0 1 3.84 3.84Z" stroke="#000" stroke-linecap="round" stroke-linejoin="round" stroke-width=".25"/><path d="M-898.61-3272.65h7.87v-10.321h-7.87v10.32Z" fill="#fff"/><path d="M-892.625-3285.534v17.554a1.44 1.44 0 0 1-1.44 1.44h-.981a1.44 1.44 0 0 1-1.44-1.44v-17.554c0-.796.644-1.44 1.44-1.44h.98c.796 0 1.44.644 1.44 1.44Z" fill="#65727e"/><path d="m-900.716-3284.195-.628-.623-2.49 2.47-2.49-2.47-.627.623 2.49 2.47-2.49 2.47.628.624 2.49-2.47 2.49 2.47.627-.623-2.49-2.47Z" fill="#9f4c4c"/><path d="m-900.716-3284.195-.628-.623-2.49 2.47-2.49-2.47-.627.623 2.49 2.47-2.49 2.47.628.624 2.49-2.47 2.49 2.47.627-.623-2.49-2.47Z" stroke="#9f4c4c" stroke-linecap="round" stroke-linejoin="round" stroke-width="1.92"/></g></svg>