<svg xmlns="http://www.w3.org/2000/svg" width="103" height="117" viewBox="-193.5 -1694.5 103 117"><g fill="none"><path fill="#fff" d="M-176-1686h68c8.837 0 16 7.164 16 16v68c0 8.837-7.163 16-16 16h-68c-8.837 0-16-7.163-16-16v-68c0-8.836 7.163-16 16-16Z"/><path stroke="#000" stroke-linecap="round" stroke-linejoin="round" stroke-width="3" d="M-176-1686h68c8.837 0 16 7.164 16 16v68c0 8.837-7.163 16-16 16h-68c-8.837 0-16-7.163-16-16v-68c0-8.836 7.163-16 16-16Z"/><text fill="#5c76a2" transform="translate(-187 -1694.5)">
          <tspan x="28.66" y="86" font-family="Avenir Next" font-size="86" font-weight="bold">;</tspan>
        </text></g></svg>