<svg xmlns="http://www.w3.org/2000/svg" width="103" height="103" viewBox="-719.5 -1433.5 103 103"><g fill="none"><path fill="#fff" d="M-702-1432h68c8.837 0 16 7.163 16 16v68c0 8.836-7.163 16-16 16h-68c-8.837 0-16-7.164-16-16v-68c0-8.837 7.163-16 16-16Z"/><path stroke="#000" stroke-linecap="round" stroke-linejoin="round" stroke-width="3" d="M-702-1432h68c8.837 0 16 7.163 16 16v68c0 8.836-7.163 16-16 16h-68c-8.837 0-16-7.164-16-16v-68c0-8.837 7.163-16 16-16Z"/><path fill="#65727e" d="M-641.837-1395.762h-53c-6.627 0-12-5.372-12-12 0-6.627 5.373-12 12-12h53c6.627 0 12 5.373 12 12 0 6.628-5.373 12-12 12Z"/><path stroke="#65727e" stroke-linecap="round" stroke-linejoin="round" stroke-width="3" d="M-641.837-1395.762h-53c-6.627 0-12-5.372-12-12h0c0-6.627 5.373-12 12-12h53c6.627 0 12 5.373 12 12h0c0 6.628-5.373 12-12 12 0 0 0 0 0 0Z"/><path fill="#65727e" d="M-706.837-1405.401h77v9.64h-77z"/><path stroke="#65727e" stroke-linecap="round" stroke-linejoin="round" stroke-width="3" d="M-706.837-1405.401h77v9.64h-77z"/></g></svg>