<svg xmlns="http://www.w3.org/2000/svg" viewBox="-872.625 -3291.165 25.125 25.25" width="25.125" height="25.25"><g fill="none"><path d="M-868.245-3290.54h9.867a3.756 3.756 0 0 1 3.756 3.756v16.489a3.755 3.755 0 0 1-3.756 3.755h-9.866a3.755 3.755 0 0 1-3.756-3.755v-16.49a3.756 3.756 0 0 1 3.755-3.755Z" fill="#fff"/><path d="M-868.245-3290.54h9.867a3.756 3.756 0 0 1 3.756 3.756v16.489a3.755 3.755 0 0 1-3.756 3.755h-9.866a3.755 3.755 0 0 1-3.756-3.755v-16.49a3.756 3.756 0 0 1 3.755-3.755Z" stroke="#000" stroke-linecap="round" stroke-linejoin="round" stroke-width=".25"/><path d="M-854.48-3269.492v-7.87h-9.354v7.87h9.354Z" fill="#fff"/><path d="M-866.733-3275.358h17.325c.778 0 1.408.63 1.408 1.408v1.045c0 .778-.63 1.408-1.408 1.408h-17.325c-.778 0-1.408-.63-1.408-1.408v-1.045c0-.777.63-1.408 1.408-1.408Z" fill="#65727e"/><path d="m-859.79-3285.503-.71-.725-2.811 2.875-2.812-2.875-.709.725 2.812 2.875-2.812 2.875.71.725 2.81-2.875 2.813 2.875.709-.725-2.812-2.875Z" fill="#9f4c4c"/><path d="m-859.79-3285.503-.71-.725-2.811 2.875-2.812-2.875-.709.725 2.812 2.875-2.812 2.875.71.725 2.81-2.875 2.813 2.875.709-.725-2.812-2.875Z" stroke="#9f4c4c" stroke-linecap="round" stroke-linejoin="round" stroke-width="1.878"/></g></svg>