<svg xmlns="http://www.w3.org/2000/svg" viewBox="-912.5 -3408.605 25 25" width="25" height="25"><g fill="none"><path d="M-908.245-3408.105h9.958a3.756 3.756 0 0 1 3.755 3.756v16.489a3.755 3.755 0 0 1-3.755 3.755h-9.957a3.755 3.755 0 0 1-3.756-3.755v-16.489a3.756 3.756 0 0 1 3.755-3.756Z" fill="#fff"/><path d="M-908.245-3408.105h9.958a3.756 3.756 0 0 1 3.755 3.756v16.489a3.755 3.755 0 0 1-3.755 3.755h-9.957a3.755 3.755 0 0 1-3.756-3.755v-16.489a3.756 3.756 0 0 1 3.755-3.756Z" stroke="#000" stroke-linecap="round" stroke-linejoin="round" stroke-width=".25"/><path d="M-894.321-3386.938v-7.87h-9.26v7.87h9.26Z" fill="#fff"/><path d="M-906.713-3392.923h17.43c.778 0 1.408.63 1.408 1.409v1.044c0 .778-.63 1.408-1.408 1.408h-17.43c-.778 0-1.408-.63-1.408-1.408v-1.044c0-.778.63-1.409 1.408-1.409Z" fill="#65727e"/><path d="M-899.262-3399.393h-3.432v3.491h-1.144v-3.491h-3.432v-1.164h3.432v-3.49h1.144v3.49h3.432v1.164Z" fill="#5c76a2"/><path d="M-899.262-3399.393h-3.432v3.491h-1.144v-3.491h-3.432v-1.164h3.432v-3.49h1.144v3.49h3.432v1.164Z" stroke="#518737" stroke-linecap="round" stroke-linejoin="round" stroke-width="1.878"/></g></svg>