<svg xmlns="http://www.w3.org/2000/svg" viewBox="-952.5 -3410.5 25 25" width="25" height="25"><g fill="none"><path d="M-928-3406.16v10.043a3.84 3.84 0 0 1-3.84 3.84h-16.32a3.84 3.84 0 0 1-3.84-3.84v-10.043a3.84 3.84 0 0 1 3.84-3.84h16.32a3.84 3.84 0 0 1 3.84 3.84Z" fill="#fff"/><path d="M-928-3406.16v10.043a3.84 3.84 0 0 1-3.84 3.84h-16.32a3.84 3.84 0 0 1-3.84-3.84v-10.043a3.84 3.84 0 0 1 3.84-3.84h16.32a3.84 3.84 0 0 1 3.84 3.84Z" stroke="#000" stroke-linecap="round" stroke-linejoin="round" stroke-width=".25"/><path d="M-939.2-3392.104h7.87v-10.375h-7.87v10.375Z" fill="#fff"/><path d="M-932.625-3404.976v17.661a1.44 1.44 0 0 1-1.44 1.44h-.981a1.44 1.44 0 0 1-1.44-1.44v-17.661c0-.795.644-1.44 1.44-1.44h.98c.796 0 1.44.645 1.44 1.44Z" fill="#65727e"/><path d="M-944.566-3397.076v-3.002a.48.48 0 0 0-.48-.48h-2.531a.48.48 0 0 1-.48-.48v-.201a.48.48 0 0 1 .48-.48h2.53a.48.48 0 0 0 .48-.48v-2.522a.48.48 0 0 1 .48-.48h.205a.48.48 0 0 1 .48.48v2.522c0 .265.215.48.48.48h2.53a.48.48 0 0 1 .48.48v.2a.48.48 0 0 1-.48.48h-2.53a.48.48 0 0 0-.48.48v2.523a.48.48 0 0 1-.48.48h-.684Z" fill="#5c76a2"/><path d="M-944.566-3397.076v-3.002a.48.48 0 0 0-.48-.48h-2.531a.48.48 0 0 1-.48-.48v-.201a.48.48 0 0 1 .48-.48h2.53a.48.48 0 0 0 .48-.48s0 0 0 0v-2.522a.48.48 0 0 1 .48-.48s0 0 0 0h.205a.48.48 0 0 1 .48.48v2.522c0 .265.215.48.48.48h2.53a.48.48 0 0 1 .48.48v.2a.48.48 0 0 1-.48.48h-2.53a.48.48 0 0 0-.48.48v2.523a.48.48 0 0 1-.48.48h-.684Z" stroke="#518737" stroke-linecap="round" stroke-linejoin="round" stroke-width="1.92"/></g></svg>