<svg xmlns="http://www.w3.org/2000/svg" width="24.875" height="25" viewBox="-942.09 -3411.226 24.875 25"><g fill="none"><path fill="#fff" d="M-937.835-3410.726h9.867a3.756 3.756 0 0 1 3.755 3.755v16.489a3.756 3.756 0 0 1-3.755 3.756h-9.867a3.756 3.756 0 0 1-3.755-3.756v-16.489a3.755 3.755 0 0 1 3.755-3.755Z"/><path stroke="#000" stroke-linecap="round" stroke-linejoin="round" stroke-width=".25" d="M-937.835-3410.726h9.867a3.756 3.756 0 0 1 3.755 3.755v16.489a3.756 3.756 0 0 1-3.755 3.756h-9.867a3.756 3.756 0 0 1-3.755-3.756v-16.489a3.755 3.755 0 0 1 3.755-3.755Z"/><path fill="#fff" d="M-924.003-3389.56v-7.87h-9.212v7.87h9.212Z"/><path fill="#65727e" d="M-936.323-3395.544H-919c.778 0 1.409.63 1.409 1.408v1.044c0 .778-.63 1.409-1.409 1.409h-17.324c-.778 0-1.409-.631-1.409-1.409v-1.044c0-.778.631-1.409 1.409-1.409Z"/><path fill="#5c76a2" d="M-928.918-3402.015h-3.414v3.492h-1.139v-3.492h-3.414v-1.163h3.414v-3.491h1.139v3.49h3.414v1.164Z"/><path stroke="#518737" stroke-linecap="round" stroke-linejoin="round" stroke-width="1.878" d="M-928.918-3402.015h-3.414v3.492h-1.139v-3.492h-3.414v-1.163h3.414v-3.491h1.139v3.49h3.414v1.164Z"/></g></svg>