<svg xmlns="http://www.w3.org/2000/svg" width="25" height="24.875" viewBox="-982.09 -3413.122 25 24.875"><g fill="none"><path fill="#fff" d="M-957.59-3408.782v9.951a3.84 3.84 0 0 1-3.84 3.84h-16.32a3.84 3.84 0 0 1-3.84-3.84v-9.95a3.84 3.84 0 0 1 3.84-3.84h16.32a3.84 3.84 0 0 1 3.84 3.84Z"/><path stroke="#000" stroke-linecap="round" stroke-linejoin="round" stroke-width=".25" d="M-957.59-3408.782v9.951a3.84 3.84 0 0 1-3.84 3.84h-16.32a3.84 3.84 0 0 1-3.84-3.84v-9.95a3.84 3.84 0 0 1 3.84-3.84h16.32a3.84 3.84 0 0 1 3.84 3.84Z"/><path fill="#fff" d="M-968.79-3394.818h7.87v-10.321h-7.87v10.32Z"/><path fill="#65727e" d="M-962.216-3407.616v17.554a1.44 1.44 0 0 1-1.44 1.44h-.98a1.44 1.44 0 0 1-1.44-1.44v-17.554c0-.795.644-1.44 1.44-1.44h.98c.796 0 1.44.645 1.44 1.44Z"/><path fill="#5c76a2" d="M-974.156-3399.765v-2.984a.48.48 0 0 0-.48-.48h-2.532a.48.48 0 0 1-.48-.48v-.195a.48.48 0 0 1 .48-.48h2.532a.48.48 0 0 0 .48-.48v-2.504a.48.48 0 0 1 .48-.48h.203a.48.48 0 0 1 .48.48v2.504c0 .265.215.48.48.48h2.531a.48.48 0 0 1 .48.48v.195a.48.48 0 0 1-.48.48h-2.53a.48.48 0 0 0-.48.48v2.504a.48.48 0 0 1-.48.48h-.684Z"/><path stroke="#518737" stroke-linecap="round" stroke-linejoin="round" stroke-width="1.92" d="M-974.156-3399.765v-2.984a.48.48 0 0 0-.48-.48h-2.532a.48.48 0 0 1-.48-.48v-.195a.48.48 0 0 1 .48-.48h2.532a.48.48 0 0 0 .48-.48s0 0 0 0v-2.504a.48.48 0 0 1 .48-.48s0 0 0 0h.203a.48.48 0 0 1 .48.48v2.504c0 .265.215.48.48.48h2.531a.48.48 0 0 1 .48.48v.195a.48.48 0 0 1-.48.48h-2.53a.48.48 0 0 0-.48.48v2.504a.48.48 0 0 1-.48.48h-.684Z"/></g></svg>