<svg xmlns="http://www.w3.org/2000/svg" width="24.875" height="25" viewBox="-862.09 -3411.226 24.875 25"><g fill="none"><path fill="#fff" d="M-857.835-3410.726h9.867a3.756 3.756 0 0 1 3.755 3.755v16.489a3.756 3.756 0 0 1-3.755 3.756h-9.867a3.756 3.756 0 0 1-3.755-3.756v-16.489a3.755 3.755 0 0 1 3.755-3.755Z"/><path stroke="#000" stroke-linecap="round" stroke-linejoin="round" stroke-width=".25" d="M-857.835-3410.726h9.867a3.756 3.756 0 0 1 3.755 3.755v16.489a3.756 3.756 0 0 1-3.755 3.756h-9.867a3.756 3.756 0 0 1-3.755-3.756v-16.489a3.755 3.755 0 0 1 3.755-3.755Z"/><path fill="#fff" d="M-843.825-3389.679v-7.87h-9.354v7.87h9.354Z"/><path fill="#65727e" d="M-856.323-3395.544H-839c.778 0 1.409.63 1.409 1.408v1.044c0 .778-.63 1.409-1.409 1.409h-17.324c-.778 0-1.409-.631-1.409-1.409v-1.044c0-.778.631-1.409 1.409-1.409Z"/><path fill="#9f4c4c" d="m-849.38-3405.69-.71-.724-2.811 2.874-2.812-2.874-.71.725 2.812 2.875-2.811 2.874.709.726 2.812-2.875 2.811 2.875.71-.726-2.812-2.874Z"/><path stroke="#9f4c4c" stroke-linecap="round" stroke-linejoin="round" stroke-width="1.878" d="m-849.38-3405.69-.71-.724-2.811 2.874-2.812-2.874-.71.725 2.812 2.875-2.811 2.874.709.726 2.812-2.875 2.811 2.875.71-.726-2.812-2.874Z"/></g></svg>