<svg xmlns="http://www.w3.org/2000/svg" viewBox="-872.5 -3408.605 25 25" width="25" height="25"><g fill="none"><path d="M-848-3404.265v10.043a3.84 3.84 0 0 1-3.84 3.84h-16.32a3.84 3.84 0 0 1-3.84-3.84v-10.043a3.84 3.84 0 0 1 3.84-3.84h16.32a3.84 3.84 0 0 1 3.84 3.84Z" fill="#fff"/><path d="M-848-3404.265v10.043a3.84 3.84 0 0 1-3.84 3.84h-16.32a3.84 3.84 0 0 1-3.84-3.84v-10.043a3.84 3.84 0 0 1 3.84-3.84h16.32a3.84 3.84 0 0 1 3.84 3.84Z" stroke="#000" stroke-linecap="round" stroke-linejoin="round" stroke-width=".25"/><path d="M-858.61-3390.122h7.87v-10.375h-7.87v10.375Z" fill="#fff"/><path d="M-852.625-3403.08v17.66a1.44 1.44 0 0 1-1.44 1.44h-.981a1.44 1.44 0 0 1-1.44-1.44v-17.66c0-.796.644-1.44 1.44-1.44h.98c.796 0 1.44.644 1.44 1.44Z" fill="#65727e"/><path d="m-860.716-3401.727-.628-.626-2.49 2.483-2.49-2.483-.627.626 2.49 2.483-2.49 2.484.628.626 2.49-2.483 2.49 2.483.627-.626-2.49-2.483Z" fill="#9f4c4c"/><path d="m-860.716-3401.727-.628-.626-2.49 2.483-2.49-2.483-.627.626 2.49 2.483-2.49 2.484.628.626 2.49-2.483 2.49 2.483.627-.626-2.49-2.483Z" stroke="#9f4c4c" stroke-linecap="round" stroke-linejoin="round" stroke-width="1.92"/></g></svg>