<svg xmlns="http://www.w3.org/2000/svg" viewBox="-832.5 -3408.605 25 25" width="25" height="25"><g fill="none"><path d="M-828.245-3408.105h9.533a3.756 3.756 0 0 1 3.755 3.756v16.489a3.755 3.755 0 0 1-3.755 3.755h-9.533a3.755 3.755 0 0 1-3.755-3.755v-16.489a3.756 3.756 0 0 1 3.755-3.756Z" fill="#fff"/><path d="M-828.245-3408.105h9.533a3.756 3.756 0 0 1 3.755 3.756v16.489a3.755 3.755 0 0 1-3.755 3.755h-9.533a3.755 3.755 0 0 1-3.755-3.755v-16.489a3.756 3.756 0 0 1 3.755-3.756Z" stroke="#000" stroke-linecap="round" stroke-linejoin="round" stroke-width=".25"/><path d="M-814.577-3387.057v-7.87h-9.174v7.87h9.174Z" fill="#fff"/><path d="M-826.22-3392.923h16.937c.778 0 1.408.63 1.408 1.409v1.044c0 .778-.63 1.408-1.408 1.408h-16.937c-.778 0-1.408-.63-1.408-1.408v-1.044c0-.778.63-1.409 1.408-1.409Z" fill="#65727e"/><path d="m-820.025-3403.068-.696-.725-2.758 2.875-2.757-2.875-.696.725 2.758 2.875-2.758 2.875.696.725 2.757-2.875 2.758 2.875.696-.725-2.758-2.875Z" fill="#9f4c4c"/><path d="m-820.025-3403.068-.696-.725-2.758 2.875-2.757-2.875-.696.725 2.758 2.875-2.758 2.875.696.725 2.757-2.875 2.758 2.875.696-.725-2.758-2.875Z" stroke="#9f4c4c" stroke-linecap="round" stroke-linejoin="round" stroke-width="1.878"/></g></svg>