<svg xmlns="http://www.w3.org/2000/svg" width="25" height="24.875" viewBox="-902.09 -3411.226 25 24.875"><g fill="none"><path fill="#fff" d="M-877.59-3406.886v9.95a3.84 3.84 0 0 1-3.84 3.84h-16.32a3.84 3.84 0 0 1-3.84-3.84v-9.95a3.84 3.84 0 0 1 3.84-3.84h16.32a3.84 3.84 0 0 1 3.84 3.84Z"/><path stroke="#000" stroke-linecap="round" stroke-linejoin="round" stroke-width=".25" d="M-877.59-3406.886v9.95a3.84 3.84 0 0 1-3.84 3.84h-16.32a3.84 3.84 0 0 1-3.84-3.84v-9.95a3.84 3.84 0 0 1 3.84-3.84h16.32a3.84 3.84 0 0 1 3.84 3.84Z"/><path fill="#fff" d="M-888.2-3392.837h7.87v-10.321h-7.87v10.321Z"/><path fill="#65727e" d="M-882.216-3405.721v17.555a1.44 1.44 0 0 1-1.44 1.44h-.98a1.44 1.44 0 0 1-1.44-1.44v-17.555c0-.795.644-1.44 1.44-1.44h.98c.796 0 1.44.645 1.44 1.44Z"/><path fill="#9f4c4c" d="m-890.306-3404.381-.628-.624-2.49 2.471-2.49-2.47-.627.623 2.49 2.47-2.49 2.47.628.623 2.49-2.47 2.489 2.47.628-.623-2.49-2.47Z"/><path stroke="#9f4c4c" stroke-linecap="round" stroke-linejoin="round" stroke-width="1.92" d="m-890.306-3404.381-.628-.624-2.49 2.471-2.49-2.47-.627.623 2.49 2.47-2.49 2.47.628.623 2.49-2.47 2.489 2.47.628-.623-2.49-2.47Z"/></g></svg>