<svg xmlns="http://www.w3.org/2000/svg" width="25" height="25" viewBox="-702.09 -3413.122 25 25"><g fill="none"><path fill="#fff" d="M-697.75-3412.622h16.32a3.84 3.84 0 0 1 3.84 3.84v16.32a3.84 3.84 0 0 1-3.84 3.84h-16.32a3.84 3.84 0 0 1-3.84-3.84v-16.32a3.84 3.84 0 0 1 3.84-3.84Z"/><path stroke="#000" stroke-linecap="round" stroke-linejoin="round" stroke-width=".25" d="M-697.75-3412.622h16.32a3.84 3.84 0 0 1 3.84 3.84v16.32a3.84 3.84 0 0 1-3.84 3.84h-16.32a3.84 3.84 0 0 1-3.84-3.84v-16.32a3.84 3.84 0 0 1 3.84-3.84Z"/><path fill="#5c76a2" d="m-693.244-3391.545 1.693-6.46h4.5l-2.353 6.46Zm1.094-10.918c0-.344.07-.671.207-.981.137-.31.323-.578.557-.805a2.627 2.627 0 0 1 1.837-.733c.33 0 .65.066.96.197.31.13.578.309.805.536.227.227.41.495.547.805.137.31.206.637.206.98 0 .358-.069.688-.206.991a2.55 2.55 0 0 1-.547.785 2.596 2.596 0 0 1-1.765.722 2.696 2.696 0 0 1-1.837-.722 2.466 2.466 0 0 1-.557-.785 2.365 2.365 0 0 1-.207-.99Z"/></g></svg>