<svg xmlns="http://www.w3.org/2000/svg" width="25" height="25" viewBox="-662.09 -3413.122 25 25"><g fill="none"><path fill="#fff" d="M-657.75-3412.622h16.32a3.84 3.84 0 0 1 3.84 3.84v16.32a3.84 3.84 0 0 1-3.84 3.84h-16.32a3.84 3.84 0 0 1-3.84-3.84v-16.32a3.84 3.84 0 0 1 3.84-3.84Z"/><path stroke="#000" stroke-linecap="round" stroke-linejoin="round" stroke-width=".25" d="M-657.75-3412.622h16.32a3.84 3.84 0 0 1 3.84 3.84v16.32a3.84 3.84 0 0 1-3.84 3.84h-16.32a3.84 3.84 0 0 1-3.84-3.84v-16.32a3.84 3.84 0 0 1 3.84-3.84Z"/><path fill="#65727e" d="M-643.311-3403.925h-12.72a2.88 2.88 0 0 1 0-5.76h12.72a2.88 2.88 0 0 1 0 5.76Z"/><path stroke="#65727e" stroke-linecap="round" stroke-linejoin="round" stroke-width=".72" d="M-643.311-3403.925h-12.72a2.88 2.88 0 0 1-2.88-2.88h0a2.88 2.88 0 0 1 2.88-2.88h12.72a2.88 2.88 0 0 1 2.88 2.88h0a2.88 2.88 0 0 1-2.88 2.88s0 0 0 0Z"/><path fill="#65727e" d="M-658.911-3406.238h18.48v2.314h-18.48z"/><path stroke="#65727e" stroke-linecap="round" stroke-linejoin="round" stroke-width=".72" d="M-658.911-3406.238h18.48v2.314h-18.48z"/></g></svg>