<svg xmlns="http://www.w3.org/2000/svg" width="16.766" height="17" viewBox="-661.965 -3613.122 16.766 17"><g fill="none"><path fill="#fff" d="M-649.275-3612.622h-8.455v16h12.03v-12.485Z"/><path stroke="#9da9b5" stroke-linecap="round" stroke-linejoin="round" stroke-width=".25" d="M-649.275-3612.622h-8.455v16h12.03v-12.485Z"/><path fill="#fff" d="m-649.276-3612.622 3.576 3.577h-3.576Z"/><path stroke="#9da9b5" stroke-linecap="round" stroke-linejoin="round" stroke-width=".25" d="m-649.276-3612.622 3.576 3.577h-3.576Z"/><path fill="#cdcdcd" d="M-650.257-3605.06a1.486 1.486 0 0 0-.553-.429 1.561 1.561 0 0 0-.991-.13.859.859 0 0 0-.303.111.75.75 0 0 0-.227.212.563.563 0 0 0-.091.332c0 .115.024.212.072.289a.642.642 0 0 0 .212.202c.093.057.204.11.332.159.128.048.273.097.433.149.23.077.471.162.722.255.25.093.478.216.683.37.205.154.375.345.51.573.135.228.202.512.202.852 0 .391-.072.73-.216 1.015a2.024 2.024 0 0 1-.583.707 2.492 2.492 0 0 1-.837.414c-.314.09-.638.135-.972.135-.487 0-.96-.085-1.415-.255a2.998 2.998 0 0 1-1.135-.727l1.078-1.097c.167.205.386.377.659.515s.544.207.813.207c.122 0 .24-.013.356-.039a.888.888 0 0 0 .303-.125.626.626 0 0 0 .207-.23.727.727 0 0 0 .077-.347.549.549 0 0 0-.096-.327.943.943 0 0 0-.274-.246 2.21 2.21 0 0 0-.443-.202 22.044 22.044 0 0 0-.601-.197 5.744 5.744 0 0 1-.64-.25 2.136 2.136 0 0 1-.559-.371 1.714 1.714 0 0 1-.394-.549 1.86 1.86 0 0 1-.15-.784c0-.378.078-.702.232-.972.154-.27.356-.49.606-.664.25-.173.532-.3.847-.38.314-.08.632-.12.953-.12.385 0 .778.07 1.179.211.4.142.752.35 1.053.626Z"/><path fill="#d07638" d="M-653.034-3606.992v2.163h-1.345v-2.163h-2.203v-1.303h2.193v-2.163h1.345v2.163h2.203v1.303Z"/></g></svg>