<svg xmlns="http://www.w3.org/2000/svg" width="17.016" height="17.25" viewBox="-752.5 -3570.625 17.016 17.25"><g fill="none"><path fill="#fff" d="M-739.685-3570h-8.454v16h12.03v-12.485Z"/><path stroke="#9da9b5" stroke-linecap="round" stroke-linejoin="round" stroke-width=".25" d="M-739.685-3570h-8.454v16h12.03v-12.485Z"/><path fill="#fff" d="m-739.686-3570 3.577 3.577h-3.577Z"/><path stroke="#9da9b5" stroke-linecap="round" stroke-linejoin="round" stroke-width=".25" d="m-739.686-3570 3.577 3.577h-3.577Z"/><path fill="#9f4c4c" d="M-738.414-3560.831c0 .539-.093 1.031-.28 1.477a3.36 3.36 0 0 1-.774 1.145c-.33.318-.724.563-1.18.736-.455.174-.949.26-1.481.26a4.097 4.097 0 0 1-1.477-.26 3.457 3.457 0 0 1-1.175-.736 3.36 3.36 0 0 1-.774-1.145 3.8 3.8 0 0 1-.28-1.477c0-.546.094-1.038.28-1.478.186-.439.444-.813.774-1.121.33-.308.722-.545 1.174-.712.453-.167.945-.25 1.478-.25.532 0 1.026.083 1.482.25a3.44 3.44 0 0 1 1.179.712c.33.308.588.682.775 1.121.186.44.279.932.279 1.478Zm-1.762 0c0-.295-.048-.571-.144-.828a1.846 1.846 0 0 0-1.015-1.092 1.95 1.95 0 0 0-.794-.159c-.289 0-.552.053-.79.159a1.87 1.87 0 0 0-1.015 1.092c-.093.257-.14.533-.14.828 0 .308.049.591.145.851.096.26.23.483.4.669.17.186.373.332.61.438.238.106.501.159.79.159a1.871 1.871 0 0 0 1.405-.597c.173-.186.308-.409.404-.669.096-.26.144-.543.144-.851Z"/></g></svg>