<svg xmlns="http://www.w3.org/2000/svg" viewBox="-952.304 -3610.5 21 21" width="21" height="21"><g fill="none"><path d="M-936.229-3595.588a5.777 5.777 0 0 0 4.055-4.244 5.806 5.806 0 0 0-1.737-5.619 5.742 5.742 0 0 0-5.734-1.19 4.924 4.924 0 0 0-6.253-1.325 4.972 4.972 0 0 0-2.32 5.981h-.293a3.3 3.3 0 0 0-3.293 3.308 3.3 3.3 0 0 0 3.293 3.308h.823" fill="#fff"/><path d="M-936.229-3595.588a5.777 5.777 0 0 0 4.055-4.244 5.806 5.806 0 0 0-1.737-5.619 5.742 5.742 0 0 0-5.734-1.19 4.924 4.924 0 0 0-6.253-1.325 4.972 4.972 0 0 0-2.32 5.981h-.293a3.3 3.3 0 0 0-3.293 3.308 3.3 3.3 0 0 0 3.293 3.308h.823M-945.322-3594.744l3.293 3.308 3.292-3.308M-942.029-3591.436v-9.925" stroke="#000" stroke-linejoin="round" stroke-width=".25"/><path d="M-951.804-3610h20v20h-20z"/></g></svg>