<svg xmlns="http://www.w3.org/2000/svg" width="17.016" height="17.25" viewBox="-792.5 -3570.625 17.016 17.25"><g fill="none"><path fill="#fff" d="M-779.685-3570h-8.454v16h12.03v-12.485Z"/><path stroke="#9da9b5" stroke-linecap="round" stroke-linejoin="round" stroke-width=".25" d="M-779.685-3570h-8.454v16h12.03v-12.485Z"/><path fill="#fff" d="m-779.686-3570 3.577 3.577h-3.577Z"/><path stroke="#9da9b5" stroke-linecap="round" stroke-linejoin="round" stroke-width=".25" d="m-779.686-3570 3.577 3.577h-3.577Z"/><path fill="#5c76a2" d="M-779.069-3557.81a5.224 5.224 0 0 1-1.17.424 6.134 6.134 0 0 1-1.457.164 4.231 4.231 0 0 1-1.506-.26 3.478 3.478 0 0 1-1.184-.732 3.335 3.335 0 0 1-.775-1.13 3.727 3.727 0 0 1-.279-1.468c0-.546.095-1.04.284-1.482.19-.443.45-.82.784-1.131a3.47 3.47 0 0 1 1.174-.717c.45-.167.934-.25 1.454-.25.539 0 1.04.081 1.501.245.462.164.837.383 1.126.66l-1.04 1.183a1.8 1.8 0 0 0-.635-.457 2.153 2.153 0 0 0-.894-.178c-.29 0-.555.053-.8.159a1.92 1.92 0 0 0-.635.442c-.18.19-.319.414-.418.674-.1.26-.15.544-.15.852 0 .314.046.603.135.866.09.263.223.49.4.678.176.19.394.337.654.443.26.106.557.159.89.159.193 0 .376-.014.549-.043.173-.029.334-.076.481-.14v-1.241h-1.299v-1.329h2.81Z"/></g></svg>