<svg xmlns="http://www.w3.org/2000/svg" width="16.766" height="17" viewBox="-941.965 -3613.122 16.766 17"><g fill="none"><path fill="#fff" d="M-929.275-3612.622h-8.455v16h12.03v-12.485Z"/><path stroke="#9da9b5" stroke-linecap="round" stroke-linejoin="round" stroke-width=".25" d="M-929.275-3612.622h-8.455v16h12.03v-12.485Z"/><path fill="#fff" d="m-929.276-3612.575 3.576 3.577h-3.576Z"/><path stroke="#9da9b5" stroke-linecap="round" stroke-linejoin="round" stroke-width=".25" d="m-929.276-3612.575 3.576 3.577h-3.576Z"/><path fill="#a7967d" d="M-928.365-3600.96c-.302.346-.674.62-1.117.822-.443.202-.953.303-1.53.303a3.991 3.991 0 0 1-1.458-.26 3.425 3.425 0 0 1-1.16-.736 3.408 3.408 0 0 1-.77-1.14 3.738 3.738 0 0 1-.279-1.463c0-.545.095-1.04.284-1.482a3.3 3.3 0 0 1 .784-1.131 3.48 3.48 0 0 1 1.174-.717c.45-.167.934-.25 1.454-.25.48 0 .954.085 1.42.255.464.17.841.419 1.13.746l-1.116 1.116a1.382 1.382 0 0 0-.607-.471 2.01 2.01 0 0 0-.77-.154 1.95 1.95 0 0 0-.793.159c-.241.105-.448.251-.621.437a1.996 1.996 0 0 0-.404.66c-.097.253-.145.53-.145.832 0 .308.048.59.144.847.097.257.23.476.4.66.17.182.374.325.611.428.237.102.497.154.78.154.327 0 .612-.065.856-.193s.44-.295.587-.5Z"/></g></svg>