<svg xmlns="http://www.w3.org/2000/svg" xmlns:xl="http://www.w3.org/1999/xlink" width="20.77" height="21.063" version="1.1" viewBox="-632.375 -3610.531 20.77 21.063"><g id="ICONES" fill="none" fill-opacity="1" stroke="none" stroke-dasharray="none" stroke-opacity="1"><title>ICONES</title><g id="ICONES_Calque_1"><title>Calque 1</title><g id="Group_3302"><title>navigator/files/file.shapesupport</title><g id="Group_3042"><g id="Graphic_1262"><path fill="#fff" d="M -616.60645 -3610 L -627.1743 -3610 L -627.1743 -3590 L -612.1367 -3590 L -612.1367 -3605.607 Z"/><path stroke="#9da9b5" stroke-linecap="round" stroke-linejoin="round" stroke-width=".313" d="M -616.60645 -3610 L -627.1743 -3610 L -627.1743 -3590 L -612.1367 -3590 L -612.1367 -3605.607 Z"/></g><g id="Graphic_1261"><path fill="#fff" d="M -616.6076 -3610 L -612.1367 -3605.529 L -616.6076 -3605.529 Z"/><path stroke="#9da9b5" stroke-linecap="round" stroke-linejoin="round" stroke-width=".313" d="M -616.6076 -3610 L -612.1367 -3605.529 L -616.6076 -3605.529 Z"/></g><g id="Graphic_3025"><path fill="#cdcdcd" d="M -617.83295 -3600.5483 C -618.0094 -3600.773 -618.24 -3600.9513 -618.5247 -3601.0836 C -618.8094 -3601.216 -619.0841 -3601.282 -619.34874 -3601.282 C -619.4851 -3601.282 -619.6234 -3601.27 -619.7638 -3601.246 C -619.9041 -3601.222 -620.03045 -3601.176 -620.1427 -3601.1077 C -620.255 -3601.0395 -620.34924 -3600.9513 -620.4254 -3600.843 C -620.5016 -3600.7347 -620.5397 -3600.5964 -620.5397 -3600.428 C -620.5397 -3600.2836 -620.50965 -3600.1633 -620.4495 -3600.067 C -620.38934 -3599.971 -620.3011 -3599.8866 -620.1848 -3599.8144 C -620.06854 -3599.7423 -619.9302 -3599.676 -619.7698 -3599.616 C -619.6094 -3599.556 -619.42894 -3599.4936 -619.22844 -3599.4295 C -618.9397 -3599.3332 -618.639 -3599.227 -618.3262 -3599.1107 C -618.0134 -3598.9944 -617.7287 -3598.84 -617.47205 -3598.6475 C -617.2154 -3598.455 -617.0029 -3598.2164 -616.83446 -3597.9317 C -616.666 -3597.647 -616.5818 -3597.292 -616.5818 -3596.867 C -616.5818 -3596.378 -616.67205 -3595.955 -616.8525 -3595.598 C -617.03295 -3595.241 -617.27556 -3594.9463 -617.5803 -3594.7137 C -617.8851 -3594.481 -618.23395 -3594.3087 -618.62694 -3594.1964 C -619.0199 -3594.084 -619.4249 -3594.028 -619.842 -3594.028 C -620.4515 -3594.028 -621.041 -3594.1342 -621.6104 -3594.3468 C -622.1798 -3594.5593 -622.653 -3594.862 -623.02995 -3595.255 L -621.6826 -3596.6265 C -621.47406 -3596.37 -621.1994 -3596.1553 -620.8585 -3595.983 C -620.5177 -3595.8104 -620.1788 -3595.724 -619.842 -3595.724 C -619.6896 -3595.724 -619.5412 -3595.7403 -619.3969 -3595.7723 C -619.2525 -3595.8044 -619.1262 -3595.8565 -619.0179 -3595.9287 C -618.90964 -3596.001 -618.8234 -3596.097 -618.7593 -3596.2174 C -618.6951 -3596.3377 -618.663 -3596.482 -618.663 -3596.6505 C -618.663 -3596.811 -618.7031 -3596.9473 -618.7833 -3597.0595 C -618.8635 -3597.172 -618.9778 -3597.274 -619.1262 -3597.3663 C -619.27456 -3597.4585 -619.459 -3597.5428 -619.6796 -3597.619 C -619.9001 -3597.695 -620.15075 -3597.7773 -620.43145 -3597.8656 C -620.7041 -3597.9538 -620.9708 -3598.058 -621.23145 -3598.1783 C -621.4921 -3598.2986 -621.7247 -3598.453 -621.9292 -3598.6415 C -622.1337 -3598.83 -622.2981 -3599.0585 -622.4224 -3599.3272 C -622.54674 -3599.596 -622.6089 -3599.9227 -622.6089 -3600.3077 C -622.6089 -3600.781 -622.51265 -3601.186 -622.3202 -3601.5227 C -622.1277 -3601.8596 -621.87506 -3602.1362 -621.5623 -3602.3528 C -621.2495 -3602.5693 -620.8966 -3602.7277 -620.5036 -3602.828 C -620.11065 -3602.9282 -619.71366 -3602.9783 -619.31265 -3602.9783 C -618.83145 -3602.9783 -618.3402 -3602.89 -617.839 -3602.7137 C -617.3377 -3602.5372 -616.8986 -3602.2766 -616.5217 -3601.9317 Z"/></g><g id="Graphic_3312"><path fill="#d07638" d="M -621.3045 -3602.9625 L -621.3045 -3600.2597 L -622.9857 -3600.2597 L -622.9857 -3602.9625 L -625.74026 -3602.9625 L -625.74026 -3604.592 L -622.9986 -3604.592 L -622.9986 -3607.295 L -621.3174 -3607.295 L -621.3174 -3604.592 L -618.5628 -3604.592 L -618.5628 -3602.9625 Z"/></g></g></g></g></g></svg>