<svg xmlns="http://www.w3.org/2000/svg" viewBox="-912.637 -3611 21 21" width="21" height="21"><g fill="none"><path d="M-912.137-3610.5h20v20h-20z"/><path d="M-897.135-3610h-10.04v19h14.286v-14.827Z" fill="#fff"/><path d="M-897.135-3610h-10.04v19h14.286v-14.827Z" stroke="#9da9b5" stroke-linecap="round" stroke-linejoin="round" stroke-width=".297"/><path d="m-897.136-3609.944 4.247 4.247h-4.247Z" fill="#fff"/><path d="m-897.136-3609.944 4.247 4.247h-4.247Z" stroke="#9da9b5" stroke-linecap="round" stroke-linejoin="round" stroke-width=".297"/><path d="M-896.054-3596.152c-.358.411-.8.737-1.326.977s-1.131.36-1.817.36a4.741 4.741 0 0 1-1.732-.309 4.069 4.069 0 0 1-1.377-.874 4.047 4.047 0 0 1-.914-1.354 4.438 4.438 0 0 1-.331-1.737c0-.648.112-1.235.337-1.76.225-.526.535-.974.931-1.343.396-.37.861-.654 1.394-.852a4.913 4.913 0 0 1 1.726-.297c.572 0 1.134.101 1.686.303.552.202 1 .497 1.343.886l-1.326 1.325a1.641 1.641 0 0 0-.72-.56 2.388 2.388 0 0 0-.914-.182c-.343 0-.657.062-.943.188a2.215 2.215 0 0 0-.737.52 2.37 2.37 0 0 0-.48.783c-.115.301-.172.63-.172.989 0 .365.057.7.172 1.005.114.305.272.566.474.783.202.217.444.387.726.509s.59.183.925.183c.389 0 .728-.077 1.018-.229.29-.152.521-.35.697-.594Z" fill="#a7967d"/></g></svg>