<svg xmlns="http://www.w3.org/2000/svg" width="16.766" height="17" viewBox="-741.965 -3613.122 16.766 17"><g fill="none"><path fill="#fff" d="M-729.275-3612.622h-8.455v16h12.03v-12.485Z"/><path stroke="#9da9b5" stroke-linecap="round" stroke-linejoin="round" stroke-width=".25" d="M-729.275-3612.622h-8.455v16h12.03v-12.485Z"/><path fill="#fff" d="m-729.276-3612.622 3.576 3.577h-3.576Z"/><path stroke="#9da9b5" stroke-linecap="round" stroke-linejoin="round" stroke-width=".25" d="m-729.276-3612.622 3.576 3.577h-3.576Z"/><path fill="#9f4c4c" d="M-728.005-3603.453c0 .539-.093 1.031-.279 1.477a3.361 3.361 0 0 1-.774 1.145c-.33.318-.724.564-1.18.737-.455.173-.949.26-1.481.26a4.095 4.095 0 0 1-1.478-.26 3.456 3.456 0 0 1-1.174-.737c-.33-.317-.589-.699-.775-1.145a3.799 3.799 0 0 1-.279-1.477c0-.546.093-1.038.28-1.477.185-.44.444-.814.774-1.122.33-.308.722-.545 1.174-.712.452-.167.945-.25 1.477-.25.533 0 1.027.083 1.483.25.455.167.848.404 1.178.712.331.308.59.682.775 1.122.186.439.28.931.28 1.477Zm-1.76 0c0-.295-.049-.571-.145-.828a1.974 1.974 0 0 0-.4-.659 1.84 1.84 0 0 0-.616-.433 1.948 1.948 0 0 0-.793-.159c-.29 0-.552.053-.79.159-.237.106-.442.25-.616.433a1.873 1.873 0 0 0-.399.66 2.41 2.41 0 0 0-.14.827c0 .308.049.592.145.852.096.26.23.482.4.669.17.186.373.331.61.437.238.106.5.159.79.159a1.875 1.875 0 0 0 1.405-.597c.173-.186.308-.409.404-.668.096-.26.144-.544.144-.852Z"/></g></svg>