<svg xmlns="http://www.w3.org/2000/svg" viewBox="-632.637 -3610.5 21 21" width="21" height="21"><g fill="none"><path d="M-632.137-3610h20v20h-20z"/><path d="M-617.135-3609.5h-10.04v19h14.286v-14.827Z" fill="#fff"/><path d="M-617.135-3609.5h-10.04v19h14.286v-14.827Z" stroke="#9da9b5" stroke-linecap="round" stroke-linejoin="round" stroke-width=".297"/><path d="m-617.136-3609.5 4.247 4.247h-4.247Z" fill="#fff"/><path d="m-617.136-3609.5 4.247 4.247h-4.247Z" stroke="#9da9b5" stroke-linecap="round" stroke-linejoin="round" stroke-width=".297"/><path d="M-618.3-3600.521a1.767 1.767 0 0 0-.657-.508 1.855 1.855 0 0 0-1.177-.155 1.016 1.016 0 0 0-.36.132.892.892 0 0 0-.269.251.67.67 0 0 0-.108.394c0 .138.028.252.085.343.057.092.141.172.252.24.11.069.242.132.394.189.152.057.324.116.514.177.275.091.56.192.857.303.298.11.568.257.812.44.244.183.446.41.606.68.16.27.24.608.24 1.011 0 .465-.086.867-.258 1.206a2.405 2.405 0 0 1-.691.84c-.29.221-.621.385-.994.491-.374.107-.758.16-1.155.16-.579 0-1.139-.1-1.68-.302a3.56 3.56 0 0 1-1.348-.863l1.28-1.303c.198.244.459.448.783.611.323.164.645.246.965.246.145 0 .286-.015.423-.046.137-.03.257-.08.36-.148a.746.746 0 0 0 .246-.275.864.864 0 0 0 .091-.411.65.65 0 0 0-.114-.389 1.117 1.117 0 0 0-.326-.291 2.626 2.626 0 0 0-.525-.24c-.21-.072-.448-.15-.715-.234a6.782 6.782 0 0 1-.76-.297 2.546 2.546 0 0 1-.662-.44 2.038 2.038 0 0 1-.469-.652c-.118-.255-.177-.566-.177-.931 0-.45.091-.835.274-1.155.183-.32.423-.582.72-.788a3.09 3.09 0 0 1 1.006-.452c.373-.095.75-.142 1.131-.142.457 0 .924.083 1.4.251.476.168.894.415 1.252.743Z" fill="#cdcdcd"/><path d="M-621.598-3602.814v2.567h-1.597v-2.567h-2.617v-1.548h2.605v-2.568h1.597v2.568h2.617v1.548Z" fill="#d07638"/></g></svg>