<?xml version="1.0" encoding="UTF-8" standalone="no"?>
<!DOCTYPE svg PUBLIC "-//W3C//DTD SVG 1.1//EN" "http://www.w3.org/Graphics/SVG/1.1/DTD/svg11.dtd">
<svg xmlns:xl="http://www.w3.org/1999/xlink" version="1.1" xmlns="http://www.w3.org/2000/svg" xmlns:dc="http://purl.org/dc/elements/1.1/" viewBox="-672.375 -3610.5312 20.769528 21.0625" width="20.769528" height="21.0625">
  <defs/>
  <g id="ICONES" stroke="none" stroke-opacity="1" stroke-dasharray="none" fill="none" fill-opacity="1">
    <title>ICONES</title>
    <g id="ICONES_Calque_1">
      <title>Calque 1</title>
      <g id="Group_3301">
        <title>navigator/files/file.shape</title>
        <g id="Graphic_3292"/>
        <g id="Group_3041">
          <g id="Graphic_1435">
            <path d="M -656.60646 -3610 L -667.1743 -3610 L -667.1743 -3590 L -652.1367 -3590 L -652.1367 -3605.607 Z" fill="white"/>
            <path d="M -656.60646 -3610 L -667.1743 -3610 L -667.1743 -3590 L -652.1367 -3590 L -652.1367 -3605.607 Z" stroke="#9da9b5" stroke-linecap="round" stroke-linejoin="round" stroke-width=".3125"/>
          </g>
          <g id="Graphic_1434">
            <path d="M -656.6076 -3610 L -652.1367 -3605.529 L -656.6076 -3605.529 Z" fill="white"/>
            <path d="M -656.6076 -3610 L -652.1367 -3605.529 L -656.6076 -3605.529 Z" stroke="#9da9b5" stroke-linecap="round" stroke-linejoin="round" stroke-width=".3125"/>
          </g>
          <g id="Graphic_3026">
            <path d="M -657.83295 -3600.5483 C -658.0094 -3600.773 -658.24 -3600.9513 -658.5247 -3601.0836 C -658.8094 -3601.216 -659.0841 -3601.282 -659.34874 -3601.282 C -659.4851 -3601.282 -659.6234 -3601.27 -659.7638 -3601.246 C -659.9041 -3601.222 -660.03045 -3601.176 -660.1427 -3601.1077 C -660.255 -3601.0395 -660.34924 -3600.9513 -660.4254 -3600.843 C -660.5016 -3600.7347 -660.5397 -3600.5964 -660.5397 -3600.428 C -660.5397 -3600.2836 -660.50965 -3600.1633 -660.4495 -3600.067 C -660.38934 -3599.971 -660.3011 -3599.8866 -660.1848 -3599.8144 C -660.06854 -3599.7423 -659.9302 -3599.676 -659.7698 -3599.616 C -659.6094 -3599.556 -659.42894 -3599.4936 -659.22844 -3599.4295 C -658.9397 -3599.3332 -658.639 -3599.227 -658.3262 -3599.1107 C -658.0134 -3598.9944 -657.7287 -3598.84 -657.47205 -3598.6475 C -657.2154 -3598.455 -657.0029 -3598.2164 -656.83446 -3597.9317 C -656.666 -3597.647 -656.5818 -3597.292 -656.5818 -3596.867 C -656.5818 -3596.378 -656.67205 -3595.955 -656.8525 -3595.598 C -657.03295 -3595.241 -657.27556 -3594.9463 -657.5803 -3594.7137 C -657.8851 -3594.481 -658.23395 -3594.3087 -658.6269 -3594.1964 C -659.0199 -3594.084 -659.4249 -3594.028 -659.842 -3594.028 C -660.4515 -3594.028 -661.041 -3594.1342 -661.6104 -3594.3468 C -662.1798 -3594.5593 -662.653 -3594.862 -663.02995 -3595.255 L -661.6826 -3596.6265 C -661.47406 -3596.37 -661.1994 -3596.1553 -660.8585 -3595.983 C -660.5177 -3595.8104 -660.1788 -3595.724 -659.842 -3595.724 C -659.6896 -3595.724 -659.5412 -3595.7403 -659.3969 -3595.7723 C -659.2525 -3595.8044 -659.1262 -3595.8565 -659.0179 -3595.9287 C -658.90964 -3596.001 -658.8234 -3596.097 -658.7593 -3596.2174 C -658.6951 -3596.3377 -658.663 -3596.482 -658.663 -3596.6505 C -658.663 -3596.811 -658.7031 -3596.9473 -658.7833 -3597.0595 C -658.8635 -3597.172 -658.9778 -3597.274 -659.1262 -3597.3663 C -659.27456 -3597.4585 -659.459 -3597.5428 -659.6796 -3597.619 C -659.9001 -3597.695 -660.15075 -3597.7773 -660.43145 -3597.8656 C -660.7041 -3597.9538 -660.9708 -3598.058 -661.23145 -3598.1783 C -661.4921 -3598.2986 -661.7247 -3598.453 -661.9292 -3598.6415 C -662.1337 -3598.83 -662.2981 -3599.0585 -662.4224 -3599.3272 C -662.5467 -3599.596 -662.6089 -3599.9227 -662.6089 -3600.3077 C -662.6089 -3600.781 -662.51265 -3601.186 -662.3202 -3601.5227 C -662.1277 -3601.8596 -661.87506 -3602.1362 -661.5623 -3602.3528 C -661.2495 -3602.5693 -660.8966 -3602.7277 -660.5036 -3602.828 C -660.11065 -3602.9282 -659.71366 -3602.9783 -659.31265 -3602.9783 C -658.83145 -3602.9783 -658.3402 -3602.89 -657.839 -3602.7137 C -657.3377 -3602.5372 -656.8986 -3602.2766 -656.5217 -3601.9317 Z" fill="#d07638"/>
          </g>
        </g>
      </g>
    </g>
  </g>
</svg>
