<svg xmlns="http://www.w3.org/2000/svg" viewBox="-712.637 -3610.5 21 21" width="21" height="21"><g fill="none"><path d="M-712.137-3610h20v20h-20z"/><path d="M-697.135-3609.5h-10.04v19h14.286v-14.827Z" fill="#fff"/><path d="M-697.135-3609.5h-10.04v19h14.286v-14.827Z" stroke="#9da9b5" stroke-linecap="round" stroke-linejoin="round" stroke-width=".297"/><path d="m-697.136-3609.5 4.247 4.247h-4.247Z" fill="#fff"/><path d="m-697.136-3609.5 4.247 4.247h-4.247Z" stroke="#9da9b5" stroke-linecap="round" stroke-linejoin="round" stroke-width=".297"/><path d="M-695.626-3598.612c0 .64-.11 1.225-.331 1.754-.221.53-.528.983-.92 1.36a4.095 4.095 0 0 1-1.4.874 4.911 4.911 0 0 1-1.76.309 4.865 4.865 0 0 1-1.754-.309 4.106 4.106 0 0 1-1.395-.874c-.392-.377-.699-.83-.92-1.36a4.511 4.511 0 0 1-.331-1.754c0-.648.11-1.233.331-1.755a3.84 3.84 0 0 1 .92-1.331 4.098 4.098 0 0 1 1.395-.846 5.028 5.028 0 0 1 1.754-.297c.632 0 1.219.099 1.76.297.54.198 1.007.48 1.4.846.392.366.699.81.92 1.331.22.522.331 1.107.331 1.755Zm-2.091 0c0-.35-.057-.678-.172-.983a2.191 2.191 0 0 0-1.206-1.297 2.316 2.316 0 0 0-.942-.189c-.343 0-.655.063-.937.189a2.27 2.27 0 0 0-.732.514 2.22 2.22 0 0 0-.474.783 2.86 2.86 0 0 0-.166.983c0 .365.057.703.172 1.011.114.309.272.573.474.794.202.221.444.395.726.52.282.126.594.189.937.189a2.226 2.226 0 0 0 1.669-.709c.205-.22.365-.485.48-.794a2.89 2.89 0 0 0 .17-1.011Z" fill="#9f4c4c"/></g></svg>