<svg xmlns="http://www.w3.org/2000/svg" width="17.125" height="17" viewBox="-992.625 -3570.5 17.125 17"><g fill="none"><path fill="#fff" d="M-979.54-3558.46a4.622 4.622 0 0 0 3.244-3.396 4.645 4.645 0 0 0-1.39-4.495 4.594 4.594 0 0 0-4.587-.952 3.94 3.94 0 0 0-5.002-1.06 3.978 3.978 0 0 0-1.857 4.785h-.234a2.64 2.64 0 0 0-2.634 2.646 2.64 2.64 0 0 0 2.634 2.647h.659"/><path stroke="#000" stroke-linejoin="round" stroke-width=".25" d="M-979.54-3558.46a4.622 4.622 0 0 0 3.244-3.396 4.645 4.645 0 0 0-1.39-4.495 4.594 4.594 0 0 0-4.587-.952 3.94 3.94 0 0 0-5.002-1.06 3.978 3.978 0 0 0-1.857 4.785h-.234a2.64 2.64 0 0 0-2.634 2.646 2.64 2.64 0 0 0 2.634 2.647h.659M-986.815-3557.786l2.635 2.647 2.634-2.647M-984.18-3555.139v-7.94"/></g></svg>