<svg xmlns="http://www.w3.org/2000/svg" viewBox="-752.568 -3610.5 21 21" width="21" height="21"><g fill="none"><path d="M-752.068-3610h20v20h-20z"/><path d="M-737.067-3609.5h-10.039v19h14.286v-14.827Z" fill="#fff"/><path d="M-737.067-3609.5h-10.039v19h14.286v-14.827Z" stroke="#9da9b5" stroke-linecap="round" stroke-linejoin="round" stroke-width=".297"/><path d="m-737.068-3609.5 4.248 4.247h-4.248Z" fill="#fff"/><path d="m-737.068-3609.5 4.248 4.247h-4.248Z" stroke="#9da9b5" stroke-linecap="round" stroke-linejoin="round" stroke-width=".297"/><path d="M-736.335-3595.024c-.396.206-.859.374-1.388.503a7.27 7.27 0 0 1-1.732.194 5.027 5.027 0 0 1-1.788-.308 4.133 4.133 0 0 1-1.406-.869 3.96 3.96 0 0 1-.92-1.343 4.428 4.428 0 0 1-.331-1.742c0-.648.112-1.235.337-1.76.225-.526.535-.974.931-1.343.396-.37.861-.654 1.395-.852a4.913 4.913 0 0 1 1.725-.297c.64 0 1.235.097 1.783.292.549.194.995.455 1.337.782l-1.234 1.406a2.135 2.135 0 0 0-.754-.543 2.557 2.557 0 0 0-1.063-.211c-.343 0-.66.063-.949.188-.29.126-.54.301-.754.526a2.39 2.39 0 0 0-.497.8 2.809 2.809 0 0 0-.177 1.012c0 .373.053.716.16 1.028.106.313.264.581.474.806.21.225.469.4.777.526.309.125.661.188 1.057.188.229 0 .446-.017.652-.051.206-.035.396-.09.571-.166v-1.474h-1.543v-1.577h3.337Z" fill="#5c76a2"/></g></svg>