<svg xmlns="http://www.w3.org/2000/svg" xmlns:xl="http://www.w3.org/1999/xlink" width="20.77" height="21.063" version="1.1" viewBox="-752.375 -3610.531 20.77 21.063"><g id="ICONES" fill="none" fill-opacity="1" stroke="none" stroke-dasharray="none" stroke-opacity="1"><title>ICONES</title><g id="ICONES_Calque_1"><title>Calque 1</title><g id="Group_3299"><title>navigator/files/file.model</title><g id="Group_3040"><g id="Graphic_1432"><path fill="#fff" d="M -736.6065 -3610 L -747.1743 -3610 L -747.1743 -3590 L -732.1367 -3590 L -732.1367 -3605.607 Z"/><path stroke="#9da9b5" stroke-linecap="round" stroke-linejoin="round" stroke-width=".313" d="M -736.6065 -3610 L -747.1743 -3610 L -747.1743 -3590 L -732.1367 -3590 L -732.1367 -3605.607 Z"/></g><g id="Graphic_1431"><path fill="#fff" d="M -736.6076 -3610 L -732.1367 -3605.529 L -736.6076 -3605.529 Z"/><path stroke="#9da9b5" stroke-linecap="round" stroke-linejoin="round" stroke-width=".313" d="M -736.6076 -3610 L -732.1367 -3605.529 L -736.6076 -3605.529 Z"/></g><g id="Graphic_3027"><path fill="#5c76a2" d="M -735.836 -3594.762 C -736.253 -3594.5453 -736.7402 -3594.369 -737.2976 -3594.2325 C -737.855 -3594.096 -738.4625 -3594.028 -739.1202 -3594.028 C -739.8019 -3594.028 -740.4294 -3594.1362 -741.0029 -3594.3528 C -741.5763 -3594.5693 -742.0695 -3594.874 -742.4826 -3595.267 C -742.8956 -3595.66 -743.2184 -3596.1312 -743.451 -3596.6806 C -743.6836 -3597.23 -743.7999 -3597.8415 -743.7999 -3598.515 C -743.7999 -3599.197 -743.6816 -3599.8144 -743.445 -3600.368 C -743.2084 -3600.921 -742.8816 -3601.3924 -742.4645 -3601.7814 C -742.0475 -3602.1703 -741.5583 -3602.469 -740.9969 -3602.6776 C -740.4355 -3602.886 -739.82995 -3602.9904 -739.1803 -3602.9904 C -738.5066 -3602.9904 -737.8811 -3602.888 -737.3036 -3602.6836 C -736.7262 -3602.479 -736.257 -3602.2044 -735.8961 -3601.8595 L -737.1954 -3600.38 C -737.3959 -3600.6124 -737.6605 -3600.803 -737.98934 -3600.9513 C -738.3182 -3601.0996 -738.6911 -3601.174 -739.1081 -3601.174 C -739.46905 -3601.174 -739.8019 -3601.1077 -740.1066 -3600.9753 C -740.4114 -3600.843 -740.6761 -3600.6585 -740.9006 -3600.422 C -741.1252 -3600.1854 -741.2996 -3599.9047 -741.4239 -3599.58 C -741.5482 -3599.255 -741.6104 -3598.9 -741.6104 -3598.515 C -741.6104 -3598.122 -741.5543 -3597.7613 -741.442 -3597.4325 C -741.3297 -3597.1037 -741.1633 -3596.821 -740.9427 -3596.5844 C -740.7222 -3596.3478 -740.4495 -3596.1633 -740.1247 -3596.031 C -739.7999 -3595.8986 -739.42895 -3595.8325 -739.0119 -3595.8325 C -738.7713 -3595.8325 -738.5427 -3595.8505 -738.3262 -3595.8866 C -738.10964 -3595.9227 -737.90914 -3595.981 -737.7247 -3596.061 L -737.7247 -3597.613 L -739.3487 -3597.613 L -739.3487 -3599.273 L -735.836 -3599.273 Z"/></g></g></g></g></g></svg>