<svg xmlns="http://www.w3.org/2000/svg" width="20.906" height="20.75" viewBox="-982.121 -3612.997 20.906 20.75"><g fill="none"><path fill="#fff" d="M-966.015-3598.198a5.777 5.777 0 0 0 4.054-4.244 5.806 5.806 0 0 0-1.736-5.618 5.742 5.742 0 0 0-5.735-1.191 4.924 4.924 0 0 0-6.252-1.325 4.972 4.972 0 0 0-2.321 5.981h-.293a3.3 3.3 0 0 0-3.292 3.308 3.3 3.3 0 0 0 3.293 3.309h.823"/><path stroke="#000" stroke-linejoin="round" stroke-width=".313" d="M-966.015-3598.198a5.777 5.777 0 0 0 4.054-4.244 5.806 5.806 0 0 0-1.736-5.618 5.742 5.742 0 0 0-5.735-1.191 4.924 4.924 0 0 0-6.252-1.325 4.972 4.972 0 0 0-2.321 5.981h-.293a3.3 3.3 0 0 0-3.292 3.308 3.3 3.3 0 0 0 3.293 3.309h.823M-975.109-3597.354l3.293 3.308 3.293-3.308M-971.816-3594.046v-9.924"/></g></svg>