<svg xmlns="http://www.w3.org/2000/svg" width="16.766" height="17" viewBox="-781.965 -3613.122 16.766 17"><g fill="none"><path fill="#fff" d="M-769.275-3612.622h-8.455v16h12.03v-12.485Z"/><path stroke="#9da9b5" stroke-linecap="round" stroke-linejoin="round" stroke-width=".25" d="M-769.275-3612.622h-8.455v16h12.03v-12.485Z"/><path fill="#fff" d="m-769.276-3612.622 3.576 3.577h-3.576Z"/><path stroke="#9da9b5" stroke-linecap="round" stroke-linejoin="round" stroke-width=".25" d="m-769.276-3612.622 3.576 3.577h-3.576Z"/><path fill="#5c76a2" d="M-768.66-3600.431a5.249 5.249 0 0 1-1.168.423c-.446.11-.932.164-1.458.164a4.23 4.23 0 0 1-1.507-.26 3.472 3.472 0 0 1-1.183-.731 3.336 3.336 0 0 1-.775-1.131 3.73 3.73 0 0 1-.28-1.468c0-.545.095-1.04.285-1.482a3.3 3.3 0 0 1 .784-1.131 3.48 3.48 0 0 1 1.174-.717c.45-.167.934-.25 1.453-.25.54 0 1.04.082 1.502.245.462.164.837.384 1.126.66l-1.04 1.183a1.798 1.798 0 0 0-.635-.457 2.153 2.153 0 0 0-.895-.178c-.288 0-.555.053-.799.159a1.923 1.923 0 0 0-.635.443c-.18.189-.319.414-.418.673-.1.26-.15.544-.15.852 0 .315.045.603.135.866.09.263.223.49.4.679.176.189.394.337.654.443.26.105.557.158.89.158.193 0 .376-.014.549-.043a2.05 2.05 0 0 0 .481-.14v-1.241h-1.3v-1.328h2.81Z"/></g></svg>