<svg xmlns="http://www.w3.org/2000/svg" width="17.016" height="17.25" viewBox="-672.5 -3570.625 17.016 17.25"><g fill="none"><path fill="#fff" d="M-659.685-3570h-8.454v16h12.03v-12.485Z"/><path stroke="#9da9b5" stroke-linecap="round" stroke-linejoin="round" stroke-width=".25" d="M-659.685-3570h-8.454v16h12.03v-12.485Z"/><path fill="#fff" d="m-659.686-3570 3.577 3.577h-3.577Z"/><path stroke="#9da9b5" stroke-linecap="round" stroke-linejoin="round" stroke-width=".25" d="m-659.686-3570 3.577 3.577h-3.577Z"/><path fill="#cdcdcd" d="M-660.666-3562.439a1.486 1.486 0 0 0-.554-.428 1.562 1.562 0 0 0-.991-.13.858.858 0 0 0-.303.111.748.748 0 0 0-.226.212.564.564 0 0 0-.092.332c0 .115.024.211.072.288a.643.643 0 0 0 .212.202c.093.058.204.111.332.16.129.047.273.097.433.148.231.077.472.162.722.255.25.094.478.217.683.371.206.154.376.345.51.573.135.227.203.511.203.851 0 .392-.073.73-.217 1.016a2.026 2.026 0 0 1-.582.707 2.5 2.5 0 0 1-.838.414c-.314.09-.638.135-.972.135-.487 0-.959-.085-1.414-.255a2.997 2.997 0 0 1-1.136-.727l1.078-1.097c.167.205.386.377.66.515.272.138.543.207.812.207.122 0 .241-.013.356-.039a.884.884 0 0 0 .304-.125.626.626 0 0 0 .207-.231.727.727 0 0 0 .077-.346.547.547 0 0 0-.097-.328.937.937 0 0 0-.274-.245 2.2 2.2 0 0 0-.443-.202 22.248 22.248 0 0 0-.601-.198 5.725 5.725 0 0 1-.64-.25 2.147 2.147 0 0 1-.558-.37 1.72 1.72 0 0 1-.395-.549c-.1-.215-.15-.476-.15-.784 0-.379.078-.703.232-.972.154-.27.356-.491.606-.664.25-.173.533-.3.847-.38.314-.08.632-.12.953-.12.385 0 .778.07 1.179.211.4.141.752.35 1.054.626Z"/><path fill="#d07638" d="M-663.444-3564.37v2.162h-1.345v-2.162h-2.203v-1.304h2.193v-2.162h1.345v2.162h2.204v1.304Z"/></g></svg>