<svg xmlns="http://www.w3.org/2000/svg" xmlns:xl="http://www.w3.org/1999/xlink" width="20.77" height="21.063" version="1.1" viewBox="-912.375 -3610.531 20.77 21.063"><g id="ICONES" fill="none" fill-opacity="1" stroke="none" stroke-dasharray="none" stroke-opacity="1"><title>ICONES</title><g id="ICONES_Calque_1"><title>Calque 1</title><g id="Group_3295"><title>navigator/files/file.csv</title><g id="Group_3036"><g id="Graphic_1420"><path fill="#fff" d="M -896.6065 -3610 L -907.1743 -3610 L -907.1743 -3590 L -892.1367 -3590 L -892.1367 -3605.607 Z"/><path stroke="#9da9b5" stroke-linecap="round" stroke-linejoin="round" stroke-width=".313" d="M -896.6065 -3610 L -907.1743 -3610 L -907.1743 -3590 L -892.1367 -3590 L -892.1367 -3605.607 Z"/></g><g id="Graphic_1419"><path fill="#fff" d="M -896.6076 -3609.9414 L -892.1367 -3605.4705 L -896.6076 -3605.4705 Z"/><path stroke="#9da9b5" stroke-linecap="round" stroke-linejoin="round" stroke-width=".313" d="M -896.6076 -3609.9414 L -892.1367 -3605.4705 L -896.6076 -3605.4705 Z"/></g><g id="Graphic_3033"><path fill="#a7967d" d="M -895.469 -3595.4235 C -895.846 -3594.9904 -896.3111 -3594.6475 -896.8645 -3594.395 C -897.4179 -3594.1423 -898.0555 -3594.016 -898.7773 -3594.016 C -899.435 -3594.016 -900.0425 -3594.124 -900.5999 -3594.3408 C -901.1573 -3594.5573 -901.6405 -3594.864 -902.0495 -3595.261 C -902.4585 -3595.658 -902.7793 -3596.1332 -903.0119 -3596.6866 C -903.2445 -3597.24 -903.3608 -3597.8495 -903.3608 -3598.515 C -903.3608 -3599.197 -903.2425 -3599.8144 -903.0059 -3600.368 C -902.7693 -3600.921 -902.4425 -3601.3924 -902.0254 -3601.7814 C -901.6084 -3602.1703 -901.1192 -3602.469 -900.5578 -3602.6776 C -899.9964 -3602.886 -899.3909 -3602.9904 -898.7412 -3602.9904 C -898.1397 -3602.9904 -897.5482 -3602.884 -896.9668 -3602.6716 C -896.3853 -3602.459 -895.9142 -3602.1483 -895.5533 -3601.7392 L -896.9487 -3600.3438 C -897.1412 -3600.6084 -897.3939 -3600.805 -897.7066 -3600.9332 C -898.0194 -3601.0616 -898.3402 -3601.1257 -898.669 -3601.1257 C -899.03 -3601.1257 -899.3608 -3601.0595 -899.6615 -3600.9272 C -899.9623 -3600.795 -900.2209 -3600.6124 -900.4375 -3600.38 C -900.654 -3600.1473 -900.8224 -3599.8726 -900.9427 -3599.556 C -901.063 -3599.239 -901.1232 -3598.892 -901.1232 -3598.515 C -901.1232 -3598.1302 -901.063 -3597.7773 -900.9427 -3597.4565 C -900.8224 -3597.1357 -900.656 -3596.861 -900.4435 -3596.6325 C -900.231 -3596.404 -899.9763 -3596.2255 -899.6796 -3596.097 C -899.3828 -3595.969 -899.058 -3595.9047 -898.7051 -3595.9047 C -898.2961 -3595.9047 -897.9392 -3595.985 -897.6345 -3596.1453 C -897.3297 -3596.3057 -897.0851 -3596.514 -896.9006 -3596.771 Z"/></g></g></g></g></g></svg>