<svg xmlns="http://www.w3.org/2000/svg" width="17.016" height="17.25" viewBox="-952.5 -3570.625 17.016 17.25"><g fill="none"><path fill="#fff" d="M-939.685-3570h-8.454v16h12.03v-12.485Z"/><path stroke="#9da9b5" stroke-linecap="round" stroke-linejoin="round" stroke-width=".25" d="M-939.685-3570h-8.454v16h12.03v-12.485Z"/><path fill="#fff" d="m-939.686-3569.953 3.577 3.577h-3.577Z"/><path stroke="#9da9b5" stroke-linecap="round" stroke-linejoin="round" stroke-width=".25" d="m-939.686-3569.953 3.577 3.577h-3.577Z"/><path fill="#a7967d" d="M-938.775-3558.339c-.302.347-.674.621-1.117.823-.442.202-.952.303-1.53.303a3.993 3.993 0 0 1-1.458-.26 3.425 3.425 0 0 1-1.16-.736 3.406 3.406 0 0 1-.77-1.14 3.738 3.738 0 0 1-.279-1.463c0-.546.095-1.04.284-1.482.19-.443.451-.82.785-1.131a3.47 3.47 0 0 1 1.174-.717c.449-.167.933-.25 1.453-.25.481 0 .954.085 1.42.255.465.17.842.418 1.13.746l-1.116 1.116a1.382 1.382 0 0 0-.606-.472 2.012 2.012 0 0 0-.77-.154 1.95 1.95 0 0 0-.794.16c-.24.105-.448.251-.621.437a1.997 1.997 0 0 0-.404.66c-.096.253-.144.53-.144.832 0 .308.048.59.144.847.096.256.23.476.4.659.17.183.373.326.61.428.238.103.498.154.78.154.327 0 .613-.064.856-.192.244-.128.44-.295.588-.5Z"/></g></svg>