<?xml version="1.0" encoding="UTF-8" standalone="no"?>
<!DOCTYPE svg PUBLIC "-//W3C//DTD SVG 1.1//EN" "http://www.w3.org/Graphics/SVG/1.1/DTD/svg11.dtd">
<svg xmlns:xl="http://www.w3.org/1999/xlink" version="1.1" xmlns="http://www.w3.org/2000/svg" xmlns:dc="http://purl.org/dc/elements/1.1/" viewBox="-832.375 -3610.5312 20.769528 21.0625" width="20.769528" height="21.0625">
  <defs/>
  <g id="ICONES" stroke="none" stroke-opacity="1" stroke-dasharray="none" fill="none" fill-opacity="1">
    <title>ICONES</title>
    <g id="ICONES_Calque_1">
      <title>Calque 1</title>
      <g id="Group_3297">
        <title>navigator/files/file.html</title>
        <g id="Graphic_3288"/>
        <g id="Group_3039">
          <g id="Graphic_1429">
            <path d="M -816.6065 -3610 L -827.1743 -3610 L -827.1743 -3590 L -812.1367 -3590 L -812.1367 -3605.607 Z" fill="white"/>
            <path d="M -816.6065 -3610 L -827.1743 -3610 L -827.1743 -3590 L -812.1367 -3590 L -812.1367 -3605.607 Z" stroke="#9da9b5" stroke-linecap="round" stroke-linejoin="round" stroke-width=".3125"/>
          </g>
          <g id="Graphic_1428">
            <path d="M -816.6076 -3610 L -812.1367 -3605.529 L -816.6076 -3605.529 Z" fill="white"/>
            <path d="M -816.6076 -3610 L -812.1367 -3605.529 L -816.6076 -3605.529 Z" stroke="#9da9b5" stroke-linecap="round" stroke-linejoin="round" stroke-width=".3125"/>
          </g>
          <g id="Group_3030">
            <g id="Graphic_3028">
              <path d="M -824.8635 -3595.419 L -824.8635 -3596.3326 L -820.3564 -3598.2313 L -820.3564 -3597.0247 L -823.0713 -3595.8624 L -820.3564 -3594.7356 L -820.3564 -3593.52 Z" fill="#518737"/>
            </g>
            <g id="Graphic_3029">
              <path d="M -818.9546 -3593.52 L -818.9546 -3594.7356 L -816.2397 -3595.8624 L -818.9546 -3597.0247 L -818.9546 -3598.2313 L -814.4475 -3596.3326 L -814.4475 -3595.419 Z" fill="#518737"/>
            </g>
          </g>
        </g>
      </g>
    </g>
  </g>
</svg>
