<svg xmlns="http://www.w3.org/2000/svg" xmlns:xl="http://www.w3.org/1999/xlink" width="20.77" height="21.063" version="1.1" viewBox="-712.375 -3610.531 20.77 21.063"><g id="ICONES" fill="none" fill-opacity="1" stroke="none" stroke-dasharray="none" stroke-opacity="1"><title>ICONES</title><g id="ICONES_Calque_1"><title>Calque 1</title><g id="Group_3300"><title>navigator/files/file.osm</title><g id="Group_3035"><g id="Graphic_1269"><path fill="#fff" d="M -696.60645 -3610 L -707.1743 -3610 L -707.1743 -3590 L -692.1367 -3590 L -692.1367 -3605.607 Z"/><path stroke="#9da9b5" stroke-linecap="round" stroke-linejoin="round" stroke-width=".313" d="M -696.60645 -3610 L -707.1743 -3610 L -707.1743 -3590 L -692.1367 -3590 L -692.1367 -3605.607 Z"/></g><g id="Graphic_1268"><path fill="#fff" d="M -696.6076 -3610 L -692.1367 -3605.529 L -696.6076 -3605.529 Z"/><path stroke="#9da9b5" stroke-linecap="round" stroke-linejoin="round" stroke-width=".313" d="M -696.6076 -3610 L -692.1367 -3605.529 L -696.6076 -3605.529 Z"/></g><g id="Graphic_3034"><path fill="#9f4c4c" d="M -695.0179 -3598.5392 C -695.0179 -3597.8656 -695.1342 -3597.25 -695.3668 -3596.6926 C -695.5994 -3596.1352 -695.9222 -3595.658 -696.3352 -3595.261 C -696.74824 -3594.864 -697.2395 -3594.5573 -697.8089 -3594.3408 C -698.3783 -3594.124 -698.99586 -3594.016 -699.6615 -3594.016 C -700.3272 -3594.016 -700.9427 -3594.124 -701.5081 -3594.3408 C -702.07356 -3594.5573 -702.5628 -3594.864 -702.9758 -3595.261 C -703.38885 -3595.658 -703.71165 -3596.1352 -703.9442 -3596.6926 C -704.1768 -3597.25 -704.2931 -3597.8656 -704.2931 -3598.5392 C -704.2931 -3599.221 -704.1768 -3599.8365 -703.9442 -3600.386 C -703.71165 -3600.9352 -703.38885 -3601.4024 -702.9758 -3601.7874 C -702.5628 -3602.1723 -702.07356 -3602.469 -701.5081 -3602.6776 C -700.9427 -3602.886 -700.3272 -3602.9904 -699.6615 -3602.9904 C -698.99586 -3602.9904 -698.3783 -3602.886 -697.8089 -3602.6776 C -697.2395 -3602.469 -696.74824 -3602.1723 -696.3352 -3601.7874 C -695.9222 -3601.4024 -695.5994 -3600.9352 -695.3668 -3600.386 C -695.1342 -3599.8365 -695.0179 -3599.221 -695.0179 -3598.5392 Z M -697.2194 -3598.5392 C -697.2194 -3598.908 -697.2796 -3599.253 -697.3999 -3599.574 C -697.5202 -3599.8946 -697.6866 -3600.1693 -697.8991 -3600.398 C -698.11165 -3600.6265 -698.3683 -3600.807 -698.66904 -3600.9392 C -698.9698 -3601.0716 -699.3006 -3601.1377 -699.6615 -3601.1377 C -700.0224 -3601.1377 -700.35125 -3601.0716 -700.648 -3600.9392 C -700.9447 -3600.807 -701.2014 -3600.6265 -701.4179 -3600.398 C -701.6345 -3600.1693 -701.8009 -3599.8946 -701.9172 -3599.574 C -702.03346 -3599.253 -702.0916 -3598.908 -702.0916 -3598.5392 C -702.0916 -3598.1543 -702.03145 -3597.7994 -701.91115 -3597.4746 C -701.79085 -3597.1498 -701.6244 -3596.871 -701.4119 -3596.6385 C -701.1994 -3596.406 -700.9447 -3596.2235 -700.648 -3596.091 C -700.35125 -3595.959 -700.0224 -3595.8926 -699.6615 -3595.8926 C -699.3006 -3595.8926 -698.9718 -3595.959 -698.6751 -3596.091 C -698.3783 -3596.2235 -698.1217 -3596.406 -697.9051 -3596.6385 C -697.6886 -3596.871 -697.5202 -3597.1498 -697.3999 -3597.4746 C -697.2796 -3597.7994 -697.2194 -3598.1543 -697.2194 -3598.5392 Z"/></g></g></g></g></g></svg>