<svg xmlns="http://www.w3.org/2000/svg" viewBox="-781.59 -3330.186 16 16" width="16" height="16"><g fill="none"><path d="M-772.591-3330.186c-3.867 0-7.002 2.56-7.002 5.718s3.135 5.717 7.001 5.717c.372 0 .736-.023 1.092-.069 1.504 1.512 3.3 1.783 5.035 1.823v-.37c-.938-.462-1.75-1.303-1.75-2.263 0-.134.01-.266.029-.395 1.583-1.048 2.596-2.649 2.596-4.443 0-3.159-3.135-5.718-7.001-5.718Z" fill="#518737"/><path d="M-776.34-3324.078c2.9 0 5.252 1.92 5.252 4.288 0 2.369-2.351 4.289-5.251 4.289-.279 0-.552-.018-.82-.053-1.127 1.134-2.473 1.338-3.775 1.368v-.278c.703-.346 1.313-.977 1.313-1.697 0-.101-.008-.2-.023-.296-1.187-.786-1.946-1.987-1.946-3.333 0-2.369 2.35-4.288 5.25-4.288Z" fill="#cf7738"/></g></svg>