<svg xmlns="http://www.w3.org/2000/svg" viewBox="-821.59 -3332.622 16 16" width="16" height="16"><g fill="none"><path d="M-813.59-3330.076c-3.637 0-6.742 2.262-8 5.454 1.258 3.193 4.363 5.455 8 5.455 3.636 0 6.742-2.262 8-5.455-1.258-3.192-4.364-5.454-8-5.454Zm0 9.09a3.638 3.638 0 0 1-3.637-3.636 3.638 3.638 0 0 1 7.273 0 3.638 3.638 0 0 1-3.636 3.637Zm0-5.818a2.179 2.179 0 0 0-2.182 2.182c0 1.208.974 2.182 2.182 2.182a2.179 2.179 0 0 0 2.182-2.182 2.179 2.179 0 0 0-2.182-2.182Z" fill="#5c76a2"/></g></svg>