<svg xmlns="http://www.w3.org/2000/svg" width="16" height="16" viewBox="-712 -3330 16 16"><g fill="none"><path fill="#5c76a2" d="M-697.455-3330h-13.09c-.8 0-1.455.72-1.455 1.6v9.6c0 .88.655 1.6 1.455 1.6h5.09v1.6h-1.454v1.6h5.818v-1.6h-1.454v-1.6h5.09c.8 0 1.455-.72 1.455-1.6v-9.6c0-.88-.655-1.6-1.455-1.6Zm0 11.2h-13.09v-9.6h13.09v9.6Z"/><path d="M-697.455-3330h-13.09c-.8 0-1.455.72-1.455 1.6v9.6c0 .88.655 1.6 1.455 1.6h5.09v1.6h-1.454v1.6h5.818v-1.6h-1.454v-1.6h5.09c.8 0 1.455-.72 1.455-1.6v-9.6c0-.88-.655-1.6-1.455-1.6Zm0 11.2h-13.09v-9.6h13.09v9.6Z"/></g></svg>