<?xml version="1.0" encoding="UTF-8" standalone="no"?>
<!DOCTYPE svg PUBLIC "-//W3C//DTD SVG 1.1//EN" "http://www.w3.org/Graphics/SVG/1.1/DTD/svg11.dtd">
<svg xmlns:xl="http://www.w3.org/1999/xlink" version="1.1" xmlns="http://www.w3.org/2000/svg" xmlns:dc="http://purl.org/dc/elements/1.1/" viewBox="-512 -3330 16 16" width="16" height="16">
  <defs/>
  <g id="ICONES" stroke="none" stroke-opacity="1" stroke-dasharray="none" fill="none" fill-opacity="1">
    <title>ICONES</title>
    <g id="ICONES_Calque_1">
      <title>Calque 1</title>
      <g id="Group_2152">
        <title>views/tabs/view.problems</title>
        <g id="Graphic_2159">
          <circle cx="-506.5028" cy="-3321.5876" r="4.94606237258318" fill="white"/>
        </g>
        <g id="Group_2153">
          <g id="Group_2155">
            <g id="Graphic_2158">
              <rect x="-504.6704" y="-3330" width="8.670391" height="2.2857143" fill="#5c76a2"/>
            </g>
            <g id="Graphic_2157">
              <rect x="-504.6704" y="-3316.2857" width="8.670391" height="2.2857143" fill="#5c76a2"/>
            </g>
            <g id="Graphic_2156">
              <rect x="-501.4972" y="-3323.143" width="5.497207" height="2.2857143" fill="#5c76a2"/>
            </g>
          </g>
          <g id="Graphic_2154">
            <path d="M -507.419 -3326.4692 C -509.9523 -3326.4692 -512 -3324.4215 -512 -3321.8882 C -512 -3319.355 -509.9523 -3317.307 -507.419 -3317.307 C -504.8857 -3317.307 -502.838 -3319.355 -502.838 -3321.8882 C -502.838 -3324.4215 -504.8857 -3326.4692 -507.419 -3326.4692 Z M -505.1285 -3320.2436 L -505.7744 -3319.5977 L -507.419 -3321.2423 L -509.0636 -3319.5977 L -509.7095 -3320.2436 L -508.0649 -3321.8882 L -509.7095 -3323.5328 L -509.0636 -3324.1787 L -507.419 -3322.534 L -505.7744 -3324.1787 L -505.1285 -3323.5328 L -506.7731 -3321.8882 L -505.1285 -3320.2436 Z" fill="#9f4c4c"/>
          </g>
        </g>
      </g>
    </g>
  </g>
</svg>
