<svg xmlns="http://www.w3.org/2000/svg" viewBox="-981.59 -3332.622 16 16" width="16" height="16"><g fill="none"><path d="M-967.19-3332.622h-12.8c-.88 0-1.6.72-1.6 1.6v12.8c0 .88.72 1.6 1.6 1.6h12.8c.88 0 1.6-.72 1.6-1.6v-12.8c0-.88-.72-1.6-1.6-1.6Zm-9.6 14.4h-3.2v-3.2h3.2v3.2Zm0-4.8h-3.2v-3.2h3.2v3.2Zm0-4.8h-3.2v-3.2h3.2v3.2Zm4.8 9.6h-3.2v-3.2h3.2v3.2Zm0-4.8h-3.2v-3.2h3.2v3.2Zm0-4.8h-3.2v-3.2h3.2v3.2Zm4.8 9.6h-3.2v-3.2h3.2v3.2Zm0-4.8h-3.2v-3.2h3.2v3.2Zm0-4.8h-3.2v-3.2h3.2v3.2Z" fill="#5c76a1"/></g></svg>