<svg xmlns="http://www.w3.org/2000/svg" viewBox="-741.936 -3333.083 16.692 16.692" width="16.692" height="16.692"><g fill="none"><path d="M-727.045-3332.737h-13.09c-.8 0-1.455.72-1.455 1.6v9.6c0 .88.654 1.6 1.454 1.6h5.091v1.6h-1.454v1.6h5.818v-1.6h-1.455v-1.6h5.091c.8 0 1.455-.72 1.455-1.6v-9.6c0-.88-.655-1.6-1.455-1.6Zm0 11.2h-13.09v-9.6h13.09v9.6Z" fill="#5c76a2"/><path d="M-727.045-3332.737h-13.09c-.8 0-1.455.72-1.455 1.6v9.6c0 .88.654 1.6 1.454 1.6h5.091v1.6h-1.454v1.6h5.818v-1.6h-1.455v-1.6h5.091c.8 0 1.455-.72 1.455-1.6v-9.6c0-.88-.655-1.6-1.455-1.6Zm0 11.2h-13.09v-9.6h13.09v9.6Z" stroke="#5c76a2" stroke-linecap="round" stroke-linejoin="round" stroke-width=".692"/></g></svg>