<svg xmlns="http://www.w3.org/2000/svg" viewBox="-752 -3330 16 16" width="16" height="16"><g fill="none"><path d="M-743.001-3330c-3.867 0-7.001 2.56-7.001 5.718s3.134 5.718 7 5.718c.372 0 .737-.024 1.092-.07 1.504 1.512 3.3 1.783 5.035 1.823v-.37c-.937-.461-1.75-1.302-1.75-2.263 0-.134.01-.265.03-.394 1.582-1.048 2.595-2.65 2.595-4.444 0-3.158-3.134-5.718-7.001-5.718Z" fill="#518737"/><path d="M-746.75-3323.892c2.901 0 5.252 1.92 5.252 4.289 0 2.368-2.35 4.288-5.251 4.288a6.42 6.42 0 0 1-.819-.052c-1.128 1.134-2.474 1.337-3.776 1.367v-.277c.703-.347 1.313-.977 1.313-1.698 0-.1-.008-.199-.022-.296-1.188-.786-1.947-1.986-1.947-3.332 0-2.369 2.35-4.289 5.25-4.289Z" fill="#cf7738"/></g></svg>