<svg xmlns="http://www.w3.org/2000/svg" viewBox="-541.59 -3332.622 16 16" width="16" height="16"><g fill="none"><circle cx="-536.093" cy="-3324.209" r="4.946" fill="#fff"/><path fill="#5c76a2" d="M-534.261-3332.622h8.67v2.286h-8.67zM-534.261-3318.907h8.67v2.286h-8.67zM-531.087-3325.765h5.497v2.286h-5.497z"/><path d="M-537.01-3329.091a4.577 4.577 0 0 0-4.58 4.581 4.577 4.577 0 0 0 4.58 4.581 4.577 4.577 0 0 0 4.582-4.581 4.577 4.577 0 0 0-4.581-4.581Zm2.291 6.226-.646.646-1.644-1.645-1.645 1.645-.646-.646 1.645-1.645-1.645-1.644.646-.646 1.645 1.644 1.644-1.644.646.646-1.644 1.644 1.644 1.645Z" fill="#9f4c4c"/></g></svg>