<svg xmlns="http://www.w3.org/2000/svg" width="16" height="16" viewBox="-792 -3330 16 16"><g fill="none"><path fill="#5c76a2" d="M-784-3327.454c-3.636 0-6.742 2.261-8 5.454 1.258 3.193 4.364 5.454 8 5.454s6.742-2.261 8-5.454c-1.258-3.193-4.364-5.454-8-5.454Zm0 9.09a3.638 3.638 0 0 1-3.636-3.636 3.638 3.638 0 0 1 3.636-3.636 3.638 3.638 0 0 1 3.636 3.636 3.638 3.638 0 0 1-3.636 3.636Zm0-5.818a2.179 2.179 0 0 0-2.182 2.182c0 1.207.975 2.182 2.182 2.182a2.179 2.179 0 0 0 2.182-2.182 2.179 2.179 0 0 0-2.182-2.182Z"/></g></svg>