<?xml version="1.0" encoding="UTF-8" standalone="no"?>
<!DOCTYPE svg PUBLIC "-//W3C//DTD SVG 1.1//EN" "http://www.w3.org/Graphics/SVG/1.1/DTD/svg11.dtd">
<svg xmlns:xl="http://www.w3.org/1999/xlink" version="1.1" xmlns="http://www.w3.org/2000/svg" xmlns:dc="http://purl.org/dc/elements/1.1/" viewBox="-712.346 -3330.346 16.692005 16.692005" width="16.692005" height="16.692005">
  <defs/>
  <g id="ICONES" stroke="none" stroke-opacity="1" stroke-dasharray="none" fill="none" fill-opacity="1">
    <title>ICONES</title>
    <g id="ICONES_Calque_1">
      <title>Calque 1</title>
      <g id="Graphic_2966">
        <title>views/tabs/view.monitors</title>
        <path d="M -697.45455 -3330 L -710.54545 -3330 C -711.34545 -3330 -712 -3329.28 -712 -3328.4 L -712 -3318.8 C -712 -3317.92 -711.34545 -3317.2 -710.54545 -3317.2 L -705.45455 -3317.2 L -705.45455 -3315.6 L -706.9091 -3315.6 L -706.9091 -3314 L -701.0909 -3314 L -701.0909 -3315.6 L -702.54545 -3315.6 L -702.54545 -3317.2 L -697.45455 -3317.2 C -696.65455 -3317.2 -696 -3317.92 -696 -3318.8 L -696 -3328.4 C -696 -3329.28 -696.65455 -3330 -697.45455 -3330 Z M -697.45455 -3318.8 L -710.54545 -3318.8 L -710.54545 -3328.4 L -697.45455 -3328.4 L -697.45455 -3318.8 Z" fill="#5c76a2"/>
        <path d="M -697.45455 -3330 L -710.54545 -3330 C -711.34545 -3330 -712 -3329.28 -712 -3328.4 L -712 -3318.8 C -712 -3317.92 -711.34545 -3317.2 -710.54545 -3317.2 L -705.45455 -3317.2 L -705.45455 -3315.6 L -706.9091 -3315.6 L -706.9091 -3314 L -701.0909 -3314 L -701.0909 -3315.6 L -702.54545 -3315.6 L -702.54545 -3317.2 L -697.45455 -3317.2 C -696.65455 -3317.2 -696 -3317.92 -696 -3318.8 L -696 -3328.4 C -696 -3329.28 -696.65455 -3330 -697.45455 -3330 Z M -697.45455 -3318.8 L -710.54545 -3318.8 L -710.54545 -3328.4 L -697.45455 -3328.4 L -697.45455 -3318.8 Z" stroke="#5c76a2" stroke-linecap="round" stroke-linejoin="round" stroke-width=".69200524"/>
      </g>
    </g>
  </g>
</svg>
