<svg xmlns="http://www.w3.org/2000/svg" width="16" height="16" viewBox="-512 -3330 16 16"><g fill="none"><circle cx="-506.503" cy="-3321.588" r="4.946" fill="#fff"/><path fill="#5c76a2" d="M-504.67-3330h8.67v2.286h-8.67zM-504.67-3316.286h8.67v2.286h-8.67zM-501.497-3323.143H-496v2.286h-5.497z"/><path fill="#9f4c4c" d="M-507.419-3326.47a4.577 4.577 0 0 0-4.581 4.582 4.577 4.577 0 0 0 4.581 4.581 4.577 4.577 0 0 0 4.581-4.581 4.577 4.577 0 0 0-4.581-4.581Zm2.29 6.226-.645.646-1.645-1.644-1.645 1.644-.645-.646 1.644-1.644-1.644-1.645.645-.646 1.645 1.645 1.645-1.645.646.646-1.645 1.645 1.645 1.644Z"/></g></svg>