<?xml version="1.0" encoding="UTF-8" standalone="no"?>
<!DOCTYPE svg PUBLIC "-//W3C//DTD SVG 1.1//EN" "http://www.w3.org/Graphics/SVG/1.1/DTD/svg11.dtd">
<svg xmlns:xl="http://www.w3.org/1999/xlink" version="1.1" xmlns="http://www.w3.org/2000/svg" xmlns:dc="http://purl.org/dc/elements/1.1/" viewBox="-952 -3330 16 16" width="16" height="16">
  <defs/>
  <g id="ICONES" stroke="none" stroke-opacity="1" stroke-dasharray="none" fill="none" fill-opacity="1">
    <title>ICONES</title>
    <g id="ICONES_Calque_1">
      <title>Calque 1</title>
      <g id="Graphic_3244">
        <title>views/tabs/view.browser</title>
        <path d="M -937.6 -3330 L -950.4 -3330 C -951.28 -3330 -952 -3329.28 -952 -3328.4 L -952 -3315.6 C -952 -3314.72 -951.28 -3314 -950.4 -3314 L -937.6 -3314 C -936.72 -3314 -936 -3314.72 -936 -3315.6 L -936 -3328.4 C -936 -3329.28 -936.72 -3330 -937.6 -3330 Z M -947.2 -3315.6 L -950.4 -3315.6 L -950.4 -3318.8 L -947.2 -3318.8 L -947.2 -3315.6 Z M -947.2 -3320.4 L -950.4 -3320.4 L -950.4 -3323.6 L -947.2 -3323.6 L -947.2 -3320.4 Z M -947.2 -3325.2 L -950.4 -3325.2 L -950.4 -3328.4 L -947.2 -3328.4 L -947.2 -3325.2 Z M -942.4 -3315.6 L -945.6 -3315.6 L -945.6 -3318.8 L -942.4 -3318.8 L -942.4 -3315.6 Z M -942.4 -3320.4 L -945.6 -3320.4 L -945.6 -3323.6 L -942.4 -3323.6 L -942.4 -3320.4 Z M -942.4 -3325.2 L -945.6 -3325.2 L -945.6 -3328.4 L -942.4 -3328.4 L -942.4 -3325.2 Z M -937.6 -3315.6 L -940.8 -3315.6 L -940.8 -3318.8 L -937.6 -3318.8 L -937.6 -3315.6 Z M -937.6 -3320.4 L -940.8 -3320.4 L -940.8 -3323.6 L -937.6 -3323.6 L -937.6 -3320.4 Z M -937.6 -3325.2 L -940.8 -3325.2 L -940.8 -3328.4 L -937.6 -3328.4 L -937.6 -3325.2 Z" fill="#5c76a1"/>
      </g>
    </g>
  </g>
</svg>
