<svg xmlns="http://www.w3.org/2000/svg" width="17" height="17" viewBox="-552.5 -3210.5 17 17"><g fill="none"><circle cx="-546.503" cy="-3201.588" r="4.946" fill="#fff"/><path fill="#5c76a2" d="M-544.67-3210h8.67v2.286h-8.67zM-544.67-3196.286h8.67v2.286h-8.67zM-541.497-3203.143H-536v2.286h-5.497z"/><path fill="#9f4c4c" d="M-547.419-3206.47a4.577 4.577 0 0 0-4.581 4.582 4.577 4.577 0 0 0 4.581 4.58 4.577 4.577 0 0 0 4.581-4.58 4.577 4.577 0 0 0-4.581-4.581Zm2.29 6.226-.645.646-1.645-1.644-1.645 1.644-.646-.646 1.645-1.644-1.644-1.645.645-.646 1.645 1.645 1.645-1.645.645.646-1.644 1.645 1.644 1.644Z"/></g></svg>