<svg xmlns="http://www.w3.org/2000/svg" viewBox="-982.09 -3853.122 25 25" width="25" height="25"><g fill="none"><circle cx="-969.59" cy="-3840.622" r="12" fill="#fff"/><circle cx="-969.59" cy="-3840.622" r="12" stroke="#000" stroke-linecap="round" stroke-linejoin="round" stroke-width=".25"/><path d="M-963.05-3839.673h-5.126a.48.48 0 0 0-.48.48v4.73a.48.48 0 0 1-.48.48h-.909a.48.48 0 0 1-.48-.48v-4.73a.48.48 0 0 0-.48-.48h-4.645a.48.48 0 0 1-.48-.48v-.937a.48.48 0 0 1 .48-.48h4.645a.48.48 0 0 0 .48-.48v-4.73a.48.48 0 0 1 .48-.48h.909a.48.48 0 0 1 .48.48v4.73c0 .265.215.48.48.48h4.646a.48.48 0 0 1 .48.48v1.417Z" fill="#5c76a2"/><path d="M-963.05-3839.673h-5.126a.48.48 0 0 0-.48.48v4.73a.48.48 0 0 1-.48.48h-.909a.48.48 0 0 1-.48-.48v-4.73a.48.48 0 0 0-.48-.48h-4.645a.48.48 0 0 1-.48-.48v-.937a.48.48 0 0 1 .48-.48h4.645a.48.48 0 0 0 .48-.48v-4.73a.48.48 0 0 1 .48-.48h.909a.48.48 0 0 1 .48.48v4.73c0 .265.215.48.48.48h4.646a.48.48 0 0 1 .48.48v1.417Z" stroke="#5c76a2" stroke-linecap="round" stroke-linejoin="round" stroke-width="1.92"/></g></svg>