<svg xmlns="http://www.w3.org/2000/svg" viewBox="-872.625 -3850.625 25.25 25.25" width="25.25" height="25.25"><g fill="none"><path d="M-868.149-3850h16.298a3.851 3.851 0 0 1 3.851 3.851v16.298a3.851 3.851 0 0 1-3.851 3.851h-16.298a3.851 3.851 0 0 1-3.851-3.851v-16.298a3.851 3.851 0 0 1 3.851-3.851Z" fill="#fff"/><path d="M-868.149-3850h16.298a3.851 3.851 0 0 1 3.851 3.851v16.298a3.851 3.851 0 0 1-3.851 3.851h-16.298a3.851 3.851 0 0 1-3.851-3.851v-16.298a3.851 3.851 0 0 1 3.851-3.851Z" stroke="#000" stroke-linecap="round" stroke-linejoin="round" stroke-width=".25"/><path d="M-867.12-3830.961h14.24a.722.722 0 0 0 .63-1.074l-7.12-12.783a.722.722 0 0 0-1.26 0l-7.12 12.783a.722.722 0 0 0 .63 1.073Z" fill="#d07738"/></g></svg>