<svg xmlns="http://www.w3.org/2000/svg" viewBox="-862.09 -3853.122 25 25" width="25" height="25"><g fill="none"><path d="M-857.739-3852.622h16.297a3.851 3.851 0 0 1 3.852 3.852v16.297a3.851 3.851 0 0 1-3.852 3.851h-16.297a3.851 3.851 0 0 1-3.851-3.851v-16.297a3.851 3.851 0 0 1 3.851-3.852Z" fill="#fff"/><path d="M-857.739-3852.622h16.297a3.851 3.851 0 0 1 3.852 3.852v16.297a3.851 3.851 0 0 1-3.852 3.851h-16.297a3.851 3.851 0 0 1-3.851-3.851v-16.297a3.851 3.851 0 0 1 3.851-3.852Z" stroke="#000" stroke-linecap="round" stroke-linejoin="round" stroke-width=".25"/><path d="M-856.71-3833.583h14.24a.722.722 0 0 0 .63-1.074l-7.12-12.783a.722.722 0 0 0-1.261 0l-7.12 12.783a.722.722 0 0 0 .631 1.074Z" fill="#d07738"/></g></svg>