<svg xmlns="http://www.w3.org/2000/svg" width="103" height="103" viewBox="548.5 -1433.5 103 103"><g fill="none"><ellipse cx="600" cy="-1382" fill="#fff" rx="50" ry="49.262"/><path stroke="#000" stroke-linecap="round" stroke-linejoin="round" stroke-width="3" d="m600-1332 4.358-.19 4.324-.57 4.259-.944 4.16-1.311 4.03-1.67 3.869-2.014 3.679-2.343 3.46-2.656 3.216-2.947 2.947-3.216 2.656-3.46L643.3-1357l2.014-3.87 1.67-4.029 1.311-4.16.944-4.259.57-4.324.19-4.358-.19-4.358-.57-4.324-.944-4.259-1.311-4.16-1.67-4.03-2.014-3.869-2.343-3.679-2.656-3.46-2.947-3.216-3.216-2.947-3.46-2.656L625-1425.3l-3.87-2.014-4.029-1.67-4.16-1.311-4.259-.944-4.324-.57L600-1432l-4.358.19-4.324.57-4.259.944-4.16 1.311-4.03 1.67-3.869 2.014-3.679 2.343-3.46 2.656-3.216 2.947-2.947 3.216-2.656 3.46L556.7-1407l-2.014 3.87-1.67 4.029-1.311 4.16-.944 4.259-.57 4.324L550-1382l.19 4.358.57 4.324.944 4.259 1.311 4.16 1.67 4.03 2.014 3.869 2.343 3.679 2.656 3.46 2.947 3.216 3.216 2.947 3.46 2.656L575-1338.7l3.87 2.014 4.029 1.67 4.16 1.311 4.259.944 4.324.57 4.358.19"/><path stroke="#9f4c4c" stroke-linecap="round" stroke-linejoin="round" stroke-width="16" d="M575-1382.5h50"/></g></svg>