<?xml version="1.0" encoding="UTF-8" standalone="no"?>
<!DOCTYPE svg PUBLIC "-//W3C//DTD SVG 1.1//EN" "http://www.w3.org/Graphics/SVG/1.1/DTD/svg11.dtd">
<svg version="1.1" xmlns="http://www.w3.org/2000/svg" xmlns:xl="http://www.w3.org/1999/xlink" xmlns:dc="http://purl.org/dc/elements/1.1/" viewBox="-215.5 -671.5 103 103" width="103" height="103">
  <defs/>
  <g id="Icons_1" stroke-dasharray="none" fill-opacity="1" stroke="none" stroke-opacity="1" fill="none">
    <title>Icons 1</title>
    <g id="Icons_1_Calque_1">
      <title>Calque 1</title>
      <g id="Group_2524">
        <g id="Group_1619">
          <g id="Graphic_1621">
            <ellipse cx="-164" cy="-620" rx="50.000072345221" ry="49.2618762577284" fill="white"/>
          </g>
          <g id="Line_1620">
            <path d="M -164 -670 L -168.35779 -669.8097 L -172.68241 -669.2404 L -176.94095 -668.2963 L -181.101 -666.9846 L -185.13091 -665.3154 L -189 -663.3013 L -192.67882 -660.9576 L -196.13937 -658.3022 L -199.35535 -655.35535 L -202.30222 -652.1394 L -204.9576 -648.6788 L -207.30127 -645 L -209.31538 -641.1309 L -210.98463 -637.101 L -212.2963 -632.94095 L -213.24039 -628.6824 L -213.80974 -624.3578 L -214 -620 L -213.80974 -615.6422 L -213.24039 -611.3176 L -212.2963 -607.05905 L -210.98463 -602.899 L -209.31538 -598.8691 L -207.30127 -595 L -204.9576 -591.3212 L -202.30222 -587.8606 L -199.35535 -584.64466 L -196.13937 -581.6978 L -192.67882 -579.0424 L -189 -576.6987 L -185.13091 -574.6846 L -181.101 -573.0154 L -176.94095 -571.7037 L -172.68241 -570.7596 L -168.35779 -570.19027 L -164 -570 L -159.64221 -570.19027 L -155.31759 -570.7596 L -151.05905 -571.7037 L -146.899 -573.0154 L -142.86909 -574.6846 L -139 -576.6987 L -135.32117 -579.0424 L -131.86062 -581.6978 L -128.64466 -584.64466 L -125.69778 -587.8606 L -123.0424 -591.3212 L -120.69873 -595 L -118.68461 -598.8691 L -117.01537 -602.899 L -115.70371 -607.05905 L -114.75961 -611.3176 L -114.19027 -615.6422 L -114 -620 L -114.19027 -624.3578 L -114.75961 -628.6824 L -115.70371 -632.94095 L -117.01537 -637.101 L -118.68461 -641.1309 L -120.69873 -645 L -123.0424 -648.6788 L -125.69778 -652.1394 L -128.64466 -655.35535 L -131.86062 -658.3022 L -135.32117 -660.9576 L -139 -663.3013 L -142.86909 -665.3154 L -146.899 -666.9846 L -151.05905 -668.2963 L -155.31759 -669.2404 L -159.64221 -669.8097 L -164 -670" stroke="black" stroke-linecap="round" stroke-linejoin="round" stroke-width="3"/>
          </g>
        </g>
        <g id="Line_1618">
          <line x1="-163.49998" y1="-617.0953" x2="-163.49998" y2="-647.0953" stroke="#9f4c4c" stroke-linecap="round" stroke-linejoin="round" stroke-width="16"/>
        </g>
        <g id="Line_1617">
          <line x1="-163.49998" y1="-591.28155" x2="-163.49998" y2="-594.28155" stroke="#9f4c4c" stroke-linecap="round" stroke-linejoin="round" stroke-width="16"/>
        </g>
      </g>
    </g>
  </g>
</svg>
