<svg xmlns="http://www.w3.org/2000/svg" width="102.706" height="102.706" viewBox="418.5 -1546.5 102.706 102.706"><g fill="none"><path fill="#fff" d="M436-1545h67.706c8.837 0 16 7.163 16 16v67.706c0 8.837-7.163 16-16 16H436c-8.837 0-16-7.163-16-16V-1529c0-8.837 7.163-16 16-16Z"/><path stroke="#000" stroke-linecap="round" stroke-linejoin="round" stroke-width="3" d="M436-1545h67.706c8.837 0 16 7.163 16 16v67.706c0 8.837-7.163 16-16 16H436c-8.837 0-16-7.163-16-16V-1529c0-8.837 7.163-16 16-16Z"/><path fill="#d07738" d="M440.276-1465.906h59.154a3 3 0 0 0 2.621-4.46l-29.577-53.107a3 3 0 0 0-5.242 0l-29.577 53.107a3 3 0 0 0 2.62 4.46Z"/></g></svg>