<svg xmlns="http://www.w3.org/2000/svg" viewBox="-472.625 -3850.448 25.25 24.896" width="25.25" height="24.896"><g fill="none"><ellipse cx="-460" cy="-3838" rx="12" ry="11.823" fill="#fff"/><ellipse cx="-460" cy="-3838" rx="12" ry="11.823" stroke="#000" stroke-linecap="round" stroke-linejoin="round" stroke-width=".25"/><path d="M-460-3844.5v-2.437l-3.25 3.25 3.25 3.25v-2.438a4.879 4.879 0 0 1 4.875 4.875c0 .82-.204 1.6-.57 2.275l1.187 1.186A6.443 6.443 0 0 0-453.5-3838c0-3.591-2.908-6.5-6.499-6.5Zm0 11.375a4.879 4.879 0 0 1-4.875-4.875c0-.82.204-1.6.57-2.275l-1.187-1.186A6.443 6.443 0 0 0-466.5-3838c0 3.591 2.908 6.5 6.499 6.5v2.437l3.25-3.25-3.25-3.25v2.438Z" fill="#5c76a2"/><path d="M-460-3844.5v-2.437l-3.25 3.25 3.25 3.25v-2.438a4.879 4.879 0 0 1 4.875 4.875c0 .82-.204 1.6-.57 2.275l1.187 1.186A6.443 6.443 0 0 0-453.5-3838c0-3.591-2.908-6.5-6.499-6.5Zm0 11.375a4.879 4.879 0 0 1-4.875-4.875c0-.82.204-1.6.57-2.275l-1.187-1.186A6.443 6.443 0 0 0-466.5-3838c0 3.591 2.908 6.5 6.499 6.5v2.437l3.25-3.25-3.25-3.25v2.438Z" stroke="#5c76a2" stroke-linecap="round" stroke-linejoin="round" stroke-width=".96"/></g></svg>