<svg xmlns="http://www.w3.org/2000/svg" viewBox="-542.09 -3853.122 25 25" width="25" height="25"><g fill="none"><circle cx="-529.59" cy="-3840.622" r="12" fill="#fff"/><circle cx="-529.59" cy="-3840.622" r="12" stroke="#000" stroke-linecap="round" stroke-linejoin="round" stroke-width=".25"/><path d="M-534.842-3846.072v10.507a.72.72 0 0 0 1.223.516l5.385-5.254a.72.72 0 0 0 0-1.03l-5.385-5.254a.72.72 0 0 0-1.223.515Z" fill="#65727e"/><path d="M-534.842-3846.072v10.507a.72.72 0 0 0 1.223.516l5.385-5.254a.72.72 0 0 0 0-1.03l-5.385-5.254a.72.72 0 0 0-1.223.515Z" stroke="#65727e" stroke-linecap="round" stroke-linejoin="round" stroke-width=".24"/><path stroke="#65727e" stroke-linecap="round" stroke-linejoin="round" stroke-width="3.84" d="M-524.552-3844.999v8.4"/></g></svg>