<svg xmlns="http://www.w3.org/2000/svg" viewBox="-752.625 -3850.448 25.25 24.896" width="25.25" height="24.896"><g fill="none"><ellipse cx="-740" cy="-3838" rx="12" ry="11.823" fill="#fff"/><ellipse cx="-740" cy="-3838" rx="12" ry="11.823" stroke="#000" stroke-linecap="round" stroke-linejoin="round" stroke-width=".25"/><path d="m-743.363-3843.331 4.268-4.269v2.88c3.697.46 6.568 3.612 6.568 7.44a7.495 7.495 0 0 1-6.568 7.44v-1.895a5.627 5.627 0 0 0 4.691-5.545 5.627 5.627 0 0 0-4.69-5.545v3.669l-4.27-4.175Zm-4.11 5.113a7.418 7.418 0 0 1 1.52-3.65l1.332 1.333a5.448 5.448 0 0 0-.957 2.317h-1.895Zm6.502 6.474v1.895a7.434 7.434 0 0 1-3.659-1.511l1.351-1.351a5.43 5.43 0 0 0 2.308.966Zm-3.65-2.271-1.332 1.323a7.418 7.418 0 0 1-1.52-3.65h1.895c.132.816.45 1.614.957 2.327Z" fill="#5c76a2"/><path d="m-743.363-3843.331 4.268-4.269v2.88c3.697.46 6.568 3.612 6.568 7.44a7.495 7.495 0 0 1-6.568 7.44v-1.895a5.627 5.627 0 0 0 4.691-5.545 5.627 5.627 0 0 0-4.69-5.545v3.669l-4.27-4.175Zm-4.11 5.113a7.418 7.418 0 0 1 1.52-3.65l1.332 1.333a5.448 5.448 0 0 0-.957 2.317h-1.895Zm6.502 6.474v1.895a7.434 7.434 0 0 1-3.659-1.511l1.351-1.351a5.43 5.43 0 0 0 2.308.966Zm-3.65-2.271-1.332 1.323a7.418 7.418 0 0 1-1.52-3.65h1.895c.132.816.45 1.614.957 2.327Z" stroke="#5c76a2" stroke-linecap="round" stroke-linejoin="round" stroke-width=".96"/></g></svg>