<svg xmlns="http://www.w3.org/2000/svg" viewBox="-822.09 -3853.122 25 25" width="25" height="25"><g fill="none"><circle cx="-809.59" cy="-3840.622" r="12" fill="#fff"/><circle cx="-809.59" cy="-3840.622" r="12" stroke="#000" stroke-linecap="round" stroke-linejoin="round" stroke-width=".25"/><path d="M-815.522-3845.902v10.507a.72.72 0 0 0 1.223.516l5.384-5.254a.72.72 0 0 0 .013-1.018l-.013-.013-5.385-5.253a.72.72 0 0 0-1.222.515Z" fill="#518737"/><path d="M-815.522-3845.902v10.507a.72.72 0 0 0 1.223.516l5.384-5.254a.72.72 0 0 0 .013-1.018l-.013-.013-5.385-5.253a.72.72 0 0 0-1.222.515Z" stroke="#65727e" stroke-linecap="round" stroke-linejoin="round" stroke-width=".24"/><path d="M-808.555-3845.849v10.508a.72.72 0 0 0 1.223.515l5.384-5.254a.72.72 0 0 0 .013-1.018l-.013-.012-5.384-5.254a.72.72 0 0 0-1.223.515Z" fill="#518737"/><path d="M-808.555-3845.849v10.508a.72.72 0 0 0 1.223.515l5.384-5.254a.72.72 0 0 0 .013-1.018l-.013-.012-5.384-5.254a.72.72 0 0 0-1.223.515Z" stroke="#65727e" stroke-linecap="round" stroke-linejoin="round" stroke-width=".24"/></g></svg>