<svg xmlns="http://www.w3.org/2000/svg" viewBox="-592.625 -3850.448 25.25 24.896" width="25.25" height="24.896"><g fill="none"><ellipse cx="-580" cy="-3838" rx="12" ry="11.823" fill="#fff"/><ellipse cx="-580" cy="-3838" rx="12" ry="11.823" stroke="#ccc" stroke-linecap="round" stroke-linejoin="round" stroke-width=".25"/><path d="M-585.251-3843.273v10.507a.72.72 0 0 0 1.222.515l5.385-5.253a.72.72 0 0 0 .012-1.018l-.012-.013-5.385-5.254a.72.72 0 0 0-1.222.516Z" fill="#ccc"/><path d="M-585.251-3843.273v10.507a.72.72 0 0 0 1.222.515l5.385-5.253a.72.72 0 0 0 .012-1.018l-.012-.013-5.385-5.254a.72.72 0 0 0-1.222.516Z" stroke="#ccc" stroke-linecap="round" stroke-linejoin="round" stroke-width=".24"/><path stroke="#ccc" stroke-linecap="round" stroke-linejoin="round" stroke-width="3.84" d="M-574.962-3842.2v8.4"/></g></svg>