<svg xmlns="http://www.w3.org/2000/svg" viewBox="-742.09 -3853.122 25 25" width="25" height="25"><g fill="none"><circle cx="-729.59" cy="-3840.622" r="12" fill="#fff"/><circle cx="-729.59" cy="-3840.622" r="12" stroke="#000" stroke-linecap="round" stroke-linejoin="round" stroke-width=".25"/><path d="m-732.954-3846.13 4.27-4.269v2.88c3.696.46 6.566 3.612 6.566 7.44a7.495 7.495 0 0 1-6.567 7.44v-1.895a5.627 5.627 0 0 0 4.691-5.545 5.627 5.627 0 0 0-4.69-5.544v3.668l-4.27-4.175Zm-4.109 5.113a7.418 7.418 0 0 1 1.52-3.65l1.332 1.333a5.449 5.449 0 0 0-.957 2.317h-1.895Zm6.502 6.474v1.895a7.434 7.434 0 0 1-3.66-1.51l1.352-1.352a5.427 5.427 0 0 0 2.308.967Zm-3.65-2.271-1.332 1.323a7.417 7.417 0 0 1-1.52-3.65h1.895c.131.817.45 1.614.957 2.327Z" fill="#5c76a2"/><path d="m-732.954-3846.13 4.27-4.269v2.88c3.696.46 6.566 3.612 6.566 7.44a7.495 7.495 0 0 1-6.567 7.44v-1.895a5.627 5.627 0 0 0 4.691-5.545 5.627 5.627 0 0 0-4.69-5.544v3.668l-4.27-4.175Zm-4.109 5.113a7.418 7.418 0 0 1 1.52-3.65l1.332 1.333a5.449 5.449 0 0 0-.957 2.317h-1.895Zm6.502 6.474v1.895a7.434 7.434 0 0 1-3.66-1.51l1.352-1.352a5.427 5.427 0 0 0 2.308.967Zm-3.65-2.271-1.332 1.323a7.417 7.417 0 0 1-1.52-3.65h1.895c.131.817.45 1.614.957 2.327Z" stroke="#5c76a2" stroke-linecap="round" stroke-linejoin="round" stroke-width=".96"/></g></svg>