<svg xmlns="http://www.w3.org/2000/svg" viewBox="288.5 -1307.5 103 103" width="103" height="103"><g fill="none"><ellipse cx="340" cy="-1256" rx="50" ry="49.262" fill="#fff"/><path d="m340-1206 4.358-.19 4.324-.57 4.259-.944 4.16-1.311 4.03-1.67 3.869-2.014 3.679-2.343 3.46-2.656 3.216-2.947 2.947-3.216 2.656-3.46L383.3-1231l2.014-3.87 1.67-4.029 1.311-4.16.944-4.259.57-4.324.19-4.358-.19-4.358-.57-4.324-.944-4.259-1.311-4.16-1.67-4.03-2.014-3.869-2.343-3.679-2.656-3.46-2.947-3.216-3.216-2.947-3.46-2.656L365-1299.3l-3.87-2.014-4.029-1.67-4.16-1.311-4.259-.944-4.324-.57L340-1306l-4.358.19-4.324.57-4.259.944-4.16 1.311-4.03 1.67-3.869 2.014-3.679 2.343-3.46 2.656-3.216 2.947-2.947 3.216-2.656 3.46L296.7-1281l-2.014 3.87-1.67 4.029-1.311 4.16-.944 4.259-.57 4.324L290-1256l.19 4.358.57 4.324.944 4.259 1.311 4.16 1.67 4.03 2.014 3.869 2.343 3.679 2.656 3.46 2.947 3.216 3.216 2.947 3.46 2.656L315-1212.7l3.87 2.014 4.029 1.67 4.16 1.311 4.259.944 4.324.57 4.358.19" stroke="#000" stroke-linecap="round" stroke-linejoin="round" stroke-width="3"/><path stroke="#d07738" stroke-linecap="round" stroke-linejoin="round" stroke-width="16" d="M327.436-1273.5v35M351.564-1273.5v35"/></g></svg>