<svg xmlns="http://www.w3.org/2000/svg" viewBox="-832.625 -3850.448 25.25 24.896" width="25.25" height="24.896"><g fill="none"><ellipse cx="-820" cy="-3838" rx="12" ry="11.823" fill="#fff"/><ellipse cx="-820" cy="-3838" rx="12" ry="11.823" stroke="#000" stroke-linecap="round" stroke-linejoin="round" stroke-width=".25"/><path d="M-825.463-3843.28v10.507a.72.72 0 0 0 1.223.515l5.385-5.253a.72.72 0 0 0 0-1.031l-5.385-5.254a.72.72 0 0 0-1.223.516Z" fill="#518737"/><path d="M-825.463-3843.28v10.507a.72.72 0 0 0 1.223.515l5.385-5.253a.72.72 0 0 0 0-1.031l-5.385-5.254a.72.72 0 0 0-1.223.516Z" stroke="#65727e" stroke-linecap="round" stroke-linejoin="round" stroke-width=".24"/><path d="M-818.496-3843.227v10.507a.72.72 0 0 0 1.223.516l5.385-5.254a.72.72 0 0 0 0-1.03l-5.385-5.254a.72.72 0 0 0-1.223.515Z" fill="#518737"/><path d="M-818.496-3843.227v10.507a.72.72 0 0 0 1.223.516l5.385-5.254a.72.72 0 0 0 0-1.03l-5.385-5.254a.72.72 0 0 0-1.223.515Z" stroke="#65727e" stroke-linecap="round" stroke-linejoin="round" stroke-width=".24"/></g></svg>