<svg xmlns="http://www.w3.org/2000/svg" width="103" height="103" viewBox="540.5 -1307.5 103 103"><g fill="none"><ellipse cx="592" cy="-1256" fill="#fff" rx="50" ry="49.262"/><path stroke="#000" stroke-linecap="round" stroke-linejoin="round" stroke-width="3" d="m592-1206 4.358-.19 4.324-.57 4.259-.944 4.16-1.311 4.03-1.67 3.869-2.014 3.679-2.343 3.46-2.656 3.216-2.947 2.947-3.216 2.656-3.46L635.3-1231l2.014-3.87 1.67-4.029 1.311-4.16.944-4.259.57-4.324.19-4.358-.19-4.358-.57-4.324-.944-4.259-1.311-4.16-1.67-4.03-2.014-3.869-2.343-3.679-2.656-3.46-2.947-3.216-3.216-2.947-3.46-2.656L617-1299.3l-3.87-2.014-4.029-1.67-4.16-1.311-4.259-.944-4.324-.57L592-1306l-4.358.19-4.324.57-4.259.944-4.16 1.311-4.03 1.67-3.869 2.014-3.679 2.343-3.46 2.656-3.216 2.947-2.947 3.216-2.656 3.46L548.7-1281l-2.014 3.87-1.67 4.029-1.311 4.16-.944 4.259-.57 4.324L542-1256l.19 4.358.57 4.324.944 4.259 1.311 4.16 1.67 4.03 2.014 3.869 2.343 3.679 2.656 3.46 2.947 3.216 3.216 2.947 3.46 2.656L567-1212.7l3.87 2.014 4.029 1.67 4.16 1.311 4.259.944 4.324.57 4.358.19"/><path fill="#5c76a2" d="M577.986-1278.213 595.772-1296v12.001c15.402 1.916 27.364 15.05 27.364 31 0 15.949-11.923 29.083-27.364 30.999v-7.897c11.102-1.876 19.546-11.492 19.546-23.102s-8.444-21.227-19.546-23.103v15.284l-17.786-17.395Zm-17.122 21.304c.664-5.433 2.814-10.672 6.332-15.206l5.551 5.55a22.697 22.697 0 0 0-3.987 9.656h-7.896Zm27.09 26.973v7.897a30.977 30.977 0 0 1-15.246-6.294l5.63-5.629c2.931 2.111 6.215 3.48 9.616 4.026Zm-15.207-9.46-5.55 5.512c-3.519-4.534-5.669-9.773-6.333-15.206h7.896a23.052 23.052 0 0 0 3.987 9.694Z"/><path stroke="#5c76a2" stroke-linecap="round" stroke-linejoin="round" stroke-width="4" d="M577.986-1278.213 595.772-1296v12.001c15.402 1.916 27.364 15.05 27.364 31 0 15.949-11.923 29.083-27.364 30.999v-7.897c11.102-1.876 19.546-11.492 19.546-23.102s-8.444-21.227-19.546-23.103v15.284l-17.786-17.395Zm-17.122 21.304c.664-5.433 2.814-10.672 6.332-15.206l5.551 5.55a22.697 22.697 0 0 0-3.987 9.656h-7.896Zm27.09 26.973v7.897a30.977 30.977 0 0 1-15.246-6.294l5.63-5.629c2.931 2.111 6.215 3.48 9.616 4.026Zm-15.207-9.46-5.55 5.512c-3.519-4.534-5.669-9.773-6.333-15.206h7.896a23.052 23.052 0 0 0 3.987 9.694Z"/></g></svg>