<svg xmlns="http://www.w3.org/2000/svg" viewBox="-632.625 -3850.448 25.25 24.896" width="25.25" height="24.896"><g fill="none"><ellipse cx="-620" cy="-3838" rx="12" ry="11.823" fill="#fff"/><ellipse cx="-620" cy="-3838" rx="12" ry="11.823" stroke="#000" stroke-linecap="round" stroke-linejoin="round" stroke-width=".25"/><path d="M-614.749-3843.273v10.507a.72.72 0 0 1-1.222.515l-5.385-5.253a.72.72 0 0 1-.013-1.018l.013-.013 5.385-5.254a.72.72 0 0 1 1.222.516Z" fill="#65727e"/><path d="M-614.749-3843.273v10.507a.72.72 0 0 1-1.222.515l-5.385-5.253a.72.72 0 0 1-.013-1.018l.013-.013 5.385-5.254a.72.72 0 0 1 1.222.516Z" stroke="#65727e" stroke-linecap="round" stroke-linejoin="round" stroke-width=".24"/><path stroke="#65727e" stroke-linecap="round" stroke-linejoin="round" stroke-width="3.84" d="M-625.038-3842.2v8.4"/></g></svg>