<svg xmlns="http://www.w3.org/2000/svg" viewBox="-462.09 -3853.122 25 25" width="25" height="25"><g fill="none"><circle cx="-449.59" cy="-3840.622" r="12" fill="#fff"/><circle cx="-449.59" cy="-3840.622" r="12" stroke="#000" stroke-linecap="round" stroke-linejoin="round" stroke-width=".25"/><path d="M-449.59-3847.298v-2.438l-3.25 3.25 3.25 3.25v-2.438a4.878 4.878 0 0 1 4.874 4.875c0 .82-.203 1.6-.568 2.275l1.186 1.186a6.442 6.442 0 0 0 1.007-3.461c0-3.591-2.908-6.5-6.5-6.5Zm0 11.374a4.878 4.878 0 0 1-4.875-4.875c0-.82.203-1.6.569-2.275l-1.186-1.186a6.444 6.444 0 0 0-1.008 3.461c0 3.591 2.909 6.5 6.5 6.5v2.437l3.25-3.25-3.25-3.25v2.438Z" fill="#5c76a2"/><path d="M-449.59-3847.298v-2.438l-3.25 3.25 3.25 3.25v-2.438a4.878 4.878 0 0 1 4.874 4.875c0 .82-.203 1.6-.568 2.275l1.186 1.186a6.442 6.442 0 0 0 1.007-3.461c0-3.591-2.908-6.5-6.5-6.5Zm0 11.374a4.878 4.878 0 0 1-4.875-4.875c0-.82.203-1.6.569-2.275l-1.186-1.186a6.444 6.444 0 0 0-1.008 3.461c0 3.591 2.909 6.5 6.5 6.5v2.437l3.25-3.25-3.25-3.25v2.438Z" stroke="#5c76a2" stroke-linecap="round" stroke-linejoin="round" stroke-width=".96"/></g></svg>