<svg xmlns="http://www.w3.org/2000/svg" viewBox="-992.523 -4050.656 25.443 25.25" width="25.443" height="25.25"><g fill="none"><path d="M-974.032-4046.191v16.32a3.84 3.84 0 0 1-3.84 3.84h-10.186a3.84 3.84 0 0 1-3.84-3.84v-16.32a3.84 3.84 0 0 1 3.84-3.84h10.186a3.84 3.84 0 0 1 3.84 3.84Z" fill="#fff"/><path d="M-974.032-4046.191v16.32a3.84 3.84 0 0 1-3.84 3.84h-10.186a3.84 3.84 0 0 1-3.84-3.84v-16.32a3.84 3.84 0 0 1 3.84-3.84h10.186a3.84 3.84 0 0 1 3.84 3.84Z" stroke="#000" stroke-linecap="round" stroke-linejoin="round" stroke-width=".25"/><path d="M-975.996-4033.861h2.286v-8.34h-2.286v8.34Z" fill="#fff"/><path d="m-978.143-4032.968 1.023-1.009-3.325-3.37 11.776.078.009-1.433-11.776-.078 3.37-3.326-1.01-1.022-5.113 5.046Z" fill="#000"/><path d="m-978.143-4032.968 1.023-1.009-3.325-3.37 11.776.078.009-1.433-11.776-.078 3.37-3.326-1.01-1.022-5.113 5.046Z" stroke="#5c76a2" stroke-linecap="round" stroke-linejoin="round" stroke-width="2.16"/></g></svg>