<svg xmlns="http://www.w3.org/2000/svg" width="99.458" height="103" viewBox="-857.794 -1811.5 99.458 103"><g fill="none"><path fill="#fff" d="M-781.22-1794v68c0 8.837-7.163 16-16 16h-43.074c-8.837 0-16-7.163-16-16v-68c0-8.837 7.163-16 16-16h43.075c8.836 0 16 7.163 16 16Z"/><path stroke="#000" stroke-linecap="round" stroke-linejoin="round" stroke-width="3" d="M-781.22-1794v68c0 8.837-7.163 16-16 16h-43.074c-8.837 0-16-7.163-16-16v-68c0-8.837 7.163-16 16-16h43.075c8.836 0 16 7.163 16 16Z"/><path fill="#fff" d="M-787.943-1742.625h9.605v-34.75h-9.605v34.75Z"/><path fill="#000" d="m-802.785-1738.511 4.298-4.298-14.161-14.161h49.812v-6.06h-49.812l14.161-14.161-4.298-4.298-21.489 21.489Z"/><path stroke="#5c76a2" stroke-linecap="round" stroke-linejoin="round" stroke-width="9" d="m-802.785-1738.511 4.298-4.298-14.161-14.161h49.812v-6.06h-49.812l14.161-14.161-4.298-4.298-21.489 21.489Z"/></g></svg>