<svg xmlns="http://www.w3.org/2000/svg" viewBox="-913.855 -4050.727 25.535 25.25" width="25.535" height="25.25"><g fill="none"><path d="M-906.811-4046.262v16.32a3.84 3.84 0 0 0 3.84 3.84h10.186a3.84 3.84 0 0 0 3.84-3.84v-16.32a3.84 3.84 0 0 0-3.84-3.84h-10.186a3.84 3.84 0 0 0-3.84 3.84Z" fill="#fff"/><path d="M-906.811-4046.262v16.32a3.84 3.84 0 0 0 3.84 3.84h10.186a3.84 3.84 0 0 0 3.84-3.84v-16.32a3.84 3.84 0 0 0-3.84-3.84h-10.186a3.84 3.84 0 0 0-3.84 3.84Z" stroke="#000" stroke-linecap="round" stroke-linejoin="round" stroke-width=".25"/><path d="M-904.847-4033.932h-2.286v-8.34h2.286v8.34Z" fill="#fff"/><path d="m-902.734-4032.937-1.023-1.037 3.415-3.37-11.933-.079.01-1.451 11.933.079-3.37-3.415 1.036-1.023 5.114 5.182Z" fill="#000"/><path d="m-902.734-4032.937-1.023-1.037 3.415-3.37-11.933-.079.01-1.451 11.933.079-3.37-3.415 1.036-1.023 5.114 5.182Z" stroke="#5c76a2" stroke-linecap="round" stroke-linejoin="round" stroke-width="2.16"/></g></svg>