<svg xmlns="http://www.w3.org/2000/svg" width="99.458" height="103" viewBox="-611.764 -1813.5 99.458 103"><g fill="none"><path fill="#fff" d="M-588.881-1796v68c0 8.837 7.163 16 16 16h43.074c8.837 0 16-7.163 16-16v-68c0-8.837-7.163-16-16-16h-43.074c-8.837 0-16 7.163-16 16Z"/><path stroke="#000" stroke-linecap="round" stroke-linejoin="round" stroke-width="3" d="M-588.881-1796v68c0 8.837 7.163 16 16 16h43.074c8.837 0 16-7.163 16-16v-68c0-8.837-7.163-16-16-16h-43.074c-8.837 0-16 7.163-16 16Z"/><path fill="#fff" d="M-582.157-1744.625h-9.605v-34.75h9.605v34.75Z"/><path fill="#000" d="m-567.316-1740.511-4.298-4.298 14.162-14.161h-49.812v-6.06h49.812l-14.162-14.161 4.298-4.298 21.49 21.489Z"/><path stroke="#5c76a2" stroke-linecap="round" stroke-linejoin="round" stroke-width="9" d="m-567.316-1740.511-4.298-4.298 14.162-14.161h-49.812v-6.06h49.812l-14.162-14.161 4.298-4.298 21.49 21.489Z"/></g></svg>