<svg xmlns="http://www.w3.org/2000/svg" width="103" height="103" viewBox="-481.794 -1811.5 103 103"><g fill="none"><path fill="#fff" d="M-480.294-1726v-42.132a16 16 0 0 1 7.13-13.317l34-22.644a16 16 0 0 1 17.739 0l34 22.644a16 16 0 0 1 7.13 13.317V-1726c0 8.837-7.162 16-16 16h-67.999c-8.837 0-16-7.163-16-16Z"/><path stroke="#000" stroke-linecap="round" stroke-linejoin="round" stroke-width="3" d="M-480.294-1726v-42.132a16 16 0 0 1 7.13-13.317l34-22.644a16 16 0 0 1 17.739 0l34 22.644a16 16 0 0 1 7.13 13.317V-1726c0 8.837-7.162 16-16 16h-67.999c-8.837 0-16-7.163-16-16Z"/></g></svg>