<svg xmlns="http://www.w3.org/2000/svg" viewBox="-952.625 -4050.625 25.25 25.25" width="25.25" height="25.25"><g fill="none"><path d="M-952-4029.84v-10.112a3.84 3.84 0 0 1 1.711-3.196l8.16-5.434a3.84 3.84 0 0 1 4.258 0l8.16 5.434a3.84 3.84 0 0 1 1.711 3.196v10.112a3.84 3.84 0 0 1-3.84 3.84h-16.32a3.84 3.84 0 0 1-3.84-3.84Z" fill="#fff"/><path d="M-952-4029.84v-10.112a3.84 3.84 0 0 1 1.711-3.196l8.16-5.434a3.84 3.84 0 0 1 4.258 0l8.16 5.434a3.84 3.84 0 0 1 1.711 3.196v10.112a3.84 3.84 0 0 1-3.84 3.84h-16.32a3.84 3.84 0 0 1-3.84-3.84Z" stroke="#000" stroke-linecap="round" stroke-linejoin="round" stroke-width=".25"/></g></svg>