<svg xmlns="http://www.w3.org/2000/svg" width="128" height="128" viewBox="-774 -3094.581 128 128"><g fill="none"><path fill="#fff" d="M-729.2-3094.581h38.4c12.8 0 19.2 0 26.88 2.56 6.4 2.56 12.8 8.96 15.36 15.36 2.56 7.68 2.56 14.08 2.56 26.88v38.4c0 12.8 0 19.2-2.56 26.88-2.56 6.4-8.96 12.8-15.36 15.36-7.68 2.56-14.08 2.56-26.88 2.56h-38.4c-12.8 0-19.2 0-26.88-2.56-6.4-2.56-12.8-8.96-15.36-15.36-2.56-7.68-2.56-14.08-2.56-26.88v-38.4c0-12.8 0-19.2 2.56-26.88 2.56-6.4 8.96-12.8 15.36-15.36 7.68-2.56 14.08-2.56 26.88-2.56m0 0"/><path fill="#efb54f" fill-opacity=".252" d="M-671.64-3068.942c-21.185-21.186-55.535-21.186-76.72 0-21.187 21.186-21.187 55.535 0 76.721 21.185 21.186 55.535 21.186 76.72 0 21.187-21.186 21.187-55.535 0-76.72m-5.114 5.114c18.361 18.361 18.361 48.13 0 66.492-18.361 18.36-48.13 18.36-66.492 0-18.361-18.362-18.361-48.131 0-66.492 18.361-18.361 48.13-18.361 66.492 0"/><path d="M-671.64-3068.942c-21.185-21.186-55.535-21.186-76.72 0-21.187 21.186-21.187 55.535 0 76.721 21.185 21.186 55.535 21.186 76.72 0 21.187-21.186 21.187-55.535 0-76.72m-5.114 5.114c18.361 18.361 18.361 48.13 0 66.492-18.361 18.36-48.13 18.36-66.492 0-18.361-18.362-18.361-48.131 0-66.492 18.361-18.361 48.13-18.361 66.492 0"/><path fill="#d3673a" fill-opacity=".249" d="M-681.23-3059.352c-15.89-15.889-41.65-15.889-57.54 0-15.89 15.89-15.89 41.652 0 57.541 15.89 15.89 41.65 15.89 57.54 0s15.89-41.651 0-57.54m-5.114 5.114c13.064 13.065 13.064 34.247 0 47.311-13.065 13.065-34.247 13.065-47.312 0-13.064-13.064-13.064-34.246 0-47.311 13.065-13.064 34.247-13.064 47.312 0"/><path d="M-681.23-3059.352c-15.89-15.889-41.65-15.889-57.54 0-15.89 15.89-15.89 41.652 0 57.541 15.89 15.89 41.65 15.89 57.54 0s15.89-41.651 0-57.54m-5.114 5.114c13.064 13.065 13.064 34.247 0 47.311-13.065 13.065-34.247 13.065-47.312 0-13.064-13.064-13.064-34.246 0-47.311 13.065-13.064 34.247-13.064 47.312 0"/><path fill="#3570a0" fill-opacity=".25" d="M-690.82-3049.761c-10.593-10.593-27.767-10.593-38.36 0-10.593 10.592-10.593 27.767 0 38.36s27.767 10.593 38.36 0 10.593-27.768 0-38.36m-5.114 5.114c7.768 7.769 7.768 20.363 0 28.131-7.769 7.769-20.363 7.769-28.132 0-7.768-7.768-7.768-20.362 0-28.13 7.769-7.769 20.363-7.769 28.132 0"/><path d="M-690.82-3049.761c-10.593-10.593-27.767-10.593-38.36 0-10.593 10.592-10.593 27.767 0 38.36s27.767 10.593 38.36 0 10.593-27.768 0-38.36m-5.114 5.114c7.768 7.769 7.768 20.363 0 28.131-7.769 7.769-20.363 7.769-28.132 0-7.768-7.768-7.768-20.362 0-28.13 7.769-7.769 20.363-7.769 28.132 0"/><path fill="#d3673a" d="M-693.795-3067.916c-14.885-6.481-32.855-3.635-45.029 8.54-15.89 15.89-15.89 41.651 0 57.54a40.565 40.565 0 0 0 13.226 8.843l2.827-6.66a33.355 33.355 0 0 1-10.938-7.297c-13.065-13.065-13.065-34.247 0-47.312 10.027-10.027 24.836-12.358 37.087-6.993Z"/><path d="M-693.795-3067.916c-14.885-6.481-32.855-3.635-45.029 8.54-15.89 15.89-15.89 41.651 0 57.54a40.565 40.565 0 0 0 13.226 8.843l2.827-6.66a33.355 33.355 0 0 1-10.938-7.297c-13.065-13.065-13.065-34.247 0-47.312 10.027-10.027 24.836-12.358 37.087-6.993Z"/><path fill="#3770a1" d="M-691.19-2999.586h7.685v-24.955h-26.32v7.286h18.635Z"/><path d="M-691.19-2999.586h7.685v-24.955h-26.32v7.286h18.635Z"/><path fill="#3570a0" d="M-694.848-3017.64c-.304.35-.622.692-.955 1.025-7.768 7.768-20.363 7.768-28.131 0-7.768-7.769-7.768-20.363 0-28.131a19.817 19.817 0 0 1 12.98-5.797v-7.241a27.028 27.028 0 0 0-18.095 7.923c-10.593 10.593-10.593 27.767 0 38.36s27.768 10.593 38.36 0a27.139 27.139 0 0 0 4.613-6.138Z"/><path d="M-694.848-3017.64c-.304.35-.622.692-.955 1.025-7.768 7.768-20.363 7.768-28.131 0-7.768-7.769-7.768-20.363 0-28.131a19.817 19.817 0 0 1 12.98-5.797v-7.241a27.028 27.028 0 0 0-18.095 7.923c-10.593 10.593-10.593 27.767 0 38.36s27.768 10.593 38.36 0a27.139 27.139 0 0 0 4.613-6.138Z"/><path fill="#efb54f" d="M-664.965-3060.847a54.527 54.527 0 0 0-6.674-8.095c-21.186-21.186-55.536-21.186-76.721 0-16.836 16.836-20.293 41.983-10.372 62.232l6.283-3.627c-8.332-17.472-5.264-39.022 9.203-53.49 18.361-18.361 48.13-18.361 66.492 0a47.281 47.281 0 0 1 5.507 6.608Z"/><path d="M-664.965-3060.847a54.527 54.527 0 0 0-6.674-8.095c-21.186-21.186-55.536-21.186-76.721 0-16.836 16.836-20.293 41.983-10.372 62.232l6.283-3.627c-8.332-17.472-5.264-39.022 9.203-53.49 18.361-18.361 48.13-18.361 66.492 0a47.281 47.281 0 0 1 5.507 6.608Z"/></g></svg>