<svg xmlns="http://www.w3.org/2000/svg" width="16" height="16" viewBox="-952 -3089.652 16 16"><g fill="none"><path fill="#fff" d="M-946.4-3089.652h4.8c1.6 0 2.4 0 3.36.32.8.32 1.6 1.12 1.92 1.92.32.96.32 1.76.32 3.36v4.8c0 1.6 0 2.4-.32 3.36-.32.8-1.12 1.6-1.92 1.92-.96.32-1.76.32-3.36.32h-4.8c-1.6 0-2.4 0-3.36-.32-.8-.32-1.6-1.12-1.92-1.92-.32-.96-.32-1.76-.32-3.36v-4.8c0-1.6 0-2.4.32-3.36.32-.8 1.12-1.6 1.92-1.92.96-.32 1.76-.32 3.36-.32m0 0"/><path fill="#efb54f" fill-opacity=".252" d="M-939.205-3086.447a6.781 6.781 0 1 0-9.59 9.59 6.781 6.781 0 0 0 9.59-9.59m-.64.64a5.877 5.877 0 1 1-8.31 8.31 5.877 5.877 0 0 1 8.31-8.31"/><path d="M-939.205-3086.447a6.781 6.781 0 1 0-9.59 9.59 6.781 6.781 0 0 0 9.59-9.59m-.64.64a5.877 5.877 0 1 1-8.31 8.31 5.877 5.877 0 0 1 8.31-8.31"/><path fill="#d3673a" fill-opacity=".249" d="M-940.404-3085.248a5.086 5.086 0 1 0-7.192 7.192 5.086 5.086 0 0 0 7.192-7.192m-.639.639a4.182 4.182 0 1 1-5.915 5.914 4.182 4.182 0 0 1 5.915-5.914"/><path d="M-940.404-3085.248a5.086 5.086 0 1 0-7.192 7.192 5.086 5.086 0 0 0 7.192-7.192m-.639.639a4.182 4.182 0 1 1-5.915 5.914 4.182 4.182 0 0 1 5.915-5.914"/><path fill="#3570a0" fill-opacity=".25" d="M-941.602-3084.05a3.39 3.39 0 1 0-4.796 4.795 3.39 3.39 0 0 0 4.796-4.794m-.64.639a2.486 2.486 0 1 1-3.516 3.516 2.486 2.486 0 0 1 3.516-3.516"/><path d="M-941.602-3084.05a3.39 3.39 0 1 0-4.796 4.795 3.39 3.39 0 0 0 4.796-4.794m-.64.639a2.486 2.486 0 1 1-3.516 3.516 2.486 2.486 0 0 1 3.516-3.516"/><path fill="#d3673a" d="M-941.974-3086.319a5.088 5.088 0 1 0-3.976 9.366l.354-.833a4.182 4.182 0 1 1 3.269-7.7Z"/><path d="M-941.974-3086.319a5.088 5.088 0 1 0-3.976 9.366l.354-.833a4.182 4.182 0 1 1 3.269-7.7Z"/><path fill="#3770a1" d="M-941.649-3077.778h.96v-3.119h-3.29v.911h2.33Z"/><path d="M-941.649-3077.778h.96v-3.119h-3.29v.911h2.33Z"/><path fill="#3570a0" d="M-942.106-3080.034a2.486 2.486 0 1 1-2.013-4.113v-.905a3.39 3.39 0 1 0 3.11 5.018Z"/><path d="M-942.106-3080.034a2.486 2.486 0 1 1-2.013-4.113v-.905a3.39 3.39 0 1 0 3.11 5.018Z"/><path fill="#efb54f" d="M-938.37-3085.435a6.781 6.781 0 0 0-11.72 6.767l.784-.453a5.88 5.88 0 0 1 10.15-5.86Z"/><path d="M-938.37-3085.435a6.781 6.781 0 0 0-11.72 6.767l.784-.453a5.88 5.88 0 0 1 10.15-5.86Z"/></g></svg>