<svg xmlns="http://www.w3.org/2000/svg" width="256" height="256" viewBox="-641.5 -3094.581 256 256"><g fill="none"><path fill="#fff" d="M-551.9-3094.581h76.8c25.6 0 38.4 0 53.76 5.12 12.8 5.12 25.6 17.92 30.72 30.72 5.12 15.36 5.12 28.16 5.12 53.76v76.8c0 25.6 0 38.4-5.12 53.76-5.12 12.8-17.92 25.6-30.72 30.72-15.36 5.12-28.16 5.12-53.76 5.12h-76.8c-25.6 0-38.4 0-53.76-5.12-12.8-5.12-25.6-17.92-30.72-30.72-5.12-15.36-5.12-28.16-5.12-53.76v-76.8c0-25.6 0-38.4 5.12-53.76 5.12-12.8 17.92-25.6 30.72-30.72 15.36-5.12 28.16-5.12 53.76-5.12m0 0"/><path fill="#efb54f" fill-opacity=".252" d="M-436.779-3043.302c-42.372-42.372-111.07-42.372-153.442 0-42.372 42.372-42.372 111.07 0 153.442 42.372 42.372 111.07 42.372 153.442 0 42.372-42.372 42.372-111.07 0-153.442m-10.23 10.23c36.723 36.722 36.723 96.26 0 132.982-36.722 36.723-96.26 36.723-132.982 0-36.723-36.722-36.723-96.26 0-132.983 36.722-36.722 96.26-36.722 132.982 0"/><path d="M-436.779-3043.302c-42.372-42.372-111.07-42.372-153.442 0-42.372 42.372-42.372 111.07 0 153.442 42.372 42.372 111.07 42.372 153.442 0 42.372-42.372 42.372-111.07 0-153.442m-10.23 10.23c36.723 36.722 36.723 96.26 0 132.982-36.722 36.723-96.26 36.723-132.982 0-36.723-36.722-36.723-96.26 0-132.983 36.722-36.722 96.26-36.722 132.982 0"/><path fill="#d3673a" fill-opacity=".249" d="M-455.96-3024.122c-31.778-31.779-83.302-31.779-115.08 0-31.78 31.779-31.78 83.303 0 115.081 31.778 31.78 83.302 31.78 115.08 0 31.78-31.778 31.78-83.302 0-115.081m-10.229 10.23c26.13 26.129 26.13 68.493 0 94.622-26.129 26.13-68.493 26.13-94.622 0-26.13-26.13-26.13-68.493 0-94.622 26.129-26.13 68.493-26.13 94.622 0"/><path d="M-455.96-3024.122c-31.778-31.779-83.302-31.779-115.08 0-31.78 31.779-31.78 83.303 0 115.081 31.778 31.78 83.302 31.78 115.08 0 31.78-31.778 31.78-83.302 0-115.081m-10.229 10.23c26.13 26.129 26.13 68.493 0 94.622-26.129 26.13-68.493 26.13-94.622 0-26.13-26.13-26.13-68.493 0-94.622 26.129-26.13 68.493-26.13 94.622 0"/><path fill="#3570a0" fill-opacity=".25" d="M-475.14-3004.942c-21.185-21.186-55.535-21.186-76.72 0-21.187 21.186-21.187 55.535 0 76.721 21.185 21.186 55.535 21.186 76.72 0 21.186-21.186 21.186-55.535 0-76.72m-10.229 10.229c15.536 15.536 15.536 40.726 0 56.262-15.536 15.536-40.726 15.536-56.262 0-15.536-15.537-15.536-40.726 0-56.262 15.536-15.537 40.726-15.537 56.262 0"/><path d="M-475.14-3004.942c-21.185-21.186-55.535-21.186-76.72 0-21.187 21.186-21.187 55.535 0 76.721 21.185 21.186 55.535 21.186 76.72 0 21.186-21.186 21.186-55.535 0-76.72m-10.229 10.229c15.536 15.536 15.536 40.726 0 56.262-15.536 15.536-40.726 15.536-56.262 0-15.536-15.537-15.536-40.726 0-56.262 15.536-15.537 40.726-15.537 56.262 0"/><path fill="#d3673a" d="M-481.09-3041.25c-29.77-12.963-65.71-7.27-90.058 17.079-31.779 31.779-31.779 83.302 0 115.081 7.819 7.818 16.832 13.713 26.452 17.685l5.654-13.321c-7.957-3.266-15.413-8.13-21.876-14.593-26.13-26.13-26.13-68.494 0-94.623 20.054-20.054 49.672-24.717 74.173-13.988Z"/><path d="M-481.09-3041.25c-29.77-12.963-65.71-7.27-90.058 17.079-31.779 31.779-31.779 83.302 0 115.081 7.819 7.818 16.832 13.713 26.452 17.685l5.654-13.321c-7.957-3.266-15.413-8.13-21.876-14.593-26.13-26.13-26.13-68.494 0-94.623 20.054-20.054 49.672-24.717 74.173-13.988Z"/><path fill="#3770a1" d="M-475.88-2904.592h15.369v-49.91h-52.639v14.573h37.27Z"/><path d="M-475.88-2904.592h15.369v-49.91h-52.639v14.573h37.27Z"/><path fill="#3570a0" d="M-483.195-2940.697c-.609.699-1.245 1.382-1.91 2.048-15.537 15.536-40.727 15.536-56.263 0-15.536-15.537-15.536-40.726 0-56.263a39.636 39.636 0 0 1 25.961-11.593v-14.482c-13.152.523-26.15 5.805-36.19 15.846-21.186 21.186-21.186 55.535 0 76.721 21.185 21.186 55.535 21.186 76.72 0a54.275 54.275 0 0 0 9.224-12.277Z"/><path d="M-483.195-2940.697c-.609.699-1.245 1.382-1.91 2.048-15.537 15.536-40.727 15.536-56.263 0-15.536-15.537-15.536-40.726 0-56.263a39.636 39.636 0 0 1 25.961-11.593v-14.482c-13.152.523-26.15 5.805-36.19 15.846-21.186 21.186-21.186 55.535 0 76.721 21.185 21.186 55.535 21.186 76.72 0a54.275 54.275 0 0 0 9.224-12.277Z"/><path fill="#efb54f" d="M-423.43-3027.112a109.04 109.04 0 0 0-13.349-16.19c-42.372-42.372-111.07-42.372-153.442 0-33.67 33.67-40.585 83.965-20.743 124.463l12.565-7.254c-16.664-34.943-10.528-78.044 18.408-106.98 36.722-36.722 96.26-36.722 132.982 0a94.56 94.56 0 0 1 11.014 13.216Z"/><path d="M-423.43-3027.112a109.04 109.04 0 0 0-13.349-16.19c-42.372-42.372-111.07-42.372-153.442 0-33.67 33.67-40.585 83.965-20.743 124.463l12.565-7.254c-16.664-34.943-10.528-78.044 18.408-106.98 36.722-36.722 96.26-36.722 132.982 0a94.56 94.56 0 0 1 11.014 13.216Z"/></g></svg>