<?xml version="1.0" encoding="UTF-8" standalone="no"?>
<!DOCTYPE svg PUBLIC "-//W3C//DTD SVG 1.1//EN" "http://www.w3.org/Graphics/SVG/1.1/DTD/svg11.dtd">
<svg xmlns:xl="http://www.w3.org/1999/xlink" version="1.1" xmlns="http://www.w3.org/2000/svg" xmlns:dc="http://purl.org/dc/elements/1.1/" viewBox="-931.5 -3089.652 32 32" width="32" height="32">
  <defs/>
  <g id="ICONES" stroke="none" stroke-opacity="1" stroke-dasharray="none" fill="none" fill-opacity="1">
    <title>ICONES</title>
    <g id="ICONES_Calque_1">
      <title>Calque 1</title>
      <g id="Group_4327">
        <g id="Graphic_4336">
          <path d="M -920.3 -3089.652 L -910.7 -3089.652 C -907.5 -3089.652 -905.9 -3089.652 -903.98 -3089.012 C -902.38 -3088.372 -900.78 -3086.772 -900.14 -3085.172 C -899.5 -3083.252 -899.5 -3081.652 -899.5 -3078.452 L -899.5 -3068.852 C -899.5 -3065.652 -899.5 -3064.052 -900.14 -3062.132 C -900.78 -3060.532 -902.38 -3058.932 -903.98 -3058.292 C -905.9 -3057.652 -907.5 -3057.652 -910.7 -3057.652 L -920.3 -3057.652 C -923.5 -3057.652 -925.1 -3057.652 -927.02 -3058.292 C -928.62 -3058.932 -930.22 -3060.532 -930.86 -3062.132 C -931.5 -3064.052 -931.5 -3065.652 -931.5 -3068.852 L -931.5 -3078.452 C -931.5 -3081.652 -931.5 -3083.252 -930.86 -3085.172 C -930.22 -3086.772 -928.62 -3088.372 -927.02 -3089.012 C -925.1 -3089.652 -923.5 -3089.652 -920.3 -3089.652 M -920.3 -3089.652" fill="white"/>
        </g>
        <g id="Group_4328">
          <g id="Graphic_4335">
            <path d="M -905.9099 -3083.242 C -911.2064 -3088.5385 -919.7936 -3088.5385 -925.0901 -3083.242 C -930.3866 -3077.9456 -930.3866 -3069.3583 -925.0901 -3064.0618 C -919.7936 -3058.7653 -911.2064 -3058.7653 -905.9099 -3064.0618 C -900.6134 -3069.3583 -900.6134 -3077.9456 -905.9099 -3083.242 M -907.1886 -3081.9634 C -902.5983 -3077.373 -902.5983 -3069.9308 -907.1886 -3065.3405 C -911.7788 -3060.75 -919.2212 -3060.75 -923.8114 -3065.3405 C -928.4017 -3069.9308 -928.4017 -3077.373 -923.8114 -3081.9634 C -919.2212 -3086.5537 -911.7788 -3086.5537 -907.1886 -3081.9634" fill="#efb54f" fill-opacity=".25239327"/>
            <path d="M -905.9099 -3083.242 C -911.2064 -3088.5385 -919.7936 -3088.5385 -925.0901 -3083.242 C -930.3866 -3077.9456 -930.3866 -3069.3583 -925.0901 -3064.0618 C -919.7936 -3058.7653 -911.2064 -3058.7653 -905.9099 -3064.0618 C -900.6134 -3069.3583 -900.6134 -3077.9456 -905.9099 -3083.242 M -907.1886 -3081.9634 C -902.5983 -3077.373 -902.5983 -3069.9308 -907.1886 -3065.3405 C -911.7788 -3060.75 -919.2212 -3060.75 -923.8114 -3065.3405 C -928.4017 -3069.9308 -928.4017 -3077.373 -923.8114 -3081.9634 C -919.2212 -3086.5537 -911.7788 -3086.5537 -907.1886 -3081.9634" stroke="#efb64f" stroke-linecap="round" stroke-linejoin="round" stroke-width="0"/>
          </g>
          <g id="Graphic_4334">
            <path d="M -908.3074 -3080.8445 C -912.2798 -3084.817 -918.7202 -3084.817 -922.6926 -3080.8445 C -926.665 -3076.872 -926.665 -3070.4317 -922.6926 -3066.4593 C -918.7202 -3062.487 -912.2798 -3062.487 -908.3074 -3066.4593 C -904.335 -3070.4317 -904.335 -3076.872 -908.3074 -3080.8445 M -909.5861 -3079.566 C -906.3199 -3076.2997 -906.3199 -3071.004 -909.5861 -3067.738 C -912.8523 -3064.472 -918.1477 -3064.472 -921.4139 -3067.738 C -924.6801 -3071.004 -924.6801 -3076.2997 -921.4139 -3079.566 C -918.1477 -3082.832 -912.8523 -3082.832 -909.5861 -3079.566" fill="#d3673a" fill-opacity=".24884463"/>
            <path d="M -908.3074 -3080.8445 C -912.2798 -3084.817 -918.7202 -3084.817 -922.6926 -3080.8445 C -926.665 -3076.872 -926.665 -3070.4317 -922.6926 -3066.4593 C -918.7202 -3062.487 -912.2798 -3062.487 -908.3074 -3066.4593 C -904.335 -3070.4317 -904.335 -3076.872 -908.3074 -3080.8445 M -909.5861 -3079.566 C -906.3199 -3076.2997 -906.3199 -3071.004 -909.5861 -3067.738 C -912.8523 -3064.472 -918.1477 -3064.472 -921.4139 -3067.738 C -924.6801 -3071.004 -924.6801 -3076.2997 -921.4139 -3079.566 C -918.1477 -3082.832 -912.8523 -3082.832 -909.5861 -3079.566" stroke="#d2673a" stroke-linecap="round" stroke-linejoin="round" stroke-width="0"/>
          </g>
          <g id="Graphic_4333">
            <path d="M -910.7049 -3078.447 C -913.3532 -3081.0952 -917.6468 -3081.0952 -920.2951 -3078.447 C -922.9433 -3075.7987 -922.9433 -3071.505 -920.2951 -3068.857 C -917.6468 -3066.2086 -913.3532 -3066.2086 -910.7049 -3068.857 C -908.0567 -3071.505 -908.0567 -3075.7987 -910.7049 -3078.447 M -911.9836 -3077.1683 C -910.0416 -3075.2263 -910.0416 -3072.0776 -911.9836 -3070.1355 C -913.9257 -3068.1935 -917.0743 -3068.1935 -919.0164 -3070.1355 C -920.9584 -3072.0776 -920.9584 -3075.2263 -919.0164 -3077.1683 C -917.0743 -3079.1103 -913.9257 -3079.1103 -911.9836 -3077.1683" fill="#3570a0" fill-opacity=".2496699"/>
            <path d="M -910.7049 -3078.447 C -913.3532 -3081.0952 -917.6468 -3081.0952 -920.2951 -3078.447 C -922.9433 -3075.7987 -922.9433 -3071.505 -920.2951 -3068.857 C -917.6468 -3066.2086 -913.3532 -3066.2086 -910.7049 -3068.857 C -908.0567 -3071.505 -908.0567 -3075.7987 -910.7049 -3078.447 M -911.9836 -3077.1683 C -910.0416 -3075.2263 -910.0416 -3072.0776 -911.9836 -3070.1355 C -913.9257 -3068.1935 -917.0743 -3068.1935 -919.0164 -3070.1355 C -920.9584 -3072.0776 -920.9584 -3075.2263 -919.0164 -3077.1683 C -917.0743 -3079.1103 -913.9257 -3079.1103 -911.9836 -3077.1683" stroke="#3770a0" stroke-linecap="round" stroke-linejoin="round" stroke-width="0"/>
          </g>
          <g id="Graphic_4332">
            <path d="M -911.4488 -3082.9856 C -915.1699 -3084.606 -919.6624 -3083.8943 -922.706 -3080.8507 C -926.6783 -3076.8783 -926.6783 -3070.438 -922.706 -3066.4655 C -921.7287 -3065.4882 -920.602 -3064.7514 -919.3995 -3064.255 L -918.6927 -3065.92 C -919.6874 -3066.3283 -920.6194 -3066.9363 -921.4273 -3067.744 C -924.6934 -3071.0103 -924.6934 -3076.306 -921.4273 -3079.572 C -918.9205 -3082.0788 -915.2183 -3082.6616 -912.1556 -3081.3205 Z" fill="#d3673a"/>
            <path d="M -911.4488 -3082.9856 C -915.1699 -3084.606 -919.6624 -3083.8943 -922.706 -3080.8507 C -926.6783 -3076.8783 -926.6783 -3070.438 -922.706 -3066.4655 C -921.7287 -3065.4882 -920.602 -3064.7514 -919.3995 -3064.255 L -918.6927 -3065.92 C -919.6874 -3066.3283 -920.6194 -3066.9363 -921.4273 -3067.744 C -924.6934 -3071.0103 -924.6934 -3076.306 -921.4273 -3079.572 C -918.9205 -3082.0788 -915.2183 -3082.6616 -912.1556 -3081.3205 Z" stroke="#d2673a" stroke-linecap="round" stroke-linejoin="round" stroke-width="0"/>
          </g>
          <g id="Graphic_4331">
            <path d="M -910.7975 -3065.9032 L -908.8764 -3065.9032 L -908.8764 -3072.142 L -915.4562 -3072.142 L -915.4562 -3070.3204 L -910.7975 -3070.3204 Z" fill="#3770a1"/>
            <path d="M -910.7975 -3065.9032 L -908.8764 -3065.9032 L -908.8764 -3072.142 L -915.4562 -3072.142 L -915.4562 -3070.3204 L -910.7975 -3070.3204 Z" stroke="black" stroke-linecap="round" stroke-linejoin="round" stroke-width="0"/>
          </g>
          <g id="Graphic_4330">
            <path d="M -911.7119 -3070.4164 C -911.7879 -3070.329 -911.8676 -3070.2436 -911.9507 -3070.1605 C -913.8928 -3068.2184 -917.0415 -3068.2184 -918.9835 -3070.1605 C -920.9255 -3072.1025 -920.9255 -3075.251 -918.9835 -3077.1932 C -918.0815 -3078.0952 -916.9192 -3078.5783 -915.7384 -3078.6424 L -915.7384 -3080.4527 C -917.3823 -3080.3873 -919.0071 -3079.727 -920.2622 -3078.472 C -922.9104 -3075.8237 -922.9104 -3071.53 -920.2622 -3068.8818 C -917.6139 -3066.2335 -913.3203 -3066.2335 -910.6721 -3068.8818 C -910.2056 -3069.3483 -909.8212 -3069.866 -909.5191 -3070.4164 Z" fill="#3570a0"/>
            <path d="M -911.7119 -3070.4164 C -911.7879 -3070.329 -911.8676 -3070.2436 -911.9507 -3070.1605 C -913.8928 -3068.2184 -917.0415 -3068.2184 -918.9835 -3070.1605 C -920.9255 -3072.1025 -920.9255 -3075.251 -918.9835 -3077.1932 C -918.0815 -3078.0952 -916.9192 -3078.5783 -915.7384 -3078.6424 L -915.7384 -3080.4527 C -917.3823 -3080.3873 -919.0071 -3079.727 -920.2622 -3078.472 C -922.9104 -3075.8237 -922.9104 -3071.53 -920.2622 -3068.8818 C -917.6139 -3066.2335 -913.3203 -3066.2335 -910.6721 -3068.8818 C -910.2056 -3069.3483 -909.8212 -3069.866 -909.5191 -3070.4164 Z" stroke="#3770a0" stroke-linecap="round" stroke-linejoin="round" stroke-width="0"/>
          </g>
          <g id="Graphic_4329">
            <path d="M -904.2412 -3081.2182 C -904.7221 -3081.9322 -905.2783 -3082.6105 -905.9099 -3083.242 C -911.2064 -3088.5385 -919.7936 -3088.5385 -925.0901 -3083.242 C -929.299 -3079.0332 -930.1633 -3072.7464 -927.683 -3067.684 L -926.1123 -3068.591 C -928.1953 -3072.9588 -927.4284 -3078.3464 -923.8114 -3081.9634 C -919.2212 -3086.5537 -911.7788 -3086.5537 -907.1886 -3081.9634 C -906.6714 -3081.4462 -906.2125 -3080.893 -905.8119 -3080.3114 Z" fill="#efb54f"/>
            <path d="M -904.2412 -3081.2182 C -904.7221 -3081.9322 -905.2783 -3082.6105 -905.9099 -3083.242 C -911.2064 -3088.5385 -919.7936 -3088.5385 -925.0901 -3083.242 C -929.299 -3079.0332 -930.1633 -3072.7464 -927.683 -3067.684 L -926.1123 -3068.591 C -928.1953 -3072.9588 -927.4284 -3078.3464 -923.8114 -3081.9634 C -919.2212 -3086.5537 -911.7788 -3086.5537 -907.1886 -3081.9634 C -906.6714 -3081.4462 -906.2125 -3080.893 -905.8119 -3080.3114 Z" stroke="#efb64f" stroke-linecap="round" stroke-linejoin="round" stroke-width="0"/>
          </g>
        </g>
      </g>
    </g>
  </g>
</svg>
