<svg xmlns="http://www.w3.org/2000/svg" width="32" height="32" viewBox="-931.5 -3089.652 32 32"><g fill="none"><path fill="#fff" d="M-920.3-3089.652h9.6c3.2 0 4.8 0 6.72.64 1.6.64 3.2 2.24 3.84 3.84.64 1.92.64 3.52.64 6.72v9.6c0 3.2 0 4.8-.64 6.72-.64 1.6-2.24 3.2-3.84 3.84-1.92.64-3.52.64-6.72.64h-9.6c-3.2 0-4.8 0-6.72-.64-1.6-.64-3.2-2.24-3.84-3.84-.64-1.92-.64-3.52-.64-6.72v-9.6c0-3.2 0-4.8.64-6.72.64-1.6 2.24-3.2 3.84-3.84 1.92-.64 3.52-.64 6.72-.64m0 0"/><path fill="#efb54f" fill-opacity=".252" d="M-905.91-3083.242c-5.296-5.296-13.884-5.296-19.18 0-5.297 5.296-5.297 13.884 0 19.18 5.296 5.297 13.884 5.297 19.18 0 5.297-5.296 5.297-13.884 0-19.18m-1.279 1.279c4.59 4.59 4.59 12.032 0 16.623-4.59 4.59-12.032 4.59-16.622 0s-4.59-12.033 0-16.623c4.59-4.59 12.032-4.59 16.622 0"/><path d="M-905.91-3083.242c-5.296-5.296-13.884-5.296-19.18 0-5.297 5.296-5.297 13.884 0 19.18 5.296 5.297 13.884 5.297 19.18 0 5.297-5.296 5.297-13.884 0-19.18m-1.279 1.279c4.59 4.59 4.59 12.032 0 16.623-4.59 4.59-12.032 4.59-16.622 0s-4.59-12.033 0-16.623c4.59-4.59 12.032-4.59 16.622 0"/><path fill="#d3673a" fill-opacity=".249" d="M-908.307-3080.845c-3.973-3.972-10.413-3.972-14.386 0-3.972 3.973-3.972 10.413 0 14.386 3.973 3.972 10.413 3.972 14.386 0 3.972-3.973 3.972-10.413 0-14.386m-1.28 1.279a8.364 8.364 0 1 1-11.827 11.828 8.364 8.364 0 0 1 11.828-11.828"/><path d="M-908.307-3080.845c-3.973-3.972-10.413-3.972-14.386 0-3.972 3.973-3.972 10.413 0 14.386 3.973 3.972 10.413 3.972 14.386 0 3.972-3.973 3.972-10.413 0-14.386m-1.28 1.279a8.364 8.364 0 1 1-11.827 11.828 8.364 8.364 0 0 1 11.828-11.828"/><path fill="#3570a0" fill-opacity=".25" d="M-910.705-3078.447a6.781 6.781 0 1 0-9.59 9.59 6.781 6.781 0 0 0 9.59-9.59m-1.279 1.279a4.973 4.973 0 1 1-7.033 7.033 4.973 4.973 0 0 1 7.033-7.033"/><path d="M-910.705-3078.447a6.781 6.781 0 1 0-9.59 9.59 6.781 6.781 0 0 0 9.59-9.59m-1.279 1.279a4.973 4.973 0 1 1-7.033 7.033 4.973 4.973 0 0 1 7.033-7.033"/><path fill="#d3673a" d="M-911.449-3082.986a10.175 10.175 0 0 0-11.257 2.135c-3.972 3.973-3.972 10.413 0 14.386a10.141 10.141 0 0 0 3.307 2.21l.706-1.665a8.364 8.364 0 1 1 6.537-15.4Z"/><path d="M-911.449-3082.986a10.175 10.175 0 0 0-11.257 2.135c-3.972 3.973-3.972 10.413 0 14.386a10.141 10.141 0 0 0 3.307 2.21l.706-1.665a8.364 8.364 0 1 1 6.537-15.4Z"/><path fill="#3770a1" d="M-910.798-3065.903h1.922v-6.239h-6.58v1.822h4.659Z"/><path d="M-910.798-3065.903h1.922v-6.239h-6.58v1.822h4.659Z"/><path fill="#3570a0" d="M-911.712-3070.416a4.973 4.973 0 1 1-4.026-8.226v-1.81a6.781 6.781 0 1 0 6.22 10.036Z"/><path d="M-911.712-3070.416a4.973 4.973 0 1 1-4.026-8.226v-1.81a6.781 6.781 0 1 0 6.22 10.036Z"/><path fill="#efb54f" d="M-904.241-3081.218a13.62 13.62 0 0 0-1.669-2.024c-5.296-5.296-13.884-5.296-19.18 0-4.209 4.209-5.073 10.496-2.593 15.558l1.57-.907c-2.082-4.368-1.315-9.755 2.302-13.372 4.59-4.59 12.032-4.59 16.622 0 .518.517.976 1.07 1.377 1.652Z"/><path d="M-904.241-3081.218a13.62 13.62 0 0 0-1.669-2.024c-5.296-5.296-13.884-5.296-19.18 0-4.209 4.209-5.073 10.496-2.593 15.558l1.57-.907c-2.082-4.368-1.315-9.755 2.302-13.372 4.59-4.59 12.032-4.59 16.622 0 .518.517.976 1.07 1.377 1.652Z"/></g></svg>