<svg xmlns="http://www.w3.org/2000/svg" xmlns:xl="http://www.w3.org/1999/xlink" width="48" height="48" version="1.1" viewBox="-895 -3089.652 48 48"><g id="ICONES" fill="none" fill-opacity="1" stroke="none" stroke-dasharray="none" stroke-opacity="1"><title>ICONES</title><g id="ICONES_Calque_1"><title>Calque 1</title><g id="Group_4317"><g id="Graphic_4326"><path fill="#fff" d="M -878.2 -3089.652 L -863.8 -3089.652 C -859 -3089.652 -856.6 -3089.652 -853.72 -3088.692 C -851.32 -3087.732 -848.92 -3085.332 -847.96 -3082.932 C -847 -3080.052 -847 -3077.652 -847 -3072.852 L -847 -3058.452 C -847 -3053.652 -847 -3051.252 -847.96 -3048.372 C -848.92 -3045.972 -851.32 -3043.572 -853.72 -3042.612 C -856.6 -3041.652 -859 -3041.652 -863.8 -3041.652 L -878.2 -3041.652 C -883 -3041.652 -885.4 -3041.652 -888.28 -3042.612 C -890.68 -3043.572 -893.08 -3045.972 -894.04 -3048.372 C -895 -3051.252 -895 -3053.652 -895 -3058.452 L -895 -3072.852 C -895 -3077.652 -895 -3080.052 -894.04 -3082.932 C -893.08 -3085.332 -890.68 -3087.732 -888.28 -3088.692 C -885.4 -3089.652 -883 -3089.652 -878.2 -3089.652 M -878.2 -3089.652"/></g><g id="Group_4318"><g id="Graphic_4325"><path fill="#efb54f" fill-opacity=".252" d="M -856.6148 -3080.037 C -864.5595 -3087.982 -877.4405 -3087.982 -885.3852 -3080.037 C -893.3299 -3072.0924 -893.3299 -3059.2115 -885.3852 -3051.2667 C -877.4405 -3043.322 -864.5595 -3043.322 -856.6148 -3051.2667 C -848.6701 -3059.2115 -848.6701 -3072.0924 -856.6148 -3080.037 M -858.5328 -3078.119 C -851.6474 -3071.2337 -851.6474 -3060.0702 -858.5328 -3053.1848 C -865.4183 -3046.2993 -876.5817 -3046.2993 -883.4672 -3053.1848 C -890.3526 -3060.0702 -890.3526 -3071.2337 -883.4672 -3078.119 C -876.5817 -3085.0045 -865.4183 -3085.0045 -858.5328 -3078.119"/><path stroke="#efb64f" stroke-linecap="round" stroke-linejoin="round" stroke-width="0" d="M -856.6148 -3080.037 C -864.5595 -3087.982 -877.4405 -3087.982 -885.3852 -3080.037 C -893.3299 -3072.0924 -893.3299 -3059.2115 -885.3852 -3051.2667 C -877.4405 -3043.322 -864.5595 -3043.322 -856.6148 -3051.2667 C -848.6701 -3059.2115 -848.6701 -3072.0924 -856.6148 -3080.037 M -858.5328 -3078.119 C -851.6474 -3071.2337 -851.6474 -3060.0702 -858.5328 -3053.1848 C -865.4183 -3046.2993 -876.5817 -3046.2993 -883.4672 -3053.1848 C -890.3526 -3060.0702 -890.3526 -3071.2337 -883.4672 -3078.119 C -876.5817 -3085.0045 -865.4183 -3085.0045 -858.5328 -3078.119"/></g><g id="Graphic_4324"><path fill="#d3673a" fill-opacity=".249" d="M -860.2111 -3076.4408 C -866.1697 -3082.3994 -875.8303 -3082.3994 -881.7889 -3076.4408 C -887.7475 -3070.4823 -887.7475 -3060.8216 -881.7889 -3054.863 C -875.8303 -3048.9045 -866.1697 -3048.9045 -860.2111 -3054.863 C -854.2525 -3060.8216 -854.2525 -3070.4823 -860.2111 -3076.4408 M -862.1291 -3074.5228 C -857.2299 -3069.6235 -857.2299 -3061.6803 -862.1291 -3056.781 C -867.0284 -3051.8818 -874.9716 -3051.8818 -879.8709 -3056.781 C -884.7701 -3061.6803 -884.7701 -3069.6235 -879.8709 -3074.5228 C -874.9716 -3079.422 -867.0284 -3079.422 -862.1291 -3074.5228"/><path stroke="#d2673a" stroke-linecap="round" stroke-linejoin="round" stroke-width="0" d="M -860.2111 -3076.4408 C -866.1697 -3082.3994 -875.8303 -3082.3994 -881.7889 -3076.4408 C -887.7475 -3070.4823 -887.7475 -3060.8216 -881.7889 -3054.863 C -875.8303 -3048.9045 -866.1697 -3048.9045 -860.2111 -3054.863 C -854.2525 -3060.8216 -854.2525 -3070.4823 -860.2111 -3076.4408 M -862.1291 -3074.5228 C -857.2299 -3069.6235 -857.2299 -3061.6803 -862.1291 -3056.781 C -867.0284 -3051.8818 -874.9716 -3051.8818 -879.8709 -3056.781 C -884.7701 -3061.6803 -884.7701 -3069.6235 -879.8709 -3074.5228 C -874.9716 -3079.422 -867.0284 -3079.422 -862.1291 -3074.5228"/></g><g id="Graphic_4323"><path fill="#3570a0" fill-opacity=".25" d="M -863.8074 -3072.8445 C -867.7798 -3076.817 -874.2202 -3076.817 -878.1926 -3072.8445 C -882.165 -3068.872 -882.165 -3062.4317 -878.1926 -3058.4593 C -874.2202 -3054.487 -867.7798 -3054.487 -863.8074 -3058.4593 C -859.835 -3062.4317 -859.835 -3068.872 -863.8074 -3072.8445 M -865.7254 -3070.9265 C -862.8124 -3068.0134 -862.8124 -3063.2904 -865.7254 -3060.3774 C -868.6385 -3057.4643 -873.3615 -3057.4643 -876.2746 -3060.3774 C -879.1876 -3063.2904 -879.1876 -3068.0134 -876.2746 -3070.9265 C -873.3615 -3073.8396 -868.6385 -3073.8396 -865.7254 -3070.9265"/><path stroke="#3770a0" stroke-linecap="round" stroke-linejoin="round" stroke-width="0" d="M -863.8074 -3072.8445 C -867.7798 -3076.817 -874.2202 -3076.817 -878.1926 -3072.8445 C -882.165 -3068.872 -882.165 -3062.4317 -878.1926 -3058.4593 C -874.2202 -3054.487 -867.7798 -3054.487 -863.8074 -3058.4593 C -859.835 -3062.4317 -859.835 -3068.872 -863.8074 -3072.8445 M -865.7254 -3070.9265 C -862.8124 -3068.0134 -862.8124 -3063.2904 -865.7254 -3060.3774 C -868.6385 -3057.4643 -873.3615 -3057.4643 -876.2746 -3060.3774 C -879.1876 -3063.2904 -879.1876 -3068.0134 -876.2746 -3070.9265 C -873.3615 -3073.8396 -868.6385 -3073.8396 -865.7254 -3070.9265"/></g><g id="Graphic_4322"><path fill="#d3673a" d="M -864.9233 -3079.6524 C -870.5049 -3082.083 -877.2436 -3081.0154 -881.8089 -3076.45 C -887.7675 -3070.4915 -887.7675 -3060.831 -881.8089 -3054.8723 C -880.343 -3053.4064 -878.6531 -3052.301 -876.8493 -3051.5565 L -875.7891 -3054.054 C -877.2812 -3054.6665 -878.6791 -3055.5785 -879.8909 -3056.7903 C -884.7902 -3061.6895 -884.7902 -3069.6328 -879.8909 -3074.532 C -876.1307 -3078.2922 -870.5774 -3079.1665 -865.9835 -3077.1547 Z"/><path stroke="#d2673a" stroke-linecap="round" stroke-linejoin="round" stroke-width="0" d="M -864.9233 -3079.6524 C -870.5049 -3082.083 -877.2436 -3081.0154 -881.8089 -3076.45 C -887.7675 -3070.4915 -887.7675 -3060.831 -881.8089 -3054.8723 C -880.343 -3053.4064 -878.6531 -3052.301 -876.8493 -3051.5565 L -875.7891 -3054.054 C -877.2812 -3054.6665 -878.6791 -3055.5785 -879.8909 -3056.7903 C -884.7902 -3061.6895 -884.7902 -3069.6328 -879.8909 -3074.532 C -876.1307 -3078.2922 -870.5774 -3079.1665 -865.9835 -3077.1547 Z"/></g><g id="Graphic_4321"><path fill="#3770a1" d="M -863.9463 -3054.029 L -861.0646 -3054.029 L -861.0646 -3063.387 L -870.9344 -3063.387 L -870.9344 -3060.6547 L -863.9463 -3060.6547 Z"/><path stroke="#000" stroke-linecap="round" stroke-linejoin="round" stroke-width="0" d="M -863.9463 -3054.029 L -861.0646 -3054.029 L -861.0646 -3063.387 L -870.9344 -3063.387 L -870.9344 -3060.6547 L -863.9463 -3060.6547 Z"/></g><g id="Graphic_4320"><path fill="#3570a0" d="M -865.3178 -3060.7987 C -865.4319 -3060.6676 -865.5513 -3060.5395 -865.6761 -3060.4147 C -868.5892 -3057.5016 -873.3122 -3057.5016 -876.2252 -3060.4147 C -879.1383 -3063.3278 -879.1383 -3068.0508 -876.2252 -3070.964 C -874.8722 -3072.317 -873.1288 -3073.0415 -871.3576 -3073.1376 L -871.3576 -3075.853 C -873.8235 -3075.755 -876.2606 -3074.7646 -878.1433 -3072.882 C -882.1156 -3068.9095 -882.1156 -3062.469 -878.1433 -3058.4967 C -874.1709 -3054.5243 -867.7304 -3054.5243 -863.7581 -3058.4967 C -863.0583 -3059.1964 -862.4819 -3059.9728 -862.0286 -3060.7987 Z"/><path stroke="#3770a0" stroke-linecap="round" stroke-linejoin="round" stroke-width="0" d="M -865.3178 -3060.7987 C -865.4319 -3060.6676 -865.5513 -3060.5395 -865.6761 -3060.4147 C -868.5892 -3057.5016 -873.3122 -3057.5016 -876.2252 -3060.4147 C -879.1383 -3063.3278 -879.1383 -3068.0508 -876.2252 -3070.964 C -874.8722 -3072.317 -873.1288 -3073.0415 -871.3576 -3073.1376 L -871.3576 -3075.853 C -873.8235 -3075.755 -876.2606 -3074.7646 -878.1433 -3072.882 C -882.1156 -3068.9095 -882.1156 -3062.469 -878.1433 -3058.4967 C -874.1709 -3054.5243 -867.7304 -3054.5243 -863.7581 -3058.4967 C -863.0583 -3059.1964 -862.4819 -3059.9728 -862.0286 -3060.7987 Z"/></g><g id="Graphic_4319"><path fill="#efb54f" d="M -854.1118 -3077.0014 C -854.8332 -3078.0723 -855.6675 -3079.0898 -856.6148 -3080.037 C -864.5595 -3087.982 -877.4405 -3087.982 -885.3852 -3080.037 C -891.6984 -3073.724 -892.9949 -3064.2936 -889.2746 -3056.7 L -886.9185 -3058.0604 C -890.043 -3064.6122 -888.8926 -3072.6937 -883.4672 -3078.119 C -876.5817 -3085.0045 -865.4183 -3085.0045 -858.5328 -3078.119 C -857.7571 -3077.3433 -857.0687 -3076.5133 -856.4678 -3075.641 Z"/><path stroke="#efb64f" stroke-linecap="round" stroke-linejoin="round" stroke-width="0" d="M -854.1118 -3077.0014 C -854.8332 -3078.0723 -855.6675 -3079.0898 -856.6148 -3080.037 C -864.5595 -3087.982 -877.4405 -3087.982 -885.3852 -3080.037 C -891.6984 -3073.724 -892.9949 -3064.2936 -889.2746 -3056.7 L -886.9185 -3058.0604 C -890.043 -3064.6122 -888.8926 -3072.6937 -883.4672 -3078.119 C -876.5817 -3085.0045 -865.4183 -3085.0045 -858.5328 -3078.119 C -857.7571 -3077.3433 -857.0687 -3076.5133 -856.4678 -3075.641 Z"/></g></g></g></g></g></svg>