<svg xmlns="http://www.w3.org/2000/svg" width="64" height="64" viewBox="-842.5 -3089.652 64 64"><g fill="none"><path fill="#fff" d="M-820.1-3089.652h19.2c6.4 0 9.6 0 13.44 1.28 3.2 1.28 6.4 4.48 7.68 7.68 1.28 3.84 1.28 7.04 1.28 13.44v19.2c0 6.4 0 9.6-1.28 13.44-1.28 3.2-4.48 6.4-7.68 7.68-3.84 1.28-7.04 1.28-13.44 1.28h-19.2c-6.4 0-9.6 0-13.44-1.28-3.2-1.28-6.4-4.48-7.68-7.68-1.28-3.84-1.28-7.04-1.28-13.44v-19.2c0-6.4 0-9.6 1.28-13.44 1.28-3.2 4.48-6.4 7.68-7.68 3.84-1.28 7.04-1.28 13.44-1.28m0 0"/><path fill="#efb54f" fill-opacity=".252" d="M-791.32-3076.832c-10.593-10.593-27.767-10.593-38.36 0s-10.593 27.767 0 38.36 27.767 10.593 38.36 0 10.593-27.767 0-38.36m-2.557 2.557c9.18 9.18 9.18 24.065 0 33.246-9.18 9.18-24.065 9.18-33.246 0-9.18-9.18-9.18-24.065 0-33.246 9.18-9.18 24.065-9.18 33.246 0"/><path d="M-791.32-3076.832c-10.593-10.593-27.767-10.593-38.36 0s-10.593 27.767 0 38.36 27.767 10.593 38.36 0 10.593-27.767 0-38.36m-2.557 2.557c9.18 9.18 9.18 24.065 0 33.246-9.18 9.18-24.065 9.18-33.246 0-9.18-9.18-9.18-24.065 0-33.246 9.18-9.18 24.065-9.18 33.246 0"/><path fill="#d3673a" fill-opacity=".249" d="M-796.115-3072.037c-7.944-7.945-20.826-7.945-28.77 0-7.945 7.945-7.945 20.825 0 28.77 7.944 7.945 20.826 7.945 28.77 0 7.945-7.945 7.945-20.825 0-28.77m-2.557 2.557c6.532 6.533 6.532 17.124 0 23.656-6.533 6.532-17.123 6.532-23.656 0-6.532-6.532-6.532-17.123 0-23.656 6.533-6.532 17.123-6.532 23.656 0"/><path d="M-796.115-3072.037c-7.944-7.945-20.826-7.945-28.77 0-7.945 7.945-7.945 20.825 0 28.77 7.944 7.945 20.826 7.945 28.77 0 7.945-7.945 7.945-20.825 0-28.77m-2.557 2.557c6.532 6.533 6.532 17.124 0 23.656-6.533 6.532-17.123 6.532-23.656 0-6.532-6.532-6.532-17.123 0-23.656 6.533-6.532 17.123-6.532 23.656 0"/><path fill="#3570a0" fill-opacity=".25" d="M-800.91-3067.242c-5.296-5.296-13.884-5.296-19.18 0-5.297 5.296-5.297 13.884 0 19.18 5.296 5.297 13.884 5.297 19.18 0 5.297-5.296 5.297-13.884 0-19.18m-2.557 2.557c3.884 3.884 3.884 10.182 0 14.066-3.884 3.884-10.182 3.884-14.066 0-3.884-3.884-3.884-10.182 0-14.066 3.884-3.884 10.182-3.884 14.066 0"/><path d="M-800.91-3067.242c-5.296-5.296-13.884-5.296-19.18 0-5.297 5.296-5.297 13.884 0 19.18 5.296 5.297 13.884 5.297 19.18 0 5.297-5.296 5.297-13.884 0-19.18m-2.557 2.557c3.884 3.884 3.884 10.182 0 14.066-3.884 3.884-10.182 3.884-14.066 0-3.884-3.884-3.884-10.182 0-14.066 3.884-3.884 10.182-3.884 14.066 0"/><path fill="#d3673a" d="M-802.398-3076.32c-7.442-3.24-16.427-1.817-22.514 4.27-7.945 7.945-7.945 20.826 0 28.771a20.285 20.285 0 0 0 6.613 4.421l1.414-3.33a16.676 16.676 0 0 1-5.47-3.648c-6.532-6.533-6.532-17.124 0-23.656 5.014-5.014 12.418-6.18 18.544-3.497Z"/><path d="M-802.398-3076.32c-7.442-3.24-16.427-1.817-22.514 4.27-7.945 7.945-7.945 20.826 0 28.771a20.285 20.285 0 0 0 6.613 4.421l1.414-3.33a16.676 16.676 0 0 1-5.47-3.648c-6.532-6.533-6.532-17.124 0-23.656 5.014-5.014 12.418-6.18 18.544-3.497Z"/><path fill="#3770a1" d="M-801.095-3042.155h3.842v-12.477h-13.16v3.643h9.318Z"/><path d="M-801.095-3042.155h3.842v-12.477h-13.16v3.643h9.318Z"/><path fill="#3570a0" d="M-802.924-3051.181c-.152.175-.311.346-.478.512-3.884 3.884-10.18 3.884-14.065 0-3.884-3.884-3.884-10.181 0-14.066a9.91 9.91 0 0 1 6.49-2.898v-3.62a13.515 13.515 0 0 0-9.047 3.961c-5.297 5.297-5.297 13.884 0 19.18 5.296 5.297 13.883 5.297 19.18 0a13.567 13.567 0 0 0 2.306-3.069Z"/><path d="M-802.924-3051.181c-.152.175-.311.346-.478.512-3.884 3.884-10.18 3.884-14.065 0-3.884-3.884-3.884-10.181 0-14.066a9.91 9.91 0 0 1 6.49-2.898v-3.62a13.515 13.515 0 0 0-9.047 3.961c-5.297 5.297-5.297 13.884 0 19.18 5.296 5.297 13.883 5.297 19.18 0a13.567 13.567 0 0 0 2.306-3.069Z"/><path fill="#efb54f" d="M-787.982-3072.785a27.251 27.251 0 0 0-3.338-4.047c-10.593-10.593-27.767-10.593-38.36 0-8.418 8.418-10.147 20.991-5.186 31.116l3.141-1.814c-4.166-8.736-2.632-19.511 4.602-26.745 9.18-9.18 24.065-9.18 33.246 0a23.652 23.652 0 0 1 2.753 3.304Z"/><path d="M-787.982-3072.785a27.251 27.251 0 0 0-3.338-4.047c-10.593-10.593-27.767-10.593-38.36 0-8.418 8.418-10.147 20.991-5.186 31.116l3.141-1.814c-4.166-8.736-2.632-19.511 4.602-26.745 9.18-9.18 24.065-9.18 33.246 0a23.652 23.652 0 0 1 2.753 3.304Z"/></g></svg>