<svg xmlns="http://www.w3.org/2000/svg" width="48" height="48" viewBox="-895 -3089.652 48 48"><g fill="none"><path fill="#fff" d="M-878.2-3089.652h14.4c4.8 0 7.2 0 10.08.96 2.4.96 4.8 3.36 5.76 5.76.96 2.88.96 5.28.96 10.08v14.4c0 4.8 0 7.2-.96 10.08-.96 2.4-3.36 4.8-5.76 5.76-2.88.96-5.28.96-10.08.96h-14.4c-4.8 0-7.2 0-10.08-.96-2.4-.96-4.8-3.36-5.76-5.76-.96-2.88-.96-5.28-.96-10.08v-14.4c0-4.8 0-7.2.96-10.08.96-2.4 3.36-4.8 5.76-5.76 2.88-.96 5.28-.96 10.08-.96m0 0"/><path fill="#efb54f" fill-opacity=".252" d="M-856.615-3080.037c-7.944-7.945-20.826-7.945-28.77 0-7.945 7.945-7.945 20.825 0 28.77 7.944 7.945 20.826 7.945 28.77 0 7.945-7.945 7.945-20.825 0-28.77m-1.918 1.918c6.886 6.885 6.886 18.049 0 24.934-6.885 6.886-18.049 6.886-24.934 0-6.886-6.885-6.886-18.049 0-24.934 6.885-6.885 18.049-6.885 24.934 0"/><path d="M-856.615-3080.037c-7.944-7.945-20.826-7.945-28.77 0-7.945 7.945-7.945 20.825 0 28.77 7.944 7.945 20.826 7.945 28.77 0 7.945-7.945 7.945-20.825 0-28.77m-1.918 1.918c6.886 6.885 6.886 18.049 0 24.934-6.885 6.886-18.049 6.886-24.934 0-6.886-6.885-6.886-18.049 0-24.934 6.885-6.885 18.049-6.885 24.934 0"/><path fill="#d3673a" fill-opacity=".249" d="M-860.211-3076.44c-5.959-5.96-15.62-5.96-21.578 0-5.958 5.958-5.958 15.618 0 21.577 5.959 5.958 15.62 5.958 21.578 0 5.958-5.959 5.958-15.62 0-21.578m-1.918 1.918c4.9 4.9 4.9 12.843 0 17.742-4.9 4.9-12.843 4.9-17.742 0-4.9-4.9-4.9-12.843 0-17.742 4.9-4.899 12.843-4.899 17.742 0"/><path d="M-860.211-3076.44c-5.959-5.96-15.62-5.96-21.578 0-5.958 5.958-5.958 15.618 0 21.577 5.959 5.958 15.62 5.958 21.578 0 5.958-5.959 5.958-15.62 0-21.578m-1.918 1.918c4.9 4.9 4.9 12.843 0 17.742-4.9 4.9-12.843 4.9-17.742 0-4.9-4.9-4.9-12.843 0-17.742 4.9-4.899 12.843-4.899 17.742 0"/><path fill="#3570a0" fill-opacity=".25" d="M-863.807-3072.845c-3.973-3.972-10.413-3.972-14.386 0-3.972 3.973-3.972 10.413 0 14.386 3.973 3.972 10.413 3.972 14.386 0 3.972-3.973 3.972-10.413 0-14.386m-1.918 1.918a7.46 7.46 0 1 1-10.55 10.55 7.46 7.46 0 0 1 10.55-10.55"/><path d="M-863.807-3072.845c-3.973-3.972-10.413-3.972-14.386 0-3.972 3.973-3.972 10.413 0 14.386 3.973 3.972 10.413 3.972 14.386 0 3.972-3.973 3.972-10.413 0-14.386m-1.918 1.918a7.46 7.46 0 1 1-10.55 10.55 7.46 7.46 0 0 1 10.55-10.55"/><path fill="#d3673a" d="M-864.923-3079.652c-5.582-2.431-12.32-1.363-16.886 3.202-5.959 5.958-5.959 15.619 0 21.578a15.21 15.21 0 0 0 4.96 3.315l1.06-2.497a12.51 12.51 0 0 1-4.102-2.736c-4.9-4.9-4.9-12.843 0-17.742 3.76-3.76 9.314-4.634 13.907-2.623Z"/><path d="M-864.923-3079.652c-5.582-2.431-12.32-1.363-16.886 3.202-5.959 5.958-5.959 15.619 0 21.578a15.21 15.21 0 0 0 4.96 3.315l1.06-2.497a12.51 12.51 0 0 1-4.102-2.736c-4.9-4.9-4.9-12.843 0-17.742 3.76-3.76 9.314-4.634 13.907-2.623Z"/><path fill="#3770a1" d="M-863.946-3054.029h2.881v-9.358h-9.87v2.732h6.989Z"/><path d="M-863.946-3054.029h2.881v-9.358h-9.87v2.732h6.989Z"/><path fill="#3570a0" d="M-865.318-3060.799a7.46 7.46 0 1 1-6.04-12.339v-2.715a10.135 10.135 0 0 0-6.785 2.971c-3.973 3.972-3.973 10.413 0 14.385 3.972 3.973 10.413 3.973 14.385 0 .7-.7 1.276-1.476 1.73-2.302Z"/><path d="M-865.318-3060.799a7.46 7.46 0 1 1-6.04-12.339v-2.715a10.135 10.135 0 0 0-6.785 2.971c-3.973 3.972-3.973 10.413 0 14.385 3.972 3.973 10.413 3.973 14.385 0 .7-.7 1.276-1.476 1.73-2.302Z"/><path fill="#efb54f" d="M-854.112-3077.001a20.442 20.442 0 0 0-2.503-3.036c-7.944-7.945-20.826-7.945-28.77 0-6.313 6.313-7.61 15.743-3.89 23.337l2.356-1.36c-3.124-6.552-1.974-14.634 3.452-20.059 6.885-6.885 18.049-6.885 24.934 0a17.72 17.72 0 0 1 2.065 2.478Z"/><path d="M-854.112-3077.001a20.442 20.442 0 0 0-2.503-3.036c-7.944-7.945-20.826-7.945-28.77 0-6.313 6.313-7.61 15.743-3.89 23.337l2.356-1.36c-3.124-6.552-1.974-14.634 3.452-20.059 6.885-6.885 18.049-6.885 24.934 0a17.72 17.72 0 0 1 2.065 2.478Z"/></g></svg>