<svg xmlns="http://www.w3.org/2000/svg" width="103" height="103" viewBox="299.5 1050.091 103 103"><g fill="none"><path fill="#fff" d="M385 1051.59h-68c-8.837 0-16 7.164-16 16v68c0 8.837 7.163 16 16 16h68c8.837 0 16-7.163 16-16v-68c0-8.836-7.163-16-16-16Z"/><path stroke="#000" stroke-linecap="round" stroke-linejoin="round" stroke-width="3" d="M385 1051.59h-68c-8.837 0-16 7.164-16 16v68c0 8.837 7.163 16 16 16h68c8.837 0 16-7.163 16-16v-68c0-8.836-7.163-16-16-16Z"/><path fill="#518737" d="m326.793 1070.952 15.74 15.742 7.002-7.002-22.742-22.793L304 1079.692l7.051 7.002 15.742-15.742Zm0 61.277-15.742-15.741-7.001 7.001 22.743 22.793 22.792-22.793-7.051-7.001-15.741 15.741Z"/><path fill="#518737" d="M323.133 1115.998a4.817 4.817 0 0 0 4.802 4.803 4.817 4.817 0 0 0 4.803-4.803 4.817 4.817 0 0 0-4.803-4.803 4.817 4.817 0 0 0-4.802 4.803Zm0-28.815a4.817 4.817 0 0 0 4.802 4.803 4.817 4.817 0 0 0 4.803-4.803 4.817 4.817 0 0 0-4.803-4.802 4.817 4.817 0 0 0-4.802 4.802Zm0 14.408a4.817 4.817 0 0 0 4.802 4.802 4.817 4.817 0 0 0 4.803-4.802 4.817 4.817 0 0 0-4.803-4.803 4.817 4.817 0 0 0-4.802 4.803Z"/><path stroke="#518737" stroke-linecap="round" stroke-linejoin="round" stroke-width="2" d="M323.133 1115.998a4.817 4.817 0 0 0 4.802 4.803 4.817 4.817 0 0 0 4.803-4.803 4.817 4.817 0 0 0-4.803-4.803 4.817 4.817 0 0 0-4.802 4.803Zm0-28.815a4.817 4.817 0 0 0 4.802 4.803 4.817 4.817 0 0 0 4.803-4.803 4.817 4.817 0 0 0-4.803-4.802 4.817 4.817 0 0 0-4.802 4.802Zm0 14.408a4.817 4.817 0 0 0 4.802 4.802 4.817 4.817 0 0 0 4.803-4.802 4.817 4.817 0 0 0-4.803-4.803 4.817 4.817 0 0 0-4.802 4.803Z"/><path stroke="#65727e" stroke-linecap="round" stroke-linejoin="round" stroke-width="6" d="M359.5 1088h24M359.5 1101.091h24M359.5 1114.181h24"/></g></svg>