<svg xmlns="http://www.w3.org/2000/svg" viewBox="-942.09 -3813.122 25 25" width="25" height="25"><g fill="none"><path d="M-921.43-3812.622h-16.32a3.84 3.84 0 0 0-3.84 3.84v16.32a3.84 3.84 0 0 0 3.84 3.84h16.32a3.84 3.84 0 0 0 3.84-3.84v-16.32a3.84 3.84 0 0 0-3.84-3.84Z" fill="#fff"/><path d="M-921.43-3812.622h-16.32a3.84 3.84 0 0 0-3.84 3.84v16.32a3.84 3.84 0 0 0 3.84 3.84h16.32a3.84 3.84 0 0 0 3.84-3.84v-16.32a3.84 3.84 0 0 0-3.84-3.84Z" stroke="#000" stroke-linejoin="round" stroke-width=".25"/><path d="M-936.325-3797.994c.002.509.414.921.922.923a.925.925 0 0 0 .922-.923.925.925 0 0 0-.922-.922.925.925 0 0 0-.922.922Zm0-5.532c.002.508.414.92.922.922a.925.925 0 0 0 .922-.922.925.925 0 0 0-.922-.922.925.925 0 0 0-.922.922Zm0 2.766c.002.509.414.92.922.922a.925.925 0 0 0 .922-.922.925.925 0 0 0-.922-.922.925.925 0 0 0-.922.922Z" fill="#518737"/><path d="m-935.622-3806.244 2.817 2.818 1.254-1.254-4.071-4.08-4.08 4.08 1.262 1.254Zm0 10.969-2.818-2.818-1.253 1.253 4.07 4.08 4.08-4.08-1.261-1.253-2.818 2.818Z" fill="#518737"/><path d="M-927.55-3803.883h5.76m-5.76 3.141h5.76m-5.76 3.142h5.76" stroke="#65727e" stroke-linecap="round" stroke-linejoin="round" stroke-width="1.44"/></g></svg>