<svg xmlns="http://www.w3.org/2000/svg" viewBox="-952.625 -3810.625 25.25 25.25" width="25.25" height="25.25"><g fill="none"><path d="M-931.84-3810h-16.32a3.84 3.84 0 0 0-3.84 3.84v16.32a3.84 3.84 0 0 0 3.84 3.84h16.32a3.84 3.84 0 0 0 3.84-3.84v-16.32a3.84 3.84 0 0 0-3.84-3.84Z" fill="#fff"/><path d="M-931.84-3810h-16.32a3.84 3.84 0 0 0-3.84 3.84v16.32a3.84 3.84 0 0 0 3.84 3.84h16.32a3.84 3.84 0 0 0 3.84-3.84v-16.32a3.84 3.84 0 0 0-3.84-3.84Z" stroke="#000" stroke-linejoin="round" stroke-width=".25"/><path d="M-946.735-3795.372c.002.509.414.92.923.922a.925.925 0 0 0 .922-.922.925.925 0 0 0-.923-.922.925.925 0 0 0-.922.922Zm0-5.532c.002.508.414.92.923.922a.925.925 0 0 0 .922-.922.925.925 0 0 0-.923-.922.925.925 0 0 0-.922.922Zm0 2.766c.002.508.414.92.923.922a.925.925 0 0 0 .922-.922.925.925 0 0 0-.923-.922.925.925 0 0 0-.922.922Z" fill="#518737"/><path d="m-946.032-3803.623 2.818 2.818 1.253-1.253-4.07-4.08-4.08 4.08 1.261 1.253Zm0 10.97-2.818-2.818-1.253 1.253 4.071 4.08 4.08-4.08-1.262-1.253-2.818 2.817Z" fill="#518737"/><path d="M-937.96-3801.262h5.76m-5.76 3.142h5.76m-5.76 3.142h5.76" stroke="#65727e" stroke-linecap="round" stroke-linejoin="round" stroke-width="1.44"/></g></svg>