<svg xmlns="http://www.w3.org/2000/svg" viewBox="-982.09 -3813.122 25 25" width="25" height="25"><g fill="none"><path d="M-977.75-3812.622h16.32a3.84 3.84 0 0 1 3.84 3.84v16.32a3.84 3.84 0 0 1-3.84 3.84h-16.32a3.84 3.84 0 0 1-3.84-3.84v-16.32a3.84 3.84 0 0 1 3.84-3.84Z" fill="#fff"/><path d="M-977.75-3812.622h16.32a3.84 3.84 0 0 1 3.84 3.84v16.32a3.84 3.84 0 0 1-3.84 3.84h-16.32a3.84 3.84 0 0 1-3.84-3.84v-16.32a3.84 3.84 0 0 1 3.84-3.84Z" stroke="#000" stroke-linecap="round" stroke-linejoin="round" stroke-width=".25"/><path stroke="#65727e" stroke-linecap="round" stroke-linejoin="round" stroke-width="3.84" d="M-969.575-3801.126v7.2M-969.575-3807.319v.72"/></g></svg>