<svg xmlns="http://www.w3.org/2000/svg" viewBox="-992.625 -3810.625 25.25 25.25" width="25.25" height="25.25"><g fill="none"><path d="M-988.16-3810h16.32a3.84 3.84 0 0 1 3.84 3.84v16.32a3.84 3.84 0 0 1-3.84 3.84h-16.32a3.84 3.84 0 0 1-3.84-3.84v-16.32a3.84 3.84 0 0 1 3.84-3.84Z" fill="#fff"/><path d="M-988.16-3810h16.32a3.84 3.84 0 0 1 3.84 3.84v16.32a3.84 3.84 0 0 1-3.84 3.84h-16.32a3.84 3.84 0 0 1-3.84-3.84v-16.32a3.84 3.84 0 0 1 3.84-3.84Z" stroke="#000" stroke-linecap="round" stroke-linejoin="round" stroke-width=".25"/><path stroke="#65727e" stroke-linecap="round" stroke-linejoin="round" stroke-width="3.84" d="M-979.985-3798.504v7.2M-979.985-3804.698v.72"/></g></svg>