<svg xmlns="http://www.w3.org/2000/svg" viewBox="-182.09 -3813.122 25 24.724" width="25" height="24.724"><g fill="none"><path d="M-169.385-3788.898h7.943a3.851 3.851 0 0 0 3.852-3.851v-7.924a3.851 3.851 0 0 0-3.852-3.852h-7.943a3.851 3.851 0 0 0-3.851 3.852v7.924a3.851 3.851 0 0 0 3.851 3.851Z" fill="#fff"/><path d="M-169.385-3788.898h7.943a3.851 3.851 0 0 0 3.852-3.851v-7.924a3.851 3.851 0 0 0-3.852-3.852h-7.943a3.851 3.851 0 0 0-3.851 3.852v7.924a3.851 3.851 0 0 0 3.851 3.851Z" stroke="#000" stroke-linecap="round" stroke-linejoin="round" stroke-width=".25"/><path d="M-177.739-3796.995h7.943a3.851 3.851 0 0 0 3.852-3.851v-7.924a3.851 3.851 0 0 0-3.852-3.852h-7.943a3.851 3.851 0 0 0-3.851 3.852v7.924a3.851 3.851 0 0 0 3.851 3.851Z" fill="#fff"/><path d="M-177.739-3796.995h7.943a3.851 3.851 0 0 0 3.852-3.851v-7.924a3.851 3.851 0 0 0-3.852-3.852h-7.943a3.851 3.851 0 0 0-3.851 3.852v7.924a3.851 3.851 0 0 0 3.851 3.851Z" stroke="#000" stroke-linecap="round" stroke-linejoin="round" stroke-width=".25"/><path d="M-166.346-3794.703v2.923l5.5-5.115-5.5-5.114v2.995c-3.93 0-6.68-1.168-8.644-3.726.786 3.653 3.143 7.307 8.644 8.037Z" fill="#5c76a2"/></g></svg>