<svg xmlns="http://www.w3.org/2000/svg" viewBox="-702.09 -3813.122 25 25" width="25" height="25"><g fill="none"><circle cx="-689.59" cy="-3800.622" r="12" fill="#fff"/><circle cx="-689.59" cy="-3800.622" r="12" stroke="#000" stroke-linecap="round" stroke-linejoin="round" stroke-width=".25"/><path d="M-684.76-3804.277c0 .454-.056.853-.166 1.197-.11.344-.264.661-.464.95-.2.289-.44.56-.722.815-.283.255-.602.52-.96.795-.22.179-.403.337-.547.474a1.871 1.871 0 0 0-.34.424 1.59 1.59 0 0 0-.176.454 2.707 2.707 0 0 0-.052.567v.537h-3.22v-.784c0-.358.035-.678.104-.96.068-.282.172-.54.31-.774.137-.234.305-.461.505-.681.2-.22.437-.448.712-.681l.681-.64a4.04 4.04 0 0 0 .599-.65c.165-.227.247-.499.247-.816 0-.44-.134-.791-.402-1.052-.269-.262-.637-.392-1.104-.392-.578 0-1.012.196-1.3.588a2.423 2.423 0 0 0-.475 1.331l-3.282-.351c.082-.743.272-1.397.567-1.96a4.332 4.332 0 0 1 1.146-1.404c.468-.372.998-.65 1.59-.836a6.227 6.227 0 0 1 1.877-.279c.62 0 1.222.08 1.806.238a4.606 4.606 0 0 1 1.559.743c.454.337.819.767 1.094 1.29.275.523.413 1.142.413 1.857Zm-3.014 9.123c0 .55-.193 1.015-.578 1.393-.385.379-.86.568-1.424.568-.275 0-.533-.048-.774-.144a1.97 1.97 0 0 1-.64-.413 2.082 2.082 0 0 1-.444-.62 1.771 1.771 0 0 1-.165-.763c0-.262.052-.513.155-.754.103-.24.248-.45.433-.629a2.075 2.075 0 0 1 1.435-.578c.275 0 .533.052.774.155.24.103.454.24.64.413a1.891 1.891 0 0 1 .588 1.372Z" fill="#65727e"/></g></svg>