<svg xmlns="http://www.w3.org/2000/svg" viewBox="-262.09 -3813.122 25 25" width="25" height="25"><g fill="none"><path d="M-241.43-3812.622h-16.32a3.84 3.84 0 0 0-3.84 3.84v16.32a3.84 3.84 0 0 0 3.84 3.84h16.32a3.84 3.84 0 0 0 3.84-3.84v-16.32a3.84 3.84 0 0 0-3.84-3.84Z" fill="#fff"/><path d="M-241.43-3812.622h-16.32a3.84 3.84 0 0 0-3.84 3.84v16.32a3.84 3.84 0 0 0 3.84 3.84h16.32a3.84 3.84 0 0 0 3.84-3.84v-16.32a3.84 3.84 0 0 0-3.84-3.84Z" stroke="#000" stroke-linecap="round" stroke-linejoin="round" stroke-width=".25"/><path d="M-243.473-3796.272h-.931l-.33-.319a7.628 7.628 0 0 0 1.85-4.986 7.662 7.662 0 1 0-7.662 7.662 7.628 7.628 0 0 0 4.987-1.85l.318.33v.931l5.894 5.882 1.757-1.756-5.883-5.894Zm-7.073 0a5.298 5.298 0 0 1-5.305-5.305 5.298 5.298 0 0 1 5.305-5.305 5.298 5.298 0 0 1 5.305 5.305 5.298 5.298 0 0 1-5.305 5.305Z" fill="#5c76a2"/></g></svg>