<svg xmlns="http://www.w3.org/2000/svg" viewBox="-392.625 -3810.587 25.25 25.622" width="25.25" height="25.622"><g fill="none"><path d="M-371.84-3791.82h-16.32a3.84 3.84 0 0 1-3.84-3.84v-10.462a3.84 3.84 0 0 1 3.84-3.84h16.32a3.84 3.84 0 0 1 3.84 3.84v10.461a3.84 3.84 0 0 1-3.84 3.84Z" fill="#fff"/><path d="M-371.84-3791.82h-16.32a3.84 3.84 0 0 1-3.84-3.84v-10.462a3.84 3.84 0 0 1 3.84-3.84h16.32a3.84 3.84 0 0 1 3.84 3.84v10.461a3.84 3.84 0 0 1-3.84 3.84s0 0 0 0Z" stroke="#000" stroke-linecap="round" stroke-linejoin="round" stroke-width=".25"/><path d="M-372.44-3791.649v-2.321h-15.12v2.321h15.12Z" fill="#fff"/><path d="m-374.836-3791.128-1.033-1.034-3.405 3.403.005-11.973h-1.456l-.005 11.972-3.403-3.405-1.033 1.032 5.163 5.168Z" fill="#518737"/><path d="m-374.836-3791.128-1.033-1.034-3.405 3.403.005-11.973h-1.456l-.005 11.972-3.403-3.405-1.033 1.032 5.163 5.168Z" stroke="#518737" stroke-linecap="round" stroke-linejoin="round"/></g></svg>