<svg xmlns="http://www.w3.org/2000/svg" viewBox="-342.09 -3813.122 25 25.365" width="25" height="25.365"><g fill="none"><path d="M-321.451-3797.807h-12.043a3.861 3.861 0 0 1-3.86-3.86v-7.094a3.861 3.861 0 0 1 3.86-3.86h12.043a3.861 3.861 0 0 1 3.86 3.86v7.093a3.86 3.86 0 0 1-3.86 3.861Z" fill="#fff"/><path d="M-321.451-3797.807h-12.043a3.861 3.861 0 0 1-3.86-3.86v-7.094a3.861 3.861 0 0 1 3.86-3.86h12.043a3.861 3.861 0 0 1 3.86 3.86v7.093a3.86 3.86 0 0 1-3.86 3.861s0 0 0 0Z" stroke="#000" stroke-linecap="round" stroke-linejoin="round" stroke-width=".25"/><path d="M-325.687-3793.106h-12.042a3.861 3.861 0 0 1-3.861-3.861v-7.093a3.86 3.86 0 0 1 3.86-3.861h12.043a3.86 3.86 0 0 1 3.861 3.861v7.093a3.861 3.861 0 0 1-3.86 3.86Z" fill="#fff"/><path d="M-325.687-3793.106h-12.042a3.861 3.861 0 0 1-3.861-3.861v-7.093a3.86 3.86 0 0 1 3.86-3.861h12.043a3.86 3.86 0 0 1 3.861 3.861v7.093a3.861 3.861 0 0 1-3.86 3.86s0 0 0 0Z" stroke="#000" stroke-linecap="round" stroke-linejoin="round" stroke-width=".25"/><path d="M-339.79-3795.222v1.163c0 .387 0 .581.32.814.32.194 1.12.387 1.92.465.96.077 1.76.077 3.36.077h4.8c1.6 0 2.4 0 3.36-.077.8-.078 1.6-.271 1.92-.465.32-.233.32-.427.32-.814v-1.163c0-.388 0-.581-.32-.814-.32-.194-1.12-.388-1.92-.465-.96-.078-1.76-.078-3.36-.078h-4.8c-1.6 0-2.4 0-3.36.078-.8.077-1.6.271-1.92.465-.32.233-.32.426-.32.814m0 0" fill="#fff"/><path d="m-326.718-3793.796-1.033-1.035-3.412 3.403.015-11.986-1.458-.002-.015 11.986-3.404-3.412-1.035 1.033 5.165 5.178Z" fill="#518737"/><path d="m-326.718-3793.796-1.033-1.035-3.412 3.403.015-11.986-1.458-.002-.015 11.986-3.404-3.412-1.035 1.033 5.165 5.178Z" stroke="#518737" stroke-linecap="round" stroke-linejoin="round"/></g></svg>