<svg xmlns="http://www.w3.org/2000/svg" viewBox="-902.09 -3812.726 25 25" width="25" height="25"><g fill="none"><path d="M-897.75-3812.226h16.32a3.84 3.84 0 0 1 3.84 3.84v16.32a3.84 3.84 0 0 1-3.84 3.84h-16.32a3.84 3.84 0 0 1-3.84-3.84v-16.32a3.84 3.84 0 0 1 3.84-3.84Z" fill="#fff"/><path d="M-897.75-3812.226h16.32a3.84 3.84 0 0 1 3.84 3.84v16.32a3.84 3.84 0 0 1-3.84 3.84h-16.32a3.84 3.84 0 0 1-3.84-3.84v-16.32a3.84 3.84 0 0 1 3.84-3.84Z" stroke="#000" stroke-linecap="round" stroke-linejoin="round" stroke-width=".25"/><path d="M-882.802-3807.014a9.6 9.6 0 1 0-13.577 13.577 9.6 9.6 0 0 0 13.577-13.577m-.905.905a8.32 8.32 0 1 1-11.767 11.766 8.32 8.32 0 0 1 11.767-11.766" fill="#efb54f" fill-opacity=".252"/><path d="M-884.5-3805.317a7.2 7.2 0 0 0-10.181 0 7.2 7.2 0 0 0 0 10.182 7.2 7.2 0 0 0 10.182 0 7.2 7.2 0 0 0 0-10.182m-.905.905a5.92 5.92 0 1 1-8.374 8.372 5.92 5.92 0 0 1 8.374-8.372" fill="#d3673a" fill-opacity=".249"/><path d="M-886.196-3803.62a4.8 4.8 0 1 0-6.788 6.788 4.8 4.8 0 0 0 6.788-6.788m-.905.905a3.52 3.52 0 1 1-4.958 4.997 3.52 3.52 0 0 1 4.958-4.997" fill="#3570a0" fill-opacity=".25"/><path d="M-886.723-3806.833a7.202 7.202 0 1 0-5.628 13.258l.5-1.178a5.92 5.92 0 1 1 4.627-10.9Z" fill="#d3673a"/><path d="M-886.262-3794.742h1.36v-4.415h-4.657v1.289h3.297Z" fill="#3770a1"/><path d="M-886.909-3797.936a3.52 3.52 0 1 1-2.85-5.822v-1.282a4.801 4.801 0 1 0 4.402 7.104Z" fill="#3570a0"/><path d="M-881.62-3805.582a9.6 9.6 0 0 0-14.758-1.432 9.605 9.605 0 0 0-1.836 11.012l1.112-.642a8.32 8.32 0 0 1 14.37-8.296Z" fill="#efb54f"/></g></svg>