<svg xmlns="http://www.w3.org/2000/svg" viewBox="-712.625 -3810.448 25.25 24.896" width="25.25" height="24.896"><g fill="none"><ellipse cx="-700" cy="-3798" rx="12" ry="11.823" fill="#fff"/><ellipse cx="-700" cy="-3798" rx="12" ry="11.823" stroke="#000" stroke-linecap="round" stroke-linejoin="round" stroke-width=".25"/><path d="M-695.17-3801.478c0 .454-.055.853-.165 1.197-.11.344-.265.66-.465.95-.2.289-.44.56-.722.815-.282.255-.602.52-.96.795-.22.178-.402.337-.547.474a1.874 1.874 0 0 0-.34.423 1.591 1.591 0 0 0-.176.455 2.708 2.708 0 0 0-.052.567v.537h-3.22v-.785c0-.357.035-.677.104-.96.069-.281.172-.54.31-.773.137-.234.306-.461.505-.681.2-.22.437-.448.712-.682l.681-.64a4.04 4.04 0 0 0 .599-.65c.165-.227.248-.498.248-.815 0-.44-.135-.791-.403-1.052-.268-.262-.636-.393-1.104-.393-.578 0-1.012.197-1.3.589a2.424 2.424 0 0 0-.475 1.331l-3.282-.351c.083-.743.272-1.397.568-1.96a4.335 4.335 0 0 1 1.145-1.404c.468-.372.998-.65 1.59-.836a6.227 6.227 0 0 1 1.878-.279c.619 0 1.22.08 1.806.238a4.602 4.602 0 0 1 1.558.743c.454.337.819.767 1.094 1.29.275.522.413 1.142.413 1.857Zm-3.014 9.123c0 .55-.192 1.015-.578 1.393-.385.379-.86.568-1.424.568-.275 0-.533-.048-.774-.145a1.97 1.97 0 0 1-.64-.412 2.085 2.085 0 0 1-.443-.62 1.893 1.893 0 0 1-.01-1.517c.102-.24.247-.45.433-.629a2.08 2.08 0 0 1 1.434-.578c.275 0 .533.052.774.155.241.103.454.24.64.412a1.893 1.893 0 0 1 .588 1.372Z" fill="#65727e"/></g></svg>