<svg xmlns="http://www.w3.org/2000/svg" viewBox="-462.09 -3812.726 25 25" width="25" height="25"><g fill="none"><path d="M-449.796-3812.226h-7.943a3.851 3.851 0 0 0-3.851 3.851v7.898a3.851 3.851 0 0 0 3.851 3.851h7.943a3.851 3.851 0 0 0 3.852-3.851v-7.898a3.851 3.851 0 0 0-3.852-3.851Z" fill="#fff"/><path d="M-449.796-3812.226h-7.943a3.851 3.851 0 0 0-3.851 3.851v7.898a3.851 3.851 0 0 0 3.851 3.851h7.943a3.851 3.851 0 0 0 3.852-3.851v-7.898a3.851 3.851 0 0 0-3.852-3.851s0 0 0 0Z" stroke="#000" stroke-linecap="round" stroke-linejoin="round" stroke-width=".25"/><path d="M-441.442-3803.826h-7.943a3.851 3.851 0 0 0-3.851 3.851v7.898a3.851 3.851 0 0 0 3.851 3.851h7.943a3.851 3.851 0 0 0 3.852-3.851v-7.898a3.851 3.851 0 0 0-3.852-3.851Z" fill="#fff"/><path d="M-441.442-3803.826h-7.943a3.851 3.851 0 0 0-3.851 3.851v7.898a3.851 3.851 0 0 0 3.851 3.851h7.943a3.851 3.851 0 0 0 3.852-3.851v-7.898a3.851 3.851 0 0 0-3.852-3.851s0 0 0 0Z" stroke="#000" stroke-linecap="round" stroke-linejoin="round" stroke-width=".25"/><path d="M-451.162-3807.168v-2.391l-5.5 4.184 5.5 4.185v-2.451c3.93 0 6.68.957 8.644 3.049-.786-2.989-3.143-5.978-8.644-6.576Z" fill="#9f4c4c"/><path d="M-448.019-3793.517v2.392l5.501-4.185-5.5-4.185v2.451c-3.93 0-6.68-.956-8.645-3.049.786 2.99 3.144 5.979 8.644 6.576Z" fill="#518737"/></g></svg>