<svg xmlns="http://www.w3.org/2000/svg" viewBox="-742.09 -3813.122 25 25" width="25" height="25"><g fill="none"><path d="M-720.447-3801.193h-1.715v-4.572a2.292 2.292 0 0 0-2.285-2.285h-4.572v-1.715a2.858 2.858 0 0 0-5.714 0v1.715h-4.572a2.283 2.283 0 0 0-2.274 2.285v4.343h1.703a3.087 3.087 0 0 1 3.086 3.086 3.087 3.087 0 0 1-3.086 3.086h-1.714v4.343a2.292 2.292 0 0 0 2.285 2.285h4.343v-1.714a3.087 3.087 0 0 1 3.086-3.086 3.087 3.087 0 0 1 3.086 3.086v1.714h4.343a2.292 2.292 0 0 0 2.285-2.285v-4.572h1.715a2.858 2.858 0 0 0 0-5.714Z" fill="#fff"/><path d="M-720.447-3801.193h-1.715v-4.572a2.292 2.292 0 0 0-2.285-2.285h-4.572v-1.715a2.858 2.858 0 0 0-5.714 0v1.715h-4.572a2.283 2.283 0 0 0-2.274 2.285v4.343h1.703a3.087 3.087 0 0 1 3.086 3.086 3.087 3.087 0 0 1-3.086 3.086h-1.714v4.343a2.292 2.292 0 0 0 2.285 2.285h4.343v-1.714a3.087 3.087 0 0 1 3.086-3.086 3.087 3.087 0 0 1 3.086 3.086v1.714h4.343a2.292 2.292 0 0 0 2.285-2.285v-4.572h1.715a2.858 2.858 0 0 0 0-5.714Z" stroke="#000" stroke-linecap="round" stroke-linejoin="round" stroke-width=".25"/><circle cx="-730.365" cy="-3800.599" r="5.298" fill="#fff"/><path d="M-730.365-3805.897a5.3 5.3 0 0 0-5.298 5.298 5.3 5.3 0 0 0 5.298 5.299 5.3 5.3 0 0 0 5.298-5.299 5.3 5.3 0 0 0-5.298-5.298Zm.53 7.947h-1.06v-3.179h1.06v3.18Zm0-4.238h-1.06v-1.06h1.06v1.06Z" fill="#5c76a2"/></g></svg>