<svg xmlns="http://www.w3.org/2000/svg" width="102.706" height="103" viewBox="1178.794 -800.13 102.706 103"><g fill="none"><path fill="#fff" d="M1229.294-798.63h-33c-8.837 0-16 7.164-16 16v33c0 8.837 7.163 16 16 16h33c8.837 0 16-7.163 16-16v-33c0-8.836-7.163-16-16-16Z"/><path stroke="#000" stroke-linecap="round" stroke-linejoin="round" stroke-width="3" d="M1229.294-798.63h-33c-8.837 0-16 7.164-16 16v33c0 8.837 7.163 16 16 16h33c8.837 0 16-7.163 16-16v-33c0-8.836-7.163-16-16-16 0 0 0 0 0 0Z"/><path fill="#fff" d="M1264-763.63h-33c-8.837 0-16 7.164-16 16v33c0 8.837 7.163 16 16 16h33c8.837 0 16-7.163 16-16v-33c0-8.836-7.163-16-16-16Z"/><path stroke="#000" stroke-linecap="round" stroke-linejoin="round" stroke-width="3" d="M1264-763.63h-33c-8.837 0-16 7.164-16 16v33c0 8.837 7.163 16 16 16h33c8.837 0 16-7.163 16-16v-33c0-8.836-7.163-16-16-16 0 0 0 0 0 0Z"/><path fill="#5c76a2" d="M1231.204-722.386v12.156l22.852-21.273-22.852-21.273v12.46c-16.323 0-27.748-4.862-35.91-15.499 3.265 15.195 13.058 30.39 35.91 33.43Z"/></g></svg>