<svg xmlns="http://www.w3.org/2000/svg" width="25" height="25" viewBox="-271.935 -3810.5 25 25"><g fill="none"><path d="M-271.435-3810h24v24h-24z"/><path fill="#fff" d="M-263.605-3793.68v2.324h8.34v-2.324h-8.34Z"/><path fill="#fff" d="M-251.275-3791.84h-16.32a3.84 3.84 0 0 1-3.84-3.84v-10.48a3.84 3.84 0 0 1 3.84-3.84h16.32a3.84 3.84 0 0 1 3.84 3.84v10.48a3.84 3.84 0 0 1-3.84 3.84Z"/><path stroke="#000" stroke-linecap="round" stroke-linejoin="round" stroke-width=".25" d="M-251.275-3791.84h-16.32a3.84 3.84 0 0 1-3.84-3.84v-10.48a3.84 3.84 0 0 1 3.84-3.84h16.32a3.84 3.84 0 0 1 3.84 3.84v10.48a3.84 3.84 0 0 1-3.84 3.84s0 0 0 0Z"/><path fill="#518737" d="M-263.902-3807.801a1.61 1.61 0 0 0-1.599 1.612c0 .886.72 1.611 1.6 1.611a1.61 1.61 0 0 0 1.598-1.611 1.61 1.61 0 0 0-1.599-1.612Zm9.594 0a1.61 1.61 0 0 0-1.6 1.612c0 .886.72 1.611 1.6 1.611a1.61 1.61 0 0 0 1.599-1.611 1.61 1.61 0 0 0-1.6-1.612Zm-4.797 0a1.61 1.61 0 0 0-1.599 1.612c0 .886.72 1.611 1.599 1.611a1.61 1.61 0 0 0 1.599-1.611 1.61 1.61 0 0 0-1.599-1.612Z"/><path d="M-263.902-3807.801a1.61 1.61 0 0 0-1.599 1.612c0 .886.72 1.611 1.6 1.611a1.61 1.61 0 0 0 1.598-1.611 1.61 1.61 0 0 0-1.599-1.612Zm9.594 0a1.61 1.61 0 0 0-1.6 1.612c0 .886.72 1.611 1.6 1.611a1.61 1.61 0 0 0 1.599-1.611 1.61 1.61 0 0 0-1.6-1.612Zm-4.797 0a1.61 1.61 0 0 0-1.599 1.612c0 .886.72 1.611 1.599 1.611a1.61 1.61 0 0 0 1.599-1.611 1.61 1.61 0 0 0-1.599-1.612Z"/><path fill="#fff" d="M-251.875-3791.548v-2.323h-15.12v2.323h15.12Z"/><path fill="#518737" d="m-254.272-3791.989-1.032-1.035-3.409 3.4.015-11.975-1.457-.001-.015 11.975-3.4-3.409-1.034 1.032 5.16 5.173Z"/><path stroke="#518737" stroke-linecap="round" stroke-linejoin="round" d="m-254.272-3791.989-1.032-1.035-3.409 3.4.015-11.975-1.457-.001-.015 11.975-3.4-3.409-1.034 1.032 5.16 5.173Z"/></g></svg>