<svg xmlns="http://www.w3.org/2000/svg" viewBox="-192.625 -3810.307 25.25 24.974" width="25.25" height="24.974"><g fill="none"><path d="M-179.795-3785.958h7.944a3.851 3.851 0 0 0 3.851-3.851v-7.925a3.851 3.851 0 0 0-3.851-3.851h-7.944a3.851 3.851 0 0 0-3.851 3.851v7.925a3.851 3.851 0 0 0 3.851 3.851Z" fill="#fff"/><path d="M-179.795-3785.958h7.944a3.851 3.851 0 0 0 3.851-3.851v-7.925a3.851 3.851 0 0 0-3.851-3.851h-7.944a3.851 3.851 0 0 0-3.851 3.851v7.925a3.851 3.851 0 0 0 3.851 3.851Z" stroke="#000" stroke-linecap="round" stroke-linejoin="round" stroke-width=".25"/><path d="M-188.149-3794.055h7.944a3.851 3.851 0 0 0 3.851-3.851v-7.925a3.851 3.851 0 0 0-3.851-3.851h-7.944a3.851 3.851 0 0 0-3.851 3.851v7.925a3.851 3.851 0 0 0 3.851 3.851Z" fill="#fff"/><path d="M-188.149-3794.055h7.944a3.851 3.851 0 0 0 3.851-3.851v-7.925a3.851 3.851 0 0 0-3.851-3.851h-7.944a3.851 3.851 0 0 0-3.851 3.851v7.925a3.851 3.851 0 0 0 3.851 3.851Z" stroke="#000" stroke-linecap="round" stroke-linejoin="round" stroke-width=".25"/><path d="M-176.756-3791.763v2.922l5.5-5.114-5.5-5.114v2.995c-3.93 0-6.68-1.169-8.644-3.726.786 3.653 3.143 7.306 8.644 8.037Z" fill="#5c76a2"/></g></svg>