<svg xmlns="http://www.w3.org/2000/svg" viewBox="-151.37 -3809.152 25 25" width="25" height="25"><g fill="none"><path d="M-138.665-3784.79h7.944a3.851 3.851 0 0 0 3.85-3.851v-7.925a3.851 3.851 0 0 0-3.85-3.851h-7.944a3.851 3.851 0 0 0-3.851 3.851v7.925a3.851 3.851 0 0 0 3.851 3.851Z" fill="#fff"/><path d="M-138.665-3784.79h7.944a3.851 3.851 0 0 0 3.85-3.851v-7.925a3.851 3.851 0 0 0-3.85-3.851h-7.944a3.851 3.851 0 0 0-3.851 3.851v7.925a3.851 3.851 0 0 0 3.851 3.851Z" stroke="#000" stroke-linecap="round" stroke-linejoin="round" stroke-width=".25"/><path d="M-147.019-3792.887h7.944a3.851 3.851 0 0 0 3.851-3.851v-7.925a3.851 3.851 0 0 0-3.851-3.851h-7.944a3.851 3.851 0 0 0-3.851 3.851v7.925a3.851 3.851 0 0 0 3.851 3.851Z" fill="#fff"/><path d="M-147.019-3792.887h7.944a3.851 3.851 0 0 0 3.851-3.851v-7.925a3.851 3.851 0 0 0-3.851-3.851h-7.944a3.851 3.851 0 0 0-3.851 3.851v7.925a3.851 3.851 0 0 0 3.851 3.851Z" stroke="#000" stroke-linecap="round" stroke-linejoin="round" stroke-width=".25"/><path d="M-135.626-3790.595v2.922l5.5-5.114-5.5-5.114v2.995c-3.93 0-6.68-1.169-8.644-3.726.786 3.653 3.143 7.306 8.644 8.037Z" fill="#5c76a2"/><path d="M-150.87-3808.652h24v24h-24z"/></g></svg>