<svg xmlns="http://www.w3.org/2000/svg" width="50" height="50" viewBox="2030 -1950 50 50"><g fill="none"><path fill="#efb54f" fill-opacity=".252" d="M2072.678-1942.678c-9.764-9.763-25.592-9.763-35.356 0-9.763 9.764-9.763 25.593 0 35.356 9.764 9.763 25.592 9.763 35.356 0 9.763-9.764 9.763-25.593 0-35.356m-2.357 2.357c8.461 8.462 8.461 22.18 0 30.642-8.462 8.461-22.18 8.461-30.642 0-8.461-8.462-8.461-22.18 0-30.642 8.462-8.461 22.18-8.461 30.642 0"/><path d="M2072.678-1942.678c-9.764-9.763-25.592-9.763-35.356 0-9.763 9.764-9.763 25.593 0 35.356 9.764 9.763 25.592 9.763 35.356 0 9.763-9.764 9.763-25.593 0-35.356m-2.357 2.357c8.461 8.462 8.461 22.18 0 30.642-8.462 8.461-22.18 8.461-30.642 0-8.461-8.462-8.461-22.18 0-30.642 8.462-8.461 22.18-8.461 30.642 0"/><path fill="#d3673a" fill-opacity=".249" d="M2068.258-1938.258c-7.322-7.323-19.194-7.323-26.516 0-7.323 7.322-7.323 19.194 0 26.516 7.322 7.323 19.194 7.323 26.516 0 7.323-7.322 7.323-19.194 0-26.516m-2.357 2.357c6.02 6.02 6.02 15.782 0 21.802s-15.782 6.02-21.802 0-6.02-15.782 0-21.802 15.782-6.02 21.802 0"/><path d="M2068.258-1938.258c-7.322-7.323-19.194-7.323-26.516 0-7.323 7.322-7.323 19.194 0 26.516 7.322 7.323 19.194 7.323 26.516 0 7.323-7.322 7.323-19.194 0-26.516m-2.357 2.357c6.02 6.02 6.02 15.782 0 21.802s-15.782 6.02-21.802 0-6.02-15.782 0-21.802 15.782-6.02 21.802 0"/><path fill="#3570a0" fill-opacity=".25" d="M2063.839-1933.839c-4.882-4.881-12.796-4.881-17.678 0-4.881 4.882-4.881 12.796 0 17.678 4.882 4.881 12.796 4.881 17.678 0 4.881-4.882 4.881-12.796 0-17.678m-2.357 2.357a9.167 9.167 0 1 1-12.964 12.964 9.167 9.167 0 0 1 12.964-12.964"/><path d="M2063.839-1933.839c-4.882-4.881-12.796-4.881-17.678 0-4.881 4.882-4.881 12.796 0 17.678 4.882 4.881 12.796 4.881 17.678 0 4.881-4.882 4.881-12.796 0-17.678m-2.357 2.357a9.167 9.167 0 1 1-12.964 12.964 9.167 9.167 0 0 1 12.964-12.964"/><path fill="#d3673a" d="M2062.468-1942.205c-6.86-2.987-15.14-1.675-20.75 3.935-7.323 7.323-7.323 19.195 0 26.517a18.695 18.695 0 0 0 6.094 4.075l1.303-3.07a15.368 15.368 0 0 1-5.04-3.362c-6.021-6.02-6.021-15.782 0-21.803 4.62-4.62 11.444-5.695 17.09-3.223Z"/><path d="M2062.468-1942.205c-6.86-2.987-15.14-1.675-20.75 3.935-7.323 7.323-7.323 19.195 0 26.517a18.695 18.695 0 0 0 6.094 4.075l1.303-3.07a15.368 15.368 0 0 1-5.04-3.362c-6.021-6.02-6.021-15.782 0-21.803 4.62-4.62 11.444-5.695 17.09-3.223Z"/><path fill="#3770a1" d="M2063.668-1910.717h3.541v-11.5h-12.128v3.358h8.587Z"/><path d="M2063.668-1910.717h3.541v-11.5h-12.128v3.358h8.587Z"/><path fill="#3570a0" d="M2061.983-1919.036a9.167 9.167 0 1 1-7.422-15.163v-3.337a12.456 12.456 0 0 0-8.34 3.651c-4.88 4.882-4.88 12.796 0 17.678 4.882 4.882 12.797 4.882 17.678 0 .86-.86 1.569-1.814 2.126-2.829Z"/><path d="M2061.983-1919.036a9.167 9.167 0 1 1-7.422-15.163v-3.337a12.456 12.456 0 0 0-8.34 3.651c-4.88 4.882-4.88 12.796 0 17.678 4.882 4.882 12.797 4.882 17.678 0 .86-.86 1.569-1.814 2.126-2.829Z"/><path fill="#efb54f" d="M2075.754-1938.947a25.128 25.128 0 0 0-3.076-3.73c-9.764-9.764-25.592-9.764-35.356 0-7.758 7.758-9.351 19.346-4.78 28.678l2.896-1.672c-3.84-8.051-2.426-17.982 4.241-24.65 8.462-8.461 22.18-8.461 30.642 0 .953.954 1.799 1.974 2.537 3.045Z"/><path d="M2075.754-1938.947a25.128 25.128 0 0 0-3.076-3.73c-9.764-9.764-25.592-9.764-35.356 0-7.758 7.758-9.351 19.346-4.78 28.678l2.896-1.672c-3.84-8.051-2.426-17.982 4.241-24.65 8.462-8.461 22.18-8.461 30.642 0 .953.954 1.799 1.974 2.537 3.045Z"/></g></svg>