<svg xmlns="http://www.w3.org/2000/svg" width="103" height="102.804" viewBox="674.5 -409.5 103 102.804"><g fill="none"><path fill="#fff" d="M760-332.925h-68c-8.837 0-16-7.164-16-16V-392c0-8.837 7.163-16 16-16h68c8.837 0 16 7.163 16 16v43.075c0 8.836-7.163 16-16 16Z"/><path stroke="#000" stroke-linecap="round" stroke-linejoin="round" stroke-width="3" d="M760-332.925h-68c-8.837 0-16-7.164-16-16V-392c0-8.837 7.163-16 16-16h68c8.837 0 16 7.163 16 16v43.075c0 8.836-7.163 16-16 16 0 0 0 0 0 0Z"/><path fill="#fff" d="M757.502-330.04v-9.605h-63.004v9.604h63.004Z"/><path fill="#518737" d="m747.489-332.685-4.298-4.298-14.161 14.161v-49.811h-6.06v49.811l-14.161-14.161-4.298 4.298L726-311.196Z"/><path stroke="#518737" stroke-linecap="round" stroke-linejoin="round" stroke-width="9" d="m747.489-332.685-4.298-4.298-14.161 14.161v-49.811h-6.06v49.811l-14.161-14.161-4.298 4.298L726-311.196Z"/></g></svg>