<svg xmlns="http://www.w3.org/2000/svg" viewBox="-152.5 -3810.625 25.125 25.125" width="25.125" height="25.125"><g fill="none"><path d="M-131.409-3787.237h-5.655a3.409 3.409 0 0 1-3.408-3.408v-15.946a3.409 3.409 0 0 1 3.408-3.409h5.655a3.409 3.409 0 0 1 3.409 3.409v15.946a3.409 3.409 0 0 1-3.409 3.408Z" fill="#fff"/><path d="M-131.409-3787.237h-5.655a3.409 3.409 0 0 1-3.408-3.408v-15.946a3.409 3.409 0 0 1 3.408-3.409h5.655a3.409 3.409 0 0 1 3.409 3.409v15.946a3.409 3.409 0 0 1-3.409 3.408Z" stroke="#000" stroke-linecap="round" stroke-linejoin="round" stroke-width=".25"/><path d="M-143.218-3790.871v4.871l-8.782-8.525 8.782-8.524v4.993c6.273 0 10.664-1.949 13.8-6.211-1.255 6.089-5.018 12.178-13.8 13.396Z" fill="#9f4c4c"/></g></svg>