<svg xmlns="http://www.w3.org/2000/svg" width="106.243" height="106.243" viewBox="1299.878 -430.743 106.243 106.243"><g fill="none"><path fill="#fff" d="M1392.33-380.08h-7.374v-19.665c0-5.408-4.424-9.833-9.832-9.833h-19.666v-7.375c0-6.784-5.506-12.29-12.29-12.29-6.785 0-12.292 5.506-12.292 12.29v7.375h-19.665c-5.408 0-9.784 4.425-9.784 9.833v18.682h7.326c7.325 0 13.274 5.949 13.274 13.274 0 7.325-5.949 13.274-13.274 13.274h-7.375v18.682c0 5.408 4.425 9.833 9.833 9.833h18.682v-7.375c0-7.325 5.949-13.274 13.274-13.274 7.326 0 13.274 5.95 13.274 13.274V-326h18.683c5.408 0 9.832-4.425 9.832-9.833v-19.665h7.375c6.784 0 12.29-5.506 12.29-12.291s-5.506-12.29-12.29-12.29Z"/><path stroke="#000" stroke-linecap="round" stroke-linejoin="round" stroke-width="3" d="M1392.33-380.08h-7.374v-19.665c0-5.408-4.424-9.833-9.832-9.833h-19.666v-7.375c0-6.784-5.506-12.29-12.29-12.29-6.785 0-12.292 5.506-12.292 12.29v7.375h-19.665c-5.408 0-9.784 4.425-9.784 9.833v18.682h7.326c7.325 0 13.274 5.949 13.274 13.274 0 7.325-5.949 13.274-13.274 13.274h-7.375v18.682c0 5.408 4.425 9.833 9.833 9.833h18.682v-7.375c0-7.325 5.949-13.274 13.274-13.274 7.326 0 13.274 5.95 13.274 13.274V-326h18.683c5.408 0 9.832-4.425 9.832-9.833v-19.665h7.375c6.784 0 12.29-5.506 12.29-12.291s-5.506-12.29-12.29-12.29Z"/><path fill="#5c76a2" d="M1356.467-352.165v9.964l19.165-17.437-19.165-17.437v10.214c-13.689 0-23.271-3.986-30.116-12.704 2.738 12.454 10.951 24.91 30.116 27.4Z"/><path fill="#5c76a2" d="M1342.033-397.365v-9.964l-19.165 17.437 19.165 17.437v-10.213c13.689 0 23.271 3.985 30.116 12.704-2.738-12.455-10.951-24.91-30.116-27.401Z"/></g></svg>