<svg xmlns="http://www.w3.org/2000/svg" width="25" height="25" viewBox="-312.398 -3810.776 25 25"><g fill="none"><path d="M-311.719-3810.276h23.821v24h-23.821z"/><path fill="#fff" d="M-292.14-3795.185h-11.896a3.861 3.861 0 0 1-3.861-3.861v-7.093a3.861 3.861 0 0 1 3.86-3.861h11.896a3.861 3.861 0 0 1 3.861 3.861v7.093a3.861 3.861 0 0 1-3.86 3.861Z"/><path stroke="#000" stroke-linecap="round" stroke-linejoin="round" stroke-width=".25" d="M-292.14-3795.185h-11.896a3.861 3.861 0 0 1-3.861-3.861v-7.093a3.861 3.861 0 0 1 3.86-3.861h11.896a3.861 3.861 0 0 1 3.861 3.861v7.093a3.861 3.861 0 0 1-3.86 3.861s0 0 0 0Z"/><path fill="#fff" d="M-296.141-3790.485h-11.896a3.86 3.86 0 0 1-3.86-3.86v-7.094a3.86 3.86 0 0 1 3.86-3.86h11.896a3.86 3.86 0 0 1 3.86 3.86v7.093a3.86 3.86 0 0 1-3.86 3.861Z"/><path stroke="#000" stroke-linecap="round" stroke-linejoin="round" stroke-width=".25" d="M-296.141-3790.485h-11.896a3.86 3.86 0 0 1-3.86-3.86v-7.094a3.86 3.86 0 0 1 3.86-3.86h11.896a3.86 3.86 0 0 1 3.86 3.86v7.093a3.86 3.86 0 0 1-3.86 3.861s0 0 0 0Z"/><path fill="#fff" d="M-310.213-3792.6v1.162c0 .388 0 .582.318.814.318.194 1.112.388 1.906.466.953.077 1.747.077 3.335.077h4.764c1.588 0 2.382 0 3.335-.077.794-.078 1.588-.272 1.906-.466.317-.232.317-.426.317-.814v-1.162c0-.388 0-.582-.317-.814-.318-.194-1.112-.388-1.906-.465-.953-.078-1.747-.078-3.335-.078h-4.764c-1.588 0-2.382 0-3.335.077-.794.078-1.588.272-1.906.466-.318.232-.318.426-.318.814m0 0"/><path fill="#518737" d="m-297.25-3792.085-1.02-1.034-3.408 3.36.084-11.902-1.448-.01-.084 11.902-3.36-3.408-1.034 1.02 5.099 5.171Z"/><path stroke="#518737" stroke-linecap="round" stroke-linejoin="round" d="m-297.25-3792.085-1.02-1.034-3.408 3.36.084-11.902-1.448-.01-.084 11.902-3.36-3.408-1.034 1.02 5.099 5.171Z"/></g></svg>