<svg xmlns="http://www.w3.org/2000/svg" width="114.155" height="114.241" viewBox="1168.5 -931.5 114.155 114.241"><g fill="none"><path fill="#fff" d="M1186-823.069h26.545c8.837 0 16-7.163 16-16V-914c0-8.837-7.163-16-16-16H1186c-8.837 0-16 7.163-16 16v74.931c0 8.837 7.163 16 16 16Z"/><path stroke="#000" stroke-linecap="round" stroke-linejoin="round" stroke-width="3" d="M1186-823.069h26.545c8.837 0 16-7.163 16-16V-914c0-8.837-7.163-16-16-16H1186c-8.837 0-16 7.163-16 16v74.931c0 8.837 7.163 16 16 16Z"/><path fill="#518737" d="M1241.434-840.141v22.882l41.222-40.044-41.222-40.045v23.455c-29.445 0-50.056-9.153-64.778-29.176 5.889 28.604 23.555 57.207 64.778 62.928Z"/></g></svg>