<svg xmlns="http://www.w3.org/2000/svg" width="25" height="25" viewBox="-112.5 -3810.51 25 25"><g fill="none"><path fill="#fff" d="M-91.409-3787.246h-5.655a3.409 3.409 0 0 1-3.408-3.409v-15.946a3.409 3.409 0 0 1 3.408-3.409h5.655A3.409 3.409 0 0 1-88-3806.6v15.946a3.409 3.409 0 0 1-3.409 3.409Z"/><path stroke="#000" stroke-linecap="round" stroke-linejoin="round" stroke-width=".25" d="M-91.409-3787.246h-5.655a3.409 3.409 0 0 1-3.408-3.409v-15.946a3.409 3.409 0 0 1 3.408-3.409h5.655A3.409 3.409 0 0 1-88-3806.6v15.946a3.409 3.409 0 0 1-3.409 3.409Z"/><path fill="#9f4c4c" d="M-103.218-3790.881v4.871l-8.782-8.524 8.782-8.525v4.993c6.273 0 10.664-1.948 13.8-6.21-1.255 6.088-5.018 12.177-13.8 13.395Z"/><path d="M-112-3810.01h24v24h-24z"/></g></svg>