<svg xmlns="http://www.w3.org/2000/svg" width="25" height="25" viewBox="-392.5 -3810.5 25 25"><g fill="none"><path fill="#fff" d="M-371.715-3786h-15.79a3.715 3.715 0 0 1-3.716-3.715v-9.958a3.715 3.715 0 0 1 3.716-3.716h15.79a3.715 3.715 0 0 1 3.715 3.716v9.958a3.715 3.715 0 0 1-3.715 3.715Z"/><path stroke="#000" stroke-linecap="round" stroke-linejoin="round" stroke-width=".25" d="M-371.715-3786h-15.79a3.715 3.715 0 0 1-3.716-3.715v-9.958a3.715 3.715 0 0 1 3.716-3.716h15.79a3.715 3.715 0 0 1 3.715 3.716v9.958a3.715 3.715 0 0 1-3.715 3.715s0 0 0 0Z"/><path fill="#fff" d="M-374.33-3799.632v-3.898h-15.15v3.898h15.15Z"/><path fill="#9f4c4c" d="M-383.662-3805.676V-3810l-8.338 7.567 8.338 7.568v-4.433c5.956 0 10.125 1.73 13.103 5.513-1.19-5.405-4.764-10.81-13.103-11.891Z"/><path d="M-392-3810h24v24h-24z"/></g></svg>