<svg xmlns="http://www.w3.org/2000/svg" viewBox="-542.09 -3813.122 25 25" width="25" height="25"><g fill="none"><path d="M-537.75-3812.622h16.32a3.84 3.84 0 0 1 3.84 3.84v16.32a3.84 3.84 0 0 1-3.84 3.84h-16.32a3.84 3.84 0 0 1-3.84-3.84v-16.32a3.84 3.84 0 0 1 3.84-3.84Z" fill="#fff"/><path d="M-537.75-3812.622h16.32a3.84 3.84 0 0 1 3.84 3.84v16.32a3.84 3.84 0 0 1-3.84 3.84h-16.32a3.84 3.84 0 0 1-3.84-3.84v-16.32a3.84 3.84 0 0 1 3.84-3.84Z" stroke="#000" stroke-linecap="round" stroke-linejoin="round" stroke-width=".25"/><path d="M-523.842-3803.906h-11.496a2.46 2.46 0 0 0-2.464 2.463v4.927h3.285v3.285h9.854v-3.285h3.284v-4.927a2.46 2.46 0 0 0-2.463-2.463Zm-2.464 9.032h-6.569v-4.105h6.57v4.105Zm2.464-5.748a.824.824 0 0 1-.821-.821c0-.451.37-.821.82-.821.452 0 .822.37.822.821 0 .452-.37.821-.821.821Zm-.821-7.39h-9.854v3.285h9.854v-3.285Z" fill="#5c76a2"/></g></svg>