<svg xmlns="http://www.w3.org/2000/svg" viewBox="-382.09 -3813.122 25 25.372" width="25" height="25.372"><g fill="none"><path d="M-361.43-3794.48h-16.32a3.84 3.84 0 0 1-3.84-3.84v-10.462a3.84 3.84 0 0 1 3.84-3.84h16.32a3.84 3.84 0 0 1 3.84 3.84v10.462a3.84 3.84 0 0 1-3.84 3.84Z" fill="#fff"/><path d="M-361.43-3794.48h-16.32a3.84 3.84 0 0 1-3.84-3.84v-10.462a3.84 3.84 0 0 1 3.84-3.84h16.32a3.84 3.84 0 0 1 3.84 3.84v10.462a3.84 3.84 0 0 1-3.84 3.84s0 0 0 0Z" stroke="#000" stroke-linecap="round" stroke-linejoin="round" stroke-width=".25"/><path d="M-362.03-3794.309v-2.321h-15.12v2.321h15.12Z" fill="#fff"/><path d="m-364.426-3793.788-1.033-1.033-3.405 3.402.005-11.973h-1.456l-.006 11.972-3.402-3.405-1.034 1.032 5.163 5.168Z" fill="#518737"/><path d="m-364.426-3793.788-1.033-1.033-3.405 3.402.005-11.973h-1.456l-.006 11.972-3.402-3.405-1.034 1.032 5.163 5.168Z" stroke="#518737" stroke-linecap="round" stroke-linejoin="round"/></g></svg>