<svg xmlns="http://www.w3.org/2000/svg" viewBox="-632.625 -3810.625 25.25 25.25" width="25.25" height="25.25"><g fill="none"><path d="M-611.84-3810h-16.32a3.84 3.84 0 0 0-3.84 3.84v16.32a3.84 3.84 0 0 0 3.84 3.84h16.32a3.84 3.84 0 0 0 3.84-3.84v-16.32a3.84 3.84 0 0 0-3.84-3.84Z" fill="#fff"/><path d="M-611.84-3810h-16.32a3.84 3.84 0 0 0-3.84 3.84v16.32a3.84 3.84 0 0 0 3.84 3.84h16.32a3.84 3.84 0 0 0 3.84-3.84v-16.32a3.84 3.84 0 0 0-3.84-3.84Z" stroke="#000" stroke-linecap="round" stroke-linejoin="round" stroke-width=".25"/><path d="M-613.45-3797.136c.035-.282.062-.564.062-.864 0-.3-.027-.582-.062-.864l1.86-1.454a.445.445 0 0 0 .105-.564l-1.762-3.049c-.106-.194-.344-.264-.538-.194l-2.195.881a6.428 6.428 0 0 0-1.489-.863l-.335-2.336a.43.43 0 0 0-.432-.37h-3.525a.43.43 0 0 0-.431.37l-.335 2.336a6.76 6.76 0 0 0-1.49.863l-2.194-.881a.43.43 0 0 0-.538.194l-1.762 3.05a.435.435 0 0 0 .106.563l1.86 1.454a6.996 6.996 0 0 0-.063.864c0 .291.027.582.062.864l-1.86 1.454a.445.445 0 0 0-.105.564l1.762 3.049a.443.443 0 0 0 .538.194l2.194-.881a6.43 6.43 0 0 0 1.49.863l.335 2.336a.43.43 0 0 0 .431.37h3.525a.43.43 0 0 0 .432-.37l.335-2.336a6.759 6.759 0 0 0 1.49-.863l2.194.881a.43.43 0 0 0 .538-.194l1.762-3.05a.445.445 0 0 0-.106-.563l-1.86-1.454Zm-6.548 2.22a3.088 3.088 0 0 1-3.084-3.084 3.088 3.088 0 0 1 3.084-3.084c1.7 0 3.084 1.383 3.084 3.084a3.088 3.088 0 0 1-3.084 3.084Z" fill="#5c76a2"/></g></svg>