<svg xmlns="http://www.w3.org/2000/svg" viewBox="1180.5 -433.5 106.243 106.243" width="106.243" height="106.243"><g fill="none"><path d="M1272.953-382.836h-7.375v-19.666c0-5.408-4.425-9.833-9.833-9.833h-19.665v-7.374c0-6.785-5.506-12.291-12.291-12.291-6.784 0-12.29 5.506-12.29 12.29v7.375h-19.666c-5.408 0-9.784 4.425-9.784 9.833v18.682h7.325c7.326 0 13.275 5.95 13.275 13.274 0 7.326-5.95 13.275-13.274 13.275H1182v18.682c0 5.408 4.425 9.832 9.833 9.832h18.682v-7.374c0-7.325 5.949-13.274 13.274-13.274 7.325 0 13.274 5.949 13.274 13.274v7.374h18.682c5.408 0 9.833-4.424 9.833-9.832v-19.666h7.375c6.784 0 12.29-5.506 12.29-12.29 0-6.785-5.506-12.291-12.29-12.291Z" fill="#fff"/><path d="M1272.953-382.836h-7.375v-19.666c0-5.408-4.425-9.833-9.833-9.833h-19.665v-7.374c0-6.785-5.506-12.291-12.291-12.291-6.784 0-12.29 5.506-12.29 12.29v7.375h-19.666c-5.408 0-9.784 4.425-9.784 9.833v18.682h7.325c7.326 0 13.275 5.95 13.275 13.274 0 7.326-5.95 13.275-13.274 13.275H1182v18.682c0 5.408 4.425 9.832 9.833 9.832h18.682v-7.374c0-7.325 5.949-13.274 13.274-13.274 7.325 0 13.274 5.949 13.274 13.274v7.374h18.682c5.408 0 9.833-4.424 9.833-9.832v-19.666h7.375c6.784 0 12.29-5.506 12.29-12.29 0-6.785-5.506-12.291-12.29-12.291Z" stroke="#000" stroke-linecap="round" stroke-linejoin="round" stroke-width="3"/><path d="M1248.988-377.896h-12.893a2 2 0 0 0-2 2v10.893a2 2 0 0 1-2 2h-.964a2 2 0 0 1-2-2v-10.893a2 2 0 0 0-2-2h-10.893a2 2 0 0 1-2-2v-.964a2 2 0 0 1 2-2h10.893a2 2 0 0 0 2-2v-10.893a2 2 0 0 1 2-2h.964a2 2 0 0 1 2 2v10.893a2 2 0 0 0 2 2h10.893a2 2 0 0 1 2 2v2.964Z" fill="#65727e"/><path d="M1248.988-377.896h-12.893a2 2 0 0 0-2 2v10.893a2 2 0 0 1-2 2h-.964a2 2 0 0 1-2-2v-10.893a2 2 0 0 0-2-2h-10.893a2 2 0 0 1-2-2v-.964a2 2 0 0 1 2-2h10.893a2 2 0 0 0 2-2v-10.893a2 2 0 0 1 2-2h.964a2 2 0 0 1 2 2v10.893a2 2 0 0 0 2 2h10.893a2 2 0 0 1 2 2v2.964Z" stroke="#5c76a2" stroke-linecap="round" stroke-linejoin="round" stroke-width="8"/></g></svg>