<svg xmlns="http://www.w3.org/2000/svg" viewBox="-352.625 -3810.625 25.25 25.615" width="25.25" height="25.615"><g fill="none"><path d="M-331.861-3795.185h-12.043a3.861 3.861 0 0 1-3.86-3.861v-7.093a3.861 3.861 0 0 1 3.86-3.861h12.043a3.861 3.861 0 0 1 3.861 3.861v7.093a3.861 3.861 0 0 1-3.861 3.861Z" fill="#fff"/><path d="M-331.861-3795.185h-12.043a3.861 3.861 0 0 1-3.86-3.861v-7.093a3.861 3.861 0 0 1 3.86-3.861h12.043a3.861 3.861 0 0 1 3.861 3.861v7.093a3.861 3.861 0 0 1-3.861 3.861s0 0 0 0Z" stroke="#000" stroke-linecap="round" stroke-linejoin="round" stroke-width=".25"/><path d="M-336.096-3790.485h-12.043a3.86 3.86 0 0 1-3.861-3.86v-7.094a3.86 3.86 0 0 1 3.861-3.86h12.043a3.86 3.86 0 0 1 3.86 3.86v7.093a3.86 3.86 0 0 1-3.86 3.861Z" fill="#fff"/><path d="M-336.096-3790.485h-12.043a3.86 3.86 0 0 1-3.861-3.86v-7.094a3.86 3.86 0 0 1 3.861-3.86h12.043a3.86 3.86 0 0 1 3.86 3.86v7.093a3.86 3.86 0 0 1-3.86 3.861s0 0 0 0Z" stroke="#000" stroke-linecap="round" stroke-linejoin="round" stroke-width=".25"/><path d="M-350.2-3792.6v1.162c0 .388 0 .582.32.814.32.194 1.12.388 1.92.466.96.077 1.76.077 3.36.077h4.8c1.6 0 2.4 0 3.36-.077.8-.078 1.6-.272 1.92-.466.32-.232.32-.426.32-.814v-1.162c0-.388 0-.582-.32-.814-.32-.194-1.12-.388-1.92-.465-.96-.078-1.76-.078-3.36-.078h-4.8c-1.6 0-2.4 0-3.36.077-.8.078-1.6.272-1.92.466-.32.232-.32.426-.32.814m0 0" fill="#fff"/><path d="m-337.128-3791.174-1.033-1.036-3.412 3.404.015-11.987-1.458-.001-.015 11.986-3.403-3.412-1.036 1.033 5.165 5.177Z" fill="#518737"/><path d="m-337.128-3791.174-1.033-1.036-3.412 3.404.015-11.987-1.458-.001-.015 11.986-3.403-3.412-1.036 1.033 5.165 5.177Z" stroke="#518737" stroke-linecap="round" stroke-linejoin="round"/></g></svg>