<svg xmlns="http://www.w3.org/2000/svg" viewBox="-302.09 -3813.122 25 25.365" width="25" height="25.365"><g fill="none"><path d="M-293.76-3796.301v2.323h8.34v-2.323h-8.34Z" fill="#fff"/><path d="M-281.43-3794.462h-16.32a3.84 3.84 0 0 1-3.84-3.84v-10.48a3.84 3.84 0 0 1 3.84-3.84h16.32a3.84 3.84 0 0 1 3.84 3.84v10.48a3.84 3.84 0 0 1-3.84 3.84Z" fill="#fff"/><path d="M-281.43-3794.462h-16.32a3.84 3.84 0 0 1-3.84-3.84v-10.48a3.84 3.84 0 0 1 3.84-3.84h16.32a3.84 3.84 0 0 1 3.84 3.84v10.48a3.84 3.84 0 0 1-3.84 3.84s0 0 0 0Z" stroke="#000" stroke-linecap="round" stroke-linejoin="round" stroke-width=".25"/><path d="M-294.057-3810.423a1.61 1.61 0 0 0-1.599 1.612c0 .886.72 1.611 1.599 1.611a1.61 1.61 0 0 0 1.599-1.611 1.61 1.61 0 0 0-1.6-1.612Zm9.594 0a1.61 1.61 0 0 0-1.6 1.612c0 .886.72 1.611 1.6 1.611a1.61 1.61 0 0 0 1.598-1.611 1.61 1.61 0 0 0-1.598-1.612Zm-4.797 0a1.61 1.61 0 0 0-1.6 1.612c0 .886.72 1.611 1.6 1.611a1.61 1.61 0 0 0 1.599-1.611 1.61 1.61 0 0 0-1.6-1.612Z" fill="#518737"/><path d="M-294.057-3810.423a1.61 1.61 0 0 0-1.599 1.612c0 .886.72 1.611 1.599 1.611a1.61 1.61 0 0 0 1.599-1.611 1.61 1.61 0 0 0-1.6-1.612Zm9.594 0a1.61 1.61 0 0 0-1.6 1.612c0 .886.72 1.611 1.6 1.611a1.61 1.61 0 0 0 1.598-1.611 1.61 1.61 0 0 0-1.598-1.612Zm-4.797 0a1.61 1.61 0 0 0-1.6 1.612c0 .886.72 1.611 1.6 1.611a1.61 1.61 0 0 0 1.599-1.611 1.61 1.61 0 0 0-1.6-1.612Z"/><path d="M-282.03-3794.169v-2.323h-15.12v2.323h15.12Z" fill="#fff"/><path d="m-284.427-3793.791-1.032-1.035-3.409 3.4.015-11.975-1.457-.001-.015 11.975-3.4-3.409-1.035 1.032 5.16 5.173Z" fill="#518737"/><path d="m-284.427-3793.791-1.032-1.035-3.409 3.4.015-11.975-1.457-.001-.015 11.975-3.4-3.409-1.035 1.032 5.16 5.173Z" stroke="#518737" stroke-linecap="round" stroke-linejoin="round"/></g></svg>