<svg xmlns="http://www.w3.org/2000/svg" viewBox="-662.09 -3813.122 25 25" width="25" height="25"><g fill="none"><path d="M-640.447-3801.193h-1.715v-4.572a2.292 2.292 0 0 0-2.285-2.285h-4.572v-1.715a2.858 2.858 0 0 0-5.714 0v1.715h-4.572a2.283 2.283 0 0 0-2.274 2.285v4.343h1.703a3.087 3.087 0 0 1 3.086 3.086 3.087 3.087 0 0 1-3.086 3.086h-1.714v4.343a2.292 2.292 0 0 0 2.285 2.285h4.343v-1.714a3.087 3.087 0 0 1 3.086-3.086 3.087 3.087 0 0 1 3.086 3.086v1.714h4.343a2.292 2.292 0 0 0 2.285-2.285v-4.572h1.715a2.858 2.858 0 0 0 0-5.714Z" fill="#fff"/><path d="M-640.447-3801.193h-1.715v-4.572a2.292 2.292 0 0 0-2.285-2.285h-4.572v-1.715a2.858 2.858 0 0 0-5.714 0v1.715h-4.572a2.283 2.283 0 0 0-2.274 2.285v4.343h1.703a3.087 3.087 0 0 1 3.086 3.086 3.087 3.087 0 0 1-3.086 3.086h-1.714v4.343a2.292 2.292 0 0 0 2.285 2.285h4.343v-1.714a3.087 3.087 0 0 1 3.086-3.086 3.087 3.087 0 0 1 3.086 3.086v1.714h4.343a2.292 2.292 0 0 0 2.285-2.285v-4.572h1.715a2.858 2.858 0 0 0 0-5.714Z" stroke="#000" stroke-linecap="round" stroke-linejoin="round" stroke-width=".25"/><path d="M-646.018-3800.045h-2.997a.465.465 0 0 0-.465.465v2.532a.465.465 0 0 1-.465.465h-.224a.465.465 0 0 1-.465-.465v-2.532a.465.465 0 0 0-.465-.465h-2.532a.465.465 0 0 1-.465-.465v-.224c0-.257.208-.465.465-.465h2.532a.465.465 0 0 0 .465-.465v-2.532c0-.257.208-.465.465-.465h.224c.257 0 .465.208.465.465v2.532c0 .257.208.465.465.465h2.532c.257 0 .465.208.465.465v.69Z" fill="#65727e"/><path d="M-646.018-3800.045h-2.997a.465.465 0 0 0-.465.465v2.532a.465.465 0 0 1-.465.465h-.224a.465.465 0 0 1-.465-.465v-2.532a.465.465 0 0 0-.465-.465h-2.532a.465.465 0 0 1-.465-.465v-.224c0-.257.208-.465.465-.465h2.532a.465.465 0 0 0 .465-.465v-2.532c0-.257.208-.465.465-.465h.224c.257 0 .465.208.465.465v2.532c0 .257.208.465.465.465h2.532c.257 0 .465.208.465.465v.69Z" stroke="#5c76a2" stroke-linecap="round" stroke-linejoin="round" stroke-width="1.86"/></g></svg>