<svg xmlns="http://www.w3.org/2000/svg" viewBox="-141.965 -3813.122 24.875 24.875" width="24.875" height="24.875"><g fill="none"><path d="M-120.999-3789.858h-5.655a3.409 3.409 0 0 1-3.409-3.409v-15.946a3.409 3.409 0 0 1 3.409-3.409H-121a3.409 3.409 0 0 1 3.409 3.409v15.946a3.409 3.409 0 0 1-3.409 3.409Z" fill="#fff"/><path d="M-120.999-3789.858h-5.655a3.409 3.409 0 0 1-3.409-3.409v-15.946a3.409 3.409 0 0 1 3.409-3.409H-121a3.409 3.409 0 0 1 3.409 3.409v15.946a3.409 3.409 0 0 1-3.409 3.409Z" stroke="#000" stroke-linecap="round" stroke-linejoin="round" stroke-width=".25"/><path d="M-132.808-3793.493v4.871l-8.782-8.524 8.782-8.525v4.993c6.272 0 10.663-1.948 13.8-6.21-1.255 6.088-5.019 12.177-13.8 13.395Z" fill="#9f4c4c"/></g></svg>