<svg xmlns="http://www.w3.org/2000/svg" viewBox="-552.625 -3810.625 25.25 25.25" width="25.25" height="25.25"><g fill="none"><path d="M-548.16-3810h16.32a3.84 3.84 0 0 1 3.84 3.84v16.32a3.84 3.84 0 0 1-3.84 3.84h-16.32a3.84 3.84 0 0 1-3.84-3.84v-16.32a3.84 3.84 0 0 1 3.84-3.84Z" fill="#fff"/><path d="M-548.16-3810h16.32a3.84 3.84 0 0 1 3.84 3.84v16.32a3.84 3.84 0 0 1-3.84 3.84h-16.32a3.84 3.84 0 0 1-3.84-3.84v-16.32a3.84 3.84 0 0 1 3.84-3.84Z" stroke="#000" stroke-linecap="round" stroke-linejoin="round" stroke-width=".25"/><path d="M-534.252-3801.285h-11.496a2.46 2.46 0 0 0-2.463 2.464v4.927h3.284v3.284h9.854v-3.284h3.284v-4.927a2.46 2.46 0 0 0-2.463-2.464Zm-2.463 9.033h-6.57v-4.106h6.57v4.106Zm2.463-5.748a.823.823 0 0 1-.821-.821c0-.452.37-.821.821-.821.452 0 .821.369.821.821 0 .452-.37.821-.821.821Zm-.821-7.39h-9.854v3.284h9.854v-3.284Z" fill="#5c76a2"/></g></svg>