<svg xmlns="http://www.w3.org/2000/svg" viewBox="-102.09 -3813.122 25 25" width="25" height="25"><g fill="none"><path d="M-80.447-3801.193h-1.715v-4.572a2.292 2.292 0 0 0-2.285-2.285h-4.572v-1.715a2.858 2.858 0 0 0-5.714 0v1.715h-4.572a2.283 2.283 0 0 0-2.274 2.285v4.343h1.703a3.087 3.087 0 0 1 3.086 3.086 3.087 3.087 0 0 1-3.086 3.086h-1.714v4.343a2.292 2.292 0 0 0 2.285 2.285h4.343v-1.714a3.087 3.087 0 0 1 3.086-3.086 3.087 3.087 0 0 1 3.086 3.086v1.714h4.343a2.292 2.292 0 0 0 2.285-2.285v-4.572h1.715a2.858 2.858 0 0 0 0-5.714Z" fill="#fff"/><path d="M-80.447-3801.193h-1.715v-4.572a2.292 2.292 0 0 0-2.285-2.285h-4.572v-1.715a2.858 2.858 0 0 0-5.714 0v1.715h-4.572a2.283 2.283 0 0 0-2.274 2.285v4.343h1.703a3.087 3.087 0 0 1 3.086 3.086 3.087 3.087 0 0 1-3.086 3.086h-1.714v4.343a2.292 2.292 0 0 0 2.285 2.285h4.343v-1.714a3.087 3.087 0 0 1 3.086-3.086 3.087 3.087 0 0 1 3.086 3.086v1.714h4.343a2.292 2.292 0 0 0 2.285-2.285v-4.572h1.715a2.858 2.858 0 0 0 0-5.714Z" stroke="#000" stroke-linecap="round" stroke-linejoin="round" stroke-width=".25"/><path d="M-88.784-3794.704v2.316l4.455-4.053-4.455-4.053v2.374c-3.183 0-5.41-.927-7.001-2.954.636 2.896 2.546 5.791 7 6.37Z" fill="#5c76a2"/><path d="M-92.14-3805.211v-2.317l-4.455 4.054 4.455 4.053v-2.374c3.182 0 5.41.927 7.001 2.953-.636-2.895-2.546-5.79-7-6.37Z" fill="#5c76a2"/></g></svg>