<svg xmlns="http://www.w3.org/2000/svg" viewBox="-822.09 -3812.726 25 25" width="25" height="25"><g fill="none"><path d="M-817.75-3812.226h16.32a3.84 3.84 0 0 1 3.84 3.84v16.32a3.84 3.84 0 0 1-3.84 3.84h-16.32a3.84 3.84 0 0 1-3.84-3.84v-16.32a3.84 3.84 0 0 1 3.84-3.84Z" fill="#fff"/><path d="M-817.75-3812.226h16.32a3.84 3.84 0 0 1 3.84 3.84v16.32a3.84 3.84 0 0 1-3.84 3.84h-16.32a3.84 3.84 0 0 1-3.84-3.84v-16.32a3.84 3.84 0 0 1 3.84-3.84Z" stroke="#000" stroke-linecap="round" stroke-linejoin="round" stroke-width=".25"/><path d="M-811.408-3803.891c.174-.378.273-.794.273-1.24a3.023 3.023 0 0 0-3.025-3.024 3.023 3.023 0 1 0 0 6.048c.446 0 .862-.098 1.24-.272l1.784 1.784-1.784 1.785a2.946 2.946 0 0 0-1.24-.273 3.023 3.023 0 1 0 0 6.049 3.023 3.023 0 0 0 3.024-3.024c0-.447-.098-.862-.272-1.24l1.784-1.785 5.293 5.293h2.268v-.756l-9.345-9.345Zm-2.752.272a1.512 1.512 0 1 1 0-3.023 1.512 1.512 0 0 1 0 3.023Zm0 9.073a1.512 1.512 0 1 1 0-3.023 1.512 1.512 0 0 1 0 3.023Zm4.536-5.67a.374.374 0 0 1-.377-.379c0-.211.166-.378.377-.378.212 0 .379.167.379.378a.374.374 0 0 1-.379.378Zm5.293-7.183-4.536 4.536 1.512 1.512 5.292-5.292v-.756Z" fill="#a7967d"/></g></svg>