<svg xmlns="http://www.w3.org/2000/svg" viewBox="-312.625 -3810.625 25.25 25.615" width="25.25" height="25.615"><g fill="none"><path d="M-304.17-3793.68v2.324h8.34v-2.324h-8.34Z" fill="#fff"/><path d="M-291.84-3791.84h-16.32a3.84 3.84 0 0 1-3.84-3.84v-10.48a3.84 3.84 0 0 1 3.84-3.84h16.32a3.84 3.84 0 0 1 3.84 3.84v10.48a3.84 3.84 0 0 1-3.84 3.84Z" fill="#fff"/><path d="M-291.84-3791.84h-16.32a3.84 3.84 0 0 1-3.84-3.84v-10.48a3.84 3.84 0 0 1 3.84-3.84h16.32a3.84 3.84 0 0 1 3.84 3.84v10.48a3.84 3.84 0 0 1-3.84 3.84s0 0 0 0Z" stroke="#000" stroke-linecap="round" stroke-linejoin="round" stroke-width=".25"/><path d="M-304.467-3807.801a1.61 1.61 0 0 0-1.599 1.612c0 .886.72 1.611 1.6 1.611a1.61 1.61 0 0 0 1.598-1.611 1.61 1.61 0 0 0-1.599-1.612Zm9.594 0a1.61 1.61 0 0 0-1.6 1.612c0 .886.72 1.611 1.6 1.611a1.61 1.61 0 0 0 1.599-1.611 1.61 1.61 0 0 0-1.6-1.612Zm-4.797 0a1.61 1.61 0 0 0-1.599 1.612c0 .886.72 1.611 1.599 1.611a1.61 1.61 0 0 0 1.599-1.611 1.61 1.61 0 0 0-1.599-1.612Z" fill="#518737"/><path d="M-304.467-3807.801a1.61 1.61 0 0 0-1.599 1.612c0 .886.72 1.611 1.6 1.611a1.61 1.61 0 0 0 1.598-1.611 1.61 1.61 0 0 0-1.599-1.612Zm9.594 0a1.61 1.61 0 0 0-1.6 1.612c0 .886.72 1.611 1.6 1.611a1.61 1.61 0 0 0 1.599-1.611 1.61 1.61 0 0 0-1.6-1.612Zm-4.797 0a1.61 1.61 0 0 0-1.599 1.612c0 .886.72 1.611 1.599 1.611a1.61 1.61 0 0 0 1.599-1.611 1.61 1.61 0 0 0-1.599-1.612Z"/><path d="M-292.44-3791.548v-2.323h-15.12v2.323h15.12Z" fill="#fff"/><path d="m-294.837-3791.17-1.032-1.034-3.409 3.4.015-11.975-1.457-.002-.015 11.976-3.4-3.409-1.034 1.032 5.16 5.172Z" fill="#518737"/><path d="m-294.837-3791.17-1.032-1.034-3.409 3.4.015-11.975-1.457-.002-.015 11.976-3.4-3.409-1.034 1.032 5.16 5.172Z" stroke="#518737" stroke-linecap="round" stroke-linejoin="round"/></g></svg>