<svg xmlns="http://www.w3.org/2000/svg" viewBox="-582.09 -3813.122 25 25" width="25" height="25"><g fill="none"><path d="M-577.75-3812.622h16.32a3.84 3.84 0 0 1 3.84 3.84v16.32a3.84 3.84 0 0 1-3.84 3.84h-16.32a3.84 3.84 0 0 1-3.84-3.84v-16.32a3.84 3.84 0 0 1 3.84-3.84Z" fill="#fff"/><path d="M-577.75-3812.622h16.32a3.84 3.84 0 0 1 3.84 3.84v16.32a3.84 3.84 0 0 1-3.84 3.84h-16.32a3.84 3.84 0 0 1-3.84-3.84v-16.32a3.84 3.84 0 0 1 3.84-3.84Z" stroke="#000" stroke-linecap="round" stroke-linejoin="round" stroke-width=".25"/><path d="M-566.2-3808.908h-9.04c-.829 0-1.507.678-1.507 1.507v10.546h1.507v-10.546h9.04v-1.507Zm2.26 3.013h-8.287c-.829 0-1.506.678-1.506 1.507v10.546c0 .829.677 1.507 1.506 1.507h8.286c.83 0 1.507-.678 1.507-1.507v-10.546c0-.829-.678-1.507-1.507-1.507Zm0 12.053h-8.287v-10.546h8.286v10.546Z" fill="#a7967d"/></g></svg>