<svg xmlns="http://www.w3.org/2000/svg" viewBox="-622.09 -3813.122 25 25" width="25" height="25"><g fill="none"><path d="M-601.43-3812.622h-16.32a3.84 3.84 0 0 0-3.84 3.84v16.32a3.84 3.84 0 0 0 3.84 3.84h16.32a3.84 3.84 0 0 0 3.84-3.84v-16.32a3.84 3.84 0 0 0-3.84-3.84Z" fill="#fff"/><path d="M-601.43-3812.622h-16.32a3.84 3.84 0 0 0-3.84 3.84v16.32a3.84 3.84 0 0 0 3.84 3.84h16.32a3.84 3.84 0 0 0 3.84-3.84v-16.32a3.84 3.84 0 0 0-3.84-3.84Z" stroke="#000" stroke-linecap="round" stroke-linejoin="round" stroke-width=".25"/><path d="M-603.04-3799.758a6.87 6.87 0 0 0 .061-.864c0-.3-.026-.581-.061-.863l1.859-1.454a.445.445 0 0 0 .106-.564l-1.763-3.05c-.106-.194-.344-.264-.537-.194l-2.195.882a6.441 6.441 0 0 0-1.49-.864l-.334-2.335a.43.43 0 0 0-.432-.37h-3.525a.43.43 0 0 0-.432.37l-.335 2.335c-.537.22-1.03.52-1.489.864l-2.194-.882a.43.43 0 0 0-.538.194l-1.762 3.05a.434.434 0 0 0 .105.564l1.86 1.454a7 7 0 0 0-.062.863c0 .291.027.582.062.864l-1.86 1.454a.444.444 0 0 0-.105.564l1.762 3.05a.443.443 0 0 0 .538.193l2.194-.881a6.45 6.45 0 0 0 1.49.863l.334 2.336a.43.43 0 0 0 .432.37h3.525a.43.43 0 0 0 .432-.37l.335-2.336a6.784 6.784 0 0 0 1.49-.863l2.194.881a.43.43 0 0 0 .537-.194l1.763-3.049a.444.444 0 0 0-.106-.564l-1.86-1.454Zm-6.548 2.22a3.088 3.088 0 0 1-3.085-3.084c0-1.7 1.384-3.084 3.085-3.084 1.7 0 3.084 1.383 3.084 3.084s-1.384 3.085-3.084 3.085Z" fill="#5c76a2"/></g></svg>