<svg xmlns="http://www.w3.org/2000/svg" viewBox="-502.09 -3813.122 24.875 24.875" width="24.875" height="24.875"><g fill="none"><path d="M-498.182-3789.858h5.656a3.409 3.409 0 0 0 3.408-3.409v-15.946a3.409 3.409 0 0 0-3.409-3.409h-5.655a3.409 3.409 0 0 0-3.408 3.409v15.946a3.409 3.409 0 0 0 3.408 3.409Z" fill="#fff"/><path d="M-498.182-3789.858h5.656a3.409 3.409 0 0 0 3.408-3.409v-15.946a3.409 3.409 0 0 0-3.409-3.409h-5.655a3.409 3.409 0 0 0-3.408 3.409v15.946a3.409 3.409 0 0 0 3.408 3.409Z" stroke="#000" stroke-linecap="round" stroke-linejoin="round" stroke-width=".25"/><path d="M-486.372-3793.493v4.871l8.782-8.524-8.782-8.525v4.993c-6.273 0-10.664-1.948-13.8-6.21 1.254 6.088 5.018 12.177 13.8 13.395Z" fill="#518737"/></g></svg>