<svg xmlns="http://www.w3.org/2000/svg" viewBox="-752.625 -3810.625 25.25 25.25" width="25.25" height="25.25"><g fill="none"><path d="M-730.857-3798.571h-1.714v-4.572a2.292 2.292 0 0 0-2.286-2.286h-4.572v-1.714a2.858 2.858 0 0 0-5.714 0v1.714h-4.571a2.283 2.283 0 0 0-2.275 2.286v4.343h1.703a3.088 3.088 0 0 1 3.086 3.086 3.087 3.087 0 0 1-3.086 3.085H-752v4.343a2.292 2.292 0 0 0 2.286 2.286h4.343v-1.714a3.087 3.087 0 0 1 3.085-3.086 3.088 3.088 0 0 1 3.086 3.086v1.714h4.343a2.292 2.292 0 0 0 2.286-2.286v-4.571h1.714a2.858 2.858 0 0 0 0-5.714Z" fill="#fff"/><path d="M-730.857-3798.571h-1.714v-4.572a2.292 2.292 0 0 0-2.286-2.286h-4.572v-1.714a2.858 2.858 0 0 0-5.714 0v1.714h-4.571a2.283 2.283 0 0 0-2.275 2.286v4.343h1.703a3.088 3.088 0 0 1 3.086 3.086 3.087 3.087 0 0 1-3.086 3.085H-752v4.343a2.292 2.292 0 0 0 2.286 2.286h4.343v-1.714a3.087 3.087 0 0 1 3.085-3.086 3.088 3.088 0 0 1 3.086 3.086v1.714h4.343a2.292 2.292 0 0 0 2.286-2.286v-4.571h1.714a2.858 2.858 0 0 0 0-5.714Z" stroke="#000" stroke-linecap="round" stroke-linejoin="round" stroke-width=".25"/><circle cx="-740.775" cy="-3797.977" r="5.298" fill="#fff"/><path d="M-740.775-3803.276a5.3 5.3 0 0 0-5.298 5.299 5.3 5.3 0 0 0 5.298 5.298 5.3 5.3 0 0 0 5.298-5.298 5.3 5.3 0 0 0-5.298-5.299Zm.53 7.948h-1.06v-3.179h1.06v3.179Zm0-4.239h-1.06v-1.06h1.06v1.06Z" fill="#5c76a2"/></g></svg>