<svg xmlns="http://www.w3.org/2000/svg" viewBox="-112.625 -3810.625 25.25 25.25" width="25.25" height="25.25"><g fill="none"><path d="M-90.857-3798.571h-1.714v-4.572a2.292 2.292 0 0 0-2.286-2.286h-4.572v-1.714a2.858 2.858 0 0 0-5.714 0v1.714h-4.571a2.283 2.283 0 0 0-2.275 2.286v4.343h1.703a3.088 3.088 0 0 1 3.086 3.086 3.087 3.087 0 0 1-3.086 3.085H-112v4.343a2.292 2.292 0 0 0 2.286 2.286h4.343v-1.714a3.088 3.088 0 0 1 3.085-3.086 3.088 3.088 0 0 1 3.086 3.086v1.714h4.343a2.292 2.292 0 0 0 2.286-2.286v-4.571h1.714a2.858 2.858 0 0 0 0-5.714Z" fill="#fff"/><path d="M-90.857-3798.571h-1.714v-4.572a2.292 2.292 0 0 0-2.286-2.286h-4.572v-1.714a2.858 2.858 0 0 0-5.714 0v1.714h-4.571a2.283 2.283 0 0 0-2.275 2.286v4.343h1.703a3.088 3.088 0 0 1 3.086 3.086 3.087 3.087 0 0 1-3.086 3.085H-112v4.343a2.292 2.292 0 0 0 2.286 2.286h4.343v-1.714a3.088 3.088 0 0 1 3.085-3.086 3.088 3.088 0 0 1 3.086 3.086v1.714h4.343a2.292 2.292 0 0 0 2.286-2.286v-4.571h1.714a2.858 2.858 0 0 0 0-5.714Z" stroke="#000" stroke-linecap="round" stroke-linejoin="round" stroke-width=".25"/><path d="M-99.194-3792.082v2.316l4.455-4.053-4.455-4.054v2.374c-3.182 0-5.41-.926-7-2.953.636 2.895 2.545 5.79 7 6.37Z" fill="#5c76a2"/><path d="M-102.55-3802.59v-2.316l-4.454 4.054 4.455 4.053v-2.374c3.182 0 5.41.926 7 2.953-.636-2.895-2.545-5.79-7-6.37Z" fill="#5c76a2"/></g></svg>