<svg xmlns="http://www.w3.org/2000/svg" width="25" height="25" viewBox="-352.5 -3810.5 25 25"><g fill="none"><path d="M-352-3810h24v24h-24z"/><path fill="#fff" d="M-331.84-3791.859h-16.32a3.84 3.84 0 0 1-3.84-3.84v-10.461a3.84 3.84 0 0 1 3.84-3.84h16.32a3.84 3.84 0 0 1 3.84 3.84v10.461a3.84 3.84 0 0 1-3.84 3.84Z"/><path stroke="#000" stroke-linecap="round" stroke-linejoin="round" stroke-width=".25" d="M-331.84-3791.859h-16.32a3.84 3.84 0 0 1-3.84-3.84v-10.461a3.84 3.84 0 0 1 3.84-3.84h16.32a3.84 3.84 0 0 1 3.84 3.84v10.461a3.84 3.84 0 0 1-3.84 3.84s0 0 0 0Z"/><path fill="#fff" d="M-332.44-3791.687v-2.321h-15.12v2.321h15.12Z"/><path fill="#518737" d="m-334.836-3791.986-1.033-1.033-3.405 3.402.005-11.973h-1.456l-.005 11.972-3.403-3.405-1.033 1.033 5.163 5.167Z"/><path stroke="#518737" stroke-linecap="round" stroke-linejoin="round" d="m-334.836-3791.986-1.033-1.033-3.405 3.402.005-11.973h-1.456l-.005 11.972-3.403-3.405-1.033 1.033 5.163 5.167Z"/></g></svg>