<svg xmlns="http://www.w3.org/2000/svg" viewBox="-472.625 -3810.625 25.25 25.25" width="25.25" height="25.25"><g fill="none"><path d="M-460.205-3810h-7.944a3.851 3.851 0 0 0-3.851 3.851v7.898a3.851 3.851 0 0 0 3.851 3.851h7.944a3.851 3.851 0 0 0 3.851-3.851v-7.898a3.851 3.851 0 0 0-3.851-3.851Z" fill="#fff"/><path d="M-460.205-3810h-7.944a3.851 3.851 0 0 0-3.851 3.851v7.898a3.851 3.851 0 0 0 3.851 3.851h7.944a3.851 3.851 0 0 0 3.851-3.851v-7.898a3.851 3.851 0 0 0-3.851-3.851s0 0 0 0Z" stroke="#000" stroke-linecap="round" stroke-linejoin="round" stroke-width=".25"/><path d="M-451.851-3801.6h-7.944a3.851 3.851 0 0 0-3.851 3.851v7.898a3.851 3.851 0 0 0 3.851 3.851h7.944a3.851 3.851 0 0 0 3.851-3.851v-7.898a3.851 3.851 0 0 0-3.851-3.851Z" fill="#fff"/><path d="M-451.851-3801.6h-7.944a3.851 3.851 0 0 0-3.851 3.851v7.898a3.851 3.851 0 0 0 3.851 3.851h7.944a3.851 3.851 0 0 0 3.851-3.851v-7.898a3.851 3.851 0 0 0-3.851-3.851s0 0 0 0Z" stroke="#000" stroke-linecap="round" stroke-linejoin="round" stroke-width=".25"/><path d="M-461.572-3804.942v-2.391l-5.5 4.185 5.5 4.184v-2.45c3.93 0 6.68.956 8.644 3.048-.786-2.989-3.143-5.978-8.644-6.576Z" fill="#9f4c4c"/><path d="M-458.428-3791.29v2.391l5.5-4.185-5.5-4.185v2.451c-3.93 0-6.68-.956-8.644-3.049.786 2.99 3.143 5.979 8.644 6.577Z" fill="#518737"/></g></svg>