<svg xmlns="http://www.w3.org/2000/svg" viewBox="1918.5 -551.5 103 103" width="103" height="103"><g fill="none"><path d="M1936-550h68c8.836 0 16 7.163 16 16v68c0 8.837-7.164 16-16 16h-68c-8.837 0-16-7.163-16-16v-68c0-8.837 7.163-16 16-16Z" fill="#fff"/><path d="M1936-550h68c8.836 0 16 7.163 16 16v68c0 8.837-7.164 16-16 16h-68c-8.837 0-16-7.163-16-16v-68c0-8.837 7.163-16 16-16Z" stroke="#000" stroke-linecap="round" stroke-linejoin="round" stroke-width="3"/><path d="M1984.124-534.526h-37.665c-3.452 0-6.277 2.824-6.277 6.277v43.943h6.277v-43.943h37.665v-6.277Zm9.417 12.555h-34.527c-3.452 0-6.277 2.825-6.277 6.277v43.943c0 3.452 2.825 6.277 6.277 6.277h34.527c3.452 0 6.277-2.825 6.277-6.277v-43.943c0-3.452-2.825-6.277-6.277-6.277Zm0 50.22h-34.527v-43.943h34.527v43.943Z" fill="#a7967d"/></g></svg>