<svg xmlns="http://www.w3.org/2000/svg" viewBox="-912.625 -3810.625 25.25 25.25" width="25.25" height="25.25"><g fill="none"><path d="M-908.16-3810h16.32a3.84 3.84 0 0 1 3.84 3.84v16.32a3.84 3.84 0 0 1-3.84 3.84h-16.32a3.84 3.84 0 0 1-3.84-3.84v-16.32a3.84 3.84 0 0 1 3.84-3.84Z" fill="#fff"/><path d="M-908.16-3810h16.32a3.84 3.84 0 0 1 3.84 3.84v16.32a3.84 3.84 0 0 1-3.84 3.84h-16.32a3.84 3.84 0 0 1-3.84-3.84v-16.32a3.84 3.84 0 0 1 3.84-3.84Z" stroke="#000" stroke-linecap="round" stroke-linejoin="round" stroke-width=".25"/><path d="M-893.212-3804.788a9.6 9.6 0 1 0-13.576 13.577 9.6 9.6 0 0 0 13.576-13.577m-.905.905a8.32 8.32 0 1 1-11.766 11.766 8.32 8.32 0 0 1 11.766-11.766" fill="#efb54f" fill-opacity=".252"/><path d="M-894.909-3803.091a7.2 7.2 0 0 0-10.182 0 7.2 7.2 0 0 0 0 10.182 7.2 7.2 0 0 0 10.182 0 7.2 7.2 0 0 0 0-10.182m-.905.905a5.92 5.92 0 1 1-8.373 8.372 5.92 5.92 0 0 1 8.373-8.372" fill="#d3673a" fill-opacity=".249"/><path d="M-896.606-3801.394a4.8 4.8 0 1 0-6.788 6.789 4.8 4.8 0 0 0 6.788-6.789m-.905.905a3.52 3.52 0 1 1-4.96 4.997 3.52 3.52 0 0 1 4.96-4.997" fill="#3570a0" fill-opacity=".25"/><path d="M-897.132-3804.607a7.202 7.202 0 1 0-5.628 13.259l.5-1.18a5.92 5.92 0 1 1 4.627-10.9Z" fill="#d3673a"/><path d="M-896.672-3792.515h1.36v-4.416h-4.657v1.289h3.298Z" fill="#3770a1"/><path d="M-897.319-3795.71a3.52 3.52 0 1 1-2.85-5.822v-1.282a4.801 4.801 0 0 0-3.202 8.19 4.8 4.8 0 0 0 7.605-1.086Z" fill="#3570a0"/><path d="M-892.03-3803.356a9.6 9.6 0 0 0-14.758-1.432 9.605 9.605 0 0 0-1.836 11.012l1.112-.642a8.32 8.32 0 0 1 14.37-8.296Z" fill="#efb54f"/></g></svg>