<svg xmlns="http://www.w3.org/2000/svg" width="102.706" height="103" viewBox="1054.5 -800.13 102.706 103"><g fill="none"><path fill="#fff" d="M1105-798.63h-33c-8.837 0-16 7.164-16 16v33c0 8.837 7.163 16 16 16h33c8.837 0 16-7.163 16-16v-33c0-8.836-7.163-16-16-16Z"/><path stroke="#000" stroke-linecap="round" stroke-linejoin="round" stroke-width="3" d="M1105-798.63h-33c-8.837 0-16 7.164-16 16v33c0 8.837 7.163 16 16 16h33c8.837 0 16-7.163 16-16v-33c0-8.836-7.163-16-16-16 0 0 0 0 0 0Z"/><path fill="#fff" d="M1139.706-763.63h-33c-8.837 0-16 7.164-16 16v33c0 8.837 7.163 16 16 16h33c8.837 0 16-7.163 16-16v-33c0-8.836-7.163-16-16-16Z"/><path stroke="#000" stroke-linecap="round" stroke-linejoin="round" stroke-width="3" d="M1139.706-763.63h-33c-8.837 0-16 7.164-16 16v33c0 8.837 7.163 16 16 16h33c8.837 0 16-7.163 16-16v-33c0-8.836-7.163-16-16-16 0 0 0 0 0 0Z"/><path fill="#9f4c4c" d="M1099.324-777.554v-9.964l-22.852 17.437 22.852 17.436v-10.213c16.323 0 27.749 3.986 35.91 12.704-3.264-12.455-13.058-24.91-35.91-27.4Z"/><path fill="#518737" d="M1112.382-720.673v9.964l22.852-17.437-22.852-17.437v10.213c-16.323 0-27.749-3.986-35.91-12.704 3.264 12.455 13.058 24.91 35.91 27.4Z"/></g></svg>