<svg xmlns="http://www.w3.org/2000/svg" viewBox="-872.625 -3810.625 25.25 25.25" width="25.25" height="25.25"><g fill="none"><path d="M-868.16-3810h16.32a3.84 3.84 0 0 1 3.84 3.84v16.32a3.84 3.84 0 0 1-3.84 3.84h-16.32a3.84 3.84 0 0 1-3.84-3.84v-16.32a3.84 3.84 0 0 1 3.84-3.84Z" fill="#fff"/><path d="M-868.16-3810h16.32a3.84 3.84 0 0 1 3.84 3.84v16.32a3.84 3.84 0 0 1-3.84 3.84h-16.32a3.84 3.84 0 0 1-3.84-3.84v-16.32a3.84 3.84 0 0 1 3.84-3.84Z" stroke="#000" stroke-linecap="round" stroke-linejoin="round" stroke-width=".25"/><path d="M-854.206-3805.45h-3.46a2.492 2.492 0 0 0-2.334-1.655 2.492 2.492 0 0 0-2.334 1.655h-3.46a1.66 1.66 0 0 0-1.656 1.656v13.244c0 .91.745 1.655 1.656 1.655h11.588a1.66 1.66 0 0 0 1.656-1.655v-13.244a1.66 1.66 0 0 0-1.656-1.656Zm-5.794 0a.83.83 0 0 1 .828.828.83.83 0 0 1-.828.828.83.83 0 0 1-.828-.828.83.83 0 0 1 .828-.828Zm5.794 14.9h-11.588v-13.244h1.655v2.483h8.278v-2.483h1.655v13.244Z" fill="#a7967d"/></g></svg>