<svg xmlns="http://www.w3.org/2000/svg" viewBox="-272.625 -3810.625 25.25 25.25" width="25.25" height="25.25"><g fill="none"><path d="M-251.84-3810h-16.32a3.84 3.84 0 0 0-3.84 3.84v16.32a3.84 3.84 0 0 0 3.84 3.84h16.32a3.84 3.84 0 0 0 3.84-3.84v-16.32a3.84 3.84 0 0 0-3.84-3.84Z" fill="#fff"/><path d="M-251.84-3810h-16.32a3.84 3.84 0 0 0-3.84 3.84v16.32a3.84 3.84 0 0 0 3.84 3.84h16.32a3.84 3.84 0 0 0 3.84-3.84v-16.32a3.84 3.84 0 0 0-3.84-3.84Z" stroke="#000" stroke-linecap="round" stroke-linejoin="round" stroke-width=".25"/><path d="M-253.882-3793.65h-.932l-.33-.319a7.629 7.629 0 0 0 1.851-4.986 7.662 7.662 0 1 0-7.662 7.662 7.628 7.628 0 0 0 4.986-1.851l.318.33v.932l5.895 5.882 1.756-1.756-5.882-5.895Zm-7.073 0a5.298 5.298 0 0 1-5.305-5.305 5.298 5.298 0 0 1 5.305-5.305 5.298 5.298 0 0 1 5.304 5.305 5.298 5.298 0 0 1-5.304 5.304Z" fill="#5c76a2"/></g></svg>