<svg xmlns="http://www.w3.org/2000/svg" width="25" height="25" viewBox="-472.5 -3810.51 25 25"><g fill="none"><path fill="#fff" d="M-468.591-3787.246h5.655a3.409 3.409 0 0 0 3.408-3.409v-15.946a3.409 3.409 0 0 0-3.408-3.409h-5.655A3.409 3.409 0 0 0-472-3806.6v15.946a3.409 3.409 0 0 0 3.409 3.409Z"/><path stroke="#000" stroke-linecap="round" stroke-linejoin="round" stroke-width=".25" d="M-468.591-3787.246h5.655a3.409 3.409 0 0 0 3.408-3.409v-15.946a3.409 3.409 0 0 0-3.408-3.409h-5.655A3.409 3.409 0 0 0-472-3806.6v15.946a3.409 3.409 0 0 0 3.409 3.409Z"/><path fill="#518737" d="M-456.782-3790.881v4.871l8.782-8.524-8.782-8.525v4.993c-6.273 0-10.664-1.948-13.8-6.21 1.255 6.088 5.018 12.177 13.8 13.395Z"/><path d="M-472-3810.01h24v24h-24z"/></g></svg>