<svg xmlns="http://www.w3.org/2000/svg" viewBox="-592.625 -3810.625 25.25 25.25" width="25.25" height="25.25"><g fill="none"><path d="M-588.16-3810h16.32a3.84 3.84 0 0 1 3.84 3.84v16.32a3.84 3.84 0 0 1-3.84 3.84h-16.32a3.84 3.84 0 0 1-3.84-3.84v-16.32a3.84 3.84 0 0 1 3.84-3.84Z" fill="#fff"/><path d="M-588.16-3810h16.32a3.84 3.84 0 0 1 3.84 3.84v16.32a3.84 3.84 0 0 1-3.84 3.84h-16.32a3.84 3.84 0 0 1-3.84-3.84v-16.32a3.84 3.84 0 0 1 3.84-3.84Z" stroke="#000" stroke-linecap="round" stroke-linejoin="round" stroke-width=".25"/><path d="M-576.61-3806.286h-9.04c-.828 0-1.506.678-1.506 1.506v10.547h1.506v-10.547h9.04v-1.506Zm2.26 3.013h-8.287c-.828 0-1.506.678-1.506 1.506v10.547c0 .828.678 1.506 1.506 1.506h8.287c.828 0 1.506-.678 1.506-1.506v-10.547c0-.828-.678-1.506-1.506-1.506Zm0 12.053h-8.287v-10.547h8.287v10.547Z" fill="#a7967d"/></g></svg>