<svg xmlns="http://www.w3.org/2000/svg" viewBox="-782.09 -3813.122 25 25" width="25" height="25"><g fill="none"><path d="M-777.75-3812.622h16.32a3.84 3.84 0 0 1 3.84 3.84v16.32a3.84 3.84 0 0 1-3.84 3.84h-16.32a3.84 3.84 0 0 1-3.84-3.84v-16.32a3.84 3.84 0 0 1 3.84-3.84Z" fill="#fff"/><path d="M-777.75-3812.622h16.32a3.84 3.84 0 0 1 3.84 3.84v16.32a3.84 3.84 0 0 1-3.84 3.84h-16.32a3.84 3.84 0 0 1-3.84-3.84v-16.32a3.84 3.84 0 0 1 3.84-3.84Z" stroke="#000" stroke-linecap="round" stroke-linejoin="round" stroke-width=".25"/><path d="m-762.565-3806.232-1.415-1.415-5.61 5.61-5.61-5.61-1.416 1.415 5.61 5.61-5.61 5.61 1.415 1.416 5.61-5.61 5.611 5.61 1.415-1.415-5.61-5.61Z" fill="#9f4c4c"/><path d="m-762.565-3806.232-1.415-1.415-5.61 5.61-5.61-5.61-1.416 1.415 5.61 5.61-5.61 5.61 1.415 1.416 5.61-5.61 5.611 5.61 1.415-1.415-5.61-5.61Z" stroke="#9f4c4c" stroke-linecap="round" stroke-linejoin="round" stroke-width=".25"/></g></svg>