<svg xmlns="http://www.w3.org/2000/svg" viewBox="-832.625 -3810.625 25.25 25.25" width="25.25" height="25.25"><g fill="none"><path d="M-828.16-3810h16.32a3.84 3.84 0 0 1 3.84 3.84v16.32a3.84 3.84 0 0 1-3.84 3.84h-16.32a3.84 3.84 0 0 1-3.84-3.84v-16.32a3.84 3.84 0 0 1 3.84-3.84Z" fill="#fff"/><path d="M-828.16-3810h16.32a3.84 3.84 0 0 1 3.84 3.84v16.32a3.84 3.84 0 0 1-3.84 3.84h-16.32a3.84 3.84 0 0 1-3.84-3.84v-16.32a3.84 3.84 0 0 1 3.84-3.84Z" stroke="#000" stroke-linecap="round" stroke-linejoin="round" stroke-width=".25"/><path d="M-821.817-3801.665c.173-.378.272-.794.272-1.24a3.023 3.023 0 1 0-6.049 0 3.023 3.023 0 0 0 3.025 3.024c.446 0 .861-.098 1.24-.272l1.784 1.784-1.785 1.785a2.948 2.948 0 0 0-1.24-.273 3.023 3.023 0 1 0 0 6.049 3.023 3.023 0 0 0 3.025-3.024c0-.446-.099-.862-.272-1.24l1.784-1.784 5.292 5.292h2.268v-.756l-9.344-9.345Zm-2.752.272a1.512 1.512 0 1 1-.002-3.023 1.512 1.512 0 0 1 .002 3.023Zm0 9.073a1.512 1.512 0 1 1-.002-3.023 1.512 1.512 0 0 1 .002 3.023Zm4.536-5.67a.374.374 0 0 1-.378-.379c0-.211.166-.378.378-.378s.378.167.378.378a.374.374 0 0 1-.378.378Zm5.292-7.183-4.536 4.536 1.512 1.512 5.292-5.292v-.756Z" fill="#a7967d"/></g></svg>