<svg xmlns="http://www.w3.org/2000/svg" viewBox="-433.101 -3810.865 25.125 25.125" width="25.125" height="25.125"><g fill="none"><path d="M-412.316-3786.365h-15.79a3.715 3.715 0 0 1-3.716-3.715v-9.958a3.715 3.715 0 0 1 3.716-3.716h15.79a3.715 3.715 0 0 1 3.715 3.716v9.958a3.715 3.715 0 0 1-3.715 3.715Z" fill="#fff"/><path d="M-412.316-3786.365h-15.79a3.715 3.715 0 0 1-3.716-3.715v-9.958a3.715 3.715 0 0 1 3.716-3.716h15.79a3.715 3.715 0 0 1 3.715 3.716v9.958a3.715 3.715 0 0 1-3.715 3.715s0 0 0 0Z" stroke="#000" stroke-linecap="round" stroke-linejoin="round" stroke-width=".25"/><path d="M-414.93-3799.997v-3.898h-15.15v3.898h15.15Z" fill="#fff"/><path d="M-424.263-3806.041v-4.324l-8.338 7.567 8.338 7.567v-4.432c5.956 0 10.125 1.73 13.103 5.514-1.19-5.406-4.764-10.811-13.103-11.892Z" fill="#9f4c4c"/></g></svg>