<svg xmlns="http://www.w3.org/2000/svg" width="103" height="103" viewBox="1804.5 -423.5 103 103"><g fill="none"><path fill="#fff" d="M1890-422h-68c-8.837 0-16 7.163-16 16v68c0 8.837 7.163 16 16 16h68c8.837 0 16-7.163 16-16v-68c0-8.837-7.163-16-16-16Z"/><path stroke="#000" stroke-linecap="round" stroke-linejoin="round" stroke-width="3" d="M1890-422h-68c-8.837 0-16 7.163-16 16v68c0 8.837 7.163 16 16 16h68c8.837 0 16-7.163 16-16v-68c0-8.837-7.163-16-16-16Z"/><path fill="#5c76a2" d="M1881.49-353.878h-3.88l-1.376-1.326c4.814-5.6 7.712-12.87 7.712-20.777 0-17.634-14.294-31.927-31.927-31.927-17.634 0-31.927 14.293-31.927 31.927 0 17.633 14.293 31.927 31.927 31.927 7.908 0 15.177-2.898 20.777-7.712l1.326 1.376v3.88l24.56 24.51 7.318-7.319-24.51-24.559Zm-29.471 0c-12.23 0-22.103-9.873-22.103-22.103 0-12.23 9.872-22.103 22.103-22.103 12.23 0 22.103 9.872 22.103 22.103 0 12.23-9.873 22.103-22.103 22.103Z"/></g></svg>