<svg xmlns="http://www.w3.org/2000/svg" viewBox="922.5 -1428.5 103 103" width="103" height="103"><g fill="none"><path d="M1008-1427h-68c-8.837 0-16 7.163-16 16v68c0 8.837 7.163 16 16 16h68c8.837 0 16-7.163 16-16v-68c0-8.837-7.163-16-16-16Z" fill="#fff"/><path d="M1008-1427h-68c-8.837 0-16 7.163-16 16v68c0 8.837 7.163 16 16 16h68c8.837 0 16-7.163 16-16v-68c0-8.837-7.163-16-16-16Z" stroke="#000" stroke-linecap="round" stroke-linejoin="round" stroke-width="3"/><path d="M999.96-1372.918c.146-1.175.256-2.35.256-3.599 0-1.248-.11-2.423-.257-3.598l7.748-6.059c.698-.55.881-1.542.44-2.35l-7.343-12.705c-.44-.808-1.432-1.101-2.24-.808l-9.143 3.672a26.829 26.829 0 0 0-6.206-3.598l-1.395-9.73c-.11-.882-.881-1.543-1.8-1.543h-14.687c-.918 0-1.69.66-1.8 1.542l-1.395 9.73c-2.24.919-4.296 2.167-6.206 3.6l-9.143-3.673c-.844-.33-1.799 0-2.24.808l-7.343 12.705a1.81 1.81 0 0 0 .44 2.35l7.748 6.059c-.147 1.175-.257 2.387-.257 3.599 0 1.211.11 2.423.257 3.598l-7.748 6.059c-.697.55-.881 1.542-.44 2.35l7.343 12.705c.441.808 1.433 1.101 2.24.808l9.144-3.672a26.829 26.829 0 0 0 6.205 3.598l1.395 9.73c.11.882.882 1.543 1.8 1.543h14.688c.918 0 1.689-.661 1.799-1.542l1.395-9.73c2.24-.919 4.296-2.167 6.206-3.6l9.143 3.673c.845.33 1.8 0 2.24-.808l7.344-12.705c.44-.808.257-1.8-.44-2.35l-7.749-6.059Zm-27.283 9.253c-7.087 0-12.852-5.765-12.852-12.851 0-7.087 5.765-12.852 12.852-12.852 7.087 0 12.851 5.765 12.851 12.851 0 7.087-5.764 12.852-12.851 12.852Z" fill="#5c76a2"/></g></svg>