<svg xmlns="http://www.w3.org/2000/svg" viewBox="-421.965 -3812.997 24.875 24.875" width="24.875" height="24.875"><g fill="none"><path d="M-401.306-3788.622h-15.79a3.715 3.715 0 0 1-3.715-3.715v-9.958a3.715 3.715 0 0 1 3.715-3.715h15.79a3.715 3.715 0 0 1 3.716 3.715v9.958a3.715 3.715 0 0 1-3.716 3.715Z" fill="#fff"/><path d="M-401.306-3788.622h-15.79a3.715 3.715 0 0 1-3.715-3.715v-9.958a3.715 3.715 0 0 1 3.715-3.715h15.79a3.715 3.715 0 0 1 3.716 3.715v9.958a3.715 3.715 0 0 1-3.716 3.715s0 0 0 0Z" stroke="#000" stroke-linecap="round" stroke-linejoin="round" stroke-width=".25"/><path d="M-403.92-3802.254v-3.898h-15.15v3.898h15.15Z" fill="#fff"/><path d="M-413.252-3808.298v-4.324l-8.338 7.567 8.338 7.568v-4.432c5.956 0 10.125 1.729 13.103 5.513-1.191-5.405-4.765-10.81-13.103-11.892Z" fill="#9f4c4c"/></g></svg>