<svg xmlns="http://www.w3.org/2000/svg" width="25" height="25" viewBox="-982.09 -3772.549 25 25"><g fill="none"><circle cx="-969.59" cy="-3760.049" r="12" fill="#fff"/><circle cx="-969.59" cy="-3760.049" r="12" stroke="#000" stroke-linecap="round" stroke-linejoin="round" stroke-width=".25"/><path fill="#a7957d" d="M-963.04-3759.209c.035-.274.061-.549.061-.84a6.51 6.51 0 0 0-.061-.84l1.859-1.414a.424.424 0 0 0 .106-.549l-1.763-2.966c-.106-.189-.344-.257-.537-.189l-2.195.858a6.49 6.49 0 0 0-1.49-.84l-.334-2.272a.426.426 0 0 0-.432-.36h-3.525a.426.426 0 0 0-.432.36l-.335 2.271a6.825 6.825 0 0 0-1.489.84l-2.194-.857a.436.436 0 0 0-.538.189l-1.762 2.966a.415.415 0 0 0 .105.549l1.86 1.414a6.622 6.622 0 0 0-.062.84c0 .283.027.566.062.84l-1.86 1.415a.424.424 0 0 0-.105.548l1.762 2.966c.106.189.344.257.538.189l2.194-.857c.458.342.952.625 1.49.84l.334 2.271c.027.206.212.36.432.36h3.525c.22 0 .406-.154.432-.36l.335-2.271a6.813 6.813 0 0 0 1.49-.84l2.194.857c.202.077.431 0 .537-.189l1.763-2.966a.424.424 0 0 0-.106-.548l-1.86-1.415Zm-6.548 2.16c-1.701 0-3.085-1.345-3.085-3 0-1.654 1.384-3 3.085-3 1.7 0 3.084 1.346 3.084 3 0 1.655-1.384 3-3.084 3Z"/></g></svg>