<svg xmlns="http://www.w3.org/2000/svg" width="25.25" height="24.896" viewBox="-992.625 -3770.448 25.25 24.896"><g fill="none"><ellipse cx="-980" cy="-3758" fill="#fff" rx="12" ry="11.823"/><ellipse cx="-980" cy="-3758" stroke="#000" stroke-linecap="round" stroke-linejoin="round" stroke-width=".25" rx="12" ry="11.823"/><path fill="#a7957d" d="M-973.45-3757.16c.035-.274.062-.549.062-.84 0-.291-.027-.566-.062-.84l1.86-1.414a.424.424 0 0 0 .105-.549l-1.762-2.966c-.106-.189-.344-.257-.538-.189l-2.195.858a6.481 6.481 0 0 0-1.489-.84l-.335-2.272a.426.426 0 0 0-.432-.36h-3.525a.426.426 0 0 0-.431.36l-.335 2.271a6.811 6.811 0 0 0-1.49.84l-2.194-.857a.435.435 0 0 0-.538.189l-1.762 2.966a.415.415 0 0 0 .106.548l1.86 1.415a6.621 6.621 0 0 0-.063.84c0 .283.027.566.062.84l-1.86 1.414a.424.424 0 0 0-.105.549l1.762 2.966c.106.189.344.257.538.189l2.194-.858c.459.343.952.626 1.49.84l.335 2.272c.026.206.211.36.431.36h3.525c.22 0 .406-.154.432-.36l.335-2.271a6.808 6.808 0 0 0 1.49-.84l2.194.857c.203.077.432 0 .538-.189l1.762-2.966a.424.424 0 0 0-.106-.548l-1.86-1.415Zm-6.548 2.16c-1.7 0-3.084-1.346-3.084-3s1.383-3 3.084-3c1.7 0 3.084 1.346 3.084 3s-1.383 3-3.084 3Z"/></g></svg>