<svg xmlns="http://www.w3.org/2000/svg" width="25" height="25" viewBox="-912.5 -3770.5 25 25"><g fill="none"><path fill="#fff" d="M-908.303-3767.243h16.606c.52 0 .94.42.94.94v16.606a.94.94 0 0 1-.94.94h-16.606a.94.94 0 0 1-.94-.94v-16.606c0-.52.42-.94.94-.94Z"/><path fill="#a7967d" d="M-890.667-3770h-18.666a2.675 2.675 0 0 0-2.667 2.667v18.666c0 1.467 1.2 2.667 2.667 2.667h18.666c1.467 0 2.667-1.2 2.667-2.667v-18.666c0-1.467-1.2-2.667-2.667-2.667ZM-904-3751.333h-2.667v-9.334H-904v9.334Zm5.333 0h-2.666v-13.334h2.666v13.334Zm5.334 0H-896v-5.334h2.667v5.334Z"/></g></svg>