<svg xmlns="http://www.w3.org/2000/svg" width="25.25" height="25.25" viewBox="-632.625 -3770.625 25.25 25.25"><g fill="none"><path fill="#fff" d="M-628.16-3770h16.32a3.84 3.84 0 0 1 3.84 3.84v16.32a3.84 3.84 0 0 1-3.84 3.84h-16.32a3.84 3.84 0 0 1-3.84-3.84v-16.32a3.84 3.84 0 0 1 3.84-3.84Z"/><path stroke="#000" stroke-linecap="round" stroke-linejoin="round" stroke-width=".25" d="M-628.16-3770h16.32a3.84 3.84 0 0 1 3.84 3.84v16.32a3.84 3.84 0 0 1-3.84 3.84h-16.32a3.84 3.84 0 0 1-3.84-3.84v-16.32a3.84 3.84 0 0 1 3.84-3.84Z"/><path fill="#5c76a2" d="m-620.01-3751.702-7.02-5.152-1.542 1.133 8.572 6.293 8.572-6.293-1.552-1.142-7.03 5.16Zm.01-2.284 7.01-5.151 1.562-1.142-8.572-6.293-8.572 6.293 1.552 1.142 7.02 5.151Z"/></g></svg>