<svg xmlns="http://www.w3.org/2000/svg" viewBox="1307.569 -2172.412 102.145 102.145" width="102.145" height="102.145"><g fill="none"><path d="M1323.303-2160.678h70.678a4 4 0 0 1 4 4V-2086a4 4 0 0 1-4 4h-70.678a4 4 0 0 1-4-4v-70.678a4 4 0 0 1 4-4Z" fill="#fff"/><path d="M1398.365-2172.412h-79.447c-6.242 0-11.349 5.107-11.349 11.35v79.446c0 6.242 5.107 11.35 11.35 11.35h79.446c6.242 0 11.35-5.108 11.35-11.35v-79.446c0-6.243-5.108-11.35-11.35-11.35Zm-56.748 79.447h-11.35v-39.724h11.35v39.724Zm22.7 0h-11.35v-56.748h11.35v56.748Zm22.698 0h-11.35v-22.7h11.35v22.7Z" fill="#a7967d"/></g></svg>