<svg xmlns="http://www.w3.org/2000/svg" width="25" height="25" viewBox="-712.5 -3770.5 25 25"><g fill="none"><path fill="#fff" d="M-709.243-3768.183h18.486a.94.94 0 0 1 .94.94v18.486a.94.94 0 0 1-.94.94h-18.486a.94.94 0 0 1-.94-.94v-18.486c0-.519.42-.94.94-.94Z"/><path fill="#a7967d" d="M-712-3767.333v18.666a2.666 2.666 0 0 0 2.667 2.667h18.666c1.467 0 2.667-1.2 2.667-2.667v-18.666c0-1.467-1.2-2.667-2.667-2.667h-18.666c-1.48 0-2.667 1.2-2.667 2.667Zm16 5.333c0 2.213-1.787 4-4 4s-4-1.787-4-4 1.787-4 4-4 4 1.787 4 4Zm-12 10.667c0-2.667 5.333-4.134 8-4.134s8 1.467 8 4.134v1.333h-16v-1.333Z"/></g></svg>