<svg xmlns="http://www.w3.org/2000/svg" width="25" height="25" viewBox="-662.09 -3773.122 25 25"><g fill="none"><circle cx="-649.59" cy="-3760.622" r="12" fill="#fff"/><circle cx="-649.59" cy="-3760.622" r="12" stroke="#000" stroke-linecap="round" stroke-linejoin="round" stroke-width=".25"/><path fill="#a7957d" d="M-647.584-3754.78h1.338v-1.337h-1.338v1.338Zm2.675-8.025h1.338v-1.338h-1.337v1.338Zm-10.7-2.676v9.364c0 .736.601 1.338 1.337 1.338h2.675v-1.338h-2.675v-9.364h2.675v-1.337h-2.675c-.736 0-1.338.602-1.338 1.337Zm10.7-1.337v1.337h1.338c0-.735-.602-1.337-1.337-1.337Zm-5.35 13.376h1.338v-14.714h-1.338v14.714Zm5.35-4.013h1.338v-1.337h-1.337v1.337Zm-2.675-8.026h1.338v-1.337h-1.338v1.337Zm2.675 5.351h1.338v-1.338h-1.337v1.338Zm0 5.35c.736 0 1.338-.601 1.338-1.337h-1.337v1.338Z"/></g></svg>