<svg xmlns="http://www.w3.org/2000/svg" width="25" height="25" viewBox="-822.09 -3773.122 25 25"><g fill="none"><path fill="#a7967d" d="M-818.59-3772.622h18a3 3 0 0 1 3 3v18a3 3 0 0 1-3 3h-18a3 3 0 0 1-3-3v-18a3 3 0 0 1 3-3Z"/><path stroke="#a7977d" stroke-linecap="round" stroke-linejoin="round" stroke-width=".25" d="M-818.59-3772.622h18a3 3 0 0 1 3 3v18a3 3 0 0 1-3 3h-18a3 3 0 0 1-3-3v-18a3 3 0 0 1 3-3Z"/><path fill="#fff" d="M-817.59-3763.833h4.706v-4.856h-4.706v4.856Zm0 5.665h4.706v-4.855h-4.706v4.855Zm5.647 0h4.706v-4.855h-4.706v4.855Zm5.647 0h4.706v-4.855h-4.706v4.855Zm-5.647-5.665h4.706v-4.856h-4.706v4.856Zm5.647-4.856v4.856h4.706v-4.856h-4.706Z"/><path fill="#fff" d="M-817.59-3758.22h4.706v-4.856h-4.706v4.856Zm0 5.665h4.706v-4.856h-4.706v4.856Zm5.647 0h4.706v-4.856h-4.706v4.856Zm5.647 0h4.706v-4.856h-4.706v4.856Zm-5.647-5.665h4.706v-4.856h-4.706v4.856Zm5.647-4.856v4.856h4.706v-4.856h-4.706Z"/></g></svg>