<svg xmlns="http://www.w3.org/2000/svg" width="25" height="25" viewBox="-782.09 -3773.122 25 25"><g fill="none"><path fill="#fff" d="M-779.345-3771.317h19.51c.519 0 .94.421.94.94v19.51c0 .52-.421.94-.94.94h-19.51a.94.94 0 0 1-.94-.94v-19.51c0-.519.42-.94.94-.94Z"/><path stroke="#a7977e" stroke-linecap="round" stroke-linejoin="round" stroke-width=".25" d="M-779.345-3771.317h19.51c.519 0 .94.421.94.94v19.51c0 .52-.421.94-.94.94h-19.51a.94.94 0 0 1-.94-.94v-19.51c0-.519.42-.94.94-.94Z"/><path fill="#a7967d" d="M-757.59-3751.288v-18.667c0-1.467-1.2-2.667-2.667-2.667h-18.667a2.675 2.675 0 0 0-2.666 2.667v18.667c0 1.466 1.2 2.666 2.666 2.666h18.667c1.467 0 2.667-1.2 2.667-2.666Zm-16.667-7.334 3.333 4.014 4.667-6.014 6 8h-18.667l4.667-6Z"/><path stroke="#a7977e" stroke-linecap="round" stroke-linejoin="round" stroke-width=".25" d="M-757.59-3751.288v-18.667c0-1.467-1.2-2.667-2.667-2.667h-18.667a2.675 2.675 0 0 0-2.666 2.667v18.667c0 1.466 1.2 2.666 2.666 2.666h18.667c1.467 0 2.667-1.2 2.667-2.666Zm-16.667-7.334 3.333 4.014 4.667-6.014 6 8h-18.667l4.667-6Z"/><circle cx="-770.707" cy="-3764.622" r="1.746" fill="#fff"/><circle cx="-770.707" cy="-3764.622" r="1.746" stroke="#a7977e" stroke-linecap="round" stroke-linejoin="round" stroke-width=".25"/></g></svg>