<svg xmlns="http://www.w3.org/2000/svg" width="25" height="25" viewBox="-862.09 -3773.122 25 25"><g fill="none"><path fill="#fff" d="M-859.303-3771.275h19.426c.519 0 .94.421.94.94v19.426c0 .52-.421.94-.94.94h-19.426a.94.94 0 0 1-.94-.94v-19.426c0-.519.42-.94.94-.94Z"/><path stroke="#a7977d" stroke-linecap="round" stroke-linejoin="round" stroke-width=".25" d="M-859.303-3771.275h19.426c.519 0 .94.421.94.94v19.426c0 .52-.421.94-.94.94h-19.426a.94.94 0 0 1-.94-.94v-19.426c0-.519.42-.94.94-.94Z"/><path fill="#a7967d" d="M-840.257-3772.622h-18.667a2.675 2.675 0 0 0-2.666 2.667v18.667c0 1.466 1.2 2.666 2.666 2.666h18.667c1.467 0 2.667-1.2 2.667-2.666v-18.667c0-1.467-1.2-2.667-2.667-2.667Zm0 21.334-9.333-10.667v10.667h-9.334l9.334-10.667v-8h9.333v18.667Z"/><path stroke="#a7977d" stroke-linecap="round" stroke-linejoin="round" stroke-width=".25" d="M-840.257-3772.622h-18.667a2.675 2.675 0 0 0-2.666 2.667v18.667c0 1.466 1.2 2.666 2.666 2.666h18.667c1.467 0 2.667-1.2 2.667-2.666v-18.667c0-1.467-1.2-2.667-2.667-2.667Zm0 21.334-9.333-10.667v10.667h-9.334l9.334-10.667v-8h9.333v18.667Z"/></g></svg>