<svg xmlns="http://www.w3.org/2000/svg" viewBox="1247.5 766.277 103 103" width="103" height="103"><g fill="none"><ellipse cx="1299" cy="817.777" rx="50" ry="49.262" fill="#fff"/><path d="m1299 867.777 4.358-.19 4.324-.57 4.259-.944 4.16-1.311 4.03-1.67 3.869-2.014 3.679-2.343 3.46-2.656 3.216-2.947 2.947-3.216 2.656-3.46 2.343-3.679 2.014-3.87 1.67-4.029 1.311-4.16.944-4.259.57-4.324.19-4.358-.19-4.358-.57-4.324-.944-4.259-1.311-4.16-1.67-4.03-2.014-3.869-2.343-3.679-2.656-3.46-2.947-3.216-3.216-2.947-3.46-2.656-3.679-2.343-3.87-2.014-4.029-1.67-4.16-1.311-4.259-.944-4.324-.57-4.358-.19-4.358.19-4.324.57-4.259.944-4.16 1.311-4.03 1.67-3.869 2.014-3.679 2.343-3.46 2.656-3.216 2.947-2.947 3.216-2.656 3.46-2.343 3.679-2.014 3.87-1.67 4.029-1.311 4.16-.944 4.259-.57 4.324-.19 4.358.19 4.358.57 4.324.944 4.259 1.311 4.16 1.67 4.03 2.014 3.869 2.343 3.679 2.656 3.46 2.947 3.216 3.216 2.947 3.46 2.656 3.679 2.343 3.87 2.014 4.029 1.67 4.16 1.311 4.259.944 4.324.57 4.358.19" stroke="#000" stroke-linecap="round" stroke-linejoin="round" stroke-width="3"/><path d="m1325.795 790.755-60.788 25.433v3.347l23.076 8.933 8.933 23.075h3.347Z" fill="#a7967d"/></g></svg>