<svg xmlns="http://www.w3.org/2000/svg" width="25" height="25" viewBox="-792.5 -3770.5 25 25"><g fill="none"><path fill="#fff" d="M-789.755-3768.695h19.51c.52 0 .94.421.94.94v19.51a.94.94 0 0 1-.94.94h-19.51a.94.94 0 0 1-.94-.94v-19.51c0-.519.42-.94.94-.94Z"/><path fill="#a7967d" d="M-768-3748.667v-18.666c0-1.467-1.2-2.667-2.667-2.667h-18.666a2.675 2.675 0 0 0-2.667 2.667v18.666c0 1.467 1.2 2.667 2.667 2.667h18.666c1.467 0 2.667-1.2 2.667-2.667Zm-16.667-7.333 3.334 4.013 4.666-6.013 6 8h-18.666l4.666-6Z"/><circle cx="-781.117" cy="-3762" r="1.746" fill="#fff"/></g></svg>