<svg xmlns="http://www.w3.org/2000/svg" width="25" height="25" viewBox="-702.09 -3773.122 25 25"><g fill="none"><path fill="#fff" d="M-698.833-3770.805h18.486c.519 0 .94.421.94.94v18.486a.94.94 0 0 1-.94.94h-18.486a.94.94 0 0 1-.94-.94v-18.486c0-.519.42-.94.94-.94Z"/><path fill="#a7967d" d="M-701.59-3769.955v18.667a2.666 2.666 0 0 0 2.666 2.666h18.667c1.467 0 2.667-1.2 2.667-2.666v-18.667c0-1.467-1.2-2.667-2.667-2.667h-18.667c-1.48 0-2.666 1.2-2.666 2.667Zm16 5.333c0 2.214-1.787 4-4 4-2.214 0-4-1.786-4-4 0-2.213 1.786-4 4-4 2.213 0 4 1.787 4 4Zm-12 10.667c0-2.667 5.333-4.133 8-4.133 2.666 0 8 1.466 8 4.133v1.333h-16v-1.333Z"/><path stroke="#a7977e" stroke-linecap="round" stroke-linejoin="round" stroke-width=".25" d="M-701.59-3769.955v18.667a2.666 2.666 0 0 0 2.666 2.666h18.667c1.467 0 2.667-1.2 2.667-2.666v-18.667c0-1.467-1.2-2.667-2.667-2.667h-18.667c-1.48 0-2.666 1.2-2.666 2.667Zm16 5.333c0 2.214-1.787 4-4 4-2.214 0-4-1.786-4-4 0-2.213 1.786-4 4-4 2.213 0 4 1.787 4 4Zm-12 10.667c0-2.667 5.333-4.133 8-4.133 2.666 0 8 1.466 8 4.133v1.333h-16v-1.333Z"/></g></svg>