<svg xmlns="http://www.w3.org/2000/svg" width="25" height="25" viewBox="-872.5 -3770.5 25 25"><g fill="none"><path fill="#fff" d="M-869.713-3768.653h19.426c.52 0 .94.421.94.94v19.426a.94.94 0 0 1-.94.94h-19.426a.94.94 0 0 1-.94-.94v-19.426c0-.519.42-.94.94-.94Z"/><path fill="#a7967d" d="M-850.667-3770h-18.666a2.675 2.675 0 0 0-2.667 2.667v18.666c0 1.467 1.2 2.667 2.667 2.667h18.666c1.467 0 2.667-1.2 2.667-2.667v-18.666c0-1.467-1.2-2.667-2.667-2.667Zm0 21.333-9.333-10.666v10.666h-9.333l9.333-10.666v-8h9.333v18.666Z"/></g></svg>