<svg xmlns="http://www.w3.org/2000/svg" width="25" height="25" viewBox="-902.09 -3773.122 25 25"><g fill="none"><path fill="#fff" d="M-897.894-3769.865h16.607a.94.94 0 0 1 .94.94v16.607c0 .519-.421.94-.94.94h-16.606a.94.94 0 0 1-.94-.94v-16.607c0-.519.42-.94.94-.94Z"/><path stroke="#a6977c" stroke-linecap="round" stroke-linejoin="round" stroke-width=".25" d="M-897.894-3769.865h16.607a.94.94 0 0 1 .94.94v16.607c0 .519-.421.94-.94.94h-16.606a.94.94 0 0 1-.94-.94v-16.607c0-.519.42-.94.94-.94Z"/><path fill="#a7967d" d="M-880.257-3772.622h-18.667a2.675 2.675 0 0 0-2.666 2.667v18.667c0 1.466 1.2 2.666 2.666 2.666h18.667c1.467 0 2.667-1.2 2.667-2.666v-18.667c0-1.467-1.2-2.667-2.667-2.667Zm-13.333 18.667h-2.667v-9.333h2.667v9.333Zm5.333 0h-2.667v-13.333h2.667v13.333Zm5.333 0h-2.666v-5.333h2.666v5.333Z"/><path stroke="#a7977d" stroke-linecap="round" stroke-linejoin="round" stroke-width=".25" d="M-880.257-3772.622h-18.667a2.675 2.675 0 0 0-2.666 2.667v18.667c0 1.466 1.2 2.666 2.666 2.666h18.667c1.467 0 2.667-1.2 2.667-2.666v-18.667c0-1.467-1.2-2.667-2.667-2.667Zm-13.333 18.667h-2.667v-9.333h2.667v9.333Zm5.333 0h-2.667v-13.333h2.667v13.333Zm5.333 0h-2.666v-5.333h2.666v5.333Z"/></g></svg>