<svg xmlns="http://www.w3.org/2000/svg" width="25" height="25" viewBox="-832.5 -3770.5 25 25"><g fill="none"><path fill="#a7967d" d="M-831.06-3770h22.12a.94.94 0 0 1 .94.94v22.12a.94.94 0 0 1-.94.94h-22.12a.94.94 0 0 1-.94-.94v-22.12c0-.519.42-.94.94-.94Z"/><path fill="#fff" d="M-828-3761.211h4.706v-4.856H-828v4.856Zm0 5.665h4.706v-4.856H-828v4.856Zm5.647 0h4.706v-4.856h-4.706v4.856Zm5.647 0H-812v-4.856h-4.706v4.856Zm-5.647-5.665h4.706v-4.856h-4.706v4.856Zm5.647-4.856v4.856H-812v-4.856h-4.706Z"/><path fill="#fff" d="M-828-3755.598h4.706v-4.856H-828v4.856Zm0 5.665h4.706v-4.856H-828v4.856Zm5.647 0h4.706v-4.856h-4.706v4.856Zm5.647 0H-812v-4.856h-4.706v4.856Zm-5.647-5.665h4.706v-4.856h-4.706v4.856Zm5.647-4.856v4.856H-812v-4.856h-4.706Z"/></g></svg>