<svg xmlns="http://www.w3.org/2000/svg" width="25.25" height="24.896" viewBox="-672.625 -3770.448 25.25 24.896"><g fill="none"><ellipse cx="-660" cy="-3758" fill="#fff" rx="12" ry="11.823"/><ellipse cx="-660" cy="-3758" stroke="#000" stroke-linecap="round" stroke-linejoin="round" stroke-width=".25" rx="12" ry="11.823"/><path fill="#a7957d" d="M-657.994-3751.98h1.338v-1.338h-1.338v1.338Zm2.676-8.026h1.337v-1.338h-1.337v1.338Zm-10.702-2.676v9.364c0 .736.602 1.338 1.338 1.338h2.676v-1.338h-2.676v-9.364h2.676v-1.338h-2.676c-.736 0-1.337.602-1.337 1.338Zm10.702-1.338v1.338h1.337c0-.736-.601-1.338-1.337-1.338Zm-5.35 13.377h1.337v-14.714h-1.338v14.714Zm5.35-4.013h1.337v-1.338h-1.337v1.338Zm-2.676-8.026h1.338v-1.338h-1.338v1.338Zm2.676 5.351h1.337v-1.338h-1.337v1.338Zm0 5.35c.736 0 1.337-.601 1.337-1.337h-1.337v1.338Z"/></g></svg>