<svg xmlns="http://www.w3.org/2000/svg" viewBox="1557.283 -2172.412 102.145 102.145" width="102.145" height="102.145"><g fill="none"><path d="M1566.838-2166.857h83.036a4 4 0 0 1 4 4v83.036a4 4 0 0 1-4 4h-83.036a4 4 0 0 1-4-4v-83.036a4 4 0 0 1 4-4Z" fill="#fff"/><path d="M1659.429-2081.616v-79.446c0-6.243-5.108-11.35-11.35-11.35h-79.446c-6.243 0-11.35 5.107-11.35 11.35v79.446c0 6.242 5.108 11.35 11.35 11.35h79.446c6.242 0 11.35-5.108 11.35-11.35Zm-70.935-31.211 14.187 17.081 19.862-25.593 25.536 34.048h-79.446l19.861-25.536Z" fill="#a7967d"/><circle cx="1603.602" cy="-2138.363" r="7.429" fill="#fff"/></g></svg>