<svg xmlns="http://www.w3.org/2000/svg" width="17" height="17" viewBox="-502.09 -3493.122 17 17"><g fill="none"><circle cx="-493.59" cy="-3484.622" r="6.4" fill="#fff"/><path fill="#9da9b5" d="M-493.59-3492.622c-4.416 0-8 3.584-8 8s3.584 8 8 8 8-3.584 8-8-3.584-8-8-8Zm-6.4 8c0-3.536 2.864-6.4 6.4-6.4 1.48 0 2.84.504 3.92 1.352l-8.968 8.968a6.322 6.322 0 0 1-1.352-3.92Zm6.4 6.4c-1.48 0-2.84-.504-3.92-1.352l8.968-8.968a6.322 6.322 0 0 1 1.352 3.92c0 3.536-2.864 6.4-6.4 6.4Z"/><path stroke="#9da9b5" stroke-linecap="round" stroke-linejoin="round" d="M-493.59-3492.622c-4.416 0-8 3.584-8 8s3.584 8 8 8 8-3.584 8-8-3.584-8-8-8Zm-6.4 8c0-3.536 2.864-6.4 6.4-6.4 1.48 0 2.84.504 3.92 1.352l-8.968 8.968a6.322 6.322 0 0 1-1.352-3.92Zm6.4 6.4c-1.48 0-2.84-.504-3.92-1.352l8.968-8.968a6.322 6.322 0 0 1 1.352 3.92c0 3.536-2.864 6.4-6.4 6.4Z"/></g></svg>