<svg xmlns="http://www.w3.org/2000/svg" width="16" height="16" viewBox="-186 -3056 16 16"><g fill="none"><circle cx="-178" cy="-3048" r="8" fill="#9da9b5"/><path fill="#fff" d="M-178-3052.083a6.438 6.438 0 0 0-5.988 4.083 6.438 6.438 0 0 0 5.988 4.083 6.438 6.438 0 0 0 5.988-4.083 6.438 6.438 0 0 0-5.988-4.083Zm0 6.805a2.723 2.723 0 0 1 0-5.444 2.723 2.723 0 0 1 0 5.444Zm0-4.355a1.63 1.63 0 0 0-1.633 1.633c0 .904.73 1.633 1.633 1.633a1.63 1.63 0 0 0 1.633-1.633 1.63 1.63 0 0 0-1.633-1.633Z"/><path fill="#fff" d="m-174.771-3054 1.224 1.224-9.229 9.229-1.224-1.224Z"/></g></svg>