<svg xmlns="http://www.w3.org/2000/svg" viewBox="-792.5 -3450.5 17 17" width="17" height="17"><g fill="none"><circle cx="-784" cy="-3442" r="8" fill="#9da9b5"/><path d="M-784-3446.083a6.438 6.438 0 0 0-5.988 4.083 6.438 6.438 0 0 0 5.988 4.083 6.438 6.438 0 0 0 5.988-4.083 6.438 6.438 0 0 0-5.988-4.083Zm0 6.805a2.723 2.723 0 0 1 0-5.444 2.723 2.723 0 0 1 0 5.444Zm0-4.355a1.63 1.63 0 0 0-1.633 1.633c0 .904.73 1.633 1.633 1.633a1.63 1.63 0 0 0 1.633-1.633 1.63 1.63 0 0 0-1.633-1.633Z" fill="#fff"/></g></svg>