<svg xmlns="http://www.w3.org/2000/svg" viewBox="-832.5 -3490.5 17 17" width="17" height="17"><g fill="none"><circle cx="-824" cy="-3482" r="8" fill="#9da9b5"/><path d="M-820.178-3486.777h-7.644a.958.958 0 0 0-.955.955v7.644c0 .525.43.955.955.955h7.644c.525 0 .955-.43.955-.955v-7.644a.958.958 0 0 0-.955-.955Zm-5.733 8.599h-1.91v-1.911h1.91v1.911Zm0-2.867h-1.91v-1.91h1.91v1.91Zm0-2.866h-1.91v-1.911h1.91v1.911Zm2.866 5.733h-1.91v-1.911h1.91v1.911Zm0-2.867h-1.91v-1.91h1.91v1.91Zm0-2.866h-1.91v-1.911h1.91v1.911Zm2.867 5.733h-1.911v-1.911h1.91v1.911Zm0-2.867h-1.911v-1.91h1.91v1.91Zm0-2.866h-1.911v-1.911h1.91v1.911Z" fill="#fff"/></g></svg>