<svg xmlns="http://www.w3.org/2000/svg" width="33.941" height="23.999" viewBox="-430.971 -3429.999 33.941 23.999"><g fill="none"><path fill="#fff" d="M-420.364-3411.636A8.972 8.972 0 0 1-423-3418h4.757l-6.364-6.364-6.364 6.364h4.972c0 3.07 1.17 6.142 3.514 8.485 3.637 3.638 9.029 4.451 13.452 2.441l-1.242-2.731a9.002 9.002 0 0 1-10.089-1.831m18.363-6.363a11.957 11.957 0 0 0-3.514-8.486c-3.637-3.638-9.029-4.451-13.452-2.441l1.242 2.731A9.002 9.002 0 0 1-405-3418h-4.757l6.364 6.364 6.364-6.364Z"/></g></svg>