<svg xmlns="http://www.w3.org/2000/svg" width="16" height="16" viewBox="-821.59 -3532.622 16 16"><g fill="none"><circle cx="-813.59" cy="-3524.622" r="8" fill="#9da9b5"/><path fill="#fff" d="M-809.769-3529.399h-7.643a.958.958 0 0 0-.955.956v7.643c0 .526.43.956.955.956h7.644c.525 0 .955-.43.955-.956v-7.643a.958.958 0 0 0-.956-.956Zm-5.732 8.599h-1.911v-1.911h1.91v1.911Zm0-2.866h-1.911v-1.911h1.91v1.91Zm0-2.867h-1.911v-1.91h1.91v1.91Zm2.866 5.733h-1.91v-1.911h1.91v1.911Zm0-2.866h-1.91v-1.911h1.91v1.91Zm0-2.867h-1.91v-1.91h1.91v1.91Zm2.866 5.733h-1.91v-1.911h1.91v1.911Zm0-2.866h-1.91v-1.911h1.91v1.91Zm0-2.867h-1.91v-1.91h1.91v1.91Z"/></g></svg>