<svg xmlns="http://www.w3.org/2000/svg" width="16" height="16" viewBox="-781.59 -3492.622 16 16"><g fill="none"><circle cx="-773.59" cy="-3484.622" r="8" fill="#9da9b5"/><path fill="#fff" d="M-773.59-3488.704a6.438 6.438 0 0 0-5.988 4.082 6.438 6.438 0 0 0 5.988 4.083 6.438 6.438 0 0 0 5.988-4.083 6.438 6.438 0 0 0-5.988-4.082Zm0 6.804a2.723 2.723 0 0 1 0-5.443 2.723 2.723 0 0 1 0 5.443Zm0-4.355a1.63 1.63 0 0 0-1.633 1.633c0 .904.73 1.633 1.633 1.633a1.63 1.63 0 0 0 1.633-1.633c0-.903-.73-1.633-1.633-1.633Z"/></g></svg>