<svg xmlns="http://www.w3.org/2000/svg" width="16" height="16" viewBox="-672 -3490 16 16"><g fill="none"><path fill="#fff" d="M-661.714-3490h-4.572v1.524h4.572V-3490Zm-3.048 9.905h1.524v-4.572h-1.524v4.572Zm6.118-5.036 1.082-1.082a8.407 8.407 0 0 0-1.074-1.075l-1.082 1.082a6.828 6.828 0 0 0-4.282-1.508 6.858 6.858 0 1 0 6.857 6.857 6.829 6.829 0 0 0-1.5-4.274Zm-5.356 9.607a5.33 5.33 0 0 1-5.333-5.333 5.33 5.33 0 0 1 5.333-5.334 5.33 5.33 0 0 1 5.333 5.334 5.33 5.33 0 0 1-5.333 5.333Z"/></g></svg>