<svg xmlns="http://www.w3.org/2000/svg" viewBox="-432.5 -3450.5 14.714 17" width="14.714" height="17"><g fill="none"><path d="M-422.857-3450h-4.572v1.524h4.572V-3450Zm-3.048 9.905h1.524v-4.572h-1.524v4.572Zm6.118-5.036 1.082-1.082a8.41 8.41 0 0 0-1.074-1.075l-1.082 1.082a6.828 6.828 0 0 0-4.282-1.508 6.858 6.858 0 1 0 6.857 6.857 6.829 6.829 0 0 0-1.5-4.274Zm-5.356 9.607a5.33 5.33 0 0 1-5.333-5.333 5.33 5.33 0 0 1 5.333-5.334 5.33 5.33 0 0 1 5.333 5.334 5.33 5.33 0 0 1-5.333 5.333Z" fill="#fff"/></g></svg>