<svg xmlns="http://www.w3.org/2000/svg" width="13.714" height="16" viewBox="-421.59 -3492.622 13.714 16"><g fill="none"><path fill="#fff" d="M-412.447-3492.622h-4.572v1.524h4.572v-1.524Zm-3.048 9.905h1.524v-4.571h-1.524v4.571Zm6.118-5.036 1.082-1.082a8.416 8.416 0 0 0-1.074-1.074l-1.082 1.082a6.829 6.829 0 0 0-4.282-1.509 6.858 6.858 0 1 0 6.857 6.857 6.828 6.828 0 0 0-1.5-4.274Zm-5.356 9.608a5.33 5.33 0 0 1-5.334-5.334 5.33 5.33 0 0 1 5.334-5.333 5.33 5.33 0 0 1 5.333 5.333 5.33 5.33 0 0 1-5.333 5.333Z"/></g></svg>