<svg xmlns="http://www.w3.org/2000/svg" width="25.25" height="25.25" viewBox="-872.625 -3890.575 25.25 25.25"><g fill="none"><path fill="#fff" d="M-855.196-3889.95h-12.953A3.851 3.851 0 0 0-872-3886.1v12.995a3.851 3.851 0 0 0 3.851 3.852h12.953a3.851 3.851 0 0 0 3.851-3.852v-12.995a3.851 3.851 0 0 0-3.851-3.851Z"/><path stroke="#000" stroke-linecap="round" stroke-linejoin="round" stroke-width=".25" d="M-855.196-3889.95h-12.953A3.851 3.851 0 0 0-872-3886.1v12.995a3.851 3.851 0 0 0 3.851 3.852h12.953a3.851 3.851 0 0 0 3.851-3.852v-12.995a3.851 3.851 0 0 0-3.851-3.851Z"/><path fill="#fff" d="M-851.851-3886.648h-12.953a3.851 3.851 0 0 0-3.851 3.851v12.995a3.851 3.851 0 0 0 3.851 3.852h12.953a3.851 3.851 0 0 0 3.851-3.852v-12.995a3.851 3.851 0 0 0-3.851-3.851Z"/><path stroke="#000" stroke-linecap="round" stroke-linejoin="round" stroke-width=".25" d="M-851.851-3886.648h-12.953a3.851 3.851 0 0 0-3.851 3.851v12.995a3.851 3.851 0 0 0 3.851 3.852h12.953a3.851 3.851 0 0 0 3.851-3.852v-12.995a3.851 3.851 0 0 0-3.851-3.851Z"/><path fill="#518737" d="M-861.207-3872.228v3.484l6.687-6.097-6.687-6.097v3.572c-4.777 0-8.12-1.394-10.508-4.442.955 4.354 3.82 8.709 10.508 9.58Z"/></g></svg>