<svg xmlns="http://www.w3.org/2000/svg" width="102.706" height="103" viewBox="54.5 710.5 102.706 103"><g fill="none"><path fill="#fff" d="M125.81 712H72c-8.837 0-16 7.163-16 16v53.81c0 8.836 7.163 16 16 16h53.81c8.836 0 16-7.164 16-16V728c0-8.837-7.164-16-16-16Z"/><path stroke="#000" stroke-linecap="round" stroke-linejoin="round" stroke-width="3" d="M125.81 712H72c-8.837 0-16 7.163-16 16v53.81c0 8.836 7.163 16 16 16h53.81c8.836 0 16-7.164 16-16V728c0-8.837-7.164-16-16-16Z"/><path fill="#fff" d="M139.706 726.19h-53.81c-8.836 0-16 7.164-16 16V796c0 8.837 7.164 16 16 16h53.81c8.837 0 16-7.163 16-16v-53.81c0-8.836-7.163-16-16-16Z"/><path stroke="#000" stroke-linecap="round" stroke-linejoin="round" stroke-width="3" d="M139.706 726.19h-53.81c-8.836 0-16 7.164-16 16V796c0 8.837 7.164 16 16 16h53.81c8.837 0 16-7.163 16-16v-53.81c0-8.836-7.163-16-16-16Z"/><path fill="#518737" d="M101.655 779.557V794l27.78-25.276-27.78-25.276v14.805c-19.843 0-33.733-5.777-43.655-18.415 3.969 18.054 15.874 36.108 43.655 39.719Z"/></g></svg>