<svg xmlns="http://www.w3.org/2000/svg" viewBox="-862.09 -3893.122 25 25" width="25" height="25"><g fill="none"><path d="M-844.787-3892.622h-12.952a3.851 3.851 0 0 0-3.851 3.852v12.995a3.851 3.851 0 0 0 3.851 3.851h12.952a3.851 3.851 0 0 0 3.852-3.851v-12.995a3.851 3.851 0 0 0-3.852-3.852Z" fill="#fff"/><path d="M-844.787-3892.622h-12.952a3.851 3.851 0 0 0-3.851 3.852v12.995a3.851 3.851 0 0 0 3.851 3.851h12.952a3.851 3.851 0 0 0 3.852-3.851v-12.995a3.851 3.851 0 0 0-3.852-3.852Z" stroke="#000" stroke-linecap="round" stroke-linejoin="round" stroke-width=".25"/><path d="M-841.442-3889.32h-12.952a3.851 3.851 0 0 0-3.851 3.852v12.995a3.851 3.851 0 0 0 3.851 3.851h12.952a3.851 3.851 0 0 0 3.852-3.851v-12.995a3.851 3.851 0 0 0-3.852-3.852Z" fill="#fff"/><path d="M-841.442-3889.32h-12.952a3.851 3.851 0 0 0-3.851 3.852v12.995a3.851 3.851 0 0 0 3.851 3.851h12.952a3.851 3.851 0 0 0 3.852-3.851v-12.995a3.851 3.851 0 0 0-3.852-3.852Z" stroke="#000" stroke-linecap="round" stroke-linejoin="round" stroke-width=".25"/><path d="M-850.797-3874.9v3.485l6.687-6.097-6.687-6.097v3.571c-4.777 0-8.12-1.394-10.509-4.442.956 4.355 3.822 8.71 10.509 9.58Z" fill="#518737"/></g></svg>