<svg xmlns="http://www.w3.org/2000/svg" viewBox="-822.09 -3893.122 25 25" width="25" height="25"><g fill="none"><path d="M-817.75-3892.622h16.32a3.84 3.84 0 0 1 3.84 3.84v16.32a3.84 3.84 0 0 1-3.84 3.84h-16.32a3.84 3.84 0 0 1-3.84-3.84v-16.32a3.84 3.84 0 0 1 3.84-3.84Z" fill="#fff"/><path d="M-817.75-3892.622h16.32a3.84 3.84 0 0 1 3.84 3.84v16.32a3.84 3.84 0 0 1-3.84 3.84h-16.32a3.84 3.84 0 0 1-3.84-3.84v-16.32a3.84 3.84 0 0 1 3.84-3.84Z" stroke="#000" stroke-linecap="round" stroke-linejoin="round" stroke-width=".25"/><path d="M-813.85-3888.148v11.97l-2.8-3.024-1.1 1.192 4.68 5.068 4.681-5.068-1.1-1.192-2.8 3.025v-11.971Z" fill="#5c76a2"/><path d="M-801.767-3873.154h-4.934v-1.119l3.273-4.099h-3.192v-1.123h4.844v1.063l-3.316 4.16h3.325Z" fill="#9f4c4c"/><path d="M-803.032-3883.29h-2.336l-.438 1.303h-1.386l2.263-6.34h1.497l2.245 6.34h-1.436Zm-.37-1.093-.791-2.494-.818 2.494Z" fill="#518737"/></g></svg>