<svg xmlns="http://www.w3.org/2000/svg" width="25.25" height="25.25" viewBox="-832.625 -3890.625 25.25 25.25"><g fill="none"><path fill="#fff" d="M-828.16-3890h16.32a3.84 3.84 0 0 1 3.84 3.84v16.32a3.84 3.84 0 0 1-3.84 3.84h-16.32a3.84 3.84 0 0 1-3.84-3.84v-16.32a3.84 3.84 0 0 1 3.84-3.84Z"/><path stroke="#000" stroke-linecap="round" stroke-linejoin="round" stroke-width=".25" d="M-828.16-3890h16.32a3.84 3.84 0 0 1 3.84 3.84v16.32a3.84 3.84 0 0 1-3.84 3.84h-16.32a3.84 3.84 0 0 1-3.84-3.84v-16.32a3.84 3.84 0 0 1 3.84-3.84Z"/><path fill="#5c76a2" d="M-824.26-3885.526v11.97l-2.8-3.024-1.1 1.191 4.68 5.069 4.681-5.069-1.1-1.191-2.8 3.024v-11.97Z"/><path fill="#9f4c4c" d="M-812.177-3870.532h-4.934v-1.119l3.274-4.099h-3.192v-1.123h4.843v1.063l-3.316 4.159h3.325Z"/><path fill="#518737" d="M-813.442-3880.668h-2.335l-.44 1.303h-1.384l2.262-6.34h1.497l2.246 6.34h-1.437Zm-.37-1.093-.791-2.495-.817 2.495Z"/></g></svg>