<svg xmlns="http://www.w3.org/2000/svg" viewBox="2054.5 -1181.5 103 103" width="103" height="103"><g fill="none"><path d="M2072-1180h68c8.837 0 16 7.164 16 16v68c0 8.837-7.163 16-16 16h-68c-8.836 0-16-7.163-16-16v-68c0-8.836 7.164-16 16-16Z" fill="#fff"/><path d="M2072-1180h68c8.837 0 16 7.164 16 16v68c0 8.837-7.163 16-16 16h-68c-8.836 0-16-7.163-16-16v-68c0-8.836 7.164-16 16-16Z" stroke="#000" stroke-linecap="round" stroke-linejoin="round" stroke-width="3"/><path d="M2088.252-1161.36v49.879l-11.669-12.602-4.583 4.963 19.503 21.12 19.503-21.12-4.583-4.963-11.67 12.602v-49.878Z" fill="#5c76a2"/><path d="M2138.595-1098.886h-20.557v-4.66l13.639-17.08h-13.299v-4.678h20.181v4.427l-13.818 17.332h13.854Z" fill="#9f4c4c"/><path d="M2133.326-1141.118h-9.732l-1.828 5.43h-5.771l9.427-26.417h6.237l9.356 26.418h-5.986Zm-1.541-4.552-3.298-10.395-3.405 10.395Z" fill="#518737"/></g></svg>