<svg xmlns="http://www.w3.org/2000/svg" width="25.25" height="25.25" viewBox="-792.625 -3890.625 25.25 25.25"><g fill="none"><path fill="#fff" d="M-771.84-3890h-16.32a3.84 3.84 0 0 0-3.84 3.84v16.32a3.84 3.84 0 0 0 3.84 3.84h16.32a3.84 3.84 0 0 0 3.84-3.84v-16.32a3.84 3.84 0 0 0-3.84-3.84Z"/><path stroke="#000" stroke-linecap="round" stroke-linejoin="round" stroke-width=".25" d="M-771.84-3890h-16.32a3.84 3.84 0 0 0-3.84 3.84v16.32a3.84 3.84 0 0 0 3.84 3.84h16.32a3.84 3.84 0 0 0 3.84-3.84v-16.32a3.84 3.84 0 0 0-3.84-3.84Z"/><path fill="#5c76a2" d="M-781.934-3879.4v4.834H-780v-10.637h1.934v10.637h1.934v-10.637h1.934v-1.934h-7.736a3.867 3.867 0 0 0-3.868 3.868 3.867 3.867 0 0 0 3.868 3.868Zm-1.934 6.768v-2.9l-3.868 3.867 3.868 3.868v-2.9h11.604v-1.935h-11.604Z"/></g></svg>