<svg xmlns="http://www.w3.org/2000/svg" viewBox="-782.09 -3892.726 25 25" width="25" height="25"><g fill="none"><path d="M-761.43-3892.226h-16.32a3.84 3.84 0 0 0-3.84 3.84v16.32a3.84 3.84 0 0 0 3.84 3.84h16.32a3.84 3.84 0 0 0 3.84-3.84v-16.32a3.84 3.84 0 0 0-3.84-3.84Z" fill="#fff"/><path d="M-761.43-3892.226h-16.32a3.84 3.84 0 0 0-3.84 3.84v16.32a3.84 3.84 0 0 0 3.84 3.84h16.32a3.84 3.84 0 0 0 3.84-3.84v-16.32a3.84 3.84 0 0 0-3.84-3.84Z" stroke="#000" stroke-linecap="round" stroke-linejoin="round" stroke-width=".25"/><path d="M-771.524-3881.627v4.835h1.934v-10.637h1.934v10.637h1.934v-10.637h1.934v-1.934h-7.736a3.867 3.867 0 0 0-3.868 3.868 3.867 3.867 0 0 0 3.868 3.868Zm-1.934 6.77v-2.902l-3.868 3.868 3.868 3.868v-2.9h11.604v-1.935h-11.604Z" fill="#5c76a2"/></g></svg>