<svg xmlns="http://www.w3.org/2000/svg" width="25.25" height="25.25" viewBox="-752.625 -3890.625 25.25 25.25"><g fill="none"><path fill="#fff" d="M-748.16-3890h16.32a3.84 3.84 0 0 1 3.84 3.84v16.32a3.84 3.84 0 0 1-3.84 3.84h-16.32a3.84 3.84 0 0 1-3.84-3.84v-16.32a3.84 3.84 0 0 1 3.84-3.84Z"/><path stroke="#000" stroke-linecap="round" stroke-linejoin="round" stroke-width=".25" d="M-748.16-3890h16.32a3.84 3.84 0 0 1 3.84 3.84v16.32a3.84 3.84 0 0 1-3.84 3.84h-16.32a3.84 3.84 0 0 1-3.84-3.84v-16.32a3.84 3.84 0 0 1 3.84-3.84Z"/><path fill="#518737" d="m-744.581-3876 3.478-5.39v-3.61h2.151v3.61l3.479 5.39Zm12.02 2.57-5.315-8.235V-3885h.538c.296 0 .538-.225.538-.5s-.242-.5-.538-.5h-5.378c-.296 0-.538.225-.538.5s.242.5.538.5h.538v3.336l-5.316 8.234c-1.218 1.886-.278 3.43 2.089 3.43h10.756c2.366 0 3.306-1.544 2.089-3.43"/></g></svg>