<svg xmlns="http://www.w3.org/2000/svg" viewBox="-742.09 -3892.726 25 25" width="25" height="25"><g fill="none"><path d="M-737.75-3892.226h16.32a3.84 3.84 0 0 1 3.84 3.84v16.32a3.84 3.84 0 0 1-3.84 3.84h-16.32a3.84 3.84 0 0 1-3.84-3.84v-16.32a3.84 3.84 0 0 1 3.84-3.84Z" fill="#fff"/><path d="M-737.75-3892.226h16.32a3.84 3.84 0 0 1 3.84 3.84v16.32a3.84 3.84 0 0 1-3.84 3.84h-16.32a3.84 3.84 0 0 1-3.84-3.84v-16.32a3.84 3.84 0 0 1 3.84-3.84Z" stroke="#000" stroke-linecap="round" stroke-linejoin="round" stroke-width=".25"/><path d="m-734.171-3878.226 3.478-5.39v-3.61h2.151v3.61l3.479 5.39Zm12.02 2.57-5.315-8.235v-3.335h.538c.295 0 .537-.225.537-.5s-.242-.5-.537-.5h-5.378c-.296 0-.538.225-.538.5s.242.5.538.5h.537v3.335l-5.315 8.235c-1.218 1.886-.278 3.43 2.089 3.43h10.756c2.366 0 3.306-1.544 2.088-3.43" fill="#518737"/></g></svg>