<svg xmlns="http://www.w3.org/2000/svg" width="105.21" height="105.21" viewBox="1922.468 -681.678 105.21 105.21"><g fill="none"><path fill="#fff" d="M1940.343-680.145h69.459c9.026 0 16.343 7.317 16.343 16.343v69.459c0 9.026-7.317 16.343-16.343 16.343h-69.459c-9.026 0-16.343-7.317-16.343-16.343v-69.46c0-9.025 7.317-16.342 16.343-16.342Z"/><path stroke="#000" stroke-linecap="round" stroke-linejoin="round" stroke-width="3.064" d="M1940.343-680.145h69.459c9.026 0 16.343 7.317 16.343 16.343v69.459c0 9.026-7.317 16.343-16.343 16.343h-69.459c-9.026 0-16.343-7.317-16.343-16.343v-69.46c0-9.025 7.317-16.342 16.343-16.342Z"/><path fill="#518737" d="m1955.575-620.56 14.805-22.939v-15.366h9.155v15.366l14.805 22.938Zm51.161 10.938-22.623-35.047v-14.196h2.289c1.259 0 2.289-.958 2.289-2.128 0-1.17-1.03-2.128-2.289-2.128h-22.889c-1.259 0-2.289.957-2.289 2.128 0 1.17 1.03 2.128 2.289 2.128h2.289v14.196l-22.624 35.047c-5.184 8.029-1.183 14.598 8.89 14.598h45.778c10.072 0 14.073-6.57 8.89-14.598"/></g></svg>