<svg xmlns="http://www.w3.org/2000/svg" viewBox="-662.09 -3892.726 25 25" width="25" height="25"><g fill="none"><path d="M-657.75-3892.226h16.32a3.84 3.84 0 0 1 3.84 3.84v16.32a3.84 3.84 0 0 1-3.84 3.84h-16.32a3.84 3.84 0 0 1-3.84-3.84v-16.32a3.84 3.84 0 0 1 3.84-3.84Z" fill="#fff"/><path d="M-657.75-3892.226h16.32a3.84 3.84 0 0 1 3.84 3.84v16.32a3.84 3.84 0 0 1-3.84 3.84h-16.32a3.84 3.84 0 0 1-3.84-3.84v-16.32a3.84 3.84 0 0 1 3.84-3.84Z" stroke="#000" stroke-linecap="round" stroke-linejoin="round" stroke-width=".25"/><circle cx="-649.77" cy="-3883.286" r="5.58" fill="#9f4c4c" fill-opacity=".81"/><circle cx="-646.53" cy="-3877.166" r="5.58" fill="#518737" fill-opacity=".74"/><circle cx="-652.65" cy="-3877.166" r="5.58" fill="#5c76a2" fill-opacity=".74"/></g></svg>