<svg xmlns="http://www.w3.org/2000/svg" viewBox="-582.09 -3892.726 25 25" width="25" height="25"><g fill="none"><path d="M-561.43-3892.226h-16.32a3.84 3.84 0 0 0-3.84 3.84v16.32a3.84 3.84 0 0 0 3.84 3.84h16.32a3.84 3.84 0 0 0 3.84-3.84v-16.32a3.84 3.84 0 0 0-3.84-3.84Z" fill="#fff"/><path d="M-561.43-3892.226h-16.32a3.84 3.84 0 0 0-3.84 3.84v16.32a3.84 3.84 0 0 0 3.84 3.84h16.32a3.84 3.84 0 0 0 3.84-3.84v-16.32a3.84 3.84 0 0 0-3.84-3.84Z" stroke="#000" stroke-linecap="round" stroke-linejoin="round" stroke-width=".25"/><path fill="#a7967d" d="M-578.553-3888.386h13.72v2.421h-13.72zM-578.553-3883.544h8.071v2.421h-8.071zM-578.553-3879.004h4.035v2.421h-4.035z"/><path fill="#518737" d="M-571.289-3879.105h11.299v2.421h-11.299z"/><path fill="#518737" d="M-566.85-3883.544h2.421v11.299h-2.421z"/><path fill="#a7967d" d="M-578.553-3874.464h6.961v2.421h-6.961z"/></g></svg>