<svg xmlns="http://www.w3.org/2000/svg" width="103" height="103" viewBox="1804.5 -798.5 103 103"><g fill="none"><path fill="#fff" d="M1890-797h-68c-8.837 0-16 7.163-16 16v68c0 8.837 7.163 16 16 16h68c8.837 0 16-7.163 16-16v-68c0-8.837-7.163-16-16-16Z"/><path stroke="#000" stroke-linecap="round" stroke-linejoin="round" stroke-width="3" d="M1890-797h-68c-8.837 0-16 7.163-16 16v68c0 8.837 7.163 16 16 16h68c8.837 0 16-7.163 16-16v-68c0-8.837-7.163-16-16-16Z"/><path fill="#a7967d" d="M1821.952-713.895h68.097v4.943h-68.097zM1831.562-749.665h4.943v25.19h-4.943z"/><path stroke="#a7967d" stroke-linecap="round" stroke-linejoin="round" stroke-width="7" d="M1831.562-749.665h4.943v25.19h-4.943z"/><path fill="#a7967d" d="M1853.529-749.49h4.943v25.19h-4.943z"/><path stroke="#a7967d" stroke-linecap="round" stroke-linejoin="round" stroke-width="7" d="M1853.529-749.49h4.943v25.19h-4.943z"/><path fill="#a7967d" d="M1875.495-749.316h4.943v25.19h-4.943z"/><path stroke="#a7967d" stroke-linecap="round" stroke-linejoin="round" stroke-width="7" d="M1875.495-749.316h4.943v25.19h-4.943z"/><path fill="#a7967d" d="M1821.952-760.112 1856-785.048l34.048 24.936Z"/></g></svg>