<svg xmlns="http://www.w3.org/2000/svg" width="103" height="103" viewBox="1804.5 -919.5 103 103"><g fill="none"><path fill="#fff" d="M1822-918h68c8.837 0 16 7.163 16 16v68c0 8.837-7.163 16-16 16h-68c-8.836 0-16-7.163-16-16v-68c0-8.837 7.164-16 16-16Z"/><path stroke="#000" stroke-linecap="round" stroke-linejoin="round" stroke-width="3" d="M1822-918h68c8.837 0 16 7.163 16 16v68c0 8.837-7.163 16-16 16h-68c-8.836 0-16-7.163-16-16v-68c0-8.837 7.164-16 16-16Z"/><circle cx="1855.25" cy="-880.75" r="23.25" fill="#9f4c4c" fill-opacity=".81"/><circle cx="1868.75" cy="-855.25" r="23.25" fill="#518737" fill-opacity=".74"/><circle cx="1843.25" cy="-855.25" r="23.25" fill="#5c76a2" fill-opacity=".74"/></g></svg>