<svg xmlns="http://www.w3.org/2000/svg" width="103" height="103" viewBox="1804.5 -673.5 103 103"><g fill="none"><path fill="#fff" d="M1890-672h-68c-8.837 0-16 7.163-16 16v68c0 8.837 7.163 16 16 16h68c8.837 0 16-7.163 16-16v-68c0-8.837-7.163-16-16-16Z"/><path stroke="#000" stroke-linecap="round" stroke-linejoin="round" stroke-width="3" d="M1890-672h-68c-8.837 0-16 7.163-16 16v68c0 8.837 7.163 16 16 16h68c8.837 0 16-7.163 16-16v-68c0-8.837-7.163-16-16-16Z"/><path fill="#a7967d" d="M1818.655-656h57.168v10.088h-57.168zM1818.655-635.823h33.628v10.088h-33.628zM1818.655-616.907h16.814v10.088h-16.814z"/><path fill="#518737" d="M1848.921-617.328H1896v10.088h-47.079z"/><path fill="#518737" d="M1867.416-635.823h10.088v47.079h-10.088z"/><path fill="#a7967d" d="M1818.655-597.991h29.004v10.088h-29.004z"/></g></svg>