<svg xmlns="http://www.w3.org/2000/svg" width="25.25" height="25.25" viewBox="-592.625 -3890.625 25.25 25.25"><g fill="none"><path fill="#fff" d="M-571.84-3890h-16.32a3.84 3.84 0 0 0-3.84 3.84v16.32a3.84 3.84 0 0 0 3.84 3.84h16.32a3.84 3.84 0 0 0 3.84-3.84v-16.32a3.84 3.84 0 0 0-3.84-3.84Z"/><path stroke="#000" stroke-linecap="round" stroke-linejoin="round" stroke-width=".25" d="M-571.84-3890h-16.32a3.84 3.84 0 0 0-3.84 3.84v16.32a3.84 3.84 0 0 0 3.84 3.84h16.32a3.84 3.84 0 0 0 3.84-3.84v-16.32a3.84 3.84 0 0 0-3.84-3.84Z"/><path fill="#a7967d" d="M-588.963-3886.16h13.72v2.421h-13.72zM-588.963-3881.318h8.071v2.421h-8.071zM-588.963-3876.778h4.035v2.421h-4.035z"/><path fill="#518737" d="M-581.699-3876.879h11.299v2.421h-11.299z"/><path fill="#518737" d="M-577.26-3881.318h2.421v11.299h-2.421z"/><path fill="#a7967d" d="M-588.963-3872.238h6.961v2.421h-6.961z"/></g></svg>