<svg xmlns="http://www.w3.org/2000/svg" viewBox="-702.09 -3892.726 25 25" width="25" height="25"><g fill="none"><path d="M-681.43-3892.226h-16.32a3.84 3.84 0 0 0-3.84 3.84v16.32a3.84 3.84 0 0 0 3.84 3.84h16.32a3.84 3.84 0 0 0 3.84-3.84v-16.32a3.84 3.84 0 0 0-3.84-3.84Z" fill="#fff"/><path d="M-681.43-3892.226h-16.32a3.84 3.84 0 0 0-3.84 3.84v16.32a3.84 3.84 0 0 0 3.84 3.84h16.32a3.84 3.84 0 0 0 3.84-3.84v-16.32a3.84 3.84 0 0 0-3.84-3.84Z" stroke="#000" stroke-linecap="round" stroke-linejoin="round" stroke-width=".25"/><path fill="#a7967d" d="M-697.762-3872.281h16.343v1.186h-16.343zM-695.455-3880.866h1.186v6.046h-1.186z"/><path stroke="#a7967d" stroke-linecap="round" stroke-linejoin="round" stroke-width=".25" d="M-695.455-3880.866h1.186v6.046h-1.186z"/><path fill="#a7967d" d="M-690.183-3880.824h1.186v6.046h-1.186z"/><path stroke="#a7967d" stroke-linecap="round" stroke-linejoin="round" stroke-width=".25" d="M-690.183-3880.824h1.186v6.046h-1.186z"/><path fill="#a7967d" d="M-684.911-3880.782h1.186v6.046h-1.186z"/><path stroke="#a7967d" stroke-linecap="round" stroke-linejoin="round" stroke-width=".25" d="M-684.911-3880.782h1.186v6.046h-1.186z"/><path d="m-697.762-3883.373 8.172-5.985 8.171 5.985Z" fill="#a7967d"/></g></svg>