<svg xmlns="http://www.w3.org/2000/svg" width="25.25" height="25.25" viewBox="-632.625 -3890.625 25.25 25.25"><g fill="none"><path fill="#fff" d="M-628.16-3890h16.32a3.84 3.84 0 0 1 3.84 3.84v16.32a3.84 3.84 0 0 1-3.84 3.84h-16.32a3.84 3.84 0 0 1-3.84-3.84v-16.32a3.84 3.84 0 0 1 3.84-3.84Z"/><path stroke="#000" stroke-linecap="round" stroke-linejoin="round" stroke-width=".25" d="M-628.16-3890h16.32a3.84 3.84 0 0 1 3.84 3.84v16.32a3.84 3.84 0 0 1-3.84 3.84h-16.32a3.84 3.84 0 0 1-3.84-3.84v-16.32a3.84 3.84 0 0 1 3.84-3.84Z"/><path fill="#a7967d" d="M-624.552-3883.776a1.34 1.34 0 0 0-.423-.073.798.798 0 0 0-.488.146 1.041 1.041 0 0 0-.313.379 1.743 1.743 0 0 0-.16.532c-.03.199-.044.405-.044.619v1.53h1.224v.786h-1.224v6.439h-.947v-6.439h-.976v-.787h.976v-1.53c0-.737.148-1.337.445-1.798.296-.462.764-.692 1.405-.692.224 0 .423.029.597.087ZM-622.586-3871.015c-.553-.913-.98-1.947-1.282-3.102a13.817 13.817 0 0 1-.451-3.497c0-1.175.15-2.34.451-3.496.301-1.156.729-2.19 1.282-3.103l.802.379a9.309 9.309 0 0 0-.678 1.377c-.199.5-.366 1.02-.503 1.558-.135.54-.24 1.088-.313 1.646-.072.559-.109 1.105-.109 1.64 0 .533.036 1.08.11 1.638.072.559.177 1.107.313 1.646.136.54.303 1.059.502 1.559.2.5.425.959.678 1.377ZM-616.846-3873.418l-1.442-3.03-1.428 3.03h-1.063l1.923-3.802-1.763-3.424h1.078l1.267 2.724 1.253-2.724h1.049l-1.734 3.409 1.952 3.817ZM-614.763-3871.393c.253-.418.478-.877.677-1.377.2-.5.367-1.02.503-1.559.136-.539.24-1.087.313-1.646.073-.558.11-1.105.11-1.639s-.037-1.08-.11-1.639a14.28 14.28 0 0 0-.313-1.646 12.431 12.431 0 0 0-.503-1.558c-.199-.5-.424-.96-.677-1.377l.801-.379c.554.913.981 1.947 1.282 3.103.301 1.156.452 2.321.452 3.496 0 1.175-.15 2.341-.452 3.497-.3 1.155-.728 2.19-1.282 3.102Z"/></g></svg>