<svg xmlns="http://www.w3.org/2000/svg" width="105.21" height="105.21" viewBox="2051.395 -929.678 105.21 105.21"><g fill="none"><path fill="#fff" d="M2069.27-928.145h69.46c9.026 0 16.343 7.317 16.343 16.343v69.459c0 9.026-7.317 16.343-16.344 16.343h-69.458c-9.027 0-16.344-7.317-16.344-16.343v-69.46c0-9.025 7.317-16.342 16.344-16.342Z"/><path stroke="#000" stroke-linecap="round" stroke-linejoin="round" stroke-width="3.064" d="M2069.27-928.145h69.46c9.026 0 16.343 7.317 16.343 16.343v69.459c0 9.026-7.317 16.343-16.344 16.343h-69.458c-9.027 0-16.344-7.317-16.344-16.343v-69.46c0-9.025 7.317-16.342 16.344-16.342Z"/><text fill="#a7967d" transform="translate(2069.435 -919.573)">
          <tspan x="0" y="62" font-family="Avenir Next Condensed" font-size="62">f(x)</tspan>
        </text></g></svg>