<svg xmlns="http://www.w3.org/2000/svg" viewBox="-622.09 -3892.726 25 25" width="25" height="25"><g fill="none"><path d="M-617.75-3892.226h16.32a3.84 3.84 0 0 1 3.84 3.84v16.32a3.84 3.84 0 0 1-3.84 3.84h-16.32a3.84 3.84 0 0 1-3.84-3.84v-16.32a3.84 3.84 0 0 1 3.84-3.84Z" fill="#fff"/><path d="M-617.75-3892.226h16.32a3.84 3.84 0 0 1 3.84 3.84v16.32a3.84 3.84 0 0 1-3.84 3.84h-16.32a3.84 3.84 0 0 1-3.84-3.84v-16.32a3.84 3.84 0 0 1 3.84-3.84Z" stroke="#000" stroke-linecap="round" stroke-linejoin="round" stroke-width=".25"/><path d="M-614.143-3886.002a1.338 1.338 0 0 0-.422-.073.798.798 0 0 0-.488.146 1.042 1.042 0 0 0-.313.379 1.748 1.748 0 0 0-.16.532c-.03.198-.044.405-.044.619v1.529h1.223v.787h-1.223v6.439h-.947v-6.439h-.976v-.787h.976v-1.53c0-.737.148-1.337.444-1.798.296-.462.765-.693 1.406-.693.223 0 .422.03.597.088ZM-612.176-3873.24c-.554-.914-.98-1.948-1.282-3.104a13.817 13.817 0 0 1-.452-3.496c0-1.175.151-2.34.452-3.496.301-1.156.728-2.19 1.282-3.103l.801.379a9.307 9.307 0 0 0-.677 1.376c-.2.5-.367 1.02-.503 1.559-.136.539-.24 1.088-.313 1.646-.073.559-.11 1.105-.11 1.639s.037 1.08.11 1.639c.073.559.177 1.107.313 1.646.136.539.304 1.059.503 1.559s.425.959.677 1.377ZM-606.436-3875.644l-1.443-3.03-1.427 3.03h-1.064l1.923-3.803-1.762-3.423h1.078l1.267 2.724 1.253-2.724h1.049l-1.734 3.409 1.952 3.817ZM-604.353-3873.62c.252-.417.478-.876.677-1.376.2-.5.367-1.02.503-1.559.136-.539.24-1.088.313-1.646.073-.558.11-1.105.11-1.639s-.037-1.08-.11-1.639a14.281 14.281 0 0 0-.313-1.646 12.444 12.444 0 0 0-.503-1.559c-.199-.5-.425-.958-.677-1.376l.8-.379c.554.913.982 1.947 1.283 3.103.3 1.156.451 2.321.451 3.496 0 1.175-.15 2.34-.451 3.496-.301 1.156-.729 2.19-1.282 3.103Z" fill="#a7967d"/></g></svg>