<svg xmlns="http://www.w3.org/2000/svg" width="103" height="103" viewBox="2266.5 -683.5 103 103"><g fill="none"><path fill="#fff" d="M2352-682h-68c-8.837 0-16 7.163-16 16v68c0 8.837 7.163 16 16 16h68c8.837 0 16-7.163 16-16v-68c0-8.837-7.163-16-16-16Z"/><path stroke="#000" stroke-linecap="round" stroke-linejoin="round" stroke-width="3" d="M2352-682h-68c-8.837 0-16 7.163-16 16v68c0 8.837 7.163 16 16 16h68c8.837 0 16-7.163 16-16v-68c0-8.837-7.163-16-16-16Z"/><path fill="#518737" d="M2288-660.982h62.823v4.024H2288zM2288-643.828h62.823v4.024H2288zM2288-624.172h62.823v4.024H2288zM2288-608.024h47.117V-604H2288z"/><path fill="#f8e964" d="M2304.095-627.283h23.137v10.059h-23.137zM2318.178-646.396h23.137v10.059h-23.137z"/><path fill="#2b4e1b" d="M2294.036-664h23.137v10.059h-23.137z"/></g></svg>