<svg xmlns="http://www.w3.org/2000/svg" viewBox="-502.09 -3892.726 25 25" width="25" height="25"><g fill="none"><path d="M-481.43-3892.226h-16.32a3.84 3.84 0 0 0-3.84 3.84v16.32a3.84 3.84 0 0 0 3.84 3.84h16.32a3.84 3.84 0 0 0 3.84-3.84v-16.32a3.84 3.84 0 0 0-3.84-3.84Z" fill="#fff"/><path d="M-481.43-3892.226h-16.32a3.84 3.84 0 0 0-3.84 3.84v16.32a3.84 3.84 0 0 0 3.84 3.84h16.32a3.84 3.84 0 0 0 3.84-3.84v-16.32a3.84 3.84 0 0 0-3.84-3.84Z" stroke="#000" stroke-linecap="round" stroke-linejoin="round" stroke-width=".25"/><path d="m-496.36-3884.833 2.367 2.367 1.053-1.053-3.42-3.427-3.427 3.427 1.06 1.053 2.367-2.367Zm0 9.214-2.367-2.367-1.053 1.053 3.42 3.427 3.427-3.427-1.06-1.053-2.367 2.367Z" fill="#518737"/><path stroke="#000" stroke-linecap="round" stroke-linejoin="round" stroke-width=".25" d="M-491.51-3892.226v24"/></g></svg>