<svg xmlns="http://www.w3.org/2000/svg" viewBox="-462.09 -3892.726 25 25" width="25" height="25"><g fill="none"><path d="M-441.43-3892.226h-16.32a3.84 3.84 0 0 0-3.84 3.84v16.32a3.84 3.84 0 0 0 3.84 3.84h16.32a3.84 3.84 0 0 0 3.84-3.84v-16.32a3.84 3.84 0 0 0-3.84-3.84Z" fill="#fff"/><path d="M-441.43-3892.226h-16.32a3.84 3.84 0 0 0-3.84 3.84v16.32a3.84 3.84 0 0 0 3.84 3.84h16.32a3.84 3.84 0 0 0 3.84-3.84v-16.32a3.84 3.84 0 0 0-3.84-3.84Z" stroke="#000" stroke-linecap="round" stroke-linejoin="round" stroke-width=".25"/><path fill="#518737" d="M-456.79-3887.182h15.078v.966h-15.078zM-456.79-3883.065h15.078v.966h-15.078zM-456.79-3878.347h15.078v.966h-15.078zM-456.79-3874.472h11.308v.966h-11.308z"/><path fill="#f8e964" d="M-452.927-3879.094h5.553v2.414h-5.553zM-449.547-3883.681h5.553v2.414h-5.553z"/><path fill="#2b4e1b" d="M-455.342-3887.906h5.553v2.414h-5.553z"/></g></svg>