<svg xmlns="http://www.w3.org/2000/svg" width="25.25" height="25.25" viewBox="-472.625 -3890.625 25.25 25.25"><g fill="none"><path fill="#fff" d="M-451.84-3890h-16.32a3.84 3.84 0 0 0-3.84 3.84v16.32a3.84 3.84 0 0 0 3.84 3.84h16.32a3.84 3.84 0 0 0 3.84-3.84v-16.32a3.84 3.84 0 0 0-3.84-3.84Z"/><path stroke="#000" stroke-linecap="round" stroke-linejoin="round" stroke-width=".25" d="M-451.84-3890h-16.32a3.84 3.84 0 0 0-3.84 3.84v16.32a3.84 3.84 0 0 0 3.84 3.84h16.32a3.84 3.84 0 0 0 3.84-3.84v-16.32a3.84 3.84 0 0 0-3.84-3.84Z"/><path fill="#518737" d="M-467.2-3884.956h15.078v.966H-467.2zM-467.2-3880.839h15.078v.966H-467.2zM-467.2-3876.121h15.078v.966H-467.2zM-467.2-3872.246h11.308v.966H-467.2z"/><path fill="#f8e964" d="M-463.337-3876.868h5.553v2.414h-5.553zM-459.957-3881.455h5.553v2.414h-5.553z"/><path fill="#2b4e1b" d="M-465.751-3885.68h5.553v2.414h-5.553z"/></g></svg>