<svg xmlns="http://www.w3.org/2000/svg" width="103" height="103.086" viewBox="1932.5 -805.586 103 103.086"><g fill="none"><path fill="#fff" d="M2018-804h-68c-8.837 0-16 7.163-16 16v68c0 8.837 7.163 16 16 16h68c8.837 0 16-7.163 16-16v-68c0-8.837-7.163-16-16-16Z"/><path stroke="#000" stroke-linecap="round" stroke-linejoin="round" stroke-width="3" d="M2018-804h-68c-8.837 0-16 7.163-16 16v68c0 8.837 7.163 16 16 16h68c8.837 0 16-7.163 16-16v-68c0-8.837-7.163-16-16-16Z"/><path fill="#518737" d="M1950-732.873h8.506v2.145h-4.253v4.291h4.253v2.146H1950V-720h12.76v-17.165H1950v4.292Zm4.253-38.62h4.253v-17.165H1950v4.29h4.253v12.874ZM1950-758.62h7.656L1950-749.61v3.862h12.76v-4.291h-7.656l7.655-9.011v-3.862H1950v4.29ZM1969.502-783.141h49.156v4.904h-49.156zM1969.502-757.33h49.156v4.904h-49.156zM1969.502-730.921h49.156v4.904h-49.156z"/><path fill="#fff" d="M1966-792h60v74h-60z"/><path stroke="#000" stroke-linecap="round" stroke-linejoin="round" stroke-width="3" d="M1972-804.086v100"/></g></svg>