<svg xmlns="http://www.w3.org/2000/svg" width="25.25" height="25.25" viewBox="-432.625 -3890.604 25.25 25.25"><g fill="none"><path fill="#fff" d="M-411.84-3889.98h-16.32a3.84 3.84 0 0 0-3.84 3.84v16.32a3.84 3.84 0 0 0 3.84 3.84h16.32a3.84 3.84 0 0 0 3.84-3.84v-16.32a3.84 3.84 0 0 0-3.84-3.84Z"/><path stroke="#000" stroke-linecap="round" stroke-linejoin="round" stroke-width=".25" d="M-411.84-3889.98h-16.32a3.84 3.84 0 0 0-3.84 3.84v16.32a3.84 3.84 0 0 0 3.84 3.84h16.32a3.84 3.84 0 0 0 3.84-3.84v-16.32a3.84 3.84 0 0 0-3.84-3.84Z"/><path fill="#518737" d="M-428.16-3872.909h2.042v.515h-1.021v1.03h1.02v.515h-2.041v1.03h3.062v-4.12h-3.062v1.03Zm1.02-9.269h1.022v-4.12h-2.042v1.03h1.02v3.09Zm-1.02 3.09h1.837l-1.837 2.162v.927h3.062v-1.03h-1.837l1.837-2.162v-.927h-3.062v1.03ZM-423.48-3884.973h11.798v1.177h-11.798zM-423.48-3878.779h11.798v1.177h-11.798zM-423.48-3872.44h11.798v1.177h-11.798z"/><path fill="#fff" d="M-424.32-3887.099h14.4v17.76h-14.4z"/><path stroke="#000" stroke-linecap="round" stroke-linejoin="round" stroke-width=".25" d="M-422.88-3889.979V-3866"/></g></svg>