<svg xmlns="http://www.w3.org/2000/svg" width="25.25" height="25.25" viewBox="-512.625 -3890.625 25.25 25.25"><g fill="none"><path fill="#fff" d="M-491.84-3890h-16.32a3.84 3.84 0 0 0-3.84 3.84v16.32a3.84 3.84 0 0 0 3.84 3.84h16.32a3.84 3.84 0 0 0 3.84-3.84v-16.32a3.84 3.84 0 0 0-3.84-3.84Z"/><path stroke="#000" stroke-linecap="round" stroke-linejoin="round" stroke-width=".25" d="M-491.84-3890h-16.32a3.84 3.84 0 0 0-3.84 3.84v16.32a3.84 3.84 0 0 0 3.84 3.84h16.32a3.84 3.84 0 0 0 3.84-3.84v-16.32a3.84 3.84 0 0 0-3.84-3.84Z"/><path fill="#518737" d="m-506.77-3882.607 2.367 2.367 1.053-1.053-3.42-3.427-3.427 3.427 1.06 1.053 2.367-2.367Zm0 9.214-2.367-2.367-1.053 1.053 3.42 3.427 3.427-3.427-1.06-1.053-2.367 2.367Z"/><path stroke="#000" stroke-linecap="round" stroke-linejoin="round" stroke-width=".25" d="M-501.92-3890v24"/></g></svg>