<svg xmlns="http://www.w3.org/2000/svg" width="103" height="103" viewBox="2052.5 -803.5 103 103"><g fill="none"><path fill="#fff" d="M2138-802h-68c-8.837 0-16 7.163-16 16v68c0 8.837 7.163 16 16 16h68c8.837 0 16-7.163 16-16v-68c0-8.837-7.163-16-16-16Z"/><path stroke="#000" stroke-linecap="round" stroke-linejoin="round" stroke-width="3" d="M2138-802h-68c-8.837 0-16 7.163-16 16v68c0 8.837 7.163 16 16 16h68c8.837 0 16-7.163 16-16v-68c0-8.837-7.163-16-16-16Z"/><path fill="#518737" d="m2075.793-771.196 9.862 9.863 4.386-4.387-14.248-14.28-14.28 14.28 4.417 4.387 9.863-9.863Zm0 38.392-9.863-9.863-4.386 4.387 14.249 14.28 14.28-14.28-4.418-4.387-9.862 9.863Z"/><path stroke="#000" stroke-linecap="round" stroke-linejoin="round" stroke-width="3" d="M2096-802v100"/></g></svg>