<svg xmlns="http://www.w3.org/2000/svg" width="103.064" height="103.174" viewBox="2051.395 -681.678 103.064 103.174"><g fill="none"><path fill="#fff" d="M2069.27-680.145h67.314c9.026 0 16.343 7.317 16.343 16.343v67.313c0 9.027-7.317 16.344-16.343 16.344h-67.313c-9.027 0-16.344-7.317-16.344-16.344v-67.313c0-9.026 7.317-16.343 16.344-16.343Z"/><path stroke="#000" stroke-linecap="round" stroke-linejoin="round" stroke-width="3.064" d="M2069.27-680.145h67.314c9.026 0 16.343 7.317 16.343 16.343v67.313c0 9.027-7.317 16.344-16.343 16.344h-67.313c-9.027 0-16.344-7.317-16.344-16.344v-67.313c0-9.026 7.317-16.343 16.344-16.343Z"/><path fill="#ffe000" d="M2120.805-663.82h25v16.667h-25z"/><path fill="#9f4c4c" d="M2120.805-617.893h25v16.667h-25z"/><path stroke="#000" stroke-linecap="round" stroke-linejoin="round" stroke-width="3" d="M2112.717-680.003v100"/></g></svg>