<svg xmlns="http://www.w3.org/2000/svg" width="103.064" height="103.064" viewBox="1932.468 -927.532 103.064 103.064"><g fill="none"><path fill="#fff" d="M1950.343-926h67.314c9.026 0 16.343 7.317 16.343 16.343v67.314c0 9.026-7.317 16.343-16.343 16.343h-67.314c-9.026 0-16.343-7.317-16.343-16.343v-67.314c0-9.026 7.317-16.343 16.343-16.343Z"/><path stroke="#000" stroke-linecap="round" stroke-linejoin="round" stroke-width="3.064" d="M1950.343-926h67.314c9.026 0 16.343 7.317 16.343 16.343v67.314c0 9.026-7.317 16.343-16.343 16.343h-67.314c-9.026 0-16.343-7.317-16.343-16.343v-67.314c0-9.026 7.317-16.343 16.343-16.343Z"/><path fill="#518737" d="M1961-912h49.222c6.075 0 11 4.925 11 11v49.222c0 6.075-4.925 11-11 11H1961c-6.075 0-11-4.925-11-11V-901c0-6.075 4.925-11 11-11Z"/><path fill="#d6edca" d="M1967.026-905.018h37.044c6.075 0 11 4.925 11 11v36.654c0 6.075-4.925 11-11 11h-37.043c-6.076 0-11-4.925-11-11v-36.654c0-6.075 4.924-11 11-11Z"/></g></svg>