<svg xmlns="http://www.w3.org/2000/svg" viewBox="-422.09 -3892.706 25 25" width="25" height="25"><g fill="none"><path d="M-401.43-3892.206h-16.32a3.84 3.84 0 0 0-3.84 3.84v16.32a3.84 3.84 0 0 0 3.84 3.84h16.32a3.84 3.84 0 0 0 3.84-3.84v-16.32a3.84 3.84 0 0 0-3.84-3.84Z" fill="#fff"/><path d="M-401.43-3892.206h-16.32a3.84 3.84 0 0 0-3.84 3.84v16.32a3.84 3.84 0 0 0 3.84 3.84h16.32a3.84 3.84 0 0 0 3.84-3.84v-16.32a3.84 3.84 0 0 0-3.84-3.84Z" stroke="#000" stroke-linecap="round" stroke-linejoin="round" stroke-width=".25"/><path d="M-417.75-3875.135h2.041v.515h-1.02v1.03h1.02v.515h-2.041v1.03h3.062v-4.12h-3.062v1.03Zm1.02-9.269h1.021v-4.12h-2.041v1.03h1.02v3.09Zm-1.02 3.09h1.837l-1.837 2.162v.927h3.062v-1.03h-1.837l1.837-2.162v-.927h-3.062v1.03ZM-413.07-3887.199h11.798v1.177h-11.798zM-413.07-3881.005h11.798v1.177h-11.798zM-413.07-3874.666h11.798v1.177h-11.798z" fill="#518737"/><path fill="#fff" d="M-413.91-3889.325h14.4v17.76h-14.4z"/><path stroke="#000" stroke-linecap="round" stroke-linejoin="round" stroke-width=".25" d="M-412.47-3892.206v23.98"/></g></svg>