<svg xmlns="http://www.w3.org/2000/svg" width="25.25" height="25.25" viewBox="-392.625 -3890.625 25.25 25.25"><g fill="none"><path fill="#fff" d="M-388.078-3890h16.156a3.922 3.922 0 0 1 3.922 3.922v16.156a3.922 3.922 0 0 1-3.922 3.922h-16.156a3.922 3.922 0 0 1-3.922-3.922v-16.156a3.922 3.922 0 0 1 3.922-3.922Z"/><path stroke="#000" stroke-linecap="round" stroke-linejoin="round" stroke-width=".25" d="M-388.078-3890h16.156a3.922 3.922 0 0 1 3.922 3.922v16.156a3.922 3.922 0 0 1-3.922 3.922h-16.156a3.922 3.922 0 0 1-3.922-3.922v-16.156a3.922 3.922 0 0 1 3.922-3.922Z"/><path fill="#ffe000" d="M-375.709-3886.082h6v4h-6z"/><path fill="#9f4c4c" d="M-375.709-3875.059h6v4h-6z"/><path stroke="#000" stroke-linecap="round" stroke-linejoin="round" stroke-width=".25" d="M-377.65-3889.966V-3866"/></g></svg>