<svg xmlns="http://www.w3.org/2000/svg" width="25.25" height="25.25" viewBox="-552.625 -3890.625 25.25 25.25"><g fill="none"><path fill="#fff" d="M-548.078-3890h16.156a3.922 3.922 0 0 1 3.922 3.922v16.156a3.922 3.922 0 0 1-3.922 3.922h-16.156a3.922 3.922 0 0 1-3.922-3.922v-16.156a3.922 3.922 0 0 1 3.922-3.922Z"/><path stroke="#000" stroke-linecap="round" stroke-linejoin="round" stroke-width=".25" d="M-548.078-3890h16.156a3.922 3.922 0 0 1 3.922 3.922v16.156a3.922 3.922 0 0 1-3.922 3.922h-16.156a3.922 3.922 0 0 1-3.922-3.922v-16.156a3.922 3.922 0 0 1 3.922-3.922Z"/><path fill="#518737" d="M-545.907-3886.547h11.814a2.64 2.64 0 0 1 2.64 2.64v11.814a2.64 2.64 0 0 1-2.64 2.64h-11.814a2.64 2.64 0 0 1-2.64-2.64v-11.814a2.64 2.64 0 0 1 2.64-2.64Z"/><path fill="#d6edca" d="M-544.445-3885.038h8.89a2.64 2.64 0 0 1 2.64 2.64v8.796a2.64 2.64 0 0 1-2.64 2.64h-8.89a2.64 2.64 0 0 1-2.64-2.64v-8.796a2.64 2.64 0 0 1 2.64-2.64Z"/></g></svg>