<svg xmlns="http://www.w3.org/2000/svg" viewBox="-542.09 -3892.726 25 25" width="25" height="25"><g fill="none"><path d="M-537.668-3892.226h16.155a3.922 3.922 0 0 1 3.923 3.922v16.156a3.922 3.922 0 0 1-3.923 3.922h-16.155a3.922 3.922 0 0 1-3.922-3.922v-16.156a3.922 3.922 0 0 1 3.922-3.922Z" fill="#fff"/><path d="M-537.668-3892.226h16.155a3.922 3.922 0 0 1 3.923 3.922v16.156a3.922 3.922 0 0 1-3.923 3.922h-16.155a3.922 3.922 0 0 1-3.922-3.922v-16.156a3.922 3.922 0 0 1 3.922-3.922Z" stroke="#000" stroke-linecap="round" stroke-linejoin="round" stroke-width=".25"/><path d="M-535.497-3888.773h11.813a2.64 2.64 0 0 1 2.64 2.64v11.814a2.64 2.64 0 0 1-2.64 2.64h-11.813a2.64 2.64 0 0 1-2.64-2.64v-11.814a2.64 2.64 0 0 1 2.64-2.64Z" fill="#518737"/><path d="M-534.035-3887.265h8.89a2.64 2.64 0 0 1 2.64 2.64v8.797a2.64 2.64 0 0 1-2.64 2.64h-8.89a2.64 2.64 0 0 1-2.64-2.64v-8.796a2.64 2.64 0 0 1 2.64-2.64Z" fill="#d6edca"/></g></svg>