<svg xmlns="http://www.w3.org/2000/svg" viewBox="-382.09 -3892.726 25 25" width="25" height="25"><g fill="none"><path d="M-377.668-3892.226h16.155a3.922 3.922 0 0 1 3.923 3.922v16.156a3.922 3.922 0 0 1-3.923 3.922h-16.155a3.922 3.922 0 0 1-3.922-3.922v-16.156a3.922 3.922 0 0 1 3.922-3.922Z" fill="#fff"/><path d="M-377.668-3892.226h16.155a3.922 3.922 0 0 1 3.923 3.922v16.156a3.922 3.922 0 0 1-3.923 3.922h-16.155a3.922 3.922 0 0 1-3.922-3.922v-16.156a3.922 3.922 0 0 1 3.922-3.922Z" stroke="#000" stroke-linecap="round" stroke-linejoin="round" stroke-width=".25"/><path fill="#ffe000" d="M-365.3-3888.308h6v4h-6z"/><path fill="#9f4c4c" d="M-365.3-3877.285h6v4h-6z"/><path stroke="#000" stroke-linecap="round" stroke-linejoin="round" stroke-width=".25" d="M-367.241-3892.192v23.966"/></g></svg>