<svg xmlns="http://www.w3.org/2000/svg" viewBox="-792 -3249.291 24 18" width="24" height="18"><g fill="none"><path d="M-783-3244.654v-1.637l-2.5 2.182 2.5 2.182v-1.636c2.069 0 3.75 1.467 3.75 3.272 0 .551-.156 1.075-.438 1.528l.913.796a3.935 3.935 0 0 0 .775-2.324c0-2.41-2.237-4.363-5-4.363Zm0 7.636c-2.069 0-3.75-1.467-3.75-3.273 0-.55.156-1.074.438-1.527l-.913-.796a3.935 3.935 0 0 0-.775 2.323c0 2.411 2.237 4.364 5 4.364v1.636l2.5-2.181-2.5-2.182v1.636Z" fill="#999"/><path d="M-783-3244.654v-1.637l-2.5 2.182 2.5 2.182v-1.636c2.069 0 3.75 1.467 3.75 3.272 0 .551-.156 1.075-.438 1.528l.913.796a3.935 3.935 0 0 0 .775-2.324c0-2.41-2.237-4.363-5-4.363Zm0 7.636c-2.069 0-3.75-1.467-3.75-3.273 0-.55.156-1.074.438-1.527l-.913-.796a3.935 3.935 0 0 0-.775 2.323c0 2.411 2.237 4.364 5 4.364v1.636l2.5-2.181-2.5-2.182v1.636Z" stroke="#999" stroke-linecap="round" stroke-linejoin="round" stroke-width="1.525"/></g></svg>