<svg xmlns="http://www.w3.org/2000/svg" width="24" height="18" viewBox="-681 -3179 24 18"><g fill="none"><path fill="#999" d="M-677.477-3171.934v5.545h1.516v-5.545h.615v-1.597h-.615v-.436c0-.176.037-.304.11-.383a.335.335 0 0 1 .253-.119c.056 0 .102.003.139.007a.394.394 0 0 1 .113.033v-1.492a3.456 3.456 0 0 0-.725-.08c-.263.001-.485.036-.665.107a.942.942 0 0 0-.434.336 1.53 1.53 0 0 0-.236.601c-.048.246-.072.55-.072.91v.516H-678v1.597ZM-673.896-3164h1.23a14.277 14.277 0 0 1-.775-2.852 18.916 18.916 0 0 1-.236-3.036c0-1.056.079-2.075.236-3.056.157-.981.416-1.938.775-2.871h-1.23c-.37.906-.663 1.848-.877 2.825-.213.977-.32 2.011-.32 3.102 0 1.091.107 2.119.32 3.083.214.963.506 1.898.877 2.805Z"/><path fill="#999" d="m-672.683-3173.531 1.155 3.458-1.18 3.684h1.492l.556-2.152.53 2.152h1.518l-1.205-3.684 1.146-3.458h-1.517l-.523 1.914-.455-1.914Z"/><path fill="#999" d="M-667.45-3175.815h-1.204c.342.933.592 1.89.75 2.871.157.981.236 2 .236 3.056s-.08 2.068-.236 3.036a15.43 15.43 0 0 1-.75 2.852h1.205c.37-.907.662-1.842.876-2.805.213-.964.32-1.992.32-3.083 0-1.091-.107-2.125-.32-3.102a17.072 17.072 0 0 0-.876-2.825Z"/></g></svg>