<svg xmlns="http://www.w3.org/2000/svg" width="21.056" height="11.632" viewBox="-1043.752 -320.424 21.056 11.632"><g fill="none"><path fill="#000" d="M-1038.664-309v-11.2h-1.808c-.064.427-.197.784-.4 1.072-.203.288-.45.52-.744.696a2.984 2.984 0 0 1-.992.368c-.368.07-.75.099-1.144.088v1.712h2.816V-309ZM-1035.08-311.464h2.512V-309h-2.512zM-1028.984-314.648c0-.192.003-.424.008-.696a9.24 9.24 0 0 1 .056-.84c.032-.288.085-.573.16-.856.075-.283.179-.536.312-.76.133-.224.304-.405.512-.544.208-.139.467-.208.776-.208.31 0 .57.07.784.208.213.139.39.32.528.544.139.224.243.477.312.76a7.8 7.8 0 0 1 .224 1.696 25.295 25.295 0 0 1-.024 1.856 6.23 6.23 0 0 1-.2 1.312 2.754 2.754 0 0 1-.544 1.08c-.25.299-.61.448-1.08.448-.459 0-.81-.15-1.056-.448a2.816 2.816 0 0 1-.536-1.08 6.23 6.23 0 0 1-.2-1.312c-.021-.453-.032-.84-.032-1.16Zm-2.272 0c0 1.12.11 2.056.328 2.808.219.752.515 1.352.888 1.8.373.448.808.768 1.304.96a4.327 4.327 0 0 0 1.576.288c.565 0 1.096-.096 1.592-.288a3.243 3.243 0 0 0 1.312-.96c.379-.448.677-1.048.896-1.8.219-.752.328-1.688.328-2.808 0-1.088-.11-2.003-.328-2.744-.219-.741-.517-1.336-.896-1.784a3.243 3.243 0 0 0-1.312-.96 4.372 4.372 0 0 0-1.592-.288c-.555 0-1.08.096-1.576.288-.496.192-.93.512-1.304.96-.373.448-.67 1.043-.888 1.784-.219.741-.328 1.656-.328 2.744Z"/></g></svg>