<svg xmlns="http://www.w3.org/2000/svg" width="24" height="18" viewBox="-561 -3179 24 18"><g fill="none"><path fill="#999" d="M-556.333-3164.244v-8.488l-.998 1.301-.669-2.016 1.827-2.309h1.319v11.512ZM-551.416-3165.561c0 .412-.075.759-.226 1.04-.15.283-.342.423-.575.423-.238 0-.431-.14-.579-.422-.147-.282-.221-.629-.221-1.041 0-.401.074-.748.221-1.04.148-.293.34-.44.58-.44.232 0 .423.147.574.44.15.292.226.639.226 1.04ZM-546.283-3170c0 .65-.03 1.328-.09 2.032-.059.705-.169 1.353-.329 1.944-.16.59-.383 1.075-.668 1.455-.286.38-.655.569-1.107.569-.452 0-.821-.19-1.107-.569-.286-.38-.509-.865-.669-1.455a10.7 10.7 0 0 1-.325-1.944 25.452 25.452 0 0 1-.085-2.032c0-.65.029-1.328.085-2.032a10.7 10.7 0 0 1 .325-1.944c.16-.59.383-1.075.669-1.455.286-.38.655-.569 1.107-.569.452 0 .82.19 1.106.569.286.38.51.865.67 1.455.16.591.27 1.239.329 1.944.06.704.09 1.382.09 2.032Zm-1.507 0c0-.38-.008-.786-.023-1.22a12.213 12.213 0 0 0-.1-1.203 4.58 4.58 0 0 0-.206-.919c-.088-.243-.207-.365-.358-.365-.15 0-.27.122-.358.365-.088.244-.157.55-.207.92-.05.368-.084.769-.1 1.202a34.233 34.233 0 0 0 0 2.455c.016.434.05.833.1 1.196s.119.667.207.91c.088.244.207.366.358.366.15 0 .27-.122.358-.365.088-.244.157-.548.207-.911.05-.363.083-.762.099-1.195.015-.434.023-.846.023-1.236Z"/></g></svg>