<svg xmlns="http://www.w3.org/2000/svg" width="24" height="18" viewBox="-521 -3179 24 18"><g fill="none"><path fill="#999" d="m-513.512-3164.216-.345-2.147h-1.893l-.345 2.147H-518l2.048-11.784h2.393l2.035 11.784Zm-1.262-9.221h-.047l-.715 5.01h1.44ZM-508.274-3168.011h-.333c-.135 0-.266.017-.393.05a.727.727 0 0 0-.333.191.99.99 0 0 0-.226.366c-.056.15-.084.342-.084.575 0 .344.054.596.16.757.108.16.237.241.388.241.143 0 .268-.05.375-.15.107-.1.192-.23.256-.39.063-.162.11-.345.143-.55.031-.205.047-.408.047-.607Zm.06 2.713c-.08.388-.236.702-.47.94-.235.239-.538.358-.911.358a1.32 1.32 0 0 1-.56-.133 1.447 1.447 0 0 1-.524-.441c-.158-.206-.29-.477-.392-.816-.104-.338-.155-.757-.155-1.256 0-.6.077-1.093.232-1.482.155-.388.357-.699.607-.932a2.12 2.12 0 0 1 .851-.49c.318-.095.64-.142.965-.142h.238v-.133c0-.422-.07-.727-.209-.916a.654.654 0 0 0-.553-.283.996.996 0 0 0-.625.217 1.992 1.992 0 0 0-.482.549l-.822-1.598c.254-.421.57-.749.947-.982.377-.233.752-.35 1.125-.35.42 0 .777.09 1.071.267.294.178.532.438.714.782.183.344.314.763.393 1.257.08.494.12 1.062.12 1.706v4.96h-1.536v-1.082Z"/></g></svg>