<svg xmlns="http://www.w3.org/2000/svg" width="24" height="18" viewBox="-481 -3179 24 18"><g fill="none"><path fill="#999" d="M-469.273-3168.364h1.091v-4.363c0-.6-.49-1.091-1.09-1.091h-4.364v1.09h4.363v4.364Zm-5.454 1.091V-3176h-1.091v2.182H-478v1.09h2.182v5.455c0 .6.49 1.091 1.09 1.091h5.455v2.182h1.091v-2.182H-466v-1.09h-8.727Z"/><path stroke="#999" stroke-linecap="round" stroke-linejoin="round" stroke-width=".7" d="M-469.273-3168.364h1.091v-4.363c0-.6-.49-1.091-1.09-1.091h-4.364v1.09h4.363v4.364Zm-5.454 1.091V-3176h-1.091v2.182H-478v1.09h2.182v5.455c0 .6.49 1.091 1.09 1.091h5.455v2.182h1.091v-2.182H-466v-1.09h-8.727Z"/></g></svg>