<svg xmlns="http://www.w3.org/2000/svg" width="24" height="18" viewBox="-441 -3179 24 18"><g fill="none"><path fill="#999" d="M-428-3167.518c-.507 0-.96.18-1.307.464l-4.753-2.5c.033-.139.06-.277.06-.422 0-.144-.027-.283-.06-.422l4.7-2.476c.36.302.833.488 1.36.488 1.107 0 2-.807 2-1.807 0-1-.893-1.807-2-1.807s-2 .807-2 1.807c0 .145.027.283.06.422l-4.7 2.476a2.11 2.11 0 0 0-1.36-.488c-1.107 0-2 .807-2 1.807 0 1 .893 1.807 2 1.807.527 0 1-.186 1.36-.488l4.747 2.506a1.545 1.545 0 0 0-.054.392c0 .97.874 1.759 1.947 1.759s1.947-.789 1.947-1.759c0-.97-.874-1.759-1.947-1.759Z"/></g></svg>