<svg xmlns="http://www.w3.org/2000/svg" width="24" height="18" viewBox="-601 -3139 24 18"><g fill="none"><path fill="#999" d="M-595.807-3128.027h-1.1v-.685c0-.576.05-1.052.15-1.427.1-.375.241-.73.425-1.067l.142-.294c.077-.163.146-.334.204-.514.058-.179.087-.383.087-.611 0-.348-.036-.622-.108-.823-.072-.202-.189-.302-.35-.302a.297.297 0 0 0-.242.13c-.067.087-.12.196-.163.326a3.576 3.576 0 0 0-.146.848l-1.092-.375a8.5 8.5 0 0 1 .163-1.206c.08-.38.191-.718.333-1.011.142-.293.313-.527.513-.701.2-.174.436-.261.709-.261.49 0 .88.277 1.172.831.291.555.437 1.343.437 2.365 0 .348-.02.657-.058.929a5.42 5.42 0 0 1-.159.75 4.429 4.429 0 0 1-.241.644c-.095.201-.2.4-.317.595a2.49 2.49 0 0 0-.288.693c-.047.212-.07.448-.07.71Zm.217 2.56c0 .413-.065.76-.196 1.043-.13.283-.302.424-.513.424-.211 0-.382-.141-.513-.424-.13-.282-.196-.63-.196-1.043 0-.403.066-.75.196-1.044.131-.293.302-.44.513-.44.211 0 .382.147.513.44.13.294.196.641.196 1.044ZM-592.63-3131.255c0 .413-.065.755-.196 1.027-.13.272-.296.407-.496.407s-.364-.135-.492-.407c-.128-.272-.192-.614-.192-1.027 0-.381.064-.712.192-.995.128-.283.292-.424.492-.424s.366.141.496.424c.131.283.196.614.196.995Zm0 5.722c0 .413-.065.756-.196 1.028-.13.271-.296.407-.496.407s-.364-.136-.492-.407c-.128-.272-.192-.615-.192-1.028 0-.195.017-.38.05-.554a1.93 1.93 0 0 1 .142-.457.973.973 0 0 1 .217-.31.4.4 0 0 1 .275-.113.4.4 0 0 1 .275.114c.084.076.158.179.221.31.064.13.113.282.146.456.034.174.05.359.05.554ZM-590.128-3131.255c0 .413-.065.755-.196 1.027-.13.272-.296.407-.496.407s-.364-.135-.492-.407c-.128-.272-.192-.614-.192-1.027 0-.381.064-.712.192-.995.128-.283.292-.424.492-.424s.365.141.496.424c.13.283.196.614.196.995Zm0 5.722c0 .413-.065.756-.196 1.028-.13.271-.296.407-.496.407s-.364-.136-.492-.407c-.128-.272-.192-.615-.192-1.028 0-.195.017-.38.05-.554.034-.174.08-.326.142-.457a.971.971 0 0 1 .217-.31.4.4 0 0 1 .275-.113.4.4 0 0 1 .275.114c.084.076.157.179.221.31.064.13.113.282.146.456.033.174.05.359.05.554ZM-587.234-3128.027h-1.101v-.685c0-.576.05-1.052.15-1.427.1-.375.242-.73.425-1.067l.142-.294c.078-.163.146-.334.205-.514.058-.179.087-.383.087-.611 0-.348-.036-.622-.108-.823-.073-.202-.19-.302-.35-.302a.297.297 0 0 0-.242.13c-.067.087-.121.196-.163.326a3.565 3.565 0 0 0-.146.848l-1.092-.375a8.5 8.5 0 0 1 .162-1.206c.08-.38.192-.718.334-1.011a2.15 2.15 0 0 1 .513-.701c.2-.174.436-.261.708-.261.49 0 .88.277 1.172.831.292.555.438 1.343.438 2.365 0 .348-.02.657-.058.929a5.418 5.418 0 0 1-.159.75 4.433 4.433 0 0 1-.242.644c-.094.201-.2.4-.317.595-.144.25-.24.481-.287.693-.048.212-.071.448-.071.71Zm.217 2.56c0 .413-.066.76-.196 1.043-.131.283-.302.424-.513.424-.211 0-.382-.141-.513-.424-.13-.282-.196-.63-.196-1.043 0-.403.065-.75.196-1.044.13-.293.302-.44.513-.44.211 0 .382.147.513.44.13.294.196.641.196 1.044Z"/></g></svg>