<svg xmlns="http://www.w3.org/2000/svg" viewBox="-441 -3139 24 18" width="24" height="18"><g fill="none"><path d="M-432.603-3134.782V-3136a5.999 5.999 0 0 0-3.208 1.333l.856.862a4.79 4.79 0 0 1 2.352-.977Zm4.414.115a5.999 5.999 0 0 0-3.208-1.333v1.218a4.79 4.79 0 0 1 2.352.977l.856-.862Zm.97 4.064H-426a5.999 5.999 0 0 0-1.333-3.208l-.862.856c.519.67.868 1.472.977 2.352Zm-8.586-2.352-.862-.856a5.999 5.999 0 0 0-1.333 3.208h1.218c.109-.88.458-1.682.977-2.352Zm-.977 3.558H-438a5.999 5.999 0 0 0 1.333 3.208l.862-.862a4.744 4.744 0 0 1-.977-2.346Zm6.591-.603a1.807 1.807 0 0 0-1.809-1.809c-1.001 0-1.81.808-1.81 1.809s.809 1.809 1.81 1.809 1.81-.808 1.81-1.809Zm1.996 2.955.862.862a6.019 6.019 0 0 0 1.333-3.208h-1.218a4.791 4.791 0 0 1-.977 2.346Zm-3.202 1.827v1.218a5.999 5.999 0 0 0 3.208-1.333l-.862-.862a4.745 4.745 0 0 1-2.346.977Zm-4.414-.115a6.019 6.019 0 0 0 3.208 1.333v-1.218a4.79 4.79 0 0 1-2.352-.977l-.856.862Z" fill="#999"/></g></svg>