<svg xmlns="http://www.w3.org/2000/svg" viewBox="-921 -3099 24 18" width="24" height="18"><g fill="none"><path d="M-912-3096a6 6 0 0 0 0 12 .999.999 0 0 0 .74-1.673.999.999 0 0 1 .747-1.66h1.18a3.335 3.335 0 0 0 3.333-3.334c0-2.946-2.687-5.333-6-5.333Zm-3.667 6c-.553 0-1-.447-1-1 0-.553.447-1 1-1 .554 0 1 .447 1 1 0 .553-.446 1-1 1Zm2-2.667c-.553 0-1-.446-1-1 0-.553.447-1 1-1 .554 0 1 .447 1 1 0 .554-.446 1-1 1Zm3.334 0c-.554 0-1-.446-1-1 0-.553.446-1 1-1 .553 0 1 .447 1 1 0 .554-.447 1-1 1Zm2 2.667c-.554 0-1-.447-1-1 0-.553.446-1 1-1 .553 0 1 .447 1 1 0 .553-.447 1-1 1Z" fill="#999"/></g></svg>