<svg xmlns="http://www.w3.org/2000/svg" viewBox="-881 -3099 24 18" width="24" height="18"><g fill="none"><path d="M-869.818-3090.714c.905 0 1.63-.957 1.63-2.143s-.725-2.143-1.63-2.143c-.906 0-1.637.957-1.637 2.143s.731 2.143 1.637 2.143Zm-4.364 0c.906 0 1.631-.957 1.631-2.143s-.725-2.143-1.63-2.143c-.906 0-1.637.957-1.637 2.143s.73 2.143 1.636 2.143Zm0 1.428c-1.27 0-3.818.836-3.818 2.5v1.786h7.636v-1.786c0-1.664-2.547-2.5-3.818-2.5Zm4.364 0c-.158 0-.338.015-.53.036.633.6 1.075 1.407 1.075 2.464v1.786H-866v-1.786c0-1.664-2.547-2.5-3.818-2.5Z" fill="#999"/></g></svg>