<svg xmlns="http://www.w3.org/2000/svg" viewBox="-841 -3099 24 18" width="24" height="18"><g fill="none"><path d="M-827.416-3089.412c.025-.192.044-.384.044-.588 0-.204-.019-.396-.044-.588l1.302-.99a.297.297 0 0 0 .074-.384l-1.234-2.076a.314.314 0 0 0-.376-.132l-1.536.6a4.539 4.539 0 0 0-1.042-.588l-.235-1.59a.298.298 0 0 0-.302-.252h-2.467a.298.298 0 0 0-.303.252l-.234 1.59c-.376.15-.722.354-1.042.588l-1.536-.6a.305.305 0 0 0-.377.132l-1.233 2.076a.29.29 0 0 0 .074.384l1.301.99c-.024.192-.043.39-.043.588 0 .198.019.396.043.588l-1.301.99a.297.297 0 0 0-.074.384l1.233 2.076c.074.132.241.18.377.132l1.536-.6c.32.24.666.438 1.042.588l.235 1.59a.298.298 0 0 0 .302.252h2.467a.298.298 0 0 0 .302-.252l.235-1.59c.376-.15.721-.354 1.042-.588l1.536.6c.142.054.302 0 .376-.132l1.234-2.076a.297.297 0 0 0-.074-.384l-1.302-.99Zm-4.583 1.512c-1.19 0-2.159-.942-2.159-2.1 0-1.158.969-2.1 2.16-2.1 1.19 0 2.158.942 2.158 2.1 0 1.158-.968 2.1-2.159 2.1Z" fill="#999"/></g></svg>