<svg xmlns="http://www.w3.org/2000/svg" viewBox="-601 -3099 24 18" width="24" height="18"><g fill="none"><path d="M-596.243-3089.576a3.298 3.298 0 0 1 0-4.667 3.298 3.298 0 0 1 4.667 0l4.455 4.455a2.4 2.4 0 1 1-3.394 3.394l-3.606-3.606a1.5 1.5 0 0 1 2.121-2.121l3.182 3.182-.636.636-3.182-3.182a.602.602 0 0 0-.849 0 .602.602 0 0 0 0 .849l3.606 3.606a1.5 1.5 0 0 0 2.122-2.121l-4.455-4.455a2.4 2.4 0 1 0-3.394 3.394l4.03 4.03-.636.637-4.03-4.03Z" fill="#999"/><path d="M-596.243-3089.576a3.298 3.298 0 0 1 0-4.667 3.298 3.298 0 0 1 4.667 0l4.455 4.455a2.4 2.4 0 1 1-3.394 3.394l-3.606-3.606a1.5 1.5 0 0 1 2.121-2.121l3.182 3.182-.636.636-3.182-3.182a.602.602 0 0 0-.849 0 .602.602 0 0 0 0 .849l3.606 3.606a1.5 1.5 0 0 0 2.122-2.121l-4.455-4.455a2.4 2.4 0 1 0-3.394 3.394l4.03 4.03-.636.637-4.03-4.03Z" stroke="#999" stroke-linecap="round" stroke-linejoin="round" stroke-width=".4"/></g></svg>