/* XPM */ 
static const unsigned char * icon_32x32x32b_xpm[] = {
"32 32 453 2",
"  	c None",
"! 	c black",
"# 	c #DFDFDE",
"$ 	c #DFDEDC",
"% 	c #F2F1EF",
"& 	c #F2F1EE",
"' 	c #F2F2EF",
"( 	c #F3F2EF",
") 	c #F3F3F0",
"* 	c #F3F2F0",
"+ 	c #F4F3F0",
", 	c #F4F2F0",
"- 	c #F4F3F1",
". 	c #F2F0EE",
"0 	c #CDCDCB",
"1 	c #BAB9B8",
"2 	c #E9E8E6",
"3 	c #F1F0EE",
"4 	c #F0F0ED",
"5 	c #F0EFED",
"6 	c #F1F0ED",
"7 	c #D5D4D2",
"8 	c #ADACAB",
"9 	c #DADAD9",
": 	c #F8F8F7",
"; 	c #F4F4F2",
"< 	c #EFEDEA",
"= 	c #E2D3C7",
"> 	c #DED1C9",
"? 	c #DBD7D6",
"@ 	c #DAD9D8",
"A 	c #DBDAD8",
"B 	c #EBEAEA",
"C 	c #E7E1DD",
"D 	c #F9F9F8",
"E 	c #F3F3F1",
"F 	c #F7F6F5",
"G 	c #F3F3F3",
"H 	c #C1C1C0",
"I 	c #BCBBBA",
"J 	c #D9D8D6",
"K 	c #FAFAFA",
"L 	c white",
"M 	c #F6F4F2",
"N 	c #E0D7D0",
"O 	c #BB9C83",
"P 	c #AB998B",
"Q 	c #A5A3A2",
"R 	c #9D9C9C",
"S 	c #9F9F9E",
"T 	c #ADADAD",
"U 	c #C5C1BF",
"V 	c #E0DBD8",
"W 	c #FBFBFA",
"X 	c #FEFEFE",
"Y 	c #FEFEFF",
"Z 	c #F1EAE1",
"[ 	c #DCBA88",
"] 	c #F2E7D5",
"^ 	c #F1F1F1",
"_ 	c #CAC9C7",
"` 	c #BAB9B7",
"a 	c #DFDFDD",
"b 	c #EBEAE7",
"c 	c #FAF9F9",
"d 	c #E7D9CC",
"e 	c #C5AF9D",
"f 	c #96867E",
"g 	c #867770",
"h 	c #8F8D8C",
"i 	c #8F8C8A",
"j 	c #87786C",
"k 	c #89847F",
"l 	c #91908F",
"m 	c #B4B2B1",
"n 	c #DCD8D7",
"o 	c #FBFBFB",
"p 	c #FBFBF9",
"q 	c #F6F4F1",
"r 	c #E5D3C2",
"s 	c #C9934C",
"t 	c #EADBC2",
"u 	c #F9F9F9",
"v 	c #E8E7E4",
"w 	c #DBDAD9",
"x 	c #F8F8F6",
"y 	c #F6F5F2",
"z 	c #E0D4C7",
"{ 	c #987E6B",
"| 	c #82736B",
"} 	c #8D8B8B",
"~ 	c #939291",
" !	c #938E89",
"!!	c #836A53",
"#!	c #897E73",
"$!	c #8C8B8A",
"%!	c #979798",
"&!	c #B8B5B3",
"'!	c #E6E3E0",
"(!	c #F4F1EE",
")!	c #FBFAF9",
"*!	c #FBFAF8",
"+!	c #EAD9C3",
",!	c #EEE1CA",
"-!	c #F5F3F0",
".!	c #EEEDEB",
"0!	c #F9F9F7",
"1!	c #F6F5F1",
"2!	c #D8D7D5",
"3!	c #928C89",
"4!	c #857D77",
"5!	c #8E8984",
"6!	c #939190",
"7!	c #928F8E",
"8!	c #8A827B",
"9!	c #8D8985",
":!	c #8E8D8C",
";!	c #87807B",
"<!	c #988D84",
"=!	c #CCC6C2",
">!	c #FBF9F8",
"?!	c #FDFCFC",
"@!	c #F9F6F2",
"A!	c #F9F6F1",
"B!	c #F4F3EF",
"C!	c #ECECEA",
"D!	c #EDECEA",
"E!	c #F9F9F6",
"F!	c #C6C3C1",
"G!	c #8A8885",
"H!	c #7A624E",
"I!	c #846C58",
"J!	c #959391",
"K!	c #949393",
"L!	c #8E8D8D",
"M!	c #8B8989",
"N!	c #8C8A89",
"O!	c #7C6C62",
"P!	c #8B786B",
"Q!	c #B4ABA6",
"R!	c #EFEDEB",
"S!	c #F8F6F5",
"T!	c #F4F0EF",
"U!	c #F5F1F0",
"V!	c #F6F3F3",
"W!	c #F5F4F0",
"X!	c #E7E6E4",
"Y!	c #ECECE9",
"Z!	c #CFCFCE",
"[!	c #878481",
"]!	c #7A644F",
"^!	c #887765",
"_!	c #93918F",
"`!	c #939191",
"a!	c #8F8E8E",
"b!	c #908F8F",
"c!	c #8C8886",
"d!	c #989390",
"e!	c #B7B3B1",
"f!	c #EDEBEA",
"g!	c #F7F5F5",
"h!	c #F9F7F7",
"i!	c #F5F3F3",
"j!	c #F4F2F2",
"k!	c #F5F4F1",
"l!	c #E2E2E0",
"m!	c #ECEBE9",
"n!	c #E2E2E2",
"o!	c #969594",
"p!	c #8B8986",
"q!	c #979796",
"r!	c #989898",
"s!	c #94928C",
"t!	c #8F8B80",
"u!	c #999898",
"v!	c #A09F9E",
"w!	c #C2C0BF",
"x!	c #F4F2F3",
"y!	c #FBFAFA",
"z!	c #D0D1D1",
"{!	c #9F9F9F",
"|!	c #8F8F8F",
"}!	c #939292",
"~!	c #8D846E",
" #	c #897B54",
"!#	c #8F8D85",
"##	c #939293",
"$#	c #A1A0A0",
"%#	c #A09C9B",
"&#	c #D9D7D6",
"'#	c #FCFCFC",
"(#	c #FAF9F8",
")#	c #DDDCDB",
"*#	c #F5F3F1",
"+#	c #C3C3C3",
",#	c #7D7D7C",
"-#	c #B5B5B5",
".#	c #8C8C8C",
"0#	c #8A8076",
"1#	c #88786A",
"2#	c #888074",
"3#	c #8A7F62",
"4#	c #98958F",
"5#	c #9F9E9E",
"6#	c #9B9897",
"7#	c #BAB6B0",
"8#	c #E4D287",
"9#	c #ECDAA6",
":#	c #F1F0F1",
";#	c #F8F7F6",
"<#	c #DCDBDA",
"=#	c #F6F5F3",
">#	c #A4A3A3",
"?#	c #383737",
"@#	c #34322F",
"A#	c #5B5A58",
"B#	c #4F4E4C",
"C#	c #735A40",
"D#	c #90775A",
"E#	c #9B9693",
"F#	c #9C9A99",
"G#	c #9E9B9B",
"H#	c #A19D9C",
"I#	c #C4C2C2",
"J#	c #E0DFDE",
"K#	c #BEAD78",
"L#	c #D3BE93",
"M#	c #EDEDEE",
"N#	c #E6E6E6",
"O#	c #E6E6E5",
"P#	c #F5F4F4",
"Q#	c #EEECEB",
"R#	c #EDECE9",
"S#	c #2F2F2F",
"T#	c #292724",
"U#	c #37342F",
"V#	c #464543",
"W#	c #807F7E",
"X#	c #B3A697",
"Y#	c #C0AE99",
"Z#	c #C2C0BD",
"[#	c #BDBBBA",
"]#	c #C6C1C0",
"^#	c #DFDEDE",
"_#	c #F0EBE3",
"`#	c #ADACAC",
"a#	c #A8A9A9",
"b#	c #DADADA",
"c#	c #DDDDDD",
"d#	c #D0D0D0",
"e#	c #EAEAE9",
"f#	c #E4E3E1",
"g#	c #8B8A8A",
"h#	c #313030",
"i#	c #282623",
"j#	c #35332D",
"k#	c #42413D",
"l#	c #7B7B7A",
"m#	c #C9C7C6",
"n#	c #F6F5F5",
"o#	c #F4F3F3",
"p#	c #ECE6E5",
"q#	c #EEEAEA",
"r#	c #F6F3F2",
"s#	c #E5C896",
"t#	c #DCAA59",
"u#	c #BDB4A3",
"v#	c #8C8C8D",
"w#	c #939393",
"x#	c #B6B6B6",
"y#	c #D4D4D4",
"z#	c #D8D8D8",
"{#	c #CAC9C9",
"|#	c #E4E3E0",
"}#	c #8A8A89",
"~#	c #363635",
" $	c #272624",
"!$	c #33312B",
"#$	c #3E3C38",
"$$	c #6E6D6C",
"%$	c #EFEEED",
"&$	c #FDFDFD",
"'$	c #FAF9FA",
"($	c #EDE5E5",
")$	c #F6F3F1",
"*$	c #D6B27B",
"+$	c #D5A658",
",$	c #D0C8B9",
"-$	c #939394",
".$	c #797979",
"0$	c #8D8D8D",
"1$	c #C2C2C2",
"2$	c #DEDEDE",
"3$	c #C7C7C5",
"4$	c #E6E5E2",
"5$	c #666666",
"6$	c #3D3D3D",
"7$	c #272625",
"8$	c #312E29",
"9$	c #3F3D3A",
":$	c #696866",
";$	c #B5B3B1",
"<$	c #F0F0EF",
"=$	c #FDFEFF",
">$	c #FEFFFF",
"?$	c #EEE9E8",
"@$	c #F3EEEE",
"A$	c #F7F4EF",
"B$	c #F5F0E9",
"C$	c #EAEAEA",
"D$	c #929292",
"E$	c #868686",
"F$	c #A9A9A9",
"G$	c #C9C9C7",
"H$	c #D7D7D6",
"I$	c #3E3E3E",
"J$	c #292827",
"K$	c #2F2D28",
"L$	c #3F3D39",
"M$	c #6C6B69",
"N$	c #B5B2B1",
"O$	c #E7E4E2",
"P$	c #F7F5F4",
"Q$	c #ECE7E4",
"R$	c #F0EAE5",
"S$	c #E4CCAD",
"T$	c #F1E4D3",
"U$	c #EAE0E0",
"V$	c #FBF9F9",
"W$	c #F9F9FA",
"X$	c #C9C9C9",
"Y$	c #B7B7B7",
"Z$	c #B3B3B3",
"[$	c #969696",
"]$	c #D3D3D3",
"^$	c #DCDCDC",
"_$	c #C4C4C3",
"`$	c #40403E",
"a$	c #2F2D2A",
"b$	c #464542",
"c$	c #777776",
"d$	c #BBB5AB",
"e$	c #DCC2A7",
"f$	c #EBDFD4",
"g$	c #EAE5E4",
"h$	c #EFEBEB",
"i$	c #F0E5D5",
"j$	c #CE8F33",
"k$	c #D7A359",
"l$	c #F4EDE7",
"m$	c #E5E5E5",
"n$	c #C8C8C8",
"o$	c #C6C6C6",
"p$	c #9A9A9A",
"q$	c #A7A7A7",
"r$	c #D2D2D2",
"s$	c #F0F0F0",
"t$	c #CECECE",
"u$	c #A3A3A2",
"v$	c #72716F",
"w$	c #91918F",
"x$	c #CCCCCA",
"y$	c #D1AC7E",
"z$	c #C2731C",
"{$	c #D6AB7D",
"|$	c #EDE9E8",
"}$	c #F5F3F4",
"~$	c #F5F0EA",
" %	c #D5AB6E",
"!%	c #DCB57C",
"#%	c #F3F1F1",
"$%	c #F6F6F6",
"%%	c #D9D9D9",
"&%	c #F2F2F2",
"'%	c #9E9E9E",
"(%	c #D1D1D1",
")%	c #EFEFEF",
"*%	c #D0D0D1",
"+%	c #B3B3B2",
",%	c #CCCBC9",
"-%	c #F0EFEE",
".%	c #DABF9E",
"0%	c #BB7C39",
"1%	c #E2C5A6",
"2%	c #F7F6F6",
"3%	c #F4F1F2",
"4%	c #EDE7E3",
"5%	c #EEE8E5",
"6%	c #F1EDEF",
"7%	c #F8F6F7",
"8%	c #EBEBEB",
"9%	c #E9E9E9",
":%	c #F8F8F8",
";%	c #D4D4D3",
"<%	c #9A9A99",
"=%	c #A5A5A5",
">%	c #EEEEF0",
"?%	c #DEDABE",
"@%	c #D2CFBC",
"A%	c #D1D0CF",
"B%	c #F2ECE3",
"C%	c #FAF8F6",
"D%	c #F9F8F8",
"E%	c #FCFCFB",
"F%	c #FCFBFB",
"G%	c #F5F5F5",
"H%	c #F7F7F7",
"I%	c #DBDBDA",
"J%	c #B1B1B0",
"K%	c #A6A6A6",
"L%	c #A7A6A5",
"M%	c #D8D0AC",
"N%	c #F8EC88",
"O%	c #C3BE90",
"P%	c #CCCCCF",
"Q%	c #D9D8D7",
"R%	c #F7F7F5",
"S%	c #F7F6F4",
"T%	c #F6F6F4",
"U%	c #F5F4F3",
"V%	c #F5F4F2",
"W%	c #E6E6E4",
"X%	c #BDBDBC",
"Y%	c #D6D6D8",
"Z%	c #B7AEA0",
"[%	c #D0AA43",
"]%	c #C4AF46",
"^%	c #88877A",
"_%	c #C5C5C6",
"`%	c #CDCCCA",
"a%	c #EFEEEC",
"b%	c #F6F6F3",
"c%	c #D6D5D4",
"d%	c #C0B59F",
"e%	c #959185",
"f%	c #ACACAC",
"g%	c #E7E6E5",
"h%	c #EBEAE9",
"i%	c #DEDEDC",
"j%	c #D3D3D1",
"k%	c #CBCBCA",
"l%	c #C7C7C6",
"m%	c #C4C3C2",
"n%	c #C2C2C1",
"o%	c #C3C2C1",
"p%	c #C5C5C4",
"q%	c #C9C9C8",
"r%	c #CFCFCD",
"s%	c #D8D8D7",
"t%	c #E5E4E3",
"u%	c #EFEFED",
"v%	c #EDECEB",
"w%	c #D9D9D8",
"                                                                ",
"                                                                ",
"            #                                                   ",
"            $ % % % % & % ' ( ) * + * , + - . 0                 ",
"          1 2 3 4 5 6 & ' 3 & 3 % ' % & & % , 7                 ",
"        8 9 : ; < = > ? @ A B C . D : : : E F G H               ",
"      I J K L M N O P Q R S T U V W X X Y Z [ ] ^ _ `           ",
"    a b ' W c d e f g h i j k l m n o p q r s t u & v w         ",
"    3 ' ' x y z { | } ~  !!!#!$!%!&!'!(!)!*!+!,!u + -!          ",
"    .!' * 0!1!2!3!4!5!6!7!8!9!:!;!<!=!x >!?!@!A!x B!B!C!        ",
"    D!( ' o E!F!G!H!I!J!K!L!M!N!O!P!Q!R!S!T!U!V!M W!B!X!        ",
"    Y!) * o X Z![!]!^!_!`!a!a!b!c!d!e!f!g!K h!i!j!k!B!l!        ",
"    m!+ ) o X n!o!p!q!r!s!t!l a!u!v!w!: u x!y!X F q + a         ",
"    m!+ + o L z!{!|!}!K!~! #!###$#%#&#o X o j!'#(#y + )#        ",
"    m!*#*#o +#,#-#.#0#1#2#3#4#5#6#7#8#9#:#u ;#(#(#y -!<#        ",
"    m!=#5 >#?#@#A#B#C#D#E#F#G#H#I#J#K#L#M#N#O#P#D y -!<#        ",
"    Q#R#:!S#T#U#V#W#X#Y#Z#[#]#^#- _#`#a#b#c#d#d#e#k!W!)#        ",
"    f#g#h#i#j#k#l#m#j!n#o#p#q#r#s#t#u#v#w#x#y#z#{#|#-!a         ",
"    }#~# $!$#$$$H %$M &$'$($T!)$*$+$,$-$.$0$1$^ 2$3$4$l!        ",
"  5$6$7$8$9$:$;$<$)$*#=$>$?$@$L A$B$C$T D$E$F$y#^ c#G$H$        ",
"  I$J$K$L$M$N$O$P$Q$R$S$T$h!U$V$Y >$W$X$Y$Z$[$F$]$^ ^$_$        ",
"  `$a$b$c$d$e$f$g$h$i$j$k$l$?$g!X X X m$n$c#o$p$q$r$s$c#t$      ",
"  u$v$w$x$y$z${$|$}$~$ %!%@!#%y!X X X $%%%m$&%d#'%q$(%)%c#*%    ",
"  d#+%,%-%.%0%1%y!2%3%4%5%6%7%X X X X &$8%9%:%:%;%<%=%d#>%?%@%  ",
"        A%* B%C%'#'#'#W D%K '#E%F%E%F%E%G%)%H%o I%J%K%L%M%N%O%P%",
"          Q%R%S%S%S%S%F R%S%S%S%S%S%S%T%U%% V%W%X%  Y%Z%[%]%^%_%",
"          `%a%=#=#=#y =#=#=#b%=#=#=#=#V%V%- - c%        d%e%f%  ",
"            g%* h%i%j%k%l%m%n%o%p%q%r%s%t%u%v%w%                ",
"                                                                ",
"                                                                ",
"                                                                ",
"                                                                "};