<svg xmlns="http://www.w3.org/2000/svg" viewBox="-274.5 -4129.152 25 25" width="25" height="25"><g fill="none"><path d="M-257.196-4128.652h-12.953a3.851 3.851 0 0 0-3.85 3.851v12.892a3.851 3.851 0 0 0 3.85 3.851h12.953a3.851 3.851 0 0 0 3.851-3.851v-12.892a3.851 3.851 0 0 0-3.851-3.851Z" fill="#fff"/><path d="M-257.196-4128.652h-12.953a3.851 3.851 0 0 0-3.85 3.851v12.892a3.851 3.851 0 0 0 3.85 3.851h12.953a3.851 3.851 0 0 0 3.851-3.851v-12.892a3.851 3.851 0 0 0-3.851-3.851Z" stroke="#000" stroke-linecap="round" stroke-linejoin="round" stroke-width=".25"/><path d="M-253.851-4125.246h-12.953a3.851 3.851 0 0 0-3.85 3.851v12.892a3.851 3.851 0 0 0 3.85 3.851h12.953a3.851 3.851 0 0 0 3.851-3.851v-12.892a3.851 3.851 0 0 0-3.851-3.851Z" fill="#fff"/><path d="M-253.851-4125.246h-12.953a3.851 3.851 0 0 0-3.85 3.851v12.892a3.851 3.851 0 0 0 3.85 3.851h12.953a3.851 3.851 0 0 0 3.851-3.851v-12.892a3.851 3.851 0 0 0-3.851-3.851Z" stroke="#000" stroke-linecap="round" stroke-linejoin="round" stroke-width=".25"/></g></svg>