<svg xmlns="http://www.w3.org/2000/svg" viewBox="551.343 771.045 103 103" width="103" height="103"><g fill="none"><ellipse cx="602.843" cy="822.545" rx="50" ry="49.262" fill="#fff"/><path d="m602.843 872.545 4.358-.19 4.324-.57 4.259-.943 4.16-1.312 4.03-1.67 3.869-2.013 3.679-2.344 3.46-2.656 3.216-2.946 2.947-3.216 2.656-3.46 2.343-3.68 2.014-3.869 1.67-4.03 1.311-4.16.944-4.258.57-4.325.19-4.358-.19-4.357-.57-4.325-.944-4.259-1.311-4.16-1.67-4.03-2.014-3.869-2.343-3.678-2.656-3.461-2.947-3.216-3.216-2.947-3.46-2.655-3.679-2.344-3.87-2.014-4.029-1.67-4.16-1.311-4.259-.944-4.324-.57-4.358-.19-4.358.19-4.324.57-4.259.944-4.16 1.312-4.03 1.669-3.869 2.014-3.679 2.344-3.46 2.655-3.216 2.947-2.947 3.216-2.656 3.46-2.343 3.68-2.014 3.868-1.67 4.03-1.311 4.16-.944 4.259-.57 4.324-.19 4.358.19 4.358.57 4.325.944 4.258 1.311 4.16 1.67 4.03 2.014 3.87 2.343 3.678 2.656 3.46 2.947 3.217 3.216 2.947 3.46 2.655 3.679 2.344 3.87 2.014 4.029 1.669 4.16 1.312 4.259.944 4.324.57 4.358.19" stroke="#000" stroke-linecap="round" stroke-linejoin="round" stroke-width="3"/><path d="M630.093 826.438h-21.357a2 2 0 0 0-2 2v19.357a2 2 0 0 1-2 2h-3.786a2 2 0 0 1-2-2v-19.357a2 2 0 0 0-2-2h-19.357a2 2 0 0 1-2-2v-3.785a2 2 0 0 1 2-2h19.357a2 2 0 0 0 2-2v-19.358a2 2 0 0 1 2-2h3.786a2 2 0 0 1 2 2v19.358a2 2 0 0 0 2 2h19.357a2 2 0 0 1 2 2v5.785Z" fill="#5c76a2"/><path d="M630.093 826.438h-21.357a2 2 0 0 0-2 2v19.357a2 2 0 0 1-2 2h-3.786a2 2 0 0 1-2-2v-19.357a2 2 0 0 0-2-2h-19.357a2 2 0 0 1-2-2v-3.785a2 2 0 0 1 2-2h19.357a2 2 0 0 0 2-2v-19.358a2 2 0 0 1 2-2h3.786a2 2 0 0 1 2 2v19.358a2 2 0 0 0 2 2h19.357a2 2 0 0 1 2 2v5.785Z" stroke="#5c76a2" stroke-linecap="round" stroke-linejoin="round" stroke-width="8"/></g></svg>