<svg xmlns="http://www.w3.org/2000/svg" width="103" height="103" viewBox="2462.763 514.857 103 103"><g fill="none"><ellipse cx="2514.263" cy="566.357" fill="#fff" rx="50" ry="49.262"/><path stroke="#000" stroke-linecap="round" stroke-linejoin="round" stroke-width="3" d="m2514.263 616.357 4.358-.19 4.324-.57 4.259-.944 4.16-1.311 4.03-1.67 3.869-2.014 3.678-2.343 3.461-2.656 3.216-2.947 2.947-3.216 2.655-3.46 2.344-3.679 2.014-3.869 1.67-4.03 1.311-4.16.944-4.259.57-4.324.19-4.358-.19-4.358-.57-4.324-.944-4.259-1.312-4.16-1.669-4.03-2.014-3.869-2.344-3.679-2.655-3.46-2.947-3.216-3.216-2.947-3.46-2.656-3.68-2.343-3.868-2.014-4.03-1.67-4.16-1.311-4.259-.944-4.325-.57-4.357-.19-4.358.19-4.325.57-4.258.944-4.16 1.311-4.03 1.67-3.87 2.014-3.678 2.343-3.46 2.656-3.217 2.947-2.947 3.216-2.655 3.46-2.344 3.68-2.014 3.868-1.669 4.03-1.312 4.16-.944 4.259-.569 4.324-.19 4.358.19 4.358.57 4.324.943 4.259 1.312 4.16 1.67 4.03 2.013 3.87 2.344 3.678 2.655 3.46 2.947 3.216 3.216 2.947 3.46 2.656 3.68 2.343 3.869 2.014 4.03 1.67 4.16 1.311 4.258.944 4.325.57 4.358.19"/><path fill="#5c76a2" d="M2514.263 539.276V529.12l-13.541 13.54 13.54 13.54v-10.155c11.206 0 20.311 9.106 20.311 20.311 0 3.42-.846 6.669-2.369 9.478l4.942 4.943a26.847 26.847 0 0 0 4.198-14.42c0-14.963-12.119-27.082-27.081-27.082Zm0 47.392c-11.205 0-20.311-9.106-20.311-20.31 0-3.42.846-6.67 2.37-9.48l-4.943-4.942a26.848 26.848 0 0 0-4.197 14.421c0 14.962 12.118 27.081 27.08 27.081v10.156l13.541-13.54-13.54-13.541v10.155Z"/><path stroke="#5c76a2" stroke-linecap="round" stroke-linejoin="round" stroke-width="4" d="M2514.263 539.276V529.12l-13.541 13.54 13.54 13.54v-10.155c11.206 0 20.311 9.106 20.311 20.311 0 3.42-.846 6.669-2.369 9.478l4.942 4.943a26.847 26.847 0 0 0 4.198-14.42c0-14.963-12.119-27.082-27.081-27.082Zm0 47.392c-11.205 0-20.311-9.106-20.311-20.31 0-3.42.846-6.67 2.37-9.48l-4.943-4.942a26.848 26.848 0 0 0-4.197 14.421c0 14.962 12.118 27.081 27.08 27.081v10.156l13.541-13.54-13.54-13.541v10.155Z"/></g></svg>