<svg xmlns="http://www.w3.org/2000/svg" width="103" height="103" viewBox="36.5 -1183.5 103 103"><g fill="none"><ellipse cx="88" cy="-1132" fill="#fff" rx="50" ry="49.262"/><path stroke="#000" stroke-linecap="round" stroke-linejoin="round" stroke-width="3" d="m88-1082-4.358-.19-4.324-.57-4.259-.944-4.16-1.311-4.03-1.67-3.869-2.014-3.679-2.343-3.46-2.656-3.216-2.947-2.947-3.216-2.656-3.46L44.7-1107l-2.014-3.87-1.67-4.029-1.311-4.16-.944-4.259-.57-4.324L38-1132l.19-4.358.57-4.324.944-4.259 1.311-4.16 1.67-4.03 2.014-3.869 2.343-3.679 2.656-3.46 2.947-3.216 3.216-2.947 3.46-2.656L63-1175.3l3.87-2.014 4.029-1.67 4.16-1.311 4.259-.944 4.324-.57L88-1182l4.358.19 4.324.57 4.259.944 4.16 1.311 4.03 1.67 3.869 2.014 3.679 2.343 3.46 2.656 3.216 2.947 2.947 3.216 2.656 3.46L131.3-1157l2.014 3.87 1.67 4.029 1.311 4.16.944 4.259.57 4.324.19 4.358-.19 4.358-.57 4.324-.944 4.259-1.311 4.16-1.67 4.03-2.014 3.869-2.343 3.679-2.656 3.46-2.947 3.216-3.216 2.947-3.46 2.656L113-1088.7l-3.87 2.014-4.029 1.67-4.16 1.311-4.259.944-4.324.57L88-1082"/><path fill="#65727e" d="M109.881-1153.971v43.78a3 3 0 0 1-5.095 2.147l-22.436-21.89a3 3 0 0 1 0-4.294l22.436-21.89a3 3 0 0 1 5.095 2.147Z"/><path stroke="#65727e" stroke-linecap="round" stroke-linejoin="round" d="M109.881-1153.971v43.78a3 3 0 0 1-5.095 2.147l-22.436-21.89a3 3 0 0 1 0-4.294l22.436-21.89a3 3 0 0 1 5.095 2.147Z"/><path stroke="#65727e" stroke-linecap="round" stroke-linejoin="round" stroke-width="16" d="M67.007-1149.5v35"/></g></svg>