<svg xmlns="http://www.w3.org/2000/svg" width="103" height="103" viewBox="-95.5 -1307.5 103 103"><g fill="none"><ellipse cx="-44" cy="-1256" fill="#fff" rx="50" ry="49.262"/><path stroke="#000" stroke-linecap="round" stroke-linejoin="round" stroke-width="3" d="m-44-1206 4.358-.19 4.324-.57 4.259-.944 4.16-1.311 4.03-1.67 3.869-2.014 3.679-2.343 3.46-2.656 3.216-2.947 2.947-3.216 2.656-3.46L-.7-1231l2.014-3.87 1.67-4.029 1.311-4.16.944-4.259.57-4.324L6-1256l-.19-4.358-.57-4.324-.944-4.259-1.311-4.16-1.67-4.03L-.699-1281l-2.343-3.679-2.656-3.46-2.947-3.216-3.216-2.947-3.46-2.656L-19-1299.3l-3.87-2.014-4.029-1.67-4.16-1.311-4.259-.944-4.324-.57L-44-1306l-4.358.19-4.324.57-4.259.944-4.16 1.311-4.03 1.67-3.869 2.014-3.679 2.343-3.46 2.656-3.216 2.947-2.947 3.216-2.656 3.46L-87.3-1281l-2.014 3.87-1.67 4.029-1.311 4.16-.944 4.259-.57 4.324L-94-1256l.19 4.358.57 4.324.944 4.259 1.311 4.16 1.67 4.03 2.014 3.869 2.343 3.679 2.656 3.46 2.947 3.216 3.216 2.947 3.46 2.656L-69-1212.7l3.87 2.014 4.029 1.67 4.16 1.311 4.259.944 4.324.57 4.358.19"/><path fill="#65727e" d="M-65.881-1277.971v43.78a3 3 0 0 0 5.095 2.147l22.436-21.89a3 3 0 0 0 0-4.294l-22.436-21.89a3 3 0 0 0-5.095 2.147Z"/><path stroke="#65727e" stroke-linecap="round" stroke-linejoin="round" d="M-65.881-1277.971v43.78a3 3 0 0 0 5.095 2.147l22.436-21.89a3 3 0 0 0 0-4.294l-22.436-21.89a3 3 0 0 0-5.095 2.147Z"/><path stroke="#65727e" stroke-linecap="round" stroke-linejoin="round" stroke-width="16" d="M-23.007-1273.5v35"/></g></svg>