<svg xmlns="http://www.w3.org/2000/svg" width="103" height="103" viewBox="414.5 -1307.5 103 103"><g fill="none"><ellipse cx="466" cy="-1256" fill="#fff" rx="50" ry="49.262"/><path stroke="#000" stroke-linecap="round" stroke-linejoin="round" stroke-width="3" d="m466-1206 4.358-.19 4.324-.57 4.259-.944 4.16-1.311 4.03-1.67 3.869-2.014 3.679-2.343 3.46-2.656 3.216-2.947 2.947-3.216 2.656-3.46L509.3-1231l2.014-3.87 1.67-4.029 1.311-4.16.944-4.259.57-4.324.19-4.358-.19-4.358-.57-4.324-.944-4.259-1.311-4.16-1.67-4.03-2.014-3.869-2.343-3.679-2.656-3.46-2.947-3.216-3.216-2.947-3.46-2.656L491-1299.3l-3.87-2.014-4.029-1.67-4.16-1.311-4.259-.944-4.324-.57L466-1306l-4.358.19-4.324.57-4.259.944-4.16 1.311-4.03 1.67-3.869 2.014-3.679 2.343-3.46 2.656-3.216 2.947-2.947 3.216-2.656 3.46L422.7-1281l-2.014 3.87-1.67 4.029-1.311 4.16-.944 4.259-.57 4.324L416-1256l.19 4.358.57 4.324.944 4.259 1.311 4.16 1.67 4.03 2.014 3.869 2.343 3.679 2.656 3.46 2.947 3.216 3.216 2.947 3.46 2.656L441-1212.7l3.87 2.014 4.029 1.67 4.16 1.311 4.259.944 4.324.57 4.358.19"/><path fill="#000" d="m491.081-1276.029-5.052-5.052L466-1261.052l-20.03-20.03-5.051 5.053L460.948-1256l-20.03 20.029 5.053 5.052L466-1250.948l20.03 20.03 5.051-5.053L471.052-1256Z"/><path stroke="#9f4c4c" stroke-linecap="round" stroke-linejoin="round" stroke-width="8" d="m491.081-1276.029-5.052-5.052L466-1261.052l-20.03-20.03-5.051 5.053L460.948-1256l-20.03 20.029 5.053 5.052L466-1250.948l20.03 20.03 5.051-5.053L471.052-1256Z"/></g></svg>