<svg xmlns="http://www.w3.org/2000/svg" viewBox="-942.09 -3933.122 25 25" width="25" height="25"><g fill="none"><circle cx="-929.59" cy="-3920.622" r="12" fill="#fff"/><circle cx="-929.59" cy="-3920.622" r="12" stroke="#000" stroke-linecap="round" stroke-linejoin="round" stroke-width=".25"/><path d="m-931.698-3927.362-1.286 1.405h-2.227a1.41 1.41 0 0 0-1.405 1.405v8.431a1.41 1.41 0 0 0 1.405 1.405h11.241a1.41 1.41 0 0 0 1.405-1.405v-8.43a1.41 1.41 0 0 0-1.405-1.406h-2.227l-1.286-1.405h-4.215Zm2.108 10.538a3.514 3.514 0 1 1 3.513-3.513 3.514 3.514 0 0 1-3.513 3.513Z" fill="#65727e"/></g></svg>