<svg xmlns="http://www.w3.org/2000/svg" viewBox="-992.625 -3930.448 25.25 24.896" width="25.25" height="24.896"><g fill="none"><ellipse cx="-980" cy="-3918" rx="12" ry="11.823" fill="#fff"/><ellipse cx="-980" cy="-3918" rx="12" ry="11.823" stroke="#000" stroke-linecap="round" stroke-linejoin="round" stroke-width=".25"/><path d="M-980-3921.117a3.116 3.116 0 1 0 0 6.234 3.116 3.116 0 1 0 0-6.234Zm6.967 2.338a7.01 7.01 0 0 0-6.188-6.188v-1.605h-1.558v1.605a7.01 7.01 0 0 0-6.188 6.188h-1.605v1.558h1.605a7.01 7.01 0 0 0 6.188 6.188v1.605h1.558v-1.605a7.01 7.01 0 0 0 6.188-6.188h1.605v-1.558h-1.605Zm-6.967 6.234a5.45 5.45 0 0 1-5.455-5.455 5.45 5.45 0 0 1 5.455-5.455 5.45 5.45 0 0 1 5.455 5.455 5.45 5.45 0 0 1-5.455 5.455Z" fill="#a7967d"/></g></svg>