<svg xmlns="http://www.w3.org/2000/svg" viewBox="-952.625 -3930.448 25.25 24.896" width="25.25" height="24.896"><g fill="none"><ellipse cx="-940" cy="-3918" rx="12" ry="11.823" fill="#fff"/><ellipse cx="-940" cy="-3918" rx="12" ry="11.823" stroke="#000" stroke-linecap="round" stroke-linejoin="round" stroke-width=".25"/><path d="M-945.299-3915.73h10.59v-4.54h-10.59v4.54Zm4.539-10.553v2.231h1.513v-2.231h-1.513Zm6.082 1.891-1.354 1.354 1.066 1.067 1.362-1.354-1.074-1.067Zm-4.57 14.675v-2.231h-1.512v2.231h1.513Zm5.636-2.958-1.361-1.354-1.067 1.067 1.354 1.361 1.074-1.074Zm-12.784-10.65 1.354 1.354 1.067-1.067-1.354-1.354-1.067 1.067Zm1.067 11.717 1.354-1.362-1.067-1.066-1.354 1.354 1.067 1.074Z" fill="#a7967d"/></g></svg>