<svg xmlns="http://www.w3.org/2000/svg" viewBox="-457.5 -671.5 103 103" width="103" height="103"><g fill="none"><ellipse cx="-406" cy="-620" rx="50" ry="49.262" fill="#fff"/><path d="m-406-570 4.358-.19 4.324-.57 4.259-.944 4.16-1.311 4.03-1.67 3.869-2.014 3.679-2.343 3.46-2.656 3.216-2.947 2.947-3.216 2.656-3.46L-362.7-595l2.014-3.87 1.67-4.029 1.311-4.16.944-4.259.57-4.324.19-4.358-.19-4.358-.57-4.324-.944-4.259-1.311-4.16-1.67-4.03-2.014-3.869-2.343-3.679-2.656-3.46-2.947-3.216-3.216-2.947-3.46-2.656L-381-663.3l-3.87-2.014-4.029-1.67-4.16-1.311-4.259-.944-4.324-.57L-406-670l-4.358.19-4.324.57-4.259.944-4.16 1.311-4.03 1.67-3.869 2.014-3.679 2.343-3.46 2.656-3.216 2.947-2.947 3.216-2.656 3.46L-449.3-645l-2.014 3.87-1.67 4.029-1.311 4.16-.944 4.259-.57 4.324L-456-620l.19 4.358.57 4.324.944 4.259 1.311 4.16 1.67 4.03 2.014 3.869 2.343 3.679 2.656 3.46 2.947 3.216 3.216 2.947 3.46 2.656L-431-576.7l3.87 2.014 4.029 1.67 4.16 1.311 4.259.944 4.324.57 4.358.19" stroke="#000" stroke-linecap="round" stroke-linejoin="round" stroke-width="3"/><path d="M-428.079-610.544h44.126v-18.912h-44.126v18.912Zm18.911-43.969v9.298h6.304v-9.298h-6.304Zm25.341 7.88-5.641 5.642 4.444 4.444 5.673-5.642-4.476-4.444Zm-19.037 61.146v-9.298h-6.304v9.298h6.304Zm23.481-12.324-5.673-5.642-4.444 4.444 5.642 5.674 4.475-4.476Zm-53.266-44.378 5.642 5.642 4.444-4.444-5.642-5.642-4.444 4.444Zm4.444 48.822 5.642-5.673-4.444-4.444-5.642 5.642 4.444 4.475Z" fill="#a7967d"/></g></svg>