<svg xmlns="http://www.w3.org/2000/svg" viewBox="-872.625 -3930.448 25.25 24.896" width="25.25" height="24.896"><g fill="none"><ellipse cx="-860" cy="-3918" rx="12" ry="11.823" fill="#fff"/><ellipse cx="-860" cy="-3918" rx="12" ry="11.823" stroke="#000" stroke-linecap="round" stroke-linejoin="round" stroke-width=".25"/><path d="m-862.108-3924.563-1.285 1.405h-2.227a1.41 1.41 0 0 0-1.405 1.405v8.431a1.41 1.41 0 0 0 1.405 1.405h11.24a1.41 1.41 0 0 0 1.405-1.405v-8.43a1.41 1.41 0 0 0-1.405-1.406h-2.227l-1.285-1.405h-4.216Zm2.108 10.538a3.514 3.514 0 1 1 3.513-3.513 3.514 3.514 0 0 1-3.513 3.513Z" fill="#5c76a2"/></g></svg>