<svg xmlns="http://www.w3.org/2000/svg" viewBox="-782.09 -3933.122 25 25" width="25" height="25"><g fill="none"><path d="M-777.75-3932.622h16.32a3.84 3.84 0 0 1 3.84 3.84v16.32a3.84 3.84 0 0 1-3.84 3.84h-16.32a3.84 3.84 0 0 1-3.84-3.84v-16.32a3.84 3.84 0 0 1 3.84-3.84Z" fill="#fff"/><path d="M-777.75-3932.622h16.32a3.84 3.84 0 0 1 3.84 3.84v16.32a3.84 3.84 0 0 1-3.84 3.84h-16.32a3.84 3.84 0 0 1-3.84-3.84v-16.32a3.84 3.84 0 0 1 3.84-3.84Z" stroke="#000" stroke-linecap="round" stroke-linejoin="round" stroke-width=".25"/><path d="M-764.64-3923.509h-.825v-1.65a4.127 4.127 0 0 0-4.125-4.125 4.127 4.127 0 0 0-4.125 4.125v1.65h-.825c-.908 0-1.65.742-1.65 1.65v8.25c0 .907.742 1.65 1.65 1.65h9.9c.907 0 1.65-.743 1.65-1.65v-8.25c0-.908-.743-1.65-1.65-1.65Zm-4.95 7.425c-.908 0-1.65-.743-1.65-1.65 0-.908.742-1.65 1.65-1.65.907 0 1.65.742 1.65 1.65 0 .907-.743 1.65-1.65 1.65Zm2.557-7.425h-5.115v-1.65a2.56 2.56 0 0 1 2.558-2.558 2.56 2.56 0 0 1 2.557 2.558v1.65Z" fill="#65727e"/></g></svg>