<svg xmlns="http://www.w3.org/2000/svg" width="103" height="103" viewBox="398.31 1247.766 103 103"><g fill="none"><ellipse cx="449.81" cy="1299.266" fill="#fff" rx="50" ry="49.262"/><path stroke="#000" stroke-linecap="round" stroke-linejoin="round" stroke-width="3" d="m449.81 1349.266 4.357-.19 4.325-.57 4.259-.943 4.16-1.312 4.03-1.67 3.869-2.013 3.678-2.344 3.461-2.655 3.216-2.947 2.947-3.216 2.655-3.46 2.344-3.68 2.014-3.869 1.67-4.03 1.31-4.16.945-4.258.57-4.325.19-4.358-.19-4.357-.57-4.325-.944-4.259-1.312-4.16-1.669-4.03-2.014-3.869-2.344-3.678-2.655-3.461-2.947-3.216-3.216-2.947-3.46-2.655-3.68-2.344-3.869-2.014-4.03-1.67-4.16-1.311-4.258-.944-4.325-.57-4.357-.19-4.358.19-4.325.57-4.258.944-4.16 1.312-4.03 1.669-3.87 2.014-3.678 2.344-3.46 2.655-3.217 2.947-2.947 3.216-2.655 3.46-2.344 3.68-2.014 3.868-1.669 4.03-1.312 4.16-.944 4.259-.57 4.325-.19 4.357.19 4.358.57 4.325.944 4.258 1.312 4.16 1.67 4.03 2.013 3.87 2.344 3.678 2.655 3.46 2.947 3.217 3.216 2.947 3.46 2.655 3.68 2.344 3.869 2.014 4.03 1.669 4.16 1.312 4.258.944 4.325.569 4.358.19"/></g></svg>