<svg xmlns="http://www.w3.org/2000/svg" width="103" height="103" viewBox="724.5 251.5 103 103"><g fill="none"><ellipse cx="776" cy="303" fill="#fff" rx="50" ry="49.262"/><path stroke="#000" stroke-linecap="round" stroke-linejoin="round" stroke-width="3" d="m776 353 4.358-.19 4.324-.57 4.259-.944 4.16-1.311 4.03-1.67 3.869-2.014 3.679-2.343 3.46-2.656 3.216-2.947 2.947-3.216 2.656-3.46L819.3 328l2.014-3.87 1.67-4.029 1.311-4.16.944-4.259.57-4.324L826 303l-.19-4.358-.57-4.324-.944-4.259-1.311-4.16-1.67-4.03-2.014-3.869-2.343-3.679-2.656-3.46-2.947-3.216-3.216-2.947-3.46-2.656L801 259.7l-3.87-2.014-4.029-1.67-4.16-1.311-4.259-.944-4.324-.57L776 253l-4.358.19-4.324.57-4.259.944-4.16 1.311-4.03 1.67-3.869 2.014-3.679 2.343-3.46 2.656-3.216 2.947-2.947 3.216-2.656 3.46L732.7 278l-2.014 3.87-1.67 4.029-1.311 4.16-.944 4.259-.57 4.324L726 303l.19 4.358.57 4.324.944 4.259 1.311 4.16 1.67 4.03 2.014 3.869 2.343 3.679 2.656 3.46 2.947 3.216 3.216 2.947 3.46 2.656L751 346.3l3.87 2.014 4.029 1.67 4.16 1.311 4.259.944 4.324.57L776 353"/><path fill="#65727e" d="M793.908 297.628v-12.536a3.592 3.592 0 0 0-3.582-3.581h-42.978a3.592 3.592 0 0 0-3.582 3.581v35.816a3.592 3.592 0 0 0 3.582 3.581h42.978a3.592 3.592 0 0 0 3.582-3.581v-12.536l14.326 14.326v-39.396l-14.327 14.326Z"/></g></svg>