<svg xmlns="http://www.w3.org/2000/svg" viewBox="-672.625 -3930.448 25.25 24.896" width="25.25" height="24.896"><g fill="none"><ellipse cx="-660" cy="-3918" rx="12" ry="11.823" fill="#fff"/><ellipse cx="-660" cy="-3918" rx="12" ry="11.823" stroke="#000" stroke-linecap="round" stroke-linejoin="round" stroke-width=".25"/><path d="M-664.643-3916.143h-1.856v4.642h4.642v-1.856h-2.786v-2.786Zm-1.856-3.714h1.856v-2.785h2.786v-1.858h-4.643v4.643Zm11.142 6.5h-2.786v1.856h4.643v-4.642h-1.857v2.785Zm-2.786-11.142v1.856h2.786v2.786h1.856v-4.642h-4.642Z" fill="#5c76a2"/><path d="M-664.643-3916.143h-1.856v4.642h4.642v-1.856h-2.786v-2.786Zm-1.856-3.714h1.856v-2.785h2.786v-1.858h-4.643v4.643Zm11.142 6.5h-2.786v1.856h4.643v-4.642h-1.857v2.785Zm-2.786-11.142v1.856h2.786v2.786h1.856v-4.642h-4.642Z" stroke="#5c76a2" stroke-linecap="round" stroke-linejoin="round" stroke-width=".25"/></g></svg>