<svg xmlns="http://www.w3.org/2000/svg" viewBox="-632.625 -3930.448 25.25 24.896" width="25.25" height="24.896"><g fill="none"><ellipse cx="-620" cy="-3918" rx="12" ry="11.823" fill="#fff"/><ellipse cx="-620" cy="-3918" rx="12" ry="11.823" stroke="#000" stroke-linecap="round" stroke-linejoin="round" stroke-width=".25"/><path d="M-626.5-3914.286h2.786v2.785h1.857v-4.642h-4.643v1.857Zm2.786-7.428h-2.785v1.857h4.642v-4.642h-1.857v2.785Zm5.571 10.213h1.857v-2.785h2.785v-1.857h-4.642v4.642Zm1.857-10.213v-2.785h-1.857v4.642h4.643v-1.857h-2.786Z" fill="#5c76a2"/><path d="M-626.5-3914.286h2.786v2.785h1.857v-4.642h-4.643v1.857Zm2.786-7.428h-2.785v1.857h4.642v-4.642h-1.857v2.785Zm5.571 10.213h1.857v-2.785h2.785v-1.857h-4.642v4.642Zm1.857-10.213v-2.785h-1.857v4.642h4.643v-1.857h-2.786Z" stroke="#5c76a2" stroke-linecap="round" stroke-linejoin="round" stroke-width=".25"/></g></svg>