<svg xmlns="http://www.w3.org/2000/svg" viewBox="-702.09 -3933.122 25 25" width="25" height="25"><g fill="none"><circle cx="-689.59" cy="-3920.622" r="12" fill="#fff"/><circle cx="-689.59" cy="-3920.622" r="12" stroke="#000" stroke-linecap="round" stroke-linejoin="round" stroke-width=".25"/><path d="M-696.09-3917.085h2.786v2.786h1.857v-4.643h-4.643v1.857Zm2.786-7.428h-2.786v1.857h4.643v-4.642h-1.857v2.785Zm5.57 10.214h1.858v-2.786h2.785v-1.857h-4.642v4.643Zm1.858-10.214v-2.785h-1.857v4.642h4.642v-1.857h-2.785Z" fill="#65727e"/><path d="M-696.09-3917.085h2.786v2.786h1.857v-4.643h-4.643v1.857Zm2.786-7.428h-2.786v1.857h4.643v-4.642h-1.857v2.785Zm5.57 10.214h1.858v-2.786h2.785v-1.857h-4.642v4.643Zm1.858-10.214v-2.785h-1.857v4.642h4.642v-1.857h-2.785Z" stroke="#5c76a2" stroke-linecap="round" stroke-linejoin="round" stroke-width=".25"/></g></svg>