<svg xmlns="http://www.w3.org/2000/svg" viewBox="-742.09 -3933.122 25 25" width="25" height="25"><g fill="none"><circle cx="-729.59" cy="-3920.622" r="12" fill="#fff"/><circle cx="-729.59" cy="-3920.622" r="12" stroke="#000" stroke-linecap="round" stroke-linejoin="round" stroke-width=".25"/><path d="M-734.233-3918.942h-1.857v4.643h4.643v-1.857h-2.786v-2.786Zm-1.857-3.714h1.857v-2.785h2.786v-1.857h-4.643v4.642Zm11.142 6.5h-2.785v1.857h4.642v-4.643h-1.857v2.786Zm-2.785-11.142v1.857h2.785v2.785h1.857v-4.642h-4.642Z" fill="#65727e"/><path d="M-734.233-3918.942h-1.857v4.643h4.643v-1.857h-2.786v-2.786Zm-1.857-3.714h1.857v-2.785h2.786v-1.857h-4.643v4.642Zm11.142 6.5h-2.785v1.857h4.642v-4.643h-1.857v2.786Zm-2.785-11.142v1.857h2.785v2.785h1.857v-4.642h-4.642Z" stroke="#5c76a2" stroke-linecap="round" stroke-linejoin="round" stroke-width=".25"/></g></svg>