<svg xmlns="http://www.w3.org/2000/svg" width="103" height="103" viewBox="2830.474 862.312 103 103"><g fill="none"><ellipse cx="2881.974" cy="913.812" fill="#fff" rx="50" ry="49.262"/><path stroke="#000" stroke-linecap="round" stroke-linejoin="round" stroke-width="3" d="m2881.974 963.812 4.358-.19 4.325-.57 4.258-.944 4.16-1.311 4.03-1.67 3.869-2.014 3.679-2.343 3.46-2.656 3.216-2.947 2.947-3.216 2.656-3.46 2.343-3.679 2.014-3.869 1.67-4.03 1.311-4.16.945-4.259.569-4.324.19-4.358-.19-4.358-.57-4.324-.944-4.259-1.311-4.16-1.67-4.03-2.014-3.869-2.343-3.679-2.656-3.46-2.947-3.216-3.216-2.947-3.46-2.656-3.679-2.343-3.869-2.014-4.03-1.67-4.16-1.311-4.258-.944-4.325-.57-4.358-.19-4.358.19-4.324.57-4.259.944-4.16 1.311-4.03 1.67-3.869 2.014-3.679 2.343-3.46 2.656-3.216 2.947-2.947 3.216-2.655 3.46-2.344 3.679-2.014 3.87-1.67 4.029-1.311 4.16-.944 4.259-.57 4.324-.19 4.358.19 4.358.57 4.325.944 4.258 1.312 4.16 1.669 4.03 2.014 3.869 2.344 3.679 2.655 3.46 2.947 3.216 3.216 2.947 3.46 2.656 3.679 2.343 3.87 2.014 4.029 1.67 4.16 1.311 4.259.944 4.324.57 4.358.19"/><path fill="#5c76a2" d="M2862.63 921.55h-7.737v19.343h19.344v-7.737h-11.607V921.55Zm-7.737-15.475h7.737v-11.607h11.607v-7.737h-19.344v19.344Zm46.425 27.08h-11.606v7.738h19.343V921.55h-7.737v11.607Zm-11.606-46.424v7.737h11.606v11.607h7.737V886.73h-19.343Z"/><path stroke="#5c76a2" stroke-linecap="round" stroke-linejoin="round" stroke-width="3" d="M2862.63 921.55h-7.737v19.343h19.344v-7.737h-11.607V921.55Zm-7.737-15.475h7.737v-11.607h11.607v-7.737h-19.344v19.344Zm46.425 27.08h-11.606v7.738h19.343V921.55h-7.737v11.607Zm-11.606-46.424v7.737h11.606v11.607h7.737V886.73h-19.343Z"/></g></svg>