<svg xmlns="http://www.w3.org/2000/svg" width="103" height="103" viewBox="1134.559 1023.489 103 103"><g fill="none"><path fill="#fff" d="M1152.06 1024.99h68c8.836 0 16 7.163 16 16v68c0 8.836-7.164 16-16 16h-68c-8.837 0-16-7.164-16-16v-68c0-8.837 7.163-16 16-16Z"/><path stroke="#000" stroke-linecap="round" stroke-linejoin="round" stroke-width="3" d="M1152.06 1024.99h68c8.836 0 16 7.163 16 16v68c0 8.836-7.164 16-16 16h-68c-8.837 0-16-7.164-16-16v-68c0-8.837 7.163-16 16-16Z"/><path fill="#65727e" d="M1214.92 1037.727h-57.72c-3.528 0-6.414 3.527-6.414 7.838v47.031c0 4.312 2.886 7.839 6.413 7.839h16.034v7.838h25.653v-7.838h16.033c3.528 0 6.382-3.527 6.382-7.839l.032-47.03c0-4.312-2.886-7.84-6.414-7.84Zm0 54.87h-57.72v-47.032h57.72v47.031Zm-6.414-35.274h-35.273v7.839h35.273v-7.839Zm0 15.677h-35.273v7.839h35.273V1073Zm-38.48-15.677h-6.413v7.839h6.413v-7.839Zm0 15.677h-6.413v7.839h6.413V1073Z"/></g></svg>