<svg xmlns="http://www.w3.org/2000/svg" viewBox="-592.625 -3930.625 25.25 25.25" width="25.25" height="25.25"><g fill="none"><path d="M-588.16-3930h16.32a3.84 3.84 0 0 1 3.84 3.84v16.32a3.84 3.84 0 0 1-3.84 3.84h-16.32a3.84 3.84 0 0 1-3.84-3.84v-16.32a3.84 3.84 0 0 1 3.84-3.84Z" fill="#fff"/><path d="M-588.16-3930h16.32a3.84 3.84 0 0 1 3.84 3.84v16.32a3.84 3.84 0 0 1-3.84 3.84h-16.32a3.84 3.84 0 0 1-3.84-3.84v-16.32a3.84 3.84 0 0 1 3.84-3.84Z" stroke="#000" stroke-linecap="round" stroke-linejoin="round" stroke-width=".25"/><path d="M-573.074-3926.943h-13.852c-.847 0-1.54.847-1.54 1.881v11.288c0 1.034.693 1.881 1.54 1.881h3.848v1.881h6.156v-1.881h3.848c.847 0 1.532-.847 1.532-1.881l.008-11.288c0-1.035-.693-1.881-1.54-1.881Zm0 13.169h-13.852v-11.288h13.852v11.288Zm-1.539-8.466h-8.465v1.881h8.465v-1.881Zm0 3.763h-8.465v1.881h8.465v-1.881Zm-9.235-3.763h-1.54v1.881h1.54v-1.881Zm0 3.763h-1.54v1.881h1.54v-1.881Z" fill="#65727e"/></g></svg>