<svg xmlns="http://www.w3.org/2000/svg" viewBox="-662.09 -3933.122 25 25" width="25" height="25"><g fill="none"><path d="M-657.75-3932.622h16.32a3.84 3.84 0 0 1 3.84 3.84v16.32a3.84 3.84 0 0 1-3.84 3.84h-16.32a3.84 3.84 0 0 1-3.84-3.84v-16.32a3.84 3.84 0 0 1 3.84-3.84Z" fill="#fff"/><path d="M-657.75-3932.622h16.32a3.84 3.84 0 0 1 3.84 3.84v16.32a3.84 3.84 0 0 1-3.84 3.84h-16.32a3.84 3.84 0 0 1-3.84-3.84v-16.32a3.84 3.84 0 0 1 3.84-3.84Z" stroke="#000" stroke-linecap="round" stroke-linejoin="round" stroke-width=".25"/><path d="M-642.664-3929.565h-13.853c-.846 0-1.539.847-1.539 1.881v11.288c0 1.035.693 1.881 1.54 1.881h3.847v1.881h6.157v-1.881h3.848c.847 0 1.532-.846 1.532-1.881l.007-11.287c0-1.035-.692-1.882-1.539-1.882Zm0 13.169h-13.853v-11.287h13.853v11.287Zm-1.54-8.466h-8.465v1.882h8.466v-1.882Zm0 3.763h-8.465v1.881h8.466v-1.881Zm-9.234-3.763h-1.54v1.882h1.54v-1.882Zm0 3.763h-1.54v1.881h1.54v-1.881Z" fill="#65727e"/></g></svg>