<svg xmlns="http://www.w3.org/2000/svg" width="103" height="103" viewBox="1254.712 1139.697 103 103"><g fill="none"><path fill="#fff" d="M1272.212 1141.197h68c8.837 0 16 7.163 16 16v68c0 8.836-7.163 16-16 16h-68c-8.836 0-16-7.164-16-16v-68c0-8.837 7.164-16 16-16Z"/><path stroke="#000" stroke-linecap="round" stroke-linejoin="round" stroke-width="3" d="M1272.212 1141.197h68c8.837 0 16 7.163 16 16v68c0 8.836-7.163 16-16 16h-68c-8.836 0-16-7.164-16-16v-68c0-8.837 7.164-16 16-16Z"/><path fill="#65727e" d="M1279.712 1207.06h53c6.628 0 12 5.373 12 12 0 6.628-5.372 12-12 12h-53c-6.627 0-12-5.372-12-12 0-6.627 5.373-12 12-12Z"/><path stroke="#65727e" stroke-linecap="round" stroke-linejoin="round" stroke-width="3" d="M1279.712 1207.06h53c6.628 0 12 5.373 12 12h0c0 6.628-5.372 12-12 12h-53c-6.627 0-12-5.372-12-12h0c0-6.627 5.373-12 12-12Z"/><path fill="#65727e" d="M1267.712 1207.06h77v9.64h-77z"/><path stroke="#65727e" stroke-linecap="round" stroke-linejoin="round" stroke-width="3" d="M1267.712 1207.06h77v9.64h-77z"/><path fill="#000" d="m1316.858 1175.022-1.73-1.729-5.697 5.698v-20.04h-2.438v20.04l-5.697-5.698-1.73 1.73 8.646 8.645Z"/><path stroke="#65727e" stroke-linecap="round" stroke-linejoin="round" stroke-width="6" d="m1316.858 1175.022-1.73-1.729-5.697 5.698v-20.04h-2.438v20.04l-5.697-5.698-1.73 1.73 8.646 8.645Z"/></g></svg>