<svg xmlns="http://www.w3.org/2000/svg" viewBox="-512.625 -3930.625 25.25 25.25" width="25.25" height="25.25"><g fill="none"><path d="M-508.16-3930h16.32a3.84 3.84 0 0 1 3.84 3.84v16.32a3.84 3.84 0 0 1-3.84 3.84h-16.32a3.84 3.84 0 0 1-3.84-3.84v-16.32a3.84 3.84 0 0 1 3.84-3.84Z" fill="#fff"/><path d="M-508.16-3930h16.32a3.84 3.84 0 0 1 3.84 3.84v16.32a3.84 3.84 0 0 1-3.84 3.84h-16.32a3.84 3.84 0 0 1-3.84-3.84v-16.32a3.84 3.84 0 0 1 3.84-3.84Z" stroke="#000" stroke-linecap="round" stroke-linejoin="round" stroke-width=".25"/><path d="M-506.36-3914.193h12.72a2.88 2.88 0 1 1 0 5.76h-12.72a2.88 2.88 0 0 1 0-5.76Z" fill="#65727e"/><path d="M-506.36-3914.193h12.72a2.88 2.88 0 0 1 2.88 2.88h0a2.88 2.88 0 0 1-2.88 2.88h-12.72a2.88 2.88 0 0 1-2.88-2.88h0a2.88 2.88 0 0 1 2.88-2.88Z" stroke="#65727e" stroke-linecap="round" stroke-linejoin="round" stroke-width=".72"/><path fill="#65727e" d="M-509.24-3914.193h18.48v2.314h-18.48z"/><path stroke="#65727e" stroke-linecap="round" stroke-linejoin="round" stroke-width=".72" d="M-509.24-3914.193h18.48v2.314h-18.48z"/><path d="m-497.445-3921.882-.415-.415-1.367 1.367v-4.809h-.586v4.81l-1.367-1.368-.415.415 2.075 2.075Z" fill="#000"/><path d="m-497.445-3921.882-.415-.415-1.367 1.367v-4.809h-.586v4.81l-1.367-1.368-.415.415 2.075 2.075Z" stroke="#65727e" stroke-linecap="round" stroke-linejoin="round"/></g></svg>