<svg xmlns="http://www.w3.org/2000/svg" viewBox="-622.09 -3933.122 25 25" width="25" height="25"><g fill="none"><path d="M-617.75-3932.622h16.32a3.84 3.84 0 0 1 3.84 3.84v16.32a3.84 3.84 0 0 1-3.84 3.84h-16.32a3.84 3.84 0 0 1-3.84-3.84v-16.32a3.84 3.84 0 0 1 3.84-3.84Z" fill="#fff"/><path d="M-617.75-3932.622h16.32a3.84 3.84 0 0 1 3.84 3.84v16.32a3.84 3.84 0 0 1-3.84 3.84h-16.32a3.84 3.84 0 0 1-3.84-3.84v-16.32a3.84 3.84 0 0 1 3.84-3.84Z" stroke="#000" stroke-linecap="round" stroke-linejoin="round" stroke-width=".25"/><path d="M-606.733-3921.574v1.905h-1.905v-1.905Zm-1.905-1.905v1.905h-1.905v-1.905Zm0 3.81v1.905h-1.905v-1.905Zm1.905 1.905v1.905h-1.905v-1.905Zm0-7.62v1.905h-1.905v-1.905Zm5.715 11.43v-13.335a1.91 1.91 0 0 0-1.905-1.905h-13.335a1.91 1.91 0 0 0-1.904 1.905v13.335a1.91 1.91 0 0 0 1.904 1.905h13.335a1.91 1.91 0 0 0 1.905-1.905Zm-14.287-9.525v-1.905h1.905v1.905h-1.905Zm0 3.81v-1.905h1.905v1.905h-1.905Zm0 3.81v-1.905h1.905v1.905h-1.905Zm6.667 1.905v-1.905h-1.905v1.905h-1.905v-1.905h1.905v-1.905h-1.905v-1.905h1.905v-1.905h-1.905v-1.905h1.905v-1.905h-1.905v-1.905h1.905v1.905h1.905v-1.905h5.715v13.335h-5.715Z" fill="#67727d"/></g></svg>