<svg xmlns="http://www.w3.org/2000/svg" viewBox="-582.09 -3933.122 25 25" width="25" height="25"><g fill="none"><path d="M-577.75-3932.622h16.32a3.84 3.84 0 0 1 3.84 3.84v16.32a3.84 3.84 0 0 1-3.84 3.84h-16.32a3.84 3.84 0 0 1-3.84-3.84v-16.32a3.84 3.84 0 0 1 3.84-3.84Z" fill="#fff"/><path d="M-577.75-3932.622h16.32a3.84 3.84 0 0 1 3.84 3.84v16.32a3.84 3.84 0 0 1-3.84 3.84h-16.32a3.84 3.84 0 0 1-3.84-3.84v-16.32a3.84 3.84 0 0 1 3.84-3.84Z" stroke="#000" stroke-linecap="round" stroke-linejoin="round" stroke-width=".25"/><path d="M-575.95-3916.814h12.72a2.88 2.88 0 0 1 0 5.76h-12.72a2.88 2.88 0 0 1 0-5.76Z" fill="#65727e"/><path d="M-575.95-3916.814h12.72a2.88 2.88 0 0 1 2.88 2.88h0a2.88 2.88 0 0 1-2.88 2.88h-12.72a2.88 2.88 0 0 1-2.88-2.88h0a2.88 2.88 0 0 1 2.88-2.88Z" stroke="#65727e" stroke-linecap="round" stroke-linejoin="round" stroke-width=".72"/><path fill="#65727e" d="M-578.83-3916.814h18.48v2.314h-18.48z"/><path stroke="#65727e" stroke-linecap="round" stroke-linejoin="round" stroke-width=".72" d="M-578.83-3916.814h18.48v2.314h-18.48z"/><path d="m-567.035-3924.504-.415-.415-1.368 1.368v-4.81h-.585v4.81l-1.367-1.368-.415.415 2.075 2.075Z" fill="#000"/><path d="m-567.035-3924.504-.415-.415-1.368 1.368v-4.81h-.585v4.81l-1.367-1.368-.415.415 2.075 2.075Z" stroke="#65727e" stroke-linecap="round" stroke-linejoin="round"/></g></svg>