<svg xmlns="http://www.w3.org/2000/svg" width="103" height="103" viewBox="2940.5 1634.778 103 103"><g fill="none"><path fill="#fff" d="M3026 1736.278h-68c-8.837 0-16-7.164-16-16v-68c0-8.837 7.163-16 16-16h68c8.836 0 16 7.163 16 16v68c0 8.836-7.164 16-16 16Z"/><path stroke="#000" stroke-linecap="round" stroke-linejoin="round" stroke-width="3" d="M3026 1736.278h-68c-8.837 0-16-7.164-16-16v-68c0-8.837 7.163-16 16-16h68c8.836 0 16 7.163 16 16v68c0 8.836-7.164 16-16 16Z"/><path stroke="#65727e" stroke-linecap="round" stroke-linejoin="round" stroke-width="6" d="M3030.268 1661.55c.152-.763.232-1.553.232-2.36 0-6.628-5.373-12-12-12h-53c-6.627 0-12 5.372-12 12 0 .807.08 1.597.232 2.36h-.232v9.64H3030.5v-9.64Z"/><path fill="#000" d="m2983.355 1703.712 1.729 1.729 5.697-5.697v20.04h2.438v-20.04l5.697 5.697 1.73-1.73-8.646-8.645Z"/><path stroke="#65727e" stroke-linecap="round" stroke-linejoin="round" stroke-width="6" d="m2983.355 1703.712 1.729 1.729 5.697-5.697v20.04h2.438v-20.04l5.697 5.697 1.73-1.73-8.646-8.645Z"/></g></svg>