<svg xmlns="http://www.w3.org/2000/svg" viewBox="-542.09 -3933.122 25 25" width="25" height="25"><g fill="none"><path d="M-537.75-3932.622h16.32a3.84 3.84 0 0 1 3.84 3.84v16.32a3.84 3.84 0 0 1-3.84 3.84h-16.32a3.84 3.84 0 0 1-3.84-3.84v-16.32a3.84 3.84 0 0 1 3.84-3.84Z" fill="#fff"/><path d="M-537.75-3932.622h16.32a3.84 3.84 0 0 1 3.84 3.84v16.32a3.84 3.84 0 0 1-3.84 3.84h-16.32a3.84 3.84 0 0 1-3.84-3.84v-16.32a3.84 3.84 0 0 1 3.84-3.84Z" stroke="#000" stroke-linecap="round" stroke-linejoin="round" stroke-width=".25"/><path d="M-538.775-3914.687a2.88 2.88 0 0 0 2.824 3.447h12.72a2.88 2.88 0 0 0 2.825-3.447h.056v-2.314h-2.88s0 0 0 0h-12.72s0 0 0 0h-2.88v2.314Z" stroke="#65727e" stroke-linecap="round" stroke-linejoin="round" stroke-width="1.44"/><path d="m-527.035-3924.504-.415-.415-1.368 1.368v-4.81h-.585v4.81l-1.367-1.368-.415.415 2.075 2.075Z" fill="#000"/><path d="m-527.035-3924.504-.415-.415-1.368 1.368v-4.81h-.585v4.81l-1.367-1.368-.415.415 2.075 2.075Z" stroke="#65727e" stroke-linecap="round" stroke-linejoin="round"/></g></svg>