<svg xmlns="http://www.w3.org/2000/svg" viewBox="-432.625 -3930.625 25.25 25.25" width="25.25" height="25.25"><g fill="none"><path d="M-411.84-3906h-16.32a3.84 3.84 0 0 1-3.84-3.84v-16.32a3.84 3.84 0 0 1 3.84-3.84h16.32a3.84 3.84 0 0 1 3.84 3.84v16.32a3.84 3.84 0 0 1-3.84 3.84Z" fill="#fff"/><path d="M-411.84-3906h-16.32a3.84 3.84 0 0 1-3.84-3.84v-16.32a3.84 3.84 0 0 1 3.84-3.84h16.32a3.84 3.84 0 0 1 3.84 3.84v16.32a3.84 3.84 0 0 1-3.84 3.84Z" stroke="#000" stroke-linecap="round" stroke-linejoin="round" stroke-width=".25"/><path d="M-410.816-3923.935a2.88 2.88 0 0 0-2.824-3.446h-12.72a2.88 2.88 0 0 0-2.824 3.446h-.056v2.314h2.88s0 0 0 0h12.72s0 0 0 0h2.88v-2.314Z" stroke="#65727e" stroke-linecap="round" stroke-linejoin="round" stroke-width="1.44"/><path d="m-422.075-3913.816.415.415 1.367-1.367v4.81h.586v-4.81l1.367 1.367.415-.415-2.075-2.075Z" fill="#000"/><path d="m-422.075-3913.816.415.415 1.367-1.367v4.81h.586v-4.81l1.367 1.367.415-.415-2.075-2.075Z" stroke="#65727e" stroke-linecap="round" stroke-linejoin="round"/></g></svg>