<svg xmlns="http://www.w3.org/2000/svg" viewBox="-502.09 -3933.122 25 25" width="25" height="25"><g fill="none"><path d="M-481.43-3908.622h-16.32a3.84 3.84 0 0 1-3.84-3.84v-16.32a3.84 3.84 0 0 1 3.84-3.84h16.32a3.84 3.84 0 0 1 3.84 3.84v16.32a3.84 3.84 0 0 1-3.84 3.84Z" fill="#fff"/><path d="M-481.43-3908.622h-16.32a3.84 3.84 0 0 1-3.84-3.84v-16.32a3.84 3.84 0 0 1 3.84-3.84h16.32a3.84 3.84 0 0 1 3.84 3.84v16.32a3.84 3.84 0 0 1-3.84 3.84Z" stroke="#000" stroke-linecap="round" stroke-linejoin="round" stroke-width=".25"/><path d="M-480.406-3926.557a2.88 2.88 0 0 0-2.824-3.447l-12.72.001a2.88 2.88 0 0 0-2.825 3.447h-.055v2.313h2.88s0 0 0 0h12.72s0 0 0 0h2.88v-2.314Z" stroke="#65727e" stroke-linecap="round" stroke-linejoin="round" stroke-width="1.44"/><path d="m-491.665-3916.438.415.415 1.367-1.367v4.81h.585v-4.81l1.368 1.367.415-.415-2.075-2.074Z" fill="#000"/><path d="m-491.665-3916.438.415.415 1.367-1.367v4.81h.585v-4.81l1.368 1.367.415-.415-2.075-2.074Z" stroke="#65727e" stroke-linecap="round" stroke-linejoin="round"/></g></svg>