<svg xmlns="http://www.w3.org/2000/svg" viewBox="-422.09 -3933.122 25 25" width="25" height="25"><g fill="none"><circle cx="-409.59" cy="-3920.622" r="12" fill="#fff"/><circle cx="-409.59" cy="-3920.622" r="12" stroke="#000" stroke-linecap="round" stroke-linejoin="round" stroke-width=".25"/><path d="M-402.628-3919.804h-5.488a.48.48 0 0 0-.48.48v5.007a.48.48 0 0 1-.48.48h-1.029a.48.48 0 0 1-.48-.48v-5.007a.48.48 0 0 0-.48-.48h-5.007a.48.48 0 0 1-.48-.48v-1.03a.48.48 0 0 1 .48-.48h5.007a.48.48 0 0 0 .48-.48v-5.007a.48.48 0 0 1 .48-.48h1.03a.48.48 0 0 1 .48.48v5.008c0 .265.214.48.48.48h5.007a.48.48 0 0 1 .48.48v1.509Z" fill="#65727e"/><path d="M-402.628-3919.804h-5.488a.48.48 0 0 0-.48.48v5.007a.48.48 0 0 1-.48.48h-1.029a.48.48 0 0 1-.48-.48v-5.007a.48.48 0 0 0-.48-.48h-5.007a.48.48 0 0 1-.48-.48v-1.03a.48.48 0 0 1 .48-.48h5.007a.48.48 0 0 0 .48-.48v-5.007a.48.48 0 0 1 .48-.48h1.03a.48.48 0 0 1 .48.48v5.008c0 .265.214.48.48.48h5.007a.48.48 0 0 1 .48.48v1.509Z" stroke="#65727e" stroke-linecap="round" stroke-linejoin="round" stroke-width="1.92"/></g></svg>