<svg xmlns="http://www.w3.org/2000/svg" width="103" height="103" viewBox="598.865 1154.231 103 103"><g fill="none"><ellipse cx="650.365" cy="1205.731" fill="#fff" rx="50" ry="49.262"/><path stroke="#000" stroke-linecap="round" stroke-linejoin="round" stroke-width="3" d="m650.365 1255.731 4.358-.19 4.325-.57 4.258-.943 4.16-1.312 4.03-1.67 3.87-2.013 3.678-2.344 3.46-2.655 3.216-2.947 2.947-3.216 2.656-3.46 2.343-3.68 2.014-3.869 1.67-4.03 1.311-4.16.944-4.258.57-4.325.19-4.358-.19-4.357-.57-4.325-.944-4.258-1.311-4.16-1.67-4.03-2.014-3.87-2.343-3.678-2.656-3.461-2.947-3.216-3.216-2.947-3.46-2.655-3.679-2.344-3.869-2.014-4.03-1.67-4.16-1.31-4.259-.945-4.324-.57-4.358-.19-4.358.19-4.324.57-4.259.944-4.16 1.312-4.03 1.669-3.869 2.014-3.679 2.344-3.46 2.655-3.216 2.947-2.947 3.216-2.656 3.46-2.343 3.68-2.014 3.869-1.67 4.03-1.311 4.16-.944 4.258-.57 4.325-.19 4.357.19 4.358.57 4.325.944 4.258 1.311 4.16 1.67 4.03 2.014 3.87 2.343 3.678 2.656 3.46 2.947 3.217 3.216 2.947 3.46 2.655 3.68 2.344 3.868 2.014 4.03 1.67 4.16 1.31 4.259.945 4.324.57 4.358.19"/><path stroke="#65727e" stroke-linecap="round" stroke-linejoin="round" stroke-width="16" d="M625.365 1205.231h50"/></g></svg>