<svg xmlns="http://www.w3.org/2000/svg" viewBox="-352.625 -3930.448 25.25 24.896" width="25.25" height="24.896"><g fill="none"><ellipse cx="-340" cy="-3918" rx="12" ry="11.823" fill="#fff"/><ellipse cx="-340" cy="-3918" rx="12" ry="11.823" stroke="#000" stroke-linecap="round" stroke-linejoin="round" stroke-width=".25"/><path d="M-333.038-3917.005h-5.487a.48.48 0 0 0-.48.48v5.007a.48.48 0 0 1-.48.48h-1.03a.48.48 0 0 1-.48-.48v-5.007a.48.48 0 0 0-.48-.48h-5.007a.48.48 0 0 1-.48-.48v-1.03a.48.48 0 0 1 .48-.48h5.007a.48.48 0 0 0 .48-.48v-5.007a.48.48 0 0 1 .48-.48h1.03a.48.48 0 0 1 .48.48v5.007c0 .265.214.48.48.48h5.007a.48.48 0 0 1 .48.48v1.51Z" fill="#65727e"/><path d="M-333.038-3917.005h-5.487a.48.48 0 0 0-.48.48v5.007a.48.48 0 0 1-.48.48h-1.03a.48.48 0 0 1-.48-.48v-5.007a.48.48 0 0 0-.48-.48h-5.007a.48.48 0 0 1-.48-.48v-1.03a.48.48 0 0 1 .48-.48h5.007a.48.48 0 0 0 .48-.48v-5.007a.48.48 0 0 1 .48-.48h1.03a.48.48 0 0 1 .48.48v5.007c0 .265.214.48.48.48h5.007a.48.48 0 0 1 .48.48v1.51Z" stroke="#65727e" stroke-linecap="round" stroke-linejoin="round" stroke-width="1.92"/></g></svg>