<svg xmlns="http://www.w3.org/2000/svg" viewBox="-462.09 -3933.122 25 25" width="25" height="25"><g fill="none"><circle cx="-449.59" cy="-3920.622" r="12" fill="#fff"/><circle cx="-449.59" cy="-3920.622" r="12" stroke="#000" stroke-linecap="round" stroke-linejoin="round" stroke-width=".25"/><path d="M-452.033-3914.495h-.8v-2.636l-4.636 4.636-.564-.564 4.636-4.636h-2.636v-.8h4Z" fill="#65727e"/><path d="M-452.033-3914.495h-.8v-2.636l-4.636 4.636-.564-.564 4.636-4.636h-2.636v-.8h4Z" stroke="#65727e" stroke-linecap="round" stroke-linejoin="round"/><path d="M-452.038-3926.748h-.8v2.636l-4.636-4.636-.564.564 4.636 4.636h-2.636v.8h4Z" fill="#65727e"/><path d="M-452.038-3926.748h-.8v2.636l-4.636-4.636-.564.564 4.636 4.636h-2.636v.8h4Z" stroke="#65727e" stroke-linecap="round" stroke-linejoin="round"/><path d="M-447.143-3926.748h.8v2.636l4.636-4.636.564.564-4.636 4.636h2.636v.8h-4Z" fill="#65727e"/><path d="M-447.143-3926.748h.8v2.636l4.636-4.636.564.564-4.636 4.636h2.636v.8h-4Z" stroke="#65727e" stroke-linecap="round" stroke-linejoin="round"/><path d="M-447.185-3914.495h.8v-2.636l4.637 4.636.563-.564-4.635-4.636h2.635v-.8h-4Z" fill="#65727e"/><path d="M-447.185-3914.495h.8v-2.636l4.637 4.636.563-.564-4.635-4.636h2.635v-.8h-4Z" stroke="#65727e" stroke-linecap="round" stroke-linejoin="round"/></g></svg>