<svg xmlns="http://www.w3.org/2000/svg" width="103" height="103" viewBox="712.277 1154.232 103 103"><g fill="none"><ellipse cx="763.777" cy="1205.732" fill="#fff" rx="50" ry="49.262"/><path stroke="#000" stroke-dasharray="6.0,6.0" stroke-linecap="round" stroke-linejoin="round" stroke-width="3" d="m763.777 1255.732 4.357-.19 4.325-.57 4.259-.944 4.16-1.312 4.03-1.67 3.869-2.013 3.678-2.344 3.461-2.655 3.216-2.947 2.947-3.216 2.655-3.46 2.344-3.68 2.014-3.869 1.67-4.03 1.31-4.16.945-4.258.57-4.325.19-4.357-.19-4.358-.57-4.325-.944-4.258-1.312-4.16-1.669-4.03-2.014-3.87-2.344-3.678-2.655-3.46-2.947-3.217-3.216-2.947-3.46-2.655-3.68-2.344-3.868-2.014-4.03-1.67-4.16-1.31-4.259-.945-4.325-.57-4.357-.19-4.358.19-4.325.57-4.258.944-4.16 1.312-4.03 1.67-3.87 2.013-3.678 2.344-3.46 2.655-3.217 2.947-2.947 3.216-2.655 3.46-2.344 3.68-2.014 3.869-1.669 4.03-1.312 4.16-.944 4.258-.57 4.325-.19 4.358.19 4.357.57 4.325.944 4.258 1.312 4.16 1.67 4.03 2.013 3.87 2.344 3.678 2.655 3.46 2.947 3.217 3.216 2.947 3.46 2.655 3.68 2.344 3.869 2.014 4.03 1.67 4.16 1.31 4.258.945 4.325.57 4.358.19"/><path fill="#000" d="M753.864 1232.863h-3.334v-10.983l-19.316 19.317-2.35-2.35 19.316-19.317h-10.983v-3.333h16.667Z"/><path stroke="#65727e" stroke-linecap="round" stroke-linejoin="round" stroke-width="6" d="M753.864 1232.863h-3.334v-10.983l-19.316 19.317-2.35-2.35 19.316-19.317h-10.983v-3.333h16.667Z"/><path fill="#000" d="M753.845 1181.81h-3.334v10.983l-19.317-19.317-2.35 2.35 19.317 19.317h-10.983v3.333h16.667Z"/><path stroke="#65727e" stroke-linecap="round" stroke-linejoin="round" stroke-width="6" d="M753.845 1181.81h-3.334v10.983l-19.317-19.317-2.35 2.35 19.317 19.317h-10.983v3.333h16.667Z"/><path fill="#000" d="M774.242 1181.81h3.334v10.983l19.316-19.317 2.35 2.35-19.316 19.317h10.983v3.333h-16.667Z"/><path stroke="#65727e" stroke-linecap="round" stroke-linejoin="round" stroke-width="6" d="M774.242 1181.81h3.334v10.983l19.316-19.317 2.35 2.35-19.316 19.317h10.983v3.333h-16.667Z"/><path fill="#000" d="M774.067 1232.863h3.334v-10.983l19.317 19.317 2.35-2.35-19.317-19.317h10.983v-3.333h-16.667Z"/><path stroke="#65727e" stroke-linecap="round" stroke-linejoin="round" stroke-width="6" d="M774.067 1232.863h3.334v-10.983l19.317 19.317 2.35-2.35-19.317-19.317h10.983v-3.333h-16.667Z"/></g></svg>